<svg width="77" height="77" viewBox="0 0 77 77" fill="none" xmlns="http://www.w3.org/2000/svg">
<g clip-path="url(#clip0_2169_718)">
<path d="M37.2959 0H68.8403L68.9907 0.0751953L69.8555 0.263184L70.645 0.48877L71.5474 0.864746L72.3369 1.27832L73.1265 1.80469L73.54 2.14307L74.0664 2.59424L74.5176 3.04541V3.12061H74.5928L74.9312 3.53418L75.3823 4.13574L75.8335 4.8877L76.1343 5.48926L76.3975 6.09082L76.6606 6.88037L76.8862 7.82031L76.9614 8.0459H76.999V39.8911L76.9238 39.9287L76.7358 40.8311L76.5103 41.6206L76.1719 42.4478L75.8711 43.0493L75.5703 43.5757L75.2319 44.0645L74.856 44.5532L74.1792 45.3052L73.6904 45.7563L73.2017 46.1323L72.8257 46.3955L72.0361 46.8843L71.1714 47.2979L70.0435 47.6738L69.1787 47.8618L68.3892 47.9746L67.8628 48.0122L41.6572 48.0498L40.9429 48.5762L40.4541 48.9521L39.6646 49.5537L38.9502 50.0801L38.1606 50.6816L37.4463 51.208L36.6567 51.8096L34.8521 53.1631L34.1377 53.6895L33.6489 54.0654L32.9346 54.5918L32.4082 54.9302L31.957 55.1558L31.4683 55.2686H31.1299L30.6411 55.1934L30.1899 55.0054L29.7012 54.667L29.3252 54.2158L29.0996 53.7646L28.9868 53.2759L28.9492 52.8999V9.47461L29.0244 8.34668L29.1748 7.48193L29.438 6.50439L29.7388 5.71484L30.1147 4.92529L30.6035 4.13574L30.9419 3.68457L31.2427 3.30859L31.6562 2.85742L32.145 2.36865L32.5586 2.03027L33.1226 1.6167L33.7241 1.24072L34.5889 0.789551L35.1528 0.563965L35.8296 0.338379L36.7695 0.112793L37.2959 0ZM38.687 4.51172L37.7095 4.58691L37.1455 4.69971L36.5063 4.92529L35.8672 5.26367L35.3784 5.63965L34.9648 5.97803L34.5513 6.4668L34.2881 6.84277L33.9121 7.55713L33.6865 8.23389L33.5737 8.87305L33.5361 9.17383V48.3882L33.7241 48.313L34.2129 47.937L35.5664 46.9219L36.356 46.3203L37.0703 45.7939L37.8599 45.1924L38.5742 44.666L39.3638 44.0645L39.9277 43.7261L40.3413 43.5757L40.8301 43.5005H65.6069L67.6748 43.4629L68.5771 43.3501L69.2915 43.1245L69.9307 42.8237L70.457 42.4854L70.9834 42.0342L71.3594 41.6206L71.7354 41.0942L72.0737 40.4551L72.2617 39.8911L72.3745 39.4023L72.4497 38.7256V9.28662L72.3369 8.42188L72.1113 7.66992L71.7729 6.95557L71.4722 6.50439L71.0586 6.01562L70.645 5.63965L70.1187 5.26367L69.4043 4.8877L68.5396 4.62451L67.8628 4.54932L67.1484 4.51172H38.687Z" fill="black"/>
<path d="M13.9863 36.2065H14.7383L15.7158 36.2817L16.8438 36.4697L17.8589 36.7329L18.9116 37.1089L20.0771 37.6729L21.0547 38.2744L21.8442 38.876L22.3706 39.3271L23.2354 40.1919L23.5737 40.6055L24.0249 41.1694L24.4009 41.7334L24.7393 42.2974L25.1904 43.1621L25.5664 44.1021L25.8296 44.8916L26.0928 46.0195L26.2432 47.1475L26.2808 47.749V48.501L26.2056 49.4785L26.0928 50.2681L25.9424 50.9824L25.7168 51.8096L25.416 52.6367L24.9272 53.6895L24.3633 54.667L23.9497 55.231L23.4609 55.8701L23.2729 56.0957H23.1978L23.1226 56.2461L22.5586 56.8101L22.0322 57.2988L21.769 57.4868H21.6938L21.8818 57.6748L22.3706 58.0132L23.1226 58.5396L23.4985 58.8779L23.9121 59.2163L24.5137 59.7803L25.04 60.3442V60.4194H25.1152L25.792 61.2466L26.3936 62.1113L26.8071 62.7881L27.4839 64.104L27.8223 65.0063L28.1982 66.1343L28.499 67.5254L28.6118 68.5029L28.687 69.5933V74.9321L28.6118 75.3457L28.4238 75.8345L28.123 76.248L27.7471 76.5864L27.2959 76.8496L26.9199 77H1.72949L1.16553 76.7368L0.789551 76.4736L0.451172 76.1353L0.150391 75.6465L0 75.2705V68.5781L0.0751953 68.2021L0.187988 67.4502L0.48877 66.0591L0.939941 64.7056L1.24072 63.9912L1.72949 63.0137L2.06787 62.4121L2.44385 61.8857L2.74463 61.4346L3.08301 60.9834L3.53418 60.457L3.68457 60.269H3.75977L3.83496 60.1187L4.09814 59.8179H4.17334L4.24854 59.6675L4.36133 59.6299V59.5547L4.66211 59.2915L5.03809 58.9531L5.45166 58.6147L5.94043 58.2388L6.84277 57.6372L6.95557 57.5996L6.4668 57.1108L6.3916 57.0732V56.998L6.24121 56.9229L5.48926 56.1709V56.0957H5.41406L5.15088 55.7949L4.7749 55.3062L4.32373 54.667L3.98535 54.103L3.60938 53.4263L3.1958 52.4863L2.81982 51.3584L2.63184 50.5688L2.48145 49.7041L2.40625 48.877V47.3354L2.51904 46.3579L2.70703 45.3804L3.00781 44.3276L3.38379 43.3877L3.83496 42.4478L4.28613 41.6958L4.7373 41.0566L5.11328 40.5679L5.45166 40.1919L5.48926 40.1167H5.56445L5.63965 39.9663L6.31641 39.2896L7.14355 38.6128L7.78271 38.1616L8.34668 37.8232L8.94824 37.4849L9.6626 37.1465L10.6777 36.7705L11.8057 36.4697L12.9336 36.2817L13.9863 36.2065ZM13.6104 40.7935L12.8584 40.9062L11.8433 41.207L11.2793 41.4326L10.5649 41.8086L10.1514 42.0718L9.5498 42.5605L9.09863 42.9365L8.42188 43.7637L8.12109 44.1772L7.63232 45.0796L7.44434 45.5308L7.14355 46.4707L7.03076 46.9971L6.95557 47.7114V48.7266L7.06836 49.5537L7.40674 50.7192L7.66992 51.3584L8.15869 52.2231L8.53467 52.7119L8.94824 53.2007L9.09863 53.3887H9.17383V53.4639L9.5874 53.8022L10.1514 54.2534L10.6777 54.5542L11.5425 55.0054L12.4824 55.3062L13.1216 55.4565L13.7607 55.5317H14.9263L15.7158 55.4189L16.6558 55.1558L17.2949 54.9302L18.3477 54.3662L18.8364 53.9902L19.3252 53.5767L19.626 53.3135L20.1147 52.7495L20.5283 52.1855L20.9043 51.5088L21.1675 50.9824L21.5435 49.7793L21.6562 49.2153L21.6938 48.877V47.5234L21.5811 46.6963L21.2427 45.5684L21.0547 45.1172L20.5659 44.1772L20.2275 43.7261L19.9268 43.3501L19.5132 42.8989L19.062 42.4854L18.4229 41.9966L17.5205 41.5078L17.1445 41.3198L15.9414 40.9438L15.3398 40.8311L15.0391 40.7935H13.6104ZM13.6104 60.1187L12.896 60.1938L11.9561 60.3818L11.1665 60.6074L10.377 60.9082L9.47461 61.3594L8.83545 61.7729L8.12109 62.2993L7.66992 62.7129L7.44434 62.9009L7.18115 63.2017L6.76758 63.6528L6.31641 64.2544L5.90283 64.8936L5.56445 65.4951L5.22607 66.2471L4.8501 67.375L4.66211 68.2021L4.54932 69.2925L4.51172 70.9468V72.4507L23.9121 72.4883L24.1377 72.4507V69.7437L24.0625 68.6909L23.9121 67.7886L23.6865 66.9238L23.3481 66.0215L22.9346 65.1567L22.4458 64.3672L21.9946 63.7656L21.5435 63.2393L20.8667 62.5625L20.4531 62.2241L19.8892 61.8105L19.0996 61.3218L18.498 61.021L17.8965 60.7578L16.9941 60.457L16.2046 60.269L15.4902 60.1562L15.0767 60.1187H13.6104Z" fill="black"/>
<path d="M52.8623 10.8281L53.8022 10.8657L54.7422 11.0161L55.6069 11.2417L56.5093 11.6177L57.2236 11.9937L57.6372 12.2568L58.2388 12.708L58.6523 13.0464V13.1216L58.8027 13.1968L59.3291 13.7607L59.8179 14.3999L60.1562 14.9263L60.457 15.4526L60.833 16.3174L61.0962 17.2197L61.2466 18.0469L61.3218 18.7612V19.4004L61.209 20.5283L60.9458 21.6187L60.6074 22.521L60.3066 23.1602L59.8179 23.9121L59.5171 24.3257L58.8403 25.0776L58.5771 25.3408L57.8252 25.9424L57.1484 26.356L56.5469 26.6943L55.3813 27.1455L55.3062 27.1831L55.2686 27.8975L55.1558 28.3862L54.8926 28.9126L54.479 29.3638L54.0654 29.627L53.7646 29.7773L53.3511 29.8901H52.6367L52.1104 29.7397L51.6592 29.4766L51.2832 29.1382L51.02 28.7622L50.7944 28.2734L50.7192 27.9351L50.6816 26.5063V25.3032L50.7568 24.7017L50.9448 24.1753L51.2456 23.7241L51.584 23.3857L52.1104 23.085L52.7119 22.9346L53.6895 22.8218L54.3662 22.6338L54.9678 22.333L55.4189 21.9946L55.7573 21.6938L56.1333 21.2051L56.4341 20.6411L56.6597 19.8892L56.6973 19.438V18.8364L56.6221 18.3101L56.3965 17.6333L56.0957 17.0693L55.6821 16.543L55.1934 16.1294L54.667 15.8286L54.2158 15.6406L53.6519 15.4902L53.2383 15.4526H52.7119L52.1104 15.5278L51.4336 15.7534L50.9072 16.0542L50.4937 16.3926L50.1177 16.7686L49.8545 17.1445L49.5537 17.7085L49.3657 18.2725L49.2529 19.2124L49.1401 19.814L48.9897 20.1899L48.7642 20.5659L48.6138 20.7539L48.2378 21.0547L47.7114 21.3179L47.2603 21.4307H46.6211L46.2827 21.3555L45.8691 21.1675L45.5308 20.9419L45.2676 20.7163L44.9292 20.2275L44.7412 19.7764L44.666 19.4004V18.7612L44.7788 17.7837L44.9668 16.9189L45.23 16.1294L45.6436 15.2271L46.0571 14.5503L46.3955 14.0991L46.6587 13.7607L47.0723 13.3096L47.4858 12.896L48.125 12.4072L48.689 12.0312L49.2905 11.6929L50.1553 11.3169L51.0576 11.0537L51.8848 10.9033L52.1479 10.8657L52.8623 10.8281Z" fill="black"/>
<path d="M52.7866 32.5972H53.2378L53.7266 32.71L54.0649 32.8604L54.4033 33.0859L54.7417 33.3867L55.0425 33.8379L55.2305 34.4019L55.2681 34.5898V35.1162L55.1177 35.7178L54.8545 36.2065L54.5161 36.5825L54.1401 36.8457L53.689 37.0337L53.1626 37.1465H52.7866L52.2603 37.0337L51.6587 36.7329L51.3579 36.4697L51.0195 36.0186L50.8315 35.605L50.7188 35.1538V34.5898L50.8691 34.0259L51.0571 33.6499L51.3955 33.2363L51.6587 33.0107L52.0347 32.7852L52.5234 32.6348L52.7866 32.5972Z" fill="black"/>
</g>
<defs>
<clipPath id="clip0_2169_718">
<rect width="77" height="77" fill="white"/>
</clipPath>
</defs>
</svg>
