<svg width="361" height="74" viewBox="0 0 361 74" fill="none" xmlns="http://www.w3.org/2000/svg">
<rect x="0.5" y="0.5" width="360" height="73" rx="15.5" fill="url(#paint0_linear_378_347)" stroke="#FB8C00"/>
<path d="M21.2524 31.3281C21.0527 30.8535 20.775 30.436 20.4191 30.0757C20.0633 29.7153 19.6466 29.4297 19.1693 29.2188C19.638 29.0166 20.0502 28.7354 20.4061 28.375C20.762 28.0146 21.0441 27.5928 21.2524 27.1094C21.452 27.584 21.7298 28.0015 22.0856 28.3618C22.4415 28.7222 22.8581 29.0078 23.3355 29.2188C22.8668 29.4209 22.4545 29.7021 22.0986 30.0625C21.7428 30.4229 21.4607 30.8447 21.2524 31.3281ZM42.9169 32.1719C43.1165 32.6465 43.3943 33.064 43.7501 33.4243C44.106 33.7847 44.5226 34.0703 45 34.2812C44.5313 34.4834 44.119 34.7646 43.7631 35.125C43.4073 35.4854 43.1252 35.9072 42.9169 36.3906C42.7172 35.916 42.4395 35.4985 42.0836 35.1382C41.7278 34.7778 41.3111 34.4922 40.8337 34.2812C41.3025 34.0791 41.7147 33.7979 42.0706 33.4375C42.4265 33.0771 42.7086 32.6553 42.9169 32.1719ZM37.9174 33.4375C37.5094 32.4795 36.9496 31.6401 36.2379 30.9194C35.5261 30.1987 34.6972 29.6318 33.7511 29.2188C34.6972 28.8057 35.5261 28.2388 36.2379 27.5181C36.9496 26.7974 37.5094 25.958 37.9174 25C38.3253 25.958 38.8852 26.7974 39.5969 27.5181C40.3086 28.2388 41.1375 28.8057 42.0836 29.2188C41.1375 29.6318 40.3086 30.1987 39.5969 30.9194C38.8852 31.6401 38.3253 32.4795 37.9174 33.4375ZM37.9174 27.5576C37.4313 28.1816 36.8845 28.7354 36.2769 29.2188C36.8845 29.7109 37.4313 30.2646 37.9174 30.8799C38.3948 30.2646 38.9416 29.7109 39.5578 29.2188C38.9416 28.7354 38.3948 28.1816 37.9174 27.5576ZM28.4782 35.3491C28.0703 35.3491 27.6884 35.2656 27.3325 35.0986C26.9766 34.9316 26.6598 34.6987 26.3821 34.3999C26.1043 34.1011 25.896 33.7671 25.7571 33.3979C25.6183 33.0288 25.5401 32.6377 25.5228 32.2246C25.5228 31.7061 25.6269 31.2227 25.8353 30.7744C26.0436 30.3262 26.33 29.9307 26.6945 29.5879C27.0591 29.2451 27.467 28.9771 27.9184 28.7837C28.3697 28.5903 28.8558 28.4893 29.3766 28.4805C30.1057 28.4805 30.7523 28.6343 31.3165 28.9419C31.8807 29.2495 32.3624 29.6626 32.7616 30.1812C33.1609 30.6997 33.456 31.2798 33.647 31.9214C33.8379 32.563 33.9421 33.2266 33.9594 33.9121C33.9594 34.835 33.8119 35.6963 33.5168 36.4961C33.2217 37.2959 32.8181 38.0298 32.306 38.6978C31.7939 39.3657 31.1819 39.9458 30.4702 40.438C29.7585 40.9302 29.0033 41.3564 28.2048 41.7168C28.1267 41.752 28.0269 41.7695 27.9054 41.7695C27.7057 41.7695 27.5365 41.6992 27.3976 41.5586C27.2587 41.418 27.1893 41.2422 27.1893 41.0312C27.1893 40.7148 27.3368 40.4863 27.6319 40.3457C28.2916 40.0293 28.8992 39.6909 29.4547 39.3306C30.0102 38.9702 30.5006 38.5527 30.9259 38.0781C31.3512 37.6035 31.694 37.0674 31.9544 36.4697C32.2148 35.8721 32.3884 35.1777 32.4752 34.3867C32.4839 34.2988 32.4882 34.2153 32.4882 34.1362C32.4882 34.0571 32.4926 33.9692 32.5013 33.8726C32.5013 33.4155 32.4362 32.9541 32.306 32.4883C32.1758 32.0225 31.9805 31.6006 31.7201 31.2227C31.4597 30.8447 31.1342 30.5415 30.7436 30.313C30.353 30.0845 29.8973 29.9658 29.3766 29.957C29.0815 29.957 28.7907 30.0142 28.5043 30.1284C28.2178 30.2427 27.9618 30.4053 27.7361 30.6162C27.5104 30.8271 27.3282 31.0645 27.1893 31.3281C27.0504 31.5918 26.981 31.8906 26.981 32.2246C26.981 32.4268 27.02 32.6245 27.0981 32.8179C27.1763 33.0112 27.2804 33.187 27.4106 33.3452C27.5408 33.5034 27.7014 33.6309 27.8923 33.7275C28.0833 33.8242 28.2829 33.8726 28.4912 33.8726C28.6995 33.8726 28.8645 33.8418 28.986 33.7803C29.1075 33.7188 29.2073 33.6309 29.2854 33.5166C29.3635 33.4023 29.4243 33.2925 29.4677 33.187C29.5111 33.0815 29.5632 32.9717 29.6239 32.8574C29.6847 32.7432 29.7585 32.6597 29.8453 32.6069C29.9321 32.5542 30.0579 32.519 30.2228 32.5015C30.4225 32.5015 30.5961 32.5762 30.7436 32.7256C30.8912 32.875 30.9649 33.0508 30.9649 33.2529C30.9649 33.2969 30.9563 33.354 30.9389 33.4243C30.8695 33.7056 30.7566 33.9648 30.6004 34.2021C30.4442 34.4395 30.2532 34.6416 30.0275 34.8086C29.8019 34.9756 29.5632 35.1074 29.3115 35.2041C29.0598 35.3008 28.782 35.3491 28.4782 35.3491ZM39.9354 36.8125L43.5028 40.438L42.331 41.6245L40.4171 39.6997V52H22.0856V39.6997L20.1718 41.6245L19 40.438L22.5674 36.8125H29.7932C29.4894 37.1729 29.1552 37.4893 28.7907 37.7617C28.4261 38.0342 28.0312 38.2803 27.6059 38.5H23.7521V50.3125H38.7506V38.5H34.4412C34.5887 38.2275 34.7233 37.9507 34.8448 37.6694C34.9663 37.3882 35.0748 37.1025 35.1703 36.8125H39.9354Z" fill="#FB8C00"/>
<path d="M55.124 30.716H57.884L57.656 32H53.204L54.692 23.624H56.372L55.124 30.716ZM60.8838 24.56C60.6198 24.56 60.4078 24.484 60.2478 24.332C60.0878 24.18 60.0078 23.988 60.0078 23.756C60.0078 23.436 60.1278 23.164 60.3678 22.94C60.6158 22.708 60.9038 22.592 61.2318 22.592C61.4878 22.592 61.6958 22.668 61.8558 22.82C62.0158 22.972 62.0958 23.164 62.0958 23.396C62.0958 23.716 61.9758 23.992 61.7358 24.224C61.4958 24.448 61.2118 24.56 60.8838 24.56ZM61.5798 25.352L60.4038 32H58.7118L59.8878 25.352H61.5798ZM65.0997 30.452L67.6797 25.352H69.4917L65.8557 32H63.7917L62.5197 25.352H64.3197L65.0997 30.452ZM73.3393 25.244C74.1873 25.244 74.8593 25.48 75.3553 25.952C75.8513 26.416 76.0993 27.044 76.0993 27.836C76.0993 28.092 76.0793 28.32 76.0393 28.52C75.9913 28.76 75.9393 28.968 75.8833 29.144H71.0233C71.0153 29.2 71.0113 29.28 71.0113 29.384C71.0113 29.8 71.1313 30.128 71.3713 30.368C71.6193 30.6 71.9433 30.716 72.3433 30.716C72.6793 30.716 72.9673 30.644 73.2073 30.5C73.4553 30.348 73.6553 30.152 73.8073 29.912H75.6193C75.3233 30.552 74.8633 31.08 74.2393 31.496C73.6233 31.904 72.9233 32.108 72.1393 32.108C71.2913 32.108 70.6113 31.868 70.0993 31.388C69.5873 30.908 69.3313 30.256 69.3313 29.432C69.3313 29.192 69.3553 28.94 69.4033 28.676C69.5233 27.988 69.7673 27.384 70.1353 26.864C70.5113 26.344 70.9753 25.944 71.5273 25.664C72.0793 25.384 72.6833 25.244 73.3393 25.244ZM74.3713 28.124C74.3873 27.996 74.3953 27.904 74.3953 27.848C74.3953 27.464 74.2713 27.164 74.0233 26.948C73.7753 26.732 73.4513 26.624 73.0513 26.624C72.6273 26.624 72.2473 26.76 71.9113 27.032C71.5753 27.296 71.3393 27.66 71.2033 28.124H74.3713ZM56.384 50.084C55.544 50.084 54.852 49.896 54.308 49.52C53.772 49.136 53.504 48.6 53.504 47.912C53.504 47.84 53.512 47.732 53.528 47.588H55.244C55.212 47.924 55.3 48.2 55.508 48.416C55.724 48.632 56.036 48.74 56.444 48.74C56.852 48.74 57.172 48.656 57.404 48.488C57.644 48.312 57.764 48.064 57.764 47.744C57.764 47.448 57.64 47.212 57.392 47.036C57.152 46.86 56.772 46.664 56.252 46.448C55.772 46.248 55.38 46.064 55.076 45.896C54.78 45.728 54.524 45.496 54.308 45.2C54.1 44.896 53.996 44.516 53.996 44.06C53.996 43.54 54.128 43.088 54.392 42.704C54.664 42.32 55.032 42.024 55.496 41.816C55.968 41.608 56.504 41.504 57.104 41.504C57.696 41.504 58.208 41.604 58.64 41.804C59.08 41.996 59.408 42.272 59.624 42.632C59.848 42.992 59.944 43.412 59.912 43.892H58.124L58.136 43.76C58.136 43.496 58.036 43.28 57.836 43.112C57.644 42.944 57.372 42.86 57.02 42.86C56.644 42.86 56.34 42.948 56.108 43.124C55.876 43.3 55.76 43.54 55.76 43.844C55.76 44.044 55.824 44.22 55.952 44.372C56.088 44.516 56.252 44.644 56.444 44.756C56.636 44.86 56.912 44.996 57.272 45.164C57.744 45.372 58.132 45.568 58.436 45.752C58.74 45.936 59 46.18 59.216 46.484C59.432 46.788 59.54 47.16 59.54 47.6C59.54 48.08 59.408 48.508 59.144 48.884C58.888 49.26 58.52 49.556 58.04 49.772C57.568 49.98 57.016 50.084 56.384 50.084ZM65.4722 43.256C66.1282 43.256 66.6482 43.444 67.0322 43.82C67.4242 44.196 67.6202 44.724 67.6202 45.404C67.6202 45.66 67.6002 45.892 67.5602 46.1L66.8642 50H65.1962L65.8442 46.328C65.8682 46.184 65.8802 46.044 65.8802 45.908C65.8802 45.508 65.7722 45.204 65.5562 44.996C65.3482 44.788 65.0482 44.684 64.6562 44.684C64.2082 44.684 63.8282 44.82 63.5162 45.092C63.2042 45.356 62.9962 45.736 62.8922 46.232L62.2202 50H60.5282L62.1002 41.12H63.7922L63.2522 44.168C63.5242 43.888 63.8522 43.668 64.2362 43.508C64.6282 43.34 65.0402 43.256 65.4722 43.256ZM71.4378 50.108C70.8698 50.108 70.3658 49.992 69.9258 49.76C69.4938 49.528 69.1578 49.2 68.9178 48.776C68.6778 48.352 68.5578 47.864 68.5578 47.312C68.5578 46.56 68.7338 45.876 69.0858 45.26C69.4458 44.636 69.9338 44.144 70.5498 43.784C71.1738 43.424 71.8658 43.244 72.6258 43.244C73.1938 43.244 73.6978 43.364 74.1378 43.604C74.5858 43.836 74.9298 44.164 75.1698 44.588C75.4178 45.012 75.5418 45.5 75.5418 46.052C75.5418 46.812 75.3618 47.5 75.0018 48.116C74.6418 48.732 74.1458 49.22 73.5138 49.58C72.8898 49.932 72.1978 50.108 71.4378 50.108ZM71.6658 48.668C72.0658 48.668 72.4298 48.552 72.7578 48.32C73.0858 48.088 73.3418 47.78 73.5258 47.396C73.7098 47.012 73.8018 46.608 73.8018 46.184C73.8018 45.704 73.6658 45.336 73.3938 45.08C73.1298 44.816 72.7938 44.684 72.3858 44.684C71.9778 44.684 71.6138 44.8 71.2938 45.032C70.9818 45.264 70.7378 45.576 70.5618 45.968C70.3858 46.352 70.2978 46.76 70.2978 47.192C70.2978 47.664 70.4218 48.028 70.6698 48.284C70.9258 48.54 71.2578 48.668 71.6658 48.668ZM78.8142 44.312C79.0862 44.008 79.4262 43.756 79.8342 43.556C80.2502 43.348 80.7022 43.244 81.1902 43.244C81.6862 43.244 82.1222 43.352 82.4982 43.568C82.8822 43.776 83.1782 44.08 83.3862 44.48C83.5942 44.88 83.6982 45.348 83.6982 45.884C83.6982 46.132 83.6742 46.388 83.6262 46.652C83.5062 47.332 83.2662 47.936 82.9062 48.464C82.5462 48.984 82.1102 49.388 81.5982 49.676C81.0862 49.964 80.5502 50.108 79.9902 50.108C79.5022 50.108 79.0862 50.008 78.7422 49.808C78.4062 49.608 78.1502 49.356 77.9742 49.052L77.2542 53.168H75.5622L77.2902 43.352H78.9822L78.8142 44.312ZM81.9102 46.652C81.9342 46.492 81.9462 46.348 81.9462 46.22C81.9462 45.748 81.8102 45.38 81.5382 45.116C81.2662 44.852 80.9182 44.72 80.4942 44.72C80.1902 44.72 79.8902 44.8 79.5942 44.96C79.2982 45.112 79.0422 45.336 78.8262 45.632C78.6102 45.928 78.4662 46.276 78.3942 46.676C78.3622 46.884 78.3462 47.036 78.3462 47.132C78.3462 47.604 78.4822 47.972 78.7542 48.236C79.0342 48.5 79.3822 48.632 79.7982 48.632C80.1102 48.632 80.4142 48.552 80.7102 48.392C81.0062 48.232 81.2622 48.004 81.4782 47.708C81.6942 47.412 81.8382 47.06 81.9102 46.652ZM86.947 44.312C87.219 44.008 87.559 43.756 87.967 43.556C88.383 43.348 88.835 43.244 89.323 43.244C89.819 43.244 90.255 43.352 90.631 43.568C91.015 43.776 91.311 44.08 91.519 44.48C91.727 44.88 91.831 45.348 91.831 45.884C91.831 46.132 91.807 46.388 91.759 46.652C91.639 47.332 91.399 47.936 91.039 48.464C90.679 48.984 90.243 49.388 89.731 49.676C89.219 49.964 88.683 50.108 88.123 50.108C87.635 50.108 87.219 50.008 86.875 49.808C86.539 49.608 86.283 49.356 86.107 49.052L85.387 53.168H83.695L85.423 43.352H87.115L86.947 44.312ZM90.043 46.652C90.067 46.492 90.079 46.348 90.079 46.22C90.079 45.748 89.943 45.38 89.671 45.116C89.399 44.852 89.051 44.72 88.627 44.72C88.323 44.72 88.023 44.8 87.727 44.96C87.431 45.112 87.175 45.336 86.959 45.632C86.743 45.928 86.599 46.276 86.527 46.676C86.495 46.884 86.479 47.036 86.479 47.132C86.479 47.604 86.615 47.972 86.887 48.236C87.167 48.5 87.515 48.632 87.931 48.632C88.243 48.632 88.547 48.552 88.843 48.392C89.139 48.232 89.395 48.004 89.611 47.708C89.827 47.412 89.971 47.06 90.043 46.652ZM94.5518 42.56C94.2878 42.56 94.0758 42.484 93.9158 42.332C93.7558 42.18 93.6758 41.988 93.6758 41.756C93.6758 41.436 93.7958 41.164 94.0358 40.94C94.2838 40.708 94.5718 40.592 94.8998 40.592C95.1558 40.592 95.3638 40.668 95.5238 40.82C95.6838 40.972 95.7638 41.164 95.7638 41.396C95.7638 41.716 95.6438 41.992 95.4038 42.224C95.1638 42.448 94.8798 42.56 94.5518 42.56ZM95.2478 43.352L94.0718 50H92.3798L93.5558 43.352H95.2478ZM100.592 43.256C101.28 43.256 101.82 43.444 102.212 43.82C102.612 44.188 102.812 44.716 102.812 45.404C102.812 45.66 102.792 45.892 102.752 46.1L102.056 50H100.388L101.036 46.328C101.06 46.184 101.072 46.044 101.072 45.908C101.072 45.508 100.964 45.204 100.748 44.996C100.54 44.788 100.24 44.684 99.8476 44.684C99.3996 44.684 99.0156 44.82 98.6956 45.092C98.3836 45.356 98.1756 45.74 98.0716 46.244L97.4116 50H95.7196L96.8956 43.352H98.5876L98.4436 44.168C98.7156 43.888 99.0396 43.668 99.4156 43.508C99.7916 43.34 100.184 43.256 100.592 43.256ZM107.457 43.244C107.953 43.244 108.373 43.344 108.717 43.544C109.069 43.736 109.317 43.988 109.461 44.3L109.629 43.352H111.321L110.145 50.048C110.033 50.664 109.809 51.212 109.473 51.692C109.137 52.18 108.697 52.564 108.153 52.844C107.609 53.132 106.985 53.276 106.281 53.276C105.345 53.276 104.613 53.056 104.085 52.616C103.565 52.176 103.329 51.576 103.377 50.816H105.045C105.077 51.12 105.221 51.36 105.477 51.536C105.741 51.72 106.081 51.812 106.497 51.812C106.993 51.812 107.413 51.664 107.757 51.368C108.109 51.08 108.341 50.64 108.453 50.048L108.633 49.016C108.361 49.328 108.017 49.588 107.601 49.796C107.193 50.004 106.745 50.108 106.257 50.108C105.769 50.108 105.333 50 104.949 49.784C104.573 49.56 104.277 49.248 104.061 48.848C103.853 48.44 103.749 47.968 103.749 47.432C103.749 47.184 103.773 46.924 103.821 46.652C103.941 45.98 104.177 45.384 104.529 44.864C104.889 44.344 105.325 43.944 105.837 43.664C106.349 43.384 106.889 43.244 107.457 43.244ZM109.041 46.676C109.073 46.468 109.089 46.316 109.089 46.22C109.089 45.748 108.949 45.38 108.669 45.116C108.397 44.852 108.053 44.72 107.637 44.72C107.325 44.72 107.021 44.796 106.725 44.948C106.437 45.1 106.185 45.324 105.969 45.62C105.753 45.908 105.609 46.252 105.537 46.652C105.513 46.804 105.501 46.948 105.501 47.084C105.501 47.564 105.637 47.944 105.909 48.224C106.181 48.496 106.525 48.632 106.941 48.632C107.253 48.632 107.557 48.556 107.853 48.404C108.149 48.244 108.401 48.016 108.609 47.72C108.825 47.424 108.969 47.076 109.041 46.676Z" fill="#2E2C43"/>
<path d="M285.124 31.716H287.884L287.656 33H283.204L284.692 24.624H286.372L285.124 31.716ZM291.688 33.108C291.12 33.108 290.616 32.992 290.176 32.76C289.744 32.528 289.408 32.2 289.168 31.776C288.928 31.352 288.808 30.864 288.808 30.312C288.808 29.56 288.984 28.876 289.336 28.26C289.696 27.636 290.184 27.144 290.8 26.784C291.424 26.424 292.116 26.244 292.876 26.244C293.444 26.244 293.948 26.364 294.388 26.604C294.836 26.836 295.18 27.164 295.42 27.588C295.668 28.012 295.792 28.5 295.792 29.052C295.792 29.812 295.612 30.5 295.252 31.116C294.892 31.732 294.396 32.22 293.764 32.58C293.14 32.932 292.448 33.108 291.688 33.108ZM291.916 31.668C292.316 31.668 292.68 31.552 293.008 31.32C293.336 31.088 293.592 30.78 293.776 30.396C293.96 30.012 294.052 29.608 294.052 29.184C294.052 28.704 293.916 28.336 293.644 28.08C293.38 27.816 293.044 27.684 292.636 27.684C292.228 27.684 291.864 27.8 291.544 28.032C291.232 28.264 290.988 28.576 290.812 28.968C290.636 29.352 290.548 29.76 290.548 30.192C290.548 30.664 290.672 31.028 290.92 31.284C291.176 31.54 291.508 31.668 291.916 31.668ZM306.768 26.352L303.648 33H301.824L301.44 28.38L299.4 33H297.576L296.808 26.352H298.5L298.788 31.416L300.96 26.352H302.736L303.096 31.404L305.148 26.352H306.768ZM310.593 26.244C311.441 26.244 312.113 26.48 312.609 26.952C313.105 27.416 313.353 28.044 313.353 28.836C313.353 29.092 313.333 29.32 313.293 29.52C313.245 29.76 313.193 29.968 313.137 30.144H308.277C308.269 30.2 308.265 30.28 308.265 30.384C308.265 30.8 308.385 31.128 308.625 31.368C308.873 31.6 309.197 31.716 309.597 31.716C309.933 31.716 310.221 31.644 310.461 31.5C310.709 31.348 310.909 31.152 311.061 30.912H312.873C312.577 31.552 312.117 32.08 311.493 32.496C310.877 32.904 310.177 33.108 309.393 33.108C308.545 33.108 307.865 32.868 307.353 32.388C306.841 31.908 306.585 31.256 306.585 30.432C306.585 30.192 306.609 29.94 306.657 29.676C306.777 28.988 307.021 28.384 307.389 27.864C307.765 27.344 308.229 26.944 308.781 26.664C309.333 26.384 309.937 26.244 310.593 26.244ZM311.625 29.124C311.641 28.996 311.649 28.904 311.649 28.848C311.649 28.464 311.525 28.164 311.277 27.948C311.029 27.732 310.705 27.624 310.305 27.624C309.881 27.624 309.501 27.76 309.165 28.032C308.829 28.296 308.593 28.66 308.457 29.124H311.625ZM316.499 33.108C316.011 33.108 315.567 33.028 315.167 32.868C314.775 32.7 314.463 32.472 314.231 32.184C314.007 31.888 313.895 31.552 313.895 31.176C313.895 31.12 313.903 31.028 313.919 30.9H315.551C315.527 31.18 315.611 31.408 315.803 31.584C315.995 31.752 316.267 31.836 316.619 31.836C316.939 31.836 317.203 31.78 317.411 31.668C317.627 31.548 317.735 31.376 317.735 31.152C317.735 30.952 317.635 30.792 317.435 30.672C317.243 30.552 316.935 30.416 316.511 30.264C316.087 30.112 315.735 29.964 315.455 29.82C315.175 29.676 314.935 29.476 314.735 29.22C314.535 28.964 314.435 28.64 314.435 28.248C314.435 27.856 314.547 27.508 314.771 27.204C315.003 26.9 315.323 26.664 315.731 26.496C316.139 26.328 316.607 26.244 317.135 26.244C317.639 26.244 318.083 26.328 318.467 26.496C318.851 26.664 319.147 26.9 319.355 27.204C319.571 27.5 319.679 27.84 319.679 28.224C319.679 28.32 319.675 28.392 319.667 28.44H318.107C318.131 28.16 318.051 27.936 317.867 27.768C317.683 27.6 317.415 27.516 317.063 27.516C316.775 27.516 316.539 27.58 316.355 27.708C316.171 27.828 316.079 27.992 316.079 28.2C316.079 28.408 316.183 28.58 316.391 28.716C316.599 28.844 316.919 28.988 317.351 29.148C317.783 29.316 318.127 29.472 318.383 29.616C318.647 29.752 318.875 29.944 319.067 30.192C319.259 30.432 319.355 30.736 319.355 31.104C319.355 31.512 319.231 31.868 318.983 32.172C318.735 32.476 318.395 32.708 317.963 32.868C317.531 33.028 317.043 33.108 316.499 33.108ZM322.762 30.948C322.754 30.996 322.75 31.06 322.75 31.14C322.75 31.3 322.794 31.416 322.882 31.488C322.978 31.552 323.134 31.584 323.35 31.584H324.142L323.89 33H322.822C321.622 33 321.022 32.5 321.022 31.5C321.022 31.308 321.038 31.12 321.07 30.936L321.634 27.732H320.842L321.082 26.352H321.886L322.174 24.708H323.866L323.578 26.352H325.054L324.814 27.732H323.326L322.762 30.948ZM290.332 45.216C290.252 45.664 290.072 46.084 289.792 46.476C289.512 46.868 289.124 47.184 288.628 47.424C288.14 47.664 287.552 47.784 286.864 47.784H285.46L284.896 51H283.204L284.692 42.624H287.776C288.632 42.624 289.28 42.816 289.72 43.2C290.16 43.576 290.38 44.08 290.38 44.712C290.38 44.896 290.364 45.064 290.332 45.216ZM287.032 46.464C287.488 46.464 287.848 46.352 288.112 46.128C288.376 45.904 288.544 45.6 288.616 45.216C288.632 45.144 288.64 45.04 288.64 44.904C288.64 44.272 288.248 43.956 287.464 43.956H286.144L285.7 46.464H287.032ZM293.169 45.528C293.457 45.128 293.793 44.816 294.177 44.592C294.561 44.368 294.977 44.256 295.425 44.256L295.113 46.02H294.669C294.173 46.02 293.773 46.128 293.469 46.344C293.173 46.56 292.957 46.928 292.821 47.448L292.197 51H290.505L291.681 44.352H293.373L293.169 45.528ZM297.528 43.56C297.264 43.56 297.052 43.484 296.892 43.332C296.732 43.18 296.652 42.988 296.652 42.756C296.652 42.436 296.772 42.164 297.012 41.94C297.26 41.708 297.548 41.592 297.876 41.592C298.132 41.592 298.34 41.668 298.5 41.82C298.66 41.972 298.74 42.164 298.74 42.396C298.74 42.716 298.62 42.992 298.38 43.224C298.14 43.448 297.856 43.56 297.528 43.56ZM298.224 44.352L297.048 51H295.356L296.532 44.352H298.224ZM298.864 47.676C298.984 46.988 299.228 46.388 299.596 45.876C299.964 45.356 300.42 44.956 300.964 44.676C301.516 44.388 302.112 44.244 302.752 44.244C303.576 44.244 304.22 44.448 304.684 44.856C305.156 45.264 305.42 45.844 305.476 46.596H303.664C303.616 46.308 303.492 46.084 303.292 45.924C303.092 45.756 302.824 45.672 302.488 45.672C302.008 45.672 301.596 45.848 301.252 46.2C300.916 46.544 300.692 47.036 300.58 47.676C300.54 47.9 300.52 48.092 300.52 48.252C300.52 48.708 300.632 49.06 300.856 49.308C301.08 49.548 301.392 49.668 301.792 49.668C302.464 49.668 302.96 49.364 303.28 48.756H305.092C304.78 49.476 304.312 50.048 303.688 50.472C303.072 50.896 302.36 51.108 301.552 51.108C300.712 51.108 300.04 50.872 299.536 50.4C299.04 49.92 298.792 49.272 298.792 48.456C298.792 48.208 298.816 47.948 298.864 47.676ZM310.019 44.244C310.867 44.244 311.539 44.48 312.035 44.952C312.531 45.416 312.779 46.044 312.779 46.836C312.779 47.092 312.759 47.32 312.719 47.52C312.671 47.76 312.619 47.968 312.563 48.144H307.703C307.695 48.2 307.691 48.28 307.691 48.384C307.691 48.8 307.811 49.128 308.051 49.368C308.299 49.6 308.623 49.716 309.023 49.716C309.359 49.716 309.647 49.644 309.887 49.5C310.135 49.348 310.335 49.152 310.487 48.912H312.299C312.003 49.552 311.543 50.08 310.919 50.496C310.303 50.904 309.603 51.108 308.819 51.108C307.971 51.108 307.291 50.868 306.779 50.388C306.267 49.908 306.011 49.256 306.011 48.432C306.011 48.192 306.035 47.94 306.083 47.676C306.203 46.988 306.447 46.384 306.815 45.864C307.191 45.344 307.655 44.944 308.207 44.664C308.759 44.384 309.363 44.244 310.019 44.244ZM311.051 47.124C311.067 46.996 311.075 46.904 311.075 46.848C311.075 46.464 310.951 46.164 310.703 45.948C310.455 45.732 310.131 45.624 309.731 45.624C309.307 45.624 308.927 45.76 308.591 46.032C308.255 46.296 308.019 46.66 307.883 47.124H311.051ZM320.948 42.624C321.724 42.624 322.392 42.76 322.952 43.032C323.52 43.296 323.952 43.676 324.248 44.172C324.552 44.668 324.704 45.256 324.704 45.936C324.704 46.24 324.676 46.536 324.62 46.824C324.476 47.664 324.164 48.4 323.684 49.032C323.212 49.656 322.612 50.14 321.884 50.484C321.156 50.828 320.348 51 319.46 51H316.532L318.02 42.624H320.948ZM319.652 49.632C320.532 49.632 321.252 49.384 321.812 48.888C322.38 48.392 322.744 47.704 322.904 46.824C322.944 46.56 322.964 46.332 322.964 46.14C322.964 45.468 322.764 44.948 322.364 44.58C321.972 44.212 321.396 44.028 320.636 44.028H319.46L318.476 49.632H319.652ZM329.238 44.244C330.086 44.244 330.758 44.48 331.254 44.952C331.75 45.416 331.998 46.044 331.998 46.836C331.998 47.092 331.978 47.32 331.938 47.52C331.89 47.76 331.838 47.968 331.782 48.144H326.922C326.914 48.2 326.91 48.28 326.91 48.384C326.91 48.8 327.03 49.128 327.27 49.368C327.518 49.6 327.842 49.716 328.242 49.716C328.578 49.716 328.866 49.644 329.106 49.5C329.354 49.348 329.554 49.152 329.706 48.912H331.518C331.222 49.552 330.762 50.08 330.138 50.496C329.522 50.904 328.822 51.108 328.038 51.108C327.19 51.108 326.51 50.868 325.998 50.388C325.486 49.908 325.23 49.256 325.23 48.432C325.23 48.192 325.254 47.94 325.302 47.676C325.422 46.988 325.666 46.384 326.034 45.864C326.41 45.344 326.874 44.944 327.426 44.664C327.978 44.384 328.582 44.244 329.238 44.244ZM330.27 47.124C330.286 46.996 330.294 46.904 330.294 46.848C330.294 46.464 330.17 46.164 329.922 45.948C329.674 45.732 329.35 45.624 328.95 45.624C328.526 45.624 328.146 45.76 327.81 46.032C327.474 46.296 327.238 46.66 327.102 47.124H330.27ZM332.708 47.652C332.828 46.98 333.064 46.384 333.416 45.864C333.776 45.344 334.212 44.944 334.724 44.664C335.236 44.384 335.776 44.244 336.344 44.244C336.84 44.244 337.256 44.344 337.592 44.544C337.936 44.744 338.188 44.996 338.348 45.3L338.516 44.352H340.208L339.032 51H337.34L337.52 50.028C337.256 50.34 336.912 50.6 336.488 50.808C336.072 51.008 335.616 51.108 335.12 51.108C334.632 51.108 334.2 51 333.824 50.784C333.448 50.56 333.156 50.248 332.948 49.848C332.74 49.44 332.636 48.968 332.636 48.432C332.636 48.184 332.66 47.924 332.708 47.652ZM337.928 47.676C337.96 47.468 337.976 47.316 337.976 47.22C337.976 46.748 337.836 46.38 337.556 46.116C337.284 45.852 336.94 45.72 336.524 45.72C336.212 45.72 335.908 45.796 335.612 45.948C335.324 46.1 335.072 46.324 334.856 46.62C334.64 46.908 334.496 47.252 334.424 47.652C334.4 47.804 334.388 47.948 334.388 48.084C334.388 48.564 334.524 48.944 334.796 49.224C335.068 49.496 335.412 49.632 335.828 49.632C336.14 49.632 336.444 49.556 336.74 49.404C337.036 49.244 337.288 49.016 337.496 48.72C337.712 48.424 337.856 48.076 337.928 47.676ZM343.937 42.12L342.365 51H340.673L342.245 42.12H343.937Z" fill="#2E2C43"/>
<path d="M171.824 23.624L170.348 32H168.656L169.616 26.576L166.424 32H165.14L163.856 26.564L162.896 32H161.204L162.692 23.624H164.6L166.172 29.84L169.916 23.624H171.824ZM179.449 25.352L178.273 32H176.593L176.737 31.16C176.481 31.448 176.165 31.676 175.789 31.844C175.413 32.004 175.017 32.084 174.601 32.084C173.913 32.084 173.369 31.9 172.969 31.532C172.569 31.156 172.369 30.624 172.369 29.936C172.369 29.68 172.389 29.452 172.429 29.252L173.113 25.352H174.793L174.145 29.012C174.121 29.156 174.109 29.296 174.109 29.432C174.109 29.824 174.217 30.128 174.433 30.344C174.649 30.552 174.953 30.656 175.345 30.656C175.801 30.656 176.189 30.516 176.509 30.236C176.829 29.948 177.033 29.54 177.121 29.012L177.769 25.352H179.449ZM183.195 23.12L181.623 32H179.931L181.503 23.12H183.195ZM185.598 29.948C185.59 29.996 185.586 30.06 185.586 30.14C185.586 30.3 185.63 30.416 185.718 30.488C185.814 30.552 185.97 30.584 186.186 30.584H186.978L186.726 32H185.658C184.458 32 183.858 31.5 183.858 30.5C183.858 30.308 183.874 30.12 183.906 29.936L184.47 26.732H183.678L183.918 25.352H184.722L185.01 23.708H186.702L186.414 25.352H187.89L187.65 26.732H186.162L185.598 29.948ZM190.095 24.56C189.831 24.56 189.619 24.484 189.459 24.332C189.299 24.18 189.219 23.988 189.219 23.756C189.219 23.436 189.339 23.164 189.579 22.94C189.827 22.708 190.115 22.592 190.443 22.592C190.699 22.592 190.907 22.668 191.067 22.82C191.227 22.972 191.307 23.164 191.307 23.396C191.307 23.716 191.187 23.992 190.947 24.224C190.707 24.448 190.423 24.56 190.095 24.56ZM190.791 25.352L189.615 32H187.923L189.099 25.352H190.791ZM197.275 27.008L197.023 28.424H191.923L192.175 27.008H197.275ZM200.887 23.624L202.003 30.284L205.483 23.624H207.271L202.723 32H200.683L199.087 23.624H200.887ZM210.894 25.244C211.742 25.244 212.414 25.48 212.91 25.952C213.406 26.416 213.654 27.044 213.654 27.836C213.654 28.092 213.634 28.32 213.594 28.52C213.546 28.76 213.494 28.968 213.438 29.144H208.578C208.57 29.2 208.566 29.28 208.566 29.384C208.566 29.8 208.686 30.128 208.926 30.368C209.174 30.6 209.498 30.716 209.898 30.716C210.234 30.716 210.522 30.644 210.762 30.5C211.01 30.348 211.21 30.152 211.362 29.912H213.174C212.878 30.552 212.418 31.08 211.794 31.496C211.178 31.904 210.478 32.108 209.694 32.108C208.846 32.108 208.166 31.868 207.654 31.388C207.142 30.908 206.886 30.256 206.886 29.432C206.886 29.192 206.91 28.94 206.958 28.676C207.078 27.988 207.322 27.384 207.69 26.864C208.066 26.344 208.53 25.944 209.082 25.664C209.634 25.384 210.238 25.244 210.894 25.244ZM211.926 28.124C211.942 27.996 211.95 27.904 211.95 27.848C211.95 27.464 211.826 27.164 211.578 26.948C211.33 26.732 211.006 26.624 210.606 26.624C210.182 26.624 209.802 26.76 209.466 27.032C209.13 27.296 208.894 27.66 208.758 28.124H211.926ZM219.068 25.256C219.756 25.256 220.296 25.444 220.688 25.82C221.088 26.188 221.288 26.716 221.288 27.404C221.288 27.66 221.268 27.892 221.228 28.1L220.532 32H218.864L219.512 28.328C219.536 28.184 219.548 28.044 219.548 27.908C219.548 27.508 219.44 27.204 219.224 26.996C219.016 26.788 218.716 26.684 218.324 26.684C217.876 26.684 217.492 26.82 217.172 27.092C216.86 27.356 216.652 27.74 216.548 28.244L215.888 32H214.196L215.372 25.352H217.064L216.92 26.168C217.192 25.888 217.516 25.668 217.892 25.508C218.268 25.34 218.66 25.256 219.068 25.256ZM222.298 28.652C222.418 27.98 222.654 27.384 223.006 26.864C223.366 26.344 223.802 25.944 224.314 25.664C224.834 25.384 225.378 25.244 225.946 25.244C226.378 25.244 226.774 25.34 227.134 25.532C227.494 25.716 227.762 25.964 227.938 26.276L228.502 23.12H230.194L228.622 32H226.93L227.11 31.016C226.846 31.344 226.506 31.608 226.09 31.808C225.682 32.008 225.23 32.108 224.734 32.108C224.246 32.108 223.81 32 223.426 31.784C223.05 31.56 222.754 31.248 222.538 30.848C222.33 30.44 222.226 29.968 222.226 29.432C222.226 29.184 222.25 28.924 222.298 28.652ZM227.518 28.676C227.55 28.468 227.566 28.316 227.566 28.22C227.566 27.748 227.426 27.38 227.146 27.116C226.874 26.852 226.53 26.72 226.114 26.72C225.802 26.72 225.498 26.796 225.202 26.948C224.914 27.1 224.662 27.324 224.446 27.62C224.23 27.908 224.086 28.252 224.014 28.652C223.99 28.804 223.978 28.948 223.978 29.084C223.978 29.564 224.114 29.944 224.386 30.224C224.658 30.496 225.002 30.632 225.418 30.632C225.73 30.632 226.034 30.556 226.33 30.404C226.626 30.244 226.878 30.016 227.086 29.72C227.302 29.424 227.446 29.076 227.518 28.676ZM233.239 32.108C232.671 32.108 232.167 31.992 231.727 31.76C231.295 31.528 230.959 31.2 230.719 30.776C230.479 30.352 230.359 29.864 230.359 29.312C230.359 28.56 230.535 27.876 230.887 27.26C231.247 26.636 231.735 26.144 232.351 25.784C232.975 25.424 233.667 25.244 234.427 25.244C234.995 25.244 235.499 25.364 235.939 25.604C236.387 25.836 236.731 26.164 236.971 26.588C237.219 27.012 237.343 27.5 237.343 28.052C237.343 28.812 237.163 29.5 236.803 30.116C236.443 30.732 235.947 31.22 235.315 31.58C234.691 31.932 233.999 32.108 233.239 32.108ZM233.467 30.668C233.867 30.668 234.231 30.552 234.559 30.32C234.887 30.088 235.143 29.78 235.327 29.396C235.511 29.012 235.603 28.608 235.603 28.184C235.603 27.704 235.467 27.336 235.195 27.08C234.931 26.816 234.595 26.684 234.187 26.684C233.779 26.684 233.415 26.8 233.095 27.032C232.783 27.264 232.539 27.576 232.363 27.968C232.187 28.352 232.099 28.76 232.099 29.192C232.099 29.664 232.223 30.028 232.471 30.284C232.727 30.54 233.059 30.668 233.467 30.668ZM240.579 26.528C240.867 26.128 241.203 25.816 241.587 25.592C241.971 25.368 242.387 25.256 242.835 25.256L242.523 27.02H242.079C241.583 27.02 241.183 27.128 240.879 27.344C240.583 27.56 240.367 27.928 240.231 28.448L239.607 32H237.915L239.091 25.352H240.783L240.579 26.528ZM168.488 43.784C168.408 44.272 168.208 44.68 167.888 45.008C167.576 45.328 167.192 45.56 166.736 45.704C167.12 45.784 167.428 45.976 167.66 46.28C167.9 46.584 168.02 46.944 168.02 47.36C168.02 47.472 168.008 47.596 167.984 47.732C167.872 48.412 167.528 48.96 166.952 49.376C166.384 49.792 165.672 50 164.816 50H161.204L162.692 41.624H166.148C166.908 41.624 167.492 41.784 167.9 42.104C168.316 42.424 168.524 42.852 168.524 43.388C168.524 43.516 168.512 43.648 168.488 43.784ZM166.736 44.036C166.744 43.988 166.748 43.916 166.748 43.82C166.748 43.54 166.656 43.324 166.472 43.172C166.288 43.02 166.02 42.944 165.668 42.944H164.144L163.76 45.104H165.296C165.688 45.104 166.012 45.012 166.268 44.828C166.524 44.636 166.68 44.372 166.736 44.036ZM166.316 47.528C166.332 47.416 166.34 47.336 166.34 47.288C166.34 47 166.236 46.776 166.028 46.616C165.828 46.448 165.548 46.364 165.188 46.364H163.532L163.136 48.668H164.828C165.236 48.668 165.572 48.568 165.836 48.368C166.1 48.168 166.26 47.888 166.316 47.528ZM169.083 46.652C169.203 45.98 169.439 45.384 169.791 44.864C170.151 44.344 170.587 43.944 171.099 43.664C171.611 43.384 172.151 43.244 172.719 43.244C173.215 43.244 173.631 43.344 173.967 43.544C174.311 43.744 174.563 43.996 174.723 44.3L174.891 43.352H176.583L175.407 50H173.715L173.895 49.028C173.631 49.34 173.287 49.6 172.863 49.808C172.447 50.008 171.991 50.108 171.495 50.108C171.007 50.108 170.575 50 170.199 49.784C169.823 49.56 169.531 49.248 169.323 48.848C169.115 48.44 169.011 47.968 169.011 47.432C169.011 47.184 169.035 46.924 169.083 46.652ZM174.303 46.676C174.335 46.468 174.351 46.316 174.351 46.22C174.351 45.748 174.211 45.38 173.931 45.116C173.659 44.852 173.315 44.72 172.899 44.72C172.587 44.72 172.283 44.796 171.987 44.948C171.699 45.1 171.447 45.324 171.231 45.62C171.015 45.908 170.871 46.252 170.799 46.652C170.775 46.804 170.763 46.948 170.763 47.084C170.763 47.564 170.899 47.944 171.171 48.224C171.443 48.496 171.787 48.632 172.203 48.632C172.515 48.632 172.819 48.556 173.115 48.404C173.411 48.244 173.663 48.016 173.871 47.72C174.087 47.424 174.231 47.076 174.303 46.676ZM179.712 44.528C180 44.128 180.336 43.816 180.72 43.592C181.104 43.368 181.52 43.256 181.968 43.256L181.656 45.02H181.212C180.716 45.02 180.316 45.128 180.012 45.344C179.716 45.56 179.5 45.928 179.364 46.448L178.74 50H177.048L178.224 43.352H179.916L179.712 44.528ZM185.703 43.244C186.199 43.244 186.619 43.344 186.963 43.544C187.315 43.736 187.563 43.988 187.707 44.3L187.875 43.352H189.567L188.391 50.048C188.279 50.664 188.055 51.212 187.719 51.692C187.383 52.18 186.943 52.564 186.399 52.844C185.855 53.132 185.231 53.276 184.527 53.276C183.591 53.276 182.859 53.056 182.331 52.616C181.811 52.176 181.575 51.576 181.623 50.816H183.291C183.323 51.12 183.467 51.36 183.723 51.536C183.987 51.72 184.327 51.812 184.743 51.812C185.239 51.812 185.659 51.664 186.003 51.368C186.355 51.08 186.587 50.64 186.699 50.048L186.879 49.016C186.607 49.328 186.263 49.588 185.847 49.796C185.439 50.004 184.991 50.108 184.503 50.108C184.015 50.108 183.579 50 183.195 49.784C182.819 49.56 182.523 49.248 182.307 48.848C182.099 48.44 181.995 47.968 181.995 47.432C181.995 47.184 182.019 46.924 182.067 46.652C182.187 45.98 182.423 45.384 182.775 44.864C183.135 44.344 183.571 43.944 184.083 43.664C184.595 43.384 185.135 43.244 185.703 43.244ZM187.287 46.676C187.319 46.468 187.335 46.316 187.335 46.22C187.335 45.748 187.195 45.38 186.915 45.116C186.643 44.852 186.299 44.72 185.883 44.72C185.571 44.72 185.267 44.796 184.971 44.948C184.683 45.1 184.431 45.324 184.215 45.62C183.999 45.908 183.855 46.252 183.783 46.652C183.759 46.804 183.747 46.948 183.747 47.084C183.747 47.564 183.883 47.944 184.155 48.224C184.427 48.496 184.771 48.632 185.187 48.632C185.499 48.632 185.803 48.556 186.099 48.404C186.395 48.244 186.647 48.016 186.855 47.72C187.071 47.424 187.215 47.076 187.287 46.676ZM190.2 46.652C190.32 45.98 190.556 45.384 190.908 44.864C191.268 44.344 191.704 43.944 192.216 43.664C192.728 43.384 193.268 43.244 193.836 43.244C194.332 43.244 194.748 43.344 195.084 43.544C195.428 43.744 195.68 43.996 195.84 44.3L196.008 43.352H197.7L196.524 50H194.832L195.012 49.028C194.748 49.34 194.404 49.6 193.98 49.808C193.564 50.008 193.108 50.108 192.612 50.108C192.124 50.108 191.692 50 191.316 49.784C190.94 49.56 190.648 49.248 190.44 48.848C190.232 48.44 190.128 47.968 190.128 47.432C190.128 47.184 190.152 46.924 190.2 46.652ZM195.42 46.676C195.452 46.468 195.468 46.316 195.468 46.22C195.468 45.748 195.328 45.38 195.048 45.116C194.776 44.852 194.432 44.72 194.016 44.72C193.704 44.72 193.4 44.796 193.104 44.948C192.816 45.1 192.564 45.324 192.348 45.62C192.132 45.908 191.988 46.252 191.916 46.652C191.892 46.804 191.88 46.948 191.88 47.084C191.88 47.564 192.016 47.944 192.288 48.224C192.56 48.496 192.904 48.632 193.32 48.632C193.632 48.632 193.936 48.556 194.232 48.404C194.528 48.244 194.78 48.016 194.988 47.72C195.204 47.424 195.348 47.076 195.42 46.676ZM200.337 42.56C200.073 42.56 199.861 42.484 199.701 42.332C199.541 42.18 199.461 41.988 199.461 41.756C199.461 41.436 199.581 41.164 199.821 40.94C200.069 40.708 200.357 40.592 200.685 40.592C200.941 40.592 201.149 40.668 201.309 40.82C201.469 40.972 201.549 41.164 201.549 41.396C201.549 41.716 201.429 41.992 201.189 42.224C200.949 42.448 200.665 42.56 200.337 42.56ZM201.033 43.352L199.857 50H198.165L199.341 43.352H201.033ZM206.377 43.256C207.065 43.256 207.605 43.444 207.997 43.82C208.397 44.188 208.597 44.716 208.597 45.404C208.597 45.66 208.577 45.892 208.537 46.1L207.841 50H206.173L206.821 46.328C206.845 46.184 206.857 46.044 206.857 45.908C206.857 45.508 206.749 45.204 206.533 44.996C206.325 44.788 206.025 44.684 205.633 44.684C205.185 44.684 204.801 44.82 204.481 45.092C204.169 45.356 203.961 45.74 203.857 46.244L203.197 50H201.505L202.681 43.352H204.373L204.229 44.168C204.501 43.888 204.825 43.668 205.201 43.508C205.577 43.34 205.969 43.256 206.377 43.256ZM211.61 42.56C211.346 42.56 211.134 42.484 210.974 42.332C210.814 42.18 210.734 41.988 210.734 41.756C210.734 41.436 210.854 41.164 211.094 40.94C211.342 40.708 211.63 40.592 211.958 40.592C212.214 40.592 212.422 40.668 212.582 40.82C212.742 40.972 212.822 41.164 212.822 41.396C212.822 41.716 212.702 41.992 212.462 42.224C212.222 42.448 211.938 42.56 211.61 42.56ZM212.306 43.352L211.13 50H209.438L210.614 43.352H212.306ZM217.65 43.256C218.338 43.256 218.878 43.444 219.27 43.82C219.67 44.188 219.87 44.716 219.87 45.404C219.87 45.66 219.85 45.892 219.81 46.1L219.114 50H217.446L218.094 46.328C218.118 46.184 218.13 46.044 218.13 45.908C218.13 45.508 218.022 45.204 217.806 44.996C217.598 44.788 217.298 44.684 216.906 44.684C216.458 44.684 216.074 44.82 215.754 45.092C215.442 45.356 215.234 45.74 215.13 46.244L214.47 50H212.778L213.954 43.352H215.646L215.502 44.168C215.774 43.888 216.098 43.668 216.474 43.508C216.85 43.34 217.242 43.256 217.65 43.256ZM224.516 43.244C225.012 43.244 225.432 43.344 225.776 43.544C226.128 43.736 226.376 43.988 226.52 44.3L226.688 43.352H228.38L227.204 50.048C227.092 50.664 226.868 51.212 226.532 51.692C226.196 52.18 225.756 52.564 225.212 52.844C224.668 53.132 224.044 53.276 223.34 53.276C222.404 53.276 221.672 53.056 221.144 52.616C220.624 52.176 220.388 51.576 220.436 50.816H222.104C222.136 51.12 222.28 51.36 222.536 51.536C222.8 51.72 223.14 51.812 223.556 51.812C224.052 51.812 224.472 51.664 224.816 51.368C225.168 51.08 225.4 50.64 225.512 50.048L225.692 49.016C225.42 49.328 225.076 49.588 224.66 49.796C224.252 50.004 223.804 50.108 223.316 50.108C222.828 50.108 222.392 50 222.008 49.784C221.632 49.56 221.336 49.248 221.12 48.848C220.912 48.44 220.808 47.968 220.808 47.432C220.808 47.184 220.832 46.924 220.88 46.652C221 45.98 221.236 45.384 221.588 44.864C221.948 44.344 222.384 43.944 222.896 43.664C223.408 43.384 223.948 43.244 224.516 43.244ZM226.1 46.676C226.132 46.468 226.148 46.316 226.148 46.22C226.148 45.748 226.008 45.38 225.728 45.116C225.456 44.852 225.112 44.72 224.696 44.72C224.384 44.72 224.08 44.796 223.784 44.948C223.496 45.1 223.244 45.324 223.028 45.62C222.812 45.908 222.668 46.252 222.596 46.652C222.572 46.804 222.56 46.948 222.56 47.084C222.56 47.564 222.696 47.944 222.968 48.224C223.24 48.496 223.584 48.632 224 48.632C224.312 48.632 224.616 48.556 224.912 48.404C225.208 48.244 225.46 48.016 225.668 47.72C225.884 47.424 226.028 47.076 226.1 46.676Z" fill="#2E2C43"/>
<path d="M137.157 49.104C138.127 49.036 139.084 48.8832 140.027 48.6456C141.189 48.9894 142.414 49.0675 143.611 48.8741C143.658 48.868 143.706 48.8644 143.754 48.8632C144.181 48.8632 144.741 49.1054 145.558 49.6154V48.7775C145.558 48.6315 145.598 48.4883 145.673 48.3627C145.749 48.2371 145.857 48.1337 145.986 48.0634C146.342 47.8689 146.672 47.6417 146.974 47.3942C148.164 46.4107 148.836 45.1008 148.836 43.7134C148.835 43.2545 148.761 42.7987 148.617 42.3626C148.975 41.7097 149.267 41.0214 149.48 40.3087C150.169 41.3153 150.541 42.4987 150.543 43.7134C150.543 45.5986 149.643 47.3588 148.085 48.6442C147.825 48.8583 147.551 49.0564 147.266 49.2373V51.1988C147.266 51.8734 146.467 52.2597 145.904 51.8598C145.371 51.4711 144.819 51.108 144.251 50.7716C144.088 50.6768 143.918 50.5932 143.743 50.5214C143.275 50.5903 142.798 50.6252 142.313 50.6261C140.369 50.6261 138.572 50.0575 137.157 49.104ZM126.875 45.1783C124.418 43.1516 123 40.3821 123 37.4195C123 31.361 128.864 26.5186 136.024 26.5186C143.184 26.5186 149.049 31.361 149.049 37.4195C149.049 43.478 143.184 48.3191 136.024 48.3191C135.219 48.3191 134.425 48.2588 133.644 48.1382C133.307 48.2158 131.959 48.9965 130.015 50.3799C129.313 50.8818 128.313 50.3976 128.313 49.5529V46.2067C127.81 45.8992 127.329 45.5564 126.875 45.1811M133.692 46.0761C133.75 46.0761 133.81 46.0806 133.871 46.0897C134.583 46.2062 135.303 46.2645 136.024 46.2638C142.072 46.2638 146.913 42.2661 146.913 37.4195C146.913 32.573 142.072 28.5766 136.024 28.5766C129.978 28.5766 125.135 32.5743 125.135 37.4195C125.135 39.7632 126.265 41.9695 128.265 43.6209C128.77 44.0362 129.319 44.4084 129.912 44.7376C130.244 44.9213 130.449 45.2613 130.449 45.6286V47.5588C131.986 46.5522 132.997 46.0761 133.691 46.0761" fill="#FB8C00"/>
<path d="M130.801 39.7787C131.247 39.7787 131.674 39.5638 131.989 39.1814C132.304 38.7989 132.481 38.2802 132.481 37.7393C132.481 37.1984 132.304 36.6796 131.989 36.2972C131.674 35.9147 131.247 35.6998 130.801 35.6998C130.355 35.6998 129.928 35.9147 129.613 36.2972C129.298 36.6796 129.121 37.1984 129.121 37.7393C129.121 38.2802 129.298 38.7989 129.613 39.1814C129.928 39.5638 130.355 39.7787 130.801 39.7787ZM136.261 39.7787C136.707 39.7787 137.134 39.5638 137.449 39.1814C137.764 38.7989 137.941 38.2802 137.941 37.7393C137.941 37.1984 137.764 36.6796 137.449 36.2972C137.134 35.9147 136.707 35.6998 136.261 35.6998C135.815 35.6998 135.388 35.9147 135.073 36.2972C134.758 36.6796 134.581 37.1984 134.581 37.7393C134.581 38.2802 134.758 38.7989 135.073 39.1814C135.388 39.5638 135.815 39.7787 136.261 39.7787ZM141.722 39.7803C142.168 39.7803 142.595 39.5655 142.91 39.183C143.226 38.8005 143.403 38.2818 143.403 37.7409C143.403 37.2 143.226 36.6813 142.91 36.2988C142.595 35.9163 142.168 35.7015 141.722 35.7015C141.277 35.7015 140.849 35.9163 140.534 36.2988C140.219 36.6813 140.042 37.2 140.042 37.7409C140.042 38.2818 140.219 38.8005 140.534 39.183C140.849 39.5655 141.277 39.7803 141.722 39.7803Z" fill="#FB8C00"/>
<path d="M263.5 51C257.159 51 252 45.8414 252 39.5C252 33.1586 257.159 28 263.5 28C269.841 28 275 33.1586 275 39.5C275 45.8414 269.841 51 263.5 51ZM263.5 29.6429C258.062 29.6429 253.643 34.0621 253.643 39.5C253.643 44.9379 258.062 49.3571 263.5 49.3571C268.938 49.3571 273.357 44.9379 273.357 39.5C273.357 34.0621 268.938 29.6429 263.5 29.6429Z" fill="#FB8C00"/>
<path d="M261.036 41.1429H259.393C258.933 41.1429 258.571 40.7814 258.571 40.3214C258.571 39.8614 258.933 39.5 259.393 39.5H261.036C262.399 39.5 263.5 38.3993 263.5 37.0357C263.5 35.6722 262.399 34.5714 261.036 34.5714H259.393C258.933 34.5714 258.571 34.21 258.571 33.75C258.571 33.29 258.933 32.9286 259.393 32.9286H261.036C262.125 32.9286 263.17 33.3613 263.94 34.1315C264.71 34.9018 265.143 35.9464 265.143 37.0357C265.143 38.125 264.71 39.1697 263.94 39.9399C263.17 40.7102 262.125 41.1429 261.036 41.1429Z" fill="#FB8C00"/>
<path d="M267.607 37.8572H259.393C258.933 37.8572 258.571 37.4957 258.571 37.0357C258.571 36.5757 258.933 36.2143 259.393 36.2143H267.607C268.067 36.2143 268.429 36.5757 268.429 37.0357C268.429 37.4957 268.067 37.8572 267.607 37.8572ZM267.607 34.5714H259.393C258.933 34.5714 258.571 34.21 258.571 33.75C258.571 33.29 258.933 32.9286 259.393 32.9286H267.607C268.067 32.9286 268.429 33.29 268.429 33.75C268.429 34.21 268.067 34.5714 267.607 34.5714ZM262.679 46.0714C262.416 46.0714 262.153 45.94 261.989 45.71L258.703 40.7814C258.589 40.6006 258.551 40.3826 258.596 40.174C258.641 39.9653 258.766 39.7826 258.944 39.6647C259.122 39.5467 259.339 39.5031 259.549 39.5429C259.758 39.5827 259.944 39.7029 260.066 39.8779L263.352 44.8064C263.599 45.1843 263.5 45.6936 263.122 45.94C262.974 46.0386 262.826 46.0714 262.662 46.0714H262.679Z" fill="#FB8C00"/>
<defs>
<linearGradient id="paint0_linear_378_347" x1="97" y1="1.84797e-07" x2="333" y2="136.5" gradientUnits="userSpaceOnUse">
<stop offset="0.69" stop-color="white"/>
<stop offset="1" stop-color="#FB8C00"/>
</linearGradient>
</defs>
</svg>
