<svg width="153" height="18" viewBox="0 0 153 18" fill="none" xmlns="http://www.w3.org/2000/svg">
<mask id="path-1-outside-1_90_907" maskUnits="userSpaceOnUse" x="-4" y="-10" width="162" height="32" fill="black">
<rect fill="white" x="-4" y="-10" width="162" height="32"/>
<path d="M6.815 7.272C7.44433 7.38933 7.96167 7.704 8.367 8.216C8.77233 8.728 8.975 9.31467 8.975 9.976C8.975 10.5733 8.82567 11.1013 8.527 11.56C8.239 12.008 7.81767 12.36 7.263 12.616C6.70833 12.872 6.05233 13 5.295 13H0.479V1.832H5.087C5.84433 1.832 6.495 1.95467 7.039 2.2C7.59367 2.44533 8.00967 2.78667 8.287 3.224C8.575 3.66133 8.719 4.15733 8.719 4.712C8.719 5.36267 8.543 5.90667 8.191 6.344C7.84967 6.78133 7.391 7.09067 6.815 7.272ZM2.719 6.44H4.767C5.30033 6.44 5.711 6.32267 5.999 6.088C6.287 5.84267 6.431 5.496 6.431 5.048C6.431 4.6 6.287 4.25333 5.999 4.008C5.711 3.76267 5.30033 3.64 4.767 3.64H2.719V6.44ZM4.975 11.176C5.519 11.176 5.94033 11.048 6.239 10.792C6.54833 10.536 6.703 10.1733 6.703 9.704C6.703 9.224 6.543 8.85067 6.223 8.584C5.903 8.30667 5.471 8.168 4.927 8.168H2.719V11.176H4.975ZM19.1283 4.136V13H16.8723V11.88C16.5843 12.264 16.2056 12.568 15.7363 12.792C15.2776 13.0053 14.7763 13.112 14.2323 13.112C13.5389 13.112 12.9256 12.968 12.3923 12.68C11.8589 12.3813 11.4376 11.9493 11.1283 11.384C10.8296 10.808 10.6803 10.1253 10.6803 9.336V4.136H12.9203V9.016C12.9203 9.72 13.0963 10.264 13.4483 10.648C13.8003 11.0213 14.2803 11.208 14.8883 11.208C15.5069 11.208 15.9923 11.0213 16.3443 10.648C16.6963 10.264 16.8723 9.72 16.8723 9.016V4.136H19.1283ZM29.8184 4.136L24.3304 17.192H21.9464L23.8664 12.776L20.3144 4.136H22.8264L25.1144 10.328L27.4344 4.136H29.8184ZM34.2624 8.536C34.2624 7.64 34.4384 6.84533 34.7904 6.152C35.153 5.45867 35.6384 4.92533 36.2464 4.552C36.865 4.17867 37.553 3.992 38.3104 3.992C38.9717 3.992 39.5477 4.12533 40.0384 4.392C40.5397 4.65867 40.9397 4.99467 41.2384 5.4V4.136H43.4944V13H41.2384V11.704C40.9504 12.12 40.5504 12.4667 40.0384 12.744C39.537 13.0107 38.9557 13.144 38.2944 13.144C37.5477 13.144 36.865 12.952 36.2464 12.568C35.6384 12.184 35.153 11.6453 34.7904 10.952C34.4384 10.248 34.2624 9.44267 34.2624 8.536ZM41.2384 8.568C41.2384 8.024 41.1317 7.56 40.9184 7.176C40.705 6.78133 40.417 6.48267 40.0544 6.28C39.6917 6.06667 39.3024 5.96 38.8864 5.96C38.4704 5.96 38.0864 6.06133 37.7344 6.264C37.3824 6.46667 37.0944 6.76533 36.8704 7.16C36.657 7.544 36.5504 8.00267 36.5504 8.536C36.5504 9.06933 36.657 9.53867 36.8704 9.944C37.0944 10.3387 37.3824 10.6427 37.7344 10.856C38.097 11.0693 38.481 11.176 38.8864 11.176C39.3024 11.176 39.6917 11.0747 40.0544 10.872C40.417 10.6587 40.705 10.36 40.9184 9.976C41.1317 9.58133 41.2384 9.112 41.2384 8.568ZM48.2901 5.976V10.264C48.2901 10.5627 48.3595 10.7813 48.4981 10.92C48.6475 11.048 48.8928 11.112 49.2341 11.112H50.2741V13H48.8661C46.9781 13 46.0341 12.0827 46.0341 10.248V5.976H44.9781V4.136H46.0341V1.944H48.2901V4.136H50.2741V5.976H48.2901ZM57.9378 1.16V13H55.6978V1.16H57.9378ZM64.0869 13.144C63.2335 13.144 62.4655 12.9573 61.7829 12.584C61.1002 12.2 60.5615 11.6613 60.1669 10.968C59.7829 10.2747 59.5909 9.47467 59.5909 8.568C59.5909 7.66133 59.7882 6.86133 60.1829 6.168C60.5882 5.47467 61.1375 4.94133 61.8309 4.568C62.5242 4.184 63.2975 3.992 64.1509 3.992C65.0042 3.992 65.7775 4.184 66.4709 4.568C67.1642 4.94133 67.7082 5.47467 68.1029 6.168C68.5082 6.86133 68.7109 7.66133 68.7109 8.568C68.7109 9.47467 68.5029 10.2747 68.0869 10.968C67.6815 11.6613 67.1269 12.2 66.4229 12.584C65.7295 12.9573 64.9509 13.144 64.0869 13.144ZM64.0869 11.192C64.4922 11.192 64.8709 11.096 65.2229 10.904C65.5855 10.7013 65.8735 10.4027 66.0869 10.008C66.3002 9.61333 66.4069 9.13333 66.4069 8.568C66.4069 7.72533 66.1829 7.08 65.7349 6.632C65.2975 6.17333 64.7589 5.944 64.1189 5.944C63.4789 5.944 62.9402 6.17333 62.5029 6.632C62.0762 7.08 61.8629 7.72533 61.8629 8.568C61.8629 9.41067 62.0709 10.0613 62.4869 10.52C62.9135 10.968 63.4469 11.192 64.0869 11.192ZM82.642 4.136L80.05 13H77.634L76.018 6.808L74.402 13H71.97L69.362 4.136H71.634L73.202 10.888L74.898 4.136H77.266L78.93 10.872L80.498 4.136H82.642ZM92.094 8.376C92.094 8.696 92.0727 8.984 92.03 9.24H85.55C85.6033 9.88 85.8273 10.3813 86.222 10.744C86.6167 11.1067 87.102 11.288 87.678 11.288C88.51 11.288 89.102 10.9307 89.454 10.216H91.87C91.614 11.0693 91.1233 11.7733 90.398 12.328C89.6727 12.872 88.782 13.144 87.726 13.144C86.8727 13.144 86.1047 12.9573 85.422 12.584C84.75 12.2 84.222 11.6613 83.838 10.968C83.4647 10.2747 83.278 9.47467 83.278 8.568C83.278 7.65067 83.4647 6.84533 83.838 6.152C84.2113 5.45867 84.734 4.92533 85.406 4.552C86.078 4.17867 86.8513 3.992 87.726 3.992C88.5687 3.992 89.3207 4.17333 89.982 4.536C90.654 4.89867 91.1713 5.416 91.534 6.088C91.9073 6.74933 92.094 7.512 92.094 8.376ZM89.774 7.736C89.7633 7.16 89.5553 6.70133 89.15 6.36C88.7447 6.008 88.2487 5.832 87.662 5.832C87.1073 5.832 86.638 6.00267 86.254 6.344C85.8807 6.67467 85.6513 7.13867 85.566 7.736H89.774ZM97.121 13.144C96.3957 13.144 95.745 13.016 95.169 12.76C94.593 12.4933 94.1343 12.136 93.793 11.688C93.4623 11.24 93.281 10.744 93.249 10.2H95.505C95.5477 10.5413 95.713 10.824 96.001 11.048C96.2997 11.272 96.6677 11.384 97.105 11.384C97.5317 11.384 97.8623 11.2987 98.097 11.128C98.3423 10.9573 98.465 10.7387 98.465 10.472C98.465 10.184 98.3157 9.97067 98.017 9.832C97.729 9.68267 97.265 9.52267 96.625 9.352C95.9637 9.192 95.4197 9.02667 94.993 8.856C94.577 8.68533 94.2143 8.424 93.905 8.072C93.6063 7.72 93.457 7.24533 93.457 6.648C93.457 6.15733 93.5957 5.70933 93.873 5.304C94.161 4.89867 94.5663 4.57867 95.089 4.344C95.6223 4.10933 96.2463 3.992 96.961 3.992C98.017 3.992 98.8597 4.25867 99.489 4.792C100.118 5.31467 100.465 6.024 100.529 6.92H98.385C98.353 6.568 98.2037 6.29067 97.937 6.088C97.681 5.87467 97.3343 5.768 96.897 5.768C96.4917 5.768 96.177 5.84267 95.953 5.992C95.7397 6.14133 95.633 6.34933 95.633 6.616C95.633 6.91467 95.7823 7.144 96.081 7.304C96.3797 7.45333 96.8437 7.608 97.473 7.768C98.113 7.928 98.641 8.09333 99.057 8.264C99.473 8.43467 99.8303 8.70133 100.129 9.064C100.438 9.416 100.598 9.88533 100.609 10.472C100.609 10.984 100.465 11.4427 100.177 11.848C99.8997 12.2533 99.4943 12.5733 98.961 12.808C98.4383 13.032 97.825 13.144 97.121 13.144ZM105.056 5.976V10.264C105.056 10.5627 105.125 10.7813 105.264 10.92C105.413 11.048 105.658 11.112 106 11.112H107.04V13H105.632C103.744 13 102.8 12.0827 102.8 10.248V5.976H101.744V4.136H102.8V1.944H105.056V4.136H107.04V5.976H105.056ZM114.703 5.416C114.991 5.01067 115.386 4.67467 115.887 4.408C116.399 4.13067 116.981 3.992 117.631 3.992C118.389 3.992 119.071 4.17867 119.679 4.552C120.298 4.92533 120.783 5.45867 121.135 6.152C121.498 6.83467 121.679 7.62933 121.679 8.536C121.679 9.44267 121.498 10.248 121.135 10.952C120.783 11.6453 120.298 12.184 119.679 12.568C119.071 12.952 118.389 13.144 117.631 13.144C116.981 13.144 116.405 13.0107 115.903 12.744C115.413 12.4773 115.013 12.1413 114.703 11.736V17.224H112.463V4.136H114.703V5.416ZM119.391 8.536C119.391 8.00267 119.279 7.544 119.055 7.16C118.842 6.76533 118.554 6.46667 118.191 6.264C117.839 6.06133 117.455 5.96 117.039 5.96C116.634 5.96 116.25 6.06667 115.887 6.28C115.535 6.48267 115.247 6.78133 115.023 7.176C114.81 7.57067 114.703 8.03467 114.703 8.568C114.703 9.10133 114.81 9.56533 115.023 9.96C115.247 10.3547 115.535 10.6587 115.887 10.872C116.25 11.0747 116.634 11.176 117.039 11.176C117.455 11.176 117.839 11.0693 118.191 10.856C118.554 10.6427 118.842 10.3387 119.055 9.944C119.279 9.54933 119.391 9.08 119.391 8.536ZM125.547 5.512C125.835 5.04267 126.208 4.67467 126.667 4.408C127.136 4.14133 127.67 4.008 128.267 4.008V6.36H127.675C126.971 6.36 126.438 6.52533 126.075 6.856C125.723 7.18667 125.547 7.76267 125.547 8.584V13H123.307V4.136H125.547V5.512ZM130.912 3.08C130.517 3.08 130.187 2.95733 129.92 2.712C129.664 2.456 129.536 2.14133 129.536 1.768C129.536 1.39467 129.664 1.08533 129.92 0.839999C130.187 0.583999 130.517 0.455999 130.912 0.455999C131.307 0.455999 131.632 0.583999 131.888 0.839999C132.155 1.08533 132.288 1.39467 132.288 1.768C132.288 2.14133 132.155 2.456 131.888 2.712C131.632 2.95733 131.307 3.08 130.912 3.08ZM132.016 4.136V13H129.776V4.136H132.016ZM133.653 8.568C133.653 7.65067 133.84 6.85067 134.213 6.168C134.586 5.47467 135.104 4.94133 135.765 4.568C136.426 4.184 137.184 3.992 138.037 3.992C139.136 3.992 140.042 4.26933 140.757 4.824C141.482 5.368 141.968 6.136 142.213 7.128H139.797C139.669 6.744 139.45 6.44533 139.141 6.232C138.842 6.008 138.469 5.896 138.021 5.896C137.381 5.896 136.874 6.13067 136.501 6.6C136.128 7.05867 135.941 7.71467 135.941 8.568C135.941 9.41067 136.128 10.0667 136.501 10.536C136.874 10.9947 137.381 11.224 138.021 11.224C138.928 11.224 139.52 10.8187 139.797 10.008H142.213C141.968 10.968 141.482 11.7307 140.757 12.296C140.032 12.8613 139.125 13.144 138.037 13.144C137.184 13.144 136.426 12.9573 135.765 12.584C135.104 12.2 134.586 11.6667 134.213 10.984C133.84 10.2907 133.653 9.48533 133.653 8.568ZM152.094 8.376C152.094 8.696 152.073 8.984 152.03 9.24H145.55C145.603 9.88 145.827 10.3813 146.222 10.744C146.617 11.1067 147.102 11.288 147.678 11.288C148.51 11.288 149.102 10.9307 149.454 10.216H151.87C151.614 11.0693 151.123 11.7733 150.398 12.328C149.673 12.872 148.782 13.144 147.726 13.144C146.873 13.144 146.105 12.9573 145.422 12.584C144.75 12.2 144.222 11.6613 143.838 10.968C143.465 10.2747 143.278 9.47467 143.278 8.568C143.278 7.65067 143.465 6.84533 143.838 6.152C144.211 5.45867 144.734 4.92533 145.406 4.552C146.078 4.17867 146.851 3.992 147.726 3.992C148.569 3.992 149.321 4.17333 149.982 4.536C150.654 4.89867 151.171 5.416 151.534 6.088C151.907 6.74933 152.094 7.512 152.094 8.376ZM149.774 7.736C149.763 7.16 149.555 6.70133 149.15 6.36C148.745 6.008 148.249 5.832 147.662 5.832C147.107 5.832 146.638 6.00267 146.254 6.344C145.881 6.67467 145.651 7.13867 145.566 7.736H149.774Z"/>
</mask>
<path d="M6.815 7.272C7.44433 7.38933 7.96167 7.704 8.367 8.216C8.77233 8.728 8.975 9.31467 8.975 9.976C8.975 10.5733 8.82567 11.1013 8.527 11.56C8.239 12.008 7.81767 12.36 7.263 12.616C6.70833 12.872 6.05233 13 5.295 13H0.479V1.832H5.087C5.84433 1.832 6.495 1.95467 7.039 2.2C7.59367 2.44533 8.00967 2.78667 8.287 3.224C8.575 3.66133 8.719 4.15733 8.719 4.712C8.719 5.36267 8.543 5.90667 8.191 6.344C7.84967 6.78133 7.391 7.09067 6.815 7.272ZM2.719 6.44H4.767C5.30033 6.44 5.711 6.32267 5.999 6.088C6.287 5.84267 6.431 5.496 6.431 5.048C6.431 4.6 6.287 4.25333 5.999 4.008C5.711 3.76267 5.30033 3.64 4.767 3.64H2.719V6.44ZM4.975 11.176C5.519 11.176 5.94033 11.048 6.239 10.792C6.54833 10.536 6.703 10.1733 6.703 9.704C6.703 9.224 6.543 8.85067 6.223 8.584C5.903 8.30667 5.471 8.168 4.927 8.168H2.719V11.176H4.975ZM19.1283 4.136V13H16.8723V11.88C16.5843 12.264 16.2056 12.568 15.7363 12.792C15.2776 13.0053 14.7763 13.112 14.2323 13.112C13.5389 13.112 12.9256 12.968 12.3923 12.68C11.8589 12.3813 11.4376 11.9493 11.1283 11.384C10.8296 10.808 10.6803 10.1253 10.6803 9.336V4.136H12.9203V9.016C12.9203 9.72 13.0963 10.264 13.4483 10.648C13.8003 11.0213 14.2803 11.208 14.8883 11.208C15.5069 11.208 15.9923 11.0213 16.3443 10.648C16.6963 10.264 16.8723 9.72 16.8723 9.016V4.136H19.1283ZM29.8184 4.136L24.3304 17.192H21.9464L23.8664 12.776L20.3144 4.136H22.8264L25.1144 10.328L27.4344 4.136H29.8184ZM34.2624 8.536C34.2624 7.64 34.4384 6.84533 34.7904 6.152C35.153 5.45867 35.6384 4.92533 36.2464 4.552C36.865 4.17867 37.553 3.992 38.3104 3.992C38.9717 3.992 39.5477 4.12533 40.0384 4.392C40.5397 4.65867 40.9397 4.99467 41.2384 5.4V4.136H43.4944V13H41.2384V11.704C40.9504 12.12 40.5504 12.4667 40.0384 12.744C39.537 13.0107 38.9557 13.144 38.2944 13.144C37.5477 13.144 36.865 12.952 36.2464 12.568C35.6384 12.184 35.153 11.6453 34.7904 10.952C34.4384 10.248 34.2624 9.44267 34.2624 8.536ZM41.2384 8.568C41.2384 8.024 41.1317 7.56 40.9184 7.176C40.705 6.78133 40.417 6.48267 40.0544 6.28C39.6917 6.06667 39.3024 5.96 38.8864 5.96C38.4704 5.96 38.0864 6.06133 37.7344 6.264C37.3824 6.46667 37.0944 6.76533 36.8704 7.16C36.657 7.544 36.5504 8.00267 36.5504 8.536C36.5504 9.06933 36.657 9.53867 36.8704 9.944C37.0944 10.3387 37.3824 10.6427 37.7344 10.856C38.097 11.0693 38.481 11.176 38.8864 11.176C39.3024 11.176 39.6917 11.0747 40.0544 10.872C40.417 10.6587 40.705 10.36 40.9184 9.976C41.1317 9.58133 41.2384 9.112 41.2384 8.568ZM48.2901 5.976V10.264C48.2901 10.5627 48.3595 10.7813 48.4981 10.92C48.6475 11.048 48.8928 11.112 49.2341 11.112H50.2741V13H48.8661C46.9781 13 46.0341 12.0827 46.0341 10.248V5.976H44.9781V4.136H46.0341V1.944H48.2901V4.136H50.2741V5.976H48.2901ZM57.9378 1.16V13H55.6978V1.16H57.9378ZM64.0869 13.144C63.2335 13.144 62.4655 12.9573 61.7829 12.584C61.1002 12.2 60.5615 11.6613 60.1669 10.968C59.7829 10.2747 59.5909 9.47467 59.5909 8.568C59.5909 7.66133 59.7882 6.86133 60.1829 6.168C60.5882 5.47467 61.1375 4.94133 61.8309 4.568C62.5242 4.184 63.2975 3.992 64.1509 3.992C65.0042 3.992 65.7775 4.184 66.4709 4.568C67.1642 4.94133 67.7082 5.47467 68.1029 6.168C68.5082 6.86133 68.7109 7.66133 68.7109 8.568C68.7109 9.47467 68.5029 10.2747 68.0869 10.968C67.6815 11.6613 67.1269 12.2 66.4229 12.584C65.7295 12.9573 64.9509 13.144 64.0869 13.144ZM64.0869 11.192C64.4922 11.192 64.8709 11.096 65.2229 10.904C65.5855 10.7013 65.8735 10.4027 66.0869 10.008C66.3002 9.61333 66.4069 9.13333 66.4069 8.568C66.4069 7.72533 66.1829 7.08 65.7349 6.632C65.2975 6.17333 64.7589 5.944 64.1189 5.944C63.4789 5.944 62.9402 6.17333 62.5029 6.632C62.0762 7.08 61.8629 7.72533 61.8629 8.568C61.8629 9.41067 62.0709 10.0613 62.4869 10.52C62.9135 10.968 63.4469 11.192 64.0869 11.192ZM82.642 4.136L80.05 13H77.634L76.018 6.808L74.402 13H71.97L69.362 4.136H71.634L73.202 10.888L74.898 4.136H77.266L78.93 10.872L80.498 4.136H82.642ZM92.094 8.376C92.094 8.696 92.0727 8.984 92.03 9.24H85.55C85.6033 9.88 85.8273 10.3813 86.222 10.744C86.6167 11.1067 87.102 11.288 87.678 11.288C88.51 11.288 89.102 10.9307 89.454 10.216H91.87C91.614 11.0693 91.1233 11.7733 90.398 12.328C89.6727 12.872 88.782 13.144 87.726 13.144C86.8727 13.144 86.1047 12.9573 85.422 12.584C84.75 12.2 84.222 11.6613 83.838 10.968C83.4647 10.2747 83.278 9.47467 83.278 8.568C83.278 7.65067 83.4647 6.84533 83.838 6.152C84.2113 5.45867 84.734 4.92533 85.406 4.552C86.078 4.17867 86.8513 3.992 87.726 3.992C88.5687 3.992 89.3207 4.17333 89.982 4.536C90.654 4.89867 91.1713 5.416 91.534 6.088C91.9073 6.74933 92.094 7.512 92.094 8.376ZM89.774 7.736C89.7633 7.16 89.5553 6.70133 89.15 6.36C88.7447 6.008 88.2487 5.832 87.662 5.832C87.1073 5.832 86.638 6.00267 86.254 6.344C85.8807 6.67467 85.6513 7.13867 85.566 7.736H89.774ZM97.121 13.144C96.3957 13.144 95.745 13.016 95.169 12.76C94.593 12.4933 94.1343 12.136 93.793 11.688C93.4623 11.24 93.281 10.744 93.249 10.2H95.505C95.5477 10.5413 95.713 10.824 96.001 11.048C96.2997 11.272 96.6677 11.384 97.105 11.384C97.5317 11.384 97.8623 11.2987 98.097 11.128C98.3423 10.9573 98.465 10.7387 98.465 10.472C98.465 10.184 98.3157 9.97067 98.017 9.832C97.729 9.68267 97.265 9.52267 96.625 9.352C95.9637 9.192 95.4197 9.02667 94.993 8.856C94.577 8.68533 94.2143 8.424 93.905 8.072C93.6063 7.72 93.457 7.24533 93.457 6.648C93.457 6.15733 93.5957 5.70933 93.873 5.304C94.161 4.89867 94.5663 4.57867 95.089 4.344C95.6223 4.10933 96.2463 3.992 96.961 3.992C98.017 3.992 98.8597 4.25867 99.489 4.792C100.118 5.31467 100.465 6.024 100.529 6.92H98.385C98.353 6.568 98.2037 6.29067 97.937 6.088C97.681 5.87467 97.3343 5.768 96.897 5.768C96.4917 5.768 96.177 5.84267 95.953 5.992C95.7397 6.14133 95.633 6.34933 95.633 6.616C95.633 6.91467 95.7823 7.144 96.081 7.304C96.3797 7.45333 96.8437 7.608 97.473 7.768C98.113 7.928 98.641 8.09333 99.057 8.264C99.473 8.43467 99.8303 8.70133 100.129 9.064C100.438 9.416 100.598 9.88533 100.609 10.472C100.609 10.984 100.465 11.4427 100.177 11.848C99.8997 12.2533 99.4943 12.5733 98.961 12.808C98.4383 13.032 97.825 13.144 97.121 13.144ZM105.056 5.976V10.264C105.056 10.5627 105.125 10.7813 105.264 10.92C105.413 11.048 105.658 11.112 106 11.112H107.04V13H105.632C103.744 13 102.8 12.0827 102.8 10.248V5.976H101.744V4.136H102.8V1.944H105.056V4.136H107.04V5.976H105.056ZM114.703 5.416C114.991 5.01067 115.386 4.67467 115.887 4.408C116.399 4.13067 116.981 3.992 117.631 3.992C118.389 3.992 119.071 4.17867 119.679 4.552C120.298 4.92533 120.783 5.45867 121.135 6.152C121.498 6.83467 121.679 7.62933 121.679 8.536C121.679 9.44267 121.498 10.248 121.135 10.952C120.783 11.6453 120.298 12.184 119.679 12.568C119.071 12.952 118.389 13.144 117.631 13.144C116.981 13.144 116.405 13.0107 115.903 12.744C115.413 12.4773 115.013 12.1413 114.703 11.736V17.224H112.463V4.136H114.703V5.416ZM119.391 8.536C119.391 8.00267 119.279 7.544 119.055 7.16C118.842 6.76533 118.554 6.46667 118.191 6.264C117.839 6.06133 117.455 5.96 117.039 5.96C116.634 5.96 116.25 6.06667 115.887 6.28C115.535 6.48267 115.247 6.78133 115.023 7.176C114.81 7.57067 114.703 8.03467 114.703 8.568C114.703 9.10133 114.81 9.56533 115.023 9.96C115.247 10.3547 115.535 10.6587 115.887 10.872C116.25 11.0747 116.634 11.176 117.039 11.176C117.455 11.176 117.839 11.0693 118.191 10.856C118.554 10.6427 118.842 10.3387 119.055 9.944C119.279 9.54933 119.391 9.08 119.391 8.536ZM125.547 5.512C125.835 5.04267 126.208 4.67467 126.667 4.408C127.136 4.14133 127.67 4.008 128.267 4.008V6.36H127.675C126.971 6.36 126.438 6.52533 126.075 6.856C125.723 7.18667 125.547 7.76267 125.547 8.584V13H123.307V4.136H125.547V5.512ZM130.912 3.08C130.517 3.08 130.187 2.95733 129.92 2.712C129.664 2.456 129.536 2.14133 129.536 1.768C129.536 1.39467 129.664 1.08533 129.92 0.839999C130.187 0.583999 130.517 0.455999 130.912 0.455999C131.307 0.455999 131.632 0.583999 131.888 0.839999C132.155 1.08533 132.288 1.39467 132.288 1.768C132.288 2.14133 132.155 2.456 131.888 2.712C131.632 2.95733 131.307 3.08 130.912 3.08ZM132.016 4.136V13H129.776V4.136H132.016ZM133.653 8.568C133.653 7.65067 133.84 6.85067 134.213 6.168C134.586 5.47467 135.104 4.94133 135.765 4.568C136.426 4.184 137.184 3.992 138.037 3.992C139.136 3.992 140.042 4.26933 140.757 4.824C141.482 5.368 141.968 6.136 142.213 7.128H139.797C139.669 6.744 139.45 6.44533 139.141 6.232C138.842 6.008 138.469 5.896 138.021 5.896C137.381 5.896 136.874 6.13067 136.501 6.6C136.128 7.05867 135.941 7.71467 135.941 8.568C135.941 9.41067 136.128 10.0667 136.501 10.536C136.874 10.9947 137.381 11.224 138.021 11.224C138.928 11.224 139.52 10.8187 139.797 10.008H142.213C141.968 10.968 141.482 11.7307 140.757 12.296C140.032 12.8613 139.125 13.144 138.037 13.144C137.184 13.144 136.426 12.9573 135.765 12.584C135.104 12.2 134.586 11.6667 134.213 10.984C133.84 10.2907 133.653 9.48533 133.653 8.568ZM152.094 8.376C152.094 8.696 152.073 8.984 152.03 9.24H145.55C145.603 9.88 145.827 10.3813 146.222 10.744C146.617 11.1067 147.102 11.288 147.678 11.288C148.51 11.288 149.102 10.9307 149.454 10.216H151.87C151.614 11.0693 151.123 11.7733 150.398 12.328C149.673 12.872 148.782 13.144 147.726 13.144C146.873 13.144 146.105 12.9573 145.422 12.584C144.75 12.2 144.222 11.6613 143.838 10.968C143.465 10.2747 143.278 9.47467 143.278 8.568C143.278 7.65067 143.465 6.84533 143.838 6.152C144.211 5.45867 144.734 4.92533 145.406 4.552C146.078 4.17867 146.851 3.992 147.726 3.992C148.569 3.992 149.321 4.17333 149.982 4.536C150.654 4.89867 151.171 5.416 151.534 6.088C151.907 6.74933 152.094 7.512 152.094 8.376ZM149.774 7.736C149.763 7.16 149.555 6.70133 149.15 6.36C148.745 6.008 148.249 5.832 147.662 5.832C147.107 5.832 146.638 6.00267 146.254 6.344C145.881 6.67467 145.651 7.13867 145.566 7.736H149.774Z" fill="white"/>
<path d="M6.815 7.272L5.61386 3.4566L6.08187 11.2042L6.815 7.272ZM8.367 8.216L11.5032 5.73319L11.5032 5.73319L8.367 8.216ZM8.527 11.56L5.17501 9.37731L5.16862 9.38712L5.16229 9.39697L8.527 11.56ZM7.263 12.616L8.93923 16.2478H8.93923L7.263 12.616ZM0.479 13H-3.521V17H0.479V13ZM0.479 1.832V-2.168H-3.521V1.832H0.479ZM7.039 2.2L5.39457 5.84635L5.40775 5.85229L5.42098 5.85814L7.039 2.2ZM8.287 3.224L4.90897 5.36617L4.92739 5.39523L4.94632 5.42396L8.287 3.224ZM8.191 6.344L5.07495 3.83596L5.05617 3.8593L5.03774 3.88292L8.191 6.344ZM2.719 6.44H-1.281V10.44H2.719V6.44ZM5.999 6.088L8.52569 9.18894L8.55958 9.16132L8.59287 9.13297L5.999 6.088ZM5.999 4.008L8.59287 0.963027L8.59287 0.963026L5.999 4.008ZM2.719 3.64V-0.360001H-1.281V3.64H2.719ZM6.239 10.792L3.68873 7.71042L3.66209 7.73247L3.63583 7.75497L6.239 10.792ZM6.223 8.584L3.60328 11.6068L3.63253 11.6321L3.66226 11.6569L6.223 8.584ZM2.719 8.168V4.168H-1.281V8.168H2.719ZM2.719 11.176H-1.281V15.176H2.719V11.176ZM6.08187 11.2042C5.9481 11.1793 5.7746 11.1219 5.59633 11.0135C5.41915 10.9057 5.29929 10.7853 5.23082 10.6988L11.5032 5.73319C10.5114 4.48038 9.14797 3.63803 7.54813 3.33976L6.08187 11.2042ZM5.23082 10.6988C5.16859 10.6202 5.09551 10.5003 5.04224 10.3461C4.98918 10.1925 4.975 10.0606 4.975 9.976H12.975C12.975 8.42584 12.4756 6.96155 11.5032 5.73319L5.23082 10.6988ZM4.975 9.976C4.975 9.93893 4.98003 9.85142 5.01398 9.73139C5.04867 9.60874 5.10396 9.48642 5.17501 9.37731L11.879 13.7427C12.639 12.5755 12.975 11.2746 12.975 9.976H4.975ZM5.16229 9.39697C5.24425 9.26948 5.33968 9.16613 5.43044 9.0903C5.51828 9.01692 5.58001 8.98728 5.58677 8.98416L8.93923 16.2478C10.0809 15.7209 11.1342 14.9013 11.8917 13.723L5.16229 9.39697ZM5.58677 8.98416C5.66791 8.94671 5.60873 9 5.295 9V17C6.49594 17 7.74876 16.7973 8.93923 16.2478L5.58677 8.98416ZM5.295 9H0.479V17H5.295V9ZM4.479 13V1.832H-3.521V13H4.479ZM0.479 5.832H5.087V-2.168H0.479V5.832ZM5.087 5.832C5.42464 5.832 5.48672 5.8879 5.39457 5.84635L8.68343 -1.44635C7.50328 -1.97857 6.26403 -2.168 5.087 -2.168V5.832ZM5.42098 5.85814C5.40898 5.85284 5.33402 5.81786 5.22973 5.73229C5.12171 5.64366 5.00705 5.52084 4.90897 5.36617L11.665 1.08183C10.8953 -0.13193 9.80869 -0.948749 8.65703 -1.45814L5.42098 5.85814ZM4.94632 5.42396C4.87315 5.31286 4.81083 5.18121 4.76962 5.03924C4.72892 4.89907 4.719 4.78423 4.719 4.712H12.719C12.719 3.42402 12.3718 2.15399 11.6277 1.02404L4.94632 5.42396ZM4.719 4.712C4.719 4.67602 4.72416 4.55309 4.78122 4.37672C4.84054 4.19339 4.93941 4.00436 5.07495 3.83596L11.307 8.85204C12.3197 7.59386 12.719 6.12288 12.719 4.712H4.719ZM5.03774 3.88292C5.12505 3.77104 5.23416 3.66882 5.35443 3.58771C5.47218 3.5083 5.56786 3.47108 5.61386 3.4566L8.01614 11.0874C9.2933 10.6853 10.4601 9.93795 11.3443 8.80508L5.03774 3.88292ZM2.719 10.44H4.767V2.44H2.719V10.44ZM4.767 10.44C5.82927 10.44 7.27019 10.2119 8.52569 9.18894L3.47231 2.98706C3.80709 2.71427 4.13743 2.5741 4.37612 2.5059C4.60392 2.44082 4.75003 2.44 4.767 2.44V10.44ZM8.59287 9.13297C9.93968 7.98569 10.431 6.42979 10.431 5.048H2.431C2.431 4.84522 2.46392 4.50701 2.62901 4.10958C2.80128 3.69485 3.07223 3.32661 3.40513 3.04303L8.59287 9.13297ZM10.431 5.048C10.431 3.66621 9.93968 2.11031 8.59287 0.963027L3.40513 7.05297C3.07223 6.76939 2.80128 6.40115 2.62901 5.98642C2.46392 5.58899 2.431 5.25078 2.431 5.048H10.431ZM8.59287 0.963026C7.33385 -0.109469 5.86573 -0.360001 4.767 -0.360001V7.64C4.73494 7.64 4.08815 7.6348 3.40514 7.05297L8.59287 0.963026ZM4.767 -0.360001H2.719V7.64H4.767V-0.360001ZM-1.281 3.64V6.44H6.719V3.64H-1.281ZM4.975 15.176C6.10931 15.176 7.58289 14.9084 8.84217 13.829L3.63583 7.75497C4.29778 7.18759 4.92869 7.176 4.975 7.176V15.176ZM8.78927 13.8736C10.1766 12.7255 10.703 11.1411 10.703 9.704H2.703C2.703 9.50022 2.73712 9.15866 2.90763 8.75885C3.08537 8.34207 3.36118 7.9815 3.68873 7.71042L8.78927 13.8736ZM10.703 9.704C10.703 8.2389 10.1603 6.65825 8.78374 5.51112L3.66226 11.6569C3.35024 11.3969 3.08154 11.0483 2.90642 10.6397C2.73789 10.2464 2.703 9.90874 2.703 9.704H10.703ZM8.84272 5.56124C7.60818 4.49131 6.15261 4.168 4.927 4.168V12.168C4.78939 12.168 4.19782 12.122 3.60328 11.6068L8.84272 5.56124ZM4.927 4.168H2.719V12.168H4.927V4.168ZM-1.281 8.168V11.176H6.719V8.168H-1.281ZM2.719 15.176H4.975V7.176H2.719V15.176ZM19.1283 4.136H23.1283V0.136H19.1283V4.136ZM19.1283 13V17H23.1283V13H19.1283ZM16.8722 13H12.8723V17H16.8722V13ZM16.8722 11.88H20.8722V-0.119996L13.6723 9.48L16.8722 11.88ZM15.7362 12.792L17.4232 16.4189L17.4412 16.4105L17.4592 16.4019L15.7362 12.792ZM12.3923 12.68L10.4378 16.17L10.4646 16.185L10.4917 16.1996L12.3923 12.68ZM11.1283 11.384L7.57723 13.2253L7.59778 13.2649L7.6192 13.304L11.1283 11.384ZM10.6803 4.136V0.136H6.68025V4.136H10.6803ZM12.9202 4.136H16.9202V0.136H12.9202V4.136ZM13.4482 10.648L10.4996 13.3509L10.5186 13.3716L10.5379 13.3921L13.4482 10.648ZM16.3442 10.648L19.2546 13.3921L19.2739 13.3716L19.2929 13.3509L16.3442 10.648ZM16.8722 4.136V0.136H12.8723V4.136H16.8722ZM15.1283 4.136V13H23.1283V4.136H15.1283ZM19.1283 9H16.8722V17H19.1283V9ZM20.8722 13V11.88H12.8723V13H20.8722ZM13.6723 9.48C13.7315 9.40095 13.7994 9.332 13.8681 9.27682C13.9358 9.22251 13.9891 9.19362 14.0133 9.18208L17.4592 16.4019C18.4616 15.9235 19.365 15.223 20.0723 14.28L13.6723 9.48ZM14.0493 9.16512C14.0968 9.14304 14.1437 9.1281 14.1838 9.11958C14.223 9.11124 14.2415 9.112 14.2323 9.112V17.112C15.3143 17.112 16.397 16.8962 17.4232 16.4189L14.0493 9.16512ZM14.2323 9.112C14.1629 9.112 14.1452 9.10489 14.1665 9.10989C14.1768 9.11231 14.1944 9.11715 14.2175 9.12583C14.2406 9.13455 14.2662 9.14601 14.2928 9.16038L10.4917 16.1996C11.6882 16.8458 12.9718 17.112 14.2323 17.112V9.112ZM14.3467 9.18998C14.4105 9.22574 14.479 9.27675 14.5398 9.33915C14.5996 9.40045 14.6293 9.4493 14.6373 9.46395L7.6192 13.304C8.26859 14.4909 9.21291 15.4841 10.4378 16.17L14.3467 9.18998ZM14.6793 9.54273C14.7035 9.58947 14.7052 9.60975 14.6999 9.58521C14.6939 9.55807 14.6803 9.47959 14.6803 9.336H6.68025C6.68025 10.6291 6.92632 11.9699 7.57723 13.2253L14.6793 9.54273ZM14.6803 9.336V4.136H6.68025V9.336H14.6803ZM10.6803 8.136H12.9202V0.136H10.6803V8.136ZM8.92025 4.136V9.016H16.9202V4.136H8.92025ZM8.92025 9.016C8.92025 10.3638 9.26371 12.0026 10.4996 13.3509L16.3969 7.9451C16.9288 8.52538 16.9202 9.07617 16.9202 9.016H8.92025ZM10.5379 13.3921C11.785 14.7147 13.3996 15.208 14.8883 15.208V7.208C14.9924 7.208 15.2245 7.22428 15.522 7.33998C15.8338 7.46123 16.1253 7.65653 16.3586 7.90395L10.5379 13.3921ZM14.8883 15.208C16.3641 15.208 17.9941 14.729 19.2546 13.3921L13.4339 7.90395C13.6747 7.64853 13.9714 7.45345 14.2803 7.33462C14.5738 7.22174 14.7977 7.208 14.8883 7.208V15.208ZM19.2929 13.3509C20.5288 12.0026 20.8722 10.3638 20.8722 9.016H12.8723C12.8723 9.07617 12.8637 8.52538 13.3956 7.9451L19.2929 13.3509ZM20.8722 9.016V4.136H12.8723V9.016H20.8722ZM16.8722 8.136H19.1283V0.136H16.8722V8.136ZM29.8184 4.136L33.5059 5.68601L35.8388 0.136H29.8184V4.136ZM24.3304 17.192V21.192H26.988L28.0179 18.742L24.3304 17.192ZM21.9464 17.192L18.2781 15.5971L15.8455 21.192H21.9464V17.192ZM23.8664 12.776L27.5347 14.3709L28.2091 12.8196L27.5659 11.2551L23.8664 12.776ZM20.3144 4.136V0.136H14.3451L16.6148 5.65693L20.3144 4.136ZM22.8264 4.136L26.5784 2.74958L25.6127 0.136H22.8264V4.136ZM25.1144 10.328L21.3623 11.7144L25.0883 21.7981L28.8601 11.7314L25.1144 10.328ZM27.4344 4.136V0.136H24.6615L23.6887 2.73257L27.4344 4.136ZM26.1309 2.58599L20.6429 15.642L28.0179 18.742L33.5059 5.68601L26.1309 2.58599ZM24.3304 13.192H21.9464V21.192H24.3304V13.192ZM25.6147 18.7869L27.5347 14.3709L20.1981 11.1811L18.2781 15.5971L25.6147 18.7869ZM27.5659 11.2551L24.0139 2.61507L16.6148 5.65693L20.1668 14.2969L27.5659 11.2551ZM20.3144 8.136H22.8264V0.136H20.3144V8.136ZM19.0743 5.52242L21.3623 11.7144L28.8664 8.94158L26.5784 2.74958L19.0743 5.52242ZM28.8601 11.7314L31.1801 5.53943L23.6887 2.73257L21.3687 8.92457L28.8601 11.7314ZM27.4344 8.136H29.8184V0.136H27.4344V8.136ZM34.7904 6.152L31.246 4.29801L31.2347 4.31955L31.2237 4.34123L34.7904 6.152ZM36.2464 4.552L34.1797 1.12725L34.1665 1.13523L34.1533 1.14331L36.2464 4.552ZM40.0384 4.392L38.1283 7.9065L38.1441 7.91506L38.1599 7.92349L40.0384 4.392ZM41.2384 5.4L38.0182 7.7728L45.2384 17.5717V5.4H41.2384ZM41.2384 4.136V0.136H37.2384V4.136H41.2384ZM43.4944 4.136H47.4944V0.136H43.4944V4.136ZM43.4944 13V17H47.4944V13H43.4944ZM41.2384 13H37.2384V17H41.2384V13ZM41.2384 11.704H45.2384V-1.10107L37.9496 9.42716L41.2384 11.704ZM40.0384 12.744L41.9168 16.2755L41.9302 16.2684L41.9435 16.2612L40.0384 12.744ZM36.2464 12.568L34.1104 15.95L34.1236 15.9583L34.1369 15.9666L36.2464 12.568ZM34.7904 10.952L31.2127 12.7409L31.229 12.7736L31.246 12.806L34.7904 10.952ZM40.9184 7.176L37.3996 9.07807L37.4105 9.09838L37.4217 9.11857L40.9184 7.176ZM40.0544 6.28L38.0263 9.72774L38.0644 9.75018L38.1031 9.77177L40.0544 6.28ZM37.7344 6.264L35.7385 2.79751L35.7385 2.79751L37.7344 6.264ZM36.8704 7.16L33.3916 5.18558L33.3826 5.20146L33.3737 5.21743L36.8704 7.16ZM36.8704 9.944L33.3307 11.807L33.3603 11.8632L33.3916 11.9184L36.8704 9.944ZM37.7344 10.856L35.6612 14.2768L35.6836 14.2904L35.7063 14.3037L37.7344 10.856ZM40.0544 10.872L42.0057 14.3638L42.0443 14.3422L42.0825 14.3197L40.0544 10.872ZM40.9184 9.976L44.415 11.9186L44.4262 11.8984L44.4372 11.8781L40.9184 9.976ZM38.2624 8.536C38.2624 8.17313 38.3305 8.01513 38.357 7.96277L31.2237 4.34123C30.5463 5.67553 30.2624 7.10687 30.2624 8.536H38.2624ZM38.3348 8.00599C38.3532 7.97083 38.3674 7.94863 38.3757 7.93661C38.3839 7.92474 38.3872 7.92147 38.3848 7.92416C38.3822 7.92697 38.3761 7.93321 38.3667 7.94103C38.3573 7.94888 38.3477 7.9556 38.3394 7.96069L34.1533 1.14331C32.8715 1.93038 31.9099 3.02874 31.246 4.29801L38.3348 8.00599ZM38.313 7.97675C38.3131 7.97674 38.3127 7.97693 38.3121 7.97731C38.3114 7.97768 38.3104 7.97821 38.3092 7.97885C38.3066 7.98017 38.3032 7.98181 38.2991 7.98358C38.2903 7.98733 38.2814 7.99036 38.2738 7.99243C38.2662 7.99448 38.2636 7.99458 38.2677 7.99405C38.272 7.9935 38.2857 7.992 38.3104 7.992V-0.00800037C36.8612 -0.00800037 35.4527 0.359095 34.1797 1.12725L38.313 7.97675ZM38.3104 7.992C38.3727 7.992 38.3766 7.99829 38.3363 7.98896C38.2932 7.97898 38.2183 7.95538 38.1283 7.9065L41.9484 0.877501C40.7723 0.238283 39.516 -0.00800037 38.3104 -0.00800037V7.992ZM38.1599 7.92349C38.1846 7.93661 38.1737 7.93374 38.1416 7.90682C38.1084 7.87889 38.0635 7.83435 38.0182 7.7728L44.4586 3.0272C43.762 2.08184 42.8786 1.37207 41.9168 0.860511L38.1599 7.92349ZM45.2384 5.4V4.136H37.2384V5.4H45.2384ZM41.2384 8.136H43.4944V0.136H41.2384V8.136ZM39.4944 4.136V13H47.4944V4.136H39.4944ZM43.4944 9H41.2384V17H43.4944V9ZM45.2384 13V11.704H37.2384V13H45.2384ZM37.9496 9.42716C38.0051 9.34702 38.061 9.28938 38.1027 9.25324C38.1428 9.21845 38.1589 9.21291 38.1332 9.22683L41.9435 16.2612C42.9241 15.73 43.8313 14.986 44.5271 13.9808L37.9496 9.42716ZM38.1599 9.21251C38.235 9.17257 38.2973 9.15323 38.3322 9.14523C38.3646 9.1378 38.3563 9.144 38.2944 9.144V17.144C39.5026 17.144 40.7486 16.8969 41.9168 16.2755L38.1599 9.21251ZM38.2944 9.144C38.2795 9.144 38.2749 9.14307 38.2789 9.14361C38.283 9.14416 38.2924 9.14576 38.3054 9.1494C38.3183 9.15305 38.3308 9.15759 38.3414 9.16229C38.3519 9.16694 38.3569 9.17008 38.3558 9.16944L34.1369 15.9666C35.4057 16.7541 36.8222 17.144 38.2944 17.144V9.144ZM38.3823 9.18604C38.3847 9.18755 38.3888 9.19037 38.3931 9.19406C38.3975 9.19774 38.3992 9.19977 38.3981 9.19852C38.3971 9.19742 38.3727 9.17059 38.3348 9.09801L31.246 12.806C31.9057 14.0671 32.8546 15.1568 34.1104 15.95L38.3823 9.18604ZM38.3681 9.16315C38.3332 9.09336 38.2624 8.91622 38.2624 8.536H30.2624C30.2624 9.96911 30.5436 11.4026 31.2127 12.7409L38.3681 9.16315ZM45.2384 8.568C45.2384 7.5043 45.0283 6.33745 44.415 5.23343L37.4217 9.11857C37.2351 8.78255 37.2384 8.5437 37.2384 8.568H45.2384ZM44.4372 5.27393C43.8929 4.2669 43.0842 3.39093 42.0057 2.78823L38.1031 9.77177C37.9421 9.6818 37.7919 9.56626 37.663 9.43254C37.5356 9.30045 37.4515 9.1741 37.3996 9.07807L44.4372 5.27393ZM42.0825 2.83226C41.1125 2.26169 40.0241 1.96 38.8864 1.96V9.96C38.7483 9.96 38.5936 9.94171 38.4334 9.89783C38.2736 9.85403 38.1363 9.79242 38.0263 9.72774L42.0825 2.83226ZM38.8864 1.96C37.7876 1.96 36.7128 2.23656 35.7385 2.79751L39.7302 9.73049C39.6073 9.80128 39.4641 9.86215 39.307 9.9036C39.1504 9.94491 39.0065 9.96 38.8864 9.96V1.96ZM35.7385 2.79751C34.6977 3.3968 33.9256 4.24473 33.3916 5.18558L40.3491 9.13442C40.2631 9.28594 40.0671 9.53653 39.7302 9.73049L35.7385 2.79751ZM33.3737 5.21743C32.7665 6.31047 32.5504 7.46757 32.5504 8.536H40.5504C40.5504 8.53484 40.5506 8.59418 40.5264 8.69805C40.5015 8.80512 40.4536 8.94679 40.367 9.10257L33.3737 5.21743ZM32.5504 8.536C32.5504 9.6115 32.7688 10.7395 33.3307 11.807L40.41 8.08101C40.4737 8.20201 40.5109 8.31361 40.5309 8.40152C40.5503 8.48705 40.5504 8.53606 40.5504 8.536H32.5504ZM33.3916 11.9184C33.9175 12.845 34.6664 13.6739 35.6612 14.2768L39.8076 7.43521C40.0984 7.61144 40.2712 7.83236 40.3491 7.96958L33.3916 11.9184ZM35.7063 14.3037C36.6592 14.8643 37.74 15.176 38.8864 15.176V7.176C39.0393 7.176 39.2024 7.19677 39.3649 7.24193C39.5266 7.28684 39.6604 7.34822 39.7625 7.40826L35.7063 14.3037ZM38.8864 15.176C39.9846 15.176 41.0458 14.9002 42.0057 14.3638L38.1031 7.38023C38.2092 7.32095 38.3374 7.26682 38.4828 7.22897C38.6282 7.19113 38.766 7.176 38.8864 7.176V15.176ZM42.0825 14.3197C43.0878 13.7284 43.8711 12.8976 44.415 11.9186L37.4217 8.03343C37.4739 7.93962 37.5522 7.82638 37.663 7.71146C37.7746 7.59577 37.8992 7.49904 38.0263 7.42426L42.0825 14.3197ZM44.4372 11.8781C45.0269 10.7872 45.2384 9.63605 45.2384 8.568H37.2384C37.2384 8.58795 37.2366 8.37545 37.3995 8.07393L44.4372 11.8781ZM48.2901 5.976V1.976H44.2901V5.976H48.2901ZM48.4981 10.92L45.6697 13.7484L45.7783 13.8571L45.895 13.957L48.4981 10.92ZM50.2741 11.112H54.2741V7.112H50.2741V11.112ZM50.2741 13V17H54.2741V13H50.2741ZM46.0341 5.976H50.0341V1.976H46.0341V5.976ZM44.9781 5.976H40.9781V9.976H44.9781V5.976ZM44.9781 4.136V0.136H40.9781V4.136H44.9781ZM46.0341 4.136V8.136H50.0341V4.136H46.0341ZM46.0341 1.944V-2.056H42.0341V1.944H46.0341ZM48.2901 1.944H52.2901V-2.056H48.2901V1.944ZM48.2901 4.136H44.2901V8.136H48.2901V4.136ZM50.2741 4.136H54.2741V0.136H50.2741V4.136ZM50.2741 5.976V9.976H54.2741V5.976H50.2741ZM44.2901 5.976V10.264H52.2901V5.976H44.2901ZM44.2901 10.264C44.2901 11.0786 44.4678 12.5465 45.6697 13.7484L51.3266 8.09157C52.2511 9.01613 52.2901 10.0467 52.2901 10.264H44.2901ZM45.895 13.957C47.1393 15.0236 48.5762 15.112 49.2341 15.112V7.112C49.2949 7.112 49.5056 7.11573 49.8038 7.19353C50.1047 7.27203 50.6016 7.45463 51.1013 7.88297L45.895 13.957ZM49.2341 15.112H50.2741V7.112H49.2341V15.112ZM46.2741 11.112V13H54.2741V11.112H46.2741ZM50.2741 9H48.8661V17H50.2741V9ZM48.8661 9C48.5104 9 48.9836 8.91263 49.5297 9.44335C50.0972 9.99473 50.0341 10.5192 50.0341 10.248H42.0341C42.0341 11.8115 42.4431 13.7119 43.9545 15.1807C45.4446 16.6287 47.3338 17 48.8661 17V9ZM50.0341 10.248V5.976H42.0341V10.248H50.0341ZM46.0341 1.976H44.9781V9.976H46.0341V1.976ZM48.9781 5.976V4.136H40.9781V5.976H48.9781ZM44.9781 8.136H46.0341V0.136H44.9781V8.136ZM50.0341 4.136V1.944H42.0341V4.136H50.0341ZM46.0341 5.944H48.2901V-2.056H46.0341V5.944ZM44.2901 1.944V4.136H52.2901V1.944H44.2901ZM48.2901 8.136H50.2741V0.136H48.2901V8.136ZM46.2741 4.136V5.976H54.2741V4.136H46.2741ZM50.2741 1.976H48.2901V9.976H50.2741V1.976ZM57.9378 1.16H61.9378V-2.84H57.9378V1.16ZM57.9378 13V17H61.9378V13H57.9378ZM55.6978 13H51.6978V17H55.6978V13ZM55.6978 1.16V-2.84H51.6978V1.16H55.6978ZM53.9378 1.16V13H61.9378V1.16H53.9378ZM57.9378 9H55.6978V17H57.9378V9ZM59.6978 13V1.16H51.6978V13H59.6978ZM55.6978 5.16H57.9378V-2.84H55.6978V5.16ZM61.7829 12.584L59.8218 16.0703L59.8427 16.082L59.8636 16.0935L61.7829 12.584ZM60.1669 10.968L56.6677 12.906L56.679 12.9265L56.6906 12.9468L60.1669 10.968ZM60.1829 6.168L56.7297 4.14921L56.718 4.16914L56.7066 4.18921L60.1829 6.168ZM61.8309 4.568L63.7273 8.08988L63.7481 8.07865L63.7689 8.06717L61.8309 4.568ZM66.4709 4.568L64.5329 8.06717L64.5536 8.07865L64.5745 8.08988L66.4709 4.568ZM68.1029 6.168L64.6266 8.14679L64.638 8.16686L64.6497 8.18679L68.1029 6.168ZM68.0869 10.968L64.6569 8.91002L64.6452 8.92955L64.6337 8.94921L68.0869 10.968ZM66.4229 12.584L68.3193 16.1059L68.3288 16.1008L68.3383 16.0956L66.4229 12.584ZM65.2229 10.904L67.1383 14.4156L67.1563 14.4058L67.1742 14.3958L65.2229 10.904ZM66.0869 10.008L69.6057 11.9101L69.6057 11.9101L66.0869 10.008ZM65.7349 6.632L62.8399 9.3923L62.8728 9.42676L62.9064 9.46043L65.7349 6.632ZM62.5029 6.632L59.6079 3.8717L59.6063 3.87338L62.5029 6.632ZM62.4869 10.52L59.524 13.2073L59.5567 13.2433L59.5903 13.2786L62.4869 10.52ZM64.0869 9.144C63.8379 9.144 63.7407 9.09559 63.7021 9.07452L59.8636 16.0935C61.1904 16.8191 62.6292 17.144 64.0869 17.144V9.144ZM63.7439 9.0977C63.7113 9.07936 63.6996 9.0679 63.6953 9.06357C63.6906 9.05891 63.6719 9.03968 63.6431 8.98921L56.6906 12.9468C57.4373 14.2584 58.4945 15.3237 59.8218 16.0703L63.7439 9.0977ZM63.666 9.03C63.6553 9.01058 63.5909 8.89544 63.5909 8.568H55.5909C55.5909 10.0539 55.9105 11.5388 56.6677 12.906L63.666 9.03ZM63.5909 8.568C63.5909 8.25895 63.6524 8.15866 63.6591 8.14679L56.7066 4.18921C55.924 5.56401 55.5909 7.06371 55.5909 8.568H63.5909ZM63.6361 8.18679C63.6649 8.13738 63.6828 8.12029 63.6852 8.11791C63.6873 8.11591 63.6966 8.1064 63.7273 8.08988L59.9345 1.04612C58.5805 1.77516 57.4982 2.83463 56.7297 4.14921L63.6361 8.18679ZM63.7689 8.06717C63.824 8.03665 63.922 7.992 64.1509 7.992V-0.00800037C62.6731 -0.00800037 61.2244 0.331349 59.8929 1.06883L63.7689 8.06717ZM64.1509 7.992C64.3797 7.992 64.4778 8.03665 64.5329 8.06717L68.4089 1.06883C67.0773 0.331349 65.6287 -0.00800037 64.1509 -0.00800037V7.992ZM64.5745 8.08988C64.5896 8.098 64.5968 8.10318 64.5986 8.1045C64.6003 8.10576 64.5998 8.10551 64.5986 8.10429C64.5974 8.10309 64.5985 8.10398 64.6022 8.10883C64.606 8.11379 64.6145 8.12558 64.6266 8.14679L71.5791 4.18921C70.8182 2.8525 69.7307 1.78028 68.3673 1.04611L64.5745 8.08988ZM64.6497 8.18679C64.6526 8.19173 64.7109 8.27748 64.7109 8.568H72.7109C72.7109 7.04519 72.3638 5.53094 71.5561 4.14921L64.6497 8.18679ZM64.7109 8.568C64.7109 8.71421 64.6943 8.80018 64.6836 8.84146C64.6736 8.88003 64.664 8.89826 64.6569 8.91002L71.5168 13.026C72.3497 11.638 72.7109 10.1095 72.7109 8.568H64.7109ZM64.6337 8.94921C64.595 9.01533 64.5716 9.03743 64.5075 9.07242L68.3383 16.0956C69.6821 15.3626 70.7681 14.3073 71.5401 12.9868L64.6337 8.94921ZM64.5265 9.06212C64.4713 9.09185 64.3547 9.144 64.0869 9.144V17.144C65.5471 17.144 66.9878 16.8228 68.3193 16.1059L64.5265 9.06212ZM64.0869 15.192C65.1538 15.192 66.1921 14.9317 67.1383 14.4156L63.3075 7.39242C63.5497 7.2603 63.8306 7.192 64.0869 7.192V15.192ZM67.1742 14.3958C68.2527 13.7931 69.0614 12.9171 69.6057 11.9101L62.5681 8.10593C62.62 8.0099 62.7041 7.88355 62.8315 7.75146C62.9604 7.61774 63.1106 7.5022 63.2716 7.41223L67.1742 14.3958ZM69.6057 11.9101C70.2066 10.7984 70.4069 9.62815 70.4069 8.568H62.4069C62.4069 8.63851 62.3938 8.42825 62.5681 8.10593L69.6057 11.9101ZM70.4069 8.568C70.4069 7.0265 69.9836 5.22388 68.5633 3.80357L62.9064 9.46043C62.6704 9.22433 62.5304 8.9664 62.46 8.76366C62.396 8.57914 62.4069 8.49282 62.4069 8.568H70.4069ZM68.6298 3.8717C67.4292 2.61253 65.8406 1.944 64.1189 1.944V9.944C63.9509 9.944 63.7066 9.91154 63.436 9.79634C63.1646 9.68078 62.9655 9.52396 62.8399 9.3923L68.6298 3.8717ZM64.1189 1.944C62.3972 1.944 60.8085 2.61253 59.6079 3.8717L65.3978 9.3923C65.2723 9.52396 65.0732 9.68077 64.8018 9.79634C64.5312 9.91154 64.2868 9.944 64.1189 9.944V1.944ZM59.6063 3.87338C58.2474 5.30022 57.8629 7.07668 57.8629 8.568H65.8629C65.8629 8.47518 65.8756 8.54145 65.8207 8.70749C65.7603 8.89029 65.6328 9.14558 65.3994 9.39062L59.6063 3.87338ZM57.8629 8.568C57.8629 10.0418 58.2317 11.7824 59.524 13.2073L65.4498 7.83274C65.664 8.06894 65.7769 8.30735 65.8289 8.47003C65.8762 8.61789 65.8629 8.66859 65.8629 8.568H57.8629ZM59.5903 13.2786C60.8008 14.5496 62.3947 15.192 64.0869 15.192V7.192C64.2421 7.192 64.4823 7.2212 64.7558 7.33607C65.0323 7.45219 65.2432 7.61418 65.3834 7.76138L59.5903 13.2786ZM82.642 4.136L86.4812 5.25866L87.9792 0.136H82.642V4.136ZM80.05 13V17H83.0478L83.8892 14.1227L80.05 13ZM77.634 13L73.7636 14.0101L74.544 17H77.634V13ZM76.018 6.808L79.8884 5.7979L76.018 -9.0321L72.1476 5.7979L76.018 6.808ZM74.402 13V17H77.4921L78.2724 14.0101L74.402 13ZM71.97 13L68.1326 14.129L68.9774 17H71.97V13ZM69.362 4.136V0.136H64.0156L65.5247 5.26504L69.362 4.136ZM71.634 4.136L75.5303 3.23117L74.8115 0.136H71.634V4.136ZM73.202 10.888L69.3057 11.7928L77.0815 11.8625L73.202 10.888ZM74.898 4.136V0.136H71.7785L71.0185 3.16153L74.898 4.136ZM77.266 4.136L81.1493 3.17671L80.3981 0.136H77.266V4.136ZM78.93 10.872L75.0467 11.8313L82.8258 11.7789L78.93 10.872ZM80.498 4.136V0.136H77.3222L76.6022 3.22913L80.498 4.136ZM78.8028 3.01334L76.2108 11.8773L83.8892 14.1227L86.4812 5.25866L78.8028 3.01334ZM80.05 9H77.634V17H80.05V9ZM81.5044 11.9899L79.8884 5.7979L72.1476 7.81809L73.7636 14.0101L81.5044 11.9899ZM72.1476 5.7979L70.5316 11.9899L78.2724 14.0101L79.8884 7.81809L72.1476 5.7979ZM74.402 9H71.97V17H74.402V9ZM75.8074 11.871L73.1993 3.00696L65.5247 5.26504L68.1326 14.129L75.8074 11.871ZM69.362 8.136H71.634V0.136H69.362V8.136ZM67.7377 5.04083L69.3057 11.7928L77.0983 9.98317L75.5303 3.23117L67.7377 5.04083ZM77.0815 11.8625L78.7775 5.11047L71.0185 3.16153L69.3225 9.91353L77.0815 11.8625ZM74.898 8.136H77.266V0.136H74.898V8.136ZM73.3827 5.09529L75.0467 11.8313L82.8133 9.91271L81.1493 3.17671L73.3827 5.09529ZM82.8258 11.7789L84.3938 5.04287L76.6022 3.22913L75.0342 9.96513L82.8258 11.7789ZM80.498 8.136H82.642V0.136H80.498V8.136ZM92.03 9.24V13.24H95.4185L95.9756 9.8976L92.03 9.24ZM85.55 9.24V5.24H81.2028L81.5638 9.57218L85.55 9.24ZM86.222 10.744L83.5155 13.6893H83.5155L86.222 10.744ZM89.454 10.216V6.216H86.9653L85.8656 8.4486L89.454 10.216ZM91.87 10.216L95.7013 11.3654L97.2461 6.216H91.87V10.216ZM90.398 12.328L92.798 15.528L92.813 15.5168L92.8278 15.5054L90.398 12.328ZM85.422 12.584L83.4374 16.057L83.4699 16.0755L83.5028 16.0935L85.422 12.584ZM83.838 10.968L80.3161 12.8644L80.3274 12.8853L80.3388 12.906L83.838 10.968ZM83.838 6.152L80.3161 4.2556V4.2556L83.838 6.152ZM85.406 4.552L87.3486 8.04863V8.04863L85.406 4.552ZM89.982 4.536L88.0587 8.04325L88.0704 8.04971L88.0823 8.05609L89.982 4.536ZM91.534 6.088L88.0139 7.98773L88.032 8.02123L88.0507 8.05438L91.534 6.088ZM89.774 7.736V11.736H93.8488L93.7733 7.66194L89.774 7.736ZM89.15 6.36L86.5273 9.38013L86.5502 9.40006L86.5735 9.41964L89.15 6.36ZM86.254 6.344L88.9061 9.33836L88.9115 9.33364L86.254 6.344ZM85.566 7.736L81.6062 7.17031L80.954 11.736H85.566V7.736ZM88.094 8.376C88.094 8.5243 88.0837 8.58693 88.0844 8.5824L95.9756 9.8976C96.0617 9.38107 96.094 8.8677 96.094 8.376H88.094ZM92.03 5.24H85.55V13.24H92.03V5.24ZM81.5638 9.57218C81.6831 11.0032 82.2397 12.517 83.5155 13.6893L88.9285 7.79869C89.1425 7.99534 89.3052 8.22968 89.41 8.46424C89.51 8.68797 89.5316 8.85339 89.5362 8.90782L81.5638 9.57218ZM83.5155 13.6893C84.7063 14.7836 86.1812 15.288 87.678 15.288V7.288C87.8148 7.288 88.0296 7.31069 88.282 7.40499C88.5392 7.50108 88.7595 7.64335 88.9285 7.79869L83.5155 13.6893ZM87.678 15.288C88.6739 15.288 89.7772 15.0697 90.813 14.4445C91.8593 13.813 92.5808 12.9204 93.0424 11.9834L85.8656 8.4486C85.9752 8.22627 86.2247 7.86964 86.6789 7.59548C87.1228 7.3276 87.5141 7.288 87.678 7.288V15.288ZM89.454 14.216H91.87V6.216H89.454V14.216ZM88.0387 9.06661C88.0325 9.08738 88.0279 9.09703 88.0271 9.09868C88.0264 9.10017 88.027 9.09883 88.0284 9.09683C88.0298 9.09489 88.0283 9.0974 88.0212 9.10475C88.0139 9.1123 87.9977 9.12804 87.9682 9.15057L92.8278 15.5054C94.2043 14.4528 95.1969 13.0467 95.7013 11.3654L88.0387 9.06661ZM87.998 9.128C88.0166 9.11404 88.0315 9.11019 88.0177 9.11442C87.9978 9.12049 87.9102 9.144 87.726 9.144V17.144C89.4995 17.144 91.2706 16.6736 92.798 15.528L87.998 9.128ZM87.726 9.144C87.477 9.144 87.3798 9.09559 87.3412 9.07452L83.5028 16.0935C84.8295 16.8191 86.2683 17.144 87.726 17.144V9.144ZM87.4066 9.11103C87.3929 9.10321 87.3858 9.09799 87.3832 9.09598C87.3806 9.09402 87.3795 9.09293 87.3786 9.092C87.3776 9.09104 87.3741 9.08735 87.368 9.07909C87.3618 9.07071 87.3511 9.05517 87.3372 9.03L80.3388 12.906C81.0687 14.2238 82.1137 15.3005 83.4374 16.057L87.4066 9.11103ZM87.3599 9.0716C87.345 9.04398 87.278 8.9137 87.278 8.568H79.278C79.278 10.0356 79.5843 11.5054 80.3161 12.8644L87.3599 9.0716ZM87.278 8.568C87.278 8.20298 87.3486 8.06944 87.3599 8.0484L80.3161 4.2556C79.5808 5.62122 79.278 7.09836 79.278 8.568H87.278ZM87.3599 8.0484C87.3698 8.02999 87.3757 8.02192 87.3761 8.02136C87.3764 8.02095 87.3733 8.02511 87.3669 8.03171C87.3603 8.03836 87.3536 8.04414 87.3482 8.04829C87.3428 8.05238 87.3421 8.05223 87.3486 8.04863L83.4634 1.05537C82.1058 1.8096 81.0427 2.90617 80.3161 4.2556L87.3599 8.0484ZM87.3486 8.04863C87.3582 8.04326 87.3804 8.03195 87.4286 8.02033C87.4792 8.00812 87.5738 7.992 87.726 7.992V-0.00800037C86.2665 -0.00800037 84.8075 0.308666 83.4634 1.05537L87.3486 8.04863ZM87.726 7.992C87.9766 7.992 88.0534 8.04037 88.0587 8.04325L91.9053 1.02875C90.5879 0.306294 89.1607 -0.00800037 87.726 -0.00800037V7.992ZM88.0823 8.05609C88.0888 8.05961 88.0864 8.05883 88.0778 8.0525C88.0691 8.04608 88.0578 8.0366 88.0456 8.02443C88.0334 8.01225 88.0239 8.00087 88.0175 7.99218C88.0112 7.98363 88.0104 7.9812 88.0139 7.98773L95.0541 4.18827C94.3209 2.82969 93.2403 1.74911 91.8817 1.01591L88.0823 8.05609ZM88.0507 8.05438C88.0515 8.05586 88.0593 8.06877 88.0687 8.10695C88.0787 8.14768 88.094 8.23273 88.094 8.376H96.094C96.094 6.9193 95.7738 5.46162 95.0173 4.12162L88.0507 8.05438ZM93.7733 7.66194C93.7434 6.04544 93.0978 4.45508 91.7265 3.30035L86.5735 9.41964C86.3446 9.22694 86.1221 8.95378 85.9671 8.61202C85.8159 8.27871 85.778 7.98884 85.7747 7.81006L93.7733 7.66194ZM91.7727 3.33987C90.5701 2.29548 89.116 1.832 87.662 1.832V9.832C87.5515 9.832 87.3642 9.81456 87.1364 9.73371C86.9033 9.65102 86.6946 9.52544 86.5273 9.38013L91.7727 3.33987ZM87.662 1.832C86.2123 1.832 84.7736 2.30808 83.5965 3.35436L88.9115 9.33364C88.7369 9.48884 88.515 9.62681 88.261 9.71917C88.0117 9.80981 87.7995 9.832 87.662 9.832V1.832ZM83.6019 3.34965C82.3772 4.43433 81.7963 5.83941 81.6062 7.17031L89.5258 8.30169C89.5182 8.35455 89.4892 8.50747 89.3879 8.71235C89.2821 8.92637 89.1215 9.1476 88.9061 9.33835L83.6019 3.34965ZM85.566 11.736H89.774V3.736H85.566V11.736ZM95.169 12.76L93.4885 16.3899L93.5164 16.4028L93.5444 16.4152L95.169 12.76ZM93.793 11.688L90.5747 14.0634L90.5928 14.0879L90.6113 14.1122L93.793 11.688ZM93.249 10.2V6.2H89.0068L89.2559 10.4349L93.249 10.2ZM95.505 10.2L99.4741 9.70386L99.0361 6.2H95.505V10.2ZM96.001 11.048L93.5452 14.2054L93.5729 14.2269L93.601 14.248L96.001 11.048ZM98.097 11.128L95.8127 7.84438L95.7783 7.86836L95.7443 7.89306L98.097 11.128ZM98.017 9.832L96.1757 13.383L96.2533 13.4232L96.3326 13.46L98.017 9.832ZM96.625 9.352L97.6556 5.48706L97.6108 5.47509L97.5656 5.46416L96.625 9.352ZM94.993 8.856L93.4748 12.5567L93.4911 12.5634L93.5074 12.5699L94.993 8.856ZM93.905 8.072L90.855 10.6599L90.8774 10.6864L90.9003 10.7125L93.905 8.072ZM93.873 5.304L90.6123 2.98717L90.5918 3.01604L90.5718 3.04526L93.873 5.304ZM95.089 4.344L93.478 0.68274L93.4643 0.688779L93.4506 0.694921L95.089 4.344ZM99.489 4.792L96.9029 7.84358L96.9181 7.85645L96.9334 7.86916L99.489 4.792ZM100.529 6.92V10.92H104.825L104.519 6.63501L100.529 6.92ZM98.385 6.92L94.4014 7.28214L94.7321 10.92H98.385V6.92ZM97.937 6.088L95.3763 9.16088L95.4452 9.21834L95.5167 9.27265L97.937 6.088ZM95.953 5.992L93.7342 2.6638L93.6964 2.68901L93.6591 2.71507L95.953 5.992ZM96.081 7.304L94.1921 10.8299L94.2418 10.8565L94.2921 10.8817L96.081 7.304ZM97.473 7.768L96.4874 11.6447L96.4951 11.6466L96.5029 11.6486L97.473 7.768ZM100.129 9.064L97.0413 11.6068L97.082 11.6563L97.1243 11.7045L100.129 9.064ZM100.609 10.472H104.609V10.4356L104.608 10.3993L100.609 10.472ZM100.177 11.848L96.9163 9.53117L96.8958 9.56004L96.8758 9.58926L100.177 11.848ZM98.961 12.808L100.537 16.4846L100.554 16.477L100.572 16.4693L98.961 12.808ZM97.121 9.144C96.9936 9.144 96.9097 9.13278 96.8611 9.12322C96.8139 9.11393 96.7945 9.1052 96.7936 9.10475L93.5444 16.4152C94.7034 16.9303 95.9199 17.144 97.121 17.144V9.144ZM96.8495 9.13013C96.813 9.11322 96.8195 9.11177 96.8513 9.13657C96.8848 9.16263 96.9301 9.2052 96.9747 9.26383L90.6113 14.1122C91.3952 15.1411 92.3974 15.8847 93.4885 16.3899L96.8495 9.13013ZM97.0113 9.31259C97.06 9.37852 97.1187 9.47763 97.1658 9.60654C97.2132 9.73611 97.2359 9.8606 97.2421 9.96511L89.2559 10.4349C89.3344 11.7701 89.7945 13.0064 90.5747 14.0634L97.0113 9.31259ZM93.249 14.2H95.505V6.2H93.249V14.2ZM91.5359 10.6961C91.7187 12.159 92.4762 13.3739 93.5452 14.2054L98.4568 7.89059C98.6687 8.0554 98.9117 8.3031 99.1138 8.64847C99.3183 8.99817 99.4317 9.36462 99.4741 9.70386L91.5359 10.6961ZM93.601 14.248C94.7057 15.0765 95.9559 15.384 97.105 15.384V7.384C97.3794 7.384 97.8936 7.46748 98.401 7.848L93.601 14.248ZM97.105 15.384C97.9975 15.384 99.2777 15.2153 100.45 14.3629L95.7443 7.89306C96.447 7.38202 97.0659 7.384 97.105 7.384V15.384ZM100.381 14.4116C101.55 13.5983 102.465 12.2219 102.465 10.472H94.465C94.465 9.96503 94.5891 9.40553 94.8844 8.879C95.1706 8.36891 95.5332 8.03886 95.8127 7.84438L100.381 14.4116ZM102.465 10.472C102.465 9.59822 102.225 8.65197 101.63 7.80215C101.058 6.98451 100.323 6.49273 99.7014 6.20396L96.3326 13.46C96.0093 13.3099 95.4991 12.9942 95.0761 12.3898C94.6305 11.7534 94.465 11.0578 94.465 10.472H102.465ZM99.8583 6.28098C99.1646 5.9213 98.3493 5.67204 97.6556 5.48706L95.5944 13.2169C95.8517 13.2856 96.032 13.3411 96.149 13.3815C96.2061 13.4012 96.2369 13.4134 96.2463 13.4173C96.2575 13.4219 96.2302 13.4113 96.1757 13.383L99.8583 6.28098ZM97.5656 5.46416C97.0107 5.32991 96.6657 5.21694 96.4786 5.14209L93.5074 12.5699C94.1736 12.8364 94.9167 13.0541 95.6844 13.2398L97.5656 5.46416ZM96.5112 5.15533C96.5918 5.1884 96.6727 5.23288 96.7475 5.28677C96.8217 5.34027 96.8753 5.39243 96.9097 5.43154L90.9003 10.7125C91.5991 11.5076 92.4639 12.142 93.4748 12.5567L96.5112 5.15533ZM96.955 5.48409C97.4313 6.04542 97.457 6.58142 97.457 6.648H89.457C89.457 7.90924 89.7813 9.39458 90.855 10.6599L96.955 5.48409ZM97.457 6.648C97.457 6.785 97.4368 6.95026 97.3821 7.12673C97.3275 7.30317 97.251 7.45049 97.1742 7.56273L90.5718 3.04526C89.8397 4.11522 89.457 5.3504 89.457 6.648H97.457ZM97.1337 7.62083C97.049 7.73999 96.9558 7.83302 96.8716 7.89953C96.7898 7.96409 96.7337 7.99024 96.7274 7.99308L93.4506 0.694921C92.3786 1.17623 91.3722 1.91765 90.6123 2.98717L97.1337 7.62083ZM96.7 8.00526C96.6243 8.03853 96.6785 7.992 96.961 7.992V-0.00800037C95.8142 -0.00800037 94.6203 0.180132 93.478 0.68274L96.7 8.00526ZM96.961 7.992C97.1568 7.992 97.2146 8.01713 97.1782 8.0056C97.1587 7.99945 97.1192 7.98491 97.0669 7.9565C97.0141 7.92777 96.9577 7.89001 96.9029 7.84358L102.075 1.74042C100.54 0.439593 98.6927 -0.00800037 96.961 -0.00800037V7.992ZM96.9334 7.86916C96.8286 7.78209 96.7116 7.64502 96.6272 7.47236C96.5466 7.30742 96.5387 7.19836 96.5392 7.20499L104.519 6.63501C104.386 4.76972 103.599 3.00605 102.045 1.71484L96.9334 7.86916ZM100.529 2.92H98.385V10.92H100.529V2.92ZM102.369 6.55786C102.241 5.15699 101.573 3.82688 100.357 2.90335L95.5167 9.27265C95.2244 9.05051 94.9404 8.7404 94.7271 8.3444C94.5165 7.95326 94.4283 7.57786 94.4014 7.28214L102.369 6.55786ZM100.498 3.01512C99.3244 2.03732 97.9743 1.768 96.897 1.768V9.768C96.6944 9.768 96.0376 9.71201 95.3763 9.16088L100.498 3.01512ZM96.897 1.768C96.076 1.768 94.8695 1.90692 93.7342 2.6638L98.1718 9.3202C97.8183 9.55585 97.4945 9.66514 97.2805 9.71593C97.0704 9.76579 96.9307 9.768 96.897 9.768V1.768ZM93.6591 2.71507C92.3462 3.63412 91.633 5.08148 91.633 6.616H99.633C99.633 7.02746 99.547 7.54946 99.2723 8.08527C98.9957 8.62462 98.6121 9.01326 98.2468 9.26893L93.6591 2.71507ZM91.633 6.616C91.633 7.4666 91.857 8.37147 92.393 9.19469C92.9122 9.99205 93.5892 10.5069 94.1921 10.8299L97.9699 3.77808C98.2741 3.94107 98.7271 4.26128 99.097 4.82931C99.4837 5.4232 99.633 6.06407 99.633 6.616H91.633ZM94.2921 10.8817C94.9863 11.2288 95.7888 11.4671 96.4874 11.6447L98.4586 3.89132C98.2096 3.82803 98.0337 3.77587 97.9179 3.73727C97.7911 3.695 97.7919 3.68729 97.8699 3.72629L94.2921 10.8817ZM96.5029 11.6486C97.0338 11.7813 97.3622 11.8922 97.5388 11.9647L100.575 4.56333C99.9198 4.29443 99.1922 4.07469 98.4431 3.88743L96.5029 11.6486ZM97.5388 11.9647C97.4384 11.9235 97.3377 11.8672 97.2447 11.7977C97.1523 11.7288 97.0853 11.6603 97.0413 11.6068L103.217 6.52117C102.518 5.67263 101.63 4.99591 100.575 4.56333L97.5388 11.9647ZM97.1243 11.7045C96.9126 11.4636 96.7743 11.2035 96.695 10.9707C96.6192 10.7486 96.6105 10.5921 96.6097 10.5447L104.608 10.3993C104.585 9.11191 104.213 7.65196 103.134 6.42354L97.1243 11.7045ZM96.609 10.472C96.609 10.3481 96.6273 10.1847 96.6847 10.0018C96.7424 9.81788 96.826 9.65817 96.9163 9.53117L103.438 14.1648C104.222 13.0615 104.609 11.788 104.609 10.472H96.609ZM96.8758 9.58926C96.9768 9.44165 97.0884 9.32988 97.1864 9.25247C97.2812 9.17767 97.3456 9.14871 97.35 9.14674L100.572 16.4693C101.66 15.9906 102.706 15.2348 103.478 14.1067L96.8758 9.58926ZM97.3853 9.13142C97.464 9.09771 97.4084 9.144 97.121 9.144V17.144C98.2416 17.144 99.4127 16.9663 100.537 16.4846L97.3853 9.13142ZM105.056 5.976V1.976H101.056V5.976H105.056ZM105.264 10.92L102.435 13.7484L102.544 13.8571L102.661 13.957L105.264 10.92ZM107.04 11.112H111.04V7.112H107.04V11.112ZM107.04 13V17H111.04V13H107.04ZM102.8 5.976H106.8V1.976H102.8V5.976ZM101.744 5.976H97.7438V9.976H101.744V5.976ZM101.744 4.136V0.136H97.7438V4.136H101.744ZM102.8 4.136V8.136H106.8V4.136H102.8ZM102.8 1.944V-2.056H98.7998V1.944H102.8ZM105.056 1.944H109.056V-2.056H105.056V1.944ZM105.056 4.136H101.056V8.136H105.056V4.136ZM107.04 4.136H111.04V0.136H107.04V4.136ZM107.04 5.976V9.976H111.04V5.976H107.04ZM101.056 5.976V10.264H109.056V5.976H101.056ZM101.056 10.264C101.056 11.0786 101.233 12.5465 102.435 13.7484L108.092 8.09157C109.017 9.01613 109.056 10.0467 109.056 10.264H101.056ZM102.661 13.957C103.905 15.0236 105.342 15.112 106 15.112V7.112C106.061 7.112 106.271 7.11573 106.569 7.19353C106.87 7.27203 107.367 7.45463 107.867 7.88297L102.661 13.957ZM106 15.112H107.04V7.112H106V15.112ZM103.04 11.112V13H111.04V11.112H103.04ZM107.04 9H105.632V17H107.04V9ZM105.632 9C105.276 9 105.749 8.91263 106.295 9.44335C106.863 9.99473 106.8 10.5192 106.8 10.248H98.7998C98.7998 11.8115 99.2087 13.7119 100.72 15.1807C102.21 16.6287 104.099 17 105.632 17V9ZM106.8 10.248V5.976H98.7998V10.248H106.8ZM102.8 1.976H101.744V9.976H102.8V1.976ZM105.744 5.976V4.136H97.7438V5.976H105.744ZM101.744 8.136H102.8V0.136H101.744V8.136ZM106.8 4.136V1.944H98.7998V4.136H106.8ZM102.8 5.944H105.056V-2.056H102.8V5.944ZM101.056 1.944V4.136H109.056V1.944H101.056ZM105.056 8.136H107.04V0.136H105.056V8.136ZM103.04 4.136V5.976H111.04V4.136H103.04ZM107.04 1.976H105.056V9.976H107.04V1.976ZM114.703 5.416H110.703V17.9516L117.964 7.73283L114.703 5.416ZM115.887 4.408L117.766 7.93949L117.779 7.93238L117.793 7.92517L115.887 4.408ZM119.679 4.552L117.586 7.96068L117.599 7.96877L117.613 7.97675L119.679 4.552ZM121.135 6.152L117.569 7.96277L117.586 7.99585L117.603 8.02862L121.135 6.152ZM121.135 10.952L117.579 9.12017L117.574 9.13069L117.569 9.14123L121.135 10.952ZM119.679 12.568L117.57 9.16944L117.557 9.17769L117.543 9.18604L119.679 12.568ZM115.903 12.744L113.993 16.2585L114.009 16.2671L114.025 16.2755L115.903 12.744ZM114.703 11.736L117.883 9.30931L110.703 -0.0987144V11.736H114.703ZM114.703 17.224V21.224H118.703V17.224H114.703ZM112.463 17.224H108.463V21.224H112.463V17.224ZM112.463 4.136V0.136H108.463V4.136H112.463ZM114.703 4.136H118.703V0.136H114.703V4.136ZM119.055 7.16L115.537 9.06207L115.567 9.1193L115.6 9.17548L119.055 7.16ZM118.191 6.264L116.196 9.73049L116.218 9.74327L116.24 9.75577L118.191 6.264ZM115.887 6.28L117.883 9.74649L117.899 9.73719L117.915 9.72774L115.887 6.28ZM115.023 7.176L111.545 5.20158L111.524 5.23755L111.505 5.27393L115.023 7.176ZM115.023 9.96L111.505 11.8621L111.524 11.8985L111.545 11.9344L115.023 9.96ZM115.887 10.872L113.814 14.2928L113.875 14.3294L113.936 14.3638L115.887 10.872ZM118.191 10.856L116.163 7.40826L116.141 7.42159L116.118 7.43521L118.191 10.856ZM119.055 9.944L115.577 7.96958L115.556 8.00555L115.537 8.04193L119.055 9.944ZM117.964 7.73283C117.909 7.81101 117.852 7.86841 117.808 7.90573C117.766 7.9418 117.746 7.94994 117.766 7.93949L114.009 0.87651C113.037 1.39348 112.139 2.11936 111.443 3.09917L117.964 7.73283ZM117.793 7.92517C117.733 7.95766 117.676 7.97708 117.635 7.98684C117.597 7.99612 117.591 7.992 117.631 7.992V-0.00800037C116.395 -0.00800037 115.145 0.260812 113.982 0.890833L117.793 7.92517ZM117.631 7.992C117.656 7.992 117.669 7.99351 117.671 7.99381C117.673 7.99409 117.668 7.99348 117.656 7.99036C117.645 7.98721 117.631 7.98258 117.617 7.97648C117.603 7.9704 117.593 7.96457 117.586 7.96068L121.772 1.14332C120.496 0.359272 119.08 -0.00800037 117.631 -0.00800037V7.992ZM117.613 7.97675C117.604 7.97157 117.593 7.96368 117.58 7.95317C117.567 7.94265 117.556 7.93243 117.549 7.92416C117.542 7.91599 117.54 7.91276 117.543 7.91713C117.546 7.92167 117.555 7.93589 117.569 7.96277L124.702 4.34123C124.038 3.03298 123.055 1.91709 121.746 1.12725L117.613 7.97675ZM117.603 8.02862C117.61 8.04103 117.679 8.17043 117.679 8.536H125.679C125.679 7.08823 125.387 5.6283 124.668 4.27538L117.603 8.02862ZM117.679 8.536C117.679 8.8983 117.611 9.05987 117.579 9.12017L124.691 12.7838C125.386 11.4361 125.679 9.98704 125.679 8.536H117.679ZM117.569 9.14123C117.554 9.16994 117.543 9.1868 117.538 9.19454C117.533 9.20213 117.532 9.20266 117.536 9.19852C117.539 9.19429 117.546 9.18822 117.553 9.18176C117.561 9.17532 117.567 9.17119 117.57 9.16944L121.789 15.9666C123.072 15.1702 124.042 14.0626 124.702 12.7628L117.569 9.14123ZM117.543 9.18604C117.55 9.18159 117.563 9.17465 117.579 9.16725C117.596 9.15982 117.613 9.15379 117.628 9.1494C117.644 9.14503 117.654 9.14345 117.657 9.14309C117.659 9.14275 117.651 9.144 117.631 9.144V17.144C119.103 17.144 120.533 16.7596 121.815 15.95L117.543 9.18604ZM117.631 9.144C117.58 9.144 117.578 9.13878 117.613 9.14704C117.651 9.15583 117.712 9.17532 117.782 9.21251L114.025 16.2755C115.184 16.8921 116.422 17.144 117.631 17.144V9.144ZM117.813 9.2295C117.787 9.2154 117.789 9.2134 117.808 9.22918C117.828 9.24562 117.855 9.27259 117.883 9.30931L111.524 14.1627C112.206 15.0572 113.055 15.7486 113.993 16.2585L117.813 9.2295ZM110.703 11.736V17.224H118.703V11.736H110.703ZM114.703 13.224H112.463V21.224H114.703V13.224ZM116.463 17.224V4.136H108.463V17.224H116.463ZM112.463 8.136H114.703V0.136H112.463V8.136ZM110.703 4.136V5.416H118.703V4.136H110.703ZM123.391 8.536C123.391 7.43615 123.157 6.25203 122.51 5.14452L115.6 9.17548C115.402 8.83597 115.391 8.56918 115.391 8.536H123.391ZM122.574 5.25793C122.03 4.2509 121.221 3.37494 120.143 2.77223L116.24 9.75577C116.079 9.6658 115.929 9.55026 115.8 9.41654C115.673 9.28445 115.588 9.1581 115.537 9.06207L122.574 5.25793ZM120.187 2.79751C119.213 2.23656 118.138 1.96 117.039 1.96V9.96C116.919 9.96 116.775 9.94491 116.619 9.9036C116.462 9.86215 116.318 9.80128 116.196 9.73049L120.187 2.79751ZM117.039 1.96C115.893 1.96 114.812 2.27172 113.859 2.83226L117.915 9.72774C117.813 9.78778 117.68 9.84916 117.518 9.89407C117.355 9.93923 117.192 9.96 117.039 9.96V1.96ZM113.892 2.81351C112.851 3.4128 112.079 4.26073 111.545 5.20158L118.502 9.15042C118.416 9.30194 118.22 9.55254 117.883 9.74649L113.892 2.81351ZM111.505 5.27393C110.921 6.35387 110.703 7.49572 110.703 8.568H118.703C118.703 8.57362 118.699 8.78747 118.542 9.07807L111.505 5.27393ZM110.703 8.568C110.703 9.64028 110.921 10.7821 111.505 11.8621L118.542 8.05793C118.699 8.34853 118.703 8.56238 118.703 8.568H110.703ZM111.545 11.9344C112.071 12.861 112.819 13.6899 113.814 14.2928L117.961 7.45121C118.251 7.62744 118.424 7.84836 118.502 7.98558L111.545 11.9344ZM113.936 14.3638C114.88 14.891 115.933 15.176 117.039 15.176V7.176C117.174 7.176 117.32 7.19336 117.468 7.2324C117.615 7.2713 117.74 7.32526 117.839 7.38023L113.936 14.3638ZM117.039 15.176C118.178 15.176 119.28 14.8733 120.265 14.2768L116.118 7.43521C116.245 7.35853 116.397 7.28967 116.569 7.24193C116.74 7.19426 116.901 7.176 117.039 7.176V15.176ZM120.219 14.3037C121.253 13.696 122.038 12.838 122.574 11.8461L115.537 8.04193C115.585 7.95246 115.662 7.83726 115.776 7.71702C115.891 7.59557 116.023 7.49075 116.163 7.40826L120.219 14.3037ZM122.534 11.9184C123.162 10.8125 123.391 9.63461 123.391 8.536H115.391C115.391 8.52539 115.397 8.28615 115.577 7.96958L122.534 11.9184ZM125.547 5.512H121.547V19.6785L128.956 7.60406L125.547 5.512ZM126.667 4.408L124.691 0.930175L124.674 0.939987L124.657 0.94997L126.667 4.408ZM128.267 4.008H132.267V0.00799942H128.267V4.008ZM128.267 6.36V10.36H132.267V6.36H128.267ZM126.075 6.856L123.38 3.90018L123.358 3.92023L123.336 3.94061L126.075 6.856ZM125.547 13V17H129.547V13H125.547ZM123.307 13H119.307V17H123.307V13ZM123.307 4.136V0.136H119.307V4.136H123.307ZM125.547 4.136H129.547V0.136H125.547V4.136ZM128.956 7.60406C128.94 7.63111 128.906 7.67857 128.851 7.7327C128.796 7.78735 128.735 7.8326 128.678 7.86603L124.657 0.94997C123.604 1.56207 122.758 2.40875 122.138 3.41993L128.956 7.60406ZM128.643 7.88583C128.557 7.93505 128.468 7.96887 128.389 7.98857C128.352 7.99794 128.321 8.00291 128.3 8.00547C128.278 8.00802 128.267 8.008 128.267 8.008V0.00799942C127.053 0.00799942 125.825 0.285756 124.691 0.930175L128.643 7.88583ZM124.267 4.008V6.36H132.267V4.008H124.267ZM128.267 2.36H127.675V10.36H128.267V2.36ZM127.675 2.36C126.404 2.36 124.745 2.6556 123.38 3.90018L128.77 9.81182C128.13 10.3951 127.539 10.36 127.675 10.36V2.36ZM123.336 3.94061C121.768 5.41372 121.547 7.39042 121.547 8.584H129.547C129.547 8.43602 129.566 8.50467 129.505 8.70487C129.438 8.92099 129.257 9.35481 128.814 9.77139L123.336 3.94061ZM121.547 8.584V13H129.547V8.584H121.547ZM125.547 9H123.307V17H125.547V9ZM127.307 13V4.136H119.307V13H127.307ZM123.307 8.136H125.547V0.136H123.307V8.136ZM121.547 4.136V5.512H129.547V4.136H121.547ZM129.92 2.712L127.091 5.54042L127.15 5.59933L127.212 5.65572L129.92 2.712ZM129.92 0.839999L132.688 3.72795L132.69 3.72555L129.92 0.839999ZM131.888 0.839999L129.059 3.66843L129.118 3.72733L129.18 3.78372L131.888 0.839999ZM131.888 2.712L134.656 5.59995L134.658 5.59755L131.888 2.712ZM132.016 4.136H136.016V0.136H132.016V4.136ZM132.016 13V17H136.016V13H132.016ZM129.776 13H125.776V17H129.776V13ZM129.776 4.136V0.136H125.776V4.136H129.776ZM130.912 -0.92C131.133 -0.92 131.429 -0.88457 131.759 -0.762265C132.094 -0.63786 132.39 -0.451048 132.628 -0.231724L127.212 5.65572C128.285 6.64347 129.611 7.08 130.912 7.08V-0.92ZM132.748 -0.116425C132.973 0.107909 133.187 0.407713 133.337 0.776807C133.486 1.14346 133.536 1.48926 133.536 1.768H125.536C125.536 3.16519 126.06 4.50851 127.091 5.54042L132.748 -0.116425ZM133.536 1.768C133.536 2.04569 133.486 2.40225 133.328 2.78541C133.168 3.17301 132.936 3.49011 132.688 3.72795L127.152 -2.04795C126.064 -1.00463 125.536 0.368863 125.536 1.768H133.536ZM132.69 3.72555C132.458 3.9482 132.161 4.1471 131.812 4.28227C131.467 4.4156 131.153 4.456 130.912 4.456V-3.544C129.562 -3.544 128.215 -3.06821 127.15 -2.04555L132.69 3.72555ZM130.912 4.456C130.672 4.456 130.347 4.41591 129.987 4.27426C129.621 4.12995 129.306 3.91474 129.059 3.66843L134.716 -1.98843C133.639 -3.0659 132.262 -3.544 130.912 -3.544V4.456ZM129.18 3.78372C128.931 3.55501 128.687 3.23913 128.515 2.83932C128.343 2.4423 128.288 2.06663 128.288 1.768H136.288C136.288 0.314389 135.714 -1.07533 134.596 -2.10372L129.18 3.78372ZM128.288 1.768C128.288 1.46838 128.344 1.10373 128.505 0.723403C128.666 0.342227 128.892 0.0427465 129.118 -0.173547L134.658 5.59755C135.719 4.57881 136.288 3.21826 136.288 1.768H128.288ZM129.12 -0.175953C129.374 -0.419262 129.688 -0.621807 130.041 -0.754789C130.386 -0.884889 130.692 -0.92 130.912 -0.92V7.08C132.211 7.08 133.568 6.64212 134.656 5.59995L129.12 -0.175953ZM128.016 4.136V13H136.016V4.136H128.016ZM132.016 9H129.776V17H132.016V9ZM133.776 13V4.136H125.776V13H133.776ZM129.776 8.136H132.016V0.136H129.776V8.136ZM134.213 6.168L137.722 8.08725L137.729 8.07584L137.735 8.0644L134.213 6.168ZM135.765 4.568L137.731 8.0513L137.753 8.03935L137.774 8.02715L135.765 4.568ZM140.757 4.824L138.305 7.98395L138.331 8.00419L138.357 8.024L140.757 4.824ZM142.213 7.128V11.128H147.323L146.096 6.16768L142.213 7.128ZM139.797 7.128L136.002 8.39291L136.914 11.128H139.797V7.128ZM139.141 6.232L136.741 9.432L136.805 9.47971L136.87 9.52485L139.141 6.232ZM136.501 6.6L139.603 9.12509L139.617 9.10767L139.631 9.09009L136.501 6.6ZM136.501 10.536L133.371 13.0261L133.385 13.0437L133.399 13.0611L136.501 10.536ZM139.797 10.008V6.008H136.938L136.012 8.71325L139.797 10.008ZM142.213 10.008L146.088 10.9984L147.364 6.008H142.213V10.008ZM140.757 12.296L143.216 15.4509L140.757 12.296ZM135.765 12.584L133.756 16.0432L133.777 16.0554L133.799 16.0673L135.765 12.584ZM134.213 10.984L130.691 12.8804L130.697 12.8918L130.704 12.9032L134.213 10.984ZM137.653 8.568C137.653 8.38031 137.672 8.25869 137.688 8.18892C137.704 8.12194 137.719 8.09358 137.722 8.08725L130.704 4.24875C129.955 5.61712 129.653 7.10018 129.653 8.568H137.653ZM137.735 8.0644C137.747 8.04244 137.755 8.0313 137.757 8.02818C137.759 8.0252 137.757 8.02756 137.752 8.03303C137.747 8.03856 137.741 8.04404 137.735 8.0485C137.729 8.05291 137.727 8.05365 137.731 8.0513L133.799 1.0847C132.454 1.84364 131.409 2.93884 130.691 4.2716L137.735 8.0644ZM137.774 8.02715C137.776 8.02546 137.785 8.02016 137.812 8.01334C137.841 8.0059 137.912 7.992 138.037 7.992V-0.00800037C136.562 -0.00800037 135.096 0.330822 133.756 1.10884L137.774 8.02715ZM138.037 7.992C138.251 7.992 138.351 8.01908 138.371 8.02506C138.381 8.028 138.375 8.02704 138.359 8.01878C138.342 8.01036 138.323 7.99845 138.305 7.98395L143.21 1.66405C141.653 0.45583 139.828 -0.00800037 138.037 -0.00800037V7.992ZM138.357 8.024C138.347 8.01656 138.332 8.00392 138.316 7.98662C138.3 7.96933 138.289 7.95411 138.284 7.94485C138.278 7.93596 138.281 7.9391 138.29 7.95969C138.298 7.98075 138.314 8.02194 138.33 8.08832L146.096 6.16768C145.659 4.40102 144.714 2.79147 143.157 1.624L138.357 8.024ZM142.213 3.128H139.797V11.128H142.213V3.128ZM143.592 5.86309C143.212 4.7232 142.492 3.68417 141.412 2.93915L136.87 9.52485C136.662 9.3812 136.469 9.19647 136.31 8.97896C136.152 8.76413 136.057 8.55754 136.002 8.39291L143.592 5.86309ZM141.541 3.032C140.42 2.19119 139.156 1.896 138.021 1.896V9.896C137.782 9.896 137.265 9.82481 136.741 9.432L141.541 3.032ZM138.021 1.896C136.256 1.896 134.56 2.6151 133.371 4.10991L139.631 9.09009C139.46 9.30603 139.195 9.53801 138.842 9.7016C138.497 9.86154 138.197 9.896 138.021 9.896V1.896ZM133.399 4.07491C132.236 5.50382 131.941 7.19186 131.941 8.568H139.941C139.941 8.42308 139.958 8.42656 139.928 8.53075C139.896 8.64572 139.808 8.87351 139.603 9.12509L133.399 4.07491ZM131.941 8.568C131.941 9.95549 132.245 11.6111 133.371 13.0261L139.631 8.04591C140.01 8.52218 139.941 8.86584 139.941 8.568H131.941ZM133.399 13.0611C134.6 14.5372 136.291 15.224 138.021 15.224V7.224C138.184 7.224 138.473 7.25517 138.81 7.40791C139.157 7.5648 139.424 7.79098 139.603 8.01091L133.399 13.0611ZM138.021 15.224C139.068 15.224 140.287 14.9859 141.405 14.2205C142.542 13.4419 143.22 12.3605 143.582 11.3027L136.012 8.71325C136.097 8.46618 136.34 7.99277 136.885 7.6195C137.411 7.25946 137.881 7.224 138.021 7.224V15.224ZM139.797 14.008H142.213V6.008H139.797V14.008ZM138.338 9.01761C138.323 9.07391 138.31 9.10966 138.302 9.12909C138.293 9.14815 138.289 9.15458 138.29 9.1525C138.292 9.15021 138.295 9.14527 138.3 9.14018C138.305 9.13516 138.305 9.13553 138.298 9.14109L143.216 15.4509C144.696 14.2976 145.642 12.746 146.088 10.9984L138.338 9.01761ZM138.298 9.14109C138.309 9.13245 138.322 9.12406 138.335 9.11756C138.347 9.11118 138.351 9.1106 138.342 9.11328C138.326 9.11842 138.235 9.144 138.037 9.144V17.144C139.847 17.144 141.665 16.6596 143.216 15.4509L138.298 9.14109ZM138.037 9.144C137.903 9.144 137.824 9.12951 137.786 9.12023C137.751 9.11154 137.737 9.10383 137.731 9.1007L133.799 16.0673C135.131 16.8196 136.581 17.144 138.037 17.144V9.144ZM137.774 9.12484C137.761 9.11728 137.754 9.11257 137.753 9.11136C137.751 9.11021 137.751 9.11028 137.752 9.11097C137.753 9.11163 137.751 9.11002 137.747 9.10439C137.743 9.09864 137.734 9.08623 137.722 9.06475L130.704 12.9032C131.421 14.2148 132.452 15.2858 133.756 16.0432L137.774 9.12484ZM137.735 9.0876C137.724 9.06656 137.653 8.93302 137.653 8.568H129.653C129.653 10.0376 129.956 11.5148 130.691 12.8804L137.735 9.0876ZM152.03 9.24V13.24H155.419L155.976 9.8976L152.03 9.24ZM145.55 9.24V5.24H141.203L141.564 9.57218L145.55 9.24ZM146.222 10.744L143.516 13.6893L146.222 10.744ZM149.454 10.216V6.216H146.965L145.866 8.4486L149.454 10.216ZM151.87 10.216L155.701 11.3654L157.246 6.216H151.87V10.216ZM150.398 12.328L152.798 15.528L152.813 15.5168L152.828 15.5054L150.398 12.328ZM145.422 12.584L143.437 16.057L143.47 16.0755L143.503 16.0935L145.422 12.584ZM143.838 10.968L140.316 12.8644L140.327 12.8853L140.339 12.906L143.838 10.968ZM143.838 6.152L140.316 4.2556V4.2556L143.838 6.152ZM145.406 4.552L147.349 8.04863V8.04863L145.406 4.552ZM149.982 4.536L148.059 8.04325L148.07 8.04971L148.082 8.05609L149.982 4.536ZM151.534 6.088L148.014 7.98773L148.032 8.02123L148.051 8.05438L151.534 6.088ZM149.774 7.736V11.736H153.849L153.773 7.66194L149.774 7.736ZM149.15 6.36L146.527 9.38013L146.55 9.40006L146.573 9.41964L149.15 6.36ZM146.254 6.344L148.906 9.33836L148.911 9.33364L146.254 6.344ZM145.566 7.736L141.606 7.17031L140.954 11.736H145.566V7.736ZM148.094 8.376C148.094 8.5243 148.084 8.58693 148.084 8.5824L155.976 9.8976C156.062 9.38107 156.094 8.8677 156.094 8.376H148.094ZM152.03 5.24H145.55V13.24H152.03V5.24ZM141.564 9.57218C141.683 11.0032 142.24 12.517 143.516 13.6893L148.928 7.79869C149.143 7.99534 149.305 8.22968 149.41 8.46424C149.51 8.68797 149.532 8.85339 149.536 8.90782L141.564 9.57218ZM143.516 13.6893C144.706 14.7836 146.181 15.288 147.678 15.288V7.288C147.815 7.288 148.03 7.31069 148.282 7.40499C148.539 7.50108 148.759 7.64335 148.928 7.79869L143.516 13.6893ZM147.678 15.288C148.674 15.288 149.777 15.0697 150.813 14.4445C151.859 13.813 152.581 12.9204 153.042 11.9834L145.866 8.4486C145.975 8.22627 146.225 7.86964 146.679 7.59548C147.123 7.3276 147.514 7.288 147.678 7.288V15.288ZM149.454 14.216H151.87V6.216H149.454V14.216ZM148.039 9.06661C148.032 9.08738 148.028 9.09703 148.027 9.09868C148.026 9.10017 148.027 9.09883 148.028 9.09683C148.03 9.09489 148.028 9.0974 148.021 9.10475C148.014 9.1123 147.998 9.12804 147.968 9.15057L152.828 15.5054C154.204 14.4528 155.197 13.0467 155.701 11.3654L148.039 9.06661ZM147.998 9.128C148.017 9.11404 148.032 9.11019 148.018 9.11442C147.998 9.12049 147.91 9.144 147.726 9.144V17.144C149.5 17.144 151.271 16.6736 152.798 15.528L147.998 9.128ZM147.726 9.144C147.477 9.144 147.38 9.09559 147.341 9.07452L143.503 16.0935C144.83 16.8191 146.268 17.144 147.726 17.144V9.144ZM147.407 9.11103C147.393 9.10321 147.386 9.09799 147.383 9.09598C147.381 9.09402 147.379 9.09293 147.379 9.092C147.378 9.09104 147.374 9.08735 147.368 9.07909C147.362 9.07071 147.351 9.05517 147.337 9.03L140.339 12.906C141.069 14.2238 142.114 15.3005 143.437 16.057L147.407 9.11103ZM147.36 9.0716C147.345 9.04398 147.278 8.9137 147.278 8.568H139.278C139.278 10.0356 139.584 11.5054 140.316 12.8644L147.36 9.0716ZM147.278 8.568C147.278 8.20298 147.349 8.06944 147.36 8.0484L140.316 4.2556C139.581 5.62122 139.278 7.09836 139.278 8.568H147.278ZM147.36 8.0484C147.37 8.02999 147.376 8.02192 147.376 8.02136C147.376 8.02095 147.373 8.02511 147.367 8.03171C147.36 8.03836 147.354 8.04414 147.348 8.04829C147.343 8.05238 147.342 8.05223 147.349 8.04863L143.463 1.05537C142.106 1.8096 141.043 2.90617 140.316 4.2556L147.36 8.0484ZM147.349 8.04863C147.358 8.04326 147.38 8.03195 147.429 8.02033C147.479 8.00812 147.574 7.992 147.726 7.992V-0.00800037C146.267 -0.00800037 144.807 0.308666 143.463 1.05537L147.349 8.04863ZM147.726 7.992C147.977 7.992 148.053 8.04037 148.059 8.04325L151.905 1.02875C150.588 0.306294 149.161 -0.00800037 147.726 -0.00800037V7.992ZM148.082 8.05609C148.089 8.05961 148.086 8.05883 148.078 8.0525C148.069 8.04608 148.058 8.0366 148.046 8.02443C148.033 8.01225 148.024 8.00087 148.018 7.99218C148.011 7.98363 148.01 7.9812 148.014 7.98773L155.054 4.18827C154.321 2.82969 153.24 1.74911 151.882 1.01591L148.082 8.05609ZM148.051 8.05438C148.052 8.05586 148.059 8.06877 148.069 8.10695C148.079 8.14768 148.094 8.23273 148.094 8.376H156.094C156.094 6.9193 155.774 5.46162 155.017 4.12162L148.051 8.05438ZM153.773 7.66194C153.743 6.04544 153.098 4.45508 151.727 3.30035L146.573 9.41964C146.345 9.22694 146.122 8.95378 145.967 8.61202C145.816 8.27871 145.778 7.98884 145.775 7.81006L153.773 7.66194ZM151.773 3.33987C150.57 2.29548 149.116 1.832 147.662 1.832V9.832C147.551 9.832 147.364 9.81456 147.136 9.73371C146.903 9.65102 146.695 9.52544 146.527 9.38013L151.773 3.33987ZM147.662 1.832C146.212 1.832 144.774 2.30808 143.597 3.35436L148.911 9.33364C148.737 9.48884 148.515 9.62681 148.261 9.71917C148.012 9.80981 147.8 9.832 147.662 9.832V1.832ZM143.602 3.34965C142.377 4.43433 141.796 5.83941 141.606 7.17031L149.526 8.30169C149.518 8.35455 149.489 8.50747 149.388 8.71235C149.282 8.92637 149.122 9.1476 148.906 9.33835L143.602 3.34965ZM145.566 11.736H149.774V3.736H145.566V11.736Z" fill="#55CD00" mask="url(#path-1-outside-1_90_907)"/>
</svg>
