<svg width="20" height="18" viewBox="0 0 20 18" fill="none" xmlns="http://www.w3.org/2000/svg">
<path d="M10 14.5C11.25 14.5 12.3127 14.0627 13.188 13.188C14.0627 12.3127 14.5 11.25 14.5 10C14.5 8.75 14.0627 7.68733 13.188 6.812C12.3127 5.93733 11.25 5.5 10 5.5C8.75 5.5 7.68733 5.93733 6.812 6.812C5.93733 7.68733 5.5 8.75 5.5 10C5.5 11.25 5.93733 12.3127 6.812 13.188C7.68733 14.0627 8.75 14.5 10 14.5ZM10 13.5L8.9 11.1L6.5 10L8.9 8.9L10 6.5L11.1 8.9L13.5 10L11.1 11.1L10 13.5ZM2 18C1.45 18 0.979333 17.8043 0.588 17.413C0.196 17.021 0 16.55 0 16V4C0 3.45 0.196 2.97933 0.588 2.588C0.979333 2.196 1.45 2 2 2H5.15L7 0H13L14.85 2H18C18.55 2 19.021 2.196 19.413 2.588C19.8043 2.97933 20 3.45 20 4V16C20 16.55 19.8043 17.021 19.413 17.413C19.021 17.8043 18.55 18 18 18H2ZM18 16V4H13.95L12.125 2H7.875L6.05 4H2V16H18Z" fill="white"/>
</svg>
