<svg width="167" height="198" viewBox="0 0 167 198" fill="none" xmlns="http://www.w3.org/2000/svg">
<g clip-path="url(#clip0_3804_339)">
<rect width="167" height="198" rx="17.72" fill="white"/>
<rect x="0.444471" y="0.553846" width="165.046" height="201.6" rx="17.1692" fill="#FFDDF5" stroke="#FF23BD" stroke-width="1.10769"/>
<path d="M29.3198 55.2517L25.3691 59.3233L49.9295 82.3316C49.9295 82.3316 106.014 69.5123 106.014 69.0285C106.014 68.5448 106.256 59.9179 106.256 59.9179C106.256 59.9179 105.51 58.9302 105.017 58.4062C104.523 57.8821 101.902 55.544 101.902 55.544L29.3198 55.2517Z" fill="#AC5811"/>
<path d="M40.5654 44.5785L41.9461 52.5906L84.4859 57.0955L99.2504 46.584L73.2286 41.8271L40.5654 44.5785Z" fill="#8A460A"/>
<path d="M33.9164 58.5579C33.9164 58.5579 27.4966 57.1571 25.1081 54.1437C23.6972 52.3599 23.6165 49.7799 24.8965 47.4317C26.6501 44.2369 31.5581 42.7353 33.7551 42.2818C35.9522 41.8282 47.4614 37.8877 67.6882 38.4924C87.915 39.0971 107.991 43.5718 107.608 50.6869C107.225 57.8021 98.9707 57.7315 98.9707 57.7315L97.7613 45.537L86.756 45.6579C86.756 45.6579 74.7328 44.3377 66.5594 44.0253C57.0154 43.6725 50.1119 44.5493 50.1119 44.5493L36.7786 46.8975L33.9164 58.5579Z" fill="#E17F13"/>
<path d="M71.1846 53.3974C71.4869 53.0951 93.9107 30.2177 93.9107 30.2177C93.9107 30.2177 93.5882 26.8416 93.9914 25.1384C94.6767 22.256 97.8513 18.3961 100.582 18.6279C103.314 18.8597 110.963 27.033 110.58 29.2301C110.197 31.4271 107.929 34.0071 105.652 34.8335C103.384 35.67 101.036 35.4382 101.036 35.4382L82.0891 54.3851L71.1846 53.3974Z" fill="#AE5614"/>
<path d="M96.4888 29.9159C98.1718 30.309 102.022 27.0336 102.475 26.2777C102.929 25.5219 101.336 24.383 100.812 23.093C100.288 21.803 100.278 20.7448 99.2199 20.9766C98.1617 21.2084 96.3477 23.1938 95.8841 24.8366C95.1988 27.2654 95.5011 29.6942 96.4888 29.9159Z" fill="#DF8116"/>
<path d="M25.571 59.0112C25.571 59.0112 17.4883 67.4668 17.9721 79.7117C18.4659 91.9566 23.4848 106.419 27.5261 113.887C31.5674 121.355 37.2011 132.138 39.4082 133.61C41.6153 135.081 48.1661 139.465 63.5353 139.737C81.696 140.06 90.1919 135.696 92.268 133.861C94.3542 132.027 99.5444 124.186 104.321 111.931C109.098 99.6765 112.525 89.0239 112.404 77.6356C112.283 66.2473 106.226 59.9384 106.226 59.9384C106.226 59.9384 90.9074 68.5351 65.0671 67.9203C39.2268 67.3055 25.571 59.0112 25.571 59.0112Z" fill="#E07F14"/>
<path d="M64.5393 128.5C88.4245 128.923 99.9034 122.12 99.9034 122.12C99.9034 122.12 102.272 116.96 103.693 113.574C105.164 110.037 107.119 104.494 107.119 104.494C107.119 104.494 97.8374 112.818 64.499 112.959C37.7718 113.07 23.1484 103.939 23.1484 103.939C23.1484 103.939 25.547 110.228 27.603 114.128C30.5055 119.631 32.3699 122.876 32.3699 122.876C32.3699 122.876 44.2016 128.147 64.5393 128.5Z" fill="#AC5811"/>
<path d="M51.8767 43.7126C52.0883 41.9691 51.141 36.023 39.2186 36.7184C26.379 37.4642 27.3364 47.4617 27.9512 49.3866C29.4529 54.1435 32.2042 55.4738 32.3654 57.9731C32.5368 60.4725 30.4506 66.3078 30.0273 76.4867C29.604 86.6656 30.6018 91.4124 30.9444 92.8233C31.5894 95.4638 33.5244 97.1569 35.6106 95.8266C37.6968 94.4963 36.699 90.5759 36.4471 88.2378C36.1951 85.8996 36.3967 75.2974 37.1525 71.2964C37.8983 67.2954 38.8154 64.7255 41.2342 65.4007C43.6529 66.076 42.8769 69.4824 42.7056 72.3143C42.5343 75.1463 42.4536 80.5683 42.7862 83.239C43.1188 85.9097 44.5197 87.5323 46.7671 87.4013C49.7804 87.2299 50.4557 84.8213 50.6169 80.8203C50.7882 76.8192 50.5363 74.0679 51.2015 70.1475C51.8666 66.2271 53.7815 64.2317 55.2831 63.4758C56.7847 62.73 60.2012 62.1455 65.3713 62.3067C70.5414 62.468 74.623 62.8106 76.2053 65.0581C77.7875 67.3055 78.2915 72.7275 81.204 74.8943C84.1267 77.0611 87.4525 74.8943 88.5409 77.2324C89.6293 79.5706 90.2945 85.0732 90.3751 91.493C90.4557 97.9128 89.71 106.247 89.2061 109.835C88.7022 113.423 87.4726 118.502 89.1254 121.092C90.4054 123.088 93.2071 122.675 94.4568 120.175C95.7065 117.676 96.4623 112.173 97.0368 105.834C97.6213 99.495 97.8733 79.4899 98.1252 77.0712C98.3772 74.6524 100.161 69.2002 102.711 61.2284C105.482 52.5511 108.637 45.5569 102.197 41.6365C98.7601 39.5403 96.6135 39.8527 96.6135 39.8527L90.3147 46.1616C90.3147 46.1616 93.9025 46.7461 93.8722 48.1268C93.8319 50.5254 78.5333 52.662 68.0218 52.8333C57.5104 53.0046 42.887 50.9588 42.887 48.2881C42.887 45.6174 51.4534 47.1291 51.8767 43.7126Z" fill="#FFB803"/>
<path d="M95.2782 43.1989C94.4921 44.8518 96.2659 45.1743 96.4775 46.4139C96.6791 47.6535 95.9837 49.5885 96.8101 49.79C97.6365 49.9916 101.013 48.8427 100.267 45.2549C99.5211 41.6671 95.7922 42.1004 95.2782 43.1989ZM80.5641 63.1335C79.5261 63.3854 79.5664 66.5802 81.0177 69.4827C82.6201 72.6976 85.2605 72.7379 85.8753 71.6696C86.4901 70.6014 84.807 69.4827 83.6884 67.5074C82.0456 64.5746 81.5921 62.8916 80.5641 63.1335ZM41.1385 52.501C40.3323 53.8414 42.0455 55.9982 46.621 57.3184C51.1965 58.6386 53.585 57.7316 53.7059 56.0385C53.8067 54.6578 49.8762 54.3453 47.4474 53.65C45.0085 52.9546 42.2471 50.6467 41.1385 52.501ZM37.5104 38.5731C36.2708 37.8878 31.9473 38.2405 31.4938 42.0702C31.141 45.0332 34.9203 49.6792 37.1375 48.2884C38.4577 47.462 36.1498 45.0735 36.8049 43.0982C37.3391 41.5159 39.2438 39.5204 37.5104 38.5731Z" fill="white"/>
<path d="M44.6777 80.055C43.3776 80.2868 43.5489 82.9776 43.8412 83.9552C44.1334 84.9328 44.7583 86.505 46.2902 86.1119C47.4592 85.8096 47.308 83.8846 47.0561 82.7559C46.7941 81.6171 46.1289 79.7929 44.6777 80.055ZM32.6343 89.7501C31.3443 89.9214 31.3846 91.2316 31.7676 92.8441C32.0397 94.0031 32.9568 95.3334 34.0553 95.0411C35.1538 94.7489 34.9321 93.2472 34.6096 92.1487C34.3173 91.1913 33.9848 89.5687 32.6343 89.7501Z" fill="#FFFCFF"/>
<path d="M91.2464 113.704C89.8757 113.775 89.9765 115.518 89.9261 117.242C89.8757 118.965 89.8455 120.225 91.0952 120.225C92.355 120.225 92.2945 117.937 92.3247 116.879C92.355 115.821 92.7077 113.634 91.2464 113.704Z" fill="white"/>
<path d="M150.819 36.5297C150.819 36.5297 150.379 35.7197 148.529 36.0497C146.489 36.4097 142.119 39.7197 140.729 47.8897C139.339 56.0597 137.969 81.3097 138.919 82.9597C140.669 86.0297 144.259 88.4797 144.339 90.2097C144.399 91.5097 143.999 121.57 143.719 123.72C143.439 125.86 141.899 131.71 141.699 133.2C141.509 134.66 142.369 135.8 143.279 135.88C144.769 136.02 149.249 136.06 149.249 136.06L150.819 36.5297ZM51.6387 72.9497C51.6387 72.9497 51.1887 52.8597 51.1487 51.9197C51.1087 51.1497 50.6487 50.1197 49.4587 50.2297C48.7687 50.2997 48.5387 51.0497 48.5387 51.7597C48.5387 52.9897 48.4087 68.4897 48.4287 69.6497C48.4487 71.3298 46.5387 70.9597 46.5787 69.7297C46.6187 68.4997 46.5387 52.7097 46.4787 51.6397C46.4287 50.8297 46.0187 50.2597 45.3487 50.2597C44.6887 50.2597 44.1387 50.7297 44.0287 51.5997C43.7787 53.4497 43.8387 68.7197 43.7987 69.8397C43.7487 71.2197 42.0987 71.1697 42.0987 69.6897C42.0987 68.2097 42.0587 52.7797 42.0587 51.5497C42.0587 50.8997 41.8487 50.1097 40.9687 50.1497C40.1187 50.1897 39.8587 50.9097 39.8187 51.4497C39.7387 52.5997 39.1487 68.4198 39.0987 69.4497C38.9987 71.0697 37.3287 71.1297 37.3287 69.3697C37.3287 67.5997 37.7387 52.9597 37.7787 51.7297C37.8087 50.9597 37.5087 50.0797 36.7087 50.1197C35.9087 50.1597 35.4487 50.5397 35.1387 51.7697C34.8187 53.0597 34.4787 60.5397 34.1287 64.8597C33.9487 67.1197 32.8887 76.7397 34.0287 79.2697C35.6787 82.9097 38.9087 83.5697 38.9087 83.5697C38.9087 83.5697 38.3387 119.27 38.0187 121.61C37.5587 124.99 35.6587 129.81 35.8587 132.27C35.9687 133.63 36.8287 134.4 38.2487 134.47C39.6687 134.54 42.5087 134.91 43.3087 134.69C43.6587 134.6 43.7987 112.5 43.7987 112.5L44.1487 77.7797L51.6387 72.9497Z" fill="#9C9C9C"/>
<path d="M36.121 75.0293L51.581 76.8793C51.581 76.8793 51.541 79.7893 50.271 81.4093C48.671 83.4393 46.821 83.6693 46.821 83.6693C46.821 83.6693 46.611 120.599 46.941 123.179C47.281 125.749 49.461 132.059 48.761 133.409C48.141 134.599 46.631 134.899 43.361 134.789C39.921 134.679 38.941 134.759 38.811 132.429C38.681 130.099 40.771 125.819 40.871 122.849C40.971 119.879 41.341 82.1393 41.341 82.1393C41.341 82.1393 37.601 81.6993 36.211 78.4993C35.141 75.9993 36.121 75.0293 36.121 75.0293ZM148.421 86.1993L143.391 85.1093C143.391 85.1093 146.771 87.9493 146.831 90.1393C146.901 92.3293 147.021 123.249 146.691 125.109C146.361 126.969 143.711 134.069 144.921 135.349C145.751 136.219 148.481 136.039 150.001 136.039C151.521 136.039 152.781 135.969 153.451 135.049C154.111 134.119 153.811 131.639 153.461 129.779C153.061 127.619 152.591 125.669 152.591 124.719C152.591 122.999 151.461 82.8993 151.461 82.8993L148.421 86.1993Z" fill="#C8C8C8"/>
<path d="M150.29 36.3306C148.9 36.3706 145.56 37.8406 143.78 44.3006C142.39 49.3406 142.06 55.3906 141.72 66.1206C141.31 79.0306 141.85 83.0906 142.25 83.4206C142.65 83.7506 148.88 86.3406 148.88 86.3406L151.46 82.8906C151.46 82.8906 151.06 41.0706 151.06 39.3506C151.06 37.6306 151.31 36.3006 150.29 36.3306ZM35.6897 73.0506C35.6897 73.0506 35.6497 76.0306 35.6897 76.3106C35.7297 76.5906 42.0297 77.1206 44.5097 77.1606C46.9897 77.2006 51.5997 76.9106 51.5997 76.9106C51.5997 76.9106 51.6797 75.9106 51.6797 74.7606C51.6797 73.7606 51.6497 72.9306 51.6497 72.9306L35.6897 73.0506Z" fill="#E0E0E0"/>
<path d="M37.1089 79.1208C39.1089 79.5908 43.4589 77.7508 42.8189 77.0308C42.1289 76.2508 35.7689 75.6208 35.6889 76.2208C35.6089 76.8108 36.0489 78.8708 37.1089 79.1208ZM46.5689 132.151C47.0889 131.191 46.6889 128.301 46.4489 126.781C46.2089 125.261 45.9989 124.081 45.3489 124.171C44.8089 124.251 44.8089 124.851 44.8089 126.121C44.8089 127.381 44.9089 129.431 44.4289 129.891C43.9489 130.351 42.1989 131.331 42.3789 132.281C42.5589 133.221 43.7989 133.181 44.7089 133.141C45.2789 133.111 46.1489 132.931 46.5689 132.151ZM151.119 128.021C150.529 127.981 150.489 129.021 150.489 130.131C150.489 131.231 150.159 132.051 149.669 132.381C149.179 132.711 147.889 133.401 147.969 134.041C148.049 134.671 148.689 134.821 150.509 134.741C152.329 134.661 152.289 133.371 152.229 132.061C152.169 130.751 151.979 128.081 151.119 128.021ZM142.239 83.0708C141.749 83.2808 143.249 85.1408 144.949 86.6008C146.709 88.1108 147.449 88.5809 149.249 88.4809C151.049 88.3808 151.969 83.4908 150.849 83.0608C149.719 82.6308 149.399 84.4208 147.939 84.6708C146.489 84.9308 143.139 82.6808 142.239 83.0708Z" fill="#FDFDFD"/>
<path d="M56.9906 74.5195L132.061 72.0195C132.061 72.0195 144.091 94.0395 127.861 116.24C112.011 137.93 78.7006 135.43 63.8806 117.65C47.2706 97.7095 56.9906 74.5195 56.9906 74.5195Z" fill="#D4D4D4"/>
<path d="M93.9501 47.8899C69.9901 48.0599 55.6601 64.4999 55.3101 86.1799C54.9601 108.04 71.7401 128.31 95.8701 128.31C121.05 128.31 135.21 107.86 135.38 86.3499C135.54 67.2799 118.77 47.7099 93.9501 47.8899Z" fill="#F6F6F6"/>
<path d="M66.8672 86.8405L69.1172 80.5105C69.1172 80.5105 75.2872 62.1505 94.8372 62.2505C113.057 62.3505 119.807 79.6505 119.807 79.6505L121.877 86.3605L122.977 82.5805L120.377 73.5605L111.577 63.3305L96.7472 58.7305L84.3672 60.4705L74.2372 66.9005L67.4872 77.3405L66.8672 86.8405Z" fill="#D5D5D5"/>
<path d="M94.6598 116.46C78.6498 116.46 66.3398 104.6 65.2498 88.01C64.7298 80.1 67.4798 72.53 72.9998 66.71C78.6098 60.77 86.4898 57.4 94.6598 57.49C103.25 57.57 110.63 60.67 116.02 66.45C121.52 72.35 124.38 80.47 123.87 88.71C122.9 104.45 110.92 116.11 95.3798 116.46C95.1298 116.45 94.8898 116.46 94.6598 116.46ZM94.3898 59.98C87.0198 59.98 79.8898 63.05 74.8098 68.42C69.7798 73.74 67.2698 80.64 67.7398 87.84C68.7498 103.29 80.3198 114.26 95.3098 113.94C109.52 113.63 120.47 102.95 121.36 88.54C121.82 81.09 119.13 73.46 114.18 68.13C109.27 62.86 102.51 60.04 94.6298 59.97C94.5498 59.98 94.4698 59.98 94.3898 59.98Z" fill="white"/>
<rect y="138" width="166.154" height="59.8154" rx="17.7231" fill="#FF23BD"/>
<rect y="139.108" width="166.154" height="25.4769" fill="#FF23BD"/>
<path d="M22.37 160.266L18.352 155.814V160.266H17.078V150.508H18.352V155.03L22.384 150.508H23.994L19.57 155.394L24.036 160.266H22.37ZM26.1169 151.348C25.8742 151.348 25.6689 151.264 25.5009 151.096C25.3329 150.928 25.2489 150.723 25.2489 150.48C25.2489 150.238 25.3329 150.032 25.5009 149.864C25.6689 149.696 25.8742 149.612 26.1169 149.612C26.3502 149.612 26.5462 149.696 26.7049 149.864C26.8729 150.032 26.9569 150.238 26.9569 150.48C26.9569 150.723 26.8729 150.928 26.7049 151.096C26.5462 151.264 26.3502 151.348 26.1169 151.348ZM26.7329 152.594V160.266H25.4589V152.594H26.7329ZM30.4582 153.644V158.166C30.4582 158.54 30.5375 158.806 30.6962 158.964C30.8548 159.114 31.1302 159.188 31.5222 159.188H32.4602V160.266H31.3122C30.6028 160.266 30.0708 160.103 29.7162 159.776C29.3615 159.45 29.1842 158.913 29.1842 158.166V153.644H28.1902V152.594H29.1842V150.662H30.4582V152.594H32.4602V153.644H30.4582ZM33.5278 156.416C33.5278 155.623 33.6864 154.932 34.0038 154.344C34.3211 153.747 34.7598 153.285 35.3198 152.958C35.8891 152.632 36.5378 152.468 37.2658 152.468C38.2084 152.468 38.9831 152.697 39.5898 153.154C40.2058 153.612 40.6118 154.246 40.8078 155.058H39.4358C39.3051 154.592 39.0484 154.223 38.6658 153.952C38.2924 153.682 37.8258 153.546 37.2658 153.546C36.5378 153.546 35.9498 153.798 35.5018 154.302C35.0538 154.797 34.8298 155.502 34.8298 156.416C34.8298 157.34 35.0538 158.054 35.5018 158.558C35.9498 159.062 36.5378 159.314 37.2658 159.314C37.8258 159.314 38.2924 159.184 38.6658 158.922C39.0391 158.661 39.2958 158.288 39.4358 157.802H40.8078C40.6024 158.586 40.1918 159.216 39.5758 159.692C38.9598 160.159 38.1898 160.392 37.2658 160.392C36.5378 160.392 35.8891 160.229 35.3198 159.902C34.7598 159.576 34.3211 159.114 34.0038 158.516C33.6864 157.919 33.5278 157.219 33.5278 156.416ZM46.3157 152.454C46.8944 152.454 47.417 152.58 47.8837 152.832C48.3504 153.075 48.7144 153.444 48.9757 153.938C49.2464 154.433 49.3817 155.035 49.3817 155.744V160.266H48.1217V155.926C48.1217 155.161 47.9304 154.578 47.5477 154.176C47.165 153.766 46.6424 153.56 45.9797 153.56C45.3077 153.56 44.771 153.77 44.3697 154.19C43.9777 154.61 43.7817 155.222 43.7817 156.024V160.266H42.5077V149.906H43.7817V153.686C44.0337 153.294 44.379 152.991 44.8177 152.776C45.2657 152.562 45.765 152.454 46.3157 152.454ZM58.4628 156.136C58.4628 156.379 58.4488 156.636 58.4208 156.906H52.2888C52.3354 157.662 52.5921 158.255 53.0588 158.684C53.5348 159.104 54.1088 159.314 54.7808 159.314C55.3314 159.314 55.7888 159.188 56.1528 158.936C56.5261 158.675 56.7874 158.33 56.9368 157.9H58.3088C58.1034 158.638 57.6928 159.24 57.0768 159.706C56.4608 160.164 55.6954 160.392 54.7808 160.392C54.0528 160.392 53.3994 160.229 52.8208 159.902C52.2514 159.576 51.8034 159.114 51.4768 158.516C51.1501 157.91 50.9868 157.21 50.9868 156.416C50.9868 155.623 51.1454 154.928 51.4628 154.33C51.7801 153.733 52.2234 153.276 52.7928 152.958C53.3714 152.632 54.0341 152.468 54.7808 152.468C55.5088 152.468 56.1528 152.627 56.7128 152.944C57.2728 153.262 57.7021 153.7 58.0008 154.26C58.3088 154.811 58.4628 155.436 58.4628 156.136ZM57.1468 155.87C57.1468 155.385 57.0394 154.97 56.8248 154.624C56.6101 154.27 56.3161 154.004 55.9428 153.826C55.5788 153.64 55.1728 153.546 54.7248 153.546C54.0808 153.546 53.5301 153.752 53.0728 154.162C52.6248 154.573 52.3681 155.142 52.3028 155.87H57.1468ZM63.8824 152.454C64.8157 152.454 65.5717 152.739 66.1504 153.308C66.7291 153.868 67.0184 154.68 67.0184 155.744V160.266H65.7584V155.926C65.7584 155.161 65.5671 154.578 65.1844 154.176C64.8017 153.766 64.2791 153.56 63.6164 153.56C62.9444 153.56 62.4077 153.77 62.0064 154.19C61.6144 154.61 61.4184 155.222 61.4184 156.024V160.266H60.1444V152.594H61.4184V153.686C61.6704 153.294 62.0111 152.991 62.4404 152.776C62.8791 152.562 63.3597 152.454 63.8824 152.454ZM74.0779 150.508V156.682C74.0779 157.55 74.2879 158.194 74.7079 158.614C75.1372 159.034 75.7299 159.244 76.4859 159.244C77.2326 159.244 77.8159 159.034 78.2359 158.614C78.6652 158.194 78.8799 157.55 78.8799 156.682V150.508H80.1539V156.668C80.1539 157.48 79.9906 158.166 79.6639 158.726C79.3372 159.277 78.8939 159.688 78.3339 159.958C77.7832 160.229 77.1626 160.364 76.4719 160.364C75.7812 160.364 75.1559 160.229 74.5959 159.958C74.0452 159.688 73.6066 159.277 73.2799 158.726C72.9626 158.166 72.8039 157.48 72.8039 156.668V150.508H74.0779ZM83.8332 153.644V158.166C83.8332 158.54 83.9125 158.806 84.0712 158.964C84.2298 159.114 84.5052 159.188 84.8972 159.188H85.8352V160.266H84.6872C83.9778 160.266 83.4458 160.103 83.0912 159.776C82.7365 159.45 82.5592 158.913 82.5592 158.166V153.644H81.5652V152.594H82.5592V150.662H83.8332V152.594H85.8352V153.644H83.8332ZM94.3788 156.136C94.3788 156.379 94.3648 156.636 94.3368 156.906H88.2048C88.2514 157.662 88.5081 158.255 88.9748 158.684C89.4508 159.104 90.0248 159.314 90.6968 159.314C91.2474 159.314 91.7048 159.188 92.0688 158.936C92.4421 158.675 92.7034 158.33 92.8528 157.9H94.2248C94.0194 158.638 93.6088 159.24 92.9928 159.706C92.3768 160.164 91.6114 160.392 90.6968 160.392C89.9688 160.392 89.3154 160.229 88.7368 159.902C88.1674 159.576 87.7194 159.114 87.3928 158.516C87.0661 157.91 86.9028 157.21 86.9028 156.416C86.9028 155.623 87.0614 154.928 87.3788 154.33C87.6961 153.733 88.1394 153.276 88.7088 152.958C89.2874 152.632 89.9501 152.468 90.6968 152.468C91.4248 152.468 92.0688 152.627 92.6288 152.944C93.1888 153.262 93.6181 153.7 93.9168 154.26C94.2248 154.811 94.3788 155.436 94.3788 156.136ZM93.0628 155.87C93.0628 155.385 92.9554 154.97 92.7408 154.624C92.5261 154.27 92.2321 154.004 91.8588 153.826C91.4948 153.64 91.0888 153.546 90.6408 153.546C89.9968 153.546 89.4461 153.752 88.9888 154.162C88.5408 154.573 88.2841 155.142 88.2188 155.87H93.0628ZM99.7984 152.454C100.732 152.454 101.488 152.739 102.066 153.308C102.645 153.868 102.934 154.68 102.934 155.744V160.266H101.674V155.926C101.674 155.161 101.483 154.578 101.1 154.176C100.718 153.766 100.195 153.56 99.5324 153.56C98.8604 153.56 98.3238 153.77 97.9224 154.19C97.5304 154.61 97.3344 155.222 97.3344 156.024V160.266H96.0604V152.594H97.3344V153.686C97.5864 153.294 97.9271 152.991 98.3564 152.776C98.7951 152.562 99.2758 152.454 99.7984 152.454ZM107.732 160.392C107.144 160.392 106.616 160.294 106.15 160.098C105.683 159.893 105.314 159.613 105.044 159.258C104.773 158.894 104.624 158.479 104.596 158.012H105.912C105.949 158.395 106.126 158.708 106.444 158.95C106.77 159.193 107.195 159.314 107.718 159.314C108.203 159.314 108.586 159.207 108.866 158.992C109.146 158.778 109.286 158.507 109.286 158.18C109.286 157.844 109.136 157.597 108.838 157.438C108.539 157.27 108.077 157.107 107.452 156.948C106.882 156.799 106.416 156.65 106.052 156.5C105.697 156.342 105.389 156.113 105.128 155.814C104.876 155.506 104.75 155.105 104.75 154.61C104.75 154.218 104.866 153.859 105.1 153.532C105.333 153.206 105.664 152.949 106.094 152.762C106.523 152.566 107.013 152.468 107.564 152.468C108.413 152.468 109.099 152.683 109.622 153.112C110.144 153.542 110.424 154.13 110.462 154.876H109.188C109.16 154.475 108.996 154.153 108.698 153.91C108.408 153.668 108.016 153.546 107.522 153.546C107.064 153.546 106.7 153.644 106.43 153.84C106.159 154.036 106.024 154.293 106.024 154.61C106.024 154.862 106.103 155.072 106.262 155.24C106.43 155.399 106.635 155.53 106.878 155.632C107.13 155.726 107.475 155.833 107.914 155.954C108.464 156.104 108.912 156.253 109.258 156.402C109.603 156.542 109.897 156.757 110.14 157.046C110.392 157.336 110.522 157.714 110.532 158.18C110.532 158.6 110.415 158.978 110.182 159.314C109.948 159.65 109.617 159.916 109.188 160.112C108.768 160.299 108.282 160.392 107.732 160.392ZM112.988 151.348C112.745 151.348 112.54 151.264 112.372 151.096C112.204 150.928 112.12 150.723 112.12 150.48C112.12 150.238 112.204 150.032 112.372 149.864C112.54 149.696 112.745 149.612 112.988 149.612C113.221 149.612 113.417 149.696 113.576 149.864C113.744 150.032 113.828 150.238 113.828 150.48C113.828 150.723 113.744 150.928 113.576 151.096C113.417 151.264 113.221 151.348 112.988 151.348ZM113.604 152.594V160.266H112.33V152.594H113.604ZM117.049 149.906V160.266H115.775V149.906H117.049ZM121.937 160.392C121.349 160.392 120.821 160.294 120.355 160.098C119.888 159.893 119.519 159.613 119.249 159.258C118.978 158.894 118.829 158.479 118.801 158.012H120.117C120.154 158.395 120.331 158.708 120.649 158.95C120.975 159.193 121.4 159.314 121.923 159.314C122.408 159.314 122.791 159.207 123.071 158.992C123.351 158.778 123.491 158.507 123.491 158.18C123.491 157.844 123.341 157.597 123.043 157.438C122.744 157.27 122.282 157.107 121.657 156.948C121.087 156.799 120.621 156.65 120.257 156.5C119.902 156.342 119.594 156.113 119.333 155.814C119.081 155.506 118.955 155.105 118.955 154.61C118.955 154.218 119.071 153.859 119.305 153.532C119.538 153.206 119.869 152.949 120.299 152.762C120.728 152.566 121.218 152.468 121.769 152.468C122.618 152.468 123.304 152.683 123.827 153.112C124.349 153.542 124.629 154.13 124.667 154.876H123.393C123.365 154.475 123.201 154.153 122.903 153.91C122.613 153.668 122.221 153.546 121.727 153.546C121.269 153.546 120.905 153.644 120.635 153.84C120.364 154.036 120.229 154.293 120.229 154.61C120.229 154.862 120.308 155.072 120.467 155.24C120.635 155.399 120.84 155.53 121.083 155.632C121.335 155.726 121.68 155.833 122.119 155.954C122.669 156.104 123.117 156.253 123.463 156.402C123.808 156.542 124.102 156.757 124.345 157.046C124.597 157.336 124.727 157.714 124.737 158.18C124.737 158.6 124.62 158.978 124.387 159.314C124.153 159.65 123.822 159.916 123.393 160.112C122.973 160.299 122.487 160.392 121.937 160.392ZM137.757 160.266L136.483 158.978C136.007 159.473 135.499 159.842 134.957 160.084C134.416 160.318 133.805 160.434 133.123 160.434C132.451 160.434 131.854 160.313 131.331 160.07C130.818 159.828 130.417 159.482 130.127 159.034C129.847 158.586 129.707 158.064 129.707 157.466C129.707 156.785 129.899 156.188 130.281 155.674C130.673 155.152 131.247 154.741 132.003 154.442C131.705 154.088 131.49 153.761 131.359 153.462C131.229 153.164 131.163 152.837 131.163 152.482C131.163 152.072 131.266 151.703 131.471 151.376C131.686 151.04 131.989 150.779 132.381 150.592C132.773 150.406 133.226 150.312 133.739 150.312C134.243 150.312 134.682 150.41 135.055 150.606C135.429 150.802 135.709 151.078 135.895 151.432C136.082 151.778 136.166 152.165 136.147 152.594H134.873C134.883 152.212 134.775 151.913 134.551 151.698C134.327 151.474 134.038 151.362 133.683 151.362C133.31 151.362 133.007 151.47 132.773 151.684C132.549 151.89 132.437 152.156 132.437 152.482C132.437 152.762 132.512 153.033 132.661 153.294C132.82 153.556 133.081 153.878 133.445 154.26L136.357 157.186L136.609 156.794L137.561 155.198H138.933L137.785 157.186C137.627 157.466 137.44 157.76 137.225 158.068L139.423 160.266H137.757ZM133.123 159.342C133.627 159.342 134.08 159.244 134.481 159.048C134.892 158.852 135.279 158.549 135.643 158.138L132.773 155.254C131.579 155.712 130.981 156.435 130.981 157.424C130.981 157.975 131.177 158.432 131.569 158.796C131.971 159.16 132.489 159.342 133.123 159.342ZM22.37 181.266L18.352 176.814V181.266H17.078V171.508H18.352V176.03L22.384 171.508H23.994L19.57 176.394L24.036 181.266H22.37ZM26.1169 172.348C25.8742 172.348 25.6689 172.264 25.5009 172.096C25.3329 171.928 25.2489 171.723 25.2489 171.48C25.2489 171.238 25.3329 171.032 25.5009 170.864C25.6689 170.696 25.8742 170.612 26.1169 170.612C26.3502 170.612 26.5462 170.696 26.7049 170.864C26.8729 171.032 26.9569 171.238 26.9569 171.48C26.9569 171.723 26.8729 171.928 26.7049 172.096C26.5462 172.264 26.3502 172.348 26.1169 172.348ZM26.7329 173.594V181.266H25.4589V173.594H26.7329ZM30.4582 174.644V179.166C30.4582 179.54 30.5375 179.806 30.6962 179.964C30.8548 180.114 31.1302 180.188 31.5222 180.188H32.4602V181.266H31.3122C30.6028 181.266 30.0708 181.103 29.7162 180.776C29.3615 180.45 29.1842 179.913 29.1842 179.166V174.644H28.1902V173.594H29.1842V171.662H30.4582V173.594H32.4602V174.644H30.4582ZM33.5278 177.416C33.5278 176.623 33.6864 175.932 34.0038 175.344C34.3211 174.747 34.7598 174.285 35.3198 173.958C35.8891 173.632 36.5378 173.468 37.2658 173.468C38.2084 173.468 38.9831 173.697 39.5898 174.154C40.2058 174.612 40.6118 175.246 40.8078 176.058H39.4358C39.3051 175.592 39.0484 175.223 38.6658 174.952C38.2924 174.682 37.8258 174.546 37.2658 174.546C36.5378 174.546 35.9498 174.798 35.5018 175.302C35.0538 175.797 34.8298 176.502 34.8298 177.416C34.8298 178.34 35.0538 179.054 35.5018 179.558C35.9498 180.062 36.5378 180.314 37.2658 180.314C37.8258 180.314 38.2924 180.184 38.6658 179.922C39.0391 179.661 39.2958 179.288 39.4358 178.802H40.8078C40.6024 179.586 40.1918 180.216 39.5758 180.692C38.9598 181.159 38.1898 181.392 37.2658 181.392C36.5378 181.392 35.8891 181.229 35.3198 180.902C34.7598 180.576 34.3211 180.114 34.0038 179.516C33.6864 178.919 33.5278 178.219 33.5278 177.416ZM46.3157 173.454C46.8944 173.454 47.417 173.58 47.8837 173.832C48.3504 174.075 48.7144 174.444 48.9757 174.938C49.2464 175.433 49.3817 176.035 49.3817 176.744V181.266H48.1217V176.926C48.1217 176.161 47.9304 175.578 47.5477 175.176C47.165 174.766 46.6424 174.56 45.9797 174.56C45.3077 174.56 44.771 174.77 44.3697 175.19C43.9777 175.61 43.7817 176.222 43.7817 177.024V181.266H42.5077V170.906H43.7817V174.686C44.0337 174.294 44.379 173.991 44.8177 173.776C45.2657 173.562 45.765 173.454 46.3157 173.454ZM58.4628 177.136C58.4628 177.379 58.4488 177.636 58.4208 177.906H52.2888C52.3354 178.662 52.5921 179.255 53.0588 179.684C53.5348 180.104 54.1088 180.314 54.7808 180.314C55.3314 180.314 55.7888 180.188 56.1528 179.936C56.5261 179.675 56.7874 179.33 56.9368 178.9H58.3088C58.1034 179.638 57.6928 180.24 57.0768 180.706C56.4608 181.164 55.6954 181.392 54.7808 181.392C54.0528 181.392 53.3994 181.229 52.8208 180.902C52.2514 180.576 51.8034 180.114 51.4768 179.516C51.1501 178.91 50.9868 178.21 50.9868 177.416C50.9868 176.623 51.1454 175.928 51.4628 175.33C51.7801 174.733 52.2234 174.276 52.7928 173.958C53.3714 173.632 54.0341 173.468 54.7808 173.468C55.5088 173.468 56.1528 173.627 56.7128 173.944C57.2728 174.262 57.7021 174.7 58.0008 175.26C58.3088 175.811 58.4628 176.436 58.4628 177.136ZM57.1468 176.87C57.1468 176.385 57.0394 175.97 56.8248 175.624C56.6101 175.27 56.3161 175.004 55.9428 174.826C55.5788 174.64 55.1728 174.546 54.7248 174.546C54.0808 174.546 53.5301 174.752 53.0728 175.162C52.6248 175.573 52.3681 176.142 52.3028 176.87H57.1468ZM63.8824 173.454C64.8157 173.454 65.5717 173.739 66.1504 174.308C66.7291 174.868 67.0184 175.68 67.0184 176.744V181.266H65.7584V176.926C65.7584 176.161 65.5671 175.578 65.1844 175.176C64.8017 174.766 64.2791 174.56 63.6164 174.56C62.9444 174.56 62.4077 174.77 62.0064 175.19C61.6144 175.61 61.4184 176.222 61.4184 177.024V181.266H60.1444V173.594H61.4184V174.686C61.6704 174.294 62.0111 173.991 62.4404 173.776C62.8791 173.562 63.3597 173.454 63.8824 173.454ZM79.3195 173.594L76.9255 181.266H75.6095L73.7615 175.176L71.9135 181.266H70.5975L68.1895 173.594H69.4915L71.2555 180.034L73.1595 173.594H74.4615L76.3235 180.048L78.0595 173.594H79.3195ZM80.1079 177.402C80.1079 176.618 80.2665 175.932 80.5839 175.344C80.9012 174.747 81.3352 174.285 81.8859 173.958C82.4459 173.632 83.0665 173.468 83.7479 173.468C84.4199 173.468 85.0032 173.613 85.4979 173.902C85.9925 174.192 86.3612 174.556 86.6039 174.994V173.594H87.8919V181.266H86.6039V179.838C86.3519 180.286 85.9739 180.66 85.4699 180.958C84.9752 181.248 84.3965 181.392 83.7339 181.392C83.0525 181.392 82.4365 181.224 81.8859 180.888C81.3352 180.552 80.9012 180.081 80.5839 179.474C80.2665 178.868 80.1079 178.177 80.1079 177.402ZM86.6039 177.416C86.6039 176.838 86.4872 176.334 86.2539 175.904C86.0205 175.475 85.7032 175.148 85.3019 174.924C84.9099 174.691 84.4759 174.574 83.9999 174.574C83.5239 174.574 83.0899 174.686 82.6979 174.91C82.3059 175.134 81.9932 175.461 81.7599 175.89C81.5265 176.32 81.4099 176.824 81.4099 177.402C81.4099 177.99 81.5265 178.504 81.7599 178.942C81.9932 179.372 82.3059 179.703 82.6979 179.936C83.0899 180.16 83.5239 180.272 83.9999 180.272C84.4759 180.272 84.9099 180.16 85.3019 179.936C85.7032 179.703 86.0205 179.372 86.2539 178.942C86.4872 178.504 86.6039 177.995 86.6039 177.416ZM91.3188 174.84C91.5428 174.402 91.8601 174.061 92.2708 173.818C92.6908 173.576 93.1995 173.454 93.7968 173.454V174.77H93.4608C92.0328 174.77 91.3188 175.545 91.3188 177.094V181.266H90.0448V173.594H91.3188V174.84ZM102.267 177.136C102.267 177.379 102.253 177.636 102.225 177.906H96.0935C96.1401 178.662 96.3968 179.255 96.8635 179.684C97.3395 180.104 97.9135 180.314 98.5855 180.314C99.1361 180.314 99.5935 180.188 99.9575 179.936C100.331 179.675 100.592 179.33 100.741 178.9H102.113C101.908 179.638 101.497 180.24 100.881 180.706C100.265 181.164 99.5001 181.392 98.5855 181.392C97.8575 181.392 97.2041 181.229 96.6255 180.902C96.0561 180.576 95.6081 180.114 95.2815 179.516C94.9548 178.91 94.7915 178.21 94.7915 177.416C94.7915 176.623 94.9501 175.928 95.2675 175.33C95.5848 174.733 96.0281 174.276 96.5975 173.958C97.1761 173.632 97.8388 173.468 98.5855 173.468C99.3135 173.468 99.9575 173.627 100.517 173.944C101.077 174.262 101.507 174.7 101.805 175.26C102.113 175.811 102.267 176.436 102.267 177.136ZM100.951 176.87C100.951 176.385 100.844 175.97 100.629 175.624C100.415 175.27 100.121 175.004 99.7475 174.826C99.3835 174.64 98.9775 174.546 98.5295 174.546C97.8855 174.546 97.3348 174.752 96.8775 175.162C96.4295 175.573 96.1728 176.142 96.1075 176.87H100.951Z" fill="white"/>
</g>
<defs>
<clipPath id="clip0_3804_339">
<rect width="167" height="198" rx="17.72" fill="white"/>
</clipPath>
</defs>
</svg>
