<svg width="175" height="207" viewBox="0 0 175 207" fill="none" xmlns="http://www.w3.org/2000/svg">
<g clip-path="url(#clip0_3260_767)">
<rect width="174.02" height="206.03" fill="white"/>
<rect x="5.55385" y="2.55385" width="165.046" height="201.6" rx="17.1692" fill="#FFF4EC" stroke="#A06841" stroke-width="1.10769"/>
<path d="M69.2949 120.859L132.498 136.038L123.157 174.932L59.9541 159.753L69.2949 120.859Z" fill="#FFFF00"/>
<path d="M81.5449 134.086L115.577 142.259L113.826 149.552L79.7935 141.378L81.5449 134.086ZM76.8745 153.533L110.907 161.706L109.155 168.999L75.1231 160.825L76.8745 153.533Z" fill="#FCEA2B"/>
<path d="M78.626 146.24L112.658 154.413L110.907 161.706L76.8746 153.533L78.626 146.24Z" fill="#FFF591"/>
<path d="M115.673 152.566L125.396 154.902L124.229 159.763L114.505 157.428L115.673 152.566Z" fill="#FCEA2B"/>
<path d="M116.84 147.704L126.564 150.04L125.396 154.901L115.673 152.566L116.84 147.704Z" fill="#FFF591"/>
<path d="M118.592 140.412L128.315 142.747L127.148 147.609L117.424 145.274L118.592 140.412Z" fill="#FCEA2B"/>
<path d="M119.76 135.55L129.483 137.885L128.316 142.747L118.592 140.412L119.76 135.55Z" fill="#FFF591"/>
<path d="M112.754 164.72L122.477 167.056L121.31 171.917L111.586 169.582L112.754 164.72Z" fill="#FCEA2B"/>
<path d="M113.921 159.859L123.645 162.194L122.477 167.056L112.754 164.721L113.921 159.859Z" fill="#FFF591"/>
<path d="M67.0552 140.89L76.7787 143.225L75.6111 148.087L65.8876 145.752L67.0552 140.89Z" fill="#FCEA2B"/>
<path d="M68.2227 136.028L77.9462 138.364L76.7786 143.225L67.0551 140.89L68.2227 136.028Z" fill="#FFF591"/>
<path d="M69.9741 128.736L79.6976 131.071L78.53 135.933L68.8065 133.598L69.9741 128.736Z" fill="#FCEA2B"/>
<path d="M71.1416 123.874L80.8651 126.209L79.6975 131.071L69.974 128.736L71.1416 123.874Z" fill="#FFF591"/>
<path d="M64.1362 153.044L73.8597 155.38L72.6921 160.241L62.9686 157.906L64.1362 153.044Z" fill="#FCEA2B"/>
<path d="M65.3037 148.183L75.0272 150.518L73.8596 155.38L64.1361 153.045L65.3037 148.183Z" fill="#FFF591"/>
<path d="M94.9824 13.9006L158.185 29.0795L148.844 67.9736L85.6416 52.7947L94.9824 13.9006Z" fill="#FFFF00"/>
<path d="M107.232 27.127L141.264 35.3002L139.513 42.5928L105.481 34.4196L107.232 27.127Z" fill="#FCEA2B"/>
<path d="M108.983 19.8345L143.016 28.0077L141.264 35.3003L107.232 27.1271L108.983 19.8345ZM104.313 39.2815L138.345 47.4547L136.594 54.7474L102.562 46.5741L104.313 39.2815Z" fill="#FFF591"/>
<path d="M141.36 45.6074L151.084 47.9426L149.916 52.8044L140.193 50.4692L141.36 45.6074Z" fill="#FCEA2B"/>
<path d="M142.528 40.7458L152.251 43.0811L151.084 47.9428L141.36 45.6076L142.528 40.7458Z" fill="#FFF591"/>
<path d="M144.279 33.4531L154.003 35.7883L152.835 40.6501L143.112 38.3149L144.279 33.4531Z" fill="#FCEA2B"/>
<path d="M145.447 28.5916L155.17 30.9268L154.003 35.7885L144.279 33.4533L145.447 28.5916Z" fill="#FFF591"/>
<path d="M138.441 57.762L148.165 60.0972L146.997 64.9589L137.274 62.6237L138.441 57.762Z" fill="#FCEA2B"/>
<path d="M139.609 52.9001L149.332 55.2354L148.165 60.0971L138.441 57.7619L139.609 52.9001Z" fill="#FFF591"/>
<path d="M92.7422 33.9314L102.466 36.2666L101.298 41.1284L91.5746 38.7932L92.7422 33.9314Z" fill="#FCEA2B"/>
<path d="M93.9102 29.0698L103.634 31.405L102.466 36.2668L92.7426 33.9316L93.9102 29.0698Z" fill="#FFF591"/>
<path d="M95.6616 21.7769L105.385 24.1121L104.218 28.9738L94.494 26.6386L95.6616 21.7769Z" fill="#FCEA2B"/>
<path d="M96.8291 16.9153L106.553 19.2505L105.385 24.1123L95.6615 21.777L96.8291 16.9153Z" fill="#FFF591"/>
<path d="M89.8232 46.0859L99.5468 48.4211L98.3792 53.2829L88.6556 50.9477L89.8232 46.0859Z" fill="#FCEA2B"/>
<path d="M90.9912 41.2239L100.715 43.5591L99.5471 48.4208L89.8236 46.0856L90.9912 41.2239Z" fill="#FFF591"/>
<path d="M162.453 96.9528L155.16 95.2014L150.49 114.648L157.782 116.4C159.241 116.75 160.447 116.011 160.797 114.553L164.3 99.9675C164.592 98.7521 163.668 97.2447 162.453 96.9528Z" fill="#FFFF00"/>
<path d="M154.285 98.8477L164.008 101.183L163.424 103.614L153.701 101.279L154.285 98.8477ZM153.117 103.709L162.841 106.045L162.257 108.476L152.533 106.14L153.117 103.709ZM151.949 108.571L161.673 110.906L161.089 113.337L151.366 111.002L151.949 108.571Z" fill="#FCEA2B"/>
<path d="M97.3934 143.034C124.244 149.483 151.239 132.943 157.687 106.092C164.136 79.2417 147.596 52.2474 120.746 45.7989C93.8948 39.3503 66.9004 55.8896 60.4519 82.7404C54.0034 109.591 70.5427 136.586 97.3934 143.034Z" fill="#FCEA2B"/>
<path d="M99.0864 135.984C122.044 141.498 145.124 127.357 150.637 104.399C156.151 81.4419 142.01 58.3617 119.052 52.8483C96.095 47.3348 73.0148 61.4759 67.5014 84.4333C61.9879 107.391 76.129 130.471 99.0864 135.984Z" fill="#FDD835"/>
<path d="M107.96 99.0346C110.511 99.6472 113.076 98.0759 113.688 95.5251C114.301 92.9743 112.73 90.4098 110.179 89.7972C107.628 89.1846 105.063 90.7558 104.451 93.3067C103.838 95.8575 105.409 98.4219 107.96 99.0346Z" fill="#FFFF00"/>
<path d="M115.995 76.2821L115.831 71.6146L117.524 64.5651C119.625 55.8139 117.194 55.2301 115.093 63.9813L113.4 71.0308L111.133 75.1145L107.747 89.2136C106.872 92.8599 111.49 93.9691 112.366 90.3228L115.995 76.2821Z" fill="#FFFF00"/>
<path d="M105.545 94.5134L108.815 91.0693L126.037 107.423L122.767 110.867L105.545 94.5134Z" fill="#FFFF00"/>
<path d="M108.485 96.8472C109.828 97.1696 111.178 96.3426 111.5 95.0001C111.823 93.6576 110.996 92.3078 109.653 91.9854C108.311 91.663 106.961 92.49 106.638 93.8325C106.316 95.175 107.143 96.5247 108.485 96.8472Z" fill="#FCEA2B"/>
<path d="M118.468 55.2791C119.811 55.6015 121.161 54.7745 121.483 53.432C121.805 52.0894 120.978 50.7397 119.636 50.4173C118.293 50.0949 116.944 50.9218 116.621 52.2644C116.299 53.6069 117.126 54.9566 118.468 55.2791Z" fill="#FFF591"/>
<path d="M96.2198 55.8496C97.5624 56.172 98.9121 55.3451 99.2345 54.0025C99.5569 52.66 98.73 51.3103 97.3874 50.9879C96.0449 50.6654 94.6952 51.4924 94.3727 52.8349C94.0503 54.1775 94.8773 55.5272 96.2198 55.8496Z" fill="#FFF591"/>
<path d="M77.5284 67.3013C78.871 67.6237 80.2207 66.7967 80.5431 65.4542C80.8655 64.1117 80.0386 62.7619 78.696 62.4395C77.3535 62.1171 76.0038 62.9441 75.6813 64.2866C75.3589 65.6291 76.1859 66.9788 77.5284 67.3013Z" fill="#FFF591"/>
<path d="M66.9176 86.8643C68.2601 87.1867 69.6098 86.3597 69.9323 85.0172C70.2547 83.6746 69.4277 82.3249 68.0852 82.0025C66.7426 81.6801 65.3929 82.507 65.0705 83.8496C64.7481 85.1921 65.575 86.5418 66.9176 86.8643Z" fill="#FFF591"/>
<path d="M67.4869 109.112C68.8294 109.434 70.1792 108.608 70.5016 107.265C70.824 105.922 69.9971 104.573 68.6545 104.25C67.312 103.928 65.9623 104.755 65.6398 106.097C65.3174 107.44 66.1444 108.79 67.4869 109.112Z" fill="#FFF591"/>
<path d="M77.8121 123.933C78.8333 122.893 80.1071 122.942 81.1474 123.963C82.1877 124.984 82.1389 126.258 81.3608 127.357C80.3397 128.397 79.0659 128.348 78.0256 127.327C76.9853 126.306 76.8494 124.73 77.8121 123.933ZM96.6553 135.401C96.9472 134.185 98.2114 133.203 99.67 133.553C101.128 133.904 101.867 135.11 101.517 136.568C101.225 137.784 99.9609 138.765 98.5023 138.415C97.2869 138.123 96.305 136.859 96.6553 135.401Z" fill="#FFF591"/>
<path d="M120.751 137.845C122.094 138.167 123.443 137.34 123.766 135.998C124.088 134.655 123.261 133.305 121.919 132.983C120.576 132.661 119.226 133.488 118.904 134.83C118.582 136.173 119.409 137.522 120.751 137.845Z" fill="#FFF591"/>
<path d="M138.586 125.673C137.546 124.652 137.595 123.378 138.616 122.338C139.637 121.298 140.911 121.347 141.951 122.368C142.992 123.389 142.943 124.663 141.922 125.703C140.959 126.5 139.384 126.636 138.586 125.673ZM150.054 106.83C148.838 106.538 147.856 105.274 148.207 103.816C148.557 102.357 149.763 101.618 151.221 101.969C152.437 102.26 153.419 103.525 153.068 104.983C152.777 106.199 151.512 107.181 150.054 106.83Z" fill="#FFF591"/>
<path d="M149.483 84.582C150.826 84.9045 152.175 84.0775 152.498 82.735C152.82 81.3924 151.993 80.0427 150.651 79.7203C149.308 79.3979 147.958 80.2248 147.636 81.5674C147.313 82.9099 148.14 84.2596 149.483 84.582Z" fill="#FFF591"/>
<path d="M138.032 65.8911C139.374 66.2135 140.724 65.3866 141.047 64.044C141.369 62.7015 140.542 61.3518 139.199 61.0294C137.857 60.7069 136.507 61.5339 136.185 62.8764C135.862 64.219 136.689 65.5687 138.032 65.8911Z" fill="#FFF591"/>
<path d="M99.0786 84.2157C99.0786 83.3628 99.4174 82.5449 100.02 81.9418C100.624 81.3388 101.441 81 102.294 81H140.882C141.735 81 142.553 81.3388 143.156 81.9418C143.759 82.5449 144.098 83.3628 144.098 84.2157V97.8887C137.542 93.1689 129.666 90.635 121.588 90.647C113.189 90.647 105.413 93.3321 99.0786 97.8887V84.2157ZM121.588 161.392C129.988 161.392 137.763 158.707 144.098 154.15V167.823C144.098 168.676 143.759 169.494 143.156 170.097C142.553 170.7 141.735 171.039 140.882 171.039H102.294C101.441 171.039 100.624 170.7 100.02 170.097C99.4174 169.494 99.0786 168.676 99.0786 167.823V154.15C105.634 158.87 113.51 161.404 121.588 161.392ZM156.961 119.588C156.108 119.588 155.29 119.927 154.687 120.53C154.084 121.133 153.745 121.951 153.745 122.804V129.235C153.745 130.088 154.084 130.906 154.687 131.509C155.29 132.112 156.108 132.451 156.961 132.451H161.784C162.637 132.451 163.455 132.112 164.058 131.509C164.661 130.906 165 130.088 165 129.235V122.804C165 121.951 164.661 121.133 164.058 120.53C163.455 119.927 162.637 119.588 161.784 119.588H156.961Z" fill="#3F5FFF"/>
<path d="M160.176 126.019C160.176 147.33 142.898 164.608 121.588 164.608C100.278 164.608 83 147.33 83 126.019C83 104.709 100.278 87.4314 121.588 87.4314C142.898 87.4314 160.176 104.709 160.176 126.019Z" fill="#A4AEEB"/>
<path d="M150.529 126.019C150.529 133.695 147.48 141.056 142.052 146.484C136.625 151.911 129.264 154.961 121.588 154.961C113.912 154.961 106.551 151.911 101.124 146.484C95.6961 141.056 92.647 133.695 92.647 126.019C92.647 118.344 95.6961 110.983 101.124 105.555C106.551 100.128 113.912 97.0784 121.588 97.0784C129.264 97.0784 136.625 100.128 142.052 105.555C147.48 110.983 150.529 118.344 150.529 126.019Z" fill="#5235A6"/>
<path d="M121.587 100.294C120.735 100.294 119.917 100.633 119.314 101.236C118.711 101.839 118.372 102.657 118.372 103.51V122.804C118.372 123.479 118.581 124.109 118.941 124.63L108.435 136.338C108.153 136.653 107.936 137.02 107.796 137.419C107.655 137.817 107.595 138.24 107.618 138.662C107.641 139.084 107.747 139.497 107.93 139.878C108.112 140.259 108.368 140.6 108.683 140.882C108.997 141.164 109.365 141.382 109.763 141.522C110.162 141.662 110.584 141.722 111.006 141.699C111.428 141.676 111.841 141.571 112.222 141.388C112.603 141.205 112.945 140.949 113.227 140.635L123.961 128.666C124.444 128.126 124.732 127.438 124.775 126.714C124.819 125.99 124.617 125.273 124.202 124.678C124.593 124.132 124.804 123.476 124.803 122.804V103.51C124.803 102.657 124.464 101.839 123.861 101.236C123.258 100.633 122.44 100.294 121.587 100.294Z" fill="white"/>
<path d="M128.019 126.019C128.019 127.725 127.342 129.361 126.136 130.567C124.93 131.773 123.294 132.451 121.588 132.451C119.882 132.451 118.247 131.773 117.04 130.567C115.834 129.361 115.157 127.725 115.157 126.019C115.157 124.314 115.834 122.678 117.04 121.472C118.247 120.266 119.882 119.588 121.588 119.588C123.294 119.588 124.93 120.266 126.136 121.472C127.342 122.678 128.019 124.314 128.019 126.019Z" fill="#FCD53F"/>
<path d="M121.134 88.2162L128.373 86.956C129.151 86.8207 129.803 86.3064 130.075 85.564C130.526 84.3661 130.947 82.1837 130.332 78.6499C129.689 74.956 128.445 72.8161 127.568 71.7079C127.07 71.076 126.241 70.7843 125.452 70.9217L118.327 72.1619C117.104 72.3749 116.293 73.5411 116.504 74.7533L118.529 86.3838C118.744 87.6189 119.91 88.4292 121.134 88.2162Z" fill="#B0BEC5"/>
<path d="M121.134 88.2162L128.373 86.956C129.151 86.8207 129.803 86.3064 130.075 85.564C130.526 84.3661 130.947 82.1837 130.332 78.6499C129.689 74.956 128.445 72.8161 127.568 71.7079C127.07 71.076 126.241 70.7843 125.452 70.9217L118.327 72.1619C117.104 72.3749 116.293 73.5411 116.504 74.7533L118.529 86.3838C118.744 87.6189 119.91 88.4292 121.134 88.2162Z" fill="#90A4AE"/>
<path d="M116.011 89.1078L120.574 88.3135C121.066 88.2279 121.444 87.7614 121.578 87.0429C121.789 85.8868 121.925 83.7541 121.309 80.2204C120.666 76.5265 119.731 74.3328 119.106 73.1808C118.744 72.525 118.202 72.1835 117.699 72.2711L113.204 73.0535C112.438 73.1869 111.982 74.2913 112.193 75.5036L114.218 87.1341C114.456 88.3652 115.245 89.2412 116.011 89.1078Z" fill="#607D8B"/>
<path d="M96.478 40.9354C93.6894 34.257 88.1265 32.4211 84.81 32.9984L28.4071 42.817C25.0907 43.3943 20.4754 47.002 20.1076 54.2299C19.7909 60.3295 20.1555 67.2296 20.1555 67.2296L60.2497 58.8243L100.837 53.1846C100.826 53.1866 98.8258 46.5712 96.478 40.9354Z" fill="#78909C"/>
<path d="M83.3686 18.1558L24.507 28.4024L23.3668 46.5576C22.8882 51.1184 26.9134 54.8833 31.4307 54.0969L85.6721 44.6546C90.2237 43.8623 92.7339 38.9243 90.6812 34.7807L83.3686 18.1558Z" fill="#A06841"/>
<path d="M35.5192 142.827C38.3078 149.506 43.8707 151.341 47.1871 150.764L103.601 140.944C106.918 140.366 111.533 136.759 111.901 129.531C112.218 123.431 111.853 116.531 111.853 116.531L71.7589 124.936L31.1714 130.576C31.1714 130.576 33.1713 137.191 35.5192 142.827Z" fill="#78909C"/>
<path d="M48.6259 165.595L107.488 155.349L108.628 137.194C109.106 132.633 105.081 128.868 100.564 129.654L46.3224 139.097C41.7709 139.889 39.2606 144.827 41.3134 148.971L48.6259 165.595Z" fill="#A06841"/>
<path d="M100.566 129.666L46.3247 139.108C41.7731 139.901 39.2629 144.839 41.3156 148.982L43.8087 154.64C46.6745 146.6 66.7363 151.721 77.6014 148.616C91.0604 144.776 96.4605 139.383 102.211 141.551C104.077 142.251 105.899 143.513 107.878 143.239C108.015 143.215 108.125 143.173 108.261 143.137L108.63 137.205C109.107 132.633 105.083 128.88 100.566 129.666ZM31.5232 54.0808L85.7646 44.6385C90.3162 43.8462 92.8264 38.9082 90.7737 34.7646L88.2806 29.1069C85.4149 37.1467 65.353 32.0259 54.4879 35.1309C41.0289 38.9703 35.6288 44.3642 29.8784 42.1956C28.0127 41.4953 26.1906 40.2337 24.2116 40.5075C24.0744 40.5313 23.964 40.5741 23.8288 40.6094L23.4593 46.5415C22.9712 51.1157 26.9945 54.8692 31.5232 54.0808Z" fill="#784D30"/>
<path d="M75.4097 145.91C105.265 140.713 125.255 112.297 120.058 82.4414C114.86 52.5858 86.4444 32.5962 56.5888 37.7934C26.7331 42.9907 6.74348 71.4067 11.9407 101.262C17.138 131.118 45.554 151.108 75.4097 145.91Z" fill="#B0BEC5"/>
<path d="M73.8115 135.172C97.7617 131.003 113.797 108.207 109.628 84.2571C105.459 60.3069 82.6636 44.2712 58.7134 48.4404C34.7632 52.6097 18.7275 75.405 22.8967 99.3552C27.066 123.305 49.8613 139.341 73.8115 135.172Z" fill="#FFF3E0"/>
<path opacity="0.64" d="M45.9737 49.9153C40.4777 52.5923 32.8288 56.5749 25.9639 68.445C19.18 80.1715 19.4913 92.383 20.3717 100.69C20.3717 100.69 16.5083 107.737 16.0671 106.623C12.6422 97.982 12.9169 77.291 20.9199 64.9871C30.2328 50.6642 44.385 43.6996 49.6166 41.9405C50.5285 41.6286 47.6452 49.0941 45.9737 49.9153Z" fill="#ECEFF1"/>
<path d="M73.1503 132.93C95.8374 128.981 111.027 107.388 107.078 84.701C103.129 62.014 81.5355 46.8241 58.8485 50.7734C36.1615 54.7227 20.9716 76.3158 24.9209 99.0028C28.8703 121.69 50.4633 136.88 73.1503 132.93Z" fill="white"/>
<path d="M67.0906 96.3629C69.6107 95.9242 71.298 93.5257 70.8593 91.0056C70.4206 88.4855 68.0221 86.7982 65.502 87.2369C62.9819 87.6756 61.2946 90.0742 61.7333 92.5943C62.172 95.1143 64.5705 96.8016 67.0906 96.3629Z" fill="#563428"/>
<path d="M60.618 60.9398C59.7832 61.0851 58.991 60.5279 58.8457 59.693L58.0593 55.1758C57.914 54.3409 58.4713 53.5487 59.3061 53.4034C60.1409 53.2581 60.9331 53.8154 61.0784 54.6502L61.8648 59.1675C61.9987 60.0043 61.4414 60.7965 60.618 60.9398ZM72.6902 130.288C71.8553 130.434 71.0631 129.876 70.9178 129.042L70.1315 124.524C69.9861 123.689 70.5434 122.897 71.3782 122.752C72.2131 122.607 73.0053 123.164 73.1506 123.999L73.9369 128.516C74.0708 129.353 73.5136 130.145 72.6902 130.288ZM103.189 86.9329L98.6718 87.7193C97.837 87.8646 97.0448 87.3073 96.8995 86.4725C96.7541 85.6377 97.3114 84.8455 98.1463 84.7001L102.664 83.9138C103.498 83.7685 104.291 84.3257 104.436 85.1606C104.581 85.9954 104.024 86.7876 103.189 86.9329ZM33.8406 99.005L29.3233 99.7914C28.4885 99.9367 27.6963 99.3795 27.5509 98.5446C27.4056 97.7098 27.9629 96.9176 28.7977 96.7723L33.315 95.9859C34.1498 95.8406 34.942 96.3979 35.0873 97.2327C35.2327 98.0675 34.6754 98.8597 33.8406 99.005Z" fill="#B2947C"/>
<path d="M60.6181 60.9398C59.7833 61.0852 58.9911 60.5279 58.8457 59.6931L58.0594 55.1758C57.9141 54.341 58.4713 53.5488 59.3062 53.4035C60.141 53.2581 60.9332 53.8154 61.0785 54.6502L61.8649 59.1675C61.9988 60.0043 61.4415 60.7965 60.6181 60.9398ZM72.6902 130.288C71.8554 130.434 71.0632 129.876 70.9179 129.042L70.1315 124.524C69.9862 123.69 70.5435 122.897 71.3783 122.752C72.2131 122.607 73.0053 123.164 73.1506 123.999L73.937 128.516C74.0709 129.353 73.5136 130.145 72.6902 130.288ZM43.7231 67.5807L40.7893 64.0617C40.5298 63.7504 40.4041 63.349 40.4398 62.9453C40.4755 62.5416 40.6697 62.1685 40.9799 61.9076C41.2912 61.6481 41.6926 61.5224 42.0963 61.5581C42.5 61.5938 42.8731 61.7881 43.134 62.0982L46.0677 65.6172C46.6049 66.266 46.5259 67.2341 45.8771 67.7713C45.2303 68.3198 44.2716 68.2275 43.7231 67.5807ZM88.853 121.607L85.9192 118.088C85.6596 117.777 85.534 117.375 85.5697 116.972C85.6054 116.568 85.7996 116.195 86.1098 115.934C86.4211 115.674 86.8225 115.549 87.2262 115.584C87.6299 115.62 88.003 115.814 88.2639 116.125L91.1976 119.644C91.7347 120.292 91.6558 121.261 91.007 121.798C90.3582 122.335 89.4015 122.254 88.853 121.607Z" fill="#B2947C"/>
<path d="M43.7232 67.5807L40.7894 64.0617C40.5298 63.7504 40.4042 63.349 40.4399 62.9453C40.4756 62.5416 40.6698 62.1685 40.98 61.9076C41.2912 61.6481 41.6927 61.5224 42.0964 61.5581C42.5001 61.5938 42.8732 61.788 43.1341 62.0982L46.0678 65.6172C46.6049 66.266 46.526 67.2341 45.8772 67.7713C45.2304 68.3198 44.2717 68.2275 43.7232 67.5807ZM88.8531 121.607L85.9193 118.088C85.6597 117.777 85.5341 117.375 85.5698 116.972C85.6055 116.568 85.7997 116.195 86.1099 115.934C86.4211 115.674 86.8226 115.549 87.2263 115.584C87.63 115.62 88.0031 115.814 88.2639 116.125L91.1977 119.644C91.7348 120.292 91.6559 121.26 91.0071 121.798C90.3583 122.335 89.4016 122.254 88.8531 121.607ZM34.5749 81.9692L30.2715 80.3971C29.4794 80.1108 29.0665 79.2283 29.3642 78.4342C29.6505 77.642 30.533 77.2292 31.3272 77.5269L35.6305 79.0989C36.4227 79.3852 36.8355 80.2678 36.5378 81.0619C36.2381 81.8446 35.367 82.2554 34.5749 81.9692ZM100.673 106.188L96.37 104.616C95.5779 104.329 95.165 103.447 95.4627 102.653C95.749 101.861 96.6315 101.448 97.4257 101.746L101.729 103.318C102.521 103.604 102.934 104.486 102.636 105.281C102.339 106.075 101.465 106.474 100.673 106.188ZM76.789 62.3902C75.9969 62.1039 75.584 61.2213 75.8817 60.4272L77.4538 56.1239C77.7401 55.3317 78.6226 54.9189 79.4168 55.2166C80.2089 55.5029 80.6217 56.3854 80.324 57.1795L78.752 61.4829C78.4657 62.275 77.5812 62.6764 76.789 62.3902ZM52.5704 128.489C51.7782 128.202 51.3654 127.32 51.6631 126.526L53.2351 122.222C53.5214 121.43 54.404 121.017 55.1981 121.315C55.9902 121.601 56.4031 122.484 56.1054 123.278L54.5333 127.581C54.2356 128.376 53.3625 128.775 52.5704 128.489ZM90.0682 71.7316C89.8087 71.4203 89.683 71.0189 89.7187 70.6152C89.7544 70.2115 89.9486 69.8384 90.2588 69.5775L93.7778 66.6438C94.089 66.3842 94.4904 66.2585 94.8942 66.2942C95.2979 66.33 95.671 66.5242 95.9318 66.8343C96.4689 67.4832 96.39 68.4513 95.7412 68.9884L92.2223 71.9222C91.5755 72.4707 90.6188 72.3898 90.0682 71.7316ZM36.0553 116.871C35.7957 116.56 35.67 116.158 35.7058 115.755C35.7415 115.351 35.9357 114.978 36.2459 114.717L39.7648 111.783C40.0761 111.524 40.4775 111.398 40.8812 111.434C41.2849 111.469 41.658 111.663 41.9189 111.974C42.456 112.622 42.3771 113.591 41.7283 114.128L38.2093 117.062C37.5605 117.599 36.5924 117.52 36.0553 116.871Z" fill="#B2947C"/>
<path d="M47.7158 85.3022L65.9997 91.8519" stroke="#563428" stroke-width="4.486" stroke-miterlimit="10" stroke-linecap="round"/>
<path d="M87.3908 74.0832L66.7544 91.7205" stroke="#563428" stroke-width="3.14" stroke-miterlimit="10" stroke-linecap="round"/>
<path d="M36.2844 35.743C44.0337 34.5707 51.55 32.0605 59.335 31.0941C60.4429 30.9601 61.5661 30.8471 62.6187 30.4635C63.6713 30.08 64.6587 29.3897 65.1304 28.3767C65.6021 27.3638 65.4263 26.0158 64.5417 25.3333C64.0369 24.938 63.3795 24.8168 62.7416 24.7393C59.3399 24.3535 55.94 25.2635 52.6136 26.0547C47.0467 27.3772 41.4167 28.4044 35.7463 29.1323C33.649 29.4031 30.5283 29.0745 28.8887 30.6206C27.7552 31.6899 27.2955 33.5844 28.4608 34.7955C30.27 36.6603 34.033 36.076 36.2844 35.743Z" fill="#B7855F"/>
<path opacity="0.75" d="M122.322 77.8523C121.859 77.827 121.392 76.7063 122.342 76.2701C123.532 75.7329 126.438 75.3685 127.871 75.3429C128.623 75.3298 129.123 76.7155 127.78 77.0554C126.674 77.3305 122.775 77.8796 122.322 77.8523ZM121.695 74.7213C120.743 74.8045 119.256 73.1664 120.853 72.7942C122.981 72.2941 124.987 72.0392 126.108 71.9147C127.462 71.7733 128.025 73.5841 126.61 73.8539C125.297 74.0942 122.811 74.6331 121.695 74.7213Z" fill="#FFF3E0"/>
<rect x="6" y="148" width="166.154" height="59.8154" rx="17.7231" fill="#A06841"/>
<rect x="6" y="149.108" width="166.154" height="25.4769" fill="#A06841"/>
<path d="M15.1059 169.718H18.5219V170.754H13.8319V160.996H15.1059V169.718ZM26.6789 163.082V170.754H25.4049V169.62C25.1622 170.012 24.8215 170.32 24.3829 170.544C23.9535 170.758 23.4775 170.866 22.9549 170.866C22.3575 170.866 21.8209 170.744 21.3449 170.502C20.8689 170.25 20.4909 169.876 20.2109 169.382C19.9402 168.887 19.8049 168.285 19.8049 167.576V163.082H21.0649V167.408C21.0649 168.164 21.2562 168.747 21.6389 169.158C22.0215 169.559 22.5442 169.76 23.2069 169.76C23.8882 169.76 24.4249 169.55 24.8169 169.13C25.2089 168.71 25.4049 168.098 25.4049 167.296V163.082H26.6789ZM32.834 170.754L31.014 167.898L29.264 170.754H27.934L30.412 166.946L27.934 163.082H29.376L31.196 165.924L32.932 163.082H34.262L31.798 166.876L34.276 170.754H32.834ZM42.3332 163.082V170.754H41.0592V169.62C40.8165 170.012 40.4758 170.32 40.0372 170.544C39.6078 170.758 39.1318 170.866 38.6092 170.866C38.0118 170.866 37.4752 170.744 36.9992 170.502C36.5232 170.25 36.1452 169.876 35.8652 169.382C35.5945 168.887 35.4592 168.285 35.4592 167.576V163.082H36.7192V167.408C36.7192 168.164 36.9105 168.747 37.2932 169.158C37.6758 169.559 38.1985 169.76 38.8612 169.76C39.5425 169.76 40.0792 169.55 40.4712 169.13C40.8632 168.71 41.0592 168.098 41.0592 167.296V163.082H42.3332ZM45.7583 164.328C45.9823 163.889 46.2996 163.548 46.7103 163.306C47.1303 163.063 47.6389 162.942 48.2363 162.942V164.258H47.9003C46.4723 164.258 45.7583 165.032 45.7583 166.582V170.754H44.4843V163.082H45.7583V164.328ZM56.3149 163.082L51.6949 174.366H50.3789L51.8909 170.67L48.7969 163.082H50.2109L52.6189 169.298L54.9989 163.082H56.3149ZM58.9116 168.99L57.3436 172.756H56.4896L57.5116 168.99H58.9116ZM67.1414 160.996C68.2054 160.996 69.1247 161.196 69.8994 161.598C70.6834 161.99 71.2807 162.554 71.6914 163.292C72.1114 164.029 72.3214 164.897 72.3214 165.896C72.3214 166.894 72.1114 167.762 71.6914 168.5C71.2807 169.228 70.6834 169.788 69.8994 170.18C69.1247 170.562 68.2054 170.754 67.1414 170.754H64.1034V160.996H67.1414ZM67.1414 169.704C68.4014 169.704 69.3627 169.372 70.0254 168.71C70.6881 168.038 71.0194 167.1 71.0194 165.896C71.0194 164.682 70.6834 163.735 70.0114 163.054C69.3487 162.372 68.3921 162.032 67.1414 162.032H65.3774V169.704H67.1414ZM74.6598 161.836C74.4172 161.836 74.2118 161.752 74.0438 161.584C73.8758 161.416 73.7918 161.21 73.7918 160.968C73.7918 160.725 73.8758 160.52 74.0438 160.352C74.2118 160.184 74.4172 160.1 74.6598 160.1C74.8932 160.1 75.0892 160.184 75.2478 160.352C75.4158 160.52 75.4998 160.725 75.4998 160.968C75.4998 161.21 75.4158 161.416 75.2478 161.584C75.0892 161.752 74.8932 161.836 74.6598 161.836ZM75.2758 163.082V170.754H74.0018V163.082H75.2758ZM80.6111 162.956C81.2738 162.956 81.8525 163.1 82.3471 163.39C82.8511 163.679 83.2245 164.043 83.4671 164.482V163.082H84.7551V170.922C84.7551 171.622 84.6058 172.242 84.3071 172.784C84.0085 173.334 83.5791 173.764 83.0191 174.072C82.4685 174.38 81.8245 174.534 81.0871 174.534C80.0791 174.534 79.2391 174.296 78.5671 173.82C77.8951 173.344 77.4985 172.695 77.3771 171.874H78.6371C78.7771 172.34 79.0665 172.714 79.5051 172.994C79.9438 173.283 80.4711 173.428 81.0871 173.428C81.7871 173.428 82.3565 173.208 82.7951 172.77C83.2431 172.331 83.4671 171.715 83.4671 170.922V169.312C83.2151 169.76 82.8418 170.133 82.3471 170.432C81.8525 170.73 81.2738 170.88 80.6111 170.88C79.9298 170.88 79.3091 170.712 78.7491 170.376C78.1985 170.04 77.7645 169.568 77.4471 168.962C77.1298 168.355 76.9711 167.664 76.9711 166.89C76.9711 166.106 77.1298 165.42 77.4471 164.832C77.7645 164.234 78.1985 163.772 78.7491 163.446C79.3091 163.119 79.9298 162.956 80.6111 162.956ZM83.4671 166.904C83.4671 166.325 83.3505 165.821 83.1171 165.392C82.8838 164.962 82.5665 164.636 82.1651 164.412C81.7731 164.178 81.3391 164.062 80.8631 164.062C80.3871 164.062 79.9531 164.174 79.5611 164.398C79.1691 164.622 78.8565 164.948 78.6231 165.378C78.3898 165.807 78.2731 166.311 78.2731 166.89C78.2731 167.478 78.3898 167.991 78.6231 168.43C78.8565 168.859 79.1691 169.19 79.5611 169.424C79.9531 169.648 80.3871 169.76 80.8631 169.76C81.3391 169.76 81.7731 169.648 82.1651 169.424C82.5665 169.19 82.8838 168.859 83.1171 168.43C83.3505 167.991 83.4671 167.482 83.4671 166.904ZM87.5661 161.836C87.3234 161.836 87.1181 161.752 86.9501 161.584C86.7821 161.416 86.6981 161.21 86.6981 160.968C86.6981 160.725 86.7821 160.52 86.9501 160.352C87.1181 160.184 87.3234 160.1 87.5661 160.1C87.7994 160.1 87.9954 160.184 88.1541 160.352C88.3221 160.52 88.4061 160.725 88.4061 160.968C88.4061 161.21 88.3221 161.416 88.1541 161.584C87.9954 161.752 87.7994 161.836 87.5661 161.836ZM88.1821 163.082V170.754H86.9081V163.082H88.1821ZM91.9074 164.132V168.654C91.9074 169.027 91.9867 169.293 92.1454 169.452C92.3041 169.601 92.5794 169.676 92.9714 169.676H93.9094V170.754H92.7614C92.0521 170.754 91.5201 170.59 91.1654 170.264C90.8107 169.937 90.6334 169.4 90.6334 168.654V164.132H89.6394V163.082H90.6334V161.15H91.9074V163.082H93.9094V164.132H91.9074ZM94.977 166.89C94.977 166.106 95.1357 165.42 95.453 164.832C95.7703 164.234 96.2043 163.772 96.755 163.446C97.315 163.119 97.9357 162.956 98.617 162.956C99.289 162.956 99.8723 163.1 100.367 163.39C100.862 163.679 101.23 164.043 101.473 164.482V163.082H102.761V170.754H101.473V169.326C101.221 169.774 100.843 170.147 100.339 170.446C99.8443 170.735 99.2657 170.88 98.603 170.88C97.9217 170.88 97.3057 170.712 96.755 170.376C96.2043 170.04 95.7703 169.568 95.453 168.962C95.1357 168.355 94.977 167.664 94.977 166.89ZM101.473 166.904C101.473 166.325 101.356 165.821 101.123 165.392C100.89 164.962 100.572 164.636 100.171 164.412C99.779 164.178 99.345 164.062 98.869 164.062C98.393 164.062 97.959 164.174 97.567 164.398C97.175 164.622 96.8623 164.948 96.629 165.378C96.3957 165.807 96.279 166.311 96.279 166.89C96.279 167.478 96.3957 167.991 96.629 168.43C96.8623 168.859 97.175 169.19 97.567 169.424C97.959 169.648 98.393 169.76 98.869 169.76C99.345 169.76 99.779 169.648 100.171 169.424C100.572 169.19 100.89 168.859 101.123 168.43C101.356 167.991 101.473 167.482 101.473 166.904ZM106.188 160.394V170.754H104.914V160.394H106.188ZM109.675 168.99L108.107 172.756H107.253L108.275 168.99H109.675ZM119.291 170.852C118.386 170.852 117.56 170.642 116.813 170.222C116.066 169.792 115.474 169.2 115.035 168.444C114.606 167.678 114.391 166.82 114.391 165.868C114.391 164.916 114.606 164.062 115.035 163.306C115.474 162.54 116.066 161.948 116.813 161.528C117.56 161.098 118.386 160.884 119.291 160.884C120.206 160.884 121.036 161.098 121.783 161.528C122.53 161.948 123.118 162.536 123.547 163.292C123.976 164.048 124.191 164.906 124.191 165.868C124.191 166.829 123.976 167.688 123.547 168.444C123.118 169.2 122.53 169.792 121.783 170.222C121.036 170.642 120.206 170.852 119.291 170.852ZM119.291 169.746C119.972 169.746 120.584 169.587 121.125 169.27C121.676 168.952 122.105 168.5 122.413 167.912C122.73 167.324 122.889 166.642 122.889 165.868C122.889 165.084 122.73 164.402 122.413 163.824C122.105 163.236 121.68 162.783 121.139 162.466C120.598 162.148 119.982 161.99 119.291 161.99C118.6 161.99 117.984 162.148 117.443 162.466C116.902 162.783 116.472 163.236 116.155 163.824C115.847 164.402 115.693 165.084 115.693 165.868C115.693 166.642 115.847 167.324 116.155 167.912C116.472 168.5 116.902 168.952 117.443 169.27C117.994 169.587 118.61 169.746 119.291 169.746ZM128.967 170.852C128.323 170.852 127.744 170.74 127.231 170.516C126.727 170.282 126.33 169.965 126.041 169.564C125.752 169.153 125.602 168.682 125.593 168.15H126.951C126.998 168.607 127.184 168.994 127.511 169.312C127.847 169.62 128.332 169.774 128.967 169.774C129.574 169.774 130.05 169.624 130.395 169.326C130.75 169.018 130.927 168.626 130.927 168.15C130.927 167.776 130.824 167.473 130.619 167.24C130.414 167.006 130.157 166.829 129.849 166.708C129.541 166.586 129.126 166.456 128.603 166.316C127.959 166.148 127.441 165.98 127.049 165.812C126.666 165.644 126.335 165.382 126.055 165.028C125.784 164.664 125.649 164.178 125.649 163.572C125.649 163.04 125.784 162.568 126.055 162.158C126.326 161.747 126.704 161.43 127.189 161.206C127.684 160.982 128.248 160.87 128.883 160.87C129.798 160.87 130.544 161.098 131.123 161.556C131.711 162.013 132.042 162.62 132.117 163.376H130.717C130.67 163.002 130.474 162.676 130.129 162.396C129.784 162.106 129.326 161.962 128.757 161.962C128.225 161.962 127.791 162.102 127.455 162.382C127.119 162.652 126.951 163.035 126.951 163.53C126.951 163.884 127.049 164.174 127.245 164.398C127.45 164.622 127.698 164.794 127.987 164.916C128.286 165.028 128.701 165.158 129.233 165.308C129.877 165.485 130.395 165.662 130.787 165.84C131.179 166.008 131.515 166.274 131.795 166.638C132.075 166.992 132.215 167.478 132.215 168.094C132.215 168.57 132.089 169.018 131.837 169.438C131.585 169.858 131.212 170.198 130.717 170.46C130.222 170.721 129.639 170.852 128.967 170.852ZM26.0959 181.996L23.2679 191.754H21.8399L19.5719 183.9L17.2199 191.754L15.8059 191.768L13.0759 181.996H14.4339L16.5619 190.27L18.9139 181.996H20.3419L22.5819 190.242L24.7239 181.996H26.0959ZM27.0141 187.89C27.0141 187.106 27.1728 186.42 27.4901 185.832C27.8074 185.234 28.2414 184.772 28.7921 184.446C29.3521 184.119 29.9728 183.956 30.6541 183.956C31.3261 183.956 31.9094 184.1 32.4041 184.39C32.8988 184.679 33.2674 185.043 33.5101 185.482V184.082H34.7981V191.754H33.5101V190.326C33.2581 190.774 32.8801 191.147 32.3761 191.446C31.8814 191.735 31.3028 191.88 30.6401 191.88C29.9588 191.88 29.3428 191.712 28.7921 191.376C28.2414 191.04 27.8074 190.568 27.4901 189.962C27.1728 189.355 27.0141 188.664 27.0141 187.89ZM33.5101 187.904C33.5101 187.325 33.3934 186.821 33.1601 186.392C32.9268 185.962 32.6094 185.636 32.2081 185.412C31.8161 185.178 31.3821 185.062 30.9061 185.062C30.4301 185.062 29.9961 185.174 29.6041 185.398C29.2121 185.622 28.8994 185.948 28.6661 186.378C28.4328 186.807 28.3161 187.311 28.3161 187.89C28.3161 188.478 28.4328 188.991 28.6661 189.43C28.8994 189.859 29.2121 190.19 29.6041 190.424C29.9961 190.648 30.4301 190.76 30.9061 190.76C31.3821 190.76 31.8161 190.648 32.2081 190.424C32.6094 190.19 32.9268 189.859 33.1601 189.43C33.3934 188.991 33.5101 188.482 33.5101 187.904ZM38.505 185.132V189.654C38.505 190.027 38.5844 190.293 38.743 190.452C38.9017 190.601 39.177 190.676 39.569 190.676H40.507V191.754H39.359C38.6497 191.754 38.1177 191.59 37.763 191.264C37.4084 190.937 37.231 190.4 37.231 189.654V185.132H36.237V184.082H37.231V182.15H38.505V184.082H40.507V185.132H38.505ZM41.5747 187.904C41.5747 187.11 41.7333 186.42 42.0507 185.832C42.368 185.234 42.8067 184.772 43.3667 184.446C43.936 184.119 44.5847 183.956 45.3127 183.956C46.2553 183.956 47.03 184.184 47.6367 184.642C48.2527 185.099 48.6587 185.734 48.8547 186.546H47.4827C47.352 186.079 47.0953 185.71 46.7127 185.44C46.3393 185.169 45.8727 185.034 45.3127 185.034C44.5847 185.034 43.9967 185.286 43.5487 185.79C43.1007 186.284 42.8767 186.989 42.8767 187.904C42.8767 188.828 43.1007 189.542 43.5487 190.046C43.9967 190.55 44.5847 190.802 45.3127 190.802C45.8727 190.802 46.3393 190.671 46.7127 190.41C47.086 190.148 47.3427 189.775 47.4827 189.29H48.8547C48.6493 190.074 48.2387 190.704 47.6227 191.18C47.0067 191.646 46.2367 191.88 45.3127 191.88C44.5847 191.88 43.936 191.716 43.3667 191.39C42.8067 191.063 42.368 190.601 42.0507 190.004C41.7333 189.406 41.5747 188.706 41.5747 187.904ZM54.3626 183.942C54.9412 183.942 55.4639 184.068 55.9306 184.32C56.3972 184.562 56.7612 184.931 57.0226 185.426C57.2932 185.92 57.4286 186.522 57.4286 187.232V191.754H56.1686V187.414C56.1686 186.648 55.9772 186.065 55.5946 185.664C55.2119 185.253 54.6892 185.048 54.0266 185.048C53.3546 185.048 52.8179 185.258 52.4166 185.678C52.0246 186.098 51.8286 186.709 51.8286 187.512V191.754H50.5546V181.394H51.8286V185.174C52.0806 184.782 52.4259 184.478 52.8646 184.264C53.3126 184.049 53.8119 183.942 54.3626 183.942ZM66.5096 187.624C66.5096 187.866 66.4956 188.123 66.4676 188.394H60.3356C60.3823 189.15 60.639 189.742 61.1056 190.172C61.5816 190.592 62.1556 190.802 62.8276 190.802C63.3783 190.802 63.8356 190.676 64.1996 190.424C64.573 190.162 64.8343 189.817 64.9836 189.388H66.3556C66.1503 190.125 65.7396 190.727 65.1236 191.194C64.5076 191.651 63.7423 191.88 62.8276 191.88C62.0996 191.88 61.4463 191.716 60.8676 191.39C60.2983 191.063 59.8503 190.601 59.5236 190.004C59.197 189.397 59.0336 188.697 59.0336 187.904C59.0336 187.11 59.1923 186.415 59.5096 185.818C59.827 185.22 60.2703 184.763 60.8396 184.446C61.4183 184.119 62.081 183.956 62.8276 183.956C63.5556 183.956 64.1996 184.114 64.7596 184.432C65.3196 184.749 65.749 185.188 66.0476 185.748C66.3556 186.298 66.5096 186.924 66.5096 187.624ZM65.1936 187.358C65.1936 186.872 65.0863 186.457 64.8716 186.112C64.657 185.757 64.363 185.491 63.9896 185.314C63.6256 185.127 63.2196 185.034 62.7716 185.034C62.1276 185.034 61.577 185.239 61.1196 185.65C60.6716 186.06 60.415 186.63 60.3496 187.358H65.1936ZM70.9073 191.88C70.3193 191.88 69.7919 191.782 69.3253 191.586C68.8586 191.38 68.4899 191.1 68.2193 190.746C67.9486 190.382 67.7993 189.966 67.7713 189.5H69.0873C69.1246 189.882 69.3019 190.195 69.6193 190.438C69.9459 190.68 70.3706 190.802 70.8933 190.802C71.3786 190.802 71.7613 190.694 72.0413 190.48C72.3213 190.265 72.4613 189.994 72.4613 189.668C72.4613 189.332 72.3119 189.084 72.0133 188.926C71.7146 188.758 71.2526 188.594 70.6273 188.436C70.0579 188.286 69.5913 188.137 69.2273 187.988C68.8726 187.829 68.5646 187.6 68.3033 187.302C68.0513 186.994 67.9253 186.592 67.9253 186.098C67.9253 185.706 68.0419 185.346 68.2753 185.02C68.5086 184.693 68.8399 184.436 69.2693 184.25C69.6986 184.054 70.1886 183.956 70.7393 183.956C71.5886 183.956 72.2746 184.17 72.7973 184.6C73.3199 185.029 73.5999 185.617 73.6373 186.364H72.3633C72.3353 185.962 72.1719 185.64 71.8733 185.398C71.5839 185.155 71.1919 185.034 70.6973 185.034C70.2399 185.034 69.8759 185.132 69.6053 185.328C69.3346 185.524 69.1993 185.78 69.1993 186.098C69.1993 186.35 69.2786 186.56 69.4373 186.728C69.6053 186.886 69.8106 187.017 70.0533 187.12C70.3053 187.213 70.6506 187.32 71.0893 187.442C71.6399 187.591 72.0879 187.74 72.4333 187.89C72.7786 188.03 73.0726 188.244 73.3153 188.534C73.5673 188.823 73.6979 189.201 73.7073 189.668C73.7073 190.088 73.5906 190.466 73.3573 190.802C73.1239 191.138 72.7926 191.404 72.3633 191.6C71.9433 191.786 71.4579 191.88 70.9073 191.88Z" fill="white"/>
</g>
<defs>
<clipPath id="clip0_3260_767">
<rect width="174.02" height="206.03" fill="white"/>
</clipPath>
</defs>
</svg>
