<svg width="167" height="198" viewBox="0 0 167 198" fill="none" xmlns="http://www.w3.org/2000/svg">
<g clip-path="url(#clip0_3804_339)">
<rect width="167" height="198" rx="17.72" fill="white"/>
<rect x="0.444471" y="0.553846" width="165.046" height="201.6" rx="17.1692" fill="#F0FFFE" stroke="#009688" stroke-width="1.10769"/>
<path d="M128.38 70.7915C141.04 56.2482 144.803 36.9787 136.788 27.7543C128.771 18.5495 111.998 22.8685 99.3412 37.4184C88.4667 49.9195 84.1674 65.8862 88.2428 75.99L86.548 77.9443L73.8937 63.401C81.3446 54.8443 80.0012 49.343 80.0012 49.343L53.5079 18.9045L26 50.509L52.499 80.9637C52.499 80.9637 57.7534 81.9441 64.7197 73.9412L77.3797 88.4781L74.6674 91.6017L71.839 88.3575L41.4686 123.249L53.6865 137.307L84.0625 102.406L81.2284 99.1551L83.9548 96.038L89.1724 102.031L87.3926 104.073L115.473 136.352L128.204 121.714L100.121 89.4422L98.3436 91.4975L93.1147 85.4977L94.8265 83.5434C103.607 88.2338 117.505 83.2991 128.38 70.7915ZM134.238 48.2583L107.747 78.7L104.684 75.1887L131.185 44.7405L134.238 48.2583ZM128.124 41.2228L101.628 71.6775L98.5732 68.1532L125.075 37.7246L128.124 41.2228ZM118.956 30.6858L122.008 34.197L95.5208 64.6517L92.46 61.1275L118.956 30.6858Z" fill="#FB8C00"/>
<rect y="138" width="166.154" height="59.8154" rx="17.7231" fill="#009688"/>
<rect y="139.108" width="166.154" height="25.4769" fill="#009688"/>
<path d="M22.37 160.266L18.352 155.814V160.266H17.078V150.508H18.352V155.03L22.384 150.508H23.994L19.57 155.394L24.036 160.266H22.37ZM26.1169 151.348C25.8742 151.348 25.6689 151.264 25.5009 151.096C25.3329 150.928 25.2489 150.723 25.2489 150.48C25.2489 150.238 25.3329 150.032 25.5009 149.864C25.6689 149.696 25.8742 149.612 26.1169 149.612C26.3502 149.612 26.5462 149.696 26.7049 149.864C26.8729 150.032 26.9569 150.238 26.9569 150.48C26.9569 150.723 26.8729 150.928 26.7049 151.096C26.5462 151.264 26.3502 151.348 26.1169 151.348ZM26.7329 152.594V160.266H25.4589V152.594H26.7329ZM30.4582 153.644V158.166C30.4582 158.54 30.5375 158.806 30.6962 158.964C30.8548 159.114 31.1302 159.188 31.5222 159.188H32.4602V160.266H31.3122C30.6028 160.266 30.0708 160.103 29.7162 159.776C29.3615 159.45 29.1842 158.913 29.1842 158.166V153.644H28.1902V152.594H29.1842V150.662H30.4582V152.594H32.4602V153.644H30.4582ZM33.5278 156.416C33.5278 155.623 33.6864 154.932 34.0038 154.344C34.3211 153.747 34.7598 153.285 35.3198 152.958C35.8891 152.632 36.5378 152.468 37.2658 152.468C38.2084 152.468 38.9831 152.697 39.5898 153.154C40.2058 153.612 40.6118 154.246 40.8078 155.058H39.4358C39.3051 154.592 39.0484 154.223 38.6658 153.952C38.2924 153.682 37.8258 153.546 37.2658 153.546C36.5378 153.546 35.9498 153.798 35.5018 154.302C35.0538 154.797 34.8298 155.502 34.8298 156.416C34.8298 157.34 35.0538 158.054 35.5018 158.558C35.9498 159.062 36.5378 159.314 37.2658 159.314C37.8258 159.314 38.2924 159.184 38.6658 158.922C39.0391 158.661 39.2958 158.288 39.4358 157.802H40.8078C40.6024 158.586 40.1918 159.216 39.5758 159.692C38.9598 160.159 38.1898 160.392 37.2658 160.392C36.5378 160.392 35.8891 160.229 35.3198 159.902C34.7598 159.576 34.3211 159.114 34.0038 158.516C33.6864 157.919 33.5278 157.219 33.5278 156.416ZM46.3157 152.454C46.8944 152.454 47.417 152.58 47.8837 152.832C48.3504 153.075 48.7144 153.444 48.9757 153.938C49.2464 154.433 49.3817 155.035 49.3817 155.744V160.266H48.1217V155.926C48.1217 155.161 47.9304 154.578 47.5477 154.176C47.165 153.766 46.6424 153.56 45.9797 153.56C45.3077 153.56 44.771 153.77 44.3697 154.19C43.9777 154.61 43.7817 155.222 43.7817 156.024V160.266H42.5077V149.906H43.7817V153.686C44.0337 153.294 44.379 152.991 44.8177 152.776C45.2657 152.562 45.765 152.454 46.3157 152.454ZM58.4628 156.136C58.4628 156.379 58.4488 156.636 58.4208 156.906H52.2888C52.3354 157.662 52.5921 158.255 53.0588 158.684C53.5348 159.104 54.1088 159.314 54.7808 159.314C55.3314 159.314 55.7888 159.188 56.1528 158.936C56.5261 158.675 56.7874 158.33 56.9368 157.9H58.3088C58.1034 158.638 57.6928 159.24 57.0768 159.706C56.4608 160.164 55.6954 160.392 54.7808 160.392C54.0528 160.392 53.3994 160.229 52.8208 159.902C52.2514 159.576 51.8034 159.114 51.4768 158.516C51.1501 157.91 50.9868 157.21 50.9868 156.416C50.9868 155.623 51.1454 154.928 51.4628 154.33C51.7801 153.733 52.2234 153.276 52.7928 152.958C53.3714 152.632 54.0341 152.468 54.7808 152.468C55.5088 152.468 56.1528 152.627 56.7128 152.944C57.2728 153.262 57.7021 153.7 58.0008 154.26C58.3088 154.811 58.4628 155.436 58.4628 156.136ZM57.1468 155.87C57.1468 155.385 57.0394 154.97 56.8248 154.624C56.6101 154.27 56.3161 154.004 55.9428 153.826C55.5788 153.64 55.1728 153.546 54.7248 153.546C54.0808 153.546 53.5301 153.752 53.0728 154.162C52.6248 154.573 52.3681 155.142 52.3028 155.87H57.1468ZM63.8824 152.454C64.8157 152.454 65.5717 152.739 66.1504 153.308C66.7291 153.868 67.0184 154.68 67.0184 155.744V160.266H65.7584V155.926C65.7584 155.161 65.5671 154.578 65.1844 154.176C64.8017 153.766 64.2791 153.56 63.6164 153.56C62.9444 153.56 62.4077 153.77 62.0064 154.19C61.6144 154.61 61.4184 155.222 61.4184 156.024V160.266H60.1444V152.594H61.4184V153.686C61.6704 153.294 62.0111 152.991 62.4404 152.776C62.8791 152.562 63.3597 152.454 63.8824 152.454ZM74.0779 150.508V156.682C74.0779 157.55 74.2879 158.194 74.7079 158.614C75.1372 159.034 75.7299 159.244 76.4859 159.244C77.2326 159.244 77.8159 159.034 78.2359 158.614C78.6652 158.194 78.8799 157.55 78.8799 156.682V150.508H80.1539V156.668C80.1539 157.48 79.9906 158.166 79.6639 158.726C79.3372 159.277 78.8939 159.688 78.3339 159.958C77.7832 160.229 77.1626 160.364 76.4719 160.364C75.7812 160.364 75.1559 160.229 74.5959 159.958C74.0452 159.688 73.6066 159.277 73.2799 158.726C72.9626 158.166 72.8039 157.48 72.8039 156.668V150.508H74.0779ZM83.8332 153.644V158.166C83.8332 158.54 83.9125 158.806 84.0712 158.964C84.2298 159.114 84.5052 159.188 84.8972 159.188H85.8352V160.266H84.6872C83.9778 160.266 83.4458 160.103 83.0912 159.776C82.7365 159.45 82.5592 158.913 82.5592 158.166V153.644H81.5652V152.594H82.5592V150.662H83.8332V152.594H85.8352V153.644H83.8332ZM94.3788 156.136C94.3788 156.379 94.3648 156.636 94.3368 156.906H88.2048C88.2514 157.662 88.5081 158.255 88.9748 158.684C89.4508 159.104 90.0248 159.314 90.6968 159.314C91.2474 159.314 91.7048 159.188 92.0688 158.936C92.4421 158.675 92.7034 158.33 92.8528 157.9H94.2248C94.0194 158.638 93.6088 159.24 92.9928 159.706C92.3768 160.164 91.6114 160.392 90.6968 160.392C89.9688 160.392 89.3154 160.229 88.7368 159.902C88.1674 159.576 87.7194 159.114 87.3928 158.516C87.0661 157.91 86.9028 157.21 86.9028 156.416C86.9028 155.623 87.0614 154.928 87.3788 154.33C87.6961 153.733 88.1394 153.276 88.7088 152.958C89.2874 152.632 89.9501 152.468 90.6968 152.468C91.4248 152.468 92.0688 152.627 92.6288 152.944C93.1888 153.262 93.6181 153.7 93.9168 154.26C94.2248 154.811 94.3788 155.436 94.3788 156.136ZM93.0628 155.87C93.0628 155.385 92.9554 154.97 92.7408 154.624C92.5261 154.27 92.2321 154.004 91.8588 153.826C91.4948 153.64 91.0888 153.546 90.6408 153.546C89.9968 153.546 89.4461 153.752 88.9888 154.162C88.5408 154.573 88.2841 155.142 88.2188 155.87H93.0628ZM99.7984 152.454C100.732 152.454 101.488 152.739 102.066 153.308C102.645 153.868 102.934 154.68 102.934 155.744V160.266H101.674V155.926C101.674 155.161 101.483 154.578 101.1 154.176C100.718 153.766 100.195 153.56 99.5324 153.56C98.8604 153.56 98.3238 153.77 97.9224 154.19C97.5304 154.61 97.3344 155.222 97.3344 156.024V160.266H96.0604V152.594H97.3344V153.686C97.5864 153.294 97.9271 152.991 98.3564 152.776C98.7951 152.562 99.2758 152.454 99.7984 152.454ZM107.732 160.392C107.144 160.392 106.616 160.294 106.15 160.098C105.683 159.893 105.314 159.613 105.044 159.258C104.773 158.894 104.624 158.479 104.596 158.012H105.912C105.949 158.395 106.126 158.708 106.444 158.95C106.77 159.193 107.195 159.314 107.718 159.314C108.203 159.314 108.586 159.207 108.866 158.992C109.146 158.778 109.286 158.507 109.286 158.18C109.286 157.844 109.136 157.597 108.838 157.438C108.539 157.27 108.077 157.107 107.452 156.948C106.882 156.799 106.416 156.65 106.052 156.5C105.697 156.342 105.389 156.113 105.128 155.814C104.876 155.506 104.75 155.105 104.75 154.61C104.75 154.218 104.866 153.859 105.1 153.532C105.333 153.206 105.664 152.949 106.094 152.762C106.523 152.566 107.013 152.468 107.564 152.468C108.413 152.468 109.099 152.683 109.622 153.112C110.144 153.542 110.424 154.13 110.462 154.876H109.188C109.16 154.475 108.996 154.153 108.698 153.91C108.408 153.668 108.016 153.546 107.522 153.546C107.064 153.546 106.7 153.644 106.43 153.84C106.159 154.036 106.024 154.293 106.024 154.61C106.024 154.862 106.103 155.072 106.262 155.24C106.43 155.399 106.635 155.53 106.878 155.632C107.13 155.726 107.475 155.833 107.914 155.954C108.464 156.104 108.912 156.253 109.258 156.402C109.603 156.542 109.897 156.757 110.14 157.046C110.392 157.336 110.522 157.714 110.532 158.18C110.532 158.6 110.415 158.978 110.182 159.314C109.948 159.65 109.617 159.916 109.188 160.112C108.768 160.299 108.282 160.392 107.732 160.392ZM112.988 151.348C112.745 151.348 112.54 151.264 112.372 151.096C112.204 150.928 112.12 150.723 112.12 150.48C112.12 150.238 112.204 150.032 112.372 149.864C112.54 149.696 112.745 149.612 112.988 149.612C113.221 149.612 113.417 149.696 113.576 149.864C113.744 150.032 113.828 150.238 113.828 150.48C113.828 150.723 113.744 150.928 113.576 151.096C113.417 151.264 113.221 151.348 112.988 151.348ZM113.604 152.594V160.266H112.33V152.594H113.604ZM117.049 149.906V160.266H115.775V149.906H117.049ZM121.937 160.392C121.349 160.392 120.821 160.294 120.355 160.098C119.888 159.893 119.519 159.613 119.249 159.258C118.978 158.894 118.829 158.479 118.801 158.012H120.117C120.154 158.395 120.331 158.708 120.649 158.95C120.975 159.193 121.4 159.314 121.923 159.314C122.408 159.314 122.791 159.207 123.071 158.992C123.351 158.778 123.491 158.507 123.491 158.18C123.491 157.844 123.341 157.597 123.043 157.438C122.744 157.27 122.282 157.107 121.657 156.948C121.087 156.799 120.621 156.65 120.257 156.5C119.902 156.342 119.594 156.113 119.333 155.814C119.081 155.506 118.955 155.105 118.955 154.61C118.955 154.218 119.071 153.859 119.305 153.532C119.538 153.206 119.869 152.949 120.299 152.762C120.728 152.566 121.218 152.468 121.769 152.468C122.618 152.468 123.304 152.683 123.827 153.112C124.349 153.542 124.629 154.13 124.667 154.876H123.393C123.365 154.475 123.201 154.153 122.903 153.91C122.613 153.668 122.221 153.546 121.727 153.546C121.269 153.546 120.905 153.644 120.635 153.84C120.364 154.036 120.229 154.293 120.229 154.61C120.229 154.862 120.308 155.072 120.467 155.24C120.635 155.399 120.84 155.53 121.083 155.632C121.335 155.726 121.68 155.833 122.119 155.954C122.669 156.104 123.117 156.253 123.463 156.402C123.808 156.542 124.102 156.757 124.345 157.046C124.597 157.336 124.727 157.714 124.737 158.18C124.737 158.6 124.62 158.978 124.387 159.314C124.153 159.65 123.822 159.916 123.393 160.112C122.973 160.299 122.487 160.392 121.937 160.392ZM137.757 160.266L136.483 158.978C136.007 159.473 135.499 159.842 134.957 160.084C134.416 160.318 133.805 160.434 133.123 160.434C132.451 160.434 131.854 160.313 131.331 160.07C130.818 159.828 130.417 159.482 130.127 159.034C129.847 158.586 129.707 158.064 129.707 157.466C129.707 156.785 129.899 156.188 130.281 155.674C130.673 155.152 131.247 154.741 132.003 154.442C131.705 154.088 131.49 153.761 131.359 153.462C131.229 153.164 131.163 152.837 131.163 152.482C131.163 152.072 131.266 151.703 131.471 151.376C131.686 151.04 131.989 150.779 132.381 150.592C132.773 150.406 133.226 150.312 133.739 150.312C134.243 150.312 134.682 150.41 135.055 150.606C135.429 150.802 135.709 151.078 135.895 151.432C136.082 151.778 136.166 152.165 136.147 152.594H134.873C134.883 152.212 134.775 151.913 134.551 151.698C134.327 151.474 134.038 151.362 133.683 151.362C133.31 151.362 133.007 151.47 132.773 151.684C132.549 151.89 132.437 152.156 132.437 152.482C132.437 152.762 132.512 153.033 132.661 153.294C132.82 153.556 133.081 153.878 133.445 154.26L136.357 157.186L136.609 156.794L137.561 155.198H138.933L137.785 157.186C137.627 157.466 137.44 157.76 137.225 158.068L139.423 160.266H137.757ZM133.123 159.342C133.627 159.342 134.08 159.244 134.481 159.048C134.892 158.852 135.279 158.549 135.643 158.138L132.773 155.254C131.579 155.712 130.981 156.435 130.981 157.424C130.981 157.975 131.177 158.432 131.569 158.796C131.971 159.16 132.489 159.342 133.123 159.342ZM22.37 181.266L18.352 176.814V181.266H17.078V171.508H18.352V176.03L22.384 171.508H23.994L19.57 176.394L24.036 181.266H22.37ZM26.1169 172.348C25.8742 172.348 25.6689 172.264 25.5009 172.096C25.3329 171.928 25.2489 171.723 25.2489 171.48C25.2489 171.238 25.3329 171.032 25.5009 170.864C25.6689 170.696 25.8742 170.612 26.1169 170.612C26.3502 170.612 26.5462 170.696 26.7049 170.864C26.8729 171.032 26.9569 171.238 26.9569 171.48C26.9569 171.723 26.8729 171.928 26.7049 172.096C26.5462 172.264 26.3502 172.348 26.1169 172.348ZM26.7329 173.594V181.266H25.4589V173.594H26.7329ZM30.4582 174.644V179.166C30.4582 179.54 30.5375 179.806 30.6962 179.964C30.8548 180.114 31.1302 180.188 31.5222 180.188H32.4602V181.266H31.3122C30.6028 181.266 30.0708 181.103 29.7162 180.776C29.3615 180.45 29.1842 179.913 29.1842 179.166V174.644H28.1902V173.594H29.1842V171.662H30.4582V173.594H32.4602V174.644H30.4582ZM33.5278 177.416C33.5278 176.623 33.6864 175.932 34.0038 175.344C34.3211 174.747 34.7598 174.285 35.3198 173.958C35.8891 173.632 36.5378 173.468 37.2658 173.468C38.2084 173.468 38.9831 173.697 39.5898 174.154C40.2058 174.612 40.6118 175.246 40.8078 176.058H39.4358C39.3051 175.592 39.0484 175.223 38.6658 174.952C38.2924 174.682 37.8258 174.546 37.2658 174.546C36.5378 174.546 35.9498 174.798 35.5018 175.302C35.0538 175.797 34.8298 176.502 34.8298 177.416C34.8298 178.34 35.0538 179.054 35.5018 179.558C35.9498 180.062 36.5378 180.314 37.2658 180.314C37.8258 180.314 38.2924 180.184 38.6658 179.922C39.0391 179.661 39.2958 179.288 39.4358 178.802H40.8078C40.6024 179.586 40.1918 180.216 39.5758 180.692C38.9598 181.159 38.1898 181.392 37.2658 181.392C36.5378 181.392 35.8891 181.229 35.3198 180.902C34.7598 180.576 34.3211 180.114 34.0038 179.516C33.6864 178.919 33.5278 178.219 33.5278 177.416ZM46.3157 173.454C46.8944 173.454 47.417 173.58 47.8837 173.832C48.3504 174.075 48.7144 174.444 48.9757 174.938C49.2464 175.433 49.3817 176.035 49.3817 176.744V181.266H48.1217V176.926C48.1217 176.161 47.9304 175.578 47.5477 175.176C47.165 174.766 46.6424 174.56 45.9797 174.56C45.3077 174.56 44.771 174.77 44.3697 175.19C43.9777 175.61 43.7817 176.222 43.7817 177.024V181.266H42.5077V170.906H43.7817V174.686C44.0337 174.294 44.379 173.991 44.8177 173.776C45.2657 173.562 45.765 173.454 46.3157 173.454ZM58.4628 177.136C58.4628 177.379 58.4488 177.636 58.4208 177.906H52.2888C52.3354 178.662 52.5921 179.255 53.0588 179.684C53.5348 180.104 54.1088 180.314 54.7808 180.314C55.3314 180.314 55.7888 180.188 56.1528 179.936C56.5261 179.675 56.7874 179.33 56.9368 178.9H58.3088C58.1034 179.638 57.6928 180.24 57.0768 180.706C56.4608 181.164 55.6954 181.392 54.7808 181.392C54.0528 181.392 53.3994 181.229 52.8208 180.902C52.2514 180.576 51.8034 180.114 51.4768 179.516C51.1501 178.91 50.9868 178.21 50.9868 177.416C50.9868 176.623 51.1454 175.928 51.4628 175.33C51.7801 174.733 52.2234 174.276 52.7928 173.958C53.3714 173.632 54.0341 173.468 54.7808 173.468C55.5088 173.468 56.1528 173.627 56.7128 173.944C57.2728 174.262 57.7021 174.7 58.0008 175.26C58.3088 175.811 58.4628 176.436 58.4628 177.136ZM57.1468 176.87C57.1468 176.385 57.0394 175.97 56.8248 175.624C56.6101 175.27 56.3161 175.004 55.9428 174.826C55.5788 174.64 55.1728 174.546 54.7248 174.546C54.0808 174.546 53.5301 174.752 53.0728 175.162C52.6248 175.573 52.3681 176.142 52.3028 176.87H57.1468ZM63.8824 173.454C64.8157 173.454 65.5717 173.739 66.1504 174.308C66.7291 174.868 67.0184 175.68 67.0184 176.744V181.266H65.7584V176.926C65.7584 176.161 65.5671 175.578 65.1844 175.176C64.8017 174.766 64.2791 174.56 63.6164 174.56C62.9444 174.56 62.4077 174.77 62.0064 175.19C61.6144 175.61 61.4184 176.222 61.4184 177.024V181.266H60.1444V173.594H61.4184V174.686C61.6704 174.294 62.0111 173.991 62.4404 173.776C62.8791 173.562 63.3597 173.454 63.8824 173.454ZM79.3195 173.594L76.9255 181.266H75.6095L73.7615 175.176L71.9135 181.266H70.5975L68.1895 173.594H69.4915L71.2555 180.034L73.1595 173.594H74.4615L76.3235 180.048L78.0595 173.594H79.3195ZM80.1079 177.402C80.1079 176.618 80.2665 175.932 80.5839 175.344C80.9012 174.747 81.3352 174.285 81.8859 173.958C82.4459 173.632 83.0665 173.468 83.7479 173.468C84.4199 173.468 85.0032 173.613 85.4979 173.902C85.9925 174.192 86.3612 174.556 86.6039 174.994V173.594H87.8919V181.266H86.6039V179.838C86.3519 180.286 85.9739 180.66 85.4699 180.958C84.9752 181.248 84.3965 181.392 83.7339 181.392C83.0525 181.392 82.4365 181.224 81.8859 180.888C81.3352 180.552 80.9012 180.081 80.5839 179.474C80.2665 178.868 80.1079 178.177 80.1079 177.402ZM86.6039 177.416C86.6039 176.838 86.4872 176.334 86.2539 175.904C86.0205 175.475 85.7032 175.148 85.3019 174.924C84.9099 174.691 84.4759 174.574 83.9999 174.574C83.5239 174.574 83.0899 174.686 82.6979 174.91C82.3059 175.134 81.9932 175.461 81.7599 175.89C81.5265 176.32 81.4099 176.824 81.4099 177.402C81.4099 177.99 81.5265 178.504 81.7599 178.942C81.9932 179.372 82.3059 179.703 82.6979 179.936C83.0899 180.16 83.5239 180.272 83.9999 180.272C84.4759 180.272 84.9099 180.16 85.3019 179.936C85.7032 179.703 86.0205 179.372 86.2539 178.942C86.4872 178.504 86.6039 177.995 86.6039 177.416ZM91.3188 174.84C91.5428 174.402 91.8601 174.061 92.2708 173.818C92.6908 173.576 93.1995 173.454 93.7968 173.454V174.77H93.4608C92.0328 174.77 91.3188 175.545 91.3188 177.094V181.266H90.0448V173.594H91.3188V174.84ZM102.267 177.136C102.267 177.379 102.253 177.636 102.225 177.906H96.0935C96.1401 178.662 96.3968 179.255 96.8635 179.684C97.3395 180.104 97.9135 180.314 98.5855 180.314C99.1361 180.314 99.5935 180.188 99.9575 179.936C100.331 179.675 100.592 179.33 100.741 178.9H102.113C101.908 179.638 101.497 180.24 100.881 180.706C100.265 181.164 99.5001 181.392 98.5855 181.392C97.8575 181.392 97.2041 181.229 96.6255 180.902C96.0561 180.576 95.6081 180.114 95.2815 179.516C94.9548 178.91 94.7915 178.21 94.7915 177.416C94.7915 176.623 94.9501 175.928 95.2675 175.33C95.5848 174.733 96.0281 174.276 96.5975 173.958C97.1761 173.632 97.8388 173.468 98.5855 173.468C99.3135 173.468 99.9575 173.627 100.517 173.944C101.077 174.262 101.507 174.7 101.805 175.26C102.113 175.811 102.267 176.436 102.267 177.136ZM100.951 176.87C100.951 176.385 100.844 175.97 100.629 175.624C100.415 175.27 100.121 175.004 99.7475 174.826C99.3835 174.64 98.9775 174.546 98.5295 174.546C97.8855 174.546 97.3348 174.752 96.8775 175.162C96.4295 175.573 96.1728 176.142 96.1075 176.87H100.951Z" fill="white"/>
</g>
<defs>
<clipPath id="clip0_3804_339">
<rect width="167" height="198" rx="17.72" fill="white"/>
</clipPath>
</defs>
</svg>
