<svg width="167" height="199" viewBox="0 0 167 199" fill="none" xmlns="http://www.w3.org/2000/svg">
<g clip-path="url(#clip0_3804_260)">
<rect width="167" height="199" rx="17.72" fill="white"/>
<rect x="0.444471" y="0.553846" width="165.046" height="201.6" rx="17.1692" fill="#FFF4EC" stroke="#FB8C00" stroke-width="1.10769"/>
<path d="M20.5508 84.5798H145.015V146.812H20.5508V84.5798Z" fill="#CFD8DC"/>
<path d="M20.5508 146.812H145.015V159.914H20.5508V146.812Z" fill="#B0BEC5"/>
<path d="M92.6094 100.957H131.914V159.914H92.6094V100.957Z" fill="#455A64"/>
<path d="M33.6523 100.957H79.5077V136.986H33.6523V100.957Z" fill="#E3F2FD"/>
<path d="M36.9287 104.232H76.2333V133.711H36.9287V104.232Z" fill="#FFDD55"/>
<path d="M123.727 132.073C122.744 132.073 122.089 132.728 122.089 133.711V140.261C122.089 141.244 122.744 141.899 123.727 141.899C124.709 141.899 125.364 141.244 125.364 140.261V133.711C125.364 132.728 124.709 132.073 123.727 132.073Z" fill="#90A4AE"/>
<path d="M82.7842 94.406C88.211 94.406 92.6103 90.0066 92.6103 84.5798C92.6103 79.153 88.211 74.7537 82.7842 74.7537C77.3573 74.7537 72.958 79.153 72.958 84.5798C72.958 90.0066 77.3573 94.406 82.7842 94.406Z" fill="#558B2F"/>
<path d="M122.089 94.406C127.516 94.406 131.915 90.0066 131.915 84.5798C131.915 79.153 127.516 74.7537 122.089 74.7537C116.662 74.7537 112.263 79.153 112.263 84.5798C112.263 90.0066 116.662 94.406 122.089 94.406Z" fill="#558B2F"/>
<path d="M43.4795 94.406C48.9063 94.406 53.3056 90.0066 53.3056 84.5798C53.3056 79.153 48.9063 74.7537 43.4795 74.7537C38.0526 74.7537 33.6533 79.153 33.6533 84.5798C33.6533 90.0066 38.0526 94.406 43.4795 94.406Z" fill="#558B2F"/>
<path d="M135.189 42H30.3769C26.774 42 23.8262 44.9478 23.8262 48.5508V58.3769H141.74V48.5508C141.74 44.9478 138.792 42 135.189 42ZM72.9569 58.3769H92.6092V84.58H72.9569V58.3769ZM125.363 58.3769H108.986L112.262 84.58H131.914L125.363 58.3769ZM40.2031 58.3769H56.58L53.3046 84.58H33.6523L40.2031 58.3769Z" fill="#FB8C00"/>
<path d="M102.436 94.406C107.862 94.406 112.262 90.0066 112.262 84.5798C112.262 79.153 107.862 74.7537 102.436 74.7537C97.0087 74.7537 92.6094 79.153 92.6094 84.5798C92.6094 90.0066 97.0087 94.406 102.436 94.406Z" fill="#FFA000"/>
<path d="M151.566 84.5798C151.566 90.148 147.308 94.406 141.74 94.406C136.172 94.406 131.914 90.148 131.914 84.5798C131.914 79.0117 136.172 74.7537 141.74 74.7537L151.566 84.5798Z" fill="#FFA000"/>
<path d="M63.1308 94.406C68.5577 94.406 72.957 90.0066 72.957 84.5798C72.957 79.153 68.5577 74.7537 63.1308 74.7537C57.704 74.7537 53.3047 79.153 53.3047 84.5798C53.3047 90.0066 57.704 94.406 63.1308 94.406Z" fill="#FFA000"/>
<path d="M14 84.5798C14 90.148 18.258 94.406 23.8261 94.406C29.3943 94.406 33.6523 90.148 33.6523 84.5798C33.6523 79.0117 29.3943 74.7537 23.8261 74.7537L14 84.5798Z" fill="#FFA000"/>
<path d="M108.986 58.377H92.6092V84.58H112.262L108.986 58.377ZM141.74 58.377H125.363L131.914 84.58H151.566L141.74 58.377ZM56.58 58.377H72.9569V84.58H53.3046L56.58 58.377ZM23.8262 58.377H40.2031L33.6523 84.58H14L23.8262 58.377Z" fill="#FFC107"/>
<rect y="143" width="166.154" height="59.8154" rx="17.7231" fill="#FB8C00"/>
<rect y="144.108" width="166.154" height="25.4769" fill="#FB8C00"/>
<path d="M13.754 155.333V163H12.753V159.524H8.848V163H7.847V155.333H8.848V158.699H12.753V155.333H13.754ZM15.0892 159.964C15.0892 159.348 15.2139 158.809 15.4632 158.347C15.7125 157.878 16.0535 157.515 16.4862 157.258C16.9262 157.001 17.4139 156.873 17.9492 156.873C18.4772 156.873 18.9355 156.987 19.3242 157.214C19.7129 157.441 20.0025 157.727 20.1932 158.072V156.972H21.2052V163H20.1932V161.878C19.9952 162.23 19.6982 162.523 19.3022 162.758C18.9135 162.985 18.4589 163.099 17.9382 163.099C17.4029 163.099 16.9189 162.967 16.4862 162.703C16.0535 162.439 15.7125 162.069 15.4632 161.592C15.2139 161.115 15.0892 160.573 15.0892 159.964ZM20.1932 159.975C20.1932 159.52 20.1015 159.124 19.9182 158.787C19.7349 158.45 19.4855 158.193 19.1702 158.017C18.8622 157.834 18.5212 157.742 18.1472 157.742C17.7732 157.742 17.4322 157.83 17.1242 158.006C16.8162 158.182 16.5705 158.439 16.3872 158.776C16.2039 159.113 16.1122 159.509 16.1122 159.964C16.1122 160.426 16.2039 160.829 16.3872 161.174C16.5705 161.511 16.8162 161.772 17.1242 161.955C17.4322 162.131 17.7732 162.219 18.1472 162.219C18.5212 162.219 18.8622 162.131 19.1702 161.955C19.4855 161.772 19.7349 161.511 19.9182 161.174C20.1015 160.829 20.1932 160.43 20.1932 159.975ZM23.8978 157.951C24.0738 157.606 24.3231 157.339 24.6458 157.148C24.9758 156.957 25.3755 156.862 25.8448 156.862V157.896H25.5808C24.4588 157.896 23.8978 158.505 23.8978 159.722V163H22.8968V156.972H23.8978V157.951ZM26.6263 159.964C26.6263 159.348 26.751 158.809 27.0003 158.347C27.2497 157.878 27.5907 157.515 28.0233 157.258C28.4633 157.001 28.9547 156.873 29.4973 156.873C29.9667 156.873 30.403 156.983 30.8063 157.203C31.2097 157.416 31.5177 157.698 31.7303 158.05V154.86H32.7423V163H31.7303V161.867C31.5323 162.226 31.239 162.523 30.8503 162.758C30.4617 162.985 30.007 163.099 29.4863 163.099C28.951 163.099 28.4633 162.967 28.0233 162.703C27.5907 162.439 27.2497 162.069 27.0003 161.592C26.751 161.115 26.6263 160.573 26.6263 159.964ZM31.7303 159.975C31.7303 159.52 31.6387 159.124 31.4553 158.787C31.272 158.45 31.0227 158.193 30.7073 158.017C30.3993 157.834 30.0583 157.742 29.6843 157.742C29.3103 157.742 28.9693 157.83 28.6613 158.006C28.3533 158.182 28.1077 158.439 27.9243 158.776C27.741 159.113 27.6493 159.509 27.6493 159.964C27.6493 160.426 27.741 160.829 27.9243 161.174C28.1077 161.511 28.3533 161.772 28.6613 161.955C28.9693 162.131 29.3103 162.219 29.6843 162.219C30.0583 162.219 30.3993 162.131 30.7073 161.955C31.0227 161.772 31.272 161.511 31.4553 161.174C31.6387 160.829 31.7303 160.43 31.7303 159.975ZM42.4639 156.972L40.5829 163H39.5489L38.0969 158.215L36.6449 163H35.6109L33.7189 156.972H34.7419L36.1279 162.032L37.6239 156.972H38.6469L40.1099 162.043L41.4739 156.972H42.4639ZM43.0834 159.964C43.0834 159.348 43.208 158.809 43.4574 158.347C43.7067 157.878 44.0477 157.515 44.4804 157.258C44.9204 157.001 45.408 156.873 45.9434 156.873C46.4714 156.873 46.9297 156.987 47.3184 157.214C47.707 157.441 47.9967 157.727 48.1874 158.072V156.972H49.1994V163H48.1874V161.878C47.9894 162.23 47.6924 162.523 47.2964 162.758C46.9077 162.985 46.453 163.099 45.9324 163.099C45.397 163.099 44.913 162.967 44.4804 162.703C44.0477 162.439 43.7067 162.069 43.4574 161.592C43.208 161.115 43.0834 160.573 43.0834 159.964ZM48.1874 159.975C48.1874 159.52 48.0957 159.124 47.9124 158.787C47.729 158.45 47.4797 158.193 47.1644 158.017C46.8564 157.834 46.5154 157.742 46.1414 157.742C45.7674 157.742 45.4264 157.83 45.1184 158.006C44.8104 158.182 44.5647 158.439 44.3814 158.776C44.198 159.113 44.1064 159.509 44.1064 159.964C44.1064 160.426 44.198 160.829 44.3814 161.174C44.5647 161.511 44.8104 161.772 45.1184 161.955C45.4264 162.131 45.7674 162.219 46.1414 162.219C46.5154 162.219 46.8564 162.131 47.1644 161.955C47.4797 161.772 47.729 161.511 47.9124 161.174C48.0957 160.829 48.1874 160.43 48.1874 159.975ZM51.8919 157.951C52.0679 157.606 52.3173 157.339 52.6399 157.148C52.9699 156.957 53.3696 156.862 53.8389 156.862V157.896H53.5749C52.4529 157.896 51.8919 158.505 51.8919 159.722V163H50.8909V156.972H51.8919V157.951ZM60.4945 159.755C60.4945 159.946 60.4835 160.147 60.4615 160.36H55.6435C55.6801 160.954 55.8818 161.42 56.2485 161.757C56.6225 162.087 57.0735 162.252 57.6015 162.252C58.0341 162.252 58.3935 162.153 58.6795 161.955C58.9728 161.75 59.1781 161.478 59.2955 161.141H60.3735C60.2121 161.72 59.8895 162.193 59.4055 162.56C58.9215 162.919 58.3201 163.099 57.6015 163.099C57.0295 163.099 56.5161 162.971 56.0615 162.714C55.6141 162.457 55.2621 162.094 55.0055 161.625C54.7488 161.148 54.6205 160.598 54.6205 159.975C54.6205 159.352 54.7451 158.805 54.9945 158.336C55.2438 157.867 55.5921 157.507 56.0395 157.258C56.4941 157.001 57.0148 156.873 57.6015 156.873C58.1735 156.873 58.6795 156.998 59.1195 157.247C59.5595 157.496 59.8968 157.841 60.1315 158.281C60.3735 158.714 60.4945 159.205 60.4945 159.755ZM59.4605 159.546C59.4605 159.165 59.3761 158.838 59.2075 158.567C59.0388 158.288 58.8078 158.079 58.5145 157.94C58.2285 157.793 57.9095 157.72 57.5575 157.72C57.0515 157.72 56.6188 157.881 56.2595 158.204C55.9075 158.527 55.7058 158.974 55.6545 159.546H59.4605ZM68.9284 158.545V159.392H64.5394V158.545H68.9284ZM73.3656 159.161C73.3656 158.413 73.5342 157.742 73.8716 157.148C74.2089 156.547 74.6672 156.077 75.2466 155.74C75.8332 155.403 76.4822 155.234 77.1936 155.234C78.0296 155.234 78.7592 155.436 79.3826 155.839C80.0059 156.242 80.4606 156.814 80.7466 157.555H79.5476C79.3349 157.093 79.0269 156.737 78.6236 156.488C78.2276 156.239 77.7509 156.114 77.1936 156.114C76.6582 156.114 76.1779 156.239 75.7526 156.488C75.3272 156.737 74.9936 157.093 74.7516 157.555C74.5096 158.01 74.3886 158.545 74.3886 159.161C74.3886 159.77 74.5096 160.305 74.7516 160.767C74.9936 161.222 75.3272 161.574 75.7526 161.823C76.1779 162.072 76.6582 162.197 77.1936 162.197C77.7509 162.197 78.2276 162.076 78.6236 161.834C79.0269 161.585 79.3349 161.229 79.5476 160.767H80.7466C80.4606 161.5 80.0059 162.069 79.3826 162.472C78.7592 162.868 78.0296 163.066 77.1936 163.066C76.4822 163.066 75.8332 162.901 75.2466 162.571C74.6672 162.234 74.2089 161.768 73.8716 161.174C73.5342 160.58 73.3656 159.909 73.3656 159.161ZM87.7366 159.755C87.7366 159.946 87.7256 160.147 87.7036 160.36H82.8856C82.9223 160.954 83.124 161.42 83.4906 161.757C83.8646 162.087 84.3156 162.252 84.8436 162.252C85.2763 162.252 85.6356 162.153 85.9216 161.955C86.215 161.75 86.4203 161.478 86.5376 161.141H87.6156C87.4543 161.72 87.1316 162.193 86.6476 162.56C86.1636 162.919 85.5623 163.099 84.8436 163.099C84.2716 163.099 83.7583 162.971 83.3036 162.714C82.8563 162.457 82.5043 162.094 82.2476 161.625C81.991 161.148 81.8626 160.598 81.8626 159.975C81.8626 159.352 81.9873 158.805 82.2366 158.336C82.486 157.867 82.8343 157.507 83.2816 157.258C83.7363 157.001 84.257 156.873 84.8436 156.873C85.4156 156.873 85.9216 156.998 86.3616 157.247C86.8016 157.496 87.139 157.841 87.3736 158.281C87.6156 158.714 87.7366 159.205 87.7366 159.755ZM86.7026 159.546C86.7026 159.165 86.6183 158.838 86.4496 158.567C86.281 158.288 86.05 158.079 85.7566 157.94C85.4706 157.793 85.1516 157.72 84.7996 157.72C84.2936 157.72 83.861 157.881 83.5016 158.204C83.1496 158.527 82.948 158.974 82.8966 159.546H86.7026ZM96.3069 156.862C96.7763 156.862 97.1943 156.961 97.5609 157.159C97.9276 157.35 98.2173 157.639 98.4299 158.028C98.6426 158.417 98.7489 158.89 98.7489 159.447V163H97.7589V159.59C97.7589 158.989 97.6086 158.53 97.3079 158.215C97.0146 157.892 96.6149 157.731 96.1089 157.731C95.5883 157.731 95.1739 157.9 94.8659 158.237C94.5579 158.567 94.4039 159.047 94.4039 159.678V163H93.4139V159.59C93.4139 158.989 93.2636 158.53 92.9629 158.215C92.6696 157.892 92.2699 157.731 91.7639 157.731C91.2433 157.731 90.8289 157.9 90.5209 158.237C90.2129 158.567 90.0589 159.047 90.0589 159.678V163H89.0579V156.972H90.0589V157.841C90.2569 157.526 90.5209 157.284 90.8509 157.115C91.1883 156.946 91.5586 156.862 91.9619 156.862C92.4679 156.862 92.9153 156.976 93.3039 157.203C93.6926 157.43 93.9823 157.764 94.1729 158.204C94.3416 157.779 94.6203 157.449 95.0089 157.214C95.3976 156.979 95.8303 156.862 96.3069 156.862ZM105.891 159.755C105.891 159.946 105.88 160.147 105.858 160.36H101.04C101.077 160.954 101.278 161.42 101.645 161.757C102.019 162.087 102.47 162.252 102.998 162.252C103.431 162.252 103.79 162.153 104.076 161.955C104.369 161.75 104.575 161.478 104.692 161.141H105.77C105.609 161.72 105.286 162.193 104.802 162.56C104.318 162.919 103.717 163.099 102.998 163.099C102.426 163.099 101.913 162.971 101.458 162.714C101.011 162.457 100.659 162.094 100.402 161.625C100.145 161.148 100.017 160.598 100.017 159.975C100.017 159.352 100.142 158.805 100.391 158.336C100.64 157.867 100.989 157.507 101.436 157.258C101.891 157.001 102.411 156.873 102.998 156.873C103.57 156.873 104.076 156.998 104.516 157.247C104.956 157.496 105.293 157.841 105.528 158.281C105.77 158.714 105.891 159.205 105.891 159.755ZM104.857 159.546C104.857 159.165 104.773 158.838 104.604 158.567C104.435 158.288 104.204 158.079 103.911 157.94C103.625 157.793 103.306 157.72 102.954 157.72C102.448 157.72 102.015 157.881 101.656 158.204C101.304 158.527 101.102 158.974 101.051 159.546H104.857ZM110.149 156.862C110.883 156.862 111.477 157.086 111.931 157.533C112.386 157.973 112.613 158.611 112.613 159.447V163H111.623V159.59C111.623 158.989 111.473 158.53 111.172 158.215C110.872 157.892 110.461 157.731 109.94 157.731C109.412 157.731 108.991 157.896 108.675 158.226C108.367 158.556 108.213 159.036 108.213 159.667V163H107.212V156.972H108.213V157.83C108.411 157.522 108.679 157.284 109.016 157.115C109.361 156.946 109.739 156.862 110.149 156.862ZM115.469 157.797V161.35C115.469 161.643 115.532 161.852 115.656 161.977C115.781 162.094 115.997 162.153 116.305 162.153H117.042V163H116.14C115.583 163 115.165 162.872 114.886 162.615C114.608 162.358 114.468 161.937 114.468 161.35V157.797H113.687V156.972H114.468V155.454H115.469V156.972H117.042V157.797H115.469ZM119.289 161.614L118.057 164.573H117.386L118.189 161.614H119.289ZM129.275 155.333V163H128.274V159.524H124.369V163H123.368V155.333H124.369V158.699H128.274V155.333H129.275ZM130.611 159.964C130.611 159.348 130.735 158.809 130.985 158.347C131.234 157.878 131.575 157.515 132.008 157.258C132.448 157.001 132.935 156.873 133.471 156.873C133.999 156.873 134.457 156.987 134.846 157.214C135.234 157.441 135.524 157.727 135.715 158.072V156.972H136.727V163H135.715V161.878C135.517 162.23 135.22 162.523 134.824 162.758C134.435 162.985 133.98 163.099 133.46 163.099C132.924 163.099 132.44 162.967 132.008 162.703C131.575 162.439 131.234 162.069 130.985 161.592C130.735 161.115 130.611 160.573 130.611 159.964ZM135.715 159.975C135.715 159.52 135.623 159.124 135.44 158.787C135.256 158.45 135.007 158.193 134.692 158.017C134.384 157.834 134.043 157.742 133.669 157.742C133.295 157.742 132.954 157.83 132.646 158.006C132.338 158.182 132.092 158.439 131.909 158.776C131.725 159.113 131.634 159.509 131.634 159.964C131.634 160.426 131.725 160.829 131.909 161.174C132.092 161.511 132.338 161.772 132.646 161.955C132.954 162.131 133.295 162.219 133.669 162.219C134.043 162.219 134.384 162.131 134.692 161.955C135.007 161.772 135.256 161.511 135.44 161.174C135.623 160.829 135.715 160.43 135.715 159.975ZM141.355 156.862C142.089 156.862 142.683 157.086 143.137 157.533C143.592 157.973 143.819 158.611 143.819 159.447V163H142.829V159.59C142.829 158.989 142.679 158.53 142.378 158.215C142.078 157.892 141.667 157.731 141.146 157.731C140.618 157.731 140.197 157.896 139.881 158.226C139.573 158.556 139.419 159.036 139.419 159.667V163H138.418V156.972H139.419V157.83C139.617 157.522 139.885 157.284 140.222 157.115C140.567 156.946 140.945 156.862 141.355 156.862ZM145.08 159.964C145.08 159.348 145.205 158.809 145.454 158.347C145.704 157.878 146.045 157.515 146.477 157.258C146.917 157.001 147.409 156.873 147.951 156.873C148.421 156.873 148.857 156.983 149.26 157.203C149.664 157.416 149.972 157.698 150.184 158.05V154.86H151.196V163H150.184V161.867C149.986 162.226 149.693 162.523 149.304 162.758C148.916 162.985 148.461 163.099 147.94 163.099C147.405 163.099 146.917 162.967 146.477 162.703C146.045 162.439 145.704 162.069 145.454 161.592C145.205 161.115 145.08 160.573 145.08 159.964ZM150.184 159.975C150.184 159.52 150.093 159.124 149.909 158.787C149.726 158.45 149.477 158.193 149.161 158.017C148.853 157.834 148.512 157.742 148.138 157.742C147.764 157.742 147.423 157.83 147.115 158.006C146.807 158.182 146.562 158.439 146.378 158.776C146.195 159.113 146.103 159.509 146.103 159.964C146.103 160.426 146.195 160.829 146.378 161.174C146.562 161.511 146.807 161.772 147.115 161.955C147.423 162.131 147.764 162.219 148.138 162.219C148.512 162.219 148.853 162.131 149.161 161.955C149.477 161.772 149.726 161.511 149.909 161.174C150.093 160.829 150.184 160.43 150.184 159.975ZM9.068 174.797V178.35C9.068 178.643 9.13033 178.852 9.255 178.977C9.37967 179.094 9.596 179.153 9.904 179.153H10.641V180H9.739C9.18167 180 8.76367 179.872 8.485 179.615C8.20633 179.358 8.067 178.937 8.067 178.35V174.797H7.286V173.972H8.067V172.454H9.068V173.972H10.641V174.797H9.068ZM14.4828 180.099C13.9182 180.099 13.4048 179.971 12.9428 179.714C12.4882 179.457 12.1288 179.094 11.8648 178.625C11.6082 178.148 11.4798 177.598 11.4798 176.975C11.4798 176.359 11.6118 175.816 11.8758 175.347C12.1472 174.87 12.5138 174.507 12.9758 174.258C13.4378 174.001 13.9548 173.873 14.5268 173.873C15.0988 173.873 15.6158 174.001 16.0778 174.258C16.5398 174.507 16.9028 174.867 17.1668 175.336C17.4382 175.805 17.5738 176.352 17.5738 176.975C17.5738 177.598 17.4345 178.148 17.1558 178.625C16.8845 179.094 16.5142 179.457 16.0448 179.714C15.5755 179.971 15.0548 180.099 14.4828 180.099ZM14.4828 179.219C14.8422 179.219 15.1795 179.135 15.4948 178.966C15.8102 178.797 16.0632 178.544 16.2538 178.207C16.4518 177.87 16.5508 177.459 16.5508 176.975C16.5508 176.491 16.4555 176.08 16.2648 175.743C16.0742 175.406 15.8248 175.156 15.5168 174.995C15.2088 174.826 14.8752 174.742 14.5158 174.742C14.1492 174.742 13.8118 174.826 13.5038 174.995C13.2032 175.156 12.9612 175.406 12.7778 175.743C12.5945 176.08 12.5028 176.491 12.5028 176.975C12.5028 177.466 12.5908 177.881 12.7668 178.218C12.9502 178.555 13.1922 178.808 13.4928 178.977C13.7935 179.138 14.1235 179.219 14.4828 179.219ZM21.519 180.099C20.9543 180.099 20.441 179.971 19.979 179.714C19.5243 179.457 19.165 179.094 18.901 178.625C18.6443 178.148 18.516 177.598 18.516 176.975C18.516 176.359 18.648 175.816 18.912 175.347C19.1833 174.87 19.55 174.507 20.012 174.258C20.474 174.001 20.991 173.873 21.563 173.873C22.135 173.873 22.652 174.001 23.114 174.258C23.576 174.507 23.939 174.867 24.203 175.336C24.4743 175.805 24.61 176.352 24.61 176.975C24.61 177.598 24.4706 178.148 24.192 178.625C23.9206 179.094 23.5503 179.457 23.081 179.714C22.6116 179.971 22.091 180.099 21.519 180.099ZM21.519 179.219C21.8783 179.219 22.2156 179.135 22.531 178.966C22.8463 178.797 23.0993 178.544 23.29 178.207C23.488 177.87 23.587 177.459 23.587 176.975C23.587 176.491 23.4916 176.08 23.301 175.743C23.1103 175.406 22.861 175.156 22.553 174.995C22.245 174.826 21.9113 174.742 21.552 174.742C21.1853 174.742 20.848 174.826 20.54 174.995C20.2393 175.156 19.9973 175.406 19.814 175.743C19.6306 176.08 19.539 176.491 19.539 176.975C19.539 177.466 19.627 177.881 19.803 178.218C19.9863 178.555 20.2283 178.808 20.529 178.977C20.8296 179.138 21.1596 179.219 21.519 179.219ZM26.9271 171.86V180H25.9261V171.86H26.9271ZM30.7671 180.099C30.3051 180.099 29.8908 180.022 29.5241 179.868C29.1575 179.707 28.8678 179.487 28.6551 179.208C28.4425 178.922 28.3251 178.596 28.3031 178.229H29.3371C29.3665 178.53 29.5058 178.775 29.7551 178.966C30.0118 179.157 30.3455 179.252 30.7561 179.252C31.1375 179.252 31.4381 179.168 31.6581 178.999C31.8781 178.83 31.9881 178.618 31.9881 178.361C31.9881 178.097 31.8708 177.903 31.6361 177.778C31.4015 177.646 31.0385 177.518 30.5471 177.393C30.0998 177.276 29.7331 177.158 29.4471 177.041C29.1685 176.916 28.9265 176.737 28.7211 176.502C28.5231 176.26 28.4241 175.945 28.4241 175.556C28.4241 175.248 28.5158 174.966 28.6991 174.709C28.8825 174.452 29.1428 174.251 29.4801 174.104C29.8175 173.95 30.2025 173.873 30.6351 173.873C31.3025 173.873 31.8415 174.042 32.2521 174.379C32.6628 174.716 32.8828 175.178 32.9121 175.765H31.9111C31.8891 175.45 31.7608 175.197 31.5261 175.006C31.2988 174.815 30.9908 174.72 30.6021 174.72C30.2428 174.72 29.9568 174.797 29.7441 174.951C29.5315 175.105 29.4251 175.307 29.4251 175.556C29.4251 175.754 29.4875 175.919 29.6121 176.051C29.7441 176.176 29.9055 176.278 30.0961 176.359C30.2941 176.432 30.5655 176.517 30.9101 176.612C31.3428 176.729 31.6948 176.847 31.9661 176.964C32.2375 177.074 32.4685 177.243 32.6591 177.47C32.8571 177.697 32.9598 177.994 32.9671 178.361C32.9671 178.691 32.8755 178.988 32.6921 179.252C32.5088 179.516 32.2485 179.725 31.9111 179.879C31.5811 180.026 31.1998 180.099 30.7671 180.099ZM35.4142 178.614L34.1822 181.573H33.5112L34.3142 178.614H35.4142ZM44.6195 174.577C44.6195 175.215 44.3995 175.747 43.9595 176.172C43.5268 176.59 42.8632 176.799 41.9685 176.799H40.4945V180H39.4935V172.333H41.9685C42.8338 172.333 43.4902 172.542 43.9375 172.96C44.3922 173.378 44.6195 173.917 44.6195 174.577ZM41.9685 175.974C42.5258 175.974 42.9365 175.853 43.2005 175.611C43.4645 175.369 43.5965 175.024 43.5965 174.577C43.5965 173.631 43.0538 173.158 41.9685 173.158H40.4945V175.974H41.9685ZM48.4926 180.099C47.9279 180.099 47.4146 179.971 46.9526 179.714C46.4979 179.457 46.1386 179.094 45.8746 178.625C45.6179 178.148 45.4896 177.598 45.4896 176.975C45.4896 176.359 45.6216 175.816 45.8856 175.347C46.1569 174.87 46.5236 174.507 46.9856 174.258C47.4476 174.001 47.9646 173.873 48.5366 173.873C49.1086 173.873 49.6256 174.001 50.0876 174.258C50.5496 174.507 50.9126 174.867 51.1766 175.336C51.4479 175.805 51.5836 176.352 51.5836 176.975C51.5836 177.598 51.4443 178.148 51.1656 178.625C50.8943 179.094 50.5239 179.457 50.0546 179.714C49.5853 179.971 49.0646 180.099 48.4926 180.099ZM48.4926 179.219C48.8519 179.219 49.1893 179.135 49.5046 178.966C49.8199 178.797 50.0729 178.544 50.2636 178.207C50.4616 177.87 50.5606 177.459 50.5606 176.975C50.5606 176.491 50.4653 176.08 50.2746 175.743C50.0839 175.406 49.8346 175.156 49.5266 174.995C49.2186 174.826 48.8849 174.742 48.5256 174.742C48.1589 174.742 47.8216 174.826 47.5136 174.995C47.2129 175.156 46.9709 175.406 46.7876 175.743C46.6043 176.08 46.5126 176.491 46.5126 176.975C46.5126 177.466 46.6006 177.881 46.7766 178.218C46.9599 178.555 47.2019 178.808 47.5026 178.977C47.8033 179.138 48.1333 179.219 48.4926 179.219ZM60.9297 173.972L59.0487 180H58.0147L56.5627 175.215L55.1107 180H54.0767L52.1847 173.972H53.2077L54.5937 179.032L56.0897 173.972H57.1127L58.5757 179.043L59.9397 173.972H60.9297ZM67.4232 176.755C67.4232 176.946 67.4122 177.147 67.3902 177.36H62.5722C62.6088 177.954 62.8105 178.42 63.1772 178.757C63.5512 179.087 64.0022 179.252 64.5302 179.252C64.9628 179.252 65.3222 179.153 65.6082 178.955C65.9015 178.75 66.1068 178.478 66.2242 178.141H67.3022C67.1408 178.72 66.8182 179.193 66.3342 179.56C65.8502 179.919 65.2488 180.099 64.5302 180.099C63.9582 180.099 63.4448 179.971 62.9902 179.714C62.5428 179.457 62.1908 179.094 61.9342 178.625C61.6775 178.148 61.5492 177.598 61.5492 176.975C61.5492 176.352 61.6738 175.805 61.9232 175.336C62.1725 174.867 62.5208 174.507 62.9682 174.258C63.4228 174.001 63.9435 173.873 64.5302 173.873C65.1022 173.873 65.6082 173.998 66.0482 174.247C66.4882 174.496 66.8255 174.841 67.0602 175.281C67.3022 175.714 67.4232 176.205 67.4232 176.755ZM66.3892 176.546C66.3892 176.165 66.3048 175.838 66.1362 175.567C65.9675 175.288 65.7365 175.079 65.4432 174.94C65.1572 174.793 64.8382 174.72 64.4862 174.72C63.9802 174.72 63.5475 174.881 63.1882 175.204C62.8362 175.527 62.6345 175.974 62.5832 176.546H66.3892ZM69.7455 174.951C69.9215 174.606 70.1708 174.339 70.4935 174.148C70.8235 173.957 71.2231 173.862 71.6925 173.862V174.896H71.4285C70.3065 174.896 69.7455 175.505 69.7455 176.722V180H68.7445V173.972H69.7455V174.951ZM74.069 174.797V178.35C74.069 178.643 74.1313 178.852 74.256 178.977C74.3806 179.094 74.597 179.153 74.905 179.153H75.642V180H74.74C74.1826 180 73.7646 179.872 73.486 179.615C73.2073 179.358 73.068 178.937 73.068 178.35V174.797H72.287V173.972H73.068V172.454H74.069V173.972H75.642V174.797H74.069ZM79.4838 180.099C78.9191 180.099 78.4058 179.971 77.9438 179.714C77.4891 179.457 77.1298 179.094 76.8658 178.625C76.6091 178.148 76.4808 177.598 76.4808 176.975C76.4808 176.359 76.6128 175.816 76.8768 175.347C77.1481 174.87 77.5148 174.507 77.9768 174.258C78.4388 174.001 78.9558 173.873 79.5278 173.873C80.0998 173.873 80.6168 174.001 81.0788 174.258C81.5408 174.507 81.9038 174.867 82.1678 175.336C82.4391 175.805 82.5748 176.352 82.5748 176.975C82.5748 177.598 82.4355 178.148 82.1568 178.625C81.8855 179.094 81.5151 179.457 81.0458 179.714C80.5765 179.971 80.0558 180.099 79.4838 180.099ZM79.4838 179.219C79.8431 179.219 80.1805 179.135 80.4958 178.966C80.8111 178.797 81.0641 178.544 81.2548 178.207C81.4528 177.87 81.5518 177.459 81.5518 176.975C81.5518 176.491 81.4565 176.08 81.2658 175.743C81.0751 175.406 80.8258 175.156 80.5178 174.995C80.2098 174.826 79.8761 174.742 79.5168 174.742C79.1501 174.742 78.8128 174.826 78.5048 174.995C78.2041 175.156 77.9621 175.406 77.7788 175.743C77.5955 176.08 77.5038 176.491 77.5038 176.975C77.5038 177.466 77.5918 177.881 77.7678 178.218C77.9511 178.555 78.1931 178.808 78.4938 178.977C78.7945 179.138 79.1245 179.219 79.4838 179.219ZM86.5199 180.099C85.9553 180.099 85.4419 179.971 84.9799 179.714C84.5253 179.457 84.1659 179.094 83.9019 178.625C83.6453 178.148 83.5169 177.598 83.5169 176.975C83.5169 176.359 83.6489 175.816 83.9129 175.347C84.1843 174.87 84.5509 174.507 85.0129 174.258C85.4749 174.001 85.9919 173.873 86.5639 173.873C87.1359 173.873 87.6529 174.001 88.1149 174.258C88.5769 174.507 88.9399 174.867 89.2039 175.336C89.4753 175.805 89.6109 176.352 89.6109 176.975C89.6109 177.598 89.4716 178.148 89.1929 178.625C88.9216 179.094 88.5513 179.457 88.0819 179.714C87.6126 179.971 87.0919 180.099 86.5199 180.099ZM86.5199 179.219C86.8793 179.219 87.2166 179.135 87.5319 178.966C87.8473 178.797 88.1003 178.544 88.2909 178.207C88.4889 177.87 88.5879 177.459 88.5879 176.975C88.5879 176.491 88.4926 176.08 88.3019 175.743C88.1113 175.406 87.8619 175.156 87.5539 174.995C87.2459 174.826 86.9123 174.742 86.5529 174.742C86.1863 174.742 85.8489 174.826 85.5409 174.995C85.2403 175.156 84.9983 175.406 84.8149 175.743C84.6316 176.08 84.5399 176.491 84.5399 176.975C84.5399 177.466 84.6279 177.881 84.8039 178.218C84.9873 178.555 85.2293 178.808 85.5299 178.977C85.8306 179.138 86.1606 179.219 86.5199 179.219ZM91.9281 171.86V180H90.9271V171.86H91.9281ZM95.7681 180.099C95.3061 180.099 94.8918 180.022 94.5251 179.868C94.1584 179.707 93.8688 179.487 93.6561 179.208C93.4434 178.922 93.3261 178.596 93.3041 178.229H94.3381C94.3674 178.53 94.5068 178.775 94.7561 178.966C95.0128 179.157 95.3464 179.252 95.7571 179.252C96.1384 179.252 96.4391 179.168 96.6591 178.999C96.8791 178.83 96.9891 178.618 96.9891 178.361C96.9891 178.097 96.8718 177.903 96.6371 177.778C96.4024 177.646 96.0394 177.518 95.5481 177.393C95.1008 177.276 94.7341 177.158 94.4481 177.041C94.1694 176.916 93.9274 176.737 93.7221 176.502C93.5241 176.26 93.4251 175.945 93.4251 175.556C93.4251 175.248 93.5168 174.966 93.7001 174.709C93.8834 174.452 94.1438 174.251 94.4811 174.104C94.8184 173.95 95.2034 173.873 95.6361 173.873C96.3034 173.873 96.8424 174.042 97.2531 174.379C97.6638 174.716 97.8838 175.178 97.9131 175.765H96.9121C96.8901 175.45 96.7618 175.197 96.5271 175.006C96.2998 174.815 95.9918 174.72 95.6031 174.72C95.2438 174.72 94.9578 174.797 94.7451 174.951C94.5324 175.105 94.4261 175.307 94.4261 175.556C94.4261 175.754 94.4884 175.919 94.6131 176.051C94.7451 176.176 94.9064 176.278 95.0971 176.359C95.2951 176.432 95.5664 176.517 95.9111 176.612C96.3438 176.729 96.6958 176.847 96.9671 176.964C97.2384 177.074 97.4694 177.243 97.6601 177.47C97.8581 177.697 97.9608 177.994 97.9681 178.361C97.9681 178.691 97.8764 178.988 97.6931 179.252C97.5098 179.516 97.2494 179.725 96.9121 179.879C96.5821 180.026 96.2008 180.099 95.7681 180.099ZM107.814 176.755C107.814 176.946 107.803 177.147 107.781 177.36H102.963C102.999 177.954 103.201 178.42 103.568 178.757C103.942 179.087 104.393 179.252 104.921 179.252C105.353 179.252 105.713 179.153 105.999 178.955C106.292 178.75 106.497 178.478 106.615 178.141H107.693C107.531 178.72 107.209 179.193 106.725 179.56C106.241 179.919 105.639 180.099 104.921 180.099C104.349 180.099 103.835 179.971 103.381 179.714C102.933 179.457 102.581 179.094 102.325 178.625C102.068 178.148 101.94 177.598 101.94 176.975C101.94 176.352 102.064 175.805 102.314 175.336C102.563 174.867 102.911 174.507 103.359 174.258C103.813 174.001 104.334 173.873 104.921 173.873C105.493 173.873 105.999 173.998 106.439 174.247C106.879 174.496 107.216 174.841 107.451 175.281C107.693 175.714 107.814 176.205 107.814 176.755ZM106.78 176.546C106.78 176.165 106.695 175.838 106.527 175.567C106.358 175.288 106.127 175.079 105.834 174.94C105.548 174.793 105.229 174.72 104.877 174.72C104.371 174.72 103.938 174.881 103.579 175.204C103.227 175.527 103.025 175.974 102.974 176.546H106.78ZM110.356 174.797V178.35C110.356 178.643 110.418 178.852 110.543 178.977C110.668 179.094 110.884 179.153 111.192 179.153H111.929V180H111.027C110.47 180 110.052 179.872 109.773 179.615C109.494 179.358 109.355 178.937 109.355 178.35V174.797H108.574V173.972H109.355V172.454H110.356V173.972H111.929V174.797H110.356ZM112.768 176.975C112.768 176.352 112.893 175.809 113.142 175.347C113.391 174.878 113.736 174.515 114.176 174.258C114.623 174.001 115.133 173.873 115.705 173.873C116.446 173.873 117.054 174.053 117.531 174.412C118.015 174.771 118.334 175.27 118.488 175.908H117.41C117.307 175.541 117.106 175.252 116.805 175.039C116.512 174.826 116.145 174.72 115.705 174.72C115.133 174.72 114.671 174.918 114.319 175.314C113.967 175.703 113.791 176.256 113.791 176.975C113.791 177.701 113.967 178.262 114.319 178.658C114.671 179.054 115.133 179.252 115.705 179.252C116.145 179.252 116.512 179.149 116.805 178.944C117.098 178.739 117.3 178.445 117.41 178.064H118.488C118.327 178.68 118.004 179.175 117.52 179.549C117.036 179.916 116.431 180.099 115.705 180.099C115.133 180.099 114.623 179.971 114.176 179.714C113.736 179.457 113.391 179.094 113.142 178.625C112.893 178.156 112.768 177.606 112.768 176.975Z" fill="white"/>
<rect x="16.5" y="13.5" width="132" height="31" rx="15.5" fill="#FB8C00" stroke="#FE4820"/>
<path d="M36.38 25.172V35H33.986V30.954H30.262V35H27.868V25.172H30.262V29.022H33.986V25.172H36.38ZM37.6322 31.08C37.6322 30.2773 37.7816 29.5727 38.0802 28.966C38.3882 28.3593 38.8036 27.8927 39.3262 27.566C39.8489 27.2393 40.4322 27.076 41.0762 27.076C41.6269 27.076 42.1076 27.188 42.5182 27.412C42.9382 27.636 43.2602 27.93 43.4842 28.294V27.188H45.8782V35H43.4842V33.894C43.2509 34.258 42.9242 34.552 42.5042 34.776C42.0936 35 41.6129 35.112 41.0622 35.112C40.4276 35.112 39.8489 34.9487 39.3262 34.622C38.8036 34.286 38.3882 33.8147 38.0802 33.208C37.7816 32.592 37.6322 31.8827 37.6322 31.08ZM43.4842 31.094C43.4842 30.4967 43.3162 30.0253 42.9802 29.68C42.6536 29.3347 42.2522 29.162 41.7762 29.162C41.3002 29.162 40.8942 29.3347 40.5582 29.68C40.2316 30.016 40.0682 30.4827 40.0682 31.08C40.0682 31.6773 40.2316 32.1533 40.5582 32.508C40.8942 32.8533 41.3002 33.026 41.7762 33.026C42.2522 33.026 42.6536 32.8533 42.9802 32.508C43.3162 32.1627 43.4842 31.6913 43.4842 31.094ZM50.0042 28.49C50.2842 28.0607 50.6342 27.7247 51.0542 27.482C51.4742 27.23 51.9409 27.104 52.4542 27.104V29.638H51.7962C51.1989 29.638 50.7509 29.7687 50.4522 30.03C50.1535 30.282 50.0042 30.73 50.0042 31.374V35H47.6102V27.188H50.0042V28.49ZM53.1225 31.08C53.1225 30.2773 53.2718 29.5727 53.5705 28.966C53.8785 28.3593 54.2938 27.8927 54.8165 27.566C55.3391 27.2393 55.9225 27.076 56.5665 27.076C57.0798 27.076 57.5465 27.1833 57.9665 27.398C58.3958 27.6127 58.7318 27.902 58.9745 28.266V24.64H61.3685V35H58.9745V33.88C58.7505 34.2533 58.4285 34.552 58.0085 34.776C57.5978 35 57.1171 35.112 56.5665 35.112C55.9225 35.112 55.3391 34.9487 54.8165 34.622C54.2938 34.286 53.8785 33.8147 53.5705 33.208C53.2718 32.592 53.1225 31.8827 53.1225 31.08ZM58.9745 31.094C58.9745 30.4967 58.8065 30.0253 58.4705 29.68C58.1438 29.3347 57.7425 29.162 57.2665 29.162C56.7905 29.162 56.3845 29.3347 56.0485 29.68C55.7218 30.016 55.5585 30.4827 55.5585 31.08C55.5585 31.6773 55.7218 32.1533 56.0485 32.508C56.3845 32.8533 56.7905 33.026 57.2665 33.026C57.7425 33.026 58.1438 32.8533 58.4705 32.508C58.8065 32.1627 58.9745 31.6913 58.9745 31.094ZM74.3144 27.188L72.2004 35H69.5544L68.3224 29.932L67.0484 35H64.4164L62.2884 27.188H64.6824L65.7884 32.774L67.1044 27.188H69.6384L70.9684 32.746L72.0604 27.188H74.3144ZM74.7514 31.08C74.7514 30.2773 74.9007 29.5727 75.1994 28.966C75.5074 28.3593 75.9227 27.8927 76.4454 27.566C76.968 27.2393 77.5514 27.076 78.1954 27.076C78.746 27.076 79.2267 27.188 79.6374 27.412C80.0574 27.636 80.3794 27.93 80.6034 28.294V27.188H82.9974V35H80.6034V33.894C80.37 34.258 80.0434 34.552 79.6234 34.776C79.2127 35 78.732 35.112 78.1814 35.112C77.5467 35.112 76.968 34.9487 76.4454 34.622C75.9227 34.286 75.5074 33.8147 75.1994 33.208C74.9007 32.592 74.7514 31.8827 74.7514 31.08ZM80.6034 31.094C80.6034 30.4967 80.4354 30.0253 80.0994 29.68C79.7727 29.3347 79.3714 29.162 78.8954 29.162C78.4194 29.162 78.0134 29.3347 77.6774 29.68C77.3507 30.016 77.1874 30.4827 77.1874 31.08C77.1874 31.6773 77.3507 32.1533 77.6774 32.508C78.0134 32.8533 78.4194 33.026 78.8954 33.026C79.3714 33.026 79.7727 32.8533 80.0994 32.508C80.4354 32.1627 80.6034 31.6913 80.6034 31.094ZM87.1233 28.49C87.4033 28.0607 87.7533 27.7247 88.1733 27.482C88.5933 27.23 89.06 27.104 89.5733 27.104V29.638H88.9153C88.318 29.638 87.87 29.7687 87.5713 30.03C87.2727 30.282 87.1233 30.73 87.1233 31.374V35H84.7293V27.188H87.1233V28.49ZM98.0816 30.968C98.0816 31.192 98.0676 31.4253 98.0396 31.668H92.6216C92.6589 32.1533 92.8129 32.5267 93.0836 32.788C93.3636 33.04 93.7043 33.166 94.1056 33.166C94.7029 33.166 95.1183 32.914 95.3516 32.41H97.8996C97.7689 32.9233 97.5309 33.3853 97.1856 33.796C96.8496 34.2067 96.4249 34.5287 95.9116 34.762C95.3983 34.9953 94.8243 35.112 94.1896 35.112C93.4243 35.112 92.7429 34.9487 92.1456 34.622C91.5483 34.2953 91.0816 33.8287 90.7456 33.222C90.4096 32.6153 90.2416 31.906 90.2416 31.094C90.2416 30.282 90.4049 29.5727 90.7316 28.966C91.0676 28.3593 91.5343 27.8927 92.1316 27.566C92.7289 27.2393 93.4149 27.076 94.1896 27.076C94.9456 27.076 95.6176 27.2347 96.2056 27.552C96.7936 27.8693 97.2509 28.322 97.5776 28.91C97.9136 29.498 98.0816 30.184 98.0816 30.968ZM95.6316 30.338C95.6316 29.9273 95.4916 29.6007 95.2116 29.358C94.9316 29.1153 94.5816 28.994 94.1616 28.994C93.7603 28.994 93.4196 29.1107 93.1396 29.344C92.8689 29.5773 92.7009 29.9087 92.6356 30.338H95.6316ZM105.867 35.098C105.149 35.098 104.505 34.9813 103.935 34.748C103.366 34.5147 102.909 34.1693 102.563 33.712C102.227 33.2547 102.05 32.704 102.031 32.06H104.579C104.617 32.424 104.743 32.704 104.957 32.9C105.172 33.0867 105.452 33.18 105.797 33.18C106.152 33.18 106.432 33.1007 106.637 32.942C106.843 32.774 106.945 32.5453 106.945 32.256C106.945 32.0133 106.861 31.8127 106.693 31.654C106.535 31.4953 106.334 31.3647 106.091 31.262C105.858 31.1593 105.522 31.0427 105.083 30.912C104.449 30.716 103.931 30.52 103.529 30.324C103.128 30.128 102.783 29.8387 102.493 29.456C102.204 29.0733 102.059 28.574 102.059 27.958C102.059 27.0433 102.391 26.3293 103.053 25.816C103.716 25.2933 104.579 25.032 105.643 25.032C106.726 25.032 107.599 25.2933 108.261 25.816C108.924 26.3293 109.279 27.048 109.325 27.972H106.735C106.717 27.6547 106.6 27.4073 106.385 27.23C106.171 27.0433 105.895 26.95 105.559 26.95C105.27 26.95 105.037 27.0293 104.859 27.188C104.682 27.3373 104.593 27.5567 104.593 27.846C104.593 28.1633 104.743 28.4107 105.041 28.588C105.34 28.7653 105.807 28.9567 106.441 29.162C107.076 29.3767 107.589 29.582 107.981 29.778C108.383 29.974 108.728 30.2587 109.017 30.632C109.307 31.0053 109.451 31.486 109.451 32.074C109.451 32.634 109.307 33.1427 109.017 33.6C108.737 34.0573 108.327 34.4213 107.785 34.692C107.244 34.9627 106.605 35.098 105.867 35.098ZM115.279 32.97V35H114.061C113.193 35 112.516 34.79 112.031 34.37C111.545 33.9407 111.303 33.2453 111.303 32.284V29.176H110.351V27.188H111.303V25.284H113.697V27.188H115.265V29.176H113.697V32.312C113.697 32.5453 113.753 32.7133 113.865 32.816C113.977 32.9187 114.163 32.97 114.425 32.97H115.279ZM120.168 35.112C119.403 35.112 118.712 34.9487 118.096 34.622C117.489 34.2953 117.009 33.8287 116.654 33.222C116.309 32.6153 116.136 31.906 116.136 31.094C116.136 30.2913 116.313 29.5867 116.668 28.98C117.023 28.364 117.508 27.8927 118.124 27.566C118.74 27.2393 119.431 27.076 120.196 27.076C120.961 27.076 121.652 27.2393 122.268 27.566C122.884 27.8927 123.369 28.364 123.724 28.98C124.079 29.5867 124.256 30.2913 124.256 31.094C124.256 31.8967 124.074 32.606 123.71 33.222C123.355 33.8287 122.865 34.2953 122.24 34.622C121.624 34.9487 120.933 35.112 120.168 35.112ZM120.168 33.04C120.625 33.04 121.013 32.872 121.33 32.536C121.657 32.2 121.82 31.7193 121.82 31.094C121.82 30.4687 121.661 29.988 121.344 29.652C121.036 29.316 120.653 29.148 120.196 29.148C119.729 29.148 119.342 29.316 119.034 29.652C118.726 29.9787 118.572 30.4593 118.572 31.094C118.572 31.7193 118.721 32.2 119.02 32.536C119.328 32.872 119.711 33.04 120.168 33.04ZM127.92 28.49C128.2 28.0607 128.55 27.7247 128.97 27.482C129.39 27.23 129.857 27.104 130.37 27.104V29.638H129.712C129.115 29.638 128.667 29.7687 128.368 30.03C128.07 30.282 127.92 30.73 127.92 31.374V35H125.526V27.188H127.92V28.49ZM138.878 30.968C138.878 31.192 138.864 31.4253 138.836 31.668H133.418C133.456 32.1533 133.61 32.5267 133.88 32.788C134.16 33.04 134.501 33.166 134.902 33.166C135.5 33.166 135.915 32.914 136.148 32.41H138.696C138.566 32.9233 138.328 33.3853 137.982 33.796C137.646 34.2067 137.222 34.5287 136.708 34.762C136.195 34.9953 135.621 35.112 134.986 35.112C134.221 35.112 133.54 34.9487 132.942 34.622C132.345 34.2953 131.878 33.8287 131.542 33.222C131.206 32.6153 131.038 31.906 131.038 31.094C131.038 30.282 131.202 29.5727 131.528 28.966C131.864 28.3593 132.331 27.8927 132.928 27.566C133.526 27.2393 134.212 27.076 134.986 27.076C135.742 27.076 136.414 27.2347 137.002 27.552C137.59 27.8693 138.048 28.322 138.374 28.91C138.71 29.498 138.878 30.184 138.878 30.968ZM136.428 30.338C136.428 29.9273 136.288 29.6007 136.008 29.358C135.728 29.1153 135.378 28.994 134.958 28.994C134.557 28.994 134.216 29.1107 133.936 29.344C133.666 29.5773 133.498 29.9087 133.432 30.338H136.428Z" fill="#F9F9F9"/>
<path d="M71.0438 134.806C71.0438 133.593 68.6942 130.2 68.6942 130.2C68.6942 130.2 66.3092 133.593 66.3092 134.806C66.3092 136.018 67.3696 137 68.6768 137C69.984 137 71.0438 136.018 71.0438 134.806ZM54.0551 115.8H49.3205V111.401H50.6115V109H42V111.401H43.2917V118.2C43.2917 119.967 44.8339 121.4 46.7359 121.4H54.0551V122.6H56.6391V114.601H54.0551V115.8ZM71.707 125.799V119C71.707 117.233 70.1654 115.8 68.2654 115.8H60.9449V114.601H58.3609V122.601H60.9449V121.4H65.6801V125.799H64.3904V128.2H73V125.799H71.707Z" fill="#FB8C00"/>
</g>
<defs>
<clipPath id="clip0_3804_260">
<rect width="167" height="199" rx="17.72" fill="white"/>
</clipPath>
</defs>
</svg>
