<svg width="171" height="63" viewBox="0 0 171 63" fill="none" xmlns="http://www.w3.org/2000/svg">
<rect x="0.5" y="0.5" width="170" height="62" rx="23.5" fill="#FFF8F0" stroke="#FB8C00"/>
<path d="M36.5585 32.192H34.1745V34.64H30.7665V32.192H28.3825V28.944H30.7665V26.48H34.1745V28.944H36.5585V32.192ZM42.7925 30.32C42.7925 29.2 43.0165 28.2027 43.4645 27.328C43.9232 26.4533 44.5738 25.776 45.4165 25.296C46.2592 24.8053 47.2512 24.56 48.3925 24.56C49.3738 24.56 50.2485 24.7467 51.0165 25.12C51.7952 25.4827 52.4245 26 52.9045 26.672C53.3952 27.344 53.7205 28.128 53.8805 29.024H50.1365C49.9658 28.6507 49.7205 28.3627 49.4005 28.16C49.0912 27.9467 48.7338 27.84 48.3285 27.84C47.7312 27.84 47.2565 28.064 46.9045 28.512C46.5632 28.96 46.3925 29.5627 46.3925 30.32C46.3925 31.0773 46.5632 31.68 46.9045 32.128C47.2565 32.576 47.7312 32.8 48.3285 32.8C48.7338 32.8 49.0912 32.6987 49.4005 32.496C49.7205 32.2827 49.9658 31.9893 50.1365 31.616H53.8805C53.7205 32.512 53.3952 33.296 52.9045 33.968C52.4245 34.64 51.7952 35.1627 51.0165 35.536C50.2485 35.8987 49.3738 36.08 48.3925 36.08C47.2512 36.08 46.2592 35.84 45.4165 35.36C44.5738 34.8693 43.9232 34.1867 43.4645 33.312C43.0165 32.4373 42.7925 31.44 42.7925 30.32ZM58.7114 24.16V36H55.1594V24.16H58.7114ZM62.1076 26.256C61.489 26.256 60.993 26.0907 60.6196 25.76C60.2463 25.4293 60.0596 25.0133 60.0596 24.512C60.0596 24 60.2463 23.5787 60.6196 23.248C60.993 22.9067 61.489 22.736 62.1076 22.736C62.7156 22.736 63.2063 22.9067 63.5796 23.248C63.953 23.5787 64.1396 24 64.1396 24.512C64.1396 25.0133 63.953 25.4293 63.5796 25.76C63.2063 26.0907 62.7156 26.256 62.1076 26.256ZM63.8676 26.976V36H60.3156V26.976H63.8676ZM64.9919 31.488C64.9919 30.5493 65.1839 29.7333 65.5679 29.04C65.9625 28.336 66.5065 27.7973 67.1999 27.424C67.9039 27.0507 68.7039 26.864 69.5999 26.864C70.7732 26.864 71.7599 27.1947 72.5599 27.856C73.3705 28.5173 73.8825 29.4347 74.0959 30.608H70.3359C70.1972 30.1387 69.9252 29.904 69.5199 29.904C69.2319 29.904 69.0025 30.0373 68.8319 30.304C68.6719 30.5707 68.5919 30.9653 68.5919 31.488C68.5919 32.0107 68.6719 32.4053 68.8319 32.672C69.0025 32.9387 69.2319 33.072 69.5199 33.072C69.9252 33.072 70.1972 32.8373 70.3359 32.368H74.0959C73.8825 33.5413 73.3705 34.4587 72.5599 35.12C71.7599 35.7813 70.7732 36.112 69.5999 36.112C68.7039 36.112 67.9039 35.9253 67.1999 35.552C66.5065 35.1787 65.9625 34.6453 65.5679 33.952C65.1839 33.248 64.9919 32.4267 64.9919 31.488ZM80.9979 36L78.7739 32.4V36H75.2219V24.16H78.7739V30.352L81.0299 26.976H85.1579L81.7819 31.52L85.2379 36H80.9979ZM92.3051 24.672V36H88.7531V24.672H92.3051ZM105.957 26.912C107.109 26.912 108 27.2587 108.629 27.952C109.269 28.6453 109.589 29.584 109.589 30.768V36H106.053V31.216C106.053 30.832 105.936 30.5333 105.701 30.32C105.477 30.096 105.173 29.984 104.789 29.984C104.395 29.984 104.085 30.096 103.861 30.32C103.637 30.5333 103.525 30.832 103.525 31.216V36H99.9894V31.216C99.9894 30.832 99.872 30.5333 99.6374 30.32C99.4134 30.096 99.1094 29.984 98.7254 29.984C98.3307 29.984 98.0214 30.096 97.7974 30.32C97.5734 30.5333 97.4614 30.832 97.4614 31.216V36H93.9094V26.976H97.4614V28.192C97.7174 27.808 98.064 27.4987 98.5014 27.264C98.9494 27.0293 99.472 26.912 100.069 26.912C100.72 26.912 101.296 27.056 101.797 27.344C102.299 27.6213 102.699 28.016 102.997 28.528C103.328 28.0587 103.749 27.6747 104.261 27.376C104.773 27.0667 105.339 26.912 105.957 26.912ZM110.648 31.488C110.648 30.5387 110.808 29.7173 111.128 29.024C111.459 28.32 111.907 27.7867 112.472 27.424C113.037 27.0507 113.672 26.864 114.376 26.864C114.963 26.864 115.469 26.9867 115.896 27.232C116.323 27.4667 116.648 27.792 116.872 28.208V26.976H120.408V36H116.872V34.768C116.648 35.184 116.323 35.5147 115.896 35.76C115.469 35.9947 114.963 36.112 114.376 36.112C113.672 36.112 113.037 35.9307 112.472 35.568C111.907 35.1947 111.459 34.6613 111.128 33.968C110.808 33.264 110.648 32.4373 110.648 31.488ZM116.872 31.488C116.872 31.008 116.749 30.6347 116.504 30.368C116.259 30.1013 115.944 29.968 115.56 29.968C115.176 29.968 114.861 30.1013 114.616 30.368C114.371 30.6347 114.248 31.008 114.248 31.488C114.248 31.968 114.371 32.3413 114.616 32.608C114.861 32.8747 115.176 33.008 115.56 33.008C115.944 33.008 116.259 32.8747 116.504 32.608C116.749 32.3413 116.872 31.968 116.872 31.488ZM125.251 26.864C125.838 26.864 126.344 26.9867 126.771 27.232C127.198 27.4667 127.523 27.792 127.747 28.208V26.976H131.283V35.84C131.283 36.6827 131.128 37.4507 130.819 38.144C130.51 38.8373 130.008 39.392 129.315 39.808C128.632 40.224 127.752 40.432 126.675 40.432C125.224 40.432 124.072 40.0907 123.219 39.408C122.376 38.736 121.896 37.8187 121.779 36.656H125.267C125.363 37.1253 125.747 37.36 126.419 37.36C126.835 37.36 127.16 37.2533 127.395 37.04C127.63 36.8267 127.747 36.4267 127.747 35.84V34.768C127.523 35.184 127.198 35.5147 126.771 35.76C126.344 35.9947 125.838 36.112 125.251 36.112C124.547 36.112 123.912 35.9307 123.347 35.568C122.782 35.1947 122.334 34.6613 122.003 33.968C121.683 33.264 121.523 32.4373 121.523 31.488C121.523 30.5387 121.683 29.7173 122.003 29.024C122.334 28.32 122.782 27.7867 123.347 27.424C123.912 27.0507 124.547 26.864 125.251 26.864ZM127.747 31.488C127.747 31.008 127.624 30.6347 127.379 30.368C127.134 30.1013 126.819 29.968 126.435 29.968C126.051 29.968 125.736 30.1013 125.491 30.368C125.246 30.6347 125.123 31.008 125.123 31.488C125.123 31.968 125.246 32.3413 125.491 32.608C125.736 32.8747 126.051 33.008 126.435 33.008C126.819 33.008 127.134 32.8747 127.379 32.608C127.624 32.3413 127.747 31.968 127.747 31.488ZM141.614 31.408C141.614 31.6533 141.598 31.888 141.566 32.112H135.854C135.907 32.8907 136.233 33.28 136.83 33.28C137.214 33.28 137.491 33.104 137.662 32.752H141.422C141.294 33.392 141.022 33.968 140.606 34.48C140.201 34.9813 139.683 35.3813 139.054 35.68C138.435 35.968 137.753 36.112 137.006 36.112C136.11 36.112 135.31 35.9253 134.606 35.552C133.913 35.1787 133.369 34.6453 132.974 33.952C132.59 33.248 132.398 32.4267 132.398 31.488C132.398 30.5493 132.59 29.7333 132.974 29.04C133.369 28.336 133.913 27.7973 134.606 27.424C135.31 27.0507 136.11 26.864 137.006 26.864C137.902 26.864 138.697 27.0507 139.39 27.424C140.094 27.7867 140.638 28.3093 141.022 28.992C141.417 29.6747 141.614 30.48 141.614 31.408ZM138.014 30.56C138.014 30.2613 137.918 30.0373 137.726 29.888C137.534 29.728 137.294 29.648 137.006 29.648C136.377 29.648 136.009 29.952 135.902 30.56H138.014Z" fill="#FB8C00"/>
</svg>
