<svg width="212" height="200" viewBox="0 0 212 200" fill="none" xmlns="http://www.w3.org/2000/svg">
<rect x="0.25" y="0.25" width="211.5" height="199.5" rx="15.75" fill="#FFF8F0" stroke="#FB8C00" stroke-width="0.5"/>
<path d="M103.583 95.4167H77V90.5833H103.583V64H108.417V90.5833H135V95.4167H108.417V122H103.583V95.4167Z" fill="#FB8C00"/>
<path d="M63.688 169.416C63.688 168.328 63.9333 167.352 64.424 166.488C64.9147 165.613 65.5813 164.931 66.424 164.44C67.2773 163.949 68.2213 163.704 69.256 163.704C70.472 163.704 71.5333 163.997 72.44 164.584C73.3467 165.171 74.008 166.003 74.424 167.08H72.68C72.3707 166.408 71.9227 165.891 71.336 165.528C70.76 165.165 70.0667 164.984 69.256 164.984C68.4773 164.984 67.7787 165.165 67.16 165.528C66.5413 165.891 66.056 166.408 65.704 167.08C65.352 167.741 65.176 168.52 65.176 169.416C65.176 170.301 65.352 171.08 65.704 171.752C66.056 172.413 66.5413 172.925 67.16 173.288C67.7787 173.651 68.4773 173.832 69.256 173.832C70.0667 173.832 70.76 173.656 71.336 173.304C71.9227 172.941 72.3707 172.424 72.68 171.752H74.424C74.008 172.819 73.3467 173.645 72.44 174.232C71.5333 174.808 70.472 175.096 69.256 175.096C68.2213 175.096 67.2773 174.856 66.424 174.376C65.5813 173.885 64.9147 173.208 64.424 172.344C63.9333 171.48 63.688 170.504 63.688 169.416ZM78.0474 163.16V175H76.5914V163.16H78.0474ZM81.2809 164.808C81.0035 164.808 80.7689 164.712 80.5769 164.52C80.3849 164.328 80.2889 164.093 80.2889 163.816C80.2889 163.539 80.3849 163.304 80.5769 163.112C80.7689 162.92 81.0035 162.824 81.2809 162.824C81.5475 162.824 81.7715 162.92 81.9529 163.112C82.1449 163.304 82.2409 163.539 82.2409 163.816C82.2409 164.093 82.1449 164.328 81.9529 164.52C81.7715 164.712 81.5475 164.808 81.2809 164.808ZM81.9849 166.232V175H80.5289V166.232H81.9849ZM83.9224 170.6C83.9224 169.693 84.1037 168.904 84.4664 168.232C84.829 167.549 85.3304 167.021 85.9704 166.648C86.621 166.275 87.3624 166.088 88.1944 166.088C89.2717 166.088 90.157 166.349 90.8504 166.872C91.5544 167.395 92.0184 168.12 92.2424 169.048H90.6744C90.525 168.515 90.2317 168.093 89.7944 167.784C89.3677 167.475 88.8344 167.32 88.1944 167.32C87.3624 167.32 86.6904 167.608 86.1784 168.184C85.6664 168.749 85.4104 169.555 85.4104 170.6C85.4104 171.656 85.6664 172.472 86.1784 173.048C86.6904 173.624 87.3624 173.912 88.1944 173.912C88.8344 173.912 89.3677 173.763 89.7944 173.464C90.221 173.165 90.5144 172.739 90.6744 172.184H92.2424C92.0077 173.08 91.5384 173.8 90.8344 174.344C90.1304 174.877 89.2504 175.144 88.1944 175.144C87.3624 175.144 86.621 174.957 85.9704 174.584C85.3304 174.211 84.829 173.683 84.4664 173C84.1037 172.317 83.9224 171.517 83.9224 170.6ZM99.0811 175L95.6411 171.128V175H94.1851V163.16H95.6411V170.12L99.0171 166.232H101.049L96.9211 170.6L101.065 175H99.0811ZM118.407 167.112C118.407 168.04 118.087 168.813 117.447 169.432C116.817 170.04 115.852 170.344 114.551 170.344H112.407V175H110.951V163.848H114.551C115.809 163.848 116.764 164.152 117.415 164.76C118.076 165.368 118.407 166.152 118.407 167.112ZM114.551 169.144C115.361 169.144 115.959 168.968 116.343 168.616C116.727 168.264 116.919 167.763 116.919 167.112C116.919 165.736 116.129 165.048 114.551 165.048H112.407V169.144H114.551ZM124.568 166.072C125.23 166.072 125.827 166.216 126.36 166.504C126.894 166.781 127.31 167.203 127.608 167.768C127.918 168.333 128.072 169.021 128.072 169.832V175H126.632V170.04C126.632 169.165 126.414 168.499 125.976 168.04C125.539 167.571 124.942 167.336 124.184 167.336C123.416 167.336 122.803 167.576 122.344 168.056C121.896 168.536 121.672 169.235 121.672 170.152V175H120.216V163.16H121.672V167.48C121.96 167.032 122.355 166.685 122.856 166.44C123.368 166.195 123.939 166.072 124.568 166.072ZM134.275 175.144C133.453 175.144 132.707 174.957 132.035 174.584C131.373 174.211 130.851 173.683 130.467 173C130.093 172.307 129.907 171.507 129.907 170.6C129.907 169.704 130.099 168.915 130.483 168.232C130.877 167.539 131.411 167.011 132.083 166.648C132.755 166.275 133.507 166.088 134.339 166.088C135.171 166.088 135.923 166.275 136.595 166.648C137.267 167.011 137.795 167.533 138.179 168.216C138.573 168.899 138.771 169.693 138.771 170.6C138.771 171.507 138.568 172.307 138.163 173C137.768 173.683 137.229 174.211 136.547 174.584C135.864 174.957 135.107 175.144 134.275 175.144ZM134.275 173.864C134.797 173.864 135.288 173.741 135.747 173.496C136.205 173.251 136.573 172.883 136.851 172.392C137.139 171.901 137.283 171.304 137.283 170.6C137.283 169.896 137.144 169.299 136.867 168.808C136.589 168.317 136.227 167.955 135.779 167.72C135.331 167.475 134.845 167.352 134.323 167.352C133.789 167.352 133.299 167.475 132.851 167.72C132.413 167.955 132.061 168.317 131.795 168.808C131.528 169.299 131.395 169.896 131.395 170.6C131.395 171.315 131.523 171.917 131.779 172.408C132.045 172.899 132.397 173.267 132.835 173.512C133.272 173.747 133.752 173.864 134.275 173.864ZM142.461 167.432V172.6C142.461 173.027 142.552 173.331 142.733 173.512C142.914 173.683 143.229 173.768 143.677 173.768H144.749V175H143.437C142.626 175 142.018 174.813 141.613 174.44C141.208 174.067 141.005 173.453 141.005 172.6V167.432H139.869V166.232H141.005V164.024H142.461V166.232H144.749V167.432H142.461ZM150.337 175.144C149.516 175.144 148.769 174.957 148.097 174.584C147.436 174.211 146.913 173.683 146.529 173C146.156 172.307 145.969 171.507 145.969 170.6C145.969 169.704 146.161 168.915 146.545 168.232C146.94 167.539 147.473 167.011 148.145 166.648C148.817 166.275 149.569 166.088 150.401 166.088C151.233 166.088 151.985 166.275 152.657 166.648C153.329 167.011 153.857 167.533 154.241 168.216C154.636 168.899 154.833 169.693 154.833 170.6C154.833 171.507 154.631 172.307 154.225 173C153.831 173.683 153.292 174.211 152.609 174.584C151.927 174.957 151.169 175.144 150.337 175.144ZM150.337 173.864C150.86 173.864 151.351 173.741 151.809 173.496C152.268 173.251 152.636 172.883 152.913 172.392C153.201 171.901 153.345 171.304 153.345 170.6C153.345 169.896 153.207 169.299 152.929 168.808C152.652 168.317 152.289 167.955 151.841 167.72C151.393 167.475 150.908 167.352 150.385 167.352C149.852 167.352 149.361 167.475 148.913 167.72C148.476 167.955 148.124 168.317 147.857 168.808C147.591 169.299 147.457 169.896 147.457 170.6C147.457 171.315 147.585 171.917 147.841 172.408C148.108 172.899 148.46 173.267 148.897 173.512C149.335 173.747 149.815 173.864 150.337 173.864Z" fill="#FB8C00"/>
</svg>
