<svg width="14" height="16" viewBox="0 0 14 16" fill="none" xmlns="http://www.w3.org/2000/svg">
<path d="M10.3333 11.6666C10.3333 11.313 10.1929 10.9738 9.94281 10.7238C9.69277 10.4737 9.35363 10.3333 9 10.3333H5.00001C4.64638 10.3333 4.30724 10.4737 4.0572 10.7238C3.80715 10.9738 3.66667 11.313 3.66667 11.6666" stroke="#FB8C00" stroke-width="2" stroke-linecap="round" stroke-linejoin="round"/>
<path d="M11.6667 2.33325H2.33333C1.59695 2.33325 1 2.93021 1 3.66659V12.9999C1 13.7363 1.59695 14.3333 2.33333 14.3333H11.6667C12.403 14.3333 13 13.7363 13 12.9999V3.66659C13 2.93021 12.403 2.33325 11.6667 2.33325Z" stroke="#FB8C00" stroke-width="2" stroke-linecap="round" stroke-linejoin="round"/>
<path d="M7.00001 7.66667C7.73638 7.66667 8.33334 7.06971 8.33334 6.33333C8.33334 5.59695 7.73638 5 7.00001 5C6.26363 5 5.66667 5.59695 5.66667 6.33333C5.66667 7.06971 6.26363 7.66667 7.00001 7.66667Z" stroke="#FB8C00" stroke-width="2" stroke-linecap="round" stroke-linejoin="round"/>
<path d="M4.33333 1V2.33333M9.66666 1V2.33333" stroke="#FB8C00" stroke-width="2" stroke-linecap="round" stroke-linejoin="round"/>
</svg>
