<svg width="71" height="98" viewBox="0 0 71 98" fill="none" xmlns="http://www.w3.org/2000/svg">
<path d="M69.4118 97.6243H1.58752C1.16648 97.6243 0.762692 97.46 0.464974 97.1674C0.167256 96.8748 0 96.478 0 96.0642V1.56008C0 1.14632 0.167256 0.74951 0.464974 0.456938C0.762692 0.164365 1.16648 0 1.58752 0L40.5452 0L70.9995 29.928V96.0642C70.9995 96.478 70.8322 96.8748 70.5344 97.1674C70.2367 97.46 69.8328 97.6243 69.4118 97.6243Z" fill="#F9E7C0"/>
<path d="M40.572 0L71.0001 29.7837H47.0395C43.4675 29.7837 40.5718 26.9493 40.5718 23.4529V0H40.572Z" fill="#EAC083"/>
<path d="M30.2918 17.4776H8.94926C7.74151 17.4776 6.76245 16.5284 6.76245 15.3574C6.76245 14.1864 7.74151 13.2372 8.94926 13.2372H30.2918C31.4995 13.2372 32.4786 14.1864 32.4786 15.3574C32.4786 16.5284 31.4995 17.4776 30.2918 17.4776ZM32.4786 29.2356C32.4786 28.0646 31.4995 27.1154 30.2918 27.1154H8.94926C7.74151 27.1154 6.76245 28.0646 6.76245 29.2356C6.76245 30.4066 7.74151 31.3558 8.94926 31.3558H30.2918C31.4995 31.3558 32.4786 30.4066 32.4786 29.2356ZM32.4786 43.114C32.4786 41.943 31.4995 40.9938 30.2918 40.9938H8.94926C7.74151 40.9938 6.76245 41.943 6.76245 43.114C6.76245 44.285 7.74151 45.2343 8.94926 45.2343H30.2918C31.4995 45.2341 32.4786 44.285 32.4786 43.114ZM50.955 56.9922C50.955 55.8215 49.976 54.872 48.7682 54.872H8.94926C7.74151 54.872 6.76245 55.8213 6.76245 56.9922C6.76245 58.1632 7.74151 59.1125 8.94926 59.1125H48.7682C49.976 59.1125 50.955 58.1632 50.955 56.9922ZM58.3216 43.114C58.3216 41.943 57.3426 40.9938 56.1348 40.9938H41.4018C40.1943 40.9938 39.215 41.943 39.215 43.114C39.215 44.285 40.1941 45.2343 41.4018 45.2343H56.1348C57.3426 45.2341 58.3216 44.285 58.3216 43.114ZM43.0318 70.8707C43.0318 69.6999 42.0528 68.7504 40.845 68.7504H8.94926C7.74151 68.7504 6.76245 69.6997 6.76245 70.8707C6.76245 72.0416 7.74151 72.9909 8.94926 72.9909H40.845C42.0528 72.9907 43.0318 72.0414 43.0318 70.8707ZM56.0407 84.7489C56.0407 83.5781 55.0616 82.6286 53.8539 82.6286H8.94926C7.74151 82.6286 6.76245 83.5779 6.76245 84.7489C6.76245 85.9198 7.74151 86.8691 8.94926 86.8691H53.8539C55.0614 86.8691 56.0407 85.9198 56.0407 84.7489Z" fill="#2E2C43"/>
</svg>
