<svg width="40" height="55" viewBox="0 0 40 55" fill="none" xmlns="http://www.w3.org/2000/svg">
<path d="M39.1055 55H0.894383C0.657178 55 0.429689 54.9074 0.261959 54.7426C0.0942296 54.5777 0 54.3542 0 54.1211V0.878926C0 0.64582 0.0942296 0.422262 0.261959 0.257431C0.429689 0.0926009 0.657178 0 0.894383 0L22.8425 0L40 16.8609V54.1211C40 54.3542 39.9057 54.5777 39.738 54.7426C39.5702 54.9074 39.3427 55 39.1055 55Z" fill="#F9E7C0"/>
<path d="M22.8575 0L40.0003 16.7797H26.5012C24.4888 16.7797 22.8574 15.1828 22.8574 13.213V0H22.8575Z" fill="#EAC083"/>
<path d="M17.0656 9.84664H5.04158C4.36115 9.84664 3.80957 9.31185 3.80957 8.65214C3.80957 7.99243 4.36115 7.45764 5.04158 7.45764H17.0656C17.746 7.45764 18.2976 7.99243 18.2976 8.65214C18.2976 9.31185 17.746 9.84664 17.0656 9.84664ZM18.2976 16.4709C18.2976 15.8112 17.746 15.2764 17.0656 15.2764H5.04158C4.36115 15.2764 3.80957 15.8112 3.80957 16.4709C3.80957 17.1306 4.36115 17.6654 5.04158 17.6654H17.0656C17.746 17.6654 18.2976 17.1306 18.2976 16.4709ZM18.2976 24.2898C18.2976 23.6301 17.746 23.0953 17.0656 23.0953H5.04158C4.36115 23.0953 3.80957 23.6301 3.80957 24.2898C3.80957 24.9495 4.36115 25.4843 5.04158 25.4843H17.0656C17.746 25.4842 18.2976 24.9495 18.2976 24.2898ZM28.707 32.1086C28.707 31.4489 28.1554 30.914 27.475 30.914H5.04158C4.36115 30.914 3.80957 31.4488 3.80957 32.1086C3.80957 32.7683 4.36115 33.3031 5.04158 33.3031H27.475C28.1554 33.3031 28.707 32.7683 28.707 32.1086ZM32.8572 24.2898C32.8572 23.6301 32.3056 23.0953 31.6252 23.0953H23.3249C22.6445 23.0953 22.0928 23.6301 22.0928 24.2898C22.0928 24.9495 22.6444 25.4843 23.3249 25.4843H31.6252C32.3056 25.4842 32.8572 24.9495 32.8572 24.2898ZM24.2432 39.9274C24.2432 39.2678 23.6916 38.7329 23.0112 38.7329H5.04158C4.36115 38.7329 3.80957 39.2677 3.80957 39.9274C3.80957 40.5871 4.36115 41.1219 5.04158 41.1219H23.0112C23.6916 41.1218 24.2432 40.587 24.2432 39.9274ZM31.5722 47.7462C31.5722 47.0866 31.0206 46.5517 30.3401 46.5517H5.04158C4.36115 46.5517 3.80957 47.0865 3.80957 47.7462C3.80957 48.4059 4.36115 48.9407 5.04158 48.9407H30.3401C31.0205 48.9407 31.5722 48.4059 31.5722 47.7462Z" fill="#2E2C43"/>
</svg>
