<svg width="107" height="102" viewBox="0 0 107 102" fill="none" xmlns="http://www.w3.org/2000/svg">
<path d="M85.6 0C91.2756 0 96.7188 2.26245 100.732 6.28964C104.745 10.3168 107 15.7789 107 21.4742V64.4226C107 70.1179 104.745 75.5799 100.732 79.6071C96.7188 83.6343 91.2756 85.8968 85.6 85.8968H60.3266L34.8499 101.235C34.0827 101.697 33.2122 101.958 32.3181 101.995C31.4241 102.033 30.5351 101.844 29.7324 101.447C28.9297 101.05 28.2391 100.458 27.7237 99.7238C27.2082 98.9899 26.8845 98.1379 26.7821 97.2459L26.75 96.6339V85.8968H21.4C15.9096 85.8968 10.6292 83.7792 6.65106 79.9821C2.67288 76.185 0.30127 70.9988 0.0267506 65.4963L0 64.4226V21.4742C0 15.7789 2.25464 10.3168 6.26792 6.28964C10.2812 2.26245 15.7244 0 21.4 0H85.6ZM64.2 48.3169H32.1C30.6811 48.3169 29.3203 48.8825 28.317 49.8893C27.3137 50.8961 26.75 52.2617 26.75 53.6855C26.75 55.1093 27.3137 56.4748 28.317 57.4816C29.3203 58.4884 30.6811 59.054 32.1 59.054H64.2C65.6189 59.054 66.9797 58.4884 67.983 57.4816C68.9863 56.4748 69.55 55.1093 69.55 53.6855C69.55 52.2617 68.9863 50.8961 67.983 49.8893C66.9797 48.8825 65.6189 48.3169 64.2 48.3169ZM74.9 26.8427H32.1C30.6811 26.8427 29.3203 27.4084 28.317 28.4152C27.3137 29.4219 26.75 30.7875 26.75 32.2113C26.75 33.6351 27.3137 35.0006 28.317 36.0074C29.3203 37.0142 30.6811 37.5798 32.1 37.5798H74.9C76.3189 37.5798 77.6797 37.0142 78.683 36.0074C79.6863 35.0006 80.25 33.6351 80.25 32.2113C80.25 30.7875 79.6863 29.4219 78.683 28.4152C77.6797 27.4084 76.3189 26.8427 74.9 26.8427Z" fill="#FB8C00"/>
</svg>
