<svg width="80" height="87" viewBox="0 0 80 87" fill="none" xmlns="http://www.w3.org/2000/svg">
<path d="M0 26.6537V0.939453H5.81818V26.6537C5.81818 28.927 6.73766 31.1072 8.37434 32.7147C10.011 34.3221 12.2308 35.2252 14.5455 35.2252C16.8601 35.2252 19.0799 34.3221 20.7166 32.7147C22.3533 31.1072 23.2727 28.927 23.2727 26.6537V9.51088C23.2727 8.75312 22.9662 8.02639 22.4207 7.49058C21.8751 6.95476 21.1352 6.65374 20.3636 6.65374C19.5921 6.65374 18.8522 6.95476 18.3066 7.49058C17.761 8.02639 17.4545 8.75312 17.4545 9.51088V29.5109H11.6364V9.51088C11.6364 8.38527 11.8621 7.27067 12.3007 6.23074C12.7393 5.1908 13.3821 4.2459 14.1925 3.44997C15.0029 2.65404 15.965 2.02267 17.0239 1.59191C18.0827 1.16116 19.2176 0.939453 20.3636 0.939453C21.5097 0.939453 22.6446 1.16116 23.7034 1.59191C24.7623 2.02267 25.7243 2.65404 26.5348 3.44997C27.3452 4.2459 27.988 5.1908 28.4266 6.23074C28.8652 7.27067 29.0909 8.38527 29.0909 9.51088V26.6537C29.0909 30.4425 27.5584 34.0762 24.8306 36.7553C22.1028 39.4344 18.4031 40.9395 14.5455 40.9395C10.6878 40.9395 6.98807 39.4344 4.26027 36.7553C1.53246 34.0762 0 30.4425 0 26.6537Z" fill="#FB8C00"/>
<path fill-rule="evenodd" clip-rule="evenodd" d="M71.4685 0.939453H34.4988V26.7576C34.4988 32.0834 32.4015 37.191 28.6682 40.9569C24.935 44.7228 19.8716 46.8384 14.592 46.8384H6.06055V78.394C6.06055 80.6765 6.9594 82.8655 8.55936 84.4794C10.1593 86.0934 12.3293 87.0001 14.592 87.0001H71.4685C73.7312 87.0001 75.9012 86.0934 77.5011 84.4794C79.1011 82.8655 79.9999 80.6765 79.9999 78.394V9.54551C79.9999 7.26304 79.1011 5.07406 77.5011 3.46011C75.9012 1.84616 73.7312 0.939453 71.4685 0.939453ZM62.937 23.8889H40.1864V29.6263H62.937V23.8889ZM62.937 41.1011H40.1864V46.8384H62.937V41.1011ZM23.1235 58.3132H62.937V64.0506H23.1235V58.3132Z" fill="#FB8C00"/>
</svg>
