<svg width="118" height="118" viewBox="0 0 118 118" fill="none" xmlns="http://www.w3.org/2000/svg">
<path d="M110.686 58.9999L117.207 47.7292C117.991 46.3732 118.204 44.7614 117.8 43.2482C117.395 41.7351 116.407 40.4444 115.051 39.6601L103.769 33.1387V20.143C103.769 18.5764 103.147 17.0739 102.039 15.9661C100.931 14.8583 99.4286 14.2359 97.862 14.2359H84.8727L78.3574 2.95929C77.5706 1.60607 76.2825 0.617161 74.7719 0.206586C74.0227 0.00347568 73.2407 -0.0488972 72.4711 0.0525027C71.7015 0.153903 70.9596 0.407059 70.2886 0.797296L59.0064 7.31873L47.7242 0.791388C46.3675 0.00809377 44.7552 -0.204175 43.2421 0.201275C41.7289 0.606725 40.4387 1.59669 39.6554 2.95339L33.1342 14.2359H20.1449C18.5783 14.2359 17.0758 14.8583 15.968 15.9661C14.8603 17.0739 14.238 18.5764 14.238 20.143V33.1327L2.95576 39.6542C2.28256 40.0414 1.69251 40.5579 1.21951 41.1738C0.74651 41.7898 0.399878 42.4932 0.199533 43.2436C-0.000812731 43.9939 -0.0509236 44.7765 0.0520792 45.5463C0.155082 46.316 0.409167 47.0579 0.799739 47.7292L7.32097 58.9999L0.799739 70.2707C0.0199609 71.628 -0.191605 73.2385 0.211165 74.7512C0.613936 76.2638 1.59838 77.5559 2.94985 78.3456L14.232 84.8671V97.8568C14.232 99.4234 14.8544 100.926 15.9621 102.034C17.0699 103.142 18.5723 103.764 20.139 103.764H33.1342L39.6554 115.046C40.1783 115.94 40.925 116.683 41.8219 117.201C42.7188 117.719 43.7351 117.994 44.7708 118C45.7986 118 46.8205 117.728 47.7301 117.203L59.0005 110.681L70.2827 117.203C71.639 117.985 73.2502 118.197 74.7629 117.793C76.2755 117.389 77.5661 116.401 78.3515 115.046L84.8669 103.764H97.8561C99.4228 103.764 100.925 103.142 102.033 102.034C103.141 100.926 103.763 99.4234 103.763 97.8568V84.8671L115.045 78.3456C115.717 77.9573 116.306 77.4403 116.778 76.8242C117.25 76.2081 117.596 75.5049 117.797 74.755C117.997 74.0051 118.047 73.223 117.945 72.4536C117.843 71.6841 117.59 70.9423 117.201 70.2707L110.686 58.9999ZM44.2332 29.4054C46.5839 29.4061 48.838 30.3407 50.4997 32.0035C52.1613 33.6663 53.0944 35.9211 53.0936 38.2719C53.0928 40.6227 52.1582 42.8769 50.4955 44.5386C48.8327 46.2003 46.578 47.1333 44.2273 47.1326C41.8766 47.1318 39.6225 46.1972 37.9609 44.5344C36.2992 42.8716 35.3662 40.6168 35.367 38.266C35.3677 35.9152 36.3023 33.6611 37.9651 31.9994C39.6278 30.3377 41.8825 29.4046 44.2332 29.4054ZM46.0053 86.1135L36.5543 79.0309L71.9957 31.7741L81.4467 38.8567L46.0053 86.1135ZM73.7678 88.4763C72.6038 88.4759 71.4513 88.2463 70.3762 87.8005C69.3009 87.3547 68.3241 86.7015 67.5013 85.8781C66.6786 85.0548 66.026 84.0775 65.581 83.002C65.1359 81.9264 64.907 80.7738 64.9074 79.6098C64.9078 78.4458 65.1374 77.2933 65.5832 76.218C66.029 75.1428 66.6822 74.1659 67.5055 73.3431C68.3288 72.5203 69.3061 71.8678 70.3816 71.4227C71.4571 70.9776 72.6097 70.7487 73.7737 70.7491C76.1244 70.7499 78.3785 71.6845 80.0401 73.3473C81.7018 75.0101 82.6348 77.2649 82.634 79.6157C82.6333 81.9665 81.6987 84.2206 80.0359 85.8823C78.3732 87.544 76.1185 88.4771 73.7678 88.4763Z" fill="#FB8C00"/>
</svg>
