<svg width="324" height="104" viewBox="0 0 324 104" fill="none" xmlns="http://www.w3.org/2000/svg">
<rect x="0.25" y="0.25" width="323.5" height="103.5" rx="15.75" fill="#FFC6C6" stroke="#E76063" stroke-width="0.5"/>
<path d="M35.084 27.242V28.278H32.424V37H31.15V28.278H28.476V27.242H35.084ZM43.6522 32.87C43.6522 33.1127 43.6382 33.3693 43.6102 33.64H37.4782C37.5249 34.396 37.7816 34.9887 38.2482 35.418C38.7242 35.838 39.2982 36.048 39.9702 36.048C40.5209 36.048 40.9782 35.922 41.3422 35.67C41.7156 35.4087 41.9769 35.0633 42.1262 34.634H43.4982C43.2929 35.3713 42.8822 35.9733 42.2662 36.44C41.6502 36.8973 40.8849 37.126 39.9702 37.126C39.2422 37.126 38.5889 36.9627 38.0102 36.636C37.4409 36.3093 36.9929 35.8473 36.6662 35.25C36.3396 34.6433 36.1762 33.9433 36.1762 33.15C36.1762 32.3567 36.3349 31.6613 36.6522 31.064C36.9696 30.4667 37.4129 30.0093 37.9822 29.692C38.5609 29.3653 39.2236 29.202 39.9702 29.202C40.6982 29.202 41.3422 29.3607 41.9022 29.678C42.4622 29.9953 42.8916 30.434 43.1902 30.994C43.4982 31.5447 43.6522 32.17 43.6522 32.87ZM42.3362 32.604C42.3362 32.1187 42.2289 31.7033 42.0142 31.358C41.7996 31.0033 41.5056 30.7373 41.1322 30.56C40.7682 30.3733 40.3622 30.28 39.9142 30.28C39.2702 30.28 38.7196 30.4853 38.2622 30.896C37.8142 31.3067 37.5576 31.876 37.4922 32.604H42.3362ZM46.6079 26.64V37H45.3339V26.64H46.6079ZM50.0532 26.64V37H48.7792V26.64H50.0532ZM57.5109 30.378V34.9C57.5109 35.2733 57.5902 35.5393 57.7489 35.698C57.9076 35.8473 58.1829 35.922 58.5749 35.922H59.5129V37H58.3649C57.6556 37 57.1236 36.8367 56.7689 36.51C56.4142 36.1833 56.2369 35.6467 56.2369 34.9V30.378H55.2429V29.328H56.2369V27.396H57.5109V29.328H59.5129V30.378H57.5109ZM64.8645 29.188C65.4432 29.188 65.9658 29.314 66.4325 29.566C66.8992 29.8087 67.2632 30.1773 67.5245 30.672C67.7952 31.1667 67.9305 31.7687 67.9305 32.478V37H66.6705V32.66C66.6705 31.8947 66.4792 31.3113 66.0965 30.91C65.7138 30.4993 65.1912 30.294 64.5285 30.294C63.8565 30.294 63.3198 30.504 62.9185 30.924C62.5265 31.344 62.3305 31.9553 62.3305 32.758V37H61.0565V26.64H62.3305V30.42C62.5825 30.028 62.9278 29.7247 63.3665 29.51C63.8145 29.2953 64.3138 29.188 64.8645 29.188ZM77.0116 32.87C77.0116 33.1127 76.9976 33.3693 76.9696 33.64H70.8376C70.8843 34.396 71.1409 34.9887 71.6076 35.418C72.0836 35.838 72.6576 36.048 73.3296 36.048C73.8803 36.048 74.3376 35.922 74.7016 35.67C75.0749 35.4087 75.3363 35.0633 75.4856 34.634H76.8576C76.6523 35.3713 76.2416 35.9733 75.6256 36.44C75.0096 36.8973 74.2443 37.126 73.3296 37.126C72.6016 37.126 71.9483 36.9627 71.3696 36.636C70.8003 36.3093 70.3523 35.8473 70.0256 35.25C69.6989 34.6433 69.5356 33.9433 69.5356 33.15C69.5356 32.3567 69.6943 31.6613 70.0116 31.064C70.3289 30.4667 70.7723 30.0093 71.3416 29.692C71.9203 29.3653 72.5829 29.202 73.3296 29.202C74.0576 29.202 74.7016 29.3607 75.2616 29.678C75.8216 29.9953 76.2509 30.434 76.5496 30.994C76.8576 31.5447 77.0116 32.17 77.0116 32.87ZM75.6956 32.604C75.6956 32.1187 75.5883 31.7033 75.3736 31.358C75.1589 31.0033 74.8649 30.7373 74.4916 30.56C74.1276 30.3733 73.7216 30.28 73.2736 30.28C72.6296 30.28 72.0789 30.4853 71.6216 30.896C71.1736 31.3067 70.9169 31.876 70.8516 32.604H75.6956ZM85.2817 35.824L87.6617 29.328H89.0197L86.0097 37H84.5257L81.5157 29.328H82.8877L85.2817 35.824ZM97.2733 32.87C97.2733 33.1127 97.2593 33.3693 97.2313 33.64H91.0993C91.146 34.396 91.4026 34.9887 91.8693 35.418C92.3453 35.838 92.9193 36.048 93.5913 36.048C94.142 36.048 94.5993 35.922 94.9633 35.67C95.3366 35.4087 95.598 35.0633 95.7473 34.634H97.1193C96.914 35.3713 96.5033 35.9733 95.8873 36.44C95.2713 36.8973 94.506 37.126 93.5913 37.126C92.8633 37.126 92.21 36.9627 91.6313 36.636C91.062 36.3093 90.614 35.8473 90.2873 35.25C89.9606 34.6433 89.7973 33.9433 89.7973 33.15C89.7973 32.3567 89.956 31.6613 90.2733 31.064C90.5906 30.4667 91.034 30.0093 91.6033 29.692C92.182 29.3653 92.8446 29.202 93.5913 29.202C94.3193 29.202 94.9633 29.3607 95.5233 29.678C96.0833 29.9953 96.5126 30.434 96.8113 30.994C97.1193 31.5447 97.2733 32.17 97.2733 32.87ZM95.9573 32.604C95.9573 32.1187 95.85 31.7033 95.6353 31.358C95.4206 31.0033 95.1266 30.7373 94.7533 30.56C94.3893 30.3733 93.9833 30.28 93.5353 30.28C92.8913 30.28 92.3406 30.4853 91.8833 30.896C91.4353 31.3067 91.1786 31.876 91.1133 32.604H95.9573ZM102.693 29.188C103.626 29.188 104.382 29.4727 104.961 30.042C105.54 30.602 105.829 31.414 105.829 32.478V37H104.569V32.66C104.569 31.8947 104.378 31.3113 103.995 30.91C103.612 30.4993 103.09 30.294 102.427 30.294C101.755 30.294 101.218 30.504 100.817 30.924C100.425 31.344 100.229 31.9553 100.229 32.758V37H98.955V29.328H100.229V30.42C100.481 30.028 100.822 29.7247 101.251 29.51C101.69 29.2953 102.17 29.188 102.693 29.188ZM107.434 33.136C107.434 32.352 107.593 31.666 107.91 31.078C108.227 30.4807 108.661 30.0187 109.212 29.692C109.772 29.3653 110.397 29.202 111.088 29.202C111.685 29.202 112.241 29.342 112.754 29.622C113.267 29.8927 113.659 30.252 113.93 30.7V26.64H115.218V37H113.93V35.558C113.678 36.0153 113.305 36.3933 112.81 36.692C112.315 36.9813 111.737 37.126 111.074 37.126C110.393 37.126 109.772 36.958 109.212 36.622C108.661 36.286 108.227 35.8147 107.91 35.208C107.593 34.6013 107.434 33.9107 107.434 33.136ZM113.93 33.15C113.93 32.5713 113.813 32.0673 113.58 31.638C113.347 31.2087 113.029 30.882 112.628 30.658C112.236 30.4247 111.802 30.308 111.326 30.308C110.85 30.308 110.416 30.42 110.024 30.644C109.632 30.868 109.319 31.1947 109.086 31.624C108.853 32.0533 108.736 32.5573 108.736 33.136C108.736 33.724 108.853 34.2373 109.086 34.676C109.319 35.1053 109.632 35.4367 110.024 35.67C110.416 35.894 110.85 36.006 111.326 36.006C111.802 36.006 112.236 35.894 112.628 35.67C113.029 35.4367 113.347 35.1053 113.58 34.676C113.813 34.2373 113.93 33.7287 113.93 33.15ZM120.717 37.126C119.998 37.126 119.345 36.9627 118.757 36.636C118.178 36.3093 117.721 35.8473 117.385 35.25C117.058 34.6433 116.895 33.9433 116.895 33.15C116.895 32.366 117.063 31.6753 117.399 31.078C117.744 30.4713 118.211 30.0093 118.799 29.692C119.387 29.3653 120.045 29.202 120.773 29.202C121.501 29.202 122.159 29.3653 122.747 29.692C123.335 30.0093 123.797 30.4667 124.133 31.064C124.478 31.6613 124.651 32.3567 124.651 33.15C124.651 33.9433 124.474 34.6433 124.119 35.25C123.774 35.8473 123.302 36.3093 122.705 36.636C122.108 36.9627 121.445 37.126 120.717 37.126ZM120.717 36.006C121.174 36.006 121.604 35.8987 122.005 35.684C122.406 35.4693 122.728 35.1473 122.971 34.718C123.223 34.2887 123.349 33.766 123.349 33.15C123.349 32.534 123.228 32.0113 122.985 31.582C122.742 31.1527 122.425 30.8353 122.033 30.63C121.641 30.4153 121.216 30.308 120.759 30.308C120.292 30.308 119.863 30.4153 119.471 30.63C119.088 30.8353 118.78 31.1527 118.547 31.582C118.314 32.0113 118.197 32.534 118.197 33.15C118.197 33.7753 118.309 34.3027 118.533 34.732C118.766 35.1613 119.074 35.4833 119.457 35.698C119.84 35.9033 120.26 36.006 120.717 36.006ZM127.6 30.574C127.824 30.1353 128.141 29.7947 128.552 29.552C128.972 29.3093 129.481 29.188 130.078 29.188V30.504H129.742C128.314 30.504 127.6 31.2787 127.6 32.828V37H126.326V29.328H127.6V30.574ZM134.265 37.126C133.677 37.126 133.149 37.028 132.683 36.832C132.216 36.6267 131.847 36.3467 131.577 35.992C131.306 35.628 131.157 35.2127 131.129 34.746H132.445C132.482 35.1287 132.659 35.4413 132.977 35.684C133.303 35.9267 133.728 36.048 134.251 36.048C134.736 36.048 135.119 35.9407 135.399 35.726C135.679 35.5113 135.819 35.2407 135.819 34.914C135.819 34.578 135.669 34.3307 135.371 34.172C135.072 34.004 134.61 33.8407 133.985 33.682C133.415 33.5327 132.949 33.3833 132.585 33.234C132.23 33.0753 131.922 32.8467 131.661 32.548C131.409 32.24 131.283 31.8387 131.283 31.344C131.283 30.952 131.399 30.5927 131.633 30.266C131.866 29.9393 132.197 29.6827 132.627 29.496C133.056 29.3 133.546 29.202 134.097 29.202C134.946 29.202 135.632 29.4167 136.155 29.846C136.677 30.2753 136.957 30.8633 136.995 31.61H135.721C135.693 31.2087 135.529 30.8867 135.231 30.644C134.941 30.4013 134.549 30.28 134.055 30.28C133.597 30.28 133.233 30.378 132.963 30.574C132.692 30.77 132.557 31.0267 132.557 31.344C132.557 31.596 132.636 31.806 132.795 31.974C132.963 32.1327 133.168 32.2633 133.411 32.366C133.663 32.4593 134.008 32.5667 134.447 32.688C134.997 32.8373 135.445 32.9867 135.791 33.136C136.136 33.276 136.43 33.4907 136.673 33.78C136.925 34.0693 137.055 34.4473 137.065 34.914C137.065 35.334 136.948 35.712 136.715 36.048C136.481 36.384 136.15 36.65 135.721 36.846C135.301 37.0327 134.815 37.126 134.265 37.126ZM149.204 29.328L144.584 40.612H143.268L144.78 36.916L141.686 29.328H143.1L145.508 35.544L147.888 29.328H149.204ZM153.83 37.126C153.112 37.126 152.458 36.9627 151.87 36.636C151.292 36.3093 150.834 35.8473 150.498 35.25C150.172 34.6433 150.008 33.9433 150.008 33.15C150.008 32.366 150.176 31.6753 150.512 31.078C150.858 30.4713 151.324 30.0093 151.912 29.692C152.5 29.3653 153.158 29.202 153.886 29.202C154.614 29.202 155.272 29.3653 155.86 29.692C156.448 30.0093 156.91 30.4667 157.246 31.064C157.592 31.6613 157.764 32.3567 157.764 33.15C157.764 33.9433 157.587 34.6433 157.232 35.25C156.887 35.8473 156.416 36.3093 155.818 36.636C155.221 36.9627 154.558 37.126 153.83 37.126ZM153.83 36.006C154.288 36.006 154.717 35.8987 155.118 35.684C155.52 35.4693 155.842 35.1473 156.084 34.718C156.336 34.2887 156.462 33.766 156.462 33.15C156.462 32.534 156.341 32.0113 156.098 31.582C155.856 31.1527 155.538 30.8353 155.146 30.63C154.754 30.4153 154.33 30.308 153.872 30.308C153.406 30.308 152.976 30.4153 152.584 30.63C152.202 30.8353 151.894 31.1527 151.66 31.582C151.427 32.0113 151.31 32.534 151.31 33.15C151.31 33.7753 151.422 34.3027 151.646 34.732C151.88 35.1613 152.188 35.4833 152.57 35.698C152.953 35.9033 153.373 36.006 153.83 36.006ZM166.243 29.328V37H164.969V35.866C164.727 36.258 164.386 36.566 163.947 36.79C163.518 37.0047 163.042 37.112 162.519 37.112C161.922 37.112 161.385 36.9907 160.909 36.748C160.433 36.496 160.055 36.1227 159.775 35.628C159.505 35.1333 159.369 34.5313 159.369 33.822V29.328H160.629V33.654C160.629 34.41 160.821 34.9933 161.203 35.404C161.586 35.8053 162.109 36.006 162.771 36.006C163.453 36.006 163.989 35.796 164.381 35.376C164.773 34.956 164.969 34.3447 164.969 33.542V29.328H166.243ZM169.668 30.574C169.892 30.1353 170.21 29.7947 170.62 29.552C171.04 29.3093 171.549 29.188 172.146 29.188V30.504H171.81C170.382 30.504 169.668 31.2787 169.668 32.828V37H168.394V29.328H169.668V30.574ZM178.623 30.756C178.885 30.2987 179.267 29.9253 179.771 29.636C180.275 29.3467 180.849 29.202 181.493 29.202C182.184 29.202 182.805 29.3653 183.355 29.692C183.906 30.0187 184.34 30.4807 184.657 31.078C184.975 31.666 185.133 32.352 185.133 33.136C185.133 33.9107 184.975 34.6013 184.657 35.208C184.34 35.8147 183.901 36.286 183.341 36.622C182.791 36.958 182.175 37.126 181.493 37.126C180.831 37.126 180.247 36.9813 179.743 36.692C179.249 36.4027 178.875 36.034 178.623 35.586V37H177.349V26.64H178.623V30.756ZM183.831 33.136C183.831 32.5573 183.715 32.0533 183.481 31.624C183.248 31.1947 182.931 30.868 182.529 30.644C182.137 30.42 181.703 30.308 181.227 30.308C180.761 30.308 180.327 30.4247 179.925 30.658C179.533 30.882 179.216 31.2133 178.973 31.652C178.74 32.0813 178.623 32.5807 178.623 33.15C178.623 33.7287 178.74 34.2373 178.973 34.676C179.216 35.1053 179.533 35.4367 179.925 35.67C180.327 35.894 180.761 36.006 181.227 36.006C181.703 36.006 182.137 35.894 182.529 35.67C182.931 35.4367 183.248 35.1053 183.481 34.676C183.715 34.2373 183.831 33.724 183.831 33.136ZM193.614 29.328V37H192.34V35.866C192.098 36.258 191.757 36.566 191.318 36.79C190.889 37.0047 190.413 37.112 189.89 37.112C189.293 37.112 188.756 36.9907 188.28 36.748C187.804 36.496 187.426 36.1227 187.146 35.628C186.876 35.1333 186.74 34.5313 186.74 33.822V29.328H188V33.654C188 34.41 188.192 34.9933 188.574 35.404C188.957 35.8053 189.48 36.006 190.142 36.006C190.824 36.006 191.36 35.796 191.752 35.376C192.144 34.956 192.34 34.3447 192.34 33.542V29.328H193.614ZM195.29 33.136C195.29 32.352 195.448 31.666 195.766 31.078C196.083 30.4807 196.517 30.0187 197.068 29.692C197.628 29.3653 198.253 29.202 198.944 29.202C199.541 29.202 200.096 29.342 200.61 29.622C201.123 29.8927 201.515 30.252 201.786 30.7V26.64H203.074V37H201.786V35.558C201.534 36.0153 201.16 36.3933 200.666 36.692C200.171 36.9813 199.592 37.126 198.93 37.126C198.248 37.126 197.628 36.958 197.068 36.622C196.517 36.286 196.083 35.8147 195.766 35.208C195.448 34.6013 195.29 33.9107 195.29 33.136ZM201.786 33.15C201.786 32.5713 201.669 32.0673 201.436 31.638C201.202 31.2087 200.885 30.882 200.484 30.658C200.092 30.4247 199.658 30.308 199.182 30.308C198.706 30.308 198.272 30.42 197.88 30.644C197.488 30.868 197.175 31.1947 196.942 31.624C196.708 32.0533 196.592 32.5573 196.592 33.136C196.592 33.724 196.708 34.2373 196.942 34.676C197.175 35.1053 197.488 35.4367 197.88 35.67C198.272 35.894 198.706 36.006 199.182 36.006C199.658 36.006 200.092 35.894 200.484 35.67C200.885 35.4367 201.202 35.1053 201.436 34.676C201.669 34.2373 201.786 33.7287 201.786 33.15ZM208.39 29.202C209.053 29.202 209.632 29.3467 210.126 29.636C210.63 29.9253 211.004 30.2893 211.246 30.728V29.328H212.534V37.168C212.534 37.868 212.385 38.4887 212.086 39.03C211.788 39.5807 211.358 40.01 210.798 40.318C210.248 40.626 209.604 40.78 208.866 40.78C207.858 40.78 207.018 40.542 206.346 40.066C205.674 39.59 205.278 38.9413 205.156 38.12H206.416C206.556 38.5867 206.846 38.96 207.284 39.24C207.723 39.5293 208.25 39.674 208.866 39.674C209.566 39.674 210.136 39.4547 210.574 39.016C211.022 38.5773 211.246 37.9613 211.246 37.168V35.558C210.994 36.006 210.621 36.3793 210.126 36.678C209.632 36.9767 209.053 37.126 208.39 37.126C207.709 37.126 207.088 36.958 206.528 36.622C205.978 36.286 205.544 35.8147 205.226 35.208C204.909 34.6013 204.75 33.9107 204.75 33.136C204.75 32.352 204.909 31.666 205.226 31.078C205.544 30.4807 205.978 30.0187 206.528 29.692C207.088 29.3653 207.709 29.202 208.39 29.202ZM211.246 33.15C211.246 32.5713 211.13 32.0673 210.896 31.638C210.663 31.2087 210.346 30.882 209.944 30.658C209.552 30.4247 209.118 30.308 208.642 30.308C208.166 30.308 207.732 30.42 207.34 30.644C206.948 30.868 206.636 31.1947 206.402 31.624C206.169 32.0533 206.052 32.5573 206.052 33.136C206.052 33.724 206.169 34.2373 206.402 34.676C206.636 35.1053 206.948 35.4367 207.34 35.67C207.732 35.894 208.166 36.006 208.642 36.006C209.118 36.006 209.552 35.894 209.944 35.67C210.346 35.4367 210.663 35.1053 210.896 34.676C211.13 34.2373 211.246 33.7287 211.246 33.15ZM221.687 32.87C221.687 33.1127 221.673 33.3693 221.645 33.64H215.513C215.56 34.396 215.817 34.9887 216.283 35.418C216.759 35.838 217.333 36.048 218.005 36.048C218.556 36.048 219.013 35.922 219.377 35.67C219.751 35.4087 220.012 35.0633 220.161 34.634H221.533C221.328 35.3713 220.917 35.9733 220.301 36.44C219.685 36.8973 218.92 37.126 218.005 37.126C217.277 37.126 216.624 36.9627 216.045 36.636C215.476 36.3093 215.028 35.8473 214.701 35.25C214.375 34.6433 214.211 33.9433 214.211 33.15C214.211 32.3567 214.37 31.6613 214.687 31.064C215.005 30.4667 215.448 30.0093 216.017 29.692C216.596 29.3653 217.259 29.202 218.005 29.202C218.733 29.202 219.377 29.3607 219.937 29.678C220.497 29.9953 220.927 30.434 221.225 30.994C221.533 31.5447 221.687 32.17 221.687 32.87ZM220.371 32.604C220.371 32.1187 220.264 31.7033 220.049 31.358C219.835 31.0033 219.541 30.7373 219.167 30.56C218.803 30.3733 218.397 30.28 217.949 30.28C217.305 30.28 216.755 30.4853 216.297 30.896C215.849 31.3067 215.593 31.876 215.527 32.604H220.371ZM224.923 30.378V34.9C224.923 35.2733 225.002 35.5393 225.161 35.698C225.32 35.8473 225.595 35.922 225.987 35.922H226.925V37H225.777C225.068 37 224.536 36.8367 224.181 36.51C223.826 36.1833 223.649 35.6467 223.649 34.9V30.378H222.655V29.328H223.649V27.396H224.923V29.328H226.925V30.378H224.923ZM229.785 35.236L228.217 39.002H227.363L228.385 35.236H229.785ZM241.976 32.87C241.976 33.1127 241.962 33.3693 241.934 33.64H235.802C235.849 34.396 236.106 34.9887 236.572 35.418C237.048 35.838 237.622 36.048 238.294 36.048C238.845 36.048 239.302 35.922 239.666 35.67C240.04 35.4087 240.301 35.0633 240.45 34.634H241.822C241.617 35.3713 241.206 35.9733 240.59 36.44C239.974 36.8973 239.209 37.126 238.294 37.126C237.566 37.126 236.913 36.9627 236.334 36.636C235.765 36.3093 235.317 35.8473 234.99 35.25C234.664 34.6433 234.5 33.9433 234.5 33.15C234.5 32.3567 234.659 31.6613 234.976 31.064C235.294 30.4667 235.737 30.0093 236.306 29.692C236.885 29.3653 237.548 29.202 238.294 29.202C239.022 29.202 239.666 29.3607 240.226 29.678C240.786 29.9953 241.216 30.434 241.514 30.994C241.822 31.5447 241.976 32.17 241.976 32.87ZM240.66 32.604C240.66 32.1187 240.553 31.7033 240.338 31.358C240.124 31.0033 239.83 30.7373 239.456 30.56C239.092 30.3733 238.686 30.28 238.238 30.28C237.594 30.28 237.044 30.4853 236.586 30.896C236.138 31.3067 235.882 31.876 235.816 32.604H240.66ZM246.374 37.126C245.786 37.126 245.259 37.028 244.792 36.832C244.325 36.6267 243.957 36.3467 243.686 35.992C243.415 35.628 243.266 35.2127 243.238 34.746H244.554C244.591 35.1287 244.769 35.4413 245.086 35.684C245.413 35.9267 245.837 36.048 246.36 36.048C246.845 36.048 247.228 35.9407 247.508 35.726C247.788 35.5113 247.928 35.2407 247.928 34.914C247.928 34.578 247.779 34.3307 247.48 34.172C247.181 34.004 246.719 33.8407 246.094 33.682C245.525 33.5327 245.058 33.3833 244.694 33.234C244.339 33.0753 244.031 32.8467 243.77 32.548C243.518 32.24 243.392 31.8387 243.392 31.344C243.392 30.952 243.509 30.5927 243.742 30.266C243.975 29.9393 244.307 29.6827 244.736 29.496C245.165 29.3 245.655 29.202 246.206 29.202C247.055 29.202 247.741 29.4167 248.264 29.846C248.787 30.2753 249.067 30.8633 249.104 31.61H247.83C247.802 31.2087 247.639 30.8867 247.34 30.644C247.051 30.4013 246.659 30.28 246.164 30.28C245.707 30.28 245.343 30.378 245.072 30.574C244.801 30.77 244.666 31.0267 244.666 31.344C244.666 31.596 244.745 31.806 244.904 31.974C245.072 32.1327 245.277 32.2633 245.52 32.366C245.772 32.4593 246.117 32.5667 246.556 32.688C247.107 32.8373 247.555 32.9867 247.9 33.136C248.245 33.276 248.539 33.4907 248.782 33.78C249.034 34.0693 249.165 34.4473 249.174 34.914C249.174 35.334 249.057 35.712 248.824 36.048C248.591 36.384 248.259 36.65 247.83 36.846C247.41 37.0327 246.925 37.126 246.374 37.126ZM252.247 30.742C252.499 30.3033 252.872 29.9393 253.367 29.65C253.871 29.3513 254.454 29.202 255.117 29.202C255.798 29.202 256.414 29.3653 256.965 29.692C257.525 30.0187 257.963 30.4807 258.281 31.078C258.598 31.666 258.757 32.352 258.757 33.136C258.757 33.9107 258.598 34.6013 258.281 35.208C257.963 35.8147 257.525 36.286 256.965 36.622C256.414 36.958 255.798 37.126 255.117 37.126C254.463 37.126 253.885 36.9813 253.381 36.692C252.886 36.3933 252.508 36.0247 252.247 35.586V40.64H250.973V29.328H252.247V30.742ZM257.455 33.136C257.455 32.5573 257.338 32.0533 257.105 31.624C256.871 31.1947 256.554 30.868 256.153 30.644C255.761 30.42 255.327 30.308 254.851 30.308C254.384 30.308 253.95 30.4247 253.549 30.658C253.157 30.882 252.839 31.2133 252.597 31.652C252.363 32.0813 252.247 32.5807 252.247 33.15C252.247 33.7287 252.363 34.2373 252.597 34.676C252.839 35.1053 253.157 35.4367 253.549 35.67C253.95 35.894 254.384 36.006 254.851 36.006C255.327 36.006 255.761 35.894 256.153 35.67C256.554 35.4367 256.871 35.1053 257.105 34.676C257.338 34.2373 257.455 33.724 257.455 33.136ZM267.433 32.87C267.433 33.1127 267.419 33.3693 267.391 33.64H261.259C261.306 34.396 261.563 34.9887 262.029 35.418C262.505 35.838 263.079 36.048 263.751 36.048C264.302 36.048 264.759 35.922 265.123 35.67C265.497 35.4087 265.758 35.0633 265.907 34.634H267.279C267.074 35.3713 266.663 35.9733 266.047 36.44C265.431 36.8973 264.666 37.126 263.751 37.126C263.023 37.126 262.37 36.9627 261.791 36.636C261.222 36.3093 260.774 35.8473 260.447 35.25C260.121 34.6433 259.957 33.9433 259.957 33.15C259.957 32.3567 260.116 31.6613 260.433 31.064C260.751 30.4667 261.194 30.0093 261.763 29.692C262.342 29.3653 263.005 29.202 263.751 29.202C264.479 29.202 265.123 29.3607 265.683 29.678C266.243 29.9953 266.673 30.434 266.971 30.994C267.279 31.5447 267.433 32.17 267.433 32.87ZM266.117 32.604C266.117 32.1187 266.01 31.7033 265.795 31.358C265.581 31.0033 265.287 30.7373 264.913 30.56C264.549 30.3733 264.143 30.28 263.695 30.28C263.051 30.28 262.501 30.4853 262.043 30.896C261.595 31.3067 261.339 31.876 261.273 32.604H266.117ZM268.639 33.15C268.639 32.3567 268.798 31.666 269.115 31.078C269.432 30.4807 269.871 30.0187 270.431 29.692C271 29.3653 271.649 29.202 272.377 29.202C273.32 29.202 274.094 29.4307 274.701 29.888C275.317 30.3453 275.723 30.98 275.919 31.792H274.547C274.416 31.3253 274.16 30.9567 273.777 30.686C273.404 30.4153 272.937 30.28 272.377 30.28C271.649 30.28 271.061 30.532 270.613 31.036C270.165 31.5307 269.941 32.2353 269.941 33.15C269.941 34.074 270.165 34.788 270.613 35.292C271.061 35.796 271.649 36.048 272.377 36.048C272.937 36.048 273.404 35.9173 273.777 35.656C274.15 35.3947 274.407 35.0213 274.547 34.536H275.919C275.714 35.32 275.303 35.95 274.687 36.426C274.071 36.8927 273.301 37.126 272.377 37.126C271.649 37.126 271 36.9627 270.431 36.636C269.871 36.3093 269.432 35.8473 269.115 35.25C268.798 34.6527 268.639 33.9527 268.639 33.15ZM278.277 28.082C278.034 28.082 277.829 27.998 277.661 27.83C277.493 27.662 277.409 27.4567 277.409 27.214C277.409 26.9713 277.493 26.766 277.661 26.598C277.829 26.43 278.034 26.346 278.277 26.346C278.51 26.346 278.706 26.43 278.865 26.598C279.033 26.766 279.117 26.9713 279.117 27.214C279.117 27.4567 279.033 27.662 278.865 27.83C278.706 27.998 278.51 28.082 278.277 28.082ZM278.893 29.328V37H277.619V29.328H278.893ZM280.588 33.136C280.588 32.352 280.747 31.666 281.064 31.078C281.382 30.4807 281.816 30.0187 282.366 29.692C282.926 29.3653 283.547 29.202 284.228 29.202C284.9 29.202 285.484 29.3467 285.978 29.636C286.473 29.9253 286.842 30.2893 287.084 30.728V29.328H288.372V37H287.084V35.572C286.832 36.02 286.454 36.3933 285.95 36.692C285.456 36.9813 284.877 37.126 284.214 37.126C283.533 37.126 282.917 36.958 282.366 36.622C281.816 36.286 281.382 35.8147 281.064 35.208C280.747 34.6013 280.588 33.9107 280.588 33.136ZM287.084 33.15C287.084 32.5713 286.968 32.0673 286.734 31.638C286.501 31.2087 286.184 30.882 285.782 30.658C285.39 30.4247 284.956 30.308 284.48 30.308C284.004 30.308 283.57 30.42 283.178 30.644C282.786 30.868 282.474 31.1947 282.24 31.624C282.007 32.0533 281.89 32.5573 281.89 33.136C281.89 33.724 282.007 34.2373 282.24 34.676C282.474 35.1053 282.786 35.4367 283.178 35.67C283.57 35.894 284.004 36.006 284.48 36.006C284.956 36.006 285.39 35.894 285.782 35.67C286.184 35.4367 286.501 35.1053 286.734 34.676C286.968 34.2373 287.084 33.7287 287.084 33.15ZM291.799 26.64V37H290.525V26.64H291.799ZM295.245 26.64V37H293.971V26.64H295.245ZM304.024 29.328L299.404 40.612H298.088L299.6 36.916L296.506 29.328H297.92L300.328 35.544L302.708 29.328H304.024ZM29.736 49.082C29.4933 49.082 29.288 48.998 29.12 48.83C28.952 48.662 28.868 48.4567 28.868 48.214C28.868 47.9713 28.952 47.766 29.12 47.598C29.288 47.43 29.4933 47.346 29.736 47.346C29.9693 47.346 30.1653 47.43 30.324 47.598C30.492 47.766 30.576 47.9713 30.576 48.214C30.576 48.4567 30.492 48.662 30.324 48.83C30.1653 48.998 29.9693 49.082 29.736 49.082ZM30.352 50.328V58H29.078V50.328H30.352ZM35.6453 51.378H34.0353V58H32.7613V51.378H31.7673V50.328H32.7613V49.782C32.7613 48.9233 32.9806 48.298 33.4193 47.906C33.8673 47.5047 34.5813 47.304 35.5613 47.304V48.368C35.0013 48.368 34.6046 48.48 34.3713 48.704C34.1473 48.9187 34.0353 49.278 34.0353 49.782V50.328H35.6453V51.378ZM47.4712 50.328L42.8512 61.612H41.5352L43.0472 57.916L39.9532 50.328H41.3672L43.7752 56.544L46.1552 50.328H47.4712ZM52.0978 58.126C51.3792 58.126 50.7258 57.9627 50.1378 57.636C49.5592 57.3093 49.1018 56.8473 48.7658 56.25C48.4392 55.6433 48.2758 54.9433 48.2758 54.15C48.2758 53.366 48.4438 52.6753 48.7798 52.078C49.1252 51.4713 49.5918 51.0093 50.1798 50.692C50.7678 50.3653 51.4258 50.202 52.1538 50.202C52.8818 50.202 53.5398 50.3653 54.1278 50.692C54.7158 51.0093 55.1778 51.4667 55.5138 52.064C55.8592 52.6613 56.0318 53.3567 56.0318 54.15C56.0318 54.9433 55.8545 55.6433 55.4998 56.25C55.1545 56.8473 54.6832 57.3093 54.0858 57.636C53.4885 57.9627 52.8258 58.126 52.0978 58.126ZM52.0978 57.006C52.5552 57.006 52.9845 56.8987 53.3858 56.684C53.7872 56.4693 54.1092 56.1473 54.3518 55.718C54.6038 55.2887 54.7298 54.766 54.7298 54.15C54.7298 53.534 54.6085 53.0113 54.3658 52.582C54.1232 52.1527 53.8058 51.8353 53.4138 51.63C53.0218 51.4153 52.5972 51.308 52.1398 51.308C51.6732 51.308 51.2438 51.4153 50.8518 51.63C50.4692 51.8353 50.1612 52.1527 49.9278 52.582C49.6945 53.0113 49.5778 53.534 49.5778 54.15C49.5778 54.7753 49.6898 55.3027 49.9138 55.732C50.1472 56.1613 50.4552 56.4833 50.8378 56.698C51.2205 56.9033 51.6405 57.006 52.0978 57.006ZM64.5109 50.328V58H63.2369V56.866C62.9942 57.258 62.6536 57.566 62.2149 57.79C61.7856 58.0047 61.3096 58.112 60.7869 58.112C60.1896 58.112 59.6529 57.9907 59.1769 57.748C58.7009 57.496 58.3229 57.1227 58.0429 56.628C57.7722 56.1333 57.6369 55.5313 57.6369 54.822V50.328H58.8969V54.654C58.8969 55.41 59.0882 55.9933 59.4709 56.404C59.8536 56.8053 60.3762 57.006 61.0389 57.006C61.7202 57.006 62.2569 56.796 62.6489 56.376C63.0409 55.956 63.2369 55.3447 63.2369 54.542V50.328H64.5109ZM74.2024 50.188C74.7811 50.188 75.3037 50.314 75.7704 50.566C76.2371 50.8087 76.6011 51.1773 76.8624 51.672C77.1331 52.1667 77.2684 52.7687 77.2684 53.478V58H76.0084V53.66C76.0084 52.8947 75.8171 52.3113 75.4344 51.91C75.0517 51.4993 74.5291 51.294 73.8664 51.294C73.1944 51.294 72.6577 51.504 72.2564 51.924C71.8644 52.344 71.6684 52.9553 71.6684 53.758V58H70.3944V47.64H71.6684V51.42C71.9204 51.028 72.2657 50.7247 72.7044 50.51C73.1524 50.2953 73.6517 50.188 74.2024 50.188ZM78.8735 54.136C78.8735 53.352 79.0322 52.666 79.3495 52.078C79.6668 51.4807 80.1008 51.0187 80.6515 50.692C81.2115 50.3653 81.8322 50.202 82.5135 50.202C83.1855 50.202 83.7688 50.3467 84.2635 50.636C84.7582 50.9253 85.1268 51.2893 85.3695 51.728V50.328H86.6575V58H85.3695V56.572C85.1175 57.02 84.7395 57.3933 84.2355 57.692C83.7408 57.9813 83.1622 58.126 82.4995 58.126C81.8182 58.126 81.2022 57.958 80.6515 57.622C80.1008 57.286 79.6668 56.8147 79.3495 56.208C79.0322 55.6013 78.8735 54.9107 78.8735 54.136ZM85.3695 54.15C85.3695 53.5713 85.2528 53.0673 85.0195 52.638C84.7862 52.2087 84.4688 51.882 84.0675 51.658C83.6755 51.4247 83.2415 51.308 82.7655 51.308C82.2895 51.308 81.8555 51.42 81.4635 51.644C81.0715 51.868 80.7588 52.1947 80.5255 52.624C80.2922 53.0533 80.1755 53.5573 80.1755 54.136C80.1755 54.724 80.2922 55.2373 80.5255 55.676C80.7588 56.1053 81.0715 56.4367 81.4635 56.67C81.8555 56.894 82.2895 57.006 82.7655 57.006C83.2415 57.006 83.6755 56.894 84.0675 56.67C84.4688 56.4367 84.7862 56.1053 85.0195 55.676C85.2528 55.2373 85.3695 54.7287 85.3695 54.15ZM91.6664 56.824L94.0464 50.328H95.4044L92.3944 58H90.9104L87.9004 50.328H89.2724L91.6664 56.824ZM103.658 53.87C103.658 54.1127 103.644 54.3693 103.616 54.64H97.4841C97.5307 55.396 97.7874 55.9887 98.2541 56.418C98.7301 56.838 99.3041 57.048 99.9761 57.048C100.527 57.048 100.984 56.922 101.348 56.67C101.721 56.4087 101.983 56.0633 102.132 55.634H103.504C103.299 56.3713 102.888 56.9733 102.272 57.44C101.656 57.8973 100.891 58.126 99.9761 58.126C99.2481 58.126 98.5947 57.9627 98.0161 57.636C97.4467 57.3093 96.9987 56.8473 96.6721 56.25C96.3454 55.6433 96.1821 54.9433 96.1821 54.15C96.1821 53.3567 96.3407 52.6613 96.6581 52.064C96.9754 51.4667 97.4187 51.0093 97.9881 50.692C98.5667 50.3653 99.2294 50.202 99.9761 50.202C100.704 50.202 101.348 50.3607 101.908 50.678C102.468 50.9953 102.897 51.434 103.196 51.994C103.504 52.5447 103.658 53.17 103.658 53.87ZM102.342 53.604C102.342 53.1187 102.235 52.7033 102.02 52.358C101.805 52.0033 101.511 51.7373 101.138 51.56C100.774 51.3733 100.368 51.28 99.9201 51.28C99.2761 51.28 98.7254 51.4853 98.2681 51.896C97.8201 52.3067 97.5634 52.876 97.4981 53.604H102.342ZM110.346 47.64V58H109.072V47.64H110.346ZM115.863 58.126C115.145 58.126 114.491 57.9627 113.903 57.636C113.325 57.3093 112.867 56.8473 112.531 56.25C112.205 55.6433 112.041 54.9433 112.041 54.15C112.041 53.366 112.209 52.6753 112.545 52.078C112.891 51.4713 113.357 51.0093 113.945 50.692C114.533 50.3653 115.191 50.202 115.919 50.202C116.647 50.202 117.305 50.3653 117.893 50.692C118.481 51.0093 118.943 51.4667 119.279 52.064C119.625 52.6613 119.797 53.3567 119.797 54.15C119.797 54.9433 119.62 55.6433 119.265 56.25C118.92 56.8473 118.449 57.3093 117.851 57.636C117.254 57.9627 116.591 58.126 115.863 58.126ZM115.863 57.006C116.321 57.006 116.75 56.8987 117.151 56.684C117.553 56.4693 117.875 56.1473 118.117 55.718C118.369 55.2887 118.495 54.766 118.495 54.15C118.495 53.534 118.374 53.0113 118.131 52.582C117.889 52.1527 117.571 51.8353 117.179 51.63C116.787 51.4153 116.363 51.308 115.905 51.308C115.439 51.308 115.009 51.4153 114.617 51.63C114.235 51.8353 113.927 52.1527 113.693 52.582C113.46 53.0113 113.343 53.534 113.343 54.15C113.343 54.7753 113.455 55.3027 113.679 55.732C113.913 56.1613 114.221 56.4833 114.603 56.698C114.986 56.9033 115.406 57.006 115.863 57.006ZM124.819 58.126C124.1 58.126 123.447 57.9627 122.859 57.636C122.28 57.3093 121.823 56.8473 121.487 56.25C121.16 55.6433 120.997 54.9433 120.997 54.15C120.997 53.366 121.165 52.6753 121.501 52.078C121.846 51.4713 122.313 51.0093 122.901 50.692C123.489 50.3653 124.147 50.202 124.875 50.202C125.603 50.202 126.261 50.3653 126.849 50.692C127.437 51.0093 127.899 51.4667 128.235 52.064C128.58 52.6613 128.753 53.3567 128.753 54.15C128.753 54.9433 128.575 55.6433 128.221 56.25C127.875 56.8473 127.404 57.3093 126.807 57.636C126.209 57.9627 125.547 58.126 124.819 58.126ZM124.819 57.006C125.276 57.006 125.705 56.8987 126.107 56.684C126.508 56.4693 126.83 56.1473 127.073 55.718C127.325 55.2887 127.451 54.766 127.451 54.15C127.451 53.534 127.329 53.0113 127.087 52.582C126.844 52.1527 126.527 51.8353 126.135 51.63C125.743 51.4153 125.318 51.308 124.861 51.308C124.394 51.308 123.965 51.4153 123.573 51.63C123.19 51.8353 122.882 52.1527 122.649 52.582C122.415 53.0113 122.299 53.534 122.299 54.15C122.299 54.7753 122.411 55.3027 122.635 55.732C122.868 56.1613 123.176 56.4833 123.559 56.698C123.941 56.9033 124.361 57.006 124.819 57.006ZM134.712 58L131.702 54.612V58H130.428V47.64H131.702V53.73L134.656 50.328H136.434L132.822 54.15L136.448 58H134.712ZM144.633 53.87C144.633 54.1127 144.619 54.3693 144.591 54.64H138.459C138.505 55.396 138.762 55.9887 139.229 56.418C139.705 56.838 140.279 57.048 140.951 57.048C141.501 57.048 141.959 56.922 142.323 56.67C142.696 56.4087 142.957 56.0633 143.107 55.634H144.479C144.273 56.3713 143.863 56.9733 143.247 57.44C142.631 57.8973 141.865 58.126 140.951 58.126C140.223 58.126 139.569 57.9627 138.991 57.636C138.421 57.3093 137.973 56.8473 137.647 56.25C137.32 55.6433 137.157 54.9433 137.157 54.15C137.157 53.3567 137.315 52.6613 137.633 52.064C137.95 51.4667 138.393 51.0093 138.963 50.692C139.541 50.3653 140.204 50.202 140.951 50.202C141.679 50.202 142.323 50.3607 142.883 50.678C143.443 50.9953 143.872 51.434 144.171 51.994C144.479 52.5447 144.633 53.17 144.633 53.87ZM143.317 53.604C143.317 53.1187 143.209 52.7033 142.995 52.358C142.78 52.0033 142.486 51.7373 142.113 51.56C141.749 51.3733 141.343 51.28 140.895 51.28C140.251 51.28 139.7 51.4853 139.243 51.896C138.795 52.3067 138.538 52.876 138.473 53.604H143.317ZM145.838 54.136C145.838 53.352 145.997 52.666 146.314 52.078C146.632 51.4807 147.066 51.0187 147.616 50.692C148.176 50.3653 148.802 50.202 149.492 50.202C150.09 50.202 150.645 50.342 151.158 50.622C151.672 50.8927 152.064 51.252 152.334 51.7V47.64H153.622V58H152.334V56.558C152.082 57.0153 151.709 57.3933 151.214 57.692C150.72 57.9813 150.141 58.126 149.478 58.126C148.797 58.126 148.176 57.958 147.616 57.622C147.066 57.286 146.632 56.8147 146.314 56.208C145.997 55.6013 145.838 54.9107 145.838 54.136ZM152.334 54.15C152.334 53.5713 152.218 53.0673 151.984 52.638C151.751 52.2087 151.434 51.882 151.032 51.658C150.64 51.4247 150.206 51.308 149.73 51.308C149.254 51.308 148.82 51.42 148.428 51.644C148.036 51.868 147.724 52.1947 147.49 52.624C147.257 53.0533 147.14 53.5573 147.14 54.136C147.14 54.724 147.257 55.2373 147.49 55.676C147.724 56.1053 148.036 56.4367 148.428 56.67C148.82 56.894 149.254 57.006 149.73 57.006C150.206 57.006 150.64 56.894 151.032 56.67C151.434 56.4367 151.751 56.1053 151.984 55.676C152.218 55.2373 152.334 54.7287 152.334 54.15ZM166.312 50.328V58H165.038V56.866C164.795 57.258 164.454 57.566 164.016 57.79C163.586 58.0047 163.11 58.112 162.588 58.112C161.99 58.112 161.454 57.9907 160.978 57.748C160.502 57.496 160.124 57.1227 159.844 56.628C159.573 56.1333 159.438 55.5313 159.438 54.822V50.328H160.698V54.654C160.698 55.41 160.889 55.9933 161.272 56.404C161.654 56.8053 162.177 57.006 162.84 57.006C163.521 57.006 164.058 56.796 164.45 56.376C164.842 55.956 165.038 55.3447 165.038 54.542V50.328H166.312ZM169.737 51.742C169.989 51.3033 170.362 50.9393 170.857 50.65C171.361 50.3513 171.944 50.202 172.607 50.202C173.288 50.202 173.904 50.3653 174.455 50.692C175.015 51.0187 175.453 51.4807 175.771 52.078C176.088 52.666 176.247 53.352 176.247 54.136C176.247 54.9107 176.088 55.6013 175.771 56.208C175.453 56.8147 175.015 57.286 174.455 57.622C173.904 57.958 173.288 58.126 172.607 58.126C171.953 58.126 171.375 57.9813 170.871 57.692C170.376 57.3933 169.998 57.0247 169.737 56.586V61.64H168.463V50.328H169.737V51.742ZM174.945 54.136C174.945 53.5573 174.828 53.0533 174.595 52.624C174.361 52.1947 174.044 51.868 173.643 51.644C173.251 51.42 172.817 51.308 172.341 51.308C171.874 51.308 171.44 51.4247 171.039 51.658C170.647 51.882 170.329 52.2133 170.087 52.652C169.853 53.0813 169.737 53.5807 169.737 54.15C169.737 54.7287 169.853 55.2373 170.087 55.676C170.329 56.1053 170.647 56.4367 171.039 56.67C171.44 56.894 171.874 57.006 172.341 57.006C172.817 57.006 173.251 56.894 173.643 56.67C174.044 56.4367 174.361 56.1053 174.595 55.676C174.828 55.2373 174.945 54.724 174.945 54.136ZM182.93 51.742C183.182 51.3033 183.555 50.9393 184.05 50.65C184.554 50.3513 185.137 50.202 185.8 50.202C186.481 50.202 187.097 50.3653 187.648 50.692C188.208 51.0187 188.647 51.4807 188.964 52.078C189.281 52.666 189.44 53.352 189.44 54.136C189.44 54.9107 189.281 55.6013 188.964 56.208C188.647 56.8147 188.208 57.286 187.648 57.622C187.097 57.958 186.481 58.126 185.8 58.126C185.147 58.126 184.568 57.9813 184.064 57.692C183.569 57.3933 183.191 57.0247 182.93 56.586V61.64H181.656V50.328H182.93V51.742ZM188.138 54.136C188.138 53.5573 188.021 53.0533 187.788 52.624C187.555 52.1947 187.237 51.868 186.836 51.644C186.444 51.42 186.01 51.308 185.534 51.308C185.067 51.308 184.633 51.4247 184.232 51.658C183.84 51.882 183.523 52.2133 183.28 52.652C183.047 53.0813 182.93 53.5807 182.93 54.15C182.93 54.7287 183.047 55.2373 183.28 55.676C183.523 56.1053 183.84 56.4367 184.232 56.67C184.633 56.894 185.067 57.006 185.534 57.006C186.01 57.006 186.444 56.894 186.836 56.67C187.237 56.4367 187.555 56.1053 187.788 55.676C188.021 55.2373 188.138 54.724 188.138 54.136ZM192.391 51.574C192.615 51.1353 192.932 50.7947 193.343 50.552C193.763 50.3093 194.272 50.188 194.869 50.188V51.504H194.533C193.105 51.504 192.391 52.2787 192.391 53.828V58H191.117V50.328H192.391V51.574ZM196.998 49.082C196.755 49.082 196.55 48.998 196.382 48.83C196.214 48.662 196.13 48.4567 196.13 48.214C196.13 47.9713 196.214 47.766 196.382 47.598C196.55 47.43 196.755 47.346 196.998 47.346C197.231 47.346 197.427 47.43 197.586 47.598C197.754 47.766 197.838 47.9713 197.838 48.214C197.838 48.4567 197.754 48.662 197.586 48.83C197.427 48.998 197.231 49.082 196.998 49.082ZM197.614 50.328V58H196.34V50.328H197.614ZM199.309 54.15C199.309 53.3567 199.468 52.666 199.785 52.078C200.102 51.4807 200.541 51.0187 201.101 50.692C201.67 50.3653 202.319 50.202 203.047 50.202C203.99 50.202 204.764 50.4307 205.371 50.888C205.987 51.3453 206.393 51.98 206.589 52.792H205.217C205.086 52.3253 204.83 51.9567 204.447 51.686C204.074 51.4153 203.607 51.28 203.047 51.28C202.319 51.28 201.731 51.532 201.283 52.036C200.835 52.5307 200.611 53.2353 200.611 54.15C200.611 55.074 200.835 55.788 201.283 56.292C201.731 56.796 202.319 57.048 203.047 57.048C203.607 57.048 204.074 56.9173 204.447 56.656C204.82 56.3947 205.077 56.0213 205.217 55.536H206.589C206.384 56.32 205.973 56.95 205.357 57.426C204.741 57.8927 203.971 58.126 203.047 58.126C202.319 58.126 201.67 57.9627 201.101 57.636C200.541 57.3093 200.102 56.8473 199.785 56.25C199.468 55.6527 199.309 54.9527 199.309 54.15ZM215.289 53.87C215.289 54.1127 215.275 54.3693 215.247 54.64H209.115C209.162 55.396 209.418 55.9887 209.885 56.418C210.361 56.838 210.935 57.048 211.607 57.048C212.158 57.048 212.615 56.922 212.979 56.67C213.352 56.4087 213.614 56.0633 213.763 55.634H215.135C214.93 56.3713 214.519 56.9733 213.903 57.44C213.287 57.8973 212.522 58.126 211.607 58.126C210.879 58.126 210.226 57.9627 209.647 57.636C209.078 57.3093 208.63 56.8473 208.303 56.25C207.976 55.6433 207.813 54.9433 207.813 54.15C207.813 53.3567 207.972 52.6613 208.289 52.064C208.606 51.4667 209.05 51.0093 209.619 50.692C210.198 50.3653 210.86 50.202 211.607 50.202C212.335 50.202 212.979 50.3607 213.539 50.678C214.099 50.9953 214.528 51.434 214.827 51.994C215.135 52.5447 215.289 53.17 215.289 53.87ZM213.973 53.604C213.973 53.1187 213.866 52.7033 213.651 52.358C213.436 52.0033 213.142 51.7373 212.769 51.56C212.405 51.3733 211.999 51.28 211.551 51.28C210.907 51.28 210.356 51.4853 209.899 51.896C209.451 52.3067 209.194 52.876 209.129 53.604H213.973ZM219.687 58.126C219.099 58.126 218.571 58.028 218.105 57.832C217.638 57.6267 217.269 57.3467 216.999 56.992C216.728 56.628 216.579 56.2127 216.551 55.746H217.867C217.904 56.1287 218.081 56.4413 218.399 56.684C218.725 56.9267 219.15 57.048 219.673 57.048C220.158 57.048 220.541 56.9407 220.821 56.726C221.101 56.5113 221.241 56.2407 221.241 55.914C221.241 55.578 221.091 55.3307 220.793 55.172C220.494 55.004 220.032 54.8407 219.407 54.682C218.837 54.5327 218.371 54.3833 218.007 54.234C217.652 54.0753 217.344 53.8467 217.083 53.548C216.831 53.24 216.705 52.8387 216.705 52.344C216.705 51.952 216.821 51.5927 217.055 51.266C217.288 50.9393 217.619 50.6827 218.049 50.496C218.478 50.3 218.968 50.202 219.519 50.202C220.368 50.202 221.054 50.4167 221.577 50.846C222.099 51.2753 222.379 51.8633 222.417 52.61H221.143C221.115 52.2087 220.951 51.8867 220.653 51.644C220.363 51.4013 219.971 51.28 219.477 51.28C219.019 51.28 218.655 51.378 218.385 51.574C218.114 51.77 217.979 52.0267 217.979 52.344C217.979 52.596 218.058 52.806 218.217 52.974C218.385 53.1327 218.59 53.2633 218.833 53.366C219.085 53.4593 219.43 53.5667 219.869 53.688C220.419 53.8373 220.867 53.9867 221.213 54.136C221.558 54.276 221.852 54.4907 222.095 54.78C222.347 55.0693 222.477 55.4473 222.487 55.914C222.487 56.334 222.37 56.712 222.137 57.048C221.903 57.384 221.572 57.65 221.143 57.846C220.723 58.0327 220.237 58.126 219.687 58.126ZM231.363 58.126C230.645 58.126 229.991 57.9627 229.403 57.636C228.825 57.3093 228.367 56.8473 228.031 56.25C227.705 55.6433 227.541 54.9433 227.541 54.15C227.541 53.366 227.709 52.6753 228.045 52.078C228.391 51.4713 228.857 51.0093 229.445 50.692C230.033 50.3653 230.691 50.202 231.419 50.202C232.147 50.202 232.805 50.3653 233.393 50.692C233.981 51.0093 234.443 51.4667 234.779 52.064C235.125 52.6613 235.297 53.3567 235.297 54.15C235.297 54.9433 235.12 55.6433 234.765 56.25C234.42 56.8473 233.949 57.3093 233.351 57.636C232.754 57.9627 232.091 58.126 231.363 58.126ZM231.363 57.006C231.821 57.006 232.25 56.8987 232.651 56.684C233.053 56.4693 233.375 56.1473 233.617 55.718C233.869 55.2887 233.995 54.766 233.995 54.15C233.995 53.534 233.874 53.0113 233.631 52.582C233.389 52.1527 233.071 51.8353 232.679 51.63C232.287 51.4153 231.863 51.308 231.405 51.308C230.939 51.308 230.509 51.4153 230.117 51.63C229.735 51.8353 229.427 52.1527 229.193 52.582C228.96 53.0113 228.843 53.534 228.843 54.15C228.843 54.7753 228.955 55.3027 229.179 55.732C229.413 56.1613 229.721 56.4833 230.103 56.698C230.486 56.9033 230.906 57.006 231.363 57.006ZM240.711 50.188C241.644 50.188 242.4 50.4727 242.979 51.042C243.557 51.602 243.847 52.414 243.847 53.478V58H242.587V53.66C242.587 52.8947 242.395 52.3113 242.013 51.91C241.63 51.4993 241.107 51.294 240.445 51.294C239.773 51.294 239.236 51.504 238.835 51.924C238.443 52.344 238.247 52.9553 238.247 53.758V58H236.973V50.328H238.247V51.42C238.499 51.028 238.839 50.7247 239.269 50.51C239.707 50.2953 240.188 50.188 240.711 50.188ZM247.202 47.64V58H245.928V47.64H247.202ZM250.031 49.082C249.788 49.082 249.583 48.998 249.415 48.83C249.247 48.662 249.163 48.4567 249.163 48.214C249.163 47.9713 249.247 47.766 249.415 47.598C249.583 47.43 249.788 47.346 250.031 47.346C250.264 47.346 250.46 47.43 250.619 47.598C250.787 47.766 250.871 47.9713 250.871 48.214C250.871 48.4567 250.787 48.662 250.619 48.83C250.46 48.998 250.264 49.082 250.031 49.082ZM250.647 50.328V58H249.373V50.328H250.647ZM256.556 50.188C257.49 50.188 258.246 50.4727 258.824 51.042C259.403 51.602 259.692 52.414 259.692 53.478V58H258.432V53.66C258.432 52.8947 258.241 52.3113 257.858 51.91C257.476 51.4993 256.953 51.294 256.29 51.294C255.618 51.294 255.082 51.504 254.68 51.924C254.288 52.344 254.092 52.9553 254.092 53.758V58H252.818V50.328H254.092V51.42C254.344 51.028 254.685 50.7247 255.114 50.51C255.553 50.2953 256.034 50.188 256.556 50.188ZM268.773 53.87C268.773 54.1127 268.759 54.3693 268.731 54.64H262.599C262.646 55.396 262.903 55.9887 263.369 56.418C263.845 56.838 264.419 57.048 265.091 57.048C265.642 57.048 266.099 56.922 266.463 56.67C266.837 56.4087 267.098 56.0633 267.247 55.634H268.619C268.414 56.3713 268.003 56.9733 267.387 57.44C266.771 57.8973 266.006 58.126 265.091 58.126C264.363 58.126 263.71 57.9627 263.131 57.636C262.562 57.3093 262.114 56.8473 261.787 56.25C261.461 55.6433 261.297 54.9433 261.297 54.15C261.297 53.3567 261.456 52.6613 261.773 52.064C262.091 51.4667 262.534 51.0093 263.103 50.692C263.682 50.3653 264.345 50.202 265.091 50.202C265.819 50.202 266.463 50.3607 267.023 50.678C267.583 50.9953 268.013 51.434 268.311 51.994C268.619 52.5447 268.773 53.17 268.773 53.87ZM267.457 53.604C267.457 53.1187 267.35 52.7033 267.135 52.358C266.921 52.0033 266.627 51.7373 266.253 51.56C265.889 51.3733 265.483 51.28 265.035 51.28C264.391 51.28 263.841 51.4853 263.383 51.896C262.935 52.3067 262.679 52.876 262.613 53.604H267.457ZM270.861 58.084C270.618 58.084 270.413 58 270.245 57.832C270.077 57.664 269.993 57.4587 269.993 57.216C269.993 56.9733 270.077 56.768 270.245 56.6C270.413 56.432 270.618 56.348 270.861 56.348C271.094 56.348 271.29 56.432 271.449 56.6C271.617 56.768 271.701 56.9733 271.701 57.216C271.701 57.4587 271.617 57.664 271.449 57.832C271.29 58 271.094 58.084 270.861 58.084ZM278.401 48.242V58H277.127V48.242H278.401ZM282.126 51.378V55.9C282.126 56.2733 282.205 56.5393 282.364 56.698C282.523 56.8473 282.798 56.922 283.19 56.922H284.128V58H282.98C282.271 58 281.739 57.8367 281.384 57.51C281.029 57.1833 280.852 56.6467 280.852 55.9V51.378H279.858V50.328H280.852V48.396H282.126V50.328H284.128V51.378H282.126ZM299.624 50.328L297.23 58H295.914L294.066 51.91L292.218 58H290.902L288.494 50.328H289.796L291.56 56.768L293.464 50.328H294.766L296.628 56.782L298.364 50.328H299.624ZM301.547 49.082C301.304 49.082 301.099 48.998 300.931 48.83C300.763 48.662 300.679 48.4567 300.679 48.214C300.679 47.9713 300.763 47.766 300.931 47.598C301.099 47.43 301.304 47.346 301.547 47.346C301.78 47.346 301.976 47.43 302.135 47.598C302.303 47.766 302.387 47.9713 302.387 48.214C302.387 48.4567 302.303 48.662 302.135 48.83C301.976 48.998 301.78 49.082 301.547 49.082ZM302.163 50.328V58H300.889V50.328H302.163ZM305.608 47.64V58H304.334V47.64H305.608ZM309.053 47.64V58H307.779V47.64H309.053ZM32.886 71.188C33.4647 71.188 33.9873 71.314 34.454 71.566C34.9207 71.8087 35.2847 72.1773 35.546 72.672C35.8167 73.1667 35.952 73.7687 35.952 74.478V79H34.692V74.66C34.692 73.8947 34.5007 73.3113 34.118 72.91C33.7353 72.4993 33.2127 72.294 32.55 72.294C31.878 72.294 31.3413 72.504 30.94 72.924C30.548 73.344 30.352 73.9553 30.352 74.758V79H29.078V68.64H30.352V72.42C30.604 72.028 30.9493 71.7247 31.388 71.51C31.836 71.2953 32.3353 71.188 32.886 71.188ZM45.0331 74.87C45.0331 75.1127 45.0191 75.3693 44.9911 75.64H38.8591C38.9057 76.396 39.1624 76.9887 39.6291 77.418C40.1051 77.838 40.6791 78.048 41.3511 78.048C41.9017 78.048 42.3591 77.922 42.7231 77.67C43.0964 77.4087 43.3577 77.0633 43.5071 76.634H44.8791C44.6737 77.3713 44.2631 77.9733 43.6471 78.44C43.0311 78.8973 42.2657 79.126 41.3511 79.126C40.6231 79.126 39.9697 78.9627 39.3911 78.636C38.8217 78.3093 38.3737 77.8473 38.0471 77.25C37.7204 76.6433 37.5571 75.9433 37.5571 75.15C37.5571 74.3567 37.7157 73.6613 38.0331 73.064C38.3504 72.4667 38.7937 72.0093 39.3631 71.692C39.9417 71.3653 40.6044 71.202 41.3511 71.202C42.0791 71.202 42.7231 71.3607 43.2831 71.678C43.8431 71.9953 44.2724 72.434 44.5711 72.994C44.8791 73.5447 45.0331 74.17 45.0331 74.87ZM43.7171 74.604C43.7171 74.1187 43.6097 73.7033 43.3951 73.358C43.1804 73.0033 42.8864 72.7373 42.5131 72.56C42.1491 72.3733 41.7431 72.28 41.2951 72.28C40.6511 72.28 40.1004 72.4853 39.6431 72.896C39.1951 73.3067 38.9384 73.876 38.8731 74.604H43.7171ZM47.9887 68.64V79H46.7147V68.64H47.9887ZM51.434 72.742C51.686 72.3033 52.0594 71.9393 52.554 71.65C53.058 71.3513 53.6414 71.202 54.304 71.202C54.9854 71.202 55.6014 71.3653 56.152 71.692C56.712 72.0187 57.1507 72.4807 57.468 73.078C57.7854 73.666 57.944 74.352 57.944 75.136C57.944 75.9107 57.7854 76.6013 57.468 77.208C57.1507 77.8147 56.712 78.286 56.152 78.622C55.6014 78.958 54.9854 79.126 54.304 79.126C53.6507 79.126 53.072 78.9813 52.568 78.692C52.0734 78.3933 51.6954 78.0247 51.434 77.586V82.64H50.16V71.328H51.434V72.742ZM56.642 75.136C56.642 74.5573 56.5254 74.0533 56.292 73.624C56.0587 73.1947 55.7414 72.868 55.34 72.644C54.948 72.42 54.514 72.308 54.038 72.308C53.5714 72.308 53.1374 72.4247 52.736 72.658C52.344 72.882 52.0267 73.2133 51.784 73.652C51.5507 74.0813 51.434 74.5807 51.434 75.15C51.434 75.7287 51.5507 76.2373 51.784 76.676C52.0267 77.1053 52.344 77.4367 52.736 77.67C53.1374 77.894 53.5714 78.006 54.038 78.006C54.514 78.006 54.948 77.894 55.34 77.67C55.7414 77.4367 56.0587 77.1053 56.292 76.676C56.5254 76.2373 56.642 75.724 56.642 75.136ZM66.4754 72.378H64.8654V79H63.5914V72.378H62.5974V71.328H63.5914V70.782C63.5914 69.9233 63.8107 69.298 64.2494 68.906C64.6974 68.5047 65.4114 68.304 66.3914 68.304V69.368C65.8314 69.368 65.4347 69.48 65.2014 69.704C64.9774 69.9187 64.8654 70.278 64.8654 70.782V71.328H66.4754V72.378ZM67.4848 75.136C67.4848 74.352 67.6435 73.666 67.9608 73.078C68.2781 72.4807 68.7121 72.0187 69.2628 71.692C69.8228 71.3653 70.4435 71.202 71.1248 71.202C71.7968 71.202 72.3801 71.3467 72.8748 71.636C73.3695 71.9253 73.7381 72.2893 73.9808 72.728V71.328H75.2688V79H73.9808V77.572C73.7288 78.02 73.3508 78.3933 72.8468 78.692C72.3521 78.9813 71.7735 79.126 71.1108 79.126C70.4295 79.126 69.8135 78.958 69.2628 78.622C68.7121 78.286 68.2781 77.8147 67.9608 77.208C67.6435 76.6013 67.4848 75.9107 67.4848 75.136ZM73.9808 75.15C73.9808 74.5713 73.8641 74.0673 73.6308 73.638C73.3975 73.2087 73.0801 72.882 72.6788 72.658C72.2868 72.4247 71.8528 72.308 71.3768 72.308C70.9008 72.308 70.4668 72.42 70.0748 72.644C69.6828 72.868 69.3701 73.1947 69.1368 73.624C68.9035 74.0533 68.7868 74.5573 68.7868 75.136C68.7868 75.724 68.9035 76.2373 69.1368 76.676C69.3701 77.1053 69.6828 77.4367 70.0748 77.67C70.4668 77.894 70.9008 78.006 71.3768 78.006C71.8528 78.006 72.2868 77.894 72.6788 77.67C73.0801 77.4367 73.3975 77.1053 73.6308 76.676C73.8641 76.2373 73.9808 75.7287 73.9808 75.15ZM76.9458 75.15C76.9458 74.3567 77.1044 73.666 77.4218 73.078C77.7391 72.4807 78.1778 72.0187 78.7378 71.692C79.3071 71.3653 79.9558 71.202 80.6838 71.202C81.6264 71.202 82.4011 71.4307 83.0078 71.888C83.6238 72.3453 84.0298 72.98 84.2258 73.792H82.8538C82.7231 73.3253 82.4664 72.9567 82.0838 72.686C81.7104 72.4153 81.2438 72.28 80.6838 72.28C79.9558 72.28 79.3678 72.532 78.9198 73.036C78.4718 73.5307 78.2478 74.2353 78.2478 75.15C78.2478 76.074 78.4718 76.788 78.9198 77.292C79.3678 77.796 79.9558 78.048 80.6838 78.048C81.2438 78.048 81.7104 77.9173 82.0838 77.656C82.4571 77.3947 82.7138 77.0213 82.8538 76.536H84.2258C84.0204 77.32 83.6098 77.95 82.9938 78.426C82.3778 78.8927 81.6078 79.126 80.6838 79.126C79.9558 79.126 79.3071 78.9627 78.7378 78.636C78.1778 78.3093 77.7391 77.8473 77.4218 77.25C77.1044 76.6527 76.9458 75.9527 76.9458 75.15ZM86.5837 70.082C86.341 70.082 86.1357 69.998 85.9677 69.83C85.7997 69.662 85.7157 69.4567 85.7157 69.214C85.7157 68.9713 85.7997 68.766 85.9677 68.598C86.1357 68.43 86.341 68.346 86.5837 68.346C86.817 68.346 87.013 68.43 87.1717 68.598C87.3397 68.766 87.4237 68.9713 87.4237 69.214C87.4237 69.4567 87.3397 69.662 87.1717 69.83C87.013 69.998 86.817 70.082 86.5837 70.082ZM87.1997 71.328V79H85.9257V71.328H87.1997ZM90.645 68.64V79H89.371V68.64H90.645ZM93.4743 70.082C93.2316 70.082 93.0263 69.998 92.8583 69.83C92.6903 69.662 92.6063 69.4567 92.6063 69.214C92.6063 68.9713 92.6903 68.766 92.8583 68.598C93.0263 68.43 93.2316 68.346 93.4743 68.346C93.7076 68.346 93.9036 68.43 94.0623 68.598C94.2303 68.766 94.3143 68.9713 94.3143 69.214C94.3143 69.4567 94.2303 69.662 94.0623 69.83C93.9036 69.998 93.7076 70.082 93.4743 70.082ZM94.0903 71.328V79H92.8163V71.328H94.0903ZM97.8156 72.378V76.9C97.8156 77.2733 97.8949 77.5393 98.0536 77.698C98.2123 77.8473 98.4876 77.922 98.8796 77.922H99.8176V79H98.6696C97.9603 79 97.4283 78.8367 97.0736 78.51C96.7189 78.1833 96.5416 77.6467 96.5416 76.9V72.378H95.5476V71.328H96.5416V69.396H97.8156V71.328H99.8176V72.378H97.8156ZM100.885 75.136C100.885 74.352 101.044 73.666 101.361 73.078C101.679 72.4807 102.113 72.0187 102.663 71.692C103.223 71.3653 103.844 71.202 104.525 71.202C105.197 71.202 105.781 71.3467 106.275 71.636C106.77 71.9253 107.139 72.2893 107.381 72.728V71.328H108.669V79H107.381V77.572C107.129 78.02 106.751 78.3933 106.247 78.692C105.753 78.9813 105.174 79.126 104.511 79.126C103.83 79.126 103.214 78.958 102.663 78.622C102.113 78.286 101.679 77.8147 101.361 77.208C101.044 76.6013 100.885 75.9107 100.885 75.136ZM107.381 75.15C107.381 74.5713 107.265 74.0673 107.031 73.638C106.798 73.2087 106.481 72.882 106.079 72.658C105.687 72.4247 105.253 72.308 104.777 72.308C104.301 72.308 103.867 72.42 103.475 72.644C103.083 72.868 102.771 73.1947 102.537 73.624C102.304 74.0533 102.187 74.5573 102.187 75.136C102.187 75.724 102.304 76.2373 102.537 76.676C102.771 77.1053 103.083 77.4367 103.475 77.67C103.867 77.894 104.301 78.006 104.777 78.006C105.253 78.006 105.687 77.894 106.079 77.67C106.481 77.4367 106.798 77.1053 107.031 76.676C107.265 76.2373 107.381 75.7287 107.381 75.15ZM112.376 72.378V76.9C112.376 77.2733 112.455 77.5393 112.614 77.698C112.773 77.8473 113.048 77.922 113.44 77.922H114.378V79H113.23C112.521 79 111.989 78.8367 111.634 78.51C111.279 78.1833 111.102 77.6467 111.102 76.9V72.378H110.108V71.328H111.102V69.396H112.376V71.328H114.378V72.378H112.376ZM122.922 74.87C122.922 75.1127 122.908 75.3693 122.88 75.64H116.748C116.794 76.396 117.051 76.9887 117.518 77.418C117.994 77.838 118.568 78.048 119.24 78.048C119.79 78.048 120.248 77.922 120.612 77.67C120.985 77.4087 121.246 77.0633 121.396 76.634H122.768C122.562 77.3713 122.152 77.9733 121.536 78.44C120.92 78.8973 120.154 79.126 119.24 79.126C118.512 79.126 117.858 78.9627 117.28 78.636C116.71 78.3093 116.262 77.8473 115.936 77.25C115.609 76.6433 115.446 75.9433 115.446 75.15C115.446 74.3567 115.604 73.6613 115.922 73.064C116.239 72.4667 116.682 72.0093 117.252 71.692C117.83 71.3653 118.493 71.202 119.24 71.202C119.968 71.202 120.612 71.3607 121.172 71.678C121.732 71.9953 122.161 72.434 122.46 72.994C122.768 73.5447 122.922 74.17 122.922 74.87ZM121.606 74.604C121.606 74.1187 121.498 73.7033 121.284 73.358C121.069 73.0033 120.775 72.7373 120.402 72.56C120.038 72.3733 119.632 72.28 119.184 72.28C118.54 72.28 117.989 72.4853 117.532 72.896C117.084 73.3067 116.827 73.876 116.762 74.604H121.606ZM129.61 72.756C129.871 72.2987 130.254 71.9253 130.758 71.636C131.262 71.3467 131.836 71.202 132.48 71.202C133.17 71.202 133.791 71.3653 134.342 71.692C134.892 72.0187 135.326 72.4807 135.644 73.078C135.961 73.666 136.12 74.352 136.12 75.136C136.12 75.9107 135.961 76.6013 135.644 77.208C135.326 77.8147 134.888 78.286 134.328 78.622C133.777 78.958 133.161 79.126 132.48 79.126C131.817 79.126 131.234 78.9813 130.73 78.692C130.235 78.4027 129.862 78.034 129.61 77.586V79H128.336V68.64H129.61V72.756ZM134.818 75.136C134.818 74.5573 134.701 74.0533 134.468 73.624C134.234 73.1947 133.917 72.868 133.516 72.644C133.124 72.42 132.69 72.308 132.214 72.308C131.747 72.308 131.313 72.4247 130.912 72.658C130.52 72.882 130.202 73.2133 129.96 73.652C129.726 74.0813 129.61 74.5807 129.61 75.15C129.61 75.7287 129.726 76.2373 129.96 76.676C130.202 77.1053 130.52 77.4367 130.912 77.67C131.313 77.894 131.747 78.006 132.214 78.006C132.69 78.006 133.124 77.894 133.516 77.67C133.917 77.4367 134.234 77.1053 134.468 76.676C134.701 76.2373 134.818 75.724 134.818 75.136ZM137.321 75.136C137.321 74.352 137.479 73.666 137.797 73.078C138.114 72.4807 138.548 72.0187 139.099 71.692C139.659 71.3653 140.279 71.202 140.961 71.202C141.633 71.202 142.216 71.3467 142.711 71.636C143.205 71.9253 143.574 72.2893 143.817 72.728V71.328H145.105V79H143.817V77.572C143.565 78.02 143.187 78.3933 142.683 78.692C142.188 78.9813 141.609 79.126 140.947 79.126C140.265 79.126 139.649 78.958 139.099 78.622C138.548 78.286 138.114 77.8147 137.797 77.208C137.479 76.6013 137.321 75.9107 137.321 75.136ZM143.817 75.15C143.817 74.5713 143.7 74.0673 143.467 73.638C143.233 73.2087 142.916 72.882 142.515 72.658C142.123 72.4247 141.689 72.308 141.213 72.308C140.737 72.308 140.303 72.42 139.911 72.644C139.519 72.868 139.206 73.1947 138.973 73.624C138.739 74.0533 138.623 74.5573 138.623 75.136C138.623 75.724 138.739 76.2373 138.973 76.676C139.206 77.1053 139.519 77.4367 139.911 77.67C140.303 77.894 140.737 78.006 141.213 78.006C141.689 78.006 142.123 77.894 142.515 77.67C142.916 77.4367 143.233 77.1053 143.467 76.676C143.7 76.2373 143.817 75.7287 143.817 75.15ZM148.532 72.574C148.756 72.1353 149.073 71.7947 149.484 71.552C149.904 71.3093 150.412 71.188 151.01 71.188V72.504H150.674C149.246 72.504 148.532 73.2787 148.532 74.828V79H147.258V71.328H148.532V72.574ZM155.644 71.202C156.307 71.202 156.886 71.3467 157.38 71.636C157.884 71.9253 158.258 72.2893 158.5 72.728V71.328H159.788V79.168C159.788 79.868 159.639 80.4887 159.34 81.03C159.042 81.5807 158.612 82.01 158.052 82.318C157.502 82.626 156.858 82.78 156.12 82.78C155.112 82.78 154.272 82.542 153.6 82.066C152.928 81.59 152.532 80.9413 152.41 80.12H153.67C153.81 80.5867 154.1 80.96 154.538 81.24C154.977 81.5293 155.504 81.674 156.12 81.674C156.82 81.674 157.39 81.4547 157.828 81.016C158.276 80.5773 158.5 79.9613 158.5 79.168V77.558C158.248 78.006 157.875 78.3793 157.38 78.678C156.886 78.9767 156.307 79.126 155.644 79.126C154.963 79.126 154.342 78.958 153.782 78.622C153.232 78.286 152.798 77.8147 152.48 77.208C152.163 76.6013 152.004 75.9107 152.004 75.136C152.004 74.352 152.163 73.666 152.48 73.078C152.798 72.4807 153.232 72.0187 153.782 71.692C154.342 71.3653 154.963 71.202 155.644 71.202ZM158.5 75.15C158.5 74.5713 158.384 74.0673 158.15 73.638C157.917 73.2087 157.6 72.882 157.198 72.658C156.806 72.4247 156.372 72.308 155.896 72.308C155.42 72.308 154.986 72.42 154.594 72.644C154.202 72.868 153.89 73.1947 153.656 73.624C153.423 74.0533 153.306 74.5573 153.306 75.136C153.306 75.724 153.423 76.2373 153.656 76.676C153.89 77.1053 154.202 77.4367 154.594 77.67C154.986 77.894 155.42 78.006 155.896 78.006C156.372 78.006 156.806 77.894 157.198 77.67C157.6 77.4367 157.917 77.1053 158.15 76.676C158.384 76.2373 158.5 75.7287 158.5 75.15ZM161.465 75.136C161.465 74.352 161.624 73.666 161.941 73.078C162.259 72.4807 162.693 72.0187 163.243 71.692C163.803 71.3653 164.424 71.202 165.105 71.202C165.777 71.202 166.361 71.3467 166.855 71.636C167.35 71.9253 167.719 72.2893 167.961 72.728V71.328H169.249V79H167.961V77.572C167.709 78.02 167.331 78.3933 166.827 78.692C166.333 78.9813 165.754 79.126 165.091 79.126C164.41 79.126 163.794 78.958 163.243 78.622C162.693 78.286 162.259 77.8147 161.941 77.208C161.624 76.6013 161.465 75.9107 161.465 75.136ZM167.961 75.15C167.961 74.5713 167.845 74.0673 167.611 73.638C167.378 73.2087 167.061 72.882 166.659 72.658C166.267 72.4247 165.833 72.308 165.357 72.308C164.881 72.308 164.447 72.42 164.055 72.644C163.663 72.868 163.351 73.1947 163.117 73.624C162.884 74.0533 162.767 74.5573 162.767 75.136C162.767 75.724 162.884 76.2373 163.117 76.676C163.351 77.1053 163.663 77.4367 164.055 77.67C164.447 77.894 164.881 78.006 165.357 78.006C165.833 78.006 166.267 77.894 166.659 77.67C167.061 77.4367 167.378 77.1053 167.611 76.676C167.845 76.2373 167.961 75.7287 167.961 75.15ZM172.06 70.082C171.818 70.082 171.612 69.998 171.444 69.83C171.276 69.662 171.192 69.4567 171.192 69.214C171.192 68.9713 171.276 68.766 171.444 68.598C171.612 68.43 171.818 68.346 172.06 68.346C172.294 68.346 172.49 68.43 172.648 68.598C172.816 68.766 172.9 68.9713 172.9 69.214C172.9 69.4567 172.816 69.662 172.648 69.83C172.49 69.998 172.294 70.082 172.06 70.082ZM172.676 71.328V79H171.402V71.328H172.676ZM178.586 71.188C179.519 71.188 180.275 71.4727 180.854 72.042C181.432 72.602 181.722 73.414 181.722 74.478V79H180.462V74.66C180.462 73.8947 180.27 73.3113 179.888 72.91C179.505 72.4993 178.982 72.294 178.32 72.294C177.648 72.294 177.111 72.504 176.71 72.924C176.318 73.344 176.122 73.9553 176.122 74.758V79H174.848V71.328H176.122V72.42C176.374 72.028 176.714 71.7247 177.144 71.51C177.582 71.2953 178.063 71.188 178.586 71.188ZM184.461 70.082C184.218 70.082 184.013 69.998 183.845 69.83C183.677 69.662 183.593 69.4567 183.593 69.214C183.593 68.9713 183.677 68.766 183.845 68.598C184.013 68.43 184.218 68.346 184.461 68.346C184.694 68.346 184.89 68.43 185.049 68.598C185.217 68.766 185.301 68.9713 185.301 69.214C185.301 69.4567 185.217 69.662 185.049 69.83C184.89 69.998 184.694 70.082 184.461 70.082ZM185.077 71.328V79H183.803V71.328H185.077ZM190.986 71.188C191.919 71.188 192.675 71.4727 193.254 72.042C193.833 72.602 194.122 73.414 194.122 74.478V79H192.862V74.66C192.862 73.8947 192.671 73.3113 192.288 72.91C191.905 72.4993 191.383 72.294 190.72 72.294C190.048 72.294 189.511 72.504 189.11 72.924C188.718 73.344 188.522 73.9553 188.522 74.758V79H187.248V71.328H188.522V72.42C188.774 72.028 189.115 71.7247 189.544 71.51C189.983 71.2953 190.463 71.188 190.986 71.188ZM199.367 71.202C200.03 71.202 200.608 71.3467 201.103 71.636C201.607 71.9253 201.98 72.2893 202.223 72.728V71.328H203.511V79.168C203.511 79.868 203.362 80.4887 203.063 81.03C202.764 81.5807 202.335 82.01 201.775 82.318C201.224 82.626 200.58 82.78 199.843 82.78C198.835 82.78 197.995 82.542 197.323 82.066C196.651 81.59 196.254 80.9413 196.133 80.12H197.393C197.533 80.5867 197.822 80.96 198.261 81.24C198.7 81.5293 199.227 81.674 199.843 81.674C200.543 81.674 201.112 81.4547 201.551 81.016C201.999 80.5773 202.223 79.9613 202.223 79.168V77.558C201.971 78.006 201.598 78.3793 201.103 78.678C200.608 78.9767 200.03 79.126 199.367 79.126C198.686 79.126 198.065 78.958 197.505 78.622C196.954 78.286 196.52 77.8147 196.203 77.208C195.886 76.6013 195.727 75.9107 195.727 75.136C195.727 74.352 195.886 73.666 196.203 73.078C196.52 72.4807 196.954 72.0187 197.505 71.692C198.065 71.3653 198.686 71.202 199.367 71.202ZM202.223 75.15C202.223 74.5713 202.106 74.0673 201.873 73.638C201.64 73.2087 201.322 72.882 200.921 72.658C200.529 72.4247 200.095 72.308 199.619 72.308C199.143 72.308 198.709 72.42 198.317 72.644C197.925 72.868 197.612 73.1947 197.379 73.624C197.146 74.0533 197.029 74.5573 197.029 75.136C197.029 75.724 197.146 76.2373 197.379 76.676C197.612 77.1053 197.925 77.4367 198.317 77.67C198.709 77.894 199.143 78.006 199.619 78.006C200.095 78.006 200.529 77.894 200.921 77.67C201.322 77.4367 201.64 77.1053 201.873 76.676C202.106 76.2373 202.223 75.7287 202.223 75.15ZM206.07 79.084C205.827 79.084 205.622 79 205.454 78.832C205.286 78.664 205.202 78.4587 205.202 78.216C205.202 77.9733 205.286 77.768 205.454 77.6C205.622 77.432 205.827 77.348 206.07 77.348C206.303 77.348 206.499 77.432 206.658 77.6C206.826 77.768 206.91 77.9733 206.91 78.216C206.91 78.4587 206.826 78.664 206.658 78.832C206.499 79 206.303 79.084 206.07 79.084Z" fill="#E04122"/>
</svg>
