<svg width="361" height="119" viewBox="0 0 361 119" fill="none" xmlns="http://www.w3.org/2000/svg">
<mask id="path-1-outside-1_32_1451" maskUnits="userSpaceOnUse" x="-8" y="41" width="301" height="65" fill="black">
<rect fill="white" x="-8" y="41" width="301" height="65"/>
<path d="M9.29038 83.47H17.3642V89H2.06453V63.0091H9.29038V83.47ZM32.6347 89.2581C30.2015 89.2581 27.9649 88.6928 25.925 87.5622C23.885 86.407 22.2629 84.8218 21.0586 82.8064C19.8789 80.7665 19.289 78.4684 19.289 75.9124C19.289 73.3563 19.8789 71.0705 21.0586 69.0552C22.2629 67.0152 23.885 65.43 25.925 64.2994C27.9649 63.1688 30.2015 62.6035 32.6347 62.6035C35.0925 62.6035 37.3291 63.1688 39.3444 64.2994C41.3844 65.43 42.9942 67.0152 44.174 69.0552C45.3537 71.0705 45.9435 73.3563 45.9435 75.9124C45.9435 78.4684 45.3537 80.7665 44.174 82.8064C42.9942 84.8218 41.3844 86.407 39.3444 87.5622C37.3045 88.6928 35.0679 89.2581 32.6347 89.2581ZM32.6347 82.5483C34.478 82.5483 35.9281 81.9462 36.985 80.7419C38.0664 79.5376 38.6071 77.9277 38.6071 75.9124C38.6071 73.8478 38.0664 72.2257 36.985 71.046C35.9281 69.8417 34.478 69.2395 32.6347 69.2395C30.7668 69.2395 29.3044 69.8417 28.2476 71.046C27.1907 72.2257 26.6623 73.8478 26.6623 75.9124C26.6623 77.9523 27.1907 79.5744 28.2476 80.7788C29.3044 81.9585 30.7668 82.5483 32.6347 82.5483ZM48.307 75.9492C48.307 73.3931 48.8355 71.1197 49.8923 69.1289C50.9737 67.1135 52.4975 65.5528 54.4638 64.4469C56.43 63.3163 58.6911 62.751 61.2472 62.751C64.4915 62.751 67.2196 63.6235 69.4316 65.3685C71.6436 67.089 73.0691 69.4361 73.7081 72.41H65.9293C65.4623 71.4269 64.811 70.6773 63.9753 70.1612C63.1643 69.645 62.218 69.387 61.1366 69.387C59.4653 69.387 58.1258 69.9891 57.1182 71.1934C56.135 72.3732 55.6435 73.9584 55.6435 75.9492C55.6435 77.9646 56.135 79.5744 57.1182 80.7788C58.1258 81.9585 59.4653 82.5483 61.1366 82.5483C62.218 82.5483 63.1643 82.2903 63.9753 81.7741C64.811 81.258 65.4623 80.5084 65.9293 79.5253H73.7081C73.0691 82.4992 71.6436 84.8587 69.4316 86.6037C67.2196 88.3241 64.4915 89.1843 61.2472 89.1843C58.6911 89.1843 56.43 88.6313 54.4638 87.5253C52.4975 86.3948 50.9737 84.8341 49.8923 82.8433C48.8355 80.8279 48.307 78.5299 48.307 75.9492ZM93.5723 84.7603H84.3556L82.9547 89H75.3602L84.8349 63.0091H93.1668L102.605 89H94.9732L93.5723 84.7603ZM91.7658 79.2304L88.964 70.8248L86.199 79.2304H91.7658ZM112.186 83.47H120.259V89H104.96V63.0091H112.186V83.47ZM160.467 63.0091V89H153.241V74.6589L148.338 89H142.291L137.351 74.5483V89H130.126V63.0091H138.863L145.388 79.894L151.766 63.0091H160.467ZM181.022 84.7603H171.806L170.405 89H162.81L172.285 63.0091H180.617L190.055 89H182.423L181.022 84.7603ZM179.216 79.2304L176.414 70.8248L173.649 79.2304H179.216ZM205.571 89L200.41 79.4147H199.636V89H192.41V63.0091H203.802C205.891 63.0091 207.66 63.3777 209.11 64.1151C210.561 64.8278 211.654 65.8232 212.392 67.1012C213.129 68.3547 213.498 69.7679 213.498 71.3409C213.498 73.1105 213.006 74.6712 212.023 76.023C211.064 77.3502 209.651 78.2964 207.783 78.8617L213.645 89H205.571ZM199.636 74.4746H203.212C204.195 74.4746 204.932 74.2411 205.424 73.7741C205.915 73.3071 206.161 72.6312 206.161 71.7464C206.161 70.9108 205.903 70.2595 205.387 69.7925C204.895 69.301 204.17 69.0552 203.212 69.0552H199.636V74.4746ZM232.157 89L224.009 77.6082V89H216.784V63.0091H224.009V74.2165L232.083 63.0091H240.415L230.867 75.6174L240.894 89H232.157ZM250.759 68.7971V73.0368H259.054V78.5299H250.759V83.2119H260.16V89H243.533V63.0091H260.16V68.7971H250.759ZM283.307 63.0091V68.7602H276.376V89H269.15V68.7602H262.293V63.0091H283.307Z"/>
</mask>
<path d="M9.29038 83.47H17.3642V89H2.06453V63.0091H9.29038V83.47ZM32.6347 89.2581C30.2015 89.2581 27.9649 88.6928 25.925 87.5622C23.885 86.407 22.2629 84.8218 21.0586 82.8064C19.8789 80.7665 19.289 78.4684 19.289 75.9124C19.289 73.3563 19.8789 71.0705 21.0586 69.0552C22.2629 67.0152 23.885 65.43 25.925 64.2994C27.9649 63.1688 30.2015 62.6035 32.6347 62.6035C35.0925 62.6035 37.3291 63.1688 39.3444 64.2994C41.3844 65.43 42.9942 67.0152 44.174 69.0552C45.3537 71.0705 45.9435 73.3563 45.9435 75.9124C45.9435 78.4684 45.3537 80.7665 44.174 82.8064C42.9942 84.8218 41.3844 86.407 39.3444 87.5622C37.3045 88.6928 35.0679 89.2581 32.6347 89.2581ZM32.6347 82.5483C34.478 82.5483 35.9281 81.9462 36.985 80.7419C38.0664 79.5376 38.6071 77.9277 38.6071 75.9124C38.6071 73.8478 38.0664 72.2257 36.985 71.046C35.9281 69.8417 34.478 69.2395 32.6347 69.2395C30.7668 69.2395 29.3044 69.8417 28.2476 71.046C27.1907 72.2257 26.6623 73.8478 26.6623 75.9124C26.6623 77.9523 27.1907 79.5744 28.2476 80.7788C29.3044 81.9585 30.7668 82.5483 32.6347 82.5483ZM48.307 75.9492C48.307 73.3931 48.8355 71.1197 49.8923 69.1289C50.9737 67.1135 52.4975 65.5528 54.4638 64.4469C56.43 63.3163 58.6911 62.751 61.2472 62.751C64.4915 62.751 67.2196 63.6235 69.4316 65.3685C71.6436 67.089 73.0691 69.4361 73.7081 72.41H65.9293C65.4623 71.4269 64.811 70.6773 63.9753 70.1612C63.1643 69.645 62.218 69.387 61.1366 69.387C59.4653 69.387 58.1258 69.9891 57.1182 71.1934C56.135 72.3732 55.6435 73.9584 55.6435 75.9492C55.6435 77.9646 56.135 79.5744 57.1182 80.7788C58.1258 81.9585 59.4653 82.5483 61.1366 82.5483C62.218 82.5483 63.1643 82.2903 63.9753 81.7741C64.811 81.258 65.4623 80.5084 65.9293 79.5253H73.7081C73.0691 82.4992 71.6436 84.8587 69.4316 86.6037C67.2196 88.3241 64.4915 89.1843 61.2472 89.1843C58.6911 89.1843 56.43 88.6313 54.4638 87.5253C52.4975 86.3948 50.9737 84.8341 49.8923 82.8433C48.8355 80.8279 48.307 78.5299 48.307 75.9492ZM93.5723 84.7603H84.3556L82.9547 89H75.3602L84.8349 63.0091H93.1668L102.605 89H94.9732L93.5723 84.7603ZM91.7658 79.2304L88.964 70.8248L86.199 79.2304H91.7658ZM112.186 83.47H120.259V89H104.96V63.0091H112.186V83.47ZM160.467 63.0091V89H153.241V74.6589L148.338 89H142.291L137.351 74.5483V89H130.126V63.0091H138.863L145.388 79.894L151.766 63.0091H160.467ZM181.022 84.7603H171.806L170.405 89H162.81L172.285 63.0091H180.617L190.055 89H182.423L181.022 84.7603ZM179.216 79.2304L176.414 70.8248L173.649 79.2304H179.216ZM205.571 89L200.41 79.4147H199.636V89H192.41V63.0091H203.802C205.891 63.0091 207.66 63.3777 209.11 64.1151C210.561 64.8278 211.654 65.8232 212.392 67.1012C213.129 68.3547 213.498 69.7679 213.498 71.3409C213.498 73.1105 213.006 74.6712 212.023 76.023C211.064 77.3502 209.651 78.2964 207.783 78.8617L213.645 89H205.571ZM199.636 74.4746H203.212C204.195 74.4746 204.932 74.2411 205.424 73.7741C205.915 73.3071 206.161 72.6312 206.161 71.7464C206.161 70.9108 205.903 70.2595 205.387 69.7925C204.895 69.301 204.17 69.0552 203.212 69.0552H199.636V74.4746ZM232.157 89L224.009 77.6082V89H216.784V63.0091H224.009V74.2165L232.083 63.0091H240.415L230.867 75.6174L240.894 89H232.157ZM250.759 68.7971V73.0368H259.054V78.5299H250.759V83.2119H260.16V89H243.533V63.0091H260.16V68.7971H250.759ZM283.307 63.0091V68.7602H276.376V89H269.15V68.7602H262.293V63.0091H283.307Z" fill="white"/>
<path d="M9.29038 83.47H0.0737333V92.6867H9.29038V83.47ZM17.3642 83.47H26.5808V74.2534H17.3642V83.47ZM17.3642 89V98.2166H26.5808V89H17.3642ZM2.06453 89H-7.15212V98.2166H2.06453V89ZM2.06453 63.0091V53.7924H-7.15212V63.0091H2.06453ZM9.29038 63.0091H18.507V53.7924H9.29038V63.0091ZM9.29038 92.6867H17.3642V74.2534H9.29038V92.6867ZM8.14752 83.47V89H26.5808V83.47H8.14752ZM17.3642 79.7834H2.06453V98.2166H17.3642V79.7834ZM11.2812 89V63.0091H-7.15212V89H11.2812ZM2.06453 72.2257H9.29038V53.7924H2.06453V72.2257ZM0.0737333 63.0091V83.47H18.507V63.0091H0.0737333ZM25.925 87.5622L21.3835 95.5823L21.4203 95.6031L21.4572 95.6236L25.925 87.5622ZM21.0586 82.8064L13.0801 87.4205L13.1131 87.4776L13.1469 87.5341L21.0586 82.8064ZM21.0586 69.0552L13.1218 64.3696L13.1131 64.3844L13.1045 64.3991L21.0586 69.0552ZM39.3444 64.2994L34.8352 72.3376L34.8559 72.3492L34.8767 72.3608L39.3444 64.2994ZM44.174 69.0552L36.1954 73.6693L36.2076 73.6903L36.2199 73.7112L44.174 69.0552ZM44.174 82.8064L52.1281 87.4625L52.1403 87.4415L52.1525 87.4205L44.174 82.8064ZM39.3444 87.5622L43.8122 95.6236L43.8491 95.6031L43.8859 95.5823L39.3444 87.5622ZM36.985 80.7419L30.1273 74.584L30.0922 74.6231L30.0575 74.6627L36.985 80.7419ZM36.985 71.046L30.0575 77.1252L30.1234 77.2003L30.1909 77.2739L36.985 71.046ZM28.2476 71.046L35.1125 77.1958L35.1439 77.1606L35.1751 77.1252L28.2476 71.046ZM28.2476 80.7788L21.3201 86.858L21.3512 86.8934L21.3827 86.9285L28.2476 80.7788ZM32.6347 80.0414C31.6944 80.0414 31.0054 79.8404 30.3927 79.5008L21.4572 95.6236C24.9245 97.5452 28.7086 98.4747 32.6347 98.4747V80.0414ZM30.4665 79.5421C29.8184 79.1751 29.3567 78.7253 28.9703 78.0787L13.1469 87.5341C15.1691 90.9183 17.9517 93.639 21.3835 95.5823L30.4665 79.5421ZM29.0371 78.1923C28.7365 77.6725 28.5056 76.9898 28.5056 75.9124H10.0724C10.0724 79.9471 11.0213 83.8605 13.0801 87.4205L29.0371 78.1923ZM28.5056 75.9124C28.5056 74.8335 28.7367 74.1827 29.0127 73.7112L13.1045 64.3991C11.021 67.9584 10.0724 71.8791 10.0724 75.9124H28.5056ZM28.9954 73.7407C29.3785 73.0917 29.8128 72.6822 30.3927 72.3608L21.4572 56.238C17.9573 58.1777 15.1473 60.9388 13.1218 64.3696L28.9954 73.7407ZM30.3927 72.3608C31.0054 72.0212 31.6944 71.8202 32.6347 71.8202V53.3869C28.7086 53.3869 24.9245 54.3164 21.4572 56.238L30.3927 72.3608ZM32.6347 71.8202C33.6171 71.8202 34.2849 72.0289 34.8352 72.3376L43.8537 56.2611C40.3732 54.3087 36.5678 53.3869 32.6347 53.3869V71.8202ZM34.8767 72.3608C35.4397 72.6728 35.8428 73.0595 36.1954 73.6693L52.1525 64.4411C50.1457 60.971 47.3291 58.1871 43.8122 56.238L34.8767 72.3608ZM36.2199 73.7112C36.4959 74.1827 36.7269 74.8335 36.7269 75.9124H55.1602C55.1602 71.8791 54.2115 67.9584 52.128 64.3991L36.2199 73.7112ZM36.7269 75.9124C36.7269 76.9898 36.4961 77.6725 36.1954 78.1923L52.1525 87.4205C54.2113 83.8605 55.1602 79.9471 55.1602 75.9124H36.7269ZM36.2198 78.1504C35.8645 78.7574 35.4344 79.1846 34.8029 79.5421L43.8859 95.5823C47.3343 93.6295 50.1239 90.8862 52.1281 87.4625L36.2198 78.1504ZM34.8767 79.5008C34.2641 79.8404 33.575 80.0414 32.6347 80.0414V98.4747C36.5608 98.4747 40.3449 97.5452 43.8122 95.6236L34.8767 79.5008ZM32.6347 91.765C36.689 91.765 40.8337 90.3294 43.9124 86.8211L30.0575 74.6627C30.4394 74.2275 30.9658 73.8358 31.5702 73.5848C32.1427 73.347 32.5512 73.3317 32.6347 73.3317V91.765ZM43.8426 86.8998C46.7903 83.6171 47.8237 79.6211 47.8237 75.9124H29.3904C29.3904 76.1036 29.3643 75.9953 29.4646 75.6967C29.5743 75.37 29.7873 74.9627 30.1273 74.584L43.8426 86.8998ZM47.8237 75.9124C47.8237 72.2317 46.8293 68.1456 43.7791 64.8181L30.1909 77.2739C29.7972 76.8444 29.5688 76.3946 29.4579 76.0619C29.3578 75.7616 29.3904 75.672 29.3904 75.9124H47.8237ZM43.9124 64.9668C40.8337 61.4584 36.689 60.0229 32.6347 60.0229V78.4562C32.5512 78.4562 32.1427 78.4408 31.5702 78.2031C30.9658 77.9521 30.4394 77.5603 30.0575 77.1252L43.9124 64.9668ZM32.6347 60.0229C28.599 60.0229 24.4234 61.4304 21.3201 64.9668L35.1751 77.1252C34.7801 77.5752 34.2451 77.9669 33.6462 78.2136C33.0819 78.4459 32.6903 78.4562 32.6347 78.4562V60.0229ZM21.3827 64.8962C18.3989 68.227 17.4457 72.2838 17.4457 75.9124H35.879C35.879 75.6529 35.9135 75.7213 35.822 76.0021C35.7204 76.3142 35.5034 76.7593 35.1125 77.1958L21.3827 64.8962ZM17.4457 75.9124C17.4457 79.5601 18.4197 83.5529 21.3201 86.858L35.1751 74.6995C35.5234 75.0965 35.7246 75.5052 35.822 75.8042C35.9102 76.0749 35.879 76.1468 35.879 75.9124H17.4457ZM21.3827 86.9285C24.5042 90.413 28.6614 91.765 32.6347 91.765V73.3317C32.6683 73.3317 33.0379 73.3379 33.5847 73.5584C34.167 73.7933 34.7046 74.1736 35.1125 74.629L21.3827 86.9285ZM49.8923 69.1289L41.771 64.7711L41.7613 64.7892L41.7516 64.8073L49.8923 69.1289ZM54.4638 64.4469L58.9823 72.4799L59.0203 72.4585L59.058 72.4368L54.4638 64.4469ZM69.4316 65.3685L63.7232 72.6046L63.7481 72.6242L63.7731 72.6437L69.4316 65.3685ZM73.7081 72.41V81.6267H85.1156L82.7191 70.4738L73.7081 72.41ZM65.9293 72.41L57.6041 76.3645L60.1036 81.6267H65.9293V72.41ZM63.9753 70.1612L59.0272 77.9369L59.0794 77.9701L59.1321 78.0027L63.9753 70.1612ZM57.1182 71.1934L50.0496 65.2789L50.0436 65.286L50.0377 65.2931L57.1182 71.1934ZM57.1182 80.7788L49.9784 86.6071L50.0433 86.6867L50.1101 86.7648L57.1182 80.7788ZM63.9753 81.7741L59.1321 73.9326L59.0794 73.9652L59.0271 73.9984L63.9753 81.7741ZM65.9293 79.5253V70.3086H60.1036L57.6041 75.5708L65.9293 79.5253ZM73.7081 79.5253L82.7191 81.4615L85.1156 70.3086H73.7081V79.5253ZM69.4316 86.6037L75.0901 93.8789L75.1151 93.8594L75.14 93.8397L69.4316 86.6037ZM54.4638 87.5253L49.8695 95.5153L49.9073 95.537L49.9452 95.5583L54.4638 87.5253ZM49.8923 82.8433L41.7299 87.1236L41.7612 87.1834L41.7934 87.2427L49.8923 82.8433ZM57.5237 75.9492C57.5237 74.6957 57.7726 73.9409 58.033 73.4505L41.7516 64.8073C39.8983 68.2985 39.0904 72.0906 39.0904 75.9492H57.5237ZM58.0136 73.4867C58.2796 72.991 58.5639 72.7152 58.9823 72.4799L49.9452 56.4138C46.4312 58.3905 43.6678 61.2361 41.771 64.7711L58.0136 73.4867ZM59.058 72.4368C59.456 72.208 60.0947 71.9676 61.2472 71.9676V53.5343C57.2876 53.5343 53.404 54.4246 49.8695 56.4569L59.058 72.4368ZM61.2472 71.9676C62.749 71.9676 63.378 72.3323 63.7232 72.6046L75.14 58.1325C71.0612 54.9147 66.2339 53.5343 61.2472 53.5343V71.9676ZM63.7731 72.6437C64.124 72.9166 64.4715 73.2962 64.6972 74.3463L82.7191 70.4738C81.6667 65.5761 79.1632 61.2613 75.0901 58.0933L63.7731 72.6437ZM73.7081 63.1934H65.9293V81.6267H73.7081V63.1934ZM74.2545 68.4556C73.1109 66.0481 71.3259 63.8683 68.8186 62.3197L59.1321 78.0027C58.7497 77.7665 58.4107 77.4748 58.1332 77.1554C57.8603 76.8414 57.6954 76.5568 57.6041 76.3645L74.2545 68.4556ZM68.9235 62.3854C66.4543 60.8141 63.7454 60.1703 61.1366 60.1703V78.6036C60.9411 78.6036 60.6258 78.5797 60.2323 78.4724C59.8314 78.3631 59.4177 78.1854 59.0272 77.9369L68.9235 62.3854ZM61.1366 60.1703C56.937 60.1703 52.9331 61.8327 50.0496 65.2789L64.1867 77.108C63.8597 77.4988 63.3455 77.9356 62.6575 78.2449C61.9855 78.547 61.4242 78.6036 61.1366 78.6036V60.1703ZM50.0377 65.2931C47.309 68.5676 46.4268 72.4517 46.4268 75.9492H64.8601C64.8601 75.7008 64.8919 75.7498 64.8153 75.9968C64.7307 76.2697 64.5455 76.6774 64.1986 77.0938L50.0377 65.2931ZM46.4268 75.9492C46.4268 79.4507 47.2975 83.3231 49.9784 86.6071L64.2579 74.9504C64.5837 75.3494 64.7525 75.7324 64.827 75.9766C64.8941 76.1962 64.8601 76.2188 64.8601 75.9492H46.4268ZM50.1101 86.7648C53.0166 90.1676 57.0053 91.765 61.1366 91.765V73.3317C61.3991 73.3317 61.9374 73.3822 62.593 73.671C63.267 73.9677 63.7856 74.3938 64.1263 74.7927L50.1101 86.7648ZM61.1366 91.765C63.7454 91.765 66.4543 91.1212 68.9235 89.5499L59.0271 73.9984C59.4177 73.7499 59.8314 73.5722 60.2323 73.4629C60.6258 73.3556 60.9411 73.3317 61.1366 73.3317V91.765ZM68.8186 89.6157C71.3259 88.067 73.1109 85.8872 74.2545 83.4798L57.6041 75.5708C57.6954 75.3785 57.8603 75.0939 58.1332 74.7799C58.4107 74.4605 58.7497 74.1688 59.1321 73.9326L68.8186 89.6157ZM65.9293 88.7419H73.7081V70.3086H65.9293V88.7419ZM64.6972 77.589C64.4702 78.6453 64.1125 79.0605 63.7232 79.3676L75.14 93.8397C79.1747 90.6568 81.668 86.3531 82.7191 81.4615L64.6972 77.589ZM63.7731 79.3285C63.4267 79.598 62.7795 79.9677 61.2472 79.9677V98.401C66.2034 98.401 71.0125 97.0503 75.0901 93.8789L63.7731 79.3285ZM61.2472 79.9677C60.06 79.9677 59.3937 79.7238 58.9823 79.4923L49.9452 95.5583C53.4662 97.5389 57.3223 98.401 61.2472 98.401V79.9677ZM59.058 79.5354C58.5678 79.2535 58.258 78.935 57.9912 78.4439L41.7934 87.2427C43.6895 90.7332 46.4273 93.536 49.8695 95.5153L59.058 79.5354ZM58.0548 78.563C57.7784 78.036 57.5237 77.2407 57.5237 75.9492H39.0904C39.0904 79.819 39.8925 83.6198 41.7299 87.1236L58.0548 78.563ZM93.5723 84.7603L102.324 81.8686L100.234 75.5437H93.5723V84.7603ZM84.3557 84.7603V75.5437H77.6944L75.6044 81.8686L84.3557 84.7603ZM82.9547 89V98.2166H89.616L91.706 91.8917L82.9547 89ZM75.3602 89L66.701 85.8434L62.1904 98.2166H75.3602V89ZM84.8349 63.0091V53.7924H78.3848L76.1757 59.8524L84.8349 63.0091ZM93.1668 63.0091L101.83 59.8633L99.6255 53.7924H93.1668V63.0091ZM102.605 89V98.2166H115.757L111.268 85.8542L102.605 89ZM94.9732 89L86.222 91.8917L88.3119 98.2166H94.9732V89ZM91.7658 79.2304V88.447H104.553L100.51 76.3158L91.7658 79.2304ZM88.964 70.8248L97.7076 67.9102L88.906 41.5053L80.2088 67.9448L88.964 70.8248ZM86.199 79.2304L77.4438 76.3504L73.4647 88.447H86.199V79.2304ZM93.5723 75.5437H84.3557V93.977H93.5723V75.5437ZM75.6044 81.8686L74.2035 86.1083L91.706 91.8917L93.1069 87.6521L75.6044 81.8686ZM82.9547 79.7834H75.3602V98.2166H82.9547V79.7834ZM84.0194 92.1566L93.4941 66.1657L76.1757 59.8524L66.701 85.8434L84.0194 92.1566ZM84.8349 72.2257H93.1668V53.7924H84.8349V72.2257ZM84.5036 66.1548L93.9414 92.1458L111.268 85.8542L101.83 59.8633L84.5036 66.1548ZM102.605 79.7834H94.9732V98.2166H102.605V79.7834ZM103.724 86.1083L102.324 81.8686L84.821 87.6521L86.222 91.8917L103.724 86.1083ZM100.51 76.3158L97.7076 67.9102L80.2203 73.7393L83.0222 82.1449L100.51 76.3158ZM80.2088 67.9448L77.4438 76.3504L94.9541 82.1103L97.7191 73.7047L80.2088 67.9448ZM86.199 88.447H91.7658V70.0137H86.199V88.447ZM112.186 83.47H102.969V92.6867H112.186V83.47ZM120.259 83.47H129.476V74.2534H120.259V83.47ZM120.259 89V98.2166H129.476V89H120.259ZM104.96 89H95.7431V98.2166H104.96V89ZM104.96 63.0091V53.7924H95.7431V63.0091H104.96ZM112.186 63.0091H121.402V53.7924H112.186V63.0091ZM112.186 92.6867H120.259V74.2534H112.186V92.6867ZM111.043 83.47V89H129.476V83.47H111.043ZM120.259 79.7834H104.96V98.2166H120.259V79.7834ZM114.176 89V63.0091H95.7431V89H114.176ZM104.96 72.2257H112.186V53.7924H104.96V72.2257ZM102.969 63.0091V83.47H121.402V63.0091H102.969ZM160.467 63.0091H169.683V53.7924H160.467V63.0091ZM160.467 89V98.2166H169.683V89H160.467ZM153.241 89H144.024V98.2166H153.241V89ZM153.241 74.6589H162.458L144.52 71.6772L153.241 74.6589ZM148.338 89V98.2166H154.927L157.059 91.9817L148.338 89ZM142.291 89L133.57 91.9812L135.702 98.2166H142.291V89ZM137.351 74.5483L146.073 71.5671L128.135 74.5483H137.351ZM137.351 89V98.2166H146.568V89H137.351ZM130.126 89H120.909V98.2166H130.126V89ZM130.126 63.0091V53.7924H120.909V63.0091H130.126ZM138.863 63.0091L147.46 59.6866L145.182 53.7924H138.863V63.0091ZM145.388 79.894L136.791 83.2164L145.487 105.716L154.01 83.1508L145.388 79.894ZM151.766 63.0091V53.7924H145.395L143.144 59.7523L151.766 63.0091ZM151.25 63.0091V89H169.683V63.0091H151.25ZM160.467 79.7834H153.241V98.2166H160.467V79.7834ZM162.458 89V74.6589H144.024V89H162.458ZM144.52 71.6772L139.617 86.0183L157.059 91.9817L161.962 77.6406L144.52 71.6772ZM148.338 79.7834H142.291V98.2166H148.338V79.7834ZM151.013 86.0188L146.073 71.5671L128.63 77.5295L133.57 91.9812L151.013 86.0188ZM128.135 74.5483V89H146.568V74.5483H128.135ZM137.351 79.7834H130.126V98.2166H137.351V79.7834ZM139.342 89V63.0091H120.909V89H139.342ZM130.126 72.2257H138.863V53.7924H130.126V72.2257ZM130.266 66.3315L136.791 83.2164L153.985 76.5715L147.46 59.6866L130.266 66.3315ZM154.01 83.1508L160.388 66.2659L143.144 59.7523L136.766 76.6371L154.01 83.1508ZM151.766 72.2257H160.467V53.7924H151.766V72.2257ZM181.022 84.7603L189.774 81.8686L187.684 75.5437H181.022V84.7603ZM171.806 84.7603V75.5437H165.145L163.055 81.8686L171.806 84.7603ZM170.405 89V98.2166H177.066L179.156 91.8917L170.405 89ZM162.81 89L154.151 85.8434L149.641 98.2166H162.81V89ZM172.285 63.0091V53.7924H165.835L163.626 59.8524L172.285 63.0091ZM180.617 63.0091L189.28 59.8633L187.076 53.7924H180.617V63.0091ZM190.055 89V98.2166H203.207L198.718 85.8542L190.055 89ZM182.423 89L173.672 91.8917L175.762 98.2166H182.423V89ZM179.216 79.2304V88.447H192.003L187.96 76.3158L179.216 79.2304ZM176.414 70.8248L185.158 67.9102L176.356 41.5053L167.659 67.9448L176.414 70.8248ZM173.649 79.2304L164.894 76.3504L160.915 88.447H173.649V79.2304ZM181.022 75.5437H171.806V93.977H181.022V75.5437ZM163.055 81.8686L161.654 86.1083L179.156 91.8917L180.557 87.6521L163.055 81.8686ZM170.405 79.7834H162.81V98.2166H170.405V79.7834ZM171.47 92.1566L180.944 66.1657L163.626 59.8524L154.151 85.8434L171.47 92.1566ZM172.285 72.2257H180.617V53.7924H172.285V72.2257ZM171.954 66.1548L181.392 92.1458L198.718 85.8542L189.28 59.8633L171.954 66.1548ZM190.055 79.7834H182.423V98.2166H190.055V79.7834ZM191.175 86.1083L189.774 81.8686L172.271 87.6521L173.672 91.8917L191.175 86.1083ZM187.96 76.3158L185.158 67.9102L167.67 73.7393L170.472 82.1449L187.96 76.3158ZM167.659 67.9448L164.894 76.3504L182.404 82.1103L185.169 73.7047L167.659 67.9448ZM173.649 88.447H179.216V70.0137H173.649V88.447ZM205.571 89L197.456 93.3696L200.066 98.2166H205.571V89ZM200.41 79.4147L208.525 75.0451L205.915 70.198H200.41V79.4147ZM199.636 79.4147V70.198H190.419V79.4147H199.636ZM199.636 89V98.2166H208.852V89H199.636ZM192.41 89H183.193V98.2166H192.41V89ZM192.41 63.0091V53.7924H183.193V63.0091H192.41ZM209.11 64.1151L204.933 72.3306L204.989 72.359L205.045 72.3865L209.11 64.1151ZM212.392 67.1012L204.408 71.707L204.428 71.7407L204.447 71.7743L212.392 67.1012ZM212.023 76.023L204.569 70.602L204.56 70.6143L204.551 70.6267L212.023 76.023ZM207.783 78.8617L205.114 70.0402L193.984 73.4083L199.804 83.475L207.783 78.8617ZM213.645 89V98.2166H229.62L221.624 84.3867L213.645 89ZM199.636 74.4746H190.419V83.6912H199.636V74.4746ZM205.424 73.7741L199.076 67.092L199.076 67.092L205.424 73.7741ZM205.387 69.7925L198.87 76.3097L199.033 76.4725L199.203 76.627L205.387 69.7925ZM199.636 69.0552V59.8385H190.419V69.0552H199.636ZM213.686 84.6304L208.525 75.0451L192.295 83.7843L197.456 93.3696L213.686 84.6304ZM200.41 70.198H199.636V88.6313H200.41V70.198ZM190.419 79.4147V89H208.852V79.4147H190.419ZM199.636 79.7834H192.41V98.2166H199.636V79.7834ZM201.627 89V63.0091H183.193V89H201.627ZM192.41 72.2257H203.802V53.7924H192.41V72.2257ZM203.802 72.2257C204.839 72.2257 205.092 72.4114 204.933 72.3306L213.288 55.8995C210.229 54.344 206.943 53.7924 203.802 53.7924V72.2257ZM205.045 72.3865C205.064 72.3958 204.965 72.3491 204.815 72.2125C204.659 72.0711 204.516 71.8942 204.408 71.707L220.375 62.4955C218.637 59.4839 216.104 57.2827 213.176 55.8436L205.045 72.3865ZM204.447 71.7743C204.383 71.6643 204.332 71.5409 204.303 71.4277C204.274 71.3188 204.281 71.2794 204.281 71.3409H222.714C222.714 68.2634 221.974 65.213 220.336 62.4282L204.447 71.7743ZM204.281 71.3409C204.281 71.3628 204.28 71.2553 204.338 71.0698C204.398 70.8791 204.487 70.7145 204.569 70.602L219.477 81.4439C221.675 78.4213 222.714 74.9368 222.714 71.3409H204.281ZM204.551 70.6267C204.737 70.3687 204.949 70.1814 205.116 70.0696C205.269 69.9672 205.301 69.9834 205.114 70.0402L210.453 87.6832C213.87 86.649 217.139 84.6808 219.495 81.4192L204.551 70.6267ZM199.804 83.475L205.666 93.6133L221.624 84.3867L215.762 74.2484L199.804 83.475ZM213.645 79.7834H205.571V98.2166H213.645V79.7834ZM199.636 83.6912H203.212V65.2579H199.636V83.6912ZM203.212 83.6912C205.501 83.6912 208.93 83.1558 211.772 80.4562L199.076 67.092C200.934 65.3263 202.889 65.2579 203.212 65.2579V83.6912ZM211.772 80.4562C214.608 77.7613 215.378 74.349 215.378 71.7464H196.944C196.944 70.9135 197.222 68.853 199.076 67.092L211.772 80.4562ZM215.378 71.7464C215.378 68.8746 214.402 65.5203 211.571 62.958L199.203 76.627C198.406 75.9057 197.787 75.0059 197.399 74.0263C197.026 73.0847 196.944 72.2719 196.944 71.7464H215.378ZM211.904 63.2753C209.114 60.4855 205.67 59.8385 203.212 59.8385V78.2718C202.671 78.2718 200.677 78.1164 198.87 76.3097L211.904 63.2753ZM203.212 59.8385H199.636V78.2718H203.212V59.8385ZM190.419 69.0552V74.4746H208.852V69.0552H190.419ZM232.157 89L224.66 94.3617L227.417 98.2166H232.157V89ZM224.009 77.6082L231.506 72.2466L214.793 48.8783V77.6082H224.009ZM224.009 89V98.2166H233.226V89H224.009ZM216.784 89H207.567V98.2166H216.784V89ZM216.784 63.0091V53.7924H207.567V63.0091H216.784ZM224.009 63.0091H233.226V53.7924H224.009V63.0091ZM224.009 74.2165H214.793V102.778L231.488 79.6038L224.009 74.2165ZM232.083 63.0091V53.7924H227.364L224.605 57.6218L232.083 63.0091ZM240.415 63.0091L247.763 68.5734L258.956 53.7924H240.415V63.0091ZM230.867 75.6174L223.519 70.0531L219.328 75.588L223.491 81.1442L230.867 75.6174ZM240.894 89V98.2166H259.317L248.27 83.4733L240.894 89ZM239.654 83.6383L231.506 72.2466L216.513 82.9699L224.66 94.3617L239.654 83.6383ZM214.793 77.6082V89H233.226V77.6082H214.793ZM224.009 79.7834H216.784V98.2166H224.009V79.7834ZM226 89V63.0091H207.567V89H226ZM216.784 72.2257H224.009V53.7924H216.784V72.2257ZM214.793 63.0091V74.2165H233.226V63.0091H214.793ZM231.488 79.6038L239.561 68.3963L224.605 57.6218L216.531 68.8292L231.488 79.6038ZM232.083 72.2257H240.415V53.7924H232.083V72.2257ZM233.068 57.4448L223.519 70.0531L238.214 81.1817L247.763 68.5734L233.068 57.4448ZM223.491 81.1442L233.519 94.5267L248.27 83.4733L238.242 70.0907L223.491 81.1442ZM240.894 79.7834H232.157V98.2166H240.894V79.7834ZM250.759 68.7971V59.5805H241.543V68.7971H250.759ZM250.759 73.0368H241.543V82.2534H250.759V73.0368ZM259.054 73.0368H268.271V63.8201H259.054V73.0368ZM259.054 78.5299V87.7465H268.271V78.5299H259.054ZM250.759 78.5299V69.3132H241.543V78.5299H250.759ZM250.759 83.2119H241.543V92.4286H250.759V83.2119ZM260.16 83.2119H269.377V73.9953H260.16V83.2119ZM260.16 89V98.2166H269.377V89H260.16ZM243.533 89H234.317V98.2166H243.533V89ZM243.533 63.0091V53.7924H234.317V63.0091H243.533ZM260.16 63.0091H269.377V53.7924H260.16V63.0091ZM260.16 68.7971V78.0138H269.377V68.7971H260.16ZM241.543 68.7971V73.0368H259.976V68.7971H241.543ZM250.759 82.2534H259.054V63.8201H250.759V82.2534ZM249.838 73.0368V78.5299H268.271V73.0368H249.838ZM259.054 69.3132H250.759V87.7465H259.054V69.3132ZM241.543 78.5299V83.2119H259.976V78.5299H241.543ZM250.759 92.4286H260.16V73.9953H250.759V92.4286ZM250.944 83.2119V89H269.377V83.2119H250.944ZM260.16 79.7834H243.533V98.2166H260.16V79.7834ZM252.75 89V63.0091H234.317V89H252.75ZM243.533 72.2257H260.16V53.7924H243.533V72.2257ZM250.944 63.0091V68.7971H269.377V63.0091H250.944ZM260.16 59.5805H250.759V78.0138H260.16V59.5805ZM283.307 63.0091H292.524V53.7924H283.307V63.0091ZM283.307 68.7602V77.9769H292.524V68.7602H283.307ZM276.376 68.7602V59.5436H267.16V68.7602H276.376ZM276.376 89V98.2166H285.593V89H276.376ZM269.15 89H259.934V98.2166H269.15V89ZM269.15 68.7602H278.367V59.5436H269.15V68.7602ZM262.293 68.7602H253.076V77.9769H262.293V68.7602ZM262.293 63.0091V53.7924H253.076V63.0091H262.293ZM274.09 63.0091V68.7602H292.524V63.0091H274.09ZM283.307 59.5436H276.376V77.9769H283.307V59.5436ZM267.16 68.7602V89H285.593V68.7602H267.16ZM276.376 79.7834H269.15V98.2166H276.376V79.7834ZM278.367 89V68.7602H259.934V89H278.367ZM269.15 59.5436H262.293V77.9769H269.15V59.5436ZM271.51 68.7602V63.0091H253.076V68.7602H271.51ZM262.293 72.2257H283.307V53.7924H262.293V72.2257Z" fill="#2E2C43" mask="url(#path-1-outside-1_32_1451)"/>
<mask id="path-3-outside-2_32_1451" maskUnits="userSpaceOnUse" x="-7.97741" y="4.00596" width="179.255" height="47.0045" fill="black">
<rect fill="white" x="-7.97741" y="4.00596" width="179.255" height="47.0045"/>
<path d="M9.40141 20.7109L9.42522 24.9505L17.7201 24.9039L17.7509 30.397L9.45606 30.4436L9.48236 35.1255L18.8832 35.0727L18.9157 40.8607L2.28912 40.9541L2.14317 14.9635L18.7697 14.8702L18.8022 20.6581L9.40141 20.7109ZM38.7441 40.7494L33.6523 33.4414L29.3802 40.8019L21.159 40.8481L29.5266 27.4921L20.7182 14.8592L29.2342 14.8114L34.1776 21.9359L38.3401 14.7603L46.5612 14.7141L38.303 27.8483L47.2602 40.7015L38.7441 40.7494ZM70.1768 23.2453C70.1856 24.8182 69.825 26.2581 69.095 27.5648C68.3894 28.8468 67.3016 29.8852 65.8313 30.68C64.3855 31.45 62.6058 31.841 60.4922 31.8528L56.9162 31.8729L56.9654 40.647L49.7397 40.6876L49.5937 14.6971L60.3955 14.6364C62.4846 14.6247 64.2562 14.9834 65.7104 15.7126C67.1892 16.4416 68.3009 17.4554 69.0455 18.7538C69.7902 20.0523 70.1672 21.5494 70.1768 23.2453ZM59.7594 26.1057C61.7993 26.0942 62.8141 25.1546 62.8036 23.2867C62.7929 21.3942 61.7677 20.4537 59.7277 20.4652L56.8522 20.4813L56.8839 26.1218L59.7594 26.1057ZM80.3717 34.9855L88.4453 34.9402L88.4764 40.4701L73.177 40.556L73.031 14.5655L80.2568 14.5249L80.3717 34.9855ZM103.748 40.6424C101.315 40.656 99.0753 40.1033 97.029 38.9842C94.9826 37.8405 93.3516 36.2644 92.136 34.2558C90.9448 32.2225 90.342 29.9279 90.3277 27.3718C90.3133 24.8158 90.8903 22.5268 92.0587 20.5048C93.2516 18.4581 94.8648 16.8638 96.8984 15.7218C98.9319 14.5798 101.165 14.0019 103.598 13.9883C106.056 13.9745 108.296 14.5272 110.318 15.6464C112.364 16.7655 113.983 18.3417 115.174 20.375C116.365 22.3837 116.967 24.6661 116.982 27.2221C116.996 29.7782 116.419 32.0795 115.251 34.126C114.083 36.148 112.482 37.7423 110.448 38.9089C108.415 40.0509 106.181 40.6287 103.748 40.6424ZM103.71 33.9328C105.554 33.9224 107 33.3121 108.05 32.1019C109.125 30.8915 109.657 29.2787 109.645 27.2633C109.634 25.1989 109.084 23.5798 107.996 22.4061C106.932 21.2078 105.479 20.6138 103.636 20.6241C101.768 20.6346 100.309 21.245 99.2588 22.4552C98.2086 23.6409 97.6893 25.2659 97.7009 27.3304C97.7123 29.3703 98.2499 30.9895 99.3135 32.1878C100.377 33.3616 101.843 33.9433 103.71 33.9328ZM133.465 40.2174L128.25 30.6613L127.475 30.6656L127.529 40.2508L120.304 40.2913L120.158 14.3008L131.549 14.2368C133.638 14.2251 135.41 14.5838 136.864 15.313C138.318 16.0176 139.417 17.0068 140.162 18.2807C140.906 19.53 141.283 20.9411 141.292 22.5141C141.302 24.2837 140.819 25.8471 139.843 27.2044C138.892 28.5369 137.484 29.4911 135.62 30.0669L141.538 40.1721L133.465 40.2174ZM127.448 25.7256L131.024 25.7055C132.007 25.6999 132.743 25.4623 133.232 24.9926C133.721 24.5229 133.963 23.8456 133.958 22.9608C133.953 22.1252 133.691 21.4753 133.173 21.0113C132.678 20.5225 131.952 20.2808 130.993 20.2862L127.417 20.3063L127.448 25.7256ZM151.789 19.9113L151.813 24.1509L160.108 24.1043L160.139 29.5974L151.844 29.6439L151.87 34.3259L161.271 34.2731L161.303 40.0611L144.677 40.1545L144.531 14.1639L161.157 14.0706L161.19 19.8585L151.789 19.9113Z"/>
</mask>
<path d="M9.40141 20.7109L9.42522 24.9505L17.7201 24.9039L17.7509 30.397L9.45606 30.4436L9.48236 35.1255L18.8832 35.0727L18.9157 40.8607L2.28912 40.9541L2.14317 14.9635L18.7697 14.8702L18.8022 20.6581L9.40141 20.7109ZM38.7441 40.7494L33.6523 33.4414L29.3802 40.8019L21.159 40.8481L29.5266 27.4921L20.7182 14.8592L29.2342 14.8114L34.1776 21.9359L38.3401 14.7603L46.5612 14.7141L38.303 27.8483L47.2602 40.7015L38.7441 40.7494ZM70.1768 23.2453C70.1856 24.8182 69.825 26.2581 69.095 27.5648C68.3894 28.8468 67.3016 29.8852 65.8313 30.68C64.3855 31.45 62.6058 31.841 60.4922 31.8528L56.9162 31.8729L56.9654 40.647L49.7397 40.6876L49.5937 14.6971L60.3955 14.6364C62.4846 14.6247 64.2562 14.9834 65.7104 15.7126C67.1892 16.4416 68.3009 17.4554 69.0455 18.7538C69.7902 20.0523 70.1672 21.5494 70.1768 23.2453ZM59.7594 26.1057C61.7993 26.0942 62.8141 25.1546 62.8036 23.2867C62.7929 21.3942 61.7677 20.4537 59.7277 20.4652L56.8522 20.4813L56.8839 26.1218L59.7594 26.1057ZM80.3717 34.9855L88.4453 34.9402L88.4764 40.4701L73.177 40.556L73.031 14.5655L80.2568 14.5249L80.3717 34.9855ZM103.748 40.6424C101.315 40.656 99.0753 40.1033 97.029 38.9842C94.9826 37.8405 93.3516 36.2644 92.136 34.2558C90.9448 32.2225 90.342 29.9279 90.3277 27.3718C90.3133 24.8158 90.8903 22.5268 92.0587 20.5048C93.2516 18.4581 94.8648 16.8638 96.8984 15.7218C98.9319 14.5798 101.165 14.0019 103.598 13.9883C106.056 13.9745 108.296 14.5272 110.318 15.6464C112.364 16.7655 113.983 18.3417 115.174 20.375C116.365 22.3837 116.967 24.6661 116.982 27.2221C116.996 29.7782 116.419 32.0795 115.251 34.126C114.083 36.148 112.482 37.7423 110.448 38.9089C108.415 40.0509 106.181 40.6287 103.748 40.6424ZM103.71 33.9328C105.554 33.9224 107 33.3121 108.05 32.1019C109.125 30.8915 109.657 29.2787 109.645 27.2633C109.634 25.1989 109.084 23.5798 107.996 22.4061C106.932 21.2078 105.479 20.6138 103.636 20.6241C101.768 20.6346 100.309 21.245 99.2588 22.4552C98.2086 23.6409 97.6893 25.2659 97.7009 27.3304C97.7123 29.3703 98.2499 30.9895 99.3135 32.1878C100.377 33.3616 101.843 33.9433 103.71 33.9328ZM133.465 40.2174L128.25 30.6613L127.475 30.6656L127.529 40.2508L120.304 40.2913L120.158 14.3008L131.549 14.2368C133.638 14.2251 135.41 14.5838 136.864 15.313C138.318 16.0176 139.417 17.0068 140.162 18.2807C140.906 19.53 141.283 20.9411 141.292 22.5141C141.302 24.2837 140.819 25.8471 139.843 27.2044C138.892 28.5369 137.484 29.4911 135.62 30.0669L141.538 40.1721L133.465 40.2174ZM127.448 25.7256L131.024 25.7055C132.007 25.6999 132.743 25.4623 133.232 24.9926C133.721 24.5229 133.963 23.8456 133.958 22.9608C133.953 22.1252 133.691 21.4753 133.173 21.0113C132.678 20.5225 131.952 20.2808 130.993 20.2862L127.417 20.3063L127.448 25.7256ZM151.789 19.9113L151.813 24.1509L160.108 24.1043L160.139 29.5974L151.844 29.6439L151.87 34.3259L161.271 34.2731L161.303 40.0611L144.677 40.1545L144.531 14.1639L161.157 14.0706L161.19 19.8585L151.789 19.9113Z" fill="white"/>
<path d="M9.40141 20.7109L9.34965 11.4944L0.133149 11.5462L0.184907 20.7627L9.40141 20.7109ZM9.42522 24.9505L0.208716 25.0023L0.260473 34.2188L9.47698 34.167L9.42522 24.9505ZM17.7201 24.9039L26.9366 24.8522L26.8848 15.6357L17.6683 15.6874L17.7201 24.9039ZM17.7509 30.397L17.8027 39.6135L27.0192 39.5617L26.9674 30.3452L17.7509 30.397ZM9.45606 30.4436L9.40431 21.2271L0.187805 21.2788L0.239563 30.4953L9.45606 30.4436ZM9.48236 35.1255L0.265856 35.1773L0.317614 44.3938L9.53412 44.342L9.48236 35.1255ZM18.8832 35.0727L28.0997 35.021L28.0479 25.8045L18.8314 25.8562L18.8832 35.0727ZM18.9157 40.8607L18.9675 50.0772L28.184 50.0255L28.1322 40.809L18.9157 40.8607ZM2.28912 40.9541L-6.92738 41.0058L-6.87562 50.2223L2.34088 50.1706L2.28912 40.9541ZM2.14317 14.9635L2.09141 5.74705L-7.12509 5.7988L-7.07333 15.0153L2.14317 14.9635ZM18.7697 14.8702L27.9862 14.8184L27.9345 5.60192L18.718 5.65367L18.7697 14.8702ZM18.8022 20.6581L18.854 29.8746L28.0705 29.8229L28.0187 20.6064L18.8022 20.6581ZM0.184907 20.7627L0.208716 25.0023L18.6417 24.8988L18.6179 20.6592L0.184907 20.7627ZM9.47698 34.167L17.7718 34.1204L17.6683 15.6874L9.37346 15.734L9.47698 34.167ZM8.50357 24.9557L8.53442 30.4487L26.9674 30.3452L26.9366 24.8522L8.50357 24.9557ZM17.6992 21.1805L9.40431 21.2271L9.50782 39.6601L17.8027 39.6135L17.6992 21.1805ZM0.239563 30.4953L0.265856 35.1773L18.6989 35.0738L18.6726 30.3918L0.239563 30.4953ZM9.53412 44.342L18.9349 44.2893L18.8314 25.8562L9.4306 25.909L9.53412 44.342ZM9.66669 35.1245L9.69919 40.9125L28.1322 40.809L28.0997 35.021L9.66669 35.1245ZM18.8639 31.6442L2.23737 31.7376L2.34088 50.1706L18.9675 50.0772L18.8639 31.6442ZM11.5056 40.9023L11.3597 14.9118L-7.07333 15.0153L-6.92738 41.0058L11.5056 40.9023ZM2.19492 24.18L18.8215 24.0867L18.718 5.65367L2.09141 5.74705L2.19492 24.18ZM9.55324 14.9219L9.58574 20.7099L28.0187 20.6064L27.9862 14.8184L9.55324 14.9219ZM18.7505 11.4416L9.34965 11.4944L9.45317 29.9274L18.854 29.8746L18.7505 11.4416ZM38.7441 40.7494L31.182 46.0183L33.9515 49.9931L38.7959 49.9659L38.7441 40.7494ZM33.6523 33.4414L41.2144 28.1725L32.9436 16.3019L25.681 28.8148L33.6523 33.4414ZM29.3802 40.8019L29.4319 50.0184L34.7046 49.9888L37.3514 45.4285L29.3802 40.8019ZM21.159 40.8481L13.3486 35.9549L4.44988 50.1587L21.2108 50.0646L21.159 40.8481ZM29.5266 27.4921L37.3371 32.3853L40.573 27.2202L37.0869 22.2205L29.5266 27.4921ZM20.7182 14.8592L20.6664 5.64273L3.12456 5.74124L13.1579 20.1308L20.7182 14.8592ZM29.2342 14.8114L36.8066 9.55729L34.0383 5.56764L29.1825 5.59491L29.2342 14.8114ZM34.1776 21.9359L26.6052 27.19L34.8727 39.1054L42.1499 26.5606L34.1776 21.9359ZM38.3401 14.7603L38.2884 5.54377L33.0143 5.57339L30.3678 10.1355L38.3401 14.7603ZM46.5612 14.7141L54.3637 19.62L63.3026 5.4033L46.5095 5.4976L46.5612 14.7141ZM38.303 27.8483L30.5005 22.9425L27.2514 28.1099L30.7414 33.1179L38.303 27.8483ZM47.2602 40.7015L47.3119 49.918L64.8483 49.8196L54.8218 35.432L47.2602 40.7015ZM46.3062 35.4805L41.2144 28.1725L26.0902 38.7103L31.182 46.0183L46.3062 35.4805ZM25.681 28.8148L21.4089 36.1754L37.3514 45.4285L41.6236 38.068L25.681 28.8148ZM29.3284 31.5854L21.1073 31.6316L21.2108 50.0646L29.4319 50.0184L29.3284 31.5854ZM28.9695 45.7414L37.3371 32.3853L21.7162 22.5988L13.3486 35.9549L28.9695 45.7414ZM37.0869 22.2205L28.2784 9.58771L13.1579 20.1308L21.9664 32.7636L37.0869 22.2205ZM20.7699 24.0757L29.286 24.0279L29.1825 5.59491L20.6664 5.64273L20.7699 24.0757ZM21.6618 20.0655L26.6052 27.19L41.7499 16.6818L36.8066 9.55729L21.6618 20.0655ZM42.1499 26.5606L46.3125 19.385L30.3678 10.1355L26.2052 17.3111L42.1499 26.5606ZM38.3919 23.9768L46.613 23.9306L46.5095 5.4976L38.2884 5.54377L38.3919 23.9768ZM38.7587 9.80823L30.5005 22.9425L46.1055 32.7542L54.3637 19.62L38.7587 9.80823ZM30.7414 33.1179L39.6985 45.9711L54.8218 35.432L45.8646 22.5788L30.7414 33.1179ZM47.2084 31.485L38.6924 31.5329L38.7959 49.9659L47.3119 49.918L47.2084 31.485ZM69.095 27.5648L61.0488 23.0698L61.0345 23.0953L61.0204 23.1209L69.095 27.5648ZM65.8313 30.68L70.164 38.8147L70.1891 38.8014L70.2142 38.7878L65.8313 30.68ZM56.9162 31.8729L56.8644 22.6564L47.6479 22.7082L47.6997 31.9247L56.9162 31.8729ZM56.9654 40.647L57.0172 49.8635L66.2337 49.8118L66.1819 40.5953L56.9654 40.647ZM49.7397 40.6876L40.5232 40.7394L40.575 49.9559L49.7915 49.9041L49.7397 40.6876ZM49.5938 14.6971L49.542 5.48057L40.3255 5.53233L40.3772 14.7488L49.5938 14.6971ZM65.7104 15.7126L61.5792 23.9515L61.607 23.9655L61.635 23.9792L65.7104 15.7126ZM69.0455 18.7538L61.0503 23.3389L61.0503 23.3389L69.0455 18.7538ZM56.8522 20.4813L56.8004 11.2648L47.5839 11.3166L47.6357 20.5331L56.8522 20.4813ZM56.8839 26.1218L47.6674 26.1736L47.7191 35.3901L56.9356 35.3383L56.8839 26.1218ZM60.9603 23.297C60.9606 23.3573 60.9543 23.3383 60.9724 23.2658C60.9808 23.2323 60.9924 23.1956 61.0072 23.1584C61.0219 23.1214 61.0368 23.0913 61.0488 23.0698L77.1412 32.0598C78.6873 29.2923 79.4106 26.2736 79.3933 23.1935L60.9603 23.297ZM61.0204 23.1209C61.1337 22.9152 61.2688 22.7501 61.3862 22.638C61.4972 22.5321 61.5413 22.522 61.4485 22.5721L70.2142 38.7878C73.0141 37.2743 75.4943 35.0528 77.1696 32.0087L61.0204 23.1209ZM61.4987 22.5452C61.6982 22.4389 61.4813 22.6305 60.4404 22.6363L60.5439 41.0693C63.7304 41.0514 67.0729 40.4611 70.164 38.8147L61.4987 22.5452ZM60.4404 22.6363L56.8644 22.6564L56.9679 41.0894L60.5439 41.0693L60.4404 22.6363ZM47.6997 31.9247L47.7489 40.6988L66.1819 40.5953L66.1327 31.8212L47.6997 31.9247ZM56.9137 31.4305L49.6879 31.4711L49.7915 49.9041L57.0172 49.8635L56.9137 31.4305ZM58.9562 40.6359L58.8103 14.6453L40.3772 14.7488L40.5232 40.7394L58.9562 40.6359ZM49.6455 23.9136L60.4472 23.8529L60.3437 5.41991L49.542 5.48057L49.6455 23.9136ZM60.4472 23.8529C61.4845 23.8471 61.7386 24.0314 61.5792 23.9515L69.8416 7.47367C66.7738 5.9354 63.4846 5.40227 60.3437 5.41991L60.4472 23.8529ZM61.635 23.9792C61.6716 23.9973 61.5849 23.9593 61.4431 23.83C61.2957 23.6956 61.1564 23.5239 61.0503 23.3389L77.0408 14.1688C75.2927 11.1206 72.7343 8.89955 69.7859 7.44594L61.635 23.9792ZM61.0503 23.3389C61.0224 23.2903 60.9993 23.2419 60.9813 23.1971C60.9634 23.1524 60.9537 23.1191 60.9493 23.1016C60.9399 23.0643 60.9593 23.1188 60.9603 23.297L79.3933 23.1935C79.376 20.1216 78.6775 17.0229 77.0408 14.1687L61.0503 23.3389ZM59.8112 35.3222C62.0605 35.3095 65.464 34.7927 68.3127 32.1548C71.3143 29.3751 72.0345 25.8087 72.0201 23.2349L53.5871 23.3384C53.5831 22.6325 53.8012 20.4699 55.7881 18.6299C57.6221 16.9316 59.4983 16.8904 59.7077 16.8892L59.8112 35.3222ZM72.0201 23.2349C72.0057 20.6832 71.2658 17.1301 68.257 14.3701C65.3793 11.7303 61.952 11.2359 59.676 11.2487L59.7795 29.6817C59.5434 29.683 57.6487 29.6531 55.7963 27.9539C53.8128 26.1343 53.5908 23.9977 53.5871 23.3384L72.0201 23.2349ZM59.676 11.2487L56.8004 11.2648L56.904 29.6978L59.7795 29.6817L59.676 11.2487ZM47.6357 20.5331L47.6674 26.1736L66.1004 26.0701L66.0687 20.4296L47.6357 20.5331ZM56.9356 35.3383L59.8112 35.3222L59.7077 16.8892L56.8321 16.9053L56.9356 35.3383ZM80.3717 34.9855L71.1552 35.0373L71.2069 44.2538L80.4234 44.202L80.3717 34.9855ZM88.4453 34.9402L97.6618 34.8884L97.6101 25.6719L88.3936 25.7237L88.4453 34.9402ZM88.4764 40.4701L88.5281 49.6866L97.7446 49.6348L97.6929 40.4183L88.4764 40.4701ZM73.177 40.556L63.9605 40.6077L64.0122 49.8243L73.2287 49.7725L73.177 40.556ZM73.031 14.5655L72.9793 5.34895L63.7628 5.40071L63.8145 14.6172L73.031 14.5655ZM80.2568 14.5249L89.4733 14.4731L89.4215 5.25662L80.205 5.30838L80.2568 14.5249ZM80.4234 44.202L88.4971 44.1567L88.3936 25.7237L80.3199 25.769L80.4234 44.202ZM79.2288 34.9919L79.2599 40.5218L97.6929 40.4183L97.6618 34.8884L79.2288 34.9919ZM88.4246 31.2536L73.1252 31.3395L73.2287 49.7725L88.5281 49.6866L88.4246 31.2536ZM82.3935 40.5042L82.2475 14.5137L63.8145 14.6172L63.9605 40.6077L82.3935 40.5042ZM73.0828 23.782L80.3085 23.7414L80.205 5.30838L72.9793 5.34895L73.0828 23.782ZM71.0403 14.5766L71.1552 35.0373L89.5882 34.9338L89.4733 14.4731L71.0403 14.5766ZM97.029 38.9842L92.5326 47.0297L92.5695 47.0503L92.6066 47.0706L97.029 38.9842ZM92.136 34.2558L84.1835 38.9147L84.2168 38.9715L84.2509 39.0279L92.136 34.2558ZM92.0587 20.5048L84.0958 15.8639L84.0872 15.8787L84.0786 15.8935L92.0587 20.5048ZM110.318 15.6464L105.854 23.7098L105.874 23.7214L105.895 23.7328L110.318 15.6464ZM115.174 20.375L107.221 25.0338L107.234 25.0548L107.246 25.0757L115.174 20.375ZM115.251 34.126L123.231 38.7373L123.243 38.7163L123.255 38.6952L115.251 34.126ZM110.448 38.9089L114.961 46.945L114.998 46.9243L115.035 46.9033L110.448 38.9089ZM108.05 32.1019L101.158 25.9826L101.123 26.022L101.089 26.0617L108.05 32.1019ZM107.996 22.4061L101.103 28.5242L101.169 28.5989L101.237 28.6721L107.996 22.4061ZM99.2588 22.4552L106.158 28.5664L106.189 28.531L106.22 28.4954L99.2588 22.4552ZM99.3135 32.1878L92.4202 38.3058L92.4515 38.3411L92.4832 38.3761L99.3135 32.1878ZM103.696 31.4259C102.756 31.4312 102.066 31.234 101.451 30.8979L92.6066 47.0706C96.0846 48.9727 99.8739 49.8809 103.8 49.8589L103.696 31.4259ZM101.525 30.9388C100.875 30.5754 100.411 30.1282 100.021 29.4838L84.2509 39.0279C86.2921 42.4006 89.09 45.1057 92.5326 47.0297L101.525 30.9388ZM100.088 29.597C99.7849 29.0789 99.5502 28.3975 99.5442 27.3201L81.1112 27.4236C81.1338 31.4582 82.1047 35.3662 84.1835 38.9147L100.088 29.597ZM99.5442 27.3201C99.5381 26.2412 99.7655 25.5892 100.039 25.1161L84.0786 15.8935C82.0152 19.4644 81.0885 23.3903 81.1112 27.4236L99.5442 27.3201ZM100.022 25.1457C100.401 24.4945 100.833 24.0826 101.411 23.7579L92.3854 7.68561C88.8964 9.64495 86.1019 12.4217 84.0958 15.8639L100.022 25.1457ZM101.411 23.7579C102.022 23.415 102.71 23.21 103.65 23.2048L103.547 4.77176C99.6207 4.7938 95.8418 5.74455 92.3854 7.68561L101.411 23.7579ZM103.65 23.2048C104.633 23.1992 105.302 23.4043 105.854 23.7098L114.782 7.58298C111.29 5.65008 107.48 4.74967 103.547 4.77176L103.65 23.2048ZM105.895 23.7328C106.46 24.0416 106.865 24.426 107.221 25.0338L123.126 15.7162C121.1 12.2574 118.268 9.48942 114.74 7.56008L105.895 23.7328ZM107.246 25.0757C107.525 25.5456 107.759 26.1951 107.765 27.2739L126.198 27.1704C126.176 23.1371 125.205 19.2218 123.102 15.6744L107.246 25.0757ZM107.765 27.2739C107.771 28.3514 107.544 29.0353 107.247 29.5568L123.255 38.6952C125.294 35.1237 126.221 31.205 126.198 27.1704L107.765 27.2739ZM107.271 29.5147C106.919 30.1238 106.491 30.5533 105.862 30.9144L115.035 46.9033C118.472 44.9312 121.246 42.1722 123.231 38.7373L107.271 29.5147ZM105.935 30.8727C105.325 31.2157 104.637 31.4206 103.696 31.4259L103.8 49.8589C107.726 49.8368 111.505 48.8861 114.961 46.945L105.935 30.8727ZM103.762 43.1493C107.816 43.1265 111.953 41.6677 115.012 38.1421L101.089 26.0617C101.468 25.6244 101.993 25.2297 102.596 24.9753C103.167 24.7344 103.575 24.7167 103.659 24.7163L103.762 43.1493ZM114.943 38.2212C117.872 34.922 118.883 30.9202 118.862 27.2116L100.429 27.3151C100.43 27.5063 100.403 27.3982 100.502 27.099C100.61 26.7718 100.82 26.3632 101.158 25.9826L114.943 38.2212ZM118.862 27.2116C118.841 23.531 117.824 19.4505 114.755 16.1402L101.237 28.6721C100.841 28.2448 100.61 27.7963 100.497 27.4643C100.395 27.1645 100.428 27.0747 100.429 27.3151L118.862 27.2116ZM114.889 16.2881C111.791 12.7971 107.638 11.3849 103.584 11.4076L103.687 29.8406C103.604 29.8411 103.195 29.8281 102.622 29.5935C102.016 29.3459 101.487 28.9572 101.103 28.5242L114.889 16.2881ZM103.584 11.4076C99.5483 11.4303 95.3807 12.8613 92.2973 16.415L106.22 28.4954C105.828 28.9477 105.295 29.3424 104.698 29.5924C104.135 29.8279 103.743 29.8403 103.687 29.8406L103.584 11.4076ZM92.3595 16.3441C89.3944 19.6916 88.464 23.7537 88.4844 27.3822L106.917 27.2787C106.916 27.0192 106.951 27.0874 106.861 27.3687C106.761 27.6814 106.547 28.1277 106.158 28.5664L92.3595 16.3441ZM88.4844 27.3822C88.5049 31.0299 89.5013 35.0171 92.4202 38.3058L106.207 26.0698C106.557 26.4648 106.761 26.8723 106.86 27.1708C106.95 27.441 106.919 27.5131 106.917 27.2787L88.4844 27.3822ZM92.4832 38.3761C95.6242 41.843 99.7889 43.1716 103.762 43.1493L103.659 24.7163C103.692 24.7161 104.062 24.7202 104.61 24.9377C105.194 25.1693 105.733 25.5465 106.144 25.9996L92.4832 38.3761ZM133.465 40.2174L125.374 44.6325L128.012 49.4648L133.516 49.4339L133.465 40.2174ZM128.25 30.6613L136.34 26.2461L133.703 21.4138L128.198 21.4447L128.25 30.6613ZM127.475 30.6656L127.424 21.4491L118.207 21.5009L118.259 30.7174L127.475 30.6656ZM127.529 40.2508L127.581 49.4673L136.798 49.4155L136.746 40.199L127.529 40.2508ZM120.304 40.2913L111.087 40.3431L111.139 49.5596L120.355 49.5078L120.304 40.2913ZM120.158 14.3008L120.106 5.0843L110.889 5.13606L110.941 14.3526L120.158 14.3008ZM136.864 15.313L132.733 23.5519L132.789 23.5799L132.845 23.6072L136.864 15.313ZM140.162 18.2807L132.205 22.9312L132.224 22.9648L132.244 22.9983L140.162 18.2807ZM139.843 27.2044L132.359 21.8253L132.35 21.8377L132.341 21.8502L139.843 27.2044ZM135.62 30.0669L132.901 21.2605L121.79 24.6911L127.667 34.7249L135.62 30.0669ZM141.538 40.1721L141.59 49.3886L157.565 49.2989L149.491 35.5141L141.538 40.1721ZM127.448 25.7256L118.231 25.7773L118.283 34.9938L127.499 34.9421L127.448 25.7256ZM133.232 24.9926L126.846 18.3463L126.846 18.3463L133.232 24.9926ZM133.173 21.0113L126.692 27.5649L126.856 27.7268L127.027 27.8804L133.173 21.0113ZM127.417 20.3063L127.366 11.0897L118.149 11.1415L118.201 20.358L127.417 20.3063ZM141.555 35.8023L136.34 26.2461L120.159 35.0764L125.374 44.6325L141.555 35.8023ZM128.198 21.4447L127.424 21.4491L127.527 39.8821L128.301 39.8778L128.198 21.4447ZM118.259 30.7174L118.313 40.3025L136.746 40.199L136.692 30.6138L118.259 30.7174ZM127.478 31.0343L120.252 31.0748L120.355 49.5078L127.581 49.4673L127.478 31.0343ZM129.52 40.2396L129.374 14.249L110.941 14.3526L111.087 40.3431L129.52 40.2396ZM120.209 23.5173L131.601 23.4533L131.497 5.02033L120.106 5.0843L120.209 23.5173ZM131.601 23.4533C132.638 23.4475 132.892 23.6318 132.733 23.5519L140.995 7.07409C137.928 5.53582 134.638 5.00269 131.497 5.02033L131.601 23.4533ZM132.845 23.6072C132.864 23.6164 132.765 23.5702 132.614 23.4344C132.458 23.2939 132.314 23.1178 132.205 22.9312L148.119 13.6302C146.365 10.6284 143.819 8.44147 140.883 7.01883L132.845 23.6072ZM132.244 22.9983C132.179 22.8887 132.128 22.7656 132.098 22.6526C132.069 22.5438 132.075 22.5044 132.075 22.5659L150.508 22.4623C150.491 19.3848 149.733 16.3387 148.08 13.5632L132.244 22.9983ZM132.075 22.5659C132.075 22.5877 132.073 22.4803 132.131 22.2945C132.19 22.1034 132.278 21.9383 132.359 21.8253L147.328 32.5834C149.509 29.5485 150.528 26.0582 150.508 22.4623L132.075 22.5659ZM132.341 21.8502C132.526 21.5912 132.737 21.4026 132.903 21.2899C133.056 21.1867 133.088 21.2026 132.901 21.2605L138.339 38.8733C141.75 37.8199 145.008 35.8333 147.345 32.5586L132.341 21.8502ZM127.667 34.7249L133.585 44.8301L149.491 35.5141L143.573 25.4088L127.667 34.7249ZM141.487 30.9556L133.413 31.0009L133.516 49.4339L141.59 49.3886L141.487 30.9556ZM127.499 34.9421L131.075 34.922L130.972 16.489L127.396 16.5091L127.499 34.9421ZM131.075 34.922C133.365 34.9091 136.791 34.3545 139.617 31.6389L126.846 18.3463C128.695 16.5701 130.649 16.4908 130.972 16.489L131.075 34.922ZM139.617 31.6389C142.439 28.9281 143.189 25.5116 143.174 22.9091L124.741 23.0126C124.737 22.1796 125.003 20.1176 126.846 18.3463L139.617 31.6389ZM143.174 22.9091C143.158 20.0373 142.164 16.6885 139.318 14.1422L127.027 27.8804C126.226 27.1635 125.602 26.2673 125.209 25.2899C124.83 24.3503 124.744 23.538 124.741 23.0126L143.174 22.9091ZM139.653 14.4576C136.847 11.6835 133.399 11.0559 130.942 11.0697L131.045 29.5027C130.504 29.5057 128.509 29.3615 126.692 27.5649L139.653 14.4576ZM130.942 11.0697L127.366 11.0897L127.469 29.5228L131.045 29.5027L130.942 11.0697ZM118.201 20.358L118.231 25.7773L136.664 25.6738L136.634 20.2545L118.201 20.358ZM151.789 19.9113L151.737 10.6948L142.521 10.7466L142.573 19.9631L151.789 19.9113ZM151.813 24.1509L142.596 24.2027L142.648 33.4192L151.865 33.3674L151.813 24.1509ZM160.108 24.1043L169.324 24.0526L169.273 14.8361L160.056 14.8878L160.108 24.1043ZM160.139 29.5974L160.19 38.8139L169.407 38.7621L169.355 29.5456L160.139 29.5974ZM151.844 29.6439L151.792 20.4274L142.576 20.4792L142.627 29.6957L151.844 29.6439ZM151.87 34.3259L142.654 34.3777L142.705 43.5942L151.922 43.5424L151.87 34.3259ZM161.271 34.2731L170.487 34.2214L170.436 25.0049L161.219 25.0566L161.271 34.2731ZM161.303 40.0611L161.355 49.2776L170.572 49.2258L170.52 40.0093L161.303 40.0611ZM144.677 40.1545L135.46 40.2062L135.512 49.4227L144.729 49.371L144.677 40.1545ZM144.531 14.1639L144.479 4.94743L135.263 4.99918L135.314 14.2157L144.531 14.1639ZM161.157 14.0706L170.374 14.0188L170.322 4.8023L161.106 4.85405L161.157 14.0706ZM161.19 19.8585L161.242 29.075L170.458 29.0233L170.406 19.8068L161.19 19.8585ZM142.573 19.9631L142.596 24.2027L161.029 24.0991L161.006 19.8596L142.573 19.9631ZM151.865 33.3674L160.16 33.3208L160.056 14.8878L151.761 14.9344L151.865 33.3674ZM150.891 24.1561L150.922 29.6491L169.355 29.5456L169.324 24.0526L150.891 24.1561ZM160.087 20.3809L151.792 20.4274L151.896 38.8604L160.19 38.8139L160.087 20.3809ZM142.627 29.6957L142.654 34.3777L161.087 34.2742L161.06 29.5922L142.627 29.6957ZM151.922 43.5424L161.323 43.4896L161.219 25.0566L151.818 25.1094L151.922 43.5424ZM152.054 34.3249L152.087 40.1128L170.52 40.0093L170.487 34.2214L152.054 34.3249ZM161.252 30.8446L144.625 30.938L144.729 49.371L161.355 49.2776L161.252 30.8446ZM153.893 40.1027L153.747 14.1122L135.314 14.2157L135.46 40.2062L153.893 40.1027ZM144.583 23.3804L161.209 23.2871L161.106 4.85405L144.479 4.94743L144.583 23.3804ZM151.941 14.1223L151.973 19.9103L170.406 19.8068L170.374 14.0188L151.941 14.1223ZM161.138 10.642L151.737 10.6948L151.841 29.1278L161.242 29.075L161.138 10.642Z" fill="#2E2C43" mask="url(#path-3-outside-2_32_1451)"/>
</svg>
