<svg width="16" height="16" viewBox="0 0 16 16" fill="none" xmlns="http://www.w3.org/2000/svg">
<path d="M10 6.66675C10.3956 6.66675 10.7822 6.54945 11.1111 6.32969C11.44 6.10993 11.6964 5.79757 11.8478 5.43212C11.9991 5.06666 12.0387 4.66453 11.9616 4.27657C11.8844 3.88861 11.6939 3.53224 11.4142 3.25254C11.1345 2.97283 10.7781 2.78235 10.3902 2.70518C10.0022 2.62801 9.60009 2.66761 9.23463 2.81899C8.86918 2.97037 8.55682 3.22671 8.33706 3.55561C8.1173 3.88451 8 4.27119 8 4.66675C8 5.19718 8.21071 5.70589 8.58579 6.08096C8.96086 6.45604 9.46957 6.66675 10 6.66675ZM10 4.00008C10.1319 4.00008 10.2607 4.03918 10.3704 4.11244C10.48 4.18569 10.5655 4.28981 10.6159 4.41163C10.6664 4.53344 10.6796 4.66749 10.6539 4.79681C10.6281 4.92613 10.5646 5.04492 10.4714 5.13815C10.3782 5.23139 10.2594 5.29488 10.1301 5.32061C10.0007 5.34633 9.8667 5.33313 9.74488 5.28267C9.62306 5.23221 9.51894 5.14676 9.44569 5.03713C9.37243 4.9275 9.33333 4.7986 9.33333 4.66675C9.33333 4.48994 9.40357 4.32037 9.52859 4.19534C9.65362 4.07032 9.82319 4.00008 10 4.00008Z" fill="#FB8C00"/>
<path d="M14.6667 0H1.33333C0.979711 0 0.640573 0.140476 0.390524 0.390524C0.140476 0.640573 0 0.979711 0 1.33333V14.6667C0 15.0203 0.140476 15.3594 0.390524 15.6095C0.640573 15.8595 0.979711 16 1.33333 16H14.6667C15.0203 16 15.3594 15.8595 15.6095 15.6095C15.8595 15.3594 16 15.0203 16 14.6667V1.33333C16 0.979711 15.8595 0.640573 15.6095 0.390524C15.3594 0.140476 15.0203 0 14.6667 0ZM14.6667 14.6667H1.33333V10.6667L4.66667 7.33333L8.39333 11.06C8.64315 11.3083 8.98109 11.4477 9.33333 11.4477C9.68558 11.4477 10.0235 11.3083 10.2733 11.06L11.3333 10L14.6667 13.3333V14.6667ZM14.6667 11.4467L12.2733 9.05333C12.0235 8.805 11.6856 8.66561 11.3333 8.66561C10.9811 8.66561 10.6432 8.805 10.3933 9.05333L9.33333 10.1133L5.60667 6.38667C5.35685 6.13833 5.01891 5.99894 4.66667 5.99894C4.31442 5.99894 3.97648 6.13833 3.72667 6.38667L1.33333 8.78V1.33333H14.6667V11.4467Z" fill="#FB8C00"/>
</svg>
