<svg width="25" height="35" viewBox="0 0 25 35" fill="none" xmlns="http://www.w3.org/2000/svg">
<path d="M18.1245 25.657L18.6018 27.1422L17.9227 30.1334L14.82 33.5313C17.9922 33.7232 21.1383 32.8569 23.7651 31.0682C23.7651 31.0682 24.9628 23.2832 17.7766 23.2832C15.865 24.5576 14.2278 25.4385 12.3869 25.4349H12.4618C10.6209 25.4385 8.98366 24.5576 7.07214 23.2832C-0.114053 23.2832 1.08365 31.0682 1.08365 31.0682C7.05896 34.6739 9.68791 33.2888 17.9227 30.1334L18.2922 28.0249L3.87907 28.8333L7.05896 28.2896" fill="#FB8C00"/>
<path d="M23.7563 31.0689C23.7563 31.0689 24.954 23.2838 17.7678 23.2838C15.8562 24.5582 14.2184 25.4385 12.3781 25.4349H12.453C10.6121 25.4385 8.97487 24.5582 7.06335 23.2838C-0.122842 23.2838 1.07486 31.0689 1.07486 31.0689" fill="#FB8C00"/>
<path d="M17.9364 23.2838C16.3805 24.4725 14.5304 25.2153 12.5845 25.4325C20.4066 25.6798 20.4066 28.6741 20.863 31.0694H23.9249C23.9249 31.0694 25.1226 23.2838 17.9364 23.2838Z" fill="#FB8C00"/>
<path d="M23.9252 31.0688C23.9252 31.0688 16.8851 36.474 11.5068 32.8432L17.9229 30.1334L18.602 27.1422C18.602 27.1422 23.9773 25.6666 23.9252 31.0688Z" fill="#FB8C00"/>
<path d="M12.4251 21.8901C16.1753 21.8901 19.2155 18.0902 19.2155 13.4026C19.2155 8.71514 16.1753 4.91516 12.4251 4.91516C8.67491 4.91516 5.63477 8.71514 5.63477 13.4026C5.63477 18.0902 8.67491 21.8901 12.4251 21.8901Z" fill="#FB8C00"/>
<path d="M20.3122 4.16492C12.4247 6.63038 5.63437 12.2608 5.63437 12.2608C5.63437 12.2608 3.26293 9.06291 4.29474 5.8369C4.29474 5.8369 5.63437 1 12.1013 1C16.7143 1 19.0456 2.89835 20.3122 4.16492C23.9933 9.38988 19.0336 12.3117 19.0336 12.3117C17.0233 10.7454 15.0936 9.0785 13.2517 7.31726" fill="white"/>
<path d="M20.3124 4.16492C23.9929 9.38988 19.0338 12.3117 19.0338 12.3117C17.0236 10.7454 15.0938 9.0785 13.252 7.31726" fill="#F9F9F9"/>
<path d="M12.4247 10.8074C12.1071 10.8074 11.8025 10.6812 11.5778 10.4566C11.3532 10.232 11.2271 9.92735 11.2271 9.6097V7.2143C11.2271 6.89665 11.3532 6.59201 11.5778 6.3674C11.8025 6.14279 12.1071 6.0166 12.4247 6.0166C12.7424 6.0166 13.047 6.14279 13.2716 6.3674C13.4963 6.59201 13.6224 6.89665 13.6224 7.2143V9.6097C13.6224 9.92735 13.4963 10.232 13.2716 10.4566C13.047 10.6812 12.7424 10.8074 12.4247 10.8074ZM17.9228 30.1334L15.2807 31.2299V28.089H18.2923L17.9228 30.1334Z" fill="#FCEA2B"/>
<path d="M14.8202 33.5313C17.9919 33.7235 21.1378 32.8576 23.7646 31.0695C23.7646 31.0695 24.9623 23.2844 17.7761 23.2844C15.8645 24.5588 14.2273 25.4391 12.3864 25.4355H12.4613C10.6204 25.4391 8.98317 24.5588 7.07165 23.2844C-0.114541 23.2844 1.08316 31.0695 1.08316 31.0695C7.05847 34.6745 9.68742 33.29 17.9222 30.1341L18.2917 28.0261L3.87858 28.8346" stroke="black" stroke-width="0.464646" stroke-linecap="round" stroke-linejoin="round"/>
<path d="M18.1247 25.6571L18.6019 27.1422L17.9229 30.1335" stroke="black" stroke-width="0.464646" stroke-linecap="round" stroke-linejoin="round"/>
<path d="M16.0177 12.5878C16.0177 12.8247 15.9475 13.0563 15.8159 13.2532C15.6843 13.4502 15.4972 13.6037 15.2784 13.6944C15.0595 13.785 14.8187 13.8087 14.5864 13.7625C14.354 13.7163 14.1406 13.6022 13.9731 13.4347C13.8056 13.2672 13.6916 13.0538 13.6454 12.8215C13.5991 12.5892 13.6229 12.3483 13.7135 12.1295C13.8042 11.9106 13.9577 11.7236 14.1546 11.592C14.3516 11.4604 14.5832 11.3901 14.82 11.3901C15.1377 11.3901 15.4423 11.5163 15.6669 11.7409C15.8915 11.9655 16.0177 12.2702 16.0177 12.5878ZM11.2269 12.5878C11.2269 12.8247 11.1567 13.0563 11.0251 13.2532C10.8935 13.4502 10.7064 13.6037 10.4876 13.6944C10.2687 13.785 10.0279 13.8087 9.79558 13.7625C9.56325 13.7163 9.34984 13.6022 9.18234 13.4347C9.01484 13.2672 8.90077 13.0538 8.85456 12.8215C8.80834 12.5892 8.83206 12.3483 8.92271 12.1295C9.01336 11.9106 9.16688 11.7236 9.36384 11.592C9.5608 11.4604 9.79236 11.3901 10.0292 11.3901C10.3469 11.3901 10.6515 11.5163 10.8761 11.7409C11.1008 11.9655 11.2269 12.2702 11.2269 12.5878ZM12.4246 18.5775C11.7056 18.5706 10.9982 18.3946 10.3598 18.0637C10.2177 17.9926 10.1097 17.868 10.0595 17.7173C10.0093 17.5666 10.021 17.4021 10.0921 17.2601C10.1632 17.118 10.2878 17.01 10.4385 16.9598C10.5892 16.9096 10.7537 16.9213 10.8958 16.9924C11.3654 17.2457 11.8907 17.3783 12.4243 17.3783C12.958 17.3783 13.4832 17.2457 13.9529 16.9924C14.095 16.9213 14.2596 16.9096 14.4104 16.9599C14.5612 17.0101 14.6858 17.1182 14.7569 17.2604C14.8279 17.4025 14.8396 17.5671 14.7894 17.7178C14.7391 17.8686 14.631 17.9932 14.4889 18.0643C13.8506 18.3949 13.1434 18.5707 12.4246 18.5775Z" fill="black"/>
<path d="M11.2281 8.38381C10.4616 8.84492 9.74897 9.30005 9.11419 9.72523C7.23979 10.9768 5.99418 11.9709 5.70075 12.2045C5.65883 12.2404 5.63488 12.2584 5.63488 12.2584C5.63488 12.2584 3.26343 9.06051 4.29345 5.8387C4.29345 5.8387 5.63487 1 12.1024 1C16.7136 1 19.0431 2.89835 20.3127 4.16791C23.6542 8.90481 19.8815 11.7434 19.1509 12.2344C19.073 12.2883 19.0311 12.3123 19.0311 12.3123C19.0311 12.3123 16.3902 10.2881 13.6235 7.67118" stroke="black" stroke-width="0.464646" stroke-linecap="round" stroke-linejoin="round"/>
<path d="M13.606 7.03047C15.7493 5.87297 17.9944 4.91478 20.3131 4.16797" stroke="black" stroke-width="0.464646" stroke-linecap="round" stroke-linejoin="round"/>
<path d="M15.281 28.2644V31.1078M5.6814 12.3135C5.64345 12.68 5.62446 13.0482 5.62451 13.4166C5.62451 18.1044 8.66487 21.9041 12.4149 21.9041C16.1649 21.9041 19.2046 18.1044 19.2046 13.4166C19.2049 13.0365 19.1849 12.6567 19.1447 12.2788M12.425 10.8074C12.1074 10.8074 11.8028 10.6812 11.5781 10.4566C11.3535 10.232 11.2273 9.92735 11.2273 9.6097V7.2143C11.2273 6.89665 11.3535 6.59201 11.5781 6.3674C11.8028 6.14279 12.1074 6.0166 12.425 6.0166C12.7427 6.0166 13.0473 6.14279 13.2719 6.3674C13.4966 6.59201 13.6227 6.89665 13.6227 7.2143V9.6097C13.6227 9.92735 13.4966 10.232 13.2719 10.4566C13.0473 10.6812 12.7427 10.8074 12.425 10.8074Z" stroke="black" stroke-width="0.464646" stroke-linecap="round" stroke-linejoin="round"/>
</svg>
