<svg width="37" height="52" viewBox="0 0 37 52" fill="none" xmlns="http://www.w3.org/2000/svg">
<path d="M27.0593 38.5215L27.7856 40.7815L26.7522 45.3335L22.0308 50.5041C26.858 50.7962 31.6455 49.4779 35.6428 46.756C35.6428 46.756 37.4654 34.9092 26.5299 34.9092C23.621 36.8484 21.1295 38.1889 18.3282 38.1835H18.4421C15.6408 38.1889 13.1493 36.8484 10.2405 34.9092C-0.695009 34.9092 1.12758 46.756 1.12758 46.756C10.2205 52.2429 14.221 50.135 26.7522 45.3335L27.3145 42.1248L5.38149 43.355L10.2205 42.5276" fill="#FB8C00"/>
<path d="M35.6291 46.757C35.6291 46.757 37.4517 34.9102 26.5162 34.9102C23.6073 36.8494 21.115 38.189 18.3146 38.1835H18.4285C15.6272 38.189 13.1357 36.8494 10.2268 34.9102C-0.708673 34.9102 1.11391 46.757 1.11391 46.757" fill="#FB8C00"/>
<path d="M26.7732 34.9102C24.4055 36.719 21.5901 37.8493 18.6289 38.1799C30.5322 38.5562 30.5322 43.1127 31.2266 46.7579H35.8861C35.8861 46.7579 37.7087 34.9102 26.7732 34.9102Z" fill="#FB8C00"/>
<path d="M35.8861 46.7568C35.8861 46.7568 25.173 54.9821 16.9886 49.457L26.7522 45.3334L27.7856 40.7815C27.7856 40.7815 35.9654 38.5361 35.8861 46.7568Z" fill="#FB8C00"/>
<path d="M18.3856 32.7895C24.0925 32.7895 28.7188 27.0069 28.7188 19.8738C28.7188 12.7406 24.0925 6.95801 18.3856 6.95801C12.6788 6.95801 8.05249 12.7406 8.05249 19.8738C8.05249 27.0069 12.6788 32.7895 18.3856 32.7895Z" fill="#FB8C00"/>
<path d="M30.3883 5.81618C18.3856 9.56797 8.05249 18.1359 8.05249 18.1359C8.05249 18.1359 4.44377 13.2696 6.01393 8.36051C6.01393 8.36051 8.05249 1 17.8935 1C24.9132 1 28.4609 3.8888 30.3883 5.81618C35.99 13.7672 28.4427 18.2134 28.4427 18.2134C25.3835 15.83 22.4469 13.2934 19.6441 10.6132" fill="white"/>
<path d="M30.3883 5.81616C35.9891 13.7672 28.4427 18.2134 28.4427 18.2134C25.3835 15.83 22.4469 13.2934 19.6441 10.6132" fill="#F9F9F9"/>
<path d="M18.3856 15.9244C17.9022 15.9244 17.4387 15.7324 17.0969 15.3906C16.7551 15.0487 16.563 14.5852 16.563 14.1018V10.4566C16.563 9.97324 16.7551 9.50966 17.0969 9.16786C17.4387 8.82606 17.9022 8.63403 18.3856 8.63403C18.869 8.63403 19.3326 8.82606 19.6744 9.16786C20.0162 9.50966 20.2082 9.97324 20.2082 10.4566V14.1018C20.2082 14.5852 20.0162 15.0487 19.6744 15.3906C19.3326 15.7324 18.869 15.9244 18.3856 15.9244ZM26.7522 45.3336L22.7316 47.0022V42.2224H27.3145L26.7522 45.3336Z" fill="#FCEA2B"/>
<path d="M22.0308 50.504C26.8574 50.7964 31.6446 49.4787 35.6419 46.7577C35.6419 46.7577 37.4644 34.9109 26.5289 34.9109C23.6201 36.8501 21.1286 38.1897 18.3273 38.1843H18.4412C15.6399 38.1897 13.1484 36.8501 10.2396 34.9109C-0.695917 34.9109 1.12667 46.7577 1.12667 46.7577C10.2195 52.2437 14.2201 50.1368 26.7513 45.3342L27.3136 42.1265L5.38058 43.3567" stroke="black" stroke-width="2" stroke-linecap="round" stroke-linejoin="round"/>
<path d="M27.0593 38.5215L27.7856 40.7815L26.7522 45.3334" stroke="black" stroke-width="2" stroke-linecap="round" stroke-linejoin="round"/>
<path d="M23.8534 18.6336C23.8534 18.9941 23.7465 19.3465 23.5462 19.6462C23.3459 19.9459 23.0613 20.1795 22.7283 20.3175C22.3952 20.4554 22.0288 20.4915 21.6752 20.4212C21.3217 20.3509 20.9969 20.1773 20.742 19.9224C20.4871 19.6675 20.3135 19.3427 20.2432 18.9892C20.1729 18.6356 20.209 18.2692 20.3469 17.9361C20.4849 17.6031 20.7185 17.3185 21.0182 17.1182C21.3179 16.9179 21.6703 16.811 22.0308 16.811C22.5142 16.811 22.9777 17.0031 23.3195 17.3449C23.6613 17.6867 23.8534 18.1502 23.8534 18.6336ZM16.563 18.6336C16.563 18.9941 16.4561 19.3465 16.2559 19.6462C16.0556 19.9459 15.771 20.1795 15.4379 20.3175C15.1049 20.4554 14.7384 20.4915 14.3849 20.4212C14.0313 20.3509 13.7066 20.1773 13.4517 19.9224C13.1968 19.6675 13.0232 19.3427 12.9529 18.9892C12.8826 18.6356 12.9187 18.2692 13.0566 17.9361C13.1945 17.6031 13.4282 17.3185 13.7279 17.1182C14.0276 16.9179 14.38 16.811 14.7404 16.811C15.2238 16.811 15.6874 17.0031 16.0292 17.3449C16.371 17.6867 16.563 18.1502 16.563 18.6336ZM18.3856 27.7484C17.2914 27.7379 16.215 27.47 15.2435 26.9665C15.0273 26.8583 14.8629 26.6687 14.7865 26.4394C14.7101 26.21 14.728 25.9597 14.8361 25.7435C14.9443 25.5273 15.1339 25.363 15.3632 25.2866C15.5926 25.2102 15.8429 25.228 16.0591 25.3362C16.7738 25.7217 17.5731 25.9235 18.3852 25.9235C19.1972 25.9235 19.9965 25.7217 20.7112 25.3362C20.9275 25.228 21.178 25.2102 21.4074 25.2867C21.6368 25.3632 21.8265 25.5277 21.9346 25.744C22.0428 25.9603 22.0606 26.2107 21.9841 26.4401C21.9076 26.6696 21.7432 26.8592 21.5268 26.9674C20.5555 27.4705 19.4795 27.738 18.3856 27.7484Z" fill="black"/>
<path d="M16.5649 12.2362C15.3984 12.9379 14.314 13.6305 13.348 14.2775C10.4957 16.1821 8.60018 17.6949 8.15364 18.0503C8.08985 18.105 8.0534 18.1323 8.0534 18.1323C8.0534 18.1323 4.44469 13.266 6.01211 8.36324C6.01211 8.36324 8.0534 1 17.8954 1C24.9123 1 28.4572 3.8888 30.3892 5.82074C35.4742 13.0291 29.733 17.3486 28.6213 18.0958C28.5028 18.1779 28.439 18.2143 28.439 18.2143C28.439 18.2143 24.4202 15.1341 20.21 11.1518" stroke="black" stroke-width="2" stroke-linecap="round" stroke-linejoin="round"/>
<path d="M20.1827 10.1768C23.4443 8.41537 26.8608 6.95725 30.3892 5.8208" stroke="black" stroke-width="2" stroke-linecap="round" stroke-linejoin="round"/>
<path d="M22.7316 42.4895V46.8163M8.12357 18.2163C8.06583 18.7739 8.03693 19.3342 8.037 19.8949C8.037 27.0285 12.6636 32.8106 18.3701 32.8106C24.0767 32.8106 28.7024 27.0285 28.7024 19.8949C28.7028 19.3165 28.6724 18.7385 28.6112 18.1634M18.3856 15.9244C17.9023 15.9244 17.4387 15.7324 17.0969 15.3906C16.7551 15.0487 16.5631 14.5852 16.5631 14.1018V10.4566C16.5631 9.97324 16.7551 9.50966 17.0969 9.16786C17.4387 8.82606 17.9023 8.63403 18.3856 8.63403C18.869 8.63403 19.3326 8.82606 19.6744 9.16786C20.0162 9.50966 20.2082 9.97324 20.2082 10.4566V14.1018C20.2082 14.5852 20.0162 15.0487 19.6744 15.3906C19.3326 15.7324 18.869 15.9244 18.3856 15.9244Z" stroke="black" stroke-width="2" stroke-linecap="round" stroke-linejoin="round"/>
</svg>
