<svg width="100" height="144" viewBox="0 0 100 144" fill="none" xmlns="http://www.w3.org/2000/svg">
<path d="M74.712 107.131L76.7663 113.524L73.8433 126.399L60.4887 141.024C74.1424 141.85 87.6842 138.122 98.9906 130.423C98.9906 130.423 104.146 96.9136 73.2144 96.9136C64.9866 102.399 57.9394 106.19 50.0159 106.175H50.3381C42.4145 106.19 35.3673 102.399 27.1395 96.9136C-3.79189 96.9136 1.36334 130.423 1.36334 130.423C27.0828 145.942 38.3985 139.98 73.8433 126.399L75.4337 117.323L13.3956 120.803L27.0828 118.462" fill="#FB8C00"/>
<path d="M98.9494 130.425C98.9494 130.425 104.105 96.9155 73.1732 96.9155C64.9455 102.401 57.8957 106.19 49.9747 106.174H50.2969C42.3733 106.19 35.3261 102.401 27.0984 96.9155C-3.83303 96.9155 1.3222 130.425 1.3222 130.425" fill="#FB8C00"/>
<path d="M73.9016 96.9155C67.2046 102.032 59.2413 105.229 50.8655 106.164C84.5343 107.229 84.5343 120.117 86.4984 130.427H99.6778C99.6778 130.427 104.833 96.9155 73.9016 96.9155Z" fill="#FB8C00"/>
<path d="M99.6728 130.423C99.6728 130.423 69.3704 153.689 46.2208 138.061L73.8374 126.397L76.7604 113.522C76.7604 113.522 99.8971 107.171 99.6728 130.423Z" fill="#FB8C00"/>
<path d="M50.1749 90.9176C66.3168 90.9176 79.4024 74.5615 79.4024 54.3851C79.4024 34.2087 66.3168 17.8525 50.1749 17.8525C34.0329 17.8525 20.9473 34.2087 20.9473 54.3851C20.9473 74.5615 34.0329 90.9176 50.1749 90.9176Z" fill="#FB8C00"/>
<path d="M84.1286 14.6227C50.1788 25.2347 20.9512 49.4695 20.9512 49.4695C20.9512 49.4695 10.7439 35.705 15.1851 21.8194C15.1851 21.8194 20.9512 1 48.7869 1C68.6423 1 78.6769 9.17104 84.1286 14.6227C99.9732 37.1124 78.6254 49.6886 78.6254 49.6886C69.9725 42.9471 61.6663 35.7722 53.7385 28.1913" fill="white"/>
<path d="M84.128 14.623C99.97 37.1127 78.6248 49.6889 78.6248 49.6889C69.9719 42.9475 61.6657 35.7725 53.7379 28.1916" fill="#F9F9F9"/>
<path d="M50.1784 43.2147C48.8112 43.2147 47.4999 42.6715 46.5331 41.7047C45.5663 40.738 45.0232 39.4267 45.0232 38.0594V27.749C45.0232 26.3817 45.5663 25.0705 46.5331 24.1037C47.4999 23.1369 48.8112 22.5938 50.1784 22.5938C51.5457 22.5938 52.8569 23.1369 53.8237 24.1037C54.7905 25.0705 55.3337 26.3817 55.3337 27.749V38.0594C55.3337 39.4267 54.7905 40.738 53.8237 41.7047C52.8569 42.6715 51.5457 43.2147 50.1784 43.2147ZM73.8435 126.399L62.4711 131.119V117.6H75.4339L73.8435 126.399Z" fill="#FCEA2B"/>
<path d="M60.4847 141.026C74.137 141.852 87.6777 138.126 98.984 130.429C98.984 130.429 104.139 96.9199 73.2078 96.9199C64.98 102.405 57.9328 106.194 50.0092 106.179H50.3315C42.4079 106.194 35.3607 102.405 27.1329 96.9199C-3.79848 96.9199 1.35675 130.429 1.35675 130.429C27.0762 145.946 38.3919 139.987 73.8367 126.403L75.4271 117.329L13.3891 120.809" stroke="black" stroke-width="1.00097" stroke-linecap="round" stroke-linejoin="round"/>
<path d="M74.7056 107.131L76.7599 113.524L73.8369 126.399" stroke="black" stroke-width="1.00097" stroke-linecap="round" stroke-linejoin="round"/>
<path d="M65.6416 50.8769C65.6416 51.8965 65.3392 52.8932 64.7728 53.741C64.2063 54.5888 63.4012 55.2495 62.4592 55.6397C61.5172 56.0299 60.4806 56.132 59.4806 55.9331C58.4806 55.7342 57.562 55.2432 56.8411 54.5222C56.1201 53.8012 55.6291 52.8827 55.4302 51.8826C55.2313 50.8826 55.3334 49.8461 55.7236 48.9041C56.1137 47.9621 56.7745 47.157 57.6223 46.5905C58.47 46.024 59.4668 45.7217 60.4864 45.7217C61.8536 45.7217 63.1649 46.2648 64.1317 47.2316C65.0985 48.1984 65.6416 49.5097 65.6416 50.8769ZM45.0207 50.8769C45.0207 51.8965 44.7183 52.8932 44.1519 53.741C43.5854 54.5888 42.7803 55.2495 41.8383 55.6397C40.8963 56.0299 39.8597 56.132 38.8597 55.9331C37.8597 55.7342 36.9411 55.2432 36.2201 54.5222C35.4992 53.8012 35.0082 52.8827 34.8093 51.8826C34.6103 50.8826 34.7124 49.8461 35.1026 48.9041C35.4928 47.9621 36.1536 47.157 37.0013 46.5905C37.8491 46.024 38.8458 45.7217 39.8654 45.7217C41.2327 45.7217 42.5439 46.2648 43.5107 47.2316C44.4775 48.1984 45.0207 49.5097 45.0207 50.8769ZM50.1759 76.6582C47.0809 76.6285 44.0363 75.8709 41.2883 74.4466C40.6768 74.1407 40.2118 73.6044 39.9958 72.9557C39.7797 72.307 39.8302 71.599 40.1361 70.9875C40.442 70.376 40.9783 69.911 41.627 69.695C42.2758 69.4789 42.9837 69.5293 43.5953 69.8353C45.6168 70.9256 47.8777 71.4965 50.1746 71.4965C52.4715 71.4965 54.7324 70.9256 56.754 69.8353C57.3658 69.5293 58.0741 69.479 58.7231 69.6953C59.3721 69.9116 59.9085 70.3769 60.2144 70.9888C60.5203 71.6006 60.5707 72.3089 60.3544 72.9579C60.138 73.6068 59.6728 74.1433 59.0609 74.4492C56.3135 75.8722 53.2698 76.6289 50.1759 76.6582Z" fill="#6B4B46"/>
<path d="M45.0305 32.782C41.7311 34.7668 38.6637 36.7257 35.9315 38.5559C27.8635 43.9431 22.5021 48.2219 21.2391 49.2272C21.0586 49.3818 20.9555 49.4592 20.9555 49.4592C20.9555 49.4592 10.7482 35.6947 15.1817 21.8271C15.1817 21.8271 20.9555 1 48.7938 1C68.6414 1 78.6683 9.17104 84.1329 14.6356C98.516 35.0245 82.277 47.2424 79.1323 49.3561C78.7972 49.5881 78.6168 49.6912 78.6168 49.6912C78.6168 49.6912 67.2495 40.9788 55.3409 29.7146" stroke="black" stroke-width="1.00097" stroke-linecap="round" stroke-linejoin="round"/>
<path d="M55.2573 26.9577C64.4829 21.9755 74.1466 17.8512 84.1266 14.6367" stroke="black" stroke-width="1.00097" stroke-linecap="round" stroke-linejoin="round"/>
<path d="M62.4655 118.355V130.593M21.1464 49.6974C20.983 51.2748 20.9013 52.8595 20.9015 54.4453C20.9015 74.6229 33.988 90.9779 50.1291 90.9779C66.2701 90.9779 79.3541 74.6229 79.3541 54.4453C79.3554 52.8094 79.2694 51.1746 79.0963 49.5479M50.1729 43.2147C48.8056 43.2147 47.4944 42.6715 46.5276 41.7047C45.5608 40.738 45.0177 39.4267 45.0177 38.0594V27.749C45.0177 26.3817 45.5608 25.0705 46.5276 24.1037C47.4944 23.1369 48.8056 22.5938 50.1729 22.5938C51.5401 22.5938 52.8514 23.1369 53.8182 24.1037C54.785 25.0705 55.3281 26.3817 55.3281 27.749V38.0594C55.3281 39.4267 54.785 40.738 53.8182 41.7047C52.8514 42.6715 51.5401 43.2147 50.1729 43.2147Z" stroke="black" stroke-width="1.00097" stroke-linecap="round" stroke-linejoin="round"/>
</svg>
