<svg width="93" height="50" viewBox="0 0 93 50" fill="none" xmlns="http://www.w3.org/2000/svg">
<rect width="93" height="48.9474" rx="3.8516" fill="#FB8C00"/>
<path d="M11.6548 31.3234C11.9506 29.6143 12.5751 28.0942 13.5282 26.7631C14.4978 25.4155 15.6892 24.372 17.1025 23.6325C18.5158 22.8765 20.0194 22.4986 21.6135 22.4986C23.4705 22.4986 24.9906 22.9669 26.1738 23.9036C27.3734 24.8239 28.1458 26.1057 28.4909 27.7491H27.2091C26.9297 26.4508 26.2806 25.4155 25.2617 24.6431C24.2593 23.8708 22.9857 23.4846 21.4409 23.4846C20.077 23.4846 18.7869 23.805 17.5709 24.4459C16.3548 25.0868 15.3195 25.9989 14.4649 27.1821C13.6268 28.3653 13.0681 29.7457 12.7887 31.3234C12.6901 31.915 12.6408 32.4901 12.6408 33.0489C12.6408 34.2978 12.8955 35.3824 13.405 36.3027C13.9144 37.2065 14.6211 37.905 15.5249 38.398C16.4452 38.891 17.4969 39.1375 18.6801 39.1375C19.9948 39.1375 21.2355 38.8417 22.4023 38.2501C23.5855 37.6585 24.588 36.8204 25.4096 35.7357C26.2477 34.6347 26.8311 33.3447 27.1598 31.8657H19.4443L19.6168 30.9536H28.4663L28.3184 31.6931C27.9897 33.3036 27.3488 34.7497 26.3956 36.0315C25.4589 37.2969 24.3004 38.2994 22.92 39.0389C21.5395 39.7619 20.0687 40.1235 18.5076 40.1235C17.1107 40.1235 15.8782 39.8359 14.81 39.2607C13.7583 38.6855 12.9366 37.8721 12.345 36.8204C11.7698 35.7522 11.4823 34.5279 11.4823 33.1475C11.4823 32.523 11.5398 31.915 11.6548 31.3234ZM38.4276 26.3933C39.5615 26.3933 40.5229 26.6152 41.3117 27.0589C42.117 27.4861 42.7168 28.0695 43.1112 28.809C43.522 29.5321 43.7274 30.3456 43.7274 31.2494C43.7274 31.6438 43.6946 32.0053 43.6288 32.334C43.5302 32.9256 43.4316 33.3693 43.333 33.6651H31.7721C31.7063 34.191 31.6735 34.569 31.6735 34.799C31.6735 36.2123 32.1007 37.2969 32.9553 38.0529C33.8098 38.8088 34.8862 39.1868 36.1845 39.1868C37.4827 39.1868 38.6331 38.8663 39.6355 38.2254C40.6544 37.5681 41.3774 36.6807 41.8047 35.5632H42.9633C42.4374 36.9272 41.5582 38.0364 40.3257 38.891C39.1096 39.7291 37.6717 40.1481 36.0119 40.1481C34.3686 40.1481 33.0457 39.6716 32.0432 38.7184C31.0572 37.7653 30.5642 36.467 30.5642 34.8237C30.5642 34.3142 30.6135 33.7884 30.7121 33.2461C30.9586 31.8492 31.4516 30.6331 32.1911 29.5978C32.9306 28.5625 33.8345 27.7737 34.9027 27.2314C35.9873 26.6727 37.1623 26.3933 38.4276 26.3933ZM42.4456 32.8024C42.5607 32.3258 42.6182 31.841 42.6182 31.348C42.6182 30.0498 42.1991 29.0555 41.361 28.3653C40.5393 27.6751 39.4958 27.33 38.2304 27.33C37.2937 27.33 36.3899 27.5354 35.5189 27.9463C34.6479 28.3571 33.892 28.9734 33.2511 29.795C32.6102 30.6167 32.1665 31.6192 31.92 32.8024H42.4456ZM54.0805 26.2947C55.4445 26.2947 56.5373 26.6645 57.359 27.404C58.1807 28.127 58.5915 29.2034 58.5915 30.6331C58.5915 31.0768 58.5422 31.5699 58.4436 32.1122L57.0632 39.9509H55.9786L57.359 32.1861C57.4412 31.6602 57.4823 31.2248 57.4823 30.8796C57.4823 29.6964 57.1536 28.8008 56.4962 28.1928C55.8389 27.5683 54.9186 27.2561 53.7354 27.2561C52.355 27.2561 51.1636 27.6833 50.1611 28.5379C49.1587 29.3924 48.4685 30.6496 48.0905 32.3094L46.7348 39.9509H45.6255L48.0166 26.5659H49.1258L48.6328 29.376C49.1916 28.3735 49.9475 27.6094 50.9006 27.0835C51.8702 26.5576 52.9302 26.2947 54.0805 26.2947ZM64.4348 23.5832C64.2047 23.5832 64.0157 23.5174 63.8678 23.386C63.7199 23.2381 63.646 23.0491 63.646 22.819C63.646 22.4904 63.761 22.2192 63.9911 22.0056C64.2211 21.7755 64.4841 21.6605 64.7799 21.6605C65.0099 21.6605 65.1989 21.7344 65.3468 21.8823C65.5112 22.0302 65.5933 22.2192 65.5933 22.4493C65.5933 22.7779 65.4701 23.0491 65.2236 23.2627C64.9935 23.4764 64.7306 23.5832 64.4348 23.5832ZM64.4841 26.5659L62.093 39.9509H60.9837L63.3748 26.5659H64.4841ZM74.3678 26.3933C75.5018 26.3933 76.4631 26.6152 77.2519 27.0589C78.0572 27.4861 78.657 28.0695 79.0514 28.809C79.4622 29.5321 79.6676 30.3456 79.6676 31.2494C79.6676 31.6438 79.6348 32.0053 79.569 32.334C79.4704 32.9256 79.3718 33.3693 79.2732 33.6651H67.7123C67.6466 34.191 67.6137 34.569 67.6137 34.799C67.6137 36.2123 68.041 37.2969 68.8955 38.0529C69.75 38.8088 70.8264 39.1868 72.1247 39.1868C73.4229 39.1868 74.5733 38.8663 75.5757 38.2254C76.5946 37.5681 77.3177 36.6807 77.7449 35.5632H78.9035C78.3776 36.9272 77.4984 38.0364 76.2659 38.891C75.0498 39.7291 73.6119 40.1481 71.9521 40.1481C70.3088 40.1481 68.9859 39.6716 67.9834 38.7184C66.9974 37.7653 66.5044 36.467 66.5044 34.8237C66.5044 34.3142 66.5537 33.7884 66.6523 33.2461C66.8988 31.8492 67.3918 30.6331 68.1313 29.5978C68.8708 28.5625 69.7747 27.7737 70.8429 27.2314C71.9275 26.6727 73.1025 26.3933 74.3678 26.3933ZM78.3858 32.8024C78.5009 32.3258 78.5584 31.841 78.5584 31.348C78.5584 30.0498 78.1393 29.0555 77.3012 28.3653C76.4795 27.6751 75.436 27.33 74.1706 27.33C73.2339 27.33 72.3301 27.5354 71.4591 27.9463C70.5881 28.3571 69.8322 28.9734 69.1913 29.795C68.5504 30.6167 68.1067 31.6192 67.8602 32.8024H78.3858Z" fill="white"/>
<path fill-rule="evenodd" clip-rule="evenodd" d="M16.187 8.34894C15.6783 8.3949 15.4591 8.46581 14.5878 8.86729C14.0538 9.11331 13.0024 10.065 13.0024 10.3023C13.0024 10.3991 12.9439 10.4784 12.8724 10.4784C12.8009 10.4784 12.7424 10.589 12.7424 10.7241C12.7424 10.8593 12.69 10.9699 12.6261 10.9699C12.4949 10.9699 12.3393 11.7656 12.3257 12.506C12.3137 13.1589 12.4884 14.0421 12.6296 14.0421C12.6916 14.0421 12.7424 14.1527 12.7424 14.2879C12.7424 14.4231 12.8009 14.5337 12.8724 14.5337C12.9439 14.5337 13.0024 14.6034 13.0024 14.6885C13.0024 14.9015 14.0299 15.8855 14.2522 15.8855C14.3512 15.8855 14.4322 15.9368 14.4322 15.9995C14.4322 16.0623 14.7603 16.2297 15.1612 16.3715C16.2912 16.7711 19.0367 16.6874 19.5602 16.2374C19.6282 16.1791 19.7639 16.1313 19.8619 16.1313C20.099 16.1313 20.4116 15.8262 20.4116 15.5948C20.4116 15.3407 18.9711 12.6904 18.8329 12.6904C18.7718 12.6904 18.7218 12.7457 18.7218 12.8132C18.7218 12.8854 18.2715 12.9361 17.6308 12.9361C16.489 12.9361 16.382 12.8834 16.382 12.3214C16.382 12.0168 16.9718 11.9051 18.0206 12.0113C18.8867 12.099 19.2417 11.9625 19.2417 11.542C19.2417 11.4413 19.2855 11.3407 19.3392 11.3181C19.4939 11.2531 20.4116 9.4923 20.4116 9.26053C20.4116 9.05395 19.6162 8.63503 19.224 8.63503C19.1194 8.63503 18.9781 8.58624 18.9103 8.52652C18.766 8.39982 16.9424 8.28086 16.187 8.34894ZM30.3695 8.58366C30.2292 8.92935 30.2806 16.1297 30.4251 16.3851C30.5472 16.6006 30.7111 16.6228 32.1799 16.6228H33.8002V12.506V8.38925H32.1243C30.716 8.38925 30.4358 8.42034 30.3695 8.58366ZM38.3993 8.67324C38.2477 8.8212 37.9593 9.05285 37.7583 9.18803C37.5574 9.3232 37.2719 9.54588 37.124 9.6829C36.9759 9.81992 36.6491 10.0514 36.3977 10.1974C36.1463 10.3436 35.7998 10.6047 35.6277 10.778C35.4556 10.9511 35.2659 11.0928 35.2063 11.0928C35.0395 11.0928 34.3202 11.7771 34.3202 11.9356C34.3202 12.02 34.5534 12.0759 34.9051 12.0759H35.49V13.2332C35.49 14.4682 35.7612 15.3512 36.2635 15.7518C36.398 15.8591 36.6153 16.0307 36.7465 16.1331C37.4337 16.6696 39.1006 16.7656 40.0721 16.3246L40.5595 16.1032V14.8956C40.5595 14.223 40.5019 13.6543 40.4295 13.612C40.358 13.5702 40.2995 13.5882 40.2995 13.6518C40.2995 13.7967 39.7068 13.9104 39.3766 13.8288C39.1641 13.7762 39.1297 13.6496 39.1297 12.9218V12.0759H39.6886C39.996 12.0759 40.3177 12.0096 40.4035 11.9284C40.4908 11.846 40.5595 11.4505 40.5595 11.0314C40.5595 10.6122 40.4908 10.2167 40.4035 10.1343C40.3177 10.0532 39.996 9.9868 39.6886 9.9868H39.1297V9.18803C39.1297 8.50636 39.0963 8.39035 38.9022 8.39674C38.777 8.40092 38.5507 8.52529 38.3993 8.67324ZM57.7178 10.2272V12.0651L58.6602 12.1012L59.6026 12.1374L59.6253 14.165C59.6379 15.2802 59.6525 16.291 59.6578 16.4111C59.6668 16.6115 59.8209 16.6267 61.5199 16.5954L63.3722 16.5614L63.4077 14.3186L63.443 12.0759H64.4151H65.387V10.2326V8.38925H61.5524H57.7178V10.2272ZM21.1404 10.1812C20.9815 10.5729 21.0541 15.0163 21.224 15.2956C21.4789 15.7145 22.1311 16.3007 22.53 16.4692C23.3464 16.8141 24.6319 16.5762 25.2536 15.9651C25.593 15.6315 25.6111 15.6272 25.6111 15.8806C25.6111 16.0273 25.6716 16.2544 25.7456 16.3851C25.8671 16.5997 26.0308 16.6228 27.4309 16.6228C28.831 16.6228 28.9946 16.5997 29.1162 16.3851C29.198 16.2405 29.2507 15.01 29.2507 13.2426C29.2507 10.8891 29.2155 10.3046 29.0649 10.1624C28.9246 10.0297 28.4972 9.9868 27.3126 9.9868C25.4477 9.9868 25.6226 9.74508 25.5775 12.3831L25.5461 14.2265L25.1048 14.2663C24.8393 14.2903 24.6199 14.2413 24.5543 14.1434C24.4942 14.0539 24.4443 13.1484 24.4431 12.1312C24.4418 10.8588 24.3926 10.2358 24.2852 10.1343C24.1825 10.0372 23.6325 9.9868 22.6743 9.9868C21.4675 9.9868 21.2058 10.02 21.1404 10.1812ZM41.353 10.1557C41.1773 10.3558 41.2186 14.5761 41.4022 15.1988C41.8386 16.678 44.3073 17.1238 45.551 15.9481C45.7304 15.7784 45.9091 15.6397 45.9481 15.6397C45.9871 15.6397 46.019 15.8609 46.019 16.1313V16.6228H47.5031C48.3195 16.6228 49.0799 16.5893 49.193 16.5482C49.373 16.483 49.3986 16.0874 49.3986 13.3777C49.3986 11.1336 49.3557 10.2412 49.2426 10.1343C49.0275 9.93089 46.1301 9.93089 45.915 10.1343C45.8064 10.2369 45.759 10.8908 45.759 12.2848V14.2879H45.3598C44.6527 14.2879 44.5994 14.135 44.56 11.9957L44.5241 10.0482L43.016 10.0138C41.8308 9.98668 41.4746 10.017 41.353 10.1557ZM50.7288 10.0894C50.6012 10.166 50.5719 10.9075 50.5988 13.3749L50.6335 16.5614H52.3233H54.0131L54.095 14.9024C54.1401 13.9899 54.2201 13.1189 54.2727 12.9669C54.3913 12.6242 54.7388 12.6094 54.988 12.9361C55.1382 13.1331 55.3246 13.1819 55.9267 13.1819C56.3408 13.1819 56.6779 13.1267 56.6779 13.059C56.6779 12.9914 56.7441 12.9361 56.8251 12.9361C57.0705 12.9361 57.4472 12.4382 57.5345 11.9986C57.7055 11.1368 57.4224 10.5844 56.5822 10.1404C55.9703 9.81722 54.99 10.0632 54.4885 10.666C54.2188 10.9902 54.0781 10.9484 54.0781 10.5439C54.0781 10.0616 53.8419 9.98668 52.3298 9.98865C51.5397 9.98975 50.8194 10.0351 50.7288 10.0894ZM67.7917 10.1097C67.6487 10.1678 67.3855 10.2198 67.2068 10.2252C67.028 10.2306 66.6186 10.3595 66.2969 10.5115L65.7119 10.7879L65.674 11.7391C65.653 12.2623 65.6823 12.6895 65.739 12.6885C65.7956 12.6875 66.0759 12.6069 66.3619 12.5096C67.1377 12.2453 68.4127 12.2655 68.6815 12.5465C68.7998 12.6701 68.8966 12.8083 68.8966 12.8537C68.8966 12.899 68.5212 12.9361 68.0625 12.9361C67.0954 12.9361 66.1892 13.25 65.8866 13.6897C65.7765 13.8497 65.6157 14.1844 65.5294 14.4335C65.3036 15.0847 65.721 15.9872 66.4196 16.3584C66.9942 16.6637 68.0044 16.707 68.5001 16.4473C68.77 16.306 68.8616 16.3074 69.1012 16.4558C69.3149 16.5882 69.7609 16.6224 70.9276 16.5961L72.4712 16.5614L72.5068 14.354C72.547 11.8606 72.4537 11.4536 71.6892 10.7916C71.4464 10.5815 70.9211 10.3143 70.5219 10.1981C69.763 9.9771 68.2395 9.92782 67.7917 10.1097ZM73.7321 10.1343C73.6175 10.2427 73.5761 11.2982 73.5761 14.1181C73.5761 16.2281 73.6116 18.0419 73.655 18.1488C73.7213 18.3122 74.0016 18.3433 75.4098 18.3433H77.0858V17.347C77.0858 16.4449 77.1072 16.3595 77.3132 16.4434C77.4383 16.4943 77.8917 16.5604 78.3206 16.5901C79.6406 16.6818 80.9398 15.9366 81.4501 14.7952C81.8123 13.9847 81.6662 11.8316 81.2114 11.2771C80.7882 10.7614 80.5786 10.5967 79.9822 10.3114C79.1679 9.92155 78.4444 9.89488 77.7159 10.2277C77.1923 10.4668 77.1882 10.4668 77.122 10.2277C77.0605 10.0051 76.9352 9.9868 75.4717 9.9868C74.4134 9.9868 73.8363 10.0357 73.7321 10.1343ZM78.0699 12.866C78.1721 12.9624 78.2556 13.2666 78.2556 13.5419V14.0421H77.6707H77.0858V13.5454C77.0858 12.7903 77.6083 12.4295 78.0699 12.866ZM68.8715 14.6259C68.9114 15.1467 68.9102 15.1481 68.4632 15.1481C68.0879 15.1481 68.001 15.0957 67.9294 14.8262C67.8272 14.441 68.1736 14.0371 68.5716 14.0773C68.7791 14.0983 68.8397 14.209 68.8715 14.6259Z" fill="white"/>
</svg>
