<svg width="101" height="144" viewBox="0 0 101 144" fill="none" xmlns="http://www.w3.org/2000/svg">
<path d="M74.7107 107.132L76.7651 113.525L73.842 126.4L60.4872 141.026C74.1411 141.852 87.6831 138.123 98.9896 130.424C98.9896 130.424 104.145 96.9146 73.2131 96.9146C64.9852 102.4 57.9379 106.192 50.0142 106.176H50.3364C42.4126 106.192 35.3653 102.4 27.1375 96.9146C-3.79441 96.9146 1.3609 130.424 1.3609 130.424C27.0807 145.944 38.3967 139.982 73.842 126.4L75.4324 117.324L13.3934 120.804L27.0807 118.464" fill="#FB8C00"/>
<path d="M98.9509 130.427C98.9509 130.427 104.106 96.9172 73.1743 96.9172C64.9465 102.402 57.8966 106.192 49.9754 106.176H50.2977C42.3739 106.192 35.3266 102.402 27.0988 96.9172C-3.8331 96.9172 1.32221 130.427 1.32221 130.427" fill="#FB8C00"/>
<path d="M73.9013 96.9172C67.2041 102.034 59.2406 105.231 50.8647 106.166C84.5341 107.23 84.5341 120.119 86.4983 130.429H99.6778C99.6778 130.429 104.833 96.9172 73.9013 96.9172Z" fill="#FB8C00"/>
<path d="M99.6779 130.427C99.6779 130.427 69.375 153.693 46.225 138.064L73.842 126.4L76.7651 113.525C76.7651 113.525 99.9021 107.174 99.6779 130.427Z" fill="#FB8C00"/>
<path d="M50.1765 90.919C66.3187 90.919 79.4046 74.5626 79.4046 54.3859C79.4046 34.2092 66.3187 17.8528 50.1765 17.8528C34.0343 17.8528 20.9485 34.2092 20.9485 54.3859C20.9485 74.5626 34.0343 90.919 50.1765 90.919Z" fill="#FB8C00"/>
<path d="M84.1268 14.6229C50.1765 25.2351 20.9485 49.4702 20.9485 49.4702C20.9485 49.4702 10.741 35.7056 15.1823 21.8197C15.1823 21.8197 20.9485 1 48.7846 1C68.6403 1 78.6751 9.17117 84.1268 14.6229C99.9716 37.113 78.6235 49.6893 78.6235 49.6893C69.9705 42.9478 61.6641 35.7727 53.7362 28.1917" fill="white"/>
<path d="M84.1268 14.623C99.9691 37.1131 78.6235 49.6895 78.6235 49.6895C69.9705 42.9479 61.6642 35.7728 53.7363 28.1918" fill="#F9F9F9"/>
<path d="M50.1765 43.2143C48.8092 43.2143 47.4979 42.6711 46.5311 41.7043C45.5643 40.7375 45.0212 39.4262 45.0212 38.0589V27.7483C45.0212 26.3811 45.5643 25.0698 46.5311 24.103C47.4979 23.1362 48.8092 22.593 50.1765 22.593C51.5438 22.593 52.855 23.1362 53.8218 24.103C54.7886 25.0698 55.3318 26.3811 55.3318 27.7483V38.0589C55.3318 39.4262 54.7886 40.7375 53.8218 41.7043C52.855 42.6711 51.5438 43.2143 50.1765 43.2143ZM73.8419 126.4L62.4693 131.12V117.6H75.4323L73.8419 126.4Z" fill="#FCEA2B"/>
<path d="M60.4871 141.026C74.1396 141.853 87.6806 138.126 98.987 130.429C98.987 130.429 104.142 96.9197 73.2104 96.9197C64.9825 102.405 57.9352 106.194 50.0115 106.179H50.3337C42.41 106.194 35.3627 102.405 27.1348 96.9197C-3.79703 96.9197 1.35828 130.429 1.35828 130.429C27.0781 145.947 38.394 139.987 73.8394 126.403L75.4298 117.33L13.3908 120.809" stroke="black" stroke-width="2" stroke-linecap="round" stroke-linejoin="round"/>
<path d="M74.7106 107.133L76.765 113.525L73.8419 126.401" stroke="black" stroke-width="2" stroke-linecap="round" stroke-linejoin="round"/>
<path d="M65.6424 50.8777C65.6424 51.8973 65.3401 52.8941 64.7736 53.7419C64.2071 54.5896 63.402 55.2504 62.46 55.6406C61.518 56.0308 60.4814 56.1329 59.4814 55.934C58.4813 55.7351 57.5628 55.2441 56.8418 54.5231C56.1208 53.8021 55.6298 52.8835 55.4309 51.8835C55.232 50.8834 55.3341 49.8469 55.7242 48.9049C56.1144 47.9629 56.7752 47.1577 57.623 46.5912C58.4708 46.0248 59.4675 45.7224 60.4871 45.7224C61.8544 45.7224 63.1657 46.2656 64.1325 47.2324C65.0993 48.1992 65.6424 49.5104 65.6424 50.8777ZM45.0212 50.8777C45.0212 51.8973 44.7188 52.8941 44.1524 53.7419C43.5859 54.5896 42.7807 55.2504 41.8387 55.6406C40.8967 56.0308 39.8602 56.1329 38.8601 55.934C37.8601 55.7351 36.9415 55.2441 36.2205 54.5231C35.4995 53.8021 35.0086 52.8835 34.8096 51.8835C34.6107 50.8834 34.7128 49.8469 35.103 48.9049C35.4932 47.9629 36.154 47.1577 37.0018 46.5912C37.8495 46.0248 38.8463 45.7224 39.8659 45.7224C41.2332 45.7224 42.5444 46.2656 43.5112 47.2324C44.478 48.1992 45.0212 49.5104 45.0212 50.8777ZM50.1765 76.6594C47.0814 76.6297 44.0368 75.8721 41.2888 74.4478C40.6772 74.1419 40.2123 73.6056 39.9962 72.9568C39.7801 72.3081 39.8306 71.6001 40.1365 70.9886C40.4425 70.3771 40.9788 69.9121 41.6275 69.6961C42.2762 69.48 42.9842 69.5304 43.5958 69.8364C45.6174 70.9267 47.8783 71.4976 50.1752 71.4976C52.4721 71.4976 54.7331 70.9267 56.7547 69.8364C57.3665 69.5304 58.0749 69.4801 58.7238 69.6964C59.3728 69.9128 59.9093 70.378 60.2152 70.9899C60.5211 71.6017 60.5714 72.3101 60.3551 72.959C60.1388 73.608 59.6735 74.1444 59.0617 74.4504C56.3142 75.8734 53.2705 76.6301 50.1765 76.6594Z" fill="black"/>
<path d="M45.0264 32.7825C41.727 34.7673 38.6595 36.7263 35.9272 38.5564C27.8592 43.9437 22.4976 48.2226 21.2346 49.2279C21.0542 49.3826 20.951 49.4599 20.951 49.4599C20.951 49.4599 10.7435 35.6952 15.1771 21.8275C15.1771 21.8275 20.951 1 48.7897 1C68.6377 1 78.6648 9.17117 84.1294 14.6358C98.5127 35.0251 82.2735 47.2431 79.1287 49.3568C78.7936 49.5888 78.6132 49.6919 78.6132 49.6919C78.6132 49.6919 67.2457 40.9794 55.337 29.7151" stroke="black" stroke-width="2" stroke-linecap="round" stroke-linejoin="round"/>
<path d="M55.2596 26.9569C64.4854 21.9747 74.1492 17.8503 84.1294 14.6357" stroke="black" stroke-width="2" stroke-linecap="round" stroke-linejoin="round"/>
<path d="M62.4694 118.355V130.594M21.1495 49.6971C20.9862 51.2745 20.9045 52.8593 20.9047 54.4451C20.9047 74.623 33.9914 90.9782 50.1327 90.9782C66.274 90.9782 79.3582 74.623 79.3582 54.4451C79.3595 52.8092 79.2734 51.1743 79.1004 49.5476M50.1765 43.2143C48.8092 43.2143 47.498 42.6711 46.5312 41.7043C45.5644 40.7375 45.0212 39.4262 45.0212 38.0589V27.7483C45.0212 26.3811 45.5644 25.0698 46.5312 24.103C47.498 23.1362 48.8092 22.593 50.1765 22.593C51.5438 22.593 52.8551 23.1362 53.8219 24.103C54.7887 25.0698 55.3318 26.3811 55.3318 27.7483V38.0589C55.3318 39.4262 54.7887 40.7375 53.8219 41.7043C52.8551 42.6711 51.5438 43.2143 50.1765 43.2143Z" stroke="black" stroke-width="2" stroke-linecap="round" stroke-linejoin="round"/>
</svg>
