<svg width="14" height="14" viewBox="0 0 14 14" fill="none" xmlns="http://www.w3.org/2000/svg">
<path d="M6.76424 0.074707C3.02881 0.074707 0 3.10351 0 6.83894C0 10.5744 3.02881 13.6032 6.76424 13.6032C10.4997 13.6032 13.5285 10.5744 13.5285 6.83894C13.5285 3.10351 10.4997 0.074707 6.76424 0.074707ZM6.76424 12.4557C3.66295 12.4557 1.1475 9.94022 1.1475 6.83894C1.1475 3.73766 3.66295 1.22221 6.76424 1.22221C9.86552 1.22221 12.381 3.73766 12.381 6.83894C12.381 9.94022 9.86552 12.4557 6.76424 12.4557Z" fill="#558B2F"/>
<path d="M9.40198 8.75035L7.2489 7.19367V3.45673C7.2489 3.39029 7.19454 3.33594 7.12811 3.33594H6.40186C6.33542 3.33594 6.28107 3.39029 6.28107 3.45673V7.61492C6.28107 7.65418 6.29919 7.69042 6.33089 7.71306L8.82822 9.53397C8.88258 9.57323 8.95807 9.56115 8.99733 9.5083L9.42915 8.91945C9.46841 8.86359 9.45633 8.78809 9.40198 8.75035Z" fill="#558B2F"/>
</svg>
