<svg width="13" height="10" viewBox="0 0 13 10" fill="none" xmlns="http://www.w3.org/2000/svg">
<path d="M11.8267 5.68417C12.0112 5.49578 12.1133 5.24187 12.1107 4.97821C12.1081 4.71455 12.001 4.46269 11.8129 4.27797L8.02434 0.561206C7.83586 0.37639 7.58168 0.274019 7.31772 0.276612C7.05375 0.279205 6.80163 0.386551 6.61682 0.575035C6.432 0.763518 6.32963 1.0177 6.33222 1.28166C6.33482 1.54562 6.44216 1.79774 6.63064 1.98256L8.70441 4.01663L1.05323 4.0918C0.789351 4.09439 0.537311 4.2017 0.352555 4.39013C0.167798 4.57855 0.0654589 4.83265 0.0680514 5.09653C0.0706439 5.3604 0.177956 5.61244 0.366379 5.7972C0.554802 5.98196 0.808901 6.0843 1.07278 6.0817L8.72396 6.00653L6.69055 8.08029C6.59904 8.17362 6.52681 8.28405 6.47798 8.4053C6.42915 8.52654 6.40468 8.65621 6.40596 8.78692C6.40724 8.91762 6.43426 9.04678 6.48546 9.16704C6.53667 9.28731 6.61105 9.3963 6.70438 9.48781C6.79771 9.57933 6.90815 9.65156 7.02939 9.70039C7.15063 9.74922 7.28031 9.77369 7.41101 9.77241C7.54171 9.77112 7.67088 9.74411 7.79114 9.69291C7.9114 9.6417 8.0204 9.56731 8.11191 9.47399L11.8267 5.68417Z" fill="#888888"/>
</svg>
