<svg width="290" height="187" viewBox="0 0 290 187" fill="none" xmlns="http://www.w3.org/2000/svg">
<path d="M267.203 186.553C271.446 186.553 274.885 185.979 274.885 185.272C274.885 184.565 271.446 183.992 267.203 183.992C262.96 183.992 259.521 184.565 259.521 185.272C259.521 185.979 262.96 186.553 267.203 186.553Z" fill="#F2F2F2"/>
<path d="M276.166 62.9988H275.526V76.4425H276.166V62.9988Z" fill="#F2F2F2"/>
<path d="M269.124 54.3562H265.283V186.873H269.124V54.3562Z" fill="#F2F2F2"/>
<path d="M284.788 64.7592H249.618C249.232 64.7592 248.851 64.6771 248.499 64.5185C248.148 64.3599 247.834 64.1283 247.578 63.8391C247.323 63.5498 247.132 63.2096 247.019 62.841C246.905 62.4724 246.871 62.0838 246.918 61.701L251.4 25.8511C251.483 25.1934 251.803 24.5886 252.3 24.1499C252.797 23.7112 253.437 23.4687 254.099 23.4678H280.307C280.97 23.4687 281.61 23.7112 282.106 24.1499C282.603 24.5886 282.923 25.1934 283.007 25.8511L287.488 61.701C287.536 62.0838 287.502 62.4724 287.388 62.841C287.274 63.2096 287.083 63.5498 286.828 63.8391C286.572 64.1283 286.259 64.3599 285.907 64.5185C285.555 64.6771 285.174 64.7592 284.788 64.7592Z" fill="#F2F2F2"/>
<path d="M275.846 78.6829C277.083 78.6829 278.086 77.6797 278.086 76.4423C278.086 75.2048 277.083 74.2017 275.846 74.2017C274.608 74.2017 273.605 75.2048 273.605 76.4423C273.605 77.6797 274.608 78.6829 275.846 78.6829Z" fill="#F2F2F2"/>
<path d="M40.1903 151.3C38.5732 156.91 33.8514 160.837 28.926 164.173C28.2383 164.639 27.5503 165.094 26.8622 165.538C26.8575 165.54 26.8527 165.545 26.848 165.547C26.8149 165.568 26.7817 165.589 26.7509 165.611C26.6088 165.702 26.4668 165.794 26.3259 165.884L26.4033 165.919C26.4033 165.919 26.4792 165.959 26.3961 165.926C26.3714 165.915 26.3455 165.906 26.3208 165.896C23.4594 164.741 20.5472 163.502 18.3544 161.341C16.0797 159.096 14.7504 155.574 15.9821 152.625C16.144 152.239 16.3485 151.872 16.5918 151.531C16.6917 151.388 16.7994 151.251 16.9114 151.117C17.5908 150.287 18.4789 149.654 19.4842 149.282C20.4895 148.91 21.5758 148.812 22.6315 148.999C23.6871 149.185 24.674 149.65 25.4906 150.345C26.3071 151.039 26.924 151.939 27.2776 152.951C27.6395 149.582 24.8614 146.759 22.1878 144.677C19.5131 142.596 16.4738 140.329 15.9567 136.979C15.668 135.115 16.3162 133.308 17.4971 131.858C17.5336 131.814 17.5701 131.77 17.6078 131.727C19.0452 130.038 21.067 128.953 23.2692 128.69C27.3706 128.263 31.3544 130.434 34.334 133.286C39.1296 137.874 42.0287 144.921 40.1903 151.3Z" fill="#F2F2F2"/>
<path d="M32.4812 143.962C33.2684 145.186 33.8727 146.519 34.2751 147.918C34.6155 149.169 34.767 150.463 34.7246 151.758C34.6148 154.424 33.8665 157.024 32.5427 159.34C31.5456 161.096 30.3304 162.72 28.926 164.173C28.2382 164.638 27.5503 165.094 26.8621 165.538C26.8575 165.54 26.8527 165.544 26.848 165.547C26.8148 165.568 26.7817 165.589 26.7508 165.611C26.6088 165.702 26.4667 165.794 26.3259 165.884C26.3259 165.884 26.4792 165.959 26.3961 165.925C26.3714 165.915 26.3454 165.906 26.3208 165.895C26.5772 163.793 26.326 161.659 25.5881 159.674C24.8502 157.688 23.6472 155.909 22.0799 154.484C20.5088 153.081 18.6283 152.069 16.5918 151.531C16.6917 151.388 16.7993 151.251 16.9113 151.117C17.6979 151.337 18.4634 151.627 19.1989 151.982C21.8281 153.245 23.981 155.32 25.3388 157.902C26.5572 160.246 27.0816 162.889 26.8504 165.52C26.968 165.414 27.0857 165.305 27.1998 165.197C29.3742 163.17 31.3054 160.843 32.6124 158.158C33.7463 155.884 34.3036 153.366 34.2352 150.825C34.1285 148.056 33.0249 145.49 31.4271 143.256C29.6758 140.874 27.607 138.742 25.278 136.919C22.931 135.039 20.3627 133.454 17.6304 132.198C17.5688 132.169 17.5206 132.118 17.4958 132.054C17.4709 131.991 17.4714 131.921 17.497 131.858C17.5153 131.801 17.5551 131.754 17.6078 131.727C17.6349 131.715 17.6643 131.71 17.6938 131.711C17.7233 131.712 17.7522 131.72 17.7782 131.734C18.1155 131.889 18.4505 132.047 18.7828 132.211C21.5507 133.579 24.1379 135.286 26.485 137.292C28.7521 139.224 30.8864 141.433 32.4812 143.962Z" fill="white"/>
<path d="M16.8447 165.427H34.5659C34.7603 165.427 34.9525 165.468 35.1297 165.548C35.3069 165.628 35.465 165.745 35.5937 165.891C35.7223 166.036 35.8185 166.208 35.8759 166.394C35.9332 166.579 35.9504 166.775 35.9263 166.968L33.6683 185.032C33.6264 185.363 33.4651 185.668 33.2147 185.889C32.9643 186.11 32.6419 186.232 32.3079 186.233H19.1027C18.7687 186.232 18.4463 186.11 18.1959 185.889C17.9455 185.668 17.7842 185.363 17.7423 185.032L15.4843 166.968C15.4602 166.775 15.4774 166.579 15.5347 166.394C15.5921 166.208 15.6883 166.036 15.8169 165.891C15.9456 165.745 16.1037 165.628 16.2809 165.548C16.4581 165.468 16.6503 165.427 16.8447 165.427Z" fill="#F2F2F2"/>
<path d="M74.6247 186.372C75.8496 186.372 76.8425 185.379 76.8425 184.154C76.8425 182.929 75.8496 181.936 74.6247 181.936C73.3999 181.936 72.4069 182.929 72.4069 184.154C72.4069 185.379 73.3999 186.372 74.6247 186.372Z" fill="#CCCCCC"/>
<path d="M214.716 186.372C215.941 186.372 216.934 185.379 216.934 184.154C216.934 182.929 215.941 181.936 214.716 181.936C213.491 181.936 212.498 182.929 212.498 184.154C212.498 185.379 213.491 186.372 214.716 186.372Z" fill="#CCCCCC"/>
<path d="M115.284 153.289H80.5388C78.9219 153.287 77.3716 152.644 76.2282 151.501C75.0849 150.358 74.4417 148.807 74.4399 147.19V123.534C74.4417 121.917 75.0849 120.367 76.2282 119.223C77.3716 118.08 78.9219 117.437 80.5388 117.435H115.284C116.901 117.437 118.452 118.08 119.595 119.223C120.738 120.367 121.382 121.917 121.383 123.534V147.19C121.382 148.807 120.738 150.358 119.595 151.501C118.452 152.644 116.901 153.287 115.284 153.289Z" fill="#E6E6E6"/>
<path d="M162.043 153.474H127.298C125.681 153.472 124.13 152.829 122.987 151.686C121.844 150.542 121.2 148.992 121.199 147.375V123.719C121.2 122.102 121.844 120.551 122.987 119.408C124.13 118.265 125.681 117.621 127.298 117.62H162.043C163.66 117.621 165.21 118.265 166.354 119.408C167.497 120.551 168.14 122.102 168.142 123.719V147.375C168.14 148.992 167.497 150.542 166.354 151.686C165.21 152.829 163.66 153.472 162.043 153.474Z" fill="#E6E6E6"/>
<path d="M208.802 153.659H174.056C172.439 153.657 170.889 153.014 169.746 151.871C168.602 150.727 167.959 149.177 167.957 147.56V123.903C167.959 122.286 168.602 120.736 169.746 119.593C170.889 118.449 172.439 117.806 174.056 117.804H208.802C210.419 117.806 211.969 118.449 213.112 119.593C214.256 120.736 214.899 122.286 214.901 123.903V147.56C214.899 149.177 214.256 150.727 213.112 151.871C211.969 153.014 210.419 153.657 208.802 153.659Z" fill="#E6E6E6"/>
<path d="M222.109 151.995H69.0803V183.969H222.109V151.995Z" fill="#E6E6E6"/>
<path d="M74.6247 184.154H67.9713C64.6083 184.154 61.8723 181.047 61.8723 177.229V143.864H74.6247V184.154Z" fill="#E6E6E6"/>
<path d="M221.369 184.154H214.716V138.689H227.468V176.339C227.468 180.648 224.732 184.154 221.369 184.154Z" fill="#E6E6E6"/>
<path d="M121.568 158.649H74.6248V148.669C90.2726 139.693 105.92 139.693 121.568 148.669V158.649Z" fill="#CCCCCC"/>
<path d="M168.327 158.834H121.383V148.854C137.031 139.878 152.679 139.878 168.327 148.854V158.834Z" fill="#CCCCCC"/>
<path d="M215.085 159.019H168.142V149.039C183.79 140.063 199.438 140.063 215.085 149.039V159.019Z" fill="#CCCCCC"/>
<path d="M65.5688 152.365C71.591 152.365 76.473 147.483 76.473 141.461C76.473 135.439 71.591 130.557 65.5688 130.557C59.5466 130.557 54.6646 135.439 54.6646 141.461C54.6646 147.483 59.5466 152.365 65.5688 152.365Z" fill="#CCCCCC"/>
<path d="M225.25 151.995C231.273 151.995 236.155 147.113 236.155 141.091C236.155 135.069 231.273 130.187 225.25 130.187C219.228 130.187 214.346 135.069 214.346 141.091C214.346 147.113 219.228 151.995 225.25 151.995Z" fill="#CCCCCC"/>
<path d="M193.13 119.729C193.155 119.904 193.166 120.081 193.164 120.259L206.234 129.267L209.72 127.617L212.898 132.552L207.011 136.073C206.536 136.357 205.981 136.48 205.43 136.422C204.878 136.364 204.361 136.129 203.955 135.752L190.718 123.466C190.061 123.651 189.363 123.632 188.718 123.41C188.073 123.189 187.51 122.776 187.104 122.228C186.699 121.679 186.471 121.019 186.449 120.337C186.428 119.655 186.614 118.983 186.984 118.41C187.354 117.836 187.89 117.389 188.52 117.128C189.151 116.867 189.846 116.803 190.513 116.947C191.18 117.09 191.788 117.433 192.255 117.93C192.723 118.427 193.028 119.054 193.13 119.729Z" fill="#FFB8B8"/>
<path d="M206.486 128.492C206.544 128.293 206.644 128.109 206.779 127.952C206.914 127.796 207.081 127.67 207.269 127.584L213.842 124.572C214.729 123.994 215.81 123.792 216.846 124.01C217.882 124.227 218.79 124.847 219.37 125.733C219.951 126.619 220.156 127.698 219.941 128.735C219.727 129.772 219.11 130.682 218.225 131.265L212.792 136.069C212.637 136.206 212.454 136.308 212.256 136.368C212.058 136.428 211.849 136.445 211.644 136.417C211.439 136.389 211.243 136.318 211.068 136.207C210.893 136.096 210.744 135.949 210.631 135.776L206.663 129.679C206.55 129.505 206.475 129.309 206.445 129.105C206.414 128.9 206.429 128.691 206.486 128.492Z" fill="#F9A826"/>
<path d="M192.965 120.316L192.899 120.321L192.72 117.842C192.663 117.05 192.15 116.441 191.575 116.482L187.764 116.758C187.189 116.8 186.131 117.522 186.188 118.315L186.234 118.953L187.172 131.915C187.23 132.708 188.381 133.27 188.956 133.229L192.767 132.953C193.342 132.911 193.761 132.235 193.704 131.443L193.027 122.086L193.093 122.081L192.965 120.316Z" fill="#3F3D56"/>
<path d="M192.499 117.868L193.482 131.449C193.525 132.04 193.211 132.545 192.782 132.576L188.952 132.854C188.523 132.885 188.14 132.43 188.097 131.838L187.115 118.258C187.072 117.666 187.385 117.161 187.815 117.13L188.279 117.096C188.247 117.217 188.254 117.345 188.299 117.461C188.344 117.578 188.425 117.677 188.53 117.745C188.574 117.766 188.623 117.776 188.672 117.773L190.855 117.615C191.059 117.6 191.208 117.36 191.188 117.078C191.183 117.013 191.169 116.949 191.147 116.889L191.644 116.853C192.073 116.822 192.456 117.276 192.499 117.868Z" fill="white"/>
<path d="M138.778 149.227L137.515 145.512L151.245 138.872L153.109 144.356L138.778 149.227Z" fill="#FFB8B8"/>
<path d="M135.498 151.399L131.426 139.419L131.577 139.368C132.19 139.16 132.837 139.074 133.483 139.116C134.128 139.158 134.759 139.327 135.339 139.613C135.919 139.898 136.437 140.296 136.864 140.782C137.291 141.268 137.617 141.833 137.826 142.445L140.313 149.763L135.498 151.399Z" fill="#2F2E41"/>
<path d="M193.27 151.879C190.325 152.044 187.389 151.429 184.758 150.097L168.613 139.113L149.762 146.094C149.261 146.264 148.715 146.238 148.233 146.021C147.751 145.804 147.369 145.413 147.165 144.925L146.241 142.703C146.03 142.203 146.024 141.64 146.224 141.136C146.424 140.632 146.814 140.226 147.31 140.006L165.32 131.918C167.483 130.951 169.908 130.741 172.205 131.323L197.207 137.694L203.816 145.543L203.743 145.644C200.499 150.12 196.65 151.634 193.27 151.879Z" fill="#2F2E41"/>
<path d="M213.69 119.083C218.032 119.083 221.552 115.563 221.552 111.221C221.552 106.879 218.032 103.359 213.69 103.359C209.348 103.359 205.828 106.879 205.828 111.221C205.828 115.563 209.348 119.083 213.69 119.083Z" fill="#FFB8B8"/>
<path d="M205.62 149.042L192.967 139.626L201.596 133.494C201.349 132.699 200.254 128.158 206.243 125.062C208.138 124.082 209.504 123.239 210.302 122.555C211.434 121.579 212.884 121.05 214.379 121.068C215.321 121.083 216.247 121.317 217.083 121.752C217.92 122.187 218.643 122.81 219.197 123.573C219.751 124.335 220.119 125.216 220.274 126.146C220.428 127.076 220.364 128.029 220.086 128.93C218.838 132.988 216.849 138.367 214.464 140.939C211.766 143.845 208.841 146.531 205.716 148.971L205.62 149.042Z" fill="#F9A826"/>
<path d="M140.784 152.52L139.521 148.804L153.251 142.165L155.115 147.648L140.784 152.52Z" fill="#FFB8B8"/>
<path d="M137.505 154.692L133.432 142.712L133.584 142.66C134.196 142.452 134.843 142.366 135.489 142.408C136.134 142.45 136.765 142.619 137.345 142.905C137.925 143.191 138.444 143.588 138.87 144.074C139.297 144.56 139.624 145.125 139.832 145.738L142.319 153.055L137.505 154.692Z" fill="#2F2E41"/>
<path d="M195.276 155.171C192.332 155.336 189.396 154.722 186.764 153.389L170.62 142.406L151.768 149.386C151.268 149.557 150.721 149.531 150.239 149.314C149.757 149.097 149.376 148.705 149.171 148.217L148.247 145.995C148.037 145.495 148.03 144.933 148.23 144.428C148.43 143.924 148.82 143.518 149.316 143.298L167.327 135.21C169.489 134.243 171.914 134.033 174.211 134.615L199.214 140.986L205.823 148.835L205.749 148.936C202.505 153.412 198.656 154.926 195.276 155.171Z" fill="#2F2E41"/>
<path d="M191.648 129.16C191.746 129.308 191.832 129.463 191.905 129.624L207.574 132.169L210.018 129.185L215.002 132.284L211.19 137.986C210.882 138.447 210.433 138.795 209.91 138.979C209.387 139.163 208.819 139.172 208.291 139.005L191.068 133.57C190.554 134.018 189.915 134.299 189.237 134.376C188.559 134.452 187.874 134.32 187.272 133.998C186.671 133.675 186.182 133.177 185.871 132.57C185.559 131.963 185.44 131.275 185.529 130.599C185.618 129.922 185.911 129.289 186.369 128.783C186.826 128.277 187.427 127.922 188.091 127.766C188.756 127.61 189.452 127.66 190.087 127.909C190.722 128.158 191.267 128.594 191.648 129.16Z" fill="#FFB8B8"/>
<path d="M207.47 131.36C207.437 131.156 207.448 130.947 207.503 130.747C207.558 130.548 207.655 130.362 207.788 130.204L212.439 124.669C212.993 123.766 213.883 123.121 214.913 122.874C215.943 122.627 217.028 122.798 217.932 123.35C218.836 123.902 219.484 124.79 219.734 125.819C219.984 126.848 219.815 127.935 219.266 128.84L216.413 135.508C216.331 135.698 216.21 135.869 216.056 136.008C215.903 136.147 215.722 136.251 215.524 136.314C215.327 136.377 215.119 136.396 214.913 136.371C214.708 136.346 214.51 136.276 214.334 136.168L208.137 132.357C207.961 132.249 207.81 132.104 207.695 131.931C207.579 131.759 207.503 131.565 207.47 131.36Z" fill="#F9A826"/>
<path d="M211.588 119.879C213.873 116.94 215.139 113.338 215.198 109.616C214.122 110.415 212.905 111.002 211.611 111.348C210.237 111.714 208.727 111.787 207.433 111.198C205.612 110.369 204.535 108.253 204.742 106.263C204.949 104.273 206.324 102.495 208.115 101.603C209.948 100.745 212.039 100.619 213.962 101.249C214.979 100.382 216.225 99.8275 217.549 99.6507C218.874 99.4739 220.222 99.6827 221.431 100.252C224.213 101.618 225.753 104.781 226.019 107.869C226.286 110.957 225.493 114.028 224.706 117.026L224.617 117.365C224.372 118.299 223.661 120.09 223.661 120.09C223.661 120.09 219.526 119.274 217.884 118.751C215.503 119.611 211.588 119.879 211.588 119.879Z" fill="#2F2E41"/>
<path d="M191.881 120.632L188.513 120.876C188.428 120.882 188.344 120.854 188.28 120.799C188.216 120.743 188.176 120.665 188.17 120.58C188.164 120.495 188.192 120.412 188.247 120.347C188.303 120.283 188.382 120.244 188.466 120.238L191.835 119.994C191.877 119.991 191.919 119.996 191.959 120.009C191.999 120.022 192.036 120.043 192.068 120.071C192.1 120.098 192.126 120.132 192.145 120.169C192.164 120.207 192.175 120.248 192.178 120.29C192.181 120.332 192.176 120.374 192.162 120.414C192.149 120.454 192.128 120.491 192.1 120.523C192.073 120.554 192.039 120.581 192.002 120.599C191.964 120.618 191.923 120.629 191.881 120.632Z" fill="#3F3D56"/>
<path d="M191.996 122.228L188.628 122.472C188.586 122.475 188.544 122.47 188.504 122.457C188.464 122.444 188.427 122.423 188.395 122.395C188.363 122.368 188.337 122.334 188.318 122.297C188.299 122.259 188.288 122.218 188.285 122.176C188.282 122.134 188.287 122.092 188.3 122.052C188.314 122.012 188.335 121.975 188.362 121.943C188.39 121.912 188.423 121.885 188.461 121.867C188.499 121.848 188.54 121.837 188.582 121.834L191.95 121.59C192.035 121.584 192.119 121.612 192.183 121.667C192.247 121.723 192.286 121.801 192.293 121.886C192.299 121.971 192.271 122.054 192.215 122.119C192.16 122.183 192.081 122.222 191.996 122.228Z" fill="#3F3D56"/>
<path d="M192.112 123.825L188.743 124.069C188.659 124.075 188.575 124.047 188.511 123.991C188.447 123.936 188.408 123.857 188.402 123.772C188.396 123.688 188.423 123.604 188.479 123.54C188.534 123.476 188.613 123.436 188.697 123.43L192.066 123.186C192.15 123.18 192.234 123.208 192.298 123.264C192.363 123.319 192.402 123.398 192.408 123.483C192.414 123.567 192.387 123.651 192.331 123.715C192.275 123.779 192.197 123.819 192.112 123.825Z" fill="#3F3D56"/>
<path d="M289.68 186.873H0.320088C0.235196 186.873 0.15378 186.839 0.0937514 186.779C0.0337233 186.719 0 186.638 0 186.553C0 186.468 0.0337233 186.386 0.0937514 186.326C0.15378 186.266 0.235196 186.233 0.320088 186.233H289.68C289.765 186.233 289.846 186.266 289.906 186.326C289.966 186.386 290 186.468 290 186.553C290 186.638 289.966 186.719 289.906 186.779C289.846 186.839 289.765 186.873 289.68 186.873Z" fill="#3F3D56"/>
<path d="M153.892 80.2833H121.563C120.799 80.2825 120.067 79.9787 119.527 79.4386C118.987 78.8986 118.683 78.1663 118.682 77.4025V49.5549C118.683 48.7911 118.987 48.0589 119.527 47.5188C120.067 46.9787 120.799 46.6749 121.563 46.6741H153.892C154.656 46.6749 155.388 46.9787 155.928 47.5188C156.468 48.0589 156.772 48.7911 156.773 49.5549V77.4025C156.772 78.1663 156.468 78.8985 155.928 79.4386C155.388 79.9787 154.656 80.2825 153.892 80.2833ZM121.563 47.3142C120.969 47.3149 120.399 47.5512 119.979 47.9712C119.559 48.3913 119.323 48.9608 119.322 49.5549V77.4025C119.323 77.9966 119.559 78.5661 119.979 78.9862C120.399 79.4062 120.969 79.6425 121.563 79.6432H153.892C154.486 79.6425 155.055 79.4062 155.476 78.9862C155.896 78.5661 156.132 77.9966 156.133 77.4025V49.5549C156.132 48.9608 155.896 48.3913 155.476 47.9712C155.055 47.5512 154.486 47.3149 153.892 47.3142H121.563Z" fill="#F2F2F2"/>
<path d="M149.165 75.9623H126.29C125.568 75.9614 124.877 75.6745 124.367 75.1645C123.857 74.6544 123.57 73.9628 123.569 73.2415V53.7161C123.57 52.9948 123.857 52.3032 124.367 51.7931C124.877 51.2831 125.568 50.9962 126.29 50.9954H149.165C149.886 50.9962 150.578 51.2831 151.088 51.7931C151.598 52.3032 151.885 52.9948 151.886 53.7161V73.2415C151.885 73.9628 151.598 74.6544 151.088 75.1645C150.578 75.6745 149.886 75.9614 149.165 75.9623Z" fill="#E6E6E6"/>
<path d="M137.887 42.5131C138.771 42.5131 139.488 41.7966 139.488 40.9127C139.488 40.0288 138.771 39.3123 137.887 39.3123C137.004 39.3123 136.287 40.0288 136.287 40.9127C136.287 41.7966 137.004 42.5131 137.887 42.5131Z" fill="#F2F2F2"/>
<path d="M141.252 47.1588L137.888 41.5371L134.543 47.1578L133.993 46.8307L137.887 40.2881L141.802 46.8297L141.252 47.1588Z" fill="#F2F2F2"/>
<path d="M141.569 61.238C141.568 60.7536 141.515 60.2706 141.41 59.7976H136.607C136.268 59.7976 135.942 59.9325 135.702 60.1726C135.462 60.4127 135.327 60.7384 135.327 61.078V67.9356C137.021 67.8154 138.607 67.0576 139.765 65.8148C140.924 64.5721 141.568 62.9367 141.569 61.238Z" fill="#F9A826"/>
<path d="M134.847 68.2802C133.519 68.2807 132.217 67.9055 131.093 67.198C129.969 66.4905 129.068 65.4796 128.494 64.2819C127.92 63.0841 127.696 61.7485 127.849 60.4291C128.002 59.1097 128.524 57.8604 129.356 56.8253C130.189 55.7903 131.297 55.0117 132.553 54.5795C133.809 54.1473 135.161 54.0791 136.454 54.3828C137.747 54.6865 138.928 55.3496 139.86 56.2957C140.792 57.2418 141.438 58.4322 141.723 59.7295L141.808 60.1179H136.607C136.353 60.1182 136.109 60.2195 135.928 60.3995C135.748 60.5795 135.647 60.8236 135.647 61.0782V68.2341L135.294 68.2591C135.146 68.2699 134.998 68.2802 134.847 68.2802ZM134.847 54.8365C133.149 54.8365 131.521 55.5109 130.32 56.7115C129.119 57.9121 128.445 59.5404 128.445 61.2382C128.445 62.9361 129.119 64.5644 130.32 65.765C131.521 66.9655 133.149 67.64 134.847 67.64C134.9 67.64 134.954 67.6384 135.007 67.6359V61.0782C135.007 60.6539 135.176 60.2471 135.476 59.947C135.776 59.647 136.183 59.4782 136.607 59.4777H140.999C140.612 58.144 139.803 56.9714 138.694 56.1349C137.585 55.2984 136.236 54.843 134.847 54.8365Z" fill="white"/>
<path d="M144.289 70.3605H136.607C136.183 70.3601 135.776 70.1913 135.476 69.8912C135.176 69.5912 135.007 69.1844 135.007 68.7601V67.6374L135.304 67.6163C136.221 67.5531 137.113 67.2928 137.919 66.8533C138.726 66.4138 139.428 65.8054 139.978 65.0696C140.528 64.3338 140.913 63.4881 141.106 62.5901C141.299 61.692 141.296 60.7629 141.097 59.8661L141.012 59.4775H144.289C144.714 59.478 145.12 59.6468 145.42 59.9468C145.72 60.2469 145.889 60.6537 145.89 61.078V68.7601C145.889 69.1844 145.72 69.5912 145.42 69.8912C145.12 70.1913 144.714 70.3601 144.289 70.3605ZM135.647 68.2275V68.7601C135.647 69.0147 135.748 69.2588 135.928 69.4388C136.108 69.6188 136.353 69.7201 136.607 69.7204H144.289C144.544 69.7201 144.788 69.6188 144.968 69.4388C145.148 69.2588 145.249 69.0147 145.25 68.7601V61.078C145.249 60.8234 145.148 60.5793 144.968 60.3993C144.788 60.2193 144.544 60.118 144.289 60.1177H141.797C141.857 60.4881 141.888 60.8627 141.889 61.238C141.883 62.9647 141.244 64.6294 140.094 65.9173C138.944 67.2052 137.362 68.0271 135.647 68.2275Z" fill="white"/>
<path d="M92.4542 24.3139H52.7306C52.5603 24.3142 52.3917 24.2808 52.2343 24.2158C52.077 24.1508 51.9339 24.0554 51.8135 23.9351C51.693 23.8148 51.5974 23.6719 51.5322 23.5146C51.467 23.3573 51.4334 23.1887 51.4334 23.0184C51.4334 22.8481 51.467 22.6795 51.5322 22.5223C51.5974 22.365 51.693 22.2221 51.8135 22.1018C51.9339 21.9814 52.077 21.886 52.2343 21.821C52.3917 21.756 52.5603 21.7227 52.7306 21.7229H92.4542C92.6245 21.7227 92.7931 21.756 92.9505 21.821C93.1079 21.886 93.2509 21.9814 93.3714 22.1018C93.4919 22.2221 93.5874 22.365 93.6527 22.5223C93.7179 22.6795 93.7514 22.8481 93.7514 23.0184C93.7514 23.1887 93.7179 23.3573 93.6527 23.5146C93.5874 23.6719 93.4919 23.8148 93.3714 23.9351C93.2509 24.0554 93.1079 24.1508 92.9505 24.2158C92.7931 24.2808 92.6245 24.3142 92.4542 24.3139Z" fill="#F9A826"/>
<path d="M92.4542 29.4332H52.7306C52.3873 29.4328 52.0582 29.2961 51.8156 29.0531C51.573 28.8102 51.4367 28.4809 51.4367 28.1376C51.4367 27.7943 51.573 27.465 51.8156 27.2221C52.0582 26.9792 52.3873 26.8425 52.7306 26.842H92.4542C92.7975 26.8425 93.1266 26.9792 93.3692 27.2221C93.6118 27.465 93.7481 27.7943 93.7481 28.1376C93.7481 28.4809 93.6118 28.8102 93.3692 29.0531C93.1266 29.2961 92.7975 29.4328 92.4542 29.4332Z" fill="#F9A826"/>
<path d="M69.9498 34.5523H52.7306C52.3873 34.5519 52.0582 34.4152 51.8156 34.1723C51.573 33.9294 51.4367 33.6001 51.4367 33.2568C51.4367 32.9134 51.573 32.5842 51.8156 32.3412C52.0582 32.0983 52.3873 31.9616 52.7306 31.9612H69.9498C70.1201 31.961 70.2888 31.9943 70.4462 32.0593C70.6035 32.1243 70.7466 32.2197 70.867 32.34C70.9875 32.4604 71.0831 32.6033 71.1483 32.7606C71.2135 32.9179 71.2471 33.0865 71.2471 33.2568C71.2471 33.427 71.2135 33.5957 71.1483 33.753C71.0831 33.9102 70.9875 34.0531 70.867 34.1735C70.7466 34.2938 70.6035 34.3892 70.4462 34.4542C70.2888 34.5192 70.1201 34.5526 69.9498 34.5523Z" fill="#F9A826"/>
<path d="M92.4542 53.4272H52.7306C52.3871 53.4272 52.0575 53.2907 51.8146 53.0478C51.5716 52.8048 51.4351 52.4753 51.4351 52.1317C51.4351 51.7881 51.5716 51.4586 51.8146 51.2156C52.0575 50.9727 52.3871 50.8362 52.7306 50.8362H92.4542C92.7978 50.8362 93.1273 50.9727 93.3703 51.2156C93.6133 51.4586 93.7498 51.7881 93.7498 52.1317C93.7498 52.4753 93.6133 52.8048 93.3703 53.0478C93.1273 53.2907 92.7978 53.4272 92.4542 53.4272Z" fill="#E6E6E6"/>
<path d="M92.4543 58.5465H52.7307C52.3871 58.5465 52.0576 58.41 51.8146 58.167C51.5716 57.924 51.4351 57.5945 51.4351 57.2509C51.4351 56.9073 51.5716 56.5778 51.8146 56.3348C52.0576 56.0918 52.3871 55.9553 52.7307 55.9553H92.4543C92.7979 55.9553 93.1274 56.0918 93.3704 56.3348C93.6134 56.5778 93.7499 56.9073 93.7499 57.2509C93.7499 57.5945 93.6134 57.924 93.3704 58.167C93.1274 58.41 92.7979 58.5465 92.4543 58.5465Z" fill="#E6E6E6"/>
<path d="M69.9499 63.6659H52.7307C52.3871 63.6659 52.0576 63.5294 51.8146 63.2864C51.5716 63.0434 51.4351 62.7139 51.4351 62.3703C51.4351 62.0267 51.5716 61.6971 51.8146 61.4542C52.0576 61.2112 52.3871 61.0747 52.7307 61.0747H69.9499C70.1202 61.0745 70.2889 61.1078 70.4462 61.1728C70.6036 61.2379 70.7466 61.3332 70.8671 61.4536C70.9876 61.5739 71.0832 61.7168 71.1484 61.8741C71.2136 62.0314 71.2472 62.2 71.2472 62.3703C71.2472 62.5406 71.2136 62.7092 71.1484 62.8665C71.0832 63.0238 70.9876 63.1667 70.8671 63.287C70.7466 63.4073 70.6036 63.5027 70.4462 63.5677C70.2889 63.6327 70.1202 63.6661 69.9499 63.6659Z" fill="#E6E6E6"/>
<path d="M92.4542 84.1416H52.7306C52.5605 84.1416 52.392 84.1081 52.2349 84.043C52.0777 83.9778 51.9349 83.8824 51.8146 83.7621C51.6943 83.6418 51.5988 83.499 51.5337 83.3418C51.4686 83.1847 51.4351 83.0162 51.4351 82.846C51.4351 82.6759 51.4686 82.5075 51.5337 82.3503C51.5988 82.1931 51.6943 82.0503 51.8146 81.93C51.9349 81.8097 52.0777 81.7143 52.2349 81.6492C52.392 81.584 52.5605 81.5505 52.7306 81.5505H92.4542C92.6244 81.5505 92.7928 81.584 92.95 81.6492C93.1072 81.7143 93.25 81.8097 93.3703 81.93C93.4906 82.0503 93.586 82.1931 93.6511 82.3503C93.7163 82.5075 93.7498 82.6759 93.7498 82.846C93.7498 83.0162 93.7163 83.1847 93.6511 83.3418C93.586 83.499 93.4906 83.6418 93.3703 83.7621C93.25 83.8824 93.1072 83.9778 92.95 84.043C92.7928 84.1081 92.6244 84.1416 92.4542 84.1416Z" fill="#E6E6E6"/>
<path d="M92.4542 89.2606H52.7306C52.3873 89.2601 52.0582 89.1235 51.8156 88.8805C51.573 88.6376 51.4367 88.3083 51.4367 87.965C51.4367 87.6217 51.573 87.2924 51.8156 87.0495C52.0582 86.8066 52.3873 86.6699 52.7306 86.6694H92.4542C92.7975 86.6699 93.1266 86.8066 93.3692 87.0495C93.6118 87.2924 93.7481 87.6217 93.7481 87.965C93.7481 88.3083 93.6118 88.6376 93.3692 88.8805C93.1266 89.1235 92.7975 89.2601 92.4542 89.2606Z" fill="#E6E6E6"/>
<path d="M69.9499 94.38H52.7307C52.3871 94.38 52.0576 94.2435 51.8146 94.0005C51.5716 93.7576 51.4351 93.428 51.4351 93.0844C51.4351 92.7408 51.5716 92.4113 51.8146 92.1683C52.0576 91.9253 52.3871 91.7888 52.7307 91.7888H69.9499C70.1202 91.7886 70.2889 91.8219 70.4462 91.887C70.6036 91.952 70.7466 92.0474 70.8671 92.1677C70.9876 92.288 71.0832 92.4309 71.1484 92.5882C71.2136 92.7455 71.2472 92.9141 71.2472 93.0844C71.2472 93.2547 71.2136 93.4233 71.1484 93.5806C71.0832 93.7379 70.9876 93.8808 70.8671 94.0011C70.7466 94.1214 70.6036 94.2168 70.4462 94.2819C70.2889 94.3469 70.1202 94.3802 69.9499 94.38Z" fill="#E6E6E6"/>
<path d="M36.8831 67.5127H12.9686C12.3277 67.512 11.7133 67.2571 11.2601 66.8039C10.8069 66.3507 10.552 65.7362 10.5513 65.0953V49.4069C10.552 48.766 10.8069 48.1515 11.2601 47.6983C11.7133 47.2451 12.3277 46.9902 12.9686 46.9895H36.8831C37.524 46.9902 38.1385 47.2451 38.5917 47.6983C39.0448 48.1515 39.2998 48.766 39.3005 49.4069V65.0953C39.2998 65.7362 39.0448 66.3507 38.5917 66.8039C38.1385 67.2571 37.524 67.512 36.8831 67.5127Z" fill="#E6E6E6"/>
<path d="M35.2024 48.95H14.65C14.0664 48.9505 13.5069 49.1825 13.0941 49.5951C12.6814 50.0076 12.4491 50.567 12.4482 51.1506V63.3512C12.4491 63.9349 12.6813 64.4944 13.094 64.9072C13.5068 65.3199 14.0663 65.5521 14.65 65.5529H27.7556C30.3135 65.5504 32.7659 64.5332 34.5746 62.7244C36.3833 60.9157 37.4005 58.4633 37.4031 55.9054V51.1506C37.4025 50.5672 37.1704 50.0078 36.7578 49.5952C36.3453 49.1826 35.7859 48.9506 35.2024 48.95Z" fill="white"/>
<path d="M29.3942 53.0745L29.3328 53.1853C29.8795 51.8378 29.3824 50.1775 28.4071 49.1615C27.4318 48.1456 26.0759 47.6811 24.7409 47.4968C23.7498 47.36 22.721 47.364 21.7787 47.727C20.414 48.2527 19.3714 49.4697 18.5009 50.7357C18.1027 51.3148 17.7112 51.9749 17.7508 52.6987C17.7877 53.3703 18.1863 53.9403 18.5128 54.5101C18.8393 55.08 19.112 55.7869 18.8777 56.4089C18.738 56.7795 18.4429 57.0464 18.2034 57.3496C17.964 57.6528 17.767 58.0626 17.8827 58.443C17.934 58.5885 18.0223 58.7183 18.1388 58.8195C18.2552 58.9207 18.396 58.99 18.5473 59.0206C18.8403 59.0695 19.1399 59.0624 19.4302 58.9997L27.0401 57.8499C27.5572 57.7718 28.0477 57.5698 28.4699 57.2611C28.892 56.9524 29.2333 56.5462 29.4645 56.0771C29.6957 55.6081 29.8101 55.09 29.7979 54.5672C29.7856 54.0444 29.6471 53.5323 29.3942 53.0745Z" fill="#2F2E41"/>
<path d="M23.7339 57.7967C25.7887 57.7967 27.4545 56.1309 27.4545 54.0761C27.4545 52.0212 25.7887 50.3555 23.7339 50.3555C21.6791 50.3555 20.0133 52.0212 20.0133 54.0761C20.0133 56.1309 21.6791 57.7967 23.7339 57.7967Z" fill="#FFB9B9"/>
<path d="M33.4428 63.6936C31.7938 64.9039 29.8011 65.5553 27.7556 65.5529H16.3386C16.3156 65.5343 16.2937 65.5157 16.2708 65.496L17.3355 62.5249C17.5761 61.9972 17.9559 61.545 18.434 61.2166C18.9121 60.8883 19.4705 60.6964 20.0494 60.6613L20.7268 60.6197L22.342 59.2266C22.342 59.2266 26.6941 59.0712 26.6296 58.9968L29.2658 60.5825L29.2636 60.5715L30.2999 60.635C30.8789 60.6699 31.4374 60.8619 31.9155 61.1902C32.3936 61.5185 32.7733 61.9708 33.0138 62.4986L33.4428 63.6936Z" fill="#F9A826"/>
<path d="M27.2631 50.6231C27.167 50.115 26.6488 49.8826 26.2048 49.77C24.917 49.4415 23.5774 49.3679 22.2613 49.5535C21.3019 49.6903 20.3198 49.992 19.6237 50.7408C19.0624 51.3714 18.7443 52.1814 18.7267 53.0254C18.6983 53.5301 18.8111 54.0326 19.0523 54.4768C19.1602 54.6836 19.3201 54.8587 19.5161 54.9851C19.7122 55.1115 19.9377 55.1847 20.1706 55.1975L20.2152 55.3528C22.0832 55.0925 23.8184 53.9302 24.9113 52.2073C24.7062 52.9397 24.298 53.5991 23.7339 54.1092C24.9951 53.6046 26.0913 52.7597 26.9006 51.6687C27.1216 51.3754 27.3361 51.0096 27.2631 50.6231Z" fill="#2F2E41"/>
<path d="M36.8831 38.3992H12.9686C12.3277 38.3984 11.7133 38.1435 11.2601 37.6903C10.8069 37.2371 10.552 36.6227 10.5513 35.9818V20.2934C10.552 19.6525 10.8069 19.038 11.2601 18.5848C11.7133 18.1316 12.3277 17.8767 12.9686 17.876H36.8831C37.524 17.8767 38.1385 18.1316 38.5917 18.5848C39.0448 19.038 39.2998 19.6525 39.3005 20.2934V35.9818C39.2998 36.6227 39.0448 37.2371 38.5917 37.6903C38.1385 38.1435 37.524 38.3985 36.8831 38.3992Z" fill="#CCCCCC"/>
<path d="M35.2024 19.8364H14.65C14.0665 19.8371 13.507 20.0692 13.0943 20.4817C12.6816 20.8942 12.4492 21.4536 12.4482 22.0371V34.2377C12.4491 34.8214 12.6813 35.3809 13.094 35.7936C13.5068 36.2064 14.0663 36.4386 14.65 36.4394H27.7556C30.3136 36.4373 32.7663 35.4202 34.5751 33.6114C36.3839 31.8026 37.401 29.35 37.4031 26.7919V22.0371C37.4025 21.4536 37.1704 20.8942 36.7578 20.4817C36.3453 20.0691 35.7859 19.837 35.2024 19.8364Z" fill="white"/>
<path d="M19.9863 22.2033C20.9542 22.2033 21.7389 21.4186 21.7389 20.4506C21.7389 19.4827 20.9542 18.698 19.9863 18.698C19.0183 18.698 18.2336 19.4827 18.2336 20.4506C18.2336 21.4186 19.0183 22.2033 19.9863 22.2033Z" fill="#2F2E41"/>
<path d="M22.7905 28.8632C25.2426 28.8632 27.2305 26.8753 27.2305 24.4232C27.2305 21.971 25.2426 19.9832 22.7905 19.9832C20.3383 19.9832 18.3505 21.971 18.3505 24.4232C18.3505 26.8753 20.3383 28.8632 22.7905 28.8632Z" fill="#2F2E41"/>
<path d="M23.1581 28.862C25.1507 28.862 26.7661 27.2467 26.7661 25.254C26.7661 23.2614 25.1507 21.646 23.1581 21.646C21.1654 21.646 19.55 23.2614 19.55 25.254C19.55 27.2467 21.1654 28.862 23.1581 28.862Z" fill="#9E616A"/>
<path d="M25.6083 21.5762C24.976 21.1908 24.2518 20.9823 23.5114 20.9725C22.771 20.9628 22.0416 21.1521 21.3994 21.5207C20.7573 21.8894 20.2259 22.4238 19.861 23.068C19.496 23.7123 19.3108 24.4428 19.3248 25.1831C21.1633 25.6447 23.0947 25.9979 25.0553 25.2935L25.5183 24.1604L25.7913 25.2944C26.3884 25.5384 26.987 25.7449 27.5856 25.292C27.61 24.5538 27.4403 23.822 27.0933 23.17C26.7463 22.5179 26.2342 21.9683 25.6083 21.5762Z" fill="#2F2E41"/>
<path d="M18.3546 15.6931C17.7393 15.4304 17.0627 15.3452 16.4015 15.4471C15.7402 15.5489 15.1207 15.8338 14.6129 16.2695C14.1163 16.7175 13.7383 17.2815 13.5125 17.9111C13.2867 18.5407 13.2202 19.2164 13.3188 19.8779C13.5176 21.2235 14.3356 22.3822 15.0896 23.5142C15.8436 24.6462 16.5802 25.8866 16.5794 27.2467C16.5788 28.2264 16.1897 29.1658 15.4975 29.859C14.8052 30.5521 13.8664 30.9425 12.8867 30.9445C14.0365 31.4394 15.2365 31.9441 16.487 31.8854C17.7374 31.8268 19.048 31.0229 19.2519 29.7879C19.3989 28.8979 18.9623 28.0302 18.5982 27.205C18.0051 25.8604 17.5763 24.4491 17.3213 23.0018C17.1997 22.311 17.1205 21.5848 17.3457 20.9206C17.525 20.4283 17.8578 20.0067 18.2949 19.718C18.7321 19.4292 19.2504 19.2886 19.7735 19.3168L20.1867 18.9451C20.2575 18.2798 20.119 17.609 19.7906 17.0261C19.4623 16.4432 18.9603 15.9773 18.3546 15.6931Z" fill="#2F2E41"/>
<path d="M32.7019 35.0714C31.2083 35.9688 29.4981 36.4418 27.7556 36.4393H15.3876L15.3679 36.4229L16.4327 33.4507C16.6734 32.9231 17.0531 32.471 17.5312 32.1429C18.0093 31.8148 18.5678 31.623 19.1466 31.5882L19.824 31.5466L21.4392 30.1535C21.4392 30.1535 25.7913 29.997 25.7267 29.9226L28.3629 31.5083L28.3608 31.4984L29.3971 31.5619C29.976 31.5964 30.5346 31.788 31.0128 32.1162C31.4909 32.4443 31.8706 32.8966 32.111 33.4244L32.7019 35.0714Z" fill="#F9A826"/>
<path d="M36.8831 98.2268H12.9686C12.3277 98.2261 11.7133 97.9712 11.2601 97.518C10.8069 97.0648 10.552 96.4503 10.5513 95.8094V80.121C10.552 79.4801 10.8069 78.8656 11.2601 78.4125C11.7133 77.9593 12.3277 77.7043 12.9686 77.7036H36.8831C37.524 77.7043 38.1385 77.9593 38.5917 78.4125C39.0448 78.8656 39.2998 79.4801 39.3005 80.121V95.8094C39.2998 96.4503 39.0448 97.0648 38.5917 97.518C38.1385 97.9712 37.524 98.2261 36.8831 98.2268Z" fill="#E6E6E6"/>
<path d="M35.2024 79.6641H14.65C14.0664 79.6646 13.5069 79.8966 13.0941 80.3092C12.6814 80.7217 12.4491 81.2812 12.4482 81.8647V94.0653C12.4491 94.649 12.6813 95.2085 13.094 95.6213C13.5068 96.034 14.0663 96.2662 14.65 96.2671H27.7556C30.3135 96.2645 32.7659 95.2473 34.5746 93.4386C36.3833 91.6299 37.4005 89.1774 37.4031 86.6195V81.8647C37.4025 81.2813 37.1704 80.7219 36.7578 80.3093C36.3453 79.8967 35.7859 79.6647 35.2024 79.6641Z" fill="white"/>
<path d="M24.908 87.4255C27.642 87.4255 29.8583 85.2092 29.8583 82.4752C29.8583 79.7412 27.642 77.5249 24.908 77.5249C22.1741 77.5249 19.9578 79.7412 19.9578 82.4752C19.9578 85.2092 22.1741 87.4255 24.908 87.4255Z" fill="#2F2E41"/>
<path d="M24.91 88.0758C27.3523 88.0758 29.3323 86.0959 29.3323 83.6535C29.3323 81.2111 27.3523 79.2312 24.91 79.2312C22.4676 79.2312 20.4877 81.2111 20.4877 83.6535C20.4877 86.0959 22.4676 88.0758 24.91 88.0758Z" fill="#FFB8B8"/>
<path d="M33.7557 94.1694C32.0518 95.5295 29.9358 96.2693 27.7556 96.2672H16.7271L17.7732 93.3486C18.0139 92.8209 18.3936 92.3687 18.8717 92.0404C19.3498 91.7121 19.9082 91.5201 20.4871 91.485L21.1645 91.4434L22.7797 90.0504C22.7797 90.0504 27.1318 89.895 27.0673 89.8206L29.7035 91.4062L29.7013 91.3953L30.7376 91.4588C31.3166 91.4937 31.8751 91.6856 32.3532 92.0139C32.8313 92.3422 33.211 92.7946 33.4515 93.3224L33.7557 94.1694Z" fill="#F9A826"/>
<path d="M29.5756 82.1026C29.6066 81.7724 29.6208 81.4408 29.6182 81.1092C29.6363 80.4534 29.5161 79.8011 29.2655 79.1947C28.9573 78.5233 28.4078 77.9925 27.7262 77.7077C27.0506 77.4352 26.2956 77.4358 25.6205 77.7095C25.0265 77.3007 24.3382 77.0501 23.6205 76.9813C23.2609 76.9524 22.8997 77.011 22.5677 77.1519C22.2357 77.2928 21.9426 77.5119 21.7136 77.7905C21.6154 77.9443 21.504 78.0891 21.3804 78.2233C21.0271 78.5505 20.4902 78.5033 20.0206 78.4364C20.2312 78.617 20.4419 78.7975 20.6526 78.978C20.3977 79.0446 20.1427 79.1112 19.8877 79.1778C20.1852 79.3583 20.4828 79.5388 20.7803 79.7192C19.9165 80.2377 19.5239 81.3693 19.6276 82.397C19.7257 83.3701 20.1955 84.2598 20.7571 85.0507C20.9811 84.5779 20.9328 84.0123 20.9291 83.4799C20.9271 83.3072 20.9376 83.1345 20.9606 82.9634C22.8585 83.4183 24.8415 83.7103 26.8525 82.9877L27.2561 82C27.3127 82.0059 27.3694 82.0113 27.426 82.0173L27.6598 82.9887C28.1899 83.2053 28.7211 83.3947 29.2525 83.1957C29.2783 83.3457 29.2939 83.4988 29.3058 83.646C29.3514 83.47 29.391 83.2927 29.4267 83.1146C29.4969 83.0769 29.5642 83.034 29.6279 82.9861C29.6407 82.6906 29.6232 82.3945 29.5756 82.1026Z" fill="#2F2E41"/>
<path d="M103.723 4.55399H0.577756C0.424578 4.55382 0.277721 4.4929 0.169408 4.38458C0.0610949 4.27627 0.000167684 4.12942 0 3.97624V0.577752C0.000167684 0.424575 0.0610949 0.277718 0.169408 0.169405C0.277721 0.0610916 0.424578 0.000167684 0.577756 0H103.723C103.877 0.000167104 104.023 0.0610914 104.132 0.169405C104.24 0.277718 104.301 0.424574 104.301 0.577752V3.97624C104.301 4.12942 104.24 4.27627 104.132 4.38458C104.023 4.4929 103.877 4.55382 103.723 4.55399Z" fill="#E4E4E4"/>
<path d="M3.35298 2.93154C3.80599 2.93154 4.17324 2.5643 4.17324 2.11128C4.17324 1.65826 3.80599 1.29102 3.35298 1.29102C2.89996 1.29102 2.53271 1.65826 2.53271 2.11128C2.53271 2.5643 2.89996 2.93154 3.35298 2.93154Z" fill="white"/>
<path d="M6.46638 2.93154C6.9194 2.93154 7.28664 2.5643 7.28664 2.11128C7.28664 1.65826 6.9194 1.29102 6.46638 1.29102C6.01336 1.29102 5.64612 1.65826 5.64612 2.11128C5.64612 2.5643 6.01336 2.93154 6.46638 2.93154Z" fill="white"/>
<path d="M9.57991 2.93154C10.0329 2.93154 10.4002 2.5643 10.4002 2.11128C10.4002 1.65826 10.0329 1.29102 9.57991 1.29102C9.12689 1.29102 8.75964 1.65826 8.75964 2.11128C8.75964 2.5643 9.12689 2.93154 9.57991 2.93154Z" fill="white"/>
<path d="M100.673 1.54653H97.0875C97.0171 1.54653 96.9496 1.51855 96.8997 1.46874C96.8499 1.41894 96.822 1.35139 96.822 1.28096C96.822 1.21052 96.8499 1.14297 96.8997 1.09316C96.9496 1.04336 97.0171 1.01538 97.0875 1.01538H100.673C100.743 1.01538 100.811 1.04336 100.861 1.09316C100.91 1.14297 100.938 1.21052 100.938 1.28096C100.938 1.35139 100.91 1.41894 100.861 1.46874C100.811 1.51855 100.743 1.54653 100.673 1.54653Z" fill="white"/>
<path d="M100.673 2.54262H97.0875C97.0526 2.54262 97.0181 2.53575 96.9859 2.5224C96.9537 2.50906 96.9244 2.4895 96.8997 2.46484C96.8751 2.44018 96.8555 2.4109 96.8422 2.37868C96.8288 2.34646 96.822 2.31192 96.822 2.27705C96.822 2.24217 96.8288 2.20764 96.8422 2.17542C96.8555 2.1432 96.8751 2.11392 96.8997 2.08926C96.9244 2.0646 96.9537 2.04504 96.9859 2.03169C97.0181 2.01834 97.0526 2.01147 97.0875 2.01147H100.673C100.708 2.01147 100.742 2.01834 100.774 2.03169C100.807 2.04504 100.836 2.0646 100.861 2.08926C100.885 2.11392 100.905 2.1432 100.918 2.17542C100.931 2.20764 100.938 2.24217 100.938 2.27705C100.938 2.31192 100.931 2.34646 100.918 2.37868C100.905 2.4109 100.885 2.44018 100.861 2.46484C100.836 2.4895 100.807 2.50906 100.774 2.5224C100.742 2.53575 100.708 2.54262 100.673 2.54262Z" fill="white"/>
<path d="M100.673 3.53847H97.0875C97.0171 3.53847 96.9496 3.51049 96.8997 3.46069C96.8499 3.41088 96.822 3.34333 96.822 3.2729C96.822 3.20246 96.8499 3.13492 96.8997 3.08511C96.9496 3.03531 97.0171 3.00732 97.0875 3.00732H100.673C100.743 3.00732 100.811 3.03531 100.861 3.08511C100.91 3.13492 100.938 3.20246 100.938 3.2729C100.938 3.34333 100.91 3.41088 100.861 3.46069C100.811 3.51049 100.743 3.53847 100.673 3.53847Z" fill="white"/>
<path d="M82.667 34.9051C83.4863 34.9051 84.1504 34.2409 84.1504 33.4217C84.1504 32.6024 83.4863 31.9382 82.667 31.9382C81.8477 31.9382 81.1836 32.6024 81.1836 33.4217C81.1836 34.2409 81.8477 34.9051 82.667 34.9051Z" fill="#F9A826"/>
<path d="M87.4843 34.9051C88.3036 34.9051 88.9677 34.2409 88.9677 33.4217C88.9677 32.6024 88.3036 31.9382 87.4843 31.9382C86.6651 31.9382 86.0009 32.6024 86.0009 33.4217C86.0009 34.2409 86.6651 34.9051 87.4843 34.9051Z" fill="#F9A826"/>
<path d="M92.3017 34.9051C93.1209 34.9051 93.7851 34.2409 93.7851 33.4217C93.7851 32.6024 93.1209 31.9382 92.3017 31.9382C91.4824 31.9382 90.8182 32.6024 90.8182 33.4217C90.8182 34.2409 91.4824 34.9051 92.3017 34.9051Z" fill="#F9A826"/>
<path d="M82.667 63.8086C83.4863 63.8086 84.1504 63.1445 84.1504 62.3252C84.1504 61.5059 83.4863 60.8418 82.667 60.8418C81.8477 60.8418 81.1836 61.5059 81.1836 62.3252C81.1836 63.1445 81.8477 63.8086 82.667 63.8086Z" fill="#E6E6E6"/>
<path d="M87.4843 63.8086C88.3036 63.8086 88.9677 63.1445 88.9677 62.3252C88.9677 61.5059 88.3036 60.8418 87.4843 60.8418C86.6651 60.8418 86.0009 61.5059 86.0009 62.3252C86.0009 63.1445 86.6651 63.8086 87.4843 63.8086Z" fill="#E6E6E6"/>
<path d="M92.3017 63.8086C93.1209 63.8086 93.7851 63.1445 93.7851 62.3252C93.7851 61.5059 93.1209 60.8418 92.3017 60.8418C91.4824 60.8418 90.8182 61.5059 90.8182 62.3252C90.8182 63.1445 91.4824 63.8086 92.3017 63.8086Z" fill="#E6E6E6"/>
<path d="M82.667 94.5772C83.4863 94.5772 84.1504 93.913 84.1504 93.0938C84.1504 92.2745 83.4863 91.6104 82.667 91.6104C81.8477 91.6104 81.1836 92.2745 81.1836 93.0938C81.1836 93.913 81.8477 94.5772 82.667 94.5772Z" fill="#E6E6E6"/>
<path d="M87.4843 94.5772C88.3036 94.5772 88.9677 93.913 88.9677 93.0938C88.9677 92.2745 88.3036 91.6104 87.4843 91.6104C86.6651 91.6104 86.0009 92.2745 86.0009 93.0938C86.0009 93.913 86.6651 94.5772 87.4843 94.5772Z" fill="#E6E6E6"/>
<path d="M92.3017 94.5772C93.1209 94.5772 93.7851 93.913 93.7851 93.0938C93.7851 92.2745 93.1209 91.6104 92.3017 91.6104C91.4824 91.6104 90.8182 92.2745 90.8182 93.0938C90.8182 93.913 91.4824 94.5772 92.3017 94.5772Z" fill="#E6E6E6"/>
<path d="M40.4437 34.7013L32.7974 29.86C32.6514 29.7676 32.4831 29.7162 32.3104 29.7113C32.1377 29.7064 31.9668 29.7482 31.8158 29.8322C31.6647 29.9162 31.5392 30.0394 31.4523 30.1887C31.3653 30.3381 31.3203 30.5081 31.3218 30.6809L31.397 39.0285C31.399 39.2504 31.4777 39.4647 31.6197 39.6352C31.7617 39.8057 31.9584 39.9218 32.1762 39.9638C32.3941 40.0058 32.6198 39.9712 32.815 39.8657C33.0103 39.7603 33.163 39.5906 33.2474 39.3854L34.2422 36.9655L37.0161 42.4341C37.1479 42.6929 37.3769 42.8888 37.653 42.9788C37.9291 43.0688 38.2296 43.0456 38.4886 42.9142C38.7476 42.7829 38.9438 42.5541 39.0343 42.2782C39.1247 42.0022 39.102 41.7017 38.971 41.4425L36.1341 35.8495L39.7699 36.4615C39.9888 36.4984 40.2137 36.4583 40.4064 36.3482C40.5992 36.238 40.7478 36.0646 40.8272 35.8572C40.9066 35.6499 40.9118 35.4215 40.8418 35.2108C40.7719 35.0001 40.6312 34.8201 40.4437 34.7013Z" fill="#3F3D56"/>
</svg>
