<svg width="273" height="343" viewBox="0 0 273 343" fill="none" xmlns="http://www.w3.org/2000/svg">
<rect width="272.127" height="343" rx="24" fill="white"/>
<path d="M79.3439 273.098C78.6906 273.098 78.1026 272.986 77.5799 272.762C77.0572 272.529 76.6466 272.202 76.3479 271.782C76.0492 271.362 75.8999 270.872 75.8999 270.312H77.6079C77.6452 270.732 77.8086 271.077 78.0979 271.348C78.3966 271.619 78.8119 271.754 79.3439 271.754C79.8946 271.754 80.3239 271.623 80.6319 271.362C80.9399 271.091 81.0939 270.746 81.0939 270.326C81.0939 269.999 80.9959 269.733 80.7999 269.528C80.6132 269.323 80.3752 269.164 80.0859 269.052C79.8059 268.94 79.4139 268.819 78.9099 268.688C78.2752 268.52 77.7572 268.352 77.3559 268.184C76.9639 268.007 76.6279 267.736 76.3479 267.372C76.0679 267.008 75.9279 266.523 75.9279 265.916C75.9279 265.356 76.0679 264.866 76.3479 264.446C76.6279 264.026 77.0199 263.704 77.5239 263.48C78.0279 263.256 78.6112 263.144 79.2739 263.144C80.2166 263.144 80.9866 263.382 81.5839 263.858C82.1906 264.325 82.5266 264.969 82.5919 265.79H80.8279C80.7999 265.435 80.6319 265.132 80.3239 264.88C80.0159 264.628 79.6099 264.502 79.1059 264.502C78.6486 264.502 78.2752 264.619 77.9859 264.852C77.6966 265.085 77.5519 265.421 77.5519 265.86C77.5519 266.159 77.6406 266.406 77.8179 266.602C78.0046 266.789 78.2379 266.938 78.5179 267.05C78.7979 267.162 79.1806 267.283 79.6659 267.414C80.3099 267.591 80.8326 267.769 81.2339 267.946C81.6446 268.123 81.9899 268.399 82.2699 268.772C82.5592 269.136 82.7039 269.626 82.7039 270.242C82.7039 270.737 82.5686 271.203 82.2979 271.642C82.0366 272.081 81.6492 272.435 81.1359 272.706C80.6319 272.967 80.0346 273.098 79.3439 273.098ZM91.6571 268.954C91.6571 269.243 91.6384 269.505 91.6011 269.738H85.7071C85.7538 270.354 85.9824 270.849 86.3931 271.222C86.8038 271.595 87.3078 271.782 87.9051 271.782C88.7638 271.782 89.3704 271.423 89.7251 270.704H91.4471C91.2138 271.413 90.7891 271.997 90.1731 272.454C89.5664 272.902 88.8104 273.126 87.9051 273.126C87.1678 273.126 86.5051 272.963 85.9171 272.636C85.3384 272.3 84.8811 271.833 84.5451 271.236C84.2184 270.629 84.0551 269.929 84.0551 269.136C84.0551 268.343 84.2138 267.647 84.5311 267.05C84.8578 266.443 85.3104 265.977 85.8891 265.65C86.4771 265.323 87.1491 265.16 87.9051 265.16C88.6331 265.16 89.2818 265.319 89.8511 265.636C90.4204 265.953 90.8638 266.401 91.1811 266.98C91.4984 267.549 91.6571 268.207 91.6571 268.954ZM89.9911 268.45C89.9818 267.862 89.7718 267.391 89.3611 267.036C88.9504 266.681 88.4418 266.504 87.8351 266.504C87.2844 266.504 86.8131 266.681 86.4211 267.036C86.0291 267.381 85.7958 267.853 85.7211 268.45H89.9911ZM94.8237 262.64V273H93.2277V262.64H94.8237ZM103.989 268.954C103.989 269.243 103.97 269.505 103.933 269.738H98.0391C98.0858 270.354 98.3145 270.849 98.7251 271.222C99.1358 271.595 99.6398 271.782 100.237 271.782C101.096 271.782 101.702 271.423 102.057 270.704H103.779C103.546 271.413 103.121 271.997 102.505 272.454C101.898 272.902 101.142 273.126 100.237 273.126C99.4998 273.126 98.8371 272.963 98.2491 272.636C97.6705 272.3 97.2131 271.833 96.8771 271.236C96.5505 270.629 96.3871 269.929 96.3871 269.136C96.3871 268.343 96.5458 267.647 96.8631 267.05C97.1898 266.443 97.6425 265.977 98.2211 265.65C98.8091 265.323 99.4811 265.16 100.237 265.16C100.965 265.16 101.614 265.319 102.183 265.636C102.752 265.953 103.196 266.401 103.513 266.98C103.83 267.549 103.989 268.207 103.989 268.954ZM102.323 268.45C102.314 267.862 102.104 267.391 101.693 267.036C101.282 266.681 100.774 266.504 100.167 266.504C99.6165 266.504 99.1451 266.681 98.7531 267.036C98.3611 267.381 98.1278 267.853 98.0531 268.45H102.323ZM105.028 269.136C105.028 268.343 105.186 267.647 105.504 267.05C105.83 266.443 106.278 265.977 106.848 265.65C107.417 265.323 108.07 265.16 108.808 265.16C109.741 265.16 110.511 265.384 111.118 265.832C111.734 266.271 112.149 266.901 112.364 267.722H110.642C110.502 267.339 110.278 267.041 109.97 266.826C109.662 266.611 109.274 266.504 108.808 266.504C108.154 266.504 107.632 266.737 107.24 267.204C106.857 267.661 106.666 268.305 106.666 269.136C106.666 269.967 106.857 270.615 107.24 271.082C107.632 271.549 108.154 271.782 108.808 271.782C109.732 271.782 110.343 271.376 110.642 270.564H112.364C112.14 271.348 111.72 271.973 111.104 272.44C110.488 272.897 109.722 273.126 108.808 273.126C108.07 273.126 107.417 272.963 106.848 272.636C106.278 272.3 105.83 271.833 105.504 271.236C105.186 270.629 105.028 269.929 105.028 269.136ZM115.816 266.588V270.858C115.816 271.147 115.882 271.357 116.012 271.488C116.152 271.609 116.386 271.67 116.712 271.67H117.692V273H116.432C115.714 273 115.163 272.832 114.78 272.496C114.398 272.16 114.206 271.614 114.206 270.858V266.588H113.296V265.286H114.206V263.368H115.816V265.286H117.692V266.588H115.816ZM124.662 266.588V270.858C124.662 271.147 124.727 271.357 124.858 271.488C124.998 271.609 125.231 271.67 125.558 271.67H126.538V273H125.278C124.559 273 124.009 272.832 123.626 272.496C123.243 272.16 123.052 271.614 123.052 270.858V266.588H122.142V265.286H123.052V263.368H124.662V265.286H126.538V266.588H124.662ZM131.999 265.16C132.587 265.16 133.11 265.286 133.567 265.538C134.034 265.79 134.398 266.163 134.659 266.658C134.93 267.153 135.065 267.75 135.065 268.45V273H133.483V268.688C133.483 267.997 133.31 267.47 132.965 267.106C132.62 266.733 132.148 266.546 131.551 266.546C130.954 266.546 130.478 266.733 130.123 267.106C129.778 267.47 129.605 267.997 129.605 268.688V273H128.009V262.64H129.605V266.182C129.876 265.855 130.216 265.603 130.627 265.426C131.047 265.249 131.504 265.16 131.999 265.16ZM144.171 268.954C144.171 269.243 144.152 269.505 144.115 269.738H138.221C138.267 270.354 138.496 270.849 138.907 271.222C139.317 271.595 139.821 271.782 140.419 271.782C141.277 271.782 141.884 271.423 142.239 270.704H143.961C143.727 271.413 143.303 271.997 142.687 272.454C142.08 272.902 141.324 273.126 140.419 273.126C139.681 273.126 139.019 272.963 138.431 272.636C137.852 272.3 137.395 271.833 137.059 271.236C136.732 270.629 136.569 269.929 136.569 269.136C136.569 268.343 136.727 267.647 137.045 267.05C137.371 266.443 137.824 265.977 138.403 265.65C138.991 265.323 139.663 265.16 140.419 265.16C141.147 265.16 141.795 265.319 142.365 265.636C142.934 265.953 143.377 266.401 143.695 266.98C144.012 267.549 144.171 268.207 144.171 268.954ZM142.505 268.45C142.495 267.862 142.285 267.391 141.875 267.036C141.464 266.681 140.955 266.504 140.349 266.504C139.798 266.504 139.327 266.681 138.935 267.036C138.543 267.381 138.309 267.853 138.235 268.45H142.505ZM152.178 273.126C151.571 273.126 151.025 273.019 150.54 272.804C150.064 272.58 149.686 272.281 149.406 271.908C149.126 271.525 148.977 271.101 148.958 270.634H150.61C150.638 270.961 150.792 271.236 151.072 271.46C151.361 271.675 151.721 271.782 152.15 271.782C152.598 271.782 152.943 271.698 153.186 271.53C153.438 271.353 153.564 271.129 153.564 270.858C153.564 270.569 153.424 270.354 153.144 270.214C152.873 270.074 152.439 269.92 151.842 269.752C151.263 269.593 150.792 269.439 150.428 269.29C150.064 269.141 149.747 268.912 149.476 268.604C149.215 268.296 149.084 267.89 149.084 267.386C149.084 266.975 149.205 266.602 149.448 266.266C149.691 265.921 150.036 265.65 150.484 265.454C150.941 265.258 151.464 265.16 152.052 265.16C152.929 265.16 153.634 265.384 154.166 265.832C154.707 266.271 154.997 266.873 155.034 267.638H153.438C153.41 267.293 153.27 267.017 153.018 266.812C152.766 266.607 152.425 266.504 151.996 266.504C151.576 266.504 151.254 266.583 151.03 266.742C150.806 266.901 150.694 267.111 150.694 267.372C150.694 267.577 150.769 267.75 150.918 267.89C151.067 268.03 151.249 268.142 151.464 268.226C151.679 268.301 151.996 268.399 152.416 268.52C152.976 268.669 153.433 268.823 153.788 268.982C154.152 269.131 154.465 269.355 154.726 269.654C154.987 269.953 155.123 270.349 155.132 270.844C155.132 271.283 155.011 271.675 154.768 272.02C154.525 272.365 154.18 272.636 153.732 272.832C153.293 273.028 152.775 273.126 152.178 273.126ZM158.453 266.42C158.723 266.065 159.092 265.767 159.559 265.524C160.025 265.281 160.553 265.16 161.141 265.16C161.813 265.16 162.424 265.328 162.975 265.664C163.535 265.991 163.973 266.453 164.291 267.05C164.608 267.647 164.767 268.333 164.767 269.108C164.767 269.883 164.608 270.578 164.291 271.194C163.973 271.801 163.535 272.277 162.975 272.622C162.424 272.958 161.813 273.126 161.141 273.126C160.553 273.126 160.03 273.009 159.573 272.776C159.115 272.533 158.742 272.235 158.453 271.88V276.668H156.857V265.286H158.453V266.42ZM163.143 269.108C163.143 268.576 163.031 268.119 162.807 267.736C162.592 267.344 162.303 267.05 161.939 266.854C161.584 266.649 161.201 266.546 160.791 266.546C160.389 266.546 160.007 266.649 159.643 266.854C159.288 267.059 158.999 267.358 158.775 267.75C158.56 268.142 158.453 268.604 158.453 269.136C158.453 269.668 158.56 270.135 158.775 270.536C158.999 270.928 159.288 271.227 159.643 271.432C160.007 271.637 160.389 271.74 160.791 271.74C161.201 271.74 161.584 271.637 161.939 271.432C162.303 271.217 162.592 270.909 162.807 270.508C163.031 270.107 163.143 269.64 163.143 269.108ZM165.813 269.108C165.813 268.333 165.972 267.647 166.289 267.05C166.616 266.453 167.054 265.991 167.605 265.664C168.165 265.328 168.781 265.16 169.453 265.16C170.06 265.16 170.587 265.281 171.035 265.524C171.492 265.757 171.856 266.051 172.127 266.406V265.286H173.737V273H172.127V271.852C171.856 272.216 171.488 272.519 171.021 272.762C170.554 273.005 170.022 273.126 169.425 273.126C168.762 273.126 168.156 272.958 167.605 272.622C167.054 272.277 166.616 271.801 166.289 271.194C165.972 270.578 165.813 269.883 165.813 269.108ZM172.127 269.136C172.127 268.604 172.015 268.142 171.791 267.75C171.576 267.358 171.292 267.059 170.937 266.854C170.582 266.649 170.2 266.546 169.789 266.546C169.378 266.546 168.996 266.649 168.641 266.854C168.286 267.05 167.997 267.344 167.773 267.736C167.558 268.119 167.451 268.576 167.451 269.108C167.451 269.64 167.558 270.107 167.773 270.508C167.997 270.909 168.286 271.217 168.641 271.432C169.005 271.637 169.388 271.74 169.789 271.74C170.2 271.74 170.582 271.637 170.937 271.432C171.292 271.227 171.576 270.928 171.791 270.536C172.015 270.135 172.127 269.668 172.127 269.136ZM175.301 269.108C175.301 268.333 175.46 267.647 175.777 267.05C176.104 266.453 176.543 265.991 177.093 265.664C177.653 265.328 178.274 265.16 178.955 265.16C179.459 265.16 179.954 265.272 180.439 265.496C180.934 265.711 181.326 266 181.615 266.364V262.64H183.225V273H181.615V271.838C181.354 272.211 180.99 272.519 180.523 272.762C180.066 273.005 179.539 273.126 178.941 273.126C178.269 273.126 177.653 272.958 177.093 272.622C176.543 272.277 176.104 271.801 175.777 271.194C175.46 270.578 175.301 269.883 175.301 269.108ZM181.615 269.136C181.615 268.604 181.503 268.142 181.279 267.75C181.065 267.358 180.78 267.059 180.425 266.854C180.071 266.649 179.688 266.546 179.277 266.546C178.867 266.546 178.484 266.649 178.129 266.854C177.775 267.05 177.485 267.344 177.261 267.736C177.047 268.119 176.939 268.576 176.939 269.108C176.939 269.64 177.047 270.107 177.261 270.508C177.485 270.909 177.775 271.217 178.129 271.432C178.493 271.637 178.876 271.74 179.277 271.74C179.688 271.74 180.071 271.637 180.425 271.432C180.78 271.227 181.065 270.928 181.279 270.536C181.503 270.135 181.615 269.668 181.615 269.136ZM192.391 268.954C192.391 269.243 192.373 269.505 192.335 269.738H186.441C186.488 270.354 186.717 270.849 187.127 271.222C187.538 271.595 188.042 271.782 188.639 271.782C189.498 271.782 190.105 271.423 190.459 270.704H192.181C191.948 271.413 191.523 271.997 190.907 272.454C190.301 272.902 189.545 273.126 188.639 273.126C187.902 273.126 187.239 272.963 186.651 272.636C186.073 272.3 185.615 271.833 185.279 271.236C184.953 270.629 184.789 269.929 184.789 269.136C184.789 268.343 184.948 267.647 185.265 267.05C185.592 266.443 186.045 265.977 186.623 265.65C187.211 265.323 187.883 265.16 188.639 265.16C189.367 265.16 190.016 265.319 190.585 265.636C191.155 265.953 191.598 266.401 191.915 266.98C192.233 267.549 192.391 268.207 192.391 268.954ZM190.725 268.45C190.716 267.862 190.506 267.391 190.095 267.036C189.685 266.681 189.176 266.504 188.569 266.504C188.019 266.504 187.547 266.681 187.155 267.036C186.763 267.381 186.53 267.853 186.455 268.45H190.725ZM100.995 290.136C100.995 289.343 101.153 288.647 101.471 288.05C101.797 287.443 102.245 286.977 102.815 286.65C103.384 286.323 104.037 286.16 104.775 286.16C105.708 286.16 106.478 286.384 107.085 286.832C107.701 287.271 108.116 287.901 108.331 288.722H106.609C106.469 288.339 106.245 288.041 105.937 287.826C105.629 287.611 105.241 287.504 104.775 287.504C104.121 287.504 103.599 287.737 103.207 288.204C102.824 288.661 102.633 289.305 102.633 290.136C102.633 290.967 102.824 291.615 103.207 292.082C103.599 292.549 104.121 292.782 104.775 292.782C105.699 292.782 106.31 292.376 106.609 291.564H108.331C108.107 292.348 107.687 292.973 107.071 293.44C106.455 293.897 105.689 294.126 104.775 294.126C104.037 294.126 103.384 293.963 102.815 293.636C102.245 293.3 101.797 292.833 101.471 292.236C101.153 291.629 100.995 290.929 100.995 290.136ZM109.389 290.108C109.389 289.333 109.548 288.647 109.865 288.05C110.192 287.453 110.63 286.991 111.181 286.664C111.741 286.328 112.357 286.16 113.029 286.16C113.636 286.16 114.163 286.281 114.611 286.524C115.068 286.757 115.432 287.051 115.703 287.406V286.286H117.313V294H115.703V292.852C115.432 293.216 115.064 293.519 114.597 293.762C114.13 294.005 113.598 294.126 113.001 294.126C112.338 294.126 111.732 293.958 111.181 293.622C110.63 293.277 110.192 292.801 109.865 292.194C109.548 291.578 109.389 290.883 109.389 290.108ZM115.703 290.136C115.703 289.604 115.591 289.142 115.367 288.75C115.152 288.358 114.868 288.059 114.513 287.854C114.158 287.649 113.776 287.546 113.365 287.546C112.954 287.546 112.572 287.649 112.217 287.854C111.862 288.05 111.573 288.344 111.349 288.736C111.134 289.119 111.027 289.576 111.027 290.108C111.027 290.64 111.134 291.107 111.349 291.508C111.573 291.909 111.862 292.217 112.217 292.432C112.581 292.637 112.964 292.74 113.365 292.74C113.776 292.74 114.158 292.637 114.513 292.432C114.868 292.227 115.152 291.928 115.367 291.536C115.591 291.135 115.703 290.668 115.703 290.136ZM121.271 287.588V291.858C121.271 292.147 121.337 292.357 121.467 292.488C121.607 292.609 121.841 292.67 122.167 292.67H123.147V294H121.887C121.169 294 120.618 293.832 120.235 293.496C119.853 293.16 119.661 292.614 119.661 291.858V287.588H118.751V286.286H119.661V284.368H121.271V286.286H123.147V287.588H121.271ZM131.688 289.954C131.688 290.243 131.67 290.505 131.632 290.738H125.738C125.785 291.354 126.014 291.849 126.424 292.222C126.835 292.595 127.339 292.782 127.936 292.782C128.795 292.782 129.402 292.423 129.756 291.704H131.478C131.245 292.413 130.82 292.997 130.204 293.454C129.598 293.902 128.842 294.126 127.936 294.126C127.199 294.126 126.536 293.963 125.948 293.636C125.37 293.3 124.912 292.833 124.576 292.236C124.25 291.629 124.086 290.929 124.086 290.136C124.086 289.343 124.245 288.647 124.562 288.05C124.889 287.443 125.342 286.977 125.92 286.65C126.508 286.323 127.18 286.16 127.936 286.16C128.664 286.16 129.313 286.319 129.882 286.636C130.452 286.953 130.895 287.401 131.212 287.98C131.53 288.549 131.688 289.207 131.688 289.954ZM130.022 289.45C130.013 288.862 129.803 288.391 129.392 288.036C128.982 287.681 128.473 287.504 127.866 287.504C127.316 287.504 126.844 287.681 126.452 288.036C126.06 288.381 125.827 288.853 125.752 289.45H130.022ZM136.367 286.16C136.964 286.16 137.492 286.281 137.949 286.524C138.416 286.757 138.78 287.051 139.041 287.406V286.286H140.651V294.126C140.651 294.835 140.502 295.465 140.203 296.016C139.904 296.576 139.47 297.015 138.901 297.332C138.341 297.649 137.669 297.808 136.885 297.808C135.84 297.808 134.972 297.561 134.281 297.066C133.59 296.581 133.198 295.918 133.105 295.078H134.687C134.808 295.479 135.065 295.801 135.457 296.044C135.858 296.296 136.334 296.422 136.885 296.422C137.529 296.422 138.047 296.226 138.439 295.834C138.84 295.442 139.041 294.873 139.041 294.126V292.838C138.77 293.202 138.402 293.51 137.935 293.762C137.478 294.005 136.955 294.126 136.367 294.126C135.695 294.126 135.079 293.958 134.519 293.622C133.968 293.277 133.53 292.801 133.203 292.194C132.886 291.578 132.727 290.883 132.727 290.108C132.727 289.333 132.886 288.647 133.203 288.05C133.53 287.453 133.968 286.991 134.519 286.664C135.079 286.328 135.695 286.16 136.367 286.16ZM139.041 290.136C139.041 289.604 138.929 289.142 138.705 288.75C138.49 288.358 138.206 288.059 137.851 287.854C137.496 287.649 137.114 287.546 136.703 287.546C136.292 287.546 135.91 287.649 135.555 287.854C135.2 288.05 134.911 288.344 134.687 288.736C134.472 289.119 134.365 289.576 134.365 290.108C134.365 290.64 134.472 291.107 134.687 291.508C134.911 291.909 135.2 292.217 135.555 292.432C135.919 292.637 136.302 292.74 136.703 292.74C137.114 292.74 137.496 292.637 137.851 292.432C138.206 292.227 138.49 291.928 138.705 291.536C138.929 291.135 139.041 290.668 139.041 290.136ZM146.093 294.126C145.365 294.126 144.707 293.963 144.119 293.636C143.531 293.3 143.069 292.833 142.733 292.236C142.397 291.629 142.229 290.929 142.229 290.136C142.229 289.352 142.402 288.657 142.747 288.05C143.093 287.443 143.564 286.977 144.161 286.65C144.759 286.323 145.426 286.16 146.163 286.16C146.901 286.16 147.568 286.323 148.165 286.65C148.763 286.977 149.234 287.443 149.579 288.05C149.925 288.657 150.097 289.352 150.097 290.136C150.097 290.92 149.92 291.615 149.565 292.222C149.211 292.829 148.725 293.3 148.109 293.636C147.503 293.963 146.831 294.126 146.093 294.126ZM146.093 292.74C146.504 292.74 146.887 292.642 147.241 292.446C147.605 292.25 147.899 291.956 148.123 291.564C148.347 291.172 148.459 290.696 148.459 290.136C148.459 289.576 148.352 289.105 148.137 288.722C147.923 288.33 147.638 288.036 147.283 287.84C146.929 287.644 146.546 287.546 146.135 287.546C145.725 287.546 145.342 287.644 144.987 287.84C144.642 288.036 144.367 288.33 144.161 288.722C143.956 289.105 143.853 289.576 143.853 290.136C143.853 290.967 144.063 291.611 144.483 292.068C144.913 292.516 145.449 292.74 146.093 292.74ZM153.271 287.406C153.504 287.014 153.812 286.711 154.195 286.496C154.587 286.272 155.049 286.16 155.581 286.16V287.812H155.175C154.55 287.812 154.074 287.971 153.747 288.288C153.43 288.605 153.271 289.156 153.271 289.94V294H151.675V286.286H153.271V287.406ZM163.992 286.286L159.26 297.626H157.608L159.176 293.874L156.138 286.286H157.916L160.086 292.166L162.34 286.286H163.992ZM165.84 294.098C165.551 294.098 165.308 294 165.112 293.804C164.916 293.608 164.818 293.365 164.818 293.076C164.818 292.787 164.916 292.544 165.112 292.348C165.308 292.152 165.551 292.054 165.84 292.054C166.12 292.054 166.358 292.152 166.554 292.348C166.75 292.544 166.848 292.787 166.848 293.076C166.848 293.365 166.75 293.608 166.554 293.804C166.358 294 166.12 294.098 165.84 294.098Z" fill="#2E2C43"/>
<path d="M33.504 57.098C32.8507 57.098 32.2627 56.986 31.74 56.762C31.2174 56.5287 30.8067 56.202 30.508 55.782C30.2094 55.362 30.06 54.872 30.06 54.312H31.768C31.8054 54.732 31.9687 55.0773 32.258 55.348C32.5567 55.6187 32.972 55.754 33.504 55.754C34.0547 55.754 34.484 55.6233 34.792 55.362C35.1 55.0913 35.254 54.746 35.254 54.326C35.254 53.9993 35.156 53.7333 34.96 53.528C34.7734 53.3227 34.5354 53.164 34.246 53.052C33.966 52.94 33.574 52.8187 33.07 52.688C32.4354 52.52 31.9174 52.352 31.516 52.184C31.124 52.0067 30.788 51.736 30.508 51.372C30.228 51.008 30.088 50.5227 30.088 49.916C30.088 49.356 30.228 48.866 30.508 48.446C30.788 48.026 31.18 47.704 31.684 47.48C32.188 47.256 32.7714 47.144 33.434 47.144C34.3767 47.144 35.1467 47.382 35.744 47.858C36.3507 48.3247 36.6867 48.9687 36.752 49.79H34.988C34.96 49.4353 34.792 49.132 34.484 48.88C34.176 48.628 33.77 48.502 33.266 48.502C32.8087 48.502 32.4354 48.6187 32.146 48.852C31.8567 49.0853 31.712 49.4213 31.712 49.86C31.712 50.1587 31.8007 50.406 31.978 50.602C32.1647 50.7887 32.398 50.938 32.678 51.05C32.958 51.162 33.3407 51.2833 33.826 51.414C34.47 51.5913 34.9927 51.7687 35.394 51.946C35.8047 52.1233 36.15 52.3987 36.43 52.772C36.7194 53.136 36.864 53.626 36.864 54.242C36.864 54.7367 36.7287 55.2033 36.458 55.642C36.1967 56.0807 35.8094 56.4353 35.296 56.706C34.792 56.9673 34.1947 57.098 33.504 57.098ZM40.6093 50.588V54.858C40.6093 55.1473 40.6746 55.3573 40.8053 55.488C40.9453 55.6093 41.1786 55.67 41.5053 55.67H42.4853V57H41.2253C40.5066 57 39.9559 56.832 39.5733 56.496C39.1906 56.16 38.9993 55.614 38.9993 54.858V50.588H38.0893V49.286H38.9993V47.368H40.6093V49.286H42.4853V50.588H40.6093ZM51.0263 52.954C51.0263 53.2433 51.0076 53.5047 50.9703 53.738H45.0763C45.1229 54.354 45.3516 54.8487 45.7623 55.222C46.1729 55.5953 46.6769 55.782 47.2743 55.782C48.1329 55.782 48.7396 55.4227 49.0943 54.704H50.8162C50.5829 55.4133 50.1583 55.9967 49.5423 56.454C48.9356 56.902 48.1796 57.126 47.2743 57.126C46.5369 57.126 45.8743 56.9627 45.2863 56.636C44.7076 56.3 44.2503 55.8333 43.9143 55.236C43.5876 54.6293 43.4243 53.9293 43.4243 53.136C43.4243 52.3427 43.5829 51.6473 43.9003 51.05C44.2269 50.4433 44.6796 49.9767 45.2583 49.65C45.8463 49.3233 46.5183 49.16 47.2743 49.16C48.0023 49.16 48.6509 49.3187 49.2203 49.636C49.7896 49.9533 50.2329 50.4013 50.5503 50.98C50.8676 51.5493 51.0263 52.2073 51.0263 52.954ZM49.3603 52.45C49.3509 51.862 49.1409 51.3907 48.7303 51.036C48.3196 50.6813 47.8109 50.504 47.2043 50.504C46.6536 50.504 46.1823 50.6813 45.7903 51.036C45.3983 51.3813 45.1649 51.8527 45.0903 52.45H49.3603ZM54.1929 50.42C54.4635 50.0653 54.8322 49.7667 55.2989 49.524C55.7655 49.2813 56.2929 49.16 56.8809 49.16C57.5529 49.16 58.1642 49.328 58.7149 49.664C59.2749 49.9907 59.7135 50.4527 60.0309 51.05C60.3482 51.6473 60.5069 52.3333 60.5069 53.108C60.5069 53.8827 60.3482 54.578 60.0309 55.194C59.7135 55.8007 59.2749 56.2767 58.7149 56.622C58.1642 56.958 57.5529 57.126 56.8809 57.126C56.2929 57.126 55.7702 57.0093 55.3129 56.776C54.8555 56.5333 54.4822 56.2347 54.1929 55.88V60.668H52.5969V49.286H54.1929V50.42ZM58.8829 53.108C58.8829 52.576 58.7709 52.1187 58.5469 51.736C58.3322 51.344 58.0429 51.05 57.6789 50.854C57.3242 50.6487 56.9415 50.546 56.5309 50.546C56.1295 50.546 55.7469 50.6487 55.3829 50.854C55.0282 51.0593 54.7389 51.358 54.5149 51.75C54.3002 52.142 54.1929 52.604 54.1929 53.136C54.1929 53.668 54.3002 54.1347 54.5149 54.536C54.7389 54.928 55.0282 55.2267 55.3829 55.432C55.7469 55.6373 56.1295 55.74 56.5309 55.74C56.9415 55.74 57.3242 55.6373 57.6789 55.432C58.0429 55.2173 58.3322 54.9093 58.5469 54.508C58.7709 54.1067 58.8829 53.64 58.8829 53.108ZM66.3939 54.83C67.2899 54.0553 67.9945 53.4207 68.5079 52.926C69.0305 52.422 69.4645 51.8993 69.8099 51.358C70.1552 50.8167 70.3279 50.2753 70.3279 49.734C70.3279 49.174 70.1925 48.7353 69.9219 48.418C69.6605 48.1007 69.2452 47.942 68.6759 47.942C68.1252 47.942 67.6959 48.1193 67.3879 48.474C67.0892 48.8193 66.9305 49.286 66.9119 49.874H65.3719C65.3999 48.81 65.7172 47.998 66.3239 47.438C66.9399 46.8687 67.7192 46.584 68.6619 46.584C69.6792 46.584 70.4725 46.864 71.0419 47.424C71.6205 47.984 71.9099 48.7307 71.9099 49.664C71.9099 50.336 71.7372 50.9847 71.3919 51.61C71.0559 52.226 70.6499 52.7813 70.1739 53.276C69.7072 53.7613 69.1099 54.326 68.3819 54.97L67.7519 55.53H72.1899V56.86H65.3859V55.698L66.3939 54.83Z" fill="black"/>
<path d="M100.047 131V135.501H99.4554V132.145L97.9593 135.501H97.543L96.0405 132.139V135.501H95.4485V131H96.086L97.7512 134.721L99.4164 131H100.047ZM101.357 131.358C101.244 131.358 101.149 131.319 101.071 131.241C100.993 131.163 100.954 131.067 100.954 130.955C100.954 130.842 100.993 130.747 101.071 130.669C101.149 130.59 101.244 130.551 101.357 130.551C101.465 130.551 101.556 130.59 101.63 130.669C101.708 130.747 101.747 130.842 101.747 130.955C101.747 131.067 101.708 131.163 101.63 131.241C101.556 131.319 101.465 131.358 101.357 131.358ZM101.643 131.937V135.501H101.051V131.937H101.643ZM103.914 135.56C103.641 135.56 103.396 135.514 103.179 135.423C102.962 135.328 102.791 135.198 102.665 135.033C102.539 134.864 102.47 134.671 102.457 134.454H103.068C103.086 134.632 103.168 134.777 103.315 134.89C103.467 135.003 103.664 135.059 103.907 135.059C104.133 135.059 104.311 135.009 104.441 134.91C104.571 134.81 104.636 134.684 104.636 134.532C104.636 134.376 104.566 134.261 104.428 134.188C104.289 134.109 104.074 134.034 103.784 133.96C103.519 133.89 103.302 133.821 103.133 133.752C102.968 133.678 102.825 133.572 102.704 133.433C102.587 133.29 102.528 133.103 102.528 132.874C102.528 132.691 102.583 132.525 102.691 132.373C102.799 132.221 102.953 132.102 103.153 132.015C103.352 131.924 103.58 131.878 103.836 131.878C104.23 131.878 104.549 131.978 104.792 132.178C105.035 132.377 105.165 132.65 105.182 132.997H104.59C104.577 132.811 104.501 132.661 104.363 132.548C104.228 132.436 104.046 132.379 103.816 132.379C103.604 132.379 103.435 132.425 103.309 132.516C103.183 132.607 103.12 132.726 103.12 132.874C103.12 132.991 103.157 133.088 103.231 133.166C103.309 133.24 103.404 133.301 103.517 133.348C103.634 133.392 103.795 133.442 103.998 133.498C104.254 133.567 104.462 133.637 104.623 133.706C104.783 133.771 104.92 133.871 105.033 134.005C105.15 134.14 105.21 134.315 105.215 134.532C105.215 134.727 105.161 134.903 105.052 135.059C104.944 135.215 104.79 135.339 104.59 135.43C104.395 135.517 104.17 135.56 103.914 135.56ZM105.829 133.713C105.829 133.344 105.903 133.023 106.05 132.75C106.198 132.472 106.402 132.258 106.662 132.106C106.926 131.954 107.228 131.878 107.566 131.878C108.004 131.878 108.364 131.985 108.646 132.197C108.932 132.41 109.12 132.704 109.212 133.082H108.574C108.513 132.865 108.394 132.694 108.216 132.568C108.043 132.442 107.826 132.379 107.566 132.379C107.228 132.379 106.954 132.496 106.746 132.73C106.538 132.96 106.434 133.288 106.434 133.713C106.434 134.142 106.538 134.474 106.746 134.708C106.954 134.942 107.228 135.059 107.566 135.059C107.826 135.059 108.043 134.998 108.216 134.877C108.39 134.756 108.509 134.582 108.574 134.357H109.212C109.116 134.721 108.925 135.014 108.639 135.235C108.353 135.452 107.995 135.56 107.566 135.56C107.228 135.56 106.926 135.484 106.662 135.332C106.402 135.181 106.198 134.966 106.05 134.688C105.903 134.411 105.829 134.086 105.829 133.713ZM113.254 133.583C113.254 133.695 113.247 133.815 113.234 133.94H110.385C110.407 134.292 110.526 134.567 110.743 134.766C110.964 134.962 111.231 135.059 111.543 135.059C111.799 135.059 112.011 135.001 112.18 134.884C112.354 134.762 112.475 134.602 112.545 134.402H113.182C113.087 134.745 112.896 135.024 112.61 135.241C112.324 135.454 111.968 135.56 111.543 135.56C111.205 135.56 110.901 135.484 110.632 135.332C110.368 135.181 110.16 134.966 110.008 134.688C109.856 134.407 109.78 134.081 109.78 133.713C109.78 133.344 109.854 133.021 110.001 132.744C110.149 132.466 110.355 132.253 110.619 132.106C110.888 131.954 111.196 131.878 111.543 131.878C111.881 131.878 112.18 131.952 112.441 132.1C112.701 132.247 112.9 132.451 113.039 132.711C113.182 132.967 113.254 133.257 113.254 133.583ZM112.642 133.459C112.642 133.234 112.592 133.041 112.493 132.88C112.393 132.715 112.256 132.592 112.083 132.509C111.914 132.423 111.725 132.379 111.517 132.379C111.218 132.379 110.962 132.475 110.749 132.665C110.541 132.856 110.422 133.121 110.392 133.459H112.642ZM114.627 130.688V135.501H114.035V130.688H114.627ZM116.228 130.688V135.501H115.636V130.688H116.228ZM117.015 133.706C117.015 133.342 117.089 133.023 117.236 132.75C117.384 132.472 117.586 132.258 117.841 132.106C118.102 131.954 118.39 131.878 118.707 131.878C119.019 131.878 119.29 131.946 119.52 132.08C119.749 132.214 119.921 132.384 120.033 132.587V131.937H120.632V135.501H120.033V134.838C119.916 135.046 119.741 135.22 119.507 135.358C119.277 135.493 119.008 135.56 118.7 135.56C118.383 135.56 118.097 135.482 117.841 135.326C117.586 135.17 117.384 134.951 117.236 134.669C117.089 134.387 117.015 134.066 117.015 133.706ZM120.033 133.713C120.033 133.444 119.979 133.21 119.871 133.01C119.762 132.811 119.615 132.659 119.429 132.555C119.246 132.446 119.045 132.392 118.824 132.392C118.602 132.392 118.401 132.444 118.219 132.548C118.037 132.652 117.891 132.804 117.783 133.004C117.674 133.203 117.62 133.437 117.62 133.706C117.62 133.979 117.674 134.218 117.783 134.422C117.891 134.621 118.037 134.775 118.219 134.884C118.401 134.988 118.602 135.04 118.824 135.04C119.045 135.04 119.246 134.988 119.429 134.884C119.615 134.775 119.762 134.621 119.871 134.422C119.979 134.218 120.033 133.982 120.033 133.713ZM123.369 131.872C123.803 131.872 124.154 132.004 124.423 132.269C124.692 132.529 124.826 132.906 124.826 133.4V135.501H124.241V133.485C124.241 133.129 124.152 132.858 123.974 132.672C123.796 132.481 123.553 132.386 123.245 132.386C122.933 132.386 122.684 132.483 122.497 132.678C122.315 132.874 122.224 133.158 122.224 133.531V135.501H121.632V131.937H122.224V132.444C122.341 132.262 122.499 132.121 122.699 132.021C122.903 131.922 123.126 131.872 123.369 131.872ZM129.045 133.583C129.045 133.695 129.039 133.815 129.026 133.94H126.177C126.198 134.292 126.318 134.567 126.534 134.766C126.756 134.962 127.022 135.059 127.334 135.059C127.59 135.059 127.803 135.001 127.972 134.884C128.145 134.762 128.267 134.602 128.336 134.402H128.974C128.878 134.745 128.687 135.024 128.401 135.241C128.115 135.454 127.759 135.56 127.334 135.56C126.996 135.56 126.693 135.484 126.424 135.332C126.159 135.181 125.951 134.966 125.799 134.688C125.648 134.407 125.572 134.081 125.572 133.713C125.572 133.344 125.645 133.021 125.793 132.744C125.94 132.466 126.146 132.253 126.411 132.106C126.68 131.954 126.988 131.878 127.334 131.878C127.673 131.878 127.972 131.952 128.232 132.1C128.492 132.247 128.692 132.451 128.83 132.711C128.974 132.967 129.045 133.257 129.045 133.583ZM128.434 133.459C128.434 133.234 128.384 133.041 128.284 132.88C128.184 132.715 128.048 132.592 127.874 132.509C127.705 132.423 127.517 132.379 127.308 132.379C127.009 132.379 126.753 132.475 126.541 132.665C126.333 132.856 126.213 133.121 126.183 133.459H128.434ZM131.381 135.56C131.047 135.56 130.744 135.484 130.47 135.332C130.202 135.181 129.989 134.966 129.833 134.688C129.681 134.407 129.605 134.081 129.605 133.713C129.605 133.348 129.683 133.028 129.839 132.75C130 132.468 130.217 132.253 130.49 132.106C130.763 131.954 131.069 131.878 131.407 131.878C131.745 131.878 132.051 131.954 132.324 132.106C132.597 132.253 132.812 132.466 132.968 132.744C133.129 133.021 133.209 133.344 133.209 133.713C133.209 134.081 133.126 134.407 132.962 134.688C132.801 134.966 132.582 135.181 132.305 135.332C132.027 135.484 131.719 135.56 131.381 135.56ZM131.381 135.04C131.594 135.04 131.793 134.99 131.979 134.89C132.166 134.79 132.316 134.641 132.428 134.441C132.545 134.242 132.604 133.999 132.604 133.713C132.604 133.426 132.548 133.184 132.435 132.984C132.322 132.785 132.175 132.637 131.992 132.542C131.81 132.442 131.613 132.392 131.401 132.392C131.184 132.392 130.984 132.442 130.802 132.542C130.624 132.637 130.481 132.785 130.373 132.984C130.264 133.184 130.21 133.426 130.21 133.713C130.21 134.003 130.262 134.248 130.366 134.448C130.475 134.647 130.618 134.797 130.796 134.897C130.973 134.992 131.169 135.04 131.381 135.04ZM137.148 131.937V135.501H136.556V134.975C136.444 135.157 136.285 135.3 136.082 135.404C135.882 135.504 135.661 135.554 135.418 135.554C135.141 135.554 134.891 135.497 134.67 135.384C134.449 135.267 134.273 135.094 134.143 134.864C134.017 134.634 133.955 134.354 133.955 134.025V131.937H134.54V133.947C134.54 134.298 134.629 134.569 134.807 134.76C134.984 134.946 135.227 135.04 135.535 135.04C135.852 135.04 136.101 134.942 136.283 134.747C136.465 134.552 136.556 134.268 136.556 133.895V131.937H137.148ZM139.41 135.56C139.136 135.56 138.891 135.514 138.675 135.423C138.458 135.328 138.287 135.198 138.161 135.033C138.035 134.864 137.966 134.671 137.953 134.454H138.564C138.581 134.632 138.664 134.777 138.811 134.89C138.963 135.003 139.16 135.059 139.403 135.059C139.629 135.059 139.806 135.009 139.937 134.91C140.067 134.81 140.132 134.684 140.132 134.532C140.132 134.376 140.062 134.261 139.924 134.188C139.785 134.109 139.57 134.034 139.28 133.96C139.015 133.89 138.798 133.821 138.629 133.752C138.464 133.678 138.321 133.572 138.2 133.433C138.083 133.29 138.024 133.103 138.024 132.874C138.024 132.691 138.078 132.525 138.187 132.373C138.295 132.221 138.449 132.102 138.649 132.015C138.848 131.924 139.076 131.878 139.332 131.878C139.726 131.878 140.045 131.978 140.288 132.178C140.531 132.377 140.661 132.65 140.678 132.997H140.086C140.073 132.811 139.997 132.661 139.859 132.548C139.724 132.436 139.542 132.379 139.312 132.379C139.1 132.379 138.931 132.425 138.805 132.516C138.679 132.607 138.616 132.726 138.616 132.874C138.616 132.991 138.653 133.088 138.727 133.166C138.805 133.24 138.9 133.301 139.013 133.348C139.13 133.392 139.29 133.442 139.494 133.498C139.75 133.567 139.958 133.637 140.119 133.706C140.279 133.771 140.416 133.871 140.528 134.005C140.646 134.14 140.706 134.315 140.711 134.532C140.711 134.727 140.656 134.903 140.548 135.059C140.44 135.215 140.286 135.339 140.086 135.43C139.891 135.517 139.666 135.56 139.41 135.56Z" fill="#2E2C43"/>
<path d="M96.8861 161.101C96.5869 161.101 96.318 161.049 96.0795 160.945C95.8453 160.836 95.661 160.689 95.5266 160.503C95.3922 160.312 95.3228 160.093 95.3185 159.846H95.9494C95.9711 160.058 96.0578 160.238 96.2096 160.385C96.3657 160.529 96.5912 160.6 96.8861 160.6C97.1679 160.6 97.3891 160.531 97.5495 160.392C97.7143 160.249 97.7967 160.067 97.7967 159.846C97.7967 159.672 97.749 159.531 97.6536 159.423C97.5582 159.314 97.439 159.232 97.2959 159.176C97.1528 159.119 96.9598 159.059 96.7169 158.993C96.4177 158.915 96.1771 158.837 95.9949 158.759C95.8171 158.681 95.6632 158.56 95.5331 158.395C95.4074 158.226 95.3445 158 95.3445 157.719C95.3445 157.471 95.4074 157.252 95.5331 157.062C95.6589 156.871 95.8345 156.723 96.06 156.619C96.2898 156.515 96.5522 156.463 96.847 156.463C97.272 156.463 97.6189 156.569 97.8878 156.782C98.161 156.994 98.3149 157.276 98.3496 157.627H97.6991C97.6775 157.454 97.5864 157.302 97.426 157.172C97.2655 157.038 97.053 156.971 96.7885 156.971C96.5413 156.971 96.3397 157.036 96.1836 157.166C96.0275 157.291 95.9494 157.469 95.9494 157.699C95.9494 157.864 95.9949 157.998 96.086 158.102C96.1814 158.206 96.2963 158.287 96.4307 158.343C96.5695 158.395 96.7625 158.456 97.0097 158.525C97.3089 158.608 97.5495 158.69 97.7317 158.772C97.9138 158.85 98.0699 158.974 98.2 159.143C98.3301 159.308 98.3951 159.533 98.3951 159.82C98.3951 160.041 98.3366 160.249 98.2195 160.444C98.1024 160.639 97.929 160.797 97.6991 160.919C97.4693 161.04 97.1983 161.101 96.8861 161.101ZM99.8581 158.148C99.9752 157.944 100.149 157.775 100.378 157.64C100.613 157.502 100.884 157.432 101.192 157.432C101.508 157.432 101.794 157.508 102.05 157.66C102.31 157.812 102.514 158.026 102.662 158.304C102.809 158.577 102.883 158.896 102.883 159.26C102.883 159.62 102.809 159.941 102.662 160.223C102.514 160.505 102.31 160.724 102.05 160.88C101.794 161.036 101.508 161.114 101.192 161.114C100.888 161.114 100.619 161.047 100.385 160.912C100.155 160.774 99.9795 160.602 99.8581 160.398V162.747H99.2662V157.491H99.8581V158.148ZM102.278 159.26C102.278 158.991 102.224 158.757 102.115 158.558C102.007 158.358 101.859 158.206 101.673 158.102C101.491 157.998 101.289 157.946 101.068 157.946C100.851 157.946 100.65 158 100.463 158.109C100.281 158.213 100.133 158.367 100.021 158.571C99.9123 158.77 99.8581 159.002 99.8581 159.267C99.8581 159.536 99.9123 159.772 100.021 159.976C100.133 160.175 100.281 160.329 100.463 160.437C100.65 160.542 100.851 160.594 101.068 160.594C101.289 160.594 101.491 160.542 101.673 160.437C101.859 160.329 102.007 160.175 102.115 159.976C102.224 159.772 102.278 159.533 102.278 159.26ZM103.441 159.26C103.441 158.896 103.514 158.577 103.662 158.304C103.809 158.026 104.011 157.812 104.267 157.66C104.527 157.508 104.815 157.432 105.132 157.432C105.444 157.432 105.715 157.5 105.945 157.634C106.175 157.768 106.346 157.938 106.459 158.141V157.491H107.057V161.055H106.459V160.392C106.342 160.6 106.166 160.774 105.932 160.912C105.702 161.047 105.433 161.114 105.125 161.114C104.809 161.114 104.523 161.036 104.267 160.88C104.011 160.724 103.809 160.505 103.662 160.223C103.514 159.941 103.441 159.62 103.441 159.26ZM106.459 159.267C106.459 158.998 106.405 158.764 106.296 158.564C106.188 158.365 106.04 158.213 105.854 158.109C105.672 158 105.47 157.946 105.249 157.946C105.028 157.946 104.826 157.998 104.644 158.102C104.462 158.206 104.317 158.358 104.208 158.558C104.1 158.757 104.046 158.991 104.046 159.26C104.046 159.533 104.1 159.772 104.208 159.976C104.317 160.175 104.462 160.329 104.644 160.437C104.826 160.542 105.028 160.594 105.249 160.594C105.47 160.594 105.672 160.542 105.854 160.437C106.04 160.329 106.188 160.175 106.296 159.976C106.405 159.772 106.459 159.536 106.459 159.267ZM108.65 158.07C108.754 157.866 108.901 157.708 109.092 157.595C109.287 157.482 109.523 157.426 109.801 157.426V158.037H109.645C108.981 158.037 108.65 158.397 108.65 159.117V161.055H108.058V157.491H108.65V158.07ZM113.736 159.137C113.736 159.249 113.73 159.369 113.717 159.494H110.868C110.89 159.846 111.009 160.121 111.226 160.32C111.447 160.516 111.713 160.613 112.026 160.613C112.282 160.613 112.494 160.555 112.663 160.437C112.837 160.316 112.958 160.156 113.027 159.956H113.665C113.569 160.299 113.379 160.578 113.092 160.795C112.806 161.008 112.451 161.114 112.026 161.114C111.687 161.114 111.384 161.038 111.115 160.886C110.851 160.735 110.642 160.52 110.491 160.242C110.339 159.96 110.263 159.635 110.263 159.267C110.263 158.898 110.337 158.575 110.484 158.297C110.632 158.02 110.838 157.807 111.102 157.66C111.371 157.508 111.679 157.432 112.026 157.432C112.364 157.432 112.663 157.506 112.923 157.654C113.184 157.801 113.383 158.005 113.522 158.265C113.665 158.521 113.736 158.811 113.736 159.137ZM113.125 159.013C113.125 158.787 113.075 158.595 112.975 158.434C112.876 158.269 112.739 158.146 112.566 158.063C112.396 157.977 112.208 157.933 112 157.933C111.7 157.933 111.445 158.029 111.232 158.219C111.024 158.41 110.905 158.675 110.874 159.013H113.125ZM119.283 157.849C119.283 158.226 119.153 158.54 118.893 158.792C118.637 159.039 118.244 159.163 117.715 159.163H116.844V161.055H116.252V156.522H117.715C118.227 156.522 118.615 156.645 118.88 156.892C119.149 157.14 119.283 157.458 119.283 157.849ZM117.715 158.675C118.045 158.675 118.288 158.603 118.444 158.46C118.6 158.317 118.678 158.113 118.678 157.849C118.678 157.289 118.357 157.01 117.715 157.01H116.844V158.675H117.715ZM119.798 159.26C119.798 158.896 119.871 158.577 120.019 158.304C120.166 158.026 120.368 157.812 120.624 157.66C120.884 157.508 121.172 157.432 121.489 157.432C121.801 157.432 122.072 157.5 122.302 157.634C122.532 157.768 122.703 157.938 122.816 158.141V157.491H123.414V161.055H122.816V160.392C122.699 160.6 122.523 160.774 122.289 160.912C122.059 161.047 121.79 161.114 121.482 161.114C121.166 161.114 120.879 161.036 120.624 160.88C120.368 160.724 120.166 160.505 120.019 160.223C119.871 159.941 119.798 159.62 119.798 159.26ZM122.816 159.267C122.816 158.998 122.761 158.764 122.653 158.564C122.545 158.365 122.397 158.213 122.211 158.109C122.029 158 121.827 157.946 121.606 157.946C121.385 157.946 121.183 157.998 121.001 158.102C120.819 158.206 120.674 158.358 120.565 158.558C120.457 158.757 120.402 158.991 120.402 159.26C120.402 159.533 120.457 159.772 120.565 159.976C120.674 160.175 120.819 160.329 121.001 160.437C121.183 160.542 121.385 160.594 121.606 160.594C121.827 160.594 122.029 160.542 122.211 160.437C122.397 160.329 122.545 160.175 122.653 159.976C122.761 159.772 122.816 159.536 122.816 159.267ZM125.006 158.07C125.11 157.866 125.258 157.708 125.449 157.595C125.644 157.482 125.88 157.426 126.158 157.426V158.037H126.002C125.338 158.037 125.006 158.397 125.006 159.117V161.055H124.414V157.491H125.006V158.07ZM127.563 157.979V160.08C127.563 160.253 127.6 160.377 127.674 160.45C127.747 160.52 127.875 160.555 128.057 160.555H128.493V161.055H127.96C127.63 161.055 127.383 160.98 127.218 160.828C127.053 160.676 126.971 160.427 126.971 160.08V157.979H126.509V157.491H126.971V156.593H127.563V157.491H128.493V157.979H127.563ZM130.472 161.114C130.199 161.114 129.954 161.068 129.737 160.977C129.52 160.882 129.349 160.752 129.223 160.587C129.098 160.418 129.028 160.225 129.015 160.008H129.627C129.644 160.186 129.726 160.331 129.874 160.444C130.026 160.557 130.223 160.613 130.466 160.613C130.691 160.613 130.869 160.563 130.999 160.463C131.129 160.364 131.194 160.238 131.194 160.086C131.194 159.93 131.125 159.815 130.986 159.741C130.847 159.663 130.633 159.588 130.342 159.514C130.078 159.444 129.861 159.375 129.692 159.306C129.527 159.232 129.384 159.126 129.262 158.987C129.145 158.844 129.087 158.657 129.087 158.428C129.087 158.245 129.141 158.078 129.249 157.927C129.358 157.775 129.512 157.656 129.711 157.569C129.911 157.478 130.138 157.432 130.394 157.432C130.789 157.432 131.107 157.532 131.35 157.732C131.593 157.931 131.723 158.204 131.741 158.551H131.149C131.136 158.365 131.06 158.215 130.921 158.102C130.787 157.99 130.604 157.933 130.375 157.933C130.162 157.933 129.993 157.979 129.867 158.07C129.742 158.161 129.679 158.28 129.679 158.428C129.679 158.545 129.715 158.642 129.789 158.72C129.867 158.794 129.963 158.855 130.075 158.902C130.192 158.946 130.353 158.996 130.557 159.052C130.813 159.121 131.021 159.191 131.181 159.26C131.342 159.325 131.478 159.425 131.591 159.559C131.708 159.694 131.769 159.869 131.773 160.086C131.773 160.281 131.719 160.457 131.611 160.613C131.502 160.769 131.348 160.893 131.149 160.984C130.954 161.071 130.728 161.114 130.472 161.114Z" fill="#2E2C43"/>
<path d="M100.047 181.179V185.68H99.4554V182.324L97.9593 185.68H97.543L96.0405 182.317V185.68H95.4485V181.179H96.086L97.7512 184.899L99.4164 181.179H100.047ZM102.606 185.738C102.272 185.738 101.968 185.663 101.695 185.511C101.426 185.359 101.214 185.144 101.058 184.867C100.906 184.585 100.83 184.26 100.83 183.891C100.83 183.527 100.908 183.206 101.064 182.928C101.225 182.647 101.441 182.432 101.715 182.285C101.988 182.133 102.294 182.057 102.632 182.057C102.97 182.057 103.276 182.133 103.549 182.285C103.822 182.432 104.037 182.644 104.193 182.922C104.353 183.2 104.434 183.523 104.434 183.891C104.434 184.26 104.351 184.585 104.186 184.867C104.026 185.144 103.807 185.359 103.529 185.511C103.252 185.663 102.944 185.738 102.606 185.738ZM102.606 185.218C102.818 185.218 103.018 185.168 103.204 185.068C103.391 184.969 103.54 184.819 103.653 184.62C103.77 184.42 103.829 184.177 103.829 183.891C103.829 183.605 103.772 183.362 103.66 183.163C103.547 182.963 103.399 182.816 103.217 182.72C103.035 182.621 102.838 182.571 102.625 182.571C102.408 182.571 102.209 182.621 102.027 182.72C101.849 182.816 101.706 182.963 101.598 183.163C101.489 183.362 101.435 183.605 101.435 183.891C101.435 184.182 101.487 184.427 101.591 184.626C101.699 184.826 101.843 184.975 102.02 185.075C102.198 185.17 102.393 185.218 102.606 185.218ZM105.804 182.779C105.925 182.566 106.103 182.393 106.337 182.259C106.571 182.124 106.838 182.057 107.137 182.057C107.458 182.057 107.746 182.133 108.002 182.285C108.258 182.436 108.46 182.651 108.607 182.928C108.755 183.202 108.828 183.52 108.828 183.885C108.828 184.245 108.755 184.565 108.607 184.847C108.46 185.129 108.256 185.348 107.996 185.504C107.74 185.66 107.454 185.738 107.137 185.738C106.829 185.738 106.558 185.671 106.324 185.537C106.094 185.402 105.921 185.231 105.804 185.023V185.68H105.212V180.867H105.804V182.779ZM108.223 183.885C108.223 183.616 108.169 183.382 108.061 183.182C107.952 182.983 107.805 182.831 107.619 182.727C107.436 182.623 107.235 182.571 107.014 182.571C106.797 182.571 106.595 182.625 106.409 182.733C106.227 182.837 106.079 182.991 105.966 183.195C105.858 183.395 105.804 183.627 105.804 183.891C105.804 184.16 105.858 184.396 105.966 184.6C106.079 184.8 106.227 184.954 106.409 185.062C106.595 185.166 106.797 185.218 107.014 185.218C107.235 185.218 107.436 185.166 107.619 185.062C107.805 184.954 107.952 184.8 108.061 184.6C108.169 184.396 108.223 184.158 108.223 183.885ZM109.913 181.536C109.8 181.536 109.705 181.497 109.627 181.419C109.549 181.341 109.51 181.246 109.51 181.133C109.51 181.02 109.549 180.925 109.627 180.847C109.705 180.769 109.8 180.73 109.913 180.73C110.022 180.73 110.113 180.769 110.186 180.847C110.264 180.925 110.304 181.02 110.304 181.133C110.304 181.246 110.264 181.341 110.186 181.419C110.113 181.497 110.022 181.536 109.913 181.536ZM110.199 182.115V185.68H109.608V182.115H110.199ZM111.8 180.867V185.68H111.208V180.867H111.8ZM116.061 183.761C116.061 183.874 116.055 183.993 116.042 184.119H113.193C113.214 184.47 113.334 184.745 113.551 184.945C113.772 185.14 114.038 185.238 114.351 185.238C114.606 185.238 114.819 185.179 114.988 185.062C115.162 184.941 115.283 184.78 115.352 184.581H115.99C115.894 184.923 115.704 185.203 115.417 185.42C115.131 185.632 114.776 185.738 114.351 185.738C114.012 185.738 113.709 185.663 113.44 185.511C113.175 185.359 112.967 185.144 112.816 184.867C112.664 184.585 112.588 184.26 112.588 183.891C112.588 183.523 112.662 183.2 112.809 182.922C112.956 182.644 113.162 182.432 113.427 182.285C113.696 182.133 114.004 182.057 114.351 182.057C114.689 182.057 114.988 182.131 115.248 182.278C115.508 182.425 115.708 182.629 115.847 182.889C115.99 183.145 116.061 183.436 116.061 183.761ZM115.45 183.637C115.45 183.412 115.4 183.219 115.3 183.059C115.201 182.894 115.064 182.77 114.89 182.688C114.721 182.601 114.533 182.558 114.325 182.558C114.025 182.558 113.77 182.653 113.557 182.844C113.349 183.035 113.23 183.299 113.199 183.637H115.45ZM119.169 182.694C119.273 182.491 119.42 182.332 119.611 182.219C119.806 182.107 120.042 182.05 120.32 182.05V182.662H120.164C119.5 182.662 119.169 183.022 119.169 183.742V185.68H118.577V182.115H119.169V182.694ZM124.256 183.761C124.256 183.874 124.249 183.993 124.236 184.119H121.387C121.409 184.47 121.528 184.745 121.745 184.945C121.966 185.14 122.233 185.238 122.545 185.238C122.801 185.238 123.013 185.179 123.182 185.062C123.356 184.941 123.477 184.78 123.547 184.581H124.184C124.089 184.923 123.898 185.203 123.612 185.42C123.325 185.632 122.97 185.738 122.545 185.738C122.207 185.738 121.903 185.663 121.634 185.511C121.37 185.359 121.162 185.144 121.01 184.867C120.858 184.585 120.782 184.26 120.782 183.891C120.782 183.523 120.856 183.2 121.003 182.922C121.151 182.644 121.357 182.432 121.621 182.285C121.89 182.133 122.198 182.057 122.545 182.057C122.883 182.057 123.182 182.131 123.443 182.278C123.703 182.425 123.902 182.629 124.041 182.889C124.184 183.145 124.256 183.436 124.256 183.761ZM123.644 183.637C123.644 183.412 123.594 183.219 123.495 183.059C123.395 182.894 123.258 182.77 123.085 182.688C122.916 182.601 122.727 182.558 122.519 182.558C122.22 182.558 121.964 182.653 121.751 182.844C121.543 183.035 121.424 183.299 121.394 183.637H123.644ZM125.629 182.772C125.746 182.569 125.919 182.399 126.149 182.265C126.383 182.126 126.654 182.057 126.962 182.057C127.279 182.057 127.565 182.133 127.821 182.285C128.081 182.436 128.285 182.651 128.432 182.928C128.58 183.202 128.653 183.52 128.653 183.885C128.653 184.245 128.58 184.565 128.432 184.847C128.285 185.129 128.081 185.348 127.821 185.504C127.565 185.66 127.279 185.738 126.962 185.738C126.659 185.738 126.39 185.671 126.156 185.537C125.926 185.398 125.75 185.227 125.629 185.023V187.371H125.037V182.115H125.629V182.772ZM128.049 183.885C128.049 183.616 127.994 183.382 127.886 183.182C127.778 182.983 127.63 182.831 127.444 182.727C127.262 182.623 127.06 182.571 126.839 182.571C126.622 182.571 126.42 182.625 126.234 182.733C126.052 182.837 125.904 182.991 125.791 183.195C125.683 183.395 125.629 183.627 125.629 183.891C125.629 184.16 125.683 184.396 125.791 184.6C125.904 184.8 126.052 184.954 126.234 185.062C126.42 185.166 126.622 185.218 126.839 185.218C127.06 185.218 127.262 185.166 127.444 185.062C127.63 184.954 127.778 184.8 127.886 184.6C127.994 184.396 128.049 184.158 128.049 183.885ZM129.211 183.885C129.211 183.52 129.285 183.202 129.433 182.928C129.58 182.651 129.782 182.436 130.038 182.285C130.298 182.133 130.586 182.057 130.903 182.057C131.215 182.057 131.486 182.124 131.716 182.259C131.946 182.393 132.117 182.562 132.23 182.766V182.115H132.828V185.68H132.23V185.016C132.113 185.225 131.937 185.398 131.703 185.537C131.473 185.671 131.204 185.738 130.896 185.738C130.58 185.738 130.293 185.66 130.038 185.504C129.782 185.348 129.58 185.129 129.433 184.847C129.285 184.565 129.211 184.245 129.211 183.885ZM132.23 183.891C132.23 183.622 132.175 183.388 132.067 183.189C131.959 182.989 131.811 182.837 131.625 182.733C131.443 182.625 131.241 182.571 131.02 182.571C130.799 182.571 130.597 182.623 130.415 182.727C130.233 182.831 130.087 182.983 129.979 183.182C129.871 183.382 129.816 183.616 129.816 183.885C129.816 184.158 129.871 184.396 129.979 184.6C130.087 184.8 130.233 184.954 130.415 185.062C130.597 185.166 130.799 185.218 131.02 185.218C131.241 185.218 131.443 185.166 131.625 185.062C131.811 184.954 131.959 184.8 132.067 184.6C132.175 184.396 132.23 184.16 132.23 183.891ZM134.134 181.536C134.021 181.536 133.926 181.497 133.848 181.419C133.77 181.341 133.731 181.246 133.731 181.133C133.731 181.02 133.77 180.925 133.848 180.847C133.926 180.769 134.021 180.73 134.134 180.73C134.242 180.73 134.334 180.769 134.407 180.847C134.485 180.925 134.524 181.02 134.524 181.133C134.524 181.246 134.485 181.341 134.407 181.419C134.334 181.497 134.242 181.536 134.134 181.536ZM134.42 182.115V185.68H133.828V182.115H134.42ZM136.021 182.694C136.125 182.491 136.272 182.332 136.463 182.219C136.658 182.107 136.895 182.05 137.172 182.05V182.662H137.016C136.353 182.662 136.021 183.022 136.021 183.742V185.68H135.429V182.115H136.021V182.694Z" fill="#2E2C43"/>
<rect x="76.5954" y="129.663" width="6.96923" height="6.96923" stroke="#FB8C00" stroke-width="0.464615"/>
<rect x="76.5954" y="157.075" width="6.96923" height="6.96923" stroke="#FB8C00" stroke-width="0.464615"/>
<rect x="76.5954" y="180.306" width="6.96923" height="6.96923" stroke="#FB8C00" stroke-width="0.464615"/>
<rect x="76.5954" y="204.931" width="6.96923" height="6.96923" stroke="#FB8C00" stroke-width="0.464615"/>
<path d="M95.854 205.788V207.303H97.5061V207.791H95.854V209.352H97.7013V209.84H95.262V205.3H97.7013V205.788H95.854ZM99.1888 205.027V209.84H98.5969V205.027H99.1888ZM103.45 207.921C103.45 208.034 103.443 208.153 103.43 208.279H100.581C100.603 208.63 100.722 208.906 100.939 209.105C101.16 209.3 101.427 209.398 101.739 209.398C101.995 209.398 102.208 209.339 102.377 209.222C102.55 209.101 102.672 208.94 102.741 208.741H103.378C103.283 209.083 103.092 209.363 102.806 209.58C102.52 209.792 102.164 209.899 101.739 209.899C101.401 209.899 101.097 209.823 100.829 209.671C100.564 209.519 100.356 209.305 100.204 209.027C100.052 208.745 99.9765 208.42 99.9765 208.051C99.9765 207.683 100.05 207.36 100.198 207.082C100.345 206.805 100.551 206.592 100.816 206.445C101.084 206.293 101.392 206.217 101.739 206.217C102.078 206.217 102.377 206.291 102.637 206.438C102.897 206.586 103.097 206.789 103.235 207.05C103.378 207.305 103.45 207.596 103.45 207.921ZM102.839 207.798C102.839 207.572 102.789 207.379 102.689 207.219C102.589 207.054 102.453 206.93 102.279 206.848C102.11 206.761 101.921 206.718 101.713 206.718C101.414 206.718 101.158 206.813 100.946 207.004C100.738 207.195 100.618 207.459 100.588 207.798H102.839ZM104.01 208.051C104.01 207.683 104.084 207.362 104.231 207.089C104.379 206.811 104.583 206.596 104.843 206.445C105.107 206.293 105.409 206.217 105.747 206.217C106.185 206.217 106.545 206.323 106.827 206.536C107.113 206.748 107.301 207.043 107.393 207.42H106.755C106.694 207.204 106.575 207.032 106.397 206.907C106.224 206.781 106.007 206.718 105.747 206.718C105.409 206.718 105.135 206.835 104.927 207.069C104.719 207.299 104.615 207.626 104.615 208.051C104.615 208.481 104.719 208.812 104.927 209.047C105.135 209.281 105.409 209.398 105.747 209.398C106.007 209.398 106.224 209.337 106.397 209.216C106.571 209.094 106.69 208.921 106.755 208.695H107.393C107.297 209.06 107.106 209.352 106.82 209.573C106.534 209.79 106.176 209.899 105.747 209.899C105.409 209.899 105.107 209.823 104.843 209.671C104.583 209.519 104.379 209.305 104.231 209.027C104.084 208.749 104.01 208.424 104.01 208.051ZM108.904 206.763V208.864C108.904 209.038 108.941 209.161 109.015 209.235C109.089 209.305 109.217 209.339 109.399 209.339H109.835V209.84H109.301C108.972 209.84 108.724 209.764 108.56 209.612C108.395 209.461 108.312 209.211 108.312 208.864V206.763H107.851V206.276H108.312V205.378H108.904V206.276H109.835V206.763H108.904ZM111.144 206.854C111.248 206.651 111.395 206.492 111.586 206.38C111.781 206.267 112.017 206.211 112.295 206.211V206.822H112.139C111.475 206.822 111.144 207.182 111.144 207.902V209.84H110.552V206.276H111.144V206.854ZM114.533 209.899C114.199 209.899 113.895 209.823 113.622 209.671C113.353 209.519 113.141 209.305 112.985 209.027C112.833 208.745 112.757 208.42 112.757 208.051C112.757 207.687 112.835 207.366 112.991 207.089C113.152 206.807 113.369 206.592 113.642 206.445C113.915 206.293 114.221 206.217 114.559 206.217C114.897 206.217 115.203 206.293 115.476 206.445C115.749 206.592 115.964 206.805 116.12 207.082C116.28 207.36 116.361 207.683 116.361 208.051C116.361 208.42 116.278 208.745 116.113 209.027C115.953 209.305 115.734 209.519 115.456 209.671C115.179 209.823 114.871 209.899 114.533 209.899ZM114.533 209.378C114.745 209.378 114.945 209.328 115.131 209.229C115.318 209.129 115.467 208.979 115.58 208.78C115.697 208.58 115.756 208.338 115.756 208.051C115.756 207.765 115.699 207.522 115.587 207.323C115.474 207.123 115.326 206.976 115.144 206.88C114.962 206.781 114.765 206.731 114.552 206.731C114.336 206.731 114.136 206.781 113.954 206.88C113.776 206.976 113.633 207.123 113.525 207.323C113.416 207.522 113.362 207.765 113.362 208.051C113.362 208.342 113.414 208.587 113.518 208.786C113.627 208.986 113.77 209.135 113.947 209.235C114.125 209.331 114.32 209.378 114.533 209.378ZM118.876 206.211C119.309 206.211 119.661 206.343 119.929 206.607C120.198 206.867 120.333 207.245 120.333 207.739V209.84H119.747V207.824C119.747 207.468 119.658 207.197 119.481 207.011C119.303 206.82 119.06 206.724 118.752 206.724C118.44 206.724 118.19 206.822 118.004 207.017C117.822 207.212 117.731 207.496 117.731 207.869V209.84H117.139V206.276H117.731V206.783C117.848 206.601 118.006 206.46 118.206 206.36C118.409 206.26 118.633 206.211 118.876 206.211ZM121.605 205.697C121.493 205.697 121.397 205.658 121.319 205.58C121.241 205.502 121.202 205.406 121.202 205.293C121.202 205.181 121.241 205.085 121.319 205.007C121.397 204.929 121.493 204.89 121.605 204.89C121.714 204.89 121.805 204.929 121.878 205.007C121.957 205.085 121.996 205.181 121.996 205.293C121.996 205.406 121.957 205.502 121.878 205.58C121.805 205.658 121.714 205.697 121.605 205.697ZM121.891 206.276V209.84H121.3V206.276H121.891ZM122.679 208.051C122.679 207.683 122.753 207.362 122.9 207.089C123.048 206.811 123.252 206.596 123.512 206.445C123.776 206.293 124.078 206.217 124.416 206.217C124.854 206.217 125.214 206.323 125.496 206.536C125.782 206.748 125.97 207.043 126.062 207.42H125.424C125.363 207.204 125.244 207.032 125.066 206.907C124.893 206.781 124.676 206.718 124.416 206.718C124.078 206.718 123.804 206.835 123.596 207.069C123.388 207.299 123.284 207.626 123.284 208.051C123.284 208.481 123.388 208.812 123.596 209.047C123.804 209.281 124.078 209.398 124.416 209.398C124.676 209.398 124.893 209.337 125.066 209.216C125.24 209.094 125.359 208.921 125.424 208.695H126.062C125.966 209.06 125.775 209.352 125.489 209.573C125.203 209.79 124.845 209.899 124.416 209.899C124.078 209.899 123.776 209.823 123.512 209.671C123.252 209.519 123.048 209.305 122.9 209.027C122.753 208.749 122.679 208.424 122.679 208.051ZM128.113 209.899C127.84 209.899 127.595 209.853 127.378 209.762C127.161 209.667 126.99 209.537 126.864 209.372C126.739 209.203 126.669 209.01 126.656 208.793H127.268C127.285 208.971 127.367 209.116 127.515 209.229C127.667 209.341 127.864 209.398 128.107 209.398C128.332 209.398 128.51 209.348 128.64 209.248C128.77 209.148 128.835 209.023 128.835 208.871C128.835 208.715 128.766 208.6 128.627 208.526C128.488 208.448 128.274 208.372 127.983 208.298C127.719 208.229 127.502 208.16 127.333 208.09C127.168 208.017 127.025 207.91 126.903 207.772C126.786 207.629 126.728 207.442 126.728 207.212C126.728 207.03 126.782 206.863 126.89 206.711C126.999 206.56 127.153 206.44 127.352 206.354C127.552 206.263 127.779 206.217 128.035 206.217C128.43 206.217 128.749 206.317 128.991 206.516C129.234 206.716 129.364 206.989 129.382 207.336H128.79C128.777 207.149 128.701 207 128.562 206.887C128.428 206.774 128.246 206.718 128.016 206.718C127.803 206.718 127.634 206.763 127.508 206.854C127.383 206.946 127.32 207.065 127.32 207.212C127.32 207.329 127.357 207.427 127.43 207.505C127.508 207.579 127.604 207.639 127.716 207.687C127.834 207.73 127.994 207.78 128.198 207.837C128.454 207.906 128.662 207.975 128.822 208.045C128.983 208.11 129.119 208.21 129.232 208.344C129.349 208.478 129.41 208.654 129.414 208.871C129.414 209.066 129.36 209.242 129.252 209.398C129.143 209.554 128.989 209.677 128.79 209.769C128.595 209.855 128.369 209.899 128.113 209.899ZM135.464 209.84L134.872 209.242C134.651 209.471 134.414 209.643 134.163 209.756C133.911 209.864 133.627 209.918 133.311 209.918C132.999 209.918 132.721 209.862 132.478 209.749C132.24 209.636 132.053 209.476 131.919 209.268C131.789 209.06 131.724 208.817 131.724 208.539C131.724 208.223 131.813 207.945 131.99 207.707C132.173 207.464 132.439 207.273 132.79 207.134C132.652 206.969 132.552 206.818 132.491 206.679C132.431 206.54 132.4 206.388 132.4 206.224C132.4 206.033 132.448 205.861 132.543 205.71C132.643 205.554 132.784 205.432 132.966 205.345C133.148 205.259 133.359 205.215 133.597 205.215C133.831 205.215 134.035 205.261 134.208 205.352C134.382 205.443 134.512 205.571 134.599 205.736C134.685 205.896 134.725 206.076 134.716 206.276H134.124C134.128 206.098 134.078 205.959 133.974 205.859C133.87 205.755 133.736 205.703 133.571 205.703C133.398 205.703 133.257 205.753 133.148 205.853C133.044 205.948 132.992 206.072 132.992 206.224C132.992 206.354 133.027 206.479 133.096 206.601C133.17 206.722 133.291 206.872 133.46 207.05L134.813 208.409L134.93 208.227L135.373 207.485H136.01L135.477 208.409C135.403 208.539 135.316 208.676 135.217 208.819L136.238 209.84H135.464ZM133.311 209.411C133.545 209.411 133.755 209.365 133.942 209.274C134.133 209.183 134.313 209.042 134.482 208.851L133.148 207.511C132.593 207.724 132.316 208.06 132.316 208.52C132.316 208.775 132.407 208.988 132.589 209.157C132.775 209.326 133.016 209.411 133.311 209.411ZM139.119 205.788V207.303H140.771V207.791H139.119V209.352H140.966V209.84H138.527V205.3H140.966V205.788H139.119ZM142.453 205.027V209.84H141.862V205.027H142.453ZM146.715 207.921C146.715 208.034 146.708 208.153 146.695 208.279H143.846C143.868 208.63 143.987 208.906 144.204 209.105C144.425 209.3 144.692 209.398 145.004 209.398C145.26 209.398 145.472 209.339 145.641 209.222C145.815 209.101 145.936 208.94 146.006 208.741H146.643C146.548 209.083 146.357 209.363 146.071 209.58C145.784 209.792 145.429 209.899 145.004 209.899C144.666 209.899 144.362 209.823 144.093 209.671C143.829 209.519 143.621 209.305 143.469 209.027C143.317 208.745 143.241 208.42 143.241 208.051C143.241 207.683 143.315 207.36 143.462 207.082C143.61 206.805 143.816 206.592 144.08 206.445C144.349 206.293 144.657 206.217 145.004 206.217C145.342 206.217 145.641 206.291 145.901 206.438C146.162 206.586 146.361 206.789 146.5 207.05C146.643 207.305 146.715 207.596 146.715 207.921ZM146.103 207.798C146.103 207.572 146.053 207.379 145.954 207.219C145.854 207.054 145.717 206.93 145.544 206.848C145.375 206.761 145.186 206.718 144.978 206.718C144.679 206.718 144.423 206.813 144.21 207.004C144.002 207.195 143.883 207.459 143.853 207.798H146.103ZM147.275 208.051C147.275 207.683 147.348 207.362 147.496 207.089C147.643 206.811 147.847 206.596 148.107 206.445C148.372 206.293 148.673 206.217 149.011 206.217C149.449 206.217 149.809 206.323 150.091 206.536C150.377 206.748 150.566 207.043 150.657 207.42H150.02C149.959 207.204 149.84 207.032 149.662 206.907C149.488 206.781 149.272 206.718 149.011 206.718C148.673 206.718 148.4 206.835 148.192 207.069C147.984 207.299 147.88 207.626 147.88 208.051C147.88 208.481 147.984 208.812 148.192 209.047C148.4 209.281 148.673 209.398 149.011 209.398C149.272 209.398 149.488 209.337 149.662 209.216C149.835 209.094 149.955 208.921 150.02 208.695H150.657C150.562 209.06 150.371 209.352 150.085 209.573C149.799 209.79 149.441 209.899 149.011 209.899C148.673 209.899 148.372 209.823 148.107 209.671C147.847 209.519 147.643 209.305 147.496 209.027C147.348 208.749 147.275 208.424 147.275 208.051ZM152.169 206.763V208.864C152.169 209.038 152.206 209.161 152.28 209.235C152.353 209.305 152.481 209.339 152.663 209.339H153.099V209.84H152.566C152.236 209.84 151.989 209.764 151.824 209.612C151.659 209.461 151.577 209.211 151.577 208.864V206.763H151.115V206.276H151.577V205.378H152.169V206.276H153.099V206.763H152.169ZM154.408 206.854C154.512 206.651 154.66 206.492 154.851 206.38C155.046 206.267 155.282 206.211 155.56 206.211V206.822H155.403C154.74 206.822 154.408 207.182 154.408 207.902V209.84H153.816V206.276H154.408V206.854ZM156.549 205.697C156.436 205.697 156.34 205.658 156.262 205.58C156.184 205.502 156.145 205.406 156.145 205.293C156.145 205.181 156.184 205.085 156.262 205.007C156.34 204.929 156.436 204.89 156.549 204.89C156.657 204.89 156.748 204.929 156.822 205.007C156.9 205.085 156.939 205.181 156.939 205.293C156.939 205.406 156.9 205.502 156.822 205.58C156.748 205.658 156.657 205.697 156.549 205.697ZM156.835 206.276V209.84H156.243V206.276H156.835ZM157.622 208.051C157.622 207.683 157.696 207.362 157.844 207.089C157.991 206.811 158.195 206.596 158.455 206.445C158.72 206.293 159.021 206.217 159.359 206.217C159.797 206.217 160.157 206.323 160.439 206.536C160.725 206.748 160.914 207.043 161.005 207.42H160.367C160.307 207.204 160.187 207.032 160.01 206.907C159.836 206.781 159.619 206.718 159.359 206.718C159.021 206.718 158.748 206.835 158.54 207.069C158.331 207.299 158.227 207.626 158.227 208.051C158.227 208.481 158.331 208.812 158.54 209.047C158.748 209.281 159.021 209.398 159.359 209.398C159.619 209.398 159.836 209.337 160.01 209.216C160.183 209.094 160.302 208.921 160.367 208.695H161.005C160.909 209.06 160.719 209.352 160.432 209.573C160.146 209.79 159.788 209.899 159.359 209.899C159.021 209.899 158.72 209.823 158.455 209.671C158.195 209.519 157.991 209.305 157.844 209.027C157.696 208.749 157.622 208.424 157.622 208.051ZM161.573 208.045C161.573 207.681 161.647 207.362 161.795 207.089C161.942 206.811 162.144 206.596 162.4 206.445C162.66 206.293 162.948 206.217 163.265 206.217C163.577 206.217 163.848 206.284 164.078 206.419C164.308 206.553 164.479 206.722 164.592 206.926V206.276H165.19V209.84H164.592V209.177C164.475 209.385 164.299 209.558 164.065 209.697C163.835 209.831 163.566 209.899 163.258 209.899C162.942 209.899 162.655 209.821 162.4 209.664C162.144 209.508 161.942 209.289 161.795 209.007C161.647 208.726 161.573 208.405 161.573 208.045ZM164.592 208.051C164.592 207.782 164.537 207.548 164.429 207.349C164.321 207.149 164.173 206.998 163.987 206.893C163.805 206.785 163.603 206.731 163.382 206.731C163.161 206.731 162.959 206.783 162.777 206.887C162.595 206.991 162.449 207.143 162.341 207.342C162.233 207.542 162.178 207.776 162.178 208.045C162.178 208.318 162.233 208.557 162.341 208.76C162.449 208.96 162.595 209.114 162.777 209.222C162.959 209.326 163.161 209.378 163.382 209.378C163.603 209.378 163.805 209.326 163.987 209.222C164.173 209.114 164.321 208.96 164.429 208.76C164.537 208.557 164.592 208.32 164.592 208.051ZM166.782 205.027V209.84H166.19V205.027H166.782ZM170.117 205.306V209.84H169.525V205.306H170.117ZM171.848 206.763V208.864C171.848 209.038 171.885 209.161 171.959 209.235C172.032 209.305 172.16 209.339 172.342 209.339H172.778V209.84H172.245C171.915 209.84 171.668 209.764 171.503 209.612C171.338 209.461 171.256 209.211 171.256 208.864V206.763H170.794V206.276H171.256V205.378H171.848V206.276H172.778V206.763H171.848ZM176.748 207.921C176.748 208.034 176.741 208.153 176.728 208.279H173.879C173.901 208.63 174.02 208.906 174.237 209.105C174.458 209.3 174.725 209.398 175.037 209.398C175.293 209.398 175.505 209.339 175.674 209.222C175.848 209.101 175.969 208.94 176.039 208.741H176.676C176.581 209.083 176.39 209.363 176.104 209.58C175.817 209.792 175.462 209.899 175.037 209.899C174.699 209.899 174.395 209.823 174.126 209.671C173.862 209.519 173.654 209.305 173.502 209.027C173.35 208.745 173.274 208.42 173.274 208.051C173.274 207.683 173.348 207.36 173.495 207.082C173.643 206.805 173.849 206.592 174.113 206.445C174.382 206.293 174.69 206.217 175.037 206.217C175.375 206.217 175.674 206.291 175.935 206.438C176.195 206.586 176.394 206.789 176.533 207.05C176.676 207.305 176.748 207.596 176.748 207.921ZM176.136 207.798C176.136 207.572 176.086 207.379 175.987 207.219C175.887 207.054 175.75 206.93 175.577 206.848C175.408 206.761 175.219 206.718 175.011 206.718C174.712 206.718 174.456 206.813 174.243 207.004C174.035 207.195 173.916 207.459 173.886 207.798H176.136ZM181.815 206.211C182.093 206.211 182.34 206.269 182.557 206.386C182.774 206.499 182.945 206.67 183.071 206.9C183.197 207.13 183.259 207.41 183.259 207.739V209.84H182.674V207.824C182.674 207.468 182.585 207.197 182.407 207.011C182.234 206.82 181.998 206.724 181.698 206.724C181.39 206.724 181.145 206.824 180.963 207.024C180.781 207.219 180.69 207.503 180.69 207.876V209.84H180.105V207.824C180.105 207.468 180.016 207.197 179.838 207.011C179.665 206.82 179.428 206.724 179.129 206.724C178.821 206.724 178.576 206.824 178.394 207.024C178.212 207.219 178.121 207.503 178.121 207.876V209.84H177.529V206.276H178.121V206.789C178.238 206.603 178.394 206.46 178.589 206.36C178.789 206.26 179.008 206.211 179.246 206.211C179.545 206.211 179.81 206.278 180.04 206.412C180.27 206.547 180.441 206.744 180.554 207.004C180.653 206.753 180.818 206.557 181.048 206.419C181.278 206.28 181.534 206.211 181.815 206.211ZM185.492 209.899C185.219 209.899 184.974 209.853 184.757 209.762C184.54 209.667 184.369 209.537 184.243 209.372C184.118 209.203 184.048 209.01 184.035 208.793H184.647C184.664 208.971 184.746 209.116 184.894 209.229C185.046 209.341 185.243 209.398 185.486 209.398C185.711 209.398 185.889 209.348 186.019 209.248C186.149 209.148 186.214 209.023 186.214 208.871C186.214 208.715 186.145 208.6 186.006 208.526C185.867 208.448 185.653 208.372 185.362 208.298C185.098 208.229 184.881 208.16 184.712 208.09C184.547 208.017 184.404 207.91 184.282 207.772C184.165 207.629 184.107 207.442 184.107 207.212C184.107 207.03 184.161 206.863 184.269 206.711C184.378 206.56 184.532 206.44 184.731 206.354C184.931 206.263 185.158 206.217 185.414 206.217C185.809 206.217 186.128 206.317 186.37 206.516C186.613 206.716 186.743 206.989 186.761 207.336H186.169C186.156 207.149 186.08 207 185.941 206.887C185.807 206.774 185.625 206.718 185.395 206.718C185.182 206.718 185.013 206.763 184.887 206.854C184.762 206.946 184.699 207.065 184.699 207.212C184.699 207.329 184.736 207.427 184.809 207.505C184.887 207.579 184.983 207.639 185.096 207.687C185.213 207.73 185.373 207.78 185.577 207.837C185.833 207.906 186.041 207.975 186.201 208.045C186.362 208.11 186.498 208.21 186.611 208.344C186.728 208.478 186.789 208.654 186.793 208.871C186.793 209.066 186.739 209.242 186.631 209.398C186.522 209.554 186.368 209.677 186.169 209.769C185.974 209.855 185.748 209.899 185.492 209.899Z" fill="#2E2C43"/>
<g filter="url(#filter0_d_1165_3)">
<path d="M185.108 76.6638H82.2019C80.0673 76.6638 78.3369 77.3016 78.3369 78.0884V101.95C78.3369 102.737 80.0673 103.375 82.2019 103.375H185.108C187.242 103.375 188.973 102.737 188.973 101.95V78.0884C188.973 77.3016 187.242 76.6638 185.108 76.6638Z" fill="white"/>
</g>
<rect x="68" y="76" width="151" height="27.8769" rx="11.1508" fill="white"/>
<rect x="68.2323" y="76.2323" width="150.535" height="27.4123" rx="10.9185" stroke="black" stroke-opacity="0.1" stroke-width="0.464615"/>
<path d="M118.402 91.8732C117.981 91.8732 117.639 91.7734 117.374 91.574C117.114 91.3701 116.984 91.0991 116.984 90.7609C116.984 90.6958 116.986 90.6481 116.99 90.6178H117.576C117.563 90.8303 117.628 91.0124 117.771 91.1642C117.914 91.3159 118.133 91.3918 118.428 91.3918C118.723 91.3918 118.957 91.3246 119.13 91.1902C119.304 91.0558 119.39 90.8671 119.39 90.6243C119.39 90.4768 119.347 90.3533 119.26 90.2535C119.178 90.1494 119.074 90.0649 118.948 89.9998C118.827 89.9305 118.66 89.8546 118.447 89.7722C118.187 89.6681 117.977 89.5705 117.816 89.4795C117.66 89.3884 117.528 89.2648 117.42 89.1087C117.311 88.9526 117.261 88.7553 117.27 88.5168C117.27 88.2653 117.337 88.042 117.472 87.8468C117.606 87.6517 117.79 87.5021 118.024 87.398C118.263 87.2896 118.534 87.2354 118.838 87.2354C119.132 87.2354 119.386 87.2852 119.599 87.385C119.815 87.4847 119.978 87.6235 120.086 87.8013C120.195 87.9791 120.243 88.1785 120.23 88.3997H119.612C119.62 88.287 119.594 88.1785 119.534 88.0745C119.477 87.9704 119.386 87.8858 119.26 87.8208C119.139 87.7557 118.987 87.7232 118.805 87.7232C118.523 87.7232 118.295 87.7904 118.122 87.9249C117.953 88.055 117.868 88.2349 117.868 88.4648C117.868 88.5992 117.907 88.7163 117.985 88.816C118.068 88.9114 118.17 88.9938 118.291 89.0632C118.413 89.1282 118.58 89.2063 118.792 89.2973C119.048 89.4058 119.256 89.5077 119.416 89.6031C119.581 89.6941 119.72 89.8177 119.833 89.9738C119.945 90.1299 120.002 90.3251 120.002 90.5592C120.002 90.8107 119.937 91.0362 119.807 91.2357C119.677 91.4309 119.49 91.587 119.247 91.704C119.004 91.8168 118.723 91.8732 118.402 91.8732ZM122.819 88.2046C123.118 88.2046 123.376 88.2631 123.593 88.3802C123.814 88.4929 123.981 88.6534 124.093 88.8615C124.211 89.0653 124.269 89.2995 124.269 89.564C124.269 89.6551 124.258 89.7657 124.237 89.8958C124.219 90.0085 124.191 90.1256 124.152 90.247H121.303C121.294 90.3337 121.29 90.3966 121.29 90.4356C121.29 90.7349 121.379 90.969 121.557 91.1381C121.739 91.3029 121.975 91.3853 122.266 91.3853C122.522 91.3853 122.745 91.3268 122.936 91.2097C123.131 91.0883 123.278 90.9278 123.378 90.7284H124.015C123.859 91.0709 123.619 91.3506 123.293 91.5675C122.972 91.7799 122.6 91.8862 122.175 91.8862C121.728 91.8862 121.368 91.7583 121.095 91.5024C120.826 91.2422 120.692 90.8888 120.692 90.4422C120.692 90.3164 120.705 90.182 120.731 90.0389C120.796 89.6703 120.928 89.3472 121.127 89.0697C121.327 88.7921 121.572 88.5797 121.862 88.4322C122.157 88.2805 122.476 88.2046 122.819 88.2046ZM123.638 89.8177C123.651 89.731 123.658 89.6508 123.658 89.577C123.658 89.2995 123.569 89.0849 123.391 88.9331C123.218 88.7813 122.99 88.7054 122.708 88.7054C122.404 88.7054 122.129 88.8052 121.882 89.0046C121.635 89.1998 121.468 89.4708 121.381 89.8177H123.638ZM124.764 90.0324C124.829 89.6681 124.959 89.3494 125.154 89.0762C125.354 88.7987 125.595 88.584 125.876 88.4322C126.163 88.2805 126.466 88.2046 126.787 88.2046C127.099 88.2046 127.357 88.2718 127.561 88.4062C127.765 88.5406 127.906 88.7098 127.984 88.9136L128.101 88.2631H128.699L128.069 91.8276H127.47L127.594 91.1642C127.438 91.3723 127.232 91.5458 126.976 91.6845C126.72 91.819 126.438 91.8862 126.13 91.8862C125.853 91.8862 125.608 91.8276 125.395 91.7106C125.183 91.5891 125.018 91.4178 124.901 91.1967C124.784 90.9755 124.725 90.7197 124.725 90.4291C124.725 90.2991 124.738 90.1668 124.764 90.0324ZM127.789 90.0389C127.806 89.9478 127.815 89.8502 127.815 89.7462C127.815 89.4296 127.719 89.1803 127.529 88.9981C127.342 88.8117 127.104 88.7184 126.813 88.7184C126.592 88.7184 126.38 88.7705 126.176 88.8745C125.976 88.9786 125.805 89.1304 125.662 89.3299C125.519 89.5293 125.423 89.7635 125.376 90.0324C125.358 90.1234 125.35 90.2232 125.35 90.3316C125.35 90.6525 125.443 90.9061 125.629 91.0926C125.816 91.2747 126.054 91.3658 126.345 91.3658C126.566 91.3658 126.776 91.3138 126.976 91.2097C127.18 91.1013 127.353 90.9473 127.496 90.7479C127.644 90.5441 127.741 90.3077 127.789 90.0389ZM130.175 88.9396C130.318 88.7054 130.498 88.5233 130.714 88.3932C130.931 88.2631 131.178 88.1981 131.456 88.1981L131.345 88.8095H131.189C130.881 88.8095 130.623 88.8919 130.415 89.0567C130.211 89.2215 130.075 89.499 130.005 89.8893L129.661 91.8276H129.069L129.7 88.2631H130.292L130.175 88.9396ZM131.586 90.0389C131.651 89.6703 131.782 89.3494 131.977 89.0762C132.176 88.7987 132.421 88.584 132.712 88.4322C133.002 88.2805 133.317 88.2046 133.655 88.2046C134.093 88.2046 134.433 88.3108 134.676 88.5233C134.923 88.7358 135.06 89.0307 135.086 89.4079H134.448C134.427 89.1911 134.338 89.0198 134.182 88.8941C134.03 88.7683 133.824 88.7054 133.564 88.7054C133.226 88.7054 132.931 88.8225 132.679 89.0567C132.432 89.2865 132.272 89.6139 132.198 90.0389C132.176 90.182 132.165 90.3012 132.165 90.3966C132.165 90.7132 132.25 90.9582 132.419 91.1316C132.588 91.3008 132.814 91.3853 133.095 91.3853C133.356 91.3853 133.581 91.3246 133.772 91.2032C133.967 91.0818 134.117 90.9083 134.221 90.6828H134.858C134.702 91.0471 134.461 91.3398 134.136 91.5609C133.811 91.7778 133.434 91.8862 133.004 91.8862C132.558 91.8862 132.202 91.7583 131.938 91.5024C131.677 91.2466 131.547 90.8975 131.547 90.4552C131.547 90.3207 131.56 90.182 131.586 90.0389ZM137.86 88.1981C138.215 88.1981 138.501 88.2978 138.718 88.4973C138.935 88.6924 139.043 88.9764 139.043 89.3494C139.043 89.4881 139.033 89.6139 139.011 89.7266L138.64 91.8276H138.055L138.413 89.8112C138.43 89.7201 138.439 89.6247 138.439 89.525C138.439 89.2605 138.365 89.0588 138.217 88.9201C138.074 88.7813 137.873 88.7119 137.612 88.7119C137.3 88.7119 137.034 88.8095 136.812 89.0046C136.596 89.1998 136.455 89.4838 136.39 89.8567V89.8437L136.038 91.8276H135.446L136.299 87.0142H136.89L136.578 88.777C136.726 88.5948 136.912 88.4539 137.138 88.3542C137.367 88.2501 137.608 88.1981 137.86 88.1981ZM143.958 88.1981C144.313 88.1981 144.599 88.2978 144.816 88.4973C145.033 88.6924 145.142 88.9764 145.142 89.3494C145.142 89.4881 145.131 89.6139 145.109 89.7266L144.738 91.8276H144.153L144.511 89.8112C144.528 89.7201 144.537 89.6247 144.537 89.525C144.537 89.2605 144.463 89.0588 144.315 88.9201C144.172 88.7813 143.971 88.7119 143.711 88.7119C143.398 88.7119 143.132 88.8095 142.91 89.0046C142.694 89.1998 142.553 89.4838 142.488 89.8567V89.8437L142.136 91.8276H141.544L142.397 87.0142H142.989L142.676 88.777C142.824 88.5948 143.01 88.4539 143.236 88.3542C143.466 88.2501 143.706 88.1981 143.958 88.1981ZM147.884 88.2046C148.183 88.2046 148.441 88.2631 148.658 88.3802C148.879 88.4929 149.046 88.6534 149.159 88.8615C149.276 89.0653 149.335 89.2995 149.335 89.564C149.335 89.6551 149.324 89.7657 149.302 89.8958C149.285 90.0085 149.257 90.1256 149.218 90.247H146.369C146.36 90.3337 146.356 90.3966 146.356 90.4356C146.356 90.7349 146.445 90.969 146.622 91.1381C146.804 91.3029 147.041 91.3853 147.331 91.3853C147.587 91.3853 147.81 91.3268 148.001 91.2097C148.196 91.0883 148.344 90.9278 148.444 90.7284H149.081C148.925 91.0709 148.684 91.3506 148.359 91.5675C148.038 91.7799 147.665 91.8862 147.24 91.8862C146.794 91.8862 146.434 91.7583 146.16 91.5024C145.892 91.2422 145.757 90.8888 145.757 90.4422C145.757 90.3164 145.77 90.182 145.796 90.0389C145.861 89.6703 145.994 89.3472 146.193 89.0697C146.392 88.7921 146.637 88.5797 146.928 88.4322C147.223 88.2805 147.542 88.2046 147.884 88.2046ZM148.704 89.8177C148.717 89.731 148.723 89.6508 148.723 89.577C148.723 89.2995 148.634 89.0849 148.457 88.9331C148.283 88.7813 148.055 88.7054 147.774 88.7054C147.47 88.7054 147.195 88.8052 146.948 89.0046C146.7 89.1998 146.533 89.4708 146.447 89.8177H148.704ZM150.845 88.9396C150.988 88.7054 151.168 88.5233 151.384 88.3932C151.601 88.2631 151.848 88.1981 152.126 88.1981L152.015 88.8095H151.859C151.551 88.8095 151.293 88.8919 151.085 89.0567C150.881 89.2215 150.745 89.499 150.675 89.8893L150.331 91.8276H149.739L150.37 88.2631H150.962L150.845 88.9396ZM154.344 88.2046C154.644 88.2046 154.902 88.2631 155.118 88.3802C155.34 88.4929 155.506 88.6534 155.619 88.8615C155.736 89.0653 155.795 89.2995 155.795 89.564C155.795 89.6551 155.784 89.7657 155.762 89.8958C155.745 90.0085 155.717 90.1256 155.678 90.247H152.829C152.82 90.3337 152.816 90.3966 152.816 90.4356C152.816 90.7349 152.905 90.969 153.082 91.1381C153.265 91.3029 153.501 91.3853 153.791 91.3853C154.047 91.3853 154.271 91.3268 154.461 91.2097C154.657 91.0883 154.804 90.9278 154.904 90.7284H155.541C155.385 91.0709 155.144 91.3506 154.819 91.5675C154.498 91.7799 154.125 91.8862 153.7 91.8862C153.254 91.8862 152.894 91.7583 152.621 91.5024C152.352 91.2422 152.217 90.8888 152.217 90.4422C152.217 90.3164 152.23 90.182 152.256 90.0389C152.321 89.6703 152.454 89.3472 152.653 89.0697C152.853 88.7921 153.098 88.5797 153.388 88.4322C153.683 88.2805 154.002 88.2046 154.344 88.2046ZM155.164 89.8177C155.177 89.731 155.183 89.6508 155.183 89.577C155.183 89.2995 155.095 89.0849 154.917 88.9331C154.743 88.7813 154.516 88.7054 154.234 88.7054C153.93 88.7054 153.655 88.8052 153.408 89.0046C153.161 89.1998 152.994 89.4708 152.907 89.8177H155.164ZM156.381 91.8667C156.281 91.8667 156.199 91.8363 156.134 91.7756C156.073 91.7149 156.043 91.6347 156.043 91.5349C156.043 91.4048 156.091 91.2943 156.186 91.2032C156.281 91.1078 156.394 91.0601 156.524 91.0601C156.624 91.0601 156.704 91.0904 156.765 91.1512C156.826 91.2119 156.856 91.2921 156.856 91.3918C156.856 91.5219 156.808 91.6347 156.713 91.7301C156.617 91.8211 156.507 91.8667 156.381 91.8667ZM157.747 91.8667C157.647 91.8667 157.565 91.8363 157.5 91.7756C157.439 91.7149 157.409 91.6347 157.409 91.5349C157.409 91.4048 157.456 91.2943 157.552 91.2032C157.647 91.1078 157.76 91.0601 157.89 91.0601C157.99 91.0601 158.07 91.0904 158.131 91.1512C158.191 91.2119 158.222 91.2921 158.222 91.3918C158.222 91.5219 158.174 91.6347 158.078 91.7301C157.983 91.8211 157.873 91.8667 157.747 91.8667ZM159.112 91.8667C159.013 91.8667 158.93 91.8363 158.865 91.7756C158.805 91.7149 158.774 91.6347 158.774 91.5349C158.774 91.4048 158.822 91.2943 158.917 91.2032C159.013 91.1078 159.125 91.0601 159.256 91.0601C159.355 91.0601 159.436 91.0904 159.496 91.1512C159.557 91.2119 159.587 91.2921 159.587 91.3918C159.587 91.5219 159.54 91.6347 159.444 91.7301C159.349 91.8211 159.238 91.8667 159.112 91.8667ZM160.478 91.8667C160.378 91.8667 160.296 91.8363 160.231 91.7756C160.17 91.7149 160.14 91.6347 160.14 91.5349C160.14 91.4048 160.188 91.2943 160.283 91.2032C160.378 91.1078 160.491 91.0601 160.621 91.0601C160.721 91.0601 160.801 91.0904 160.862 91.1512C160.923 91.2119 160.953 91.2921 160.953 91.3918C160.953 91.5219 160.905 91.6347 160.81 91.7301C160.715 91.8211 160.604 91.8667 160.478 91.8667ZM161.844 91.8667C161.744 91.8667 161.662 91.8363 161.597 91.7756C161.536 91.7149 161.506 91.6347 161.506 91.5349C161.506 91.4048 161.553 91.2943 161.649 91.2032C161.744 91.1078 161.857 91.0601 161.987 91.0601C162.087 91.0601 162.167 91.0904 162.228 91.1512C162.288 91.2119 162.319 91.2921 162.319 91.3918C162.319 91.5219 162.271 91.6347 162.176 91.7301C162.08 91.8211 161.97 91.8667 161.844 91.8667ZM163.21 91.8667C163.11 91.8667 163.027 91.8363 162.962 91.7756C162.902 91.7149 162.871 91.6347 162.871 91.5349C162.871 91.4048 162.919 91.2943 163.014 91.2032C163.11 91.1078 163.223 91.0601 163.353 91.0601C163.452 91.0601 163.533 91.0904 163.593 91.1512C163.654 91.2119 163.684 91.2921 163.684 91.3918C163.684 91.5219 163.637 91.6347 163.541 91.7301C163.446 91.8211 163.335 91.8667 163.21 91.8667ZM164.575 91.8667C164.476 91.8667 164.393 91.8363 164.328 91.7756C164.267 91.7149 164.237 91.6347 164.237 91.5349C164.237 91.4048 164.285 91.2943 164.38 91.2032C164.476 91.1078 164.588 91.0601 164.718 91.0601C164.818 91.0601 164.898 91.0904 164.959 91.1512C165.02 91.2119 165.05 91.2921 165.05 91.3918C165.05 91.5219 165.002 91.6347 164.907 91.7301C164.812 91.8211 164.701 91.8667 164.575 91.8667ZM165.941 91.8667C165.841 91.8667 165.759 91.8363 165.694 91.7756C165.633 91.7149 165.603 91.6347 165.603 91.5349C165.603 91.4048 165.651 91.2943 165.746 91.2032C165.841 91.1078 165.954 91.0601 166.084 91.0601C166.184 91.0601 166.264 91.0904 166.325 91.1512C166.386 91.2119 166.416 91.2921 166.416 91.3918C166.416 91.5219 166.368 91.6347 166.273 91.7301C166.177 91.8211 166.067 91.8667 165.941 91.8667Z" fill="#DBCDBB"/>
<path d="M86.5847 94.5845L84.5004 92.4965L86.5847 94.5845ZM85.6554 89.7061C85.6554 90.7535 85.2393 91.758 84.4987 92.4986C83.7581 93.2392 82.7536 93.6553 81.7062 93.6553C80.6588 93.6553 79.6543 93.2392 78.9137 92.4986C78.173 91.758 77.757 90.7535 77.757 89.7061C77.757 88.6587 78.173 87.6542 78.9137 86.9135C79.6543 86.1729 80.6588 85.7568 81.7062 85.7568C82.7536 85.7568 83.7581 86.1729 84.4987 86.9135C85.2393 87.6542 85.6554 88.6587 85.6554 89.7061V89.7061Z" stroke="#2E2C43" stroke-width="0.929231" stroke-linecap="round"/>
<defs>
<filter id="filter0_d_1165_3" x="36.5215" y="34.8484" width="203.559" height="119.634" filterUnits="userSpaceOnUse" color-interpolation-filters="sRGB">
<feFlood flood-opacity="0" result="BackgroundImageFix"/>
<feColorMatrix in="SourceAlpha" type="matrix" values="0 0 0 0 0 0 0 0 0 0 0 0 0 0 0 0 0 0 127 0" result="hardAlpha"/>
<feOffset dx="4.64615" dy="4.64615"/>
<feGaussianBlur stdDeviation="23.2308"/>
<feComposite in2="hardAlpha" operator="out"/>
<feColorMatrix type="matrix" values="0 0 0 0 0.741667 0 0 0 0 0.741667 0 0 0 0 0.741667 0 0 0 0.35 0"/>
<feBlend mode="normal" in2="BackgroundImageFix" result="effect1_dropShadow_1165_3"/>
<feBlend mode="normal" in="SourceGraphic" in2="effect1_dropShadow_1165_3" result="shape"/>
</filter>
</defs>
</svg>
