<svg width="273" height="343" viewBox="0 0 273 343" fill="none" xmlns="http://www.w3.org/2000/svg">
<rect width="272.127" height="343" rx="24" fill="white"/>
<path d="M55.5147 260.27V261.572H52.9247V270H51.3287V261.572H48.7247V260.27H55.5147ZM64.0751 262.286L59.3431 273.626H57.6911L59.2591 269.874L56.2211 262.286H57.9991L60.1691 268.166L62.4231 262.286H64.0751ZM66.8755 263.42C67.1462 263.065 67.5148 262.767 67.9815 262.524C68.4482 262.281 68.9755 262.16 69.5635 262.16C70.2355 262.16 70.8468 262.328 71.3975 262.664C71.9575 262.991 72.3962 263.453 72.7135 264.05C73.0308 264.647 73.1895 265.333 73.1895 266.108C73.1895 266.883 73.0308 267.578 72.7135 268.194C72.3962 268.801 71.9575 269.277 71.3975 269.622C70.8468 269.958 70.2355 270.126 69.5635 270.126C68.9755 270.126 68.4528 270.009 67.9955 269.776C67.5382 269.533 67.1648 269.235 66.8755 268.88V273.668H65.2795V262.286H66.8755V263.42ZM71.5655 266.108C71.5655 265.576 71.4535 265.119 71.2295 264.736C71.0148 264.344 70.7255 264.05 70.3615 263.854C70.0068 263.649 69.6242 263.546 69.2135 263.546C68.8122 263.546 68.4295 263.649 68.0655 263.854C67.7108 264.059 67.4215 264.358 67.1975 264.75C66.9828 265.142 66.8755 265.604 66.8755 266.136C66.8755 266.668 66.9828 267.135 67.1975 267.536C67.4215 267.928 67.7108 268.227 68.0655 268.432C68.4295 268.637 68.8122 268.74 69.2135 268.74C69.6242 268.74 70.0068 268.637 70.3615 268.432C70.7255 268.217 71.0148 267.909 71.2295 267.508C71.4535 267.107 71.5655 266.64 71.5655 266.108ZM81.8378 265.954C81.8378 266.243 81.8191 266.505 81.7818 266.738H75.8878C75.9344 267.354 76.1631 267.849 76.5738 268.222C76.9844 268.595 77.4884 268.782 78.0858 268.782C78.9444 268.782 79.5511 268.423 79.9058 267.704H81.6278C81.3944 268.413 80.9698 268.997 80.3538 269.454C79.7471 269.902 78.9911 270.126 78.0858 270.126C77.3484 270.126 76.6858 269.963 76.0978 269.636C75.5191 269.3 75.0618 268.833 74.7258 268.236C74.3991 267.629 74.2358 266.929 74.2358 266.136C74.2358 265.343 74.3944 264.647 74.7118 264.05C75.0384 263.443 75.4911 262.977 76.0698 262.65C76.6578 262.323 77.3298 262.16 78.0858 262.16C78.8138 262.16 79.4624 262.319 80.0318 262.636C80.6011 262.953 81.0444 263.401 81.3618 263.98C81.6791 264.549 81.8378 265.207 81.8378 265.954ZM80.1718 265.45C80.1624 264.862 79.9524 264.391 79.5418 264.036C79.1311 263.681 78.6224 263.504 78.0158 263.504C77.4651 263.504 76.9938 263.681 76.6018 264.036C76.2098 264.381 75.9764 264.853 75.9018 265.45H80.1718ZM93.9891 262.286L89.2571 273.626H87.6051L89.1731 269.874L86.1351 262.286H87.9131L90.0831 268.166L92.3371 262.286H93.9891ZM98.5396 270.126C97.8116 270.126 97.1536 269.963 96.5656 269.636C95.9776 269.3 95.5156 268.833 95.1796 268.236C94.8436 267.629 94.6756 266.929 94.6756 266.136C94.6756 265.352 94.8482 264.657 95.1936 264.05C95.5389 263.443 96.0102 262.977 96.6076 262.65C97.2049 262.323 97.8722 262.16 98.6096 262.16C99.3469 262.16 100.014 262.323 100.612 262.65C101.209 262.977 101.68 263.443 102.026 264.05C102.371 264.657 102.544 265.352 102.544 266.136C102.544 266.92 102.366 267.615 102.012 268.222C101.657 268.829 101.172 269.3 100.556 269.636C99.9489 269.963 99.2769 270.126 98.5396 270.126ZM98.5396 268.74C98.9502 268.74 99.3329 268.642 99.6876 268.446C100.052 268.25 100.346 267.956 100.57 267.564C100.794 267.172 100.906 266.696 100.906 266.136C100.906 265.576 100.798 265.105 100.584 264.722C100.369 264.33 100.084 264.036 99.7296 263.84C99.3749 263.644 98.9922 263.546 98.5816 263.546C98.1709 263.546 97.7882 263.644 97.4336 263.84C97.0882 264.036 96.8129 264.33 96.6076 264.722C96.4022 265.105 96.2996 265.576 96.2996 266.136C96.2996 266.967 96.5096 267.611 96.9296 268.068C97.3589 268.516 97.8956 268.74 98.5396 268.74ZM111.107 262.286V270H109.511V269.09C109.259 269.407 108.928 269.659 108.517 269.846C108.116 270.023 107.687 270.112 107.229 270.112C106.623 270.112 106.077 269.986 105.591 269.734C105.115 269.482 104.737 269.109 104.457 268.614C104.187 268.119 104.051 267.522 104.051 266.822V262.286H105.633V266.584C105.633 267.275 105.806 267.807 106.151 268.18C106.497 268.544 106.968 268.726 107.565 268.726C108.163 268.726 108.634 268.544 108.979 268.18C109.334 267.807 109.511 267.275 109.511 266.584V262.286H111.107ZM114.809 263.406C115.042 263.014 115.35 262.711 115.733 262.496C116.125 262.272 116.587 262.16 117.119 262.16V263.812H116.713C116.088 263.812 115.612 263.971 115.285 264.288C114.968 264.605 114.809 265.156 114.809 265.94V270H113.213V262.286H114.809V263.406ZM125.023 270.126C124.416 270.126 123.87 270.019 123.385 269.804C122.909 269.58 122.531 269.281 122.251 268.908C121.971 268.525 121.822 268.101 121.803 267.634H123.455C123.483 267.961 123.637 268.236 123.917 268.46C124.206 268.675 124.566 268.782 124.995 268.782C125.443 268.782 125.788 268.698 126.031 268.53C126.283 268.353 126.409 268.129 126.409 267.858C126.409 267.569 126.269 267.354 125.989 267.214C125.718 267.074 125.284 266.92 124.687 266.752C124.108 266.593 123.637 266.439 123.273 266.29C122.909 266.141 122.592 265.912 122.321 265.604C122.06 265.296 121.929 264.89 121.929 264.386C121.929 263.975 122.05 263.602 122.293 263.266C122.536 262.921 122.881 262.65 123.329 262.454C123.786 262.258 124.309 262.16 124.897 262.16C125.774 262.16 126.479 262.384 127.011 262.832C127.552 263.271 127.842 263.873 127.879 264.638H126.283C126.255 264.293 126.115 264.017 125.863 263.812C125.611 263.607 125.27 263.504 124.841 263.504C124.421 263.504 124.099 263.583 123.875 263.742C123.651 263.901 123.539 264.111 123.539 264.372C123.539 264.577 123.614 264.75 123.763 264.89C123.912 265.03 124.094 265.142 124.309 265.226C124.524 265.301 124.841 265.399 125.261 265.52C125.821 265.669 126.278 265.823 126.633 265.982C126.997 266.131 127.31 266.355 127.571 266.654C127.832 266.953 127.968 267.349 127.977 267.844C127.977 268.283 127.856 268.675 127.613 269.02C127.37 269.365 127.025 269.636 126.577 269.832C126.138 270.028 125.62 270.126 125.023 270.126ZM131.297 263.42C131.568 263.065 131.937 262.767 132.403 262.524C132.87 262.281 133.397 262.16 133.985 262.16C134.657 262.16 135.269 262.328 135.819 262.664C136.379 262.991 136.818 263.453 137.135 264.05C137.453 264.647 137.611 265.333 137.611 266.108C137.611 266.883 137.453 267.578 137.135 268.194C136.818 268.801 136.379 269.277 135.819 269.622C135.269 269.958 134.657 270.126 133.985 270.126C133.397 270.126 132.875 270.009 132.417 269.776C131.96 269.533 131.587 269.235 131.297 268.88V273.668H129.701V262.286H131.297V263.42ZM135.987 266.108C135.987 265.576 135.875 265.119 135.651 264.736C135.437 264.344 135.147 264.05 134.783 263.854C134.429 263.649 134.046 263.546 133.635 263.546C133.234 263.546 132.851 263.649 132.487 263.854C132.133 264.059 131.843 264.358 131.619 264.75C131.405 265.142 131.297 265.604 131.297 266.136C131.297 266.668 131.405 267.135 131.619 267.536C131.843 267.928 132.133 268.227 132.487 268.432C132.851 268.637 133.234 268.74 133.635 268.74C134.046 268.74 134.429 268.637 134.783 268.432C135.147 268.217 135.437 267.909 135.651 267.508C135.875 267.107 135.987 266.64 135.987 266.108ZM138.658 266.108C138.658 265.333 138.816 264.647 139.134 264.05C139.46 263.453 139.899 262.991 140.45 262.664C141.01 262.328 141.626 262.16 142.298 262.16C142.904 262.16 143.432 262.281 143.88 262.524C144.337 262.757 144.701 263.051 144.972 263.406V262.286H146.582V270H144.972V268.852C144.701 269.216 144.332 269.519 143.866 269.762C143.399 270.005 142.867 270.126 142.27 270.126C141.607 270.126 141 269.958 140.45 269.622C139.899 269.277 139.46 268.801 139.134 268.194C138.816 267.578 138.658 266.883 138.658 266.108ZM144.972 266.136C144.972 265.604 144.86 265.142 144.636 264.75C144.421 264.358 144.136 264.059 143.782 263.854C143.427 263.649 143.044 263.546 142.634 263.546C142.223 263.546 141.84 263.649 141.486 263.854C141.131 264.05 140.842 264.344 140.618 264.736C140.403 265.119 140.296 265.576 140.296 266.108C140.296 266.64 140.403 267.107 140.618 267.508C140.842 267.909 141.131 268.217 141.486 268.432C141.85 268.637 142.232 268.74 142.634 268.74C143.044 268.74 143.427 268.637 143.782 268.432C144.136 268.227 144.421 267.928 144.636 267.536C144.86 267.135 144.972 266.668 144.972 266.136ZM148.146 266.108C148.146 265.333 148.305 264.647 148.622 264.05C148.949 263.453 149.387 262.991 149.938 262.664C150.498 262.328 151.119 262.16 151.8 262.16C152.304 262.16 152.799 262.272 153.284 262.496C153.779 262.711 154.171 263 154.46 263.364V259.64H156.07V270H154.46V268.838C154.199 269.211 153.835 269.519 153.368 269.762C152.911 270.005 152.383 270.126 151.786 270.126C151.114 270.126 150.498 269.958 149.938 269.622C149.387 269.277 148.949 268.801 148.622 268.194C148.305 267.578 148.146 266.883 148.146 266.108ZM154.46 266.136C154.46 265.604 154.348 265.142 154.124 264.75C153.909 264.358 153.625 264.059 153.27 263.854C152.915 263.649 152.533 263.546 152.122 263.546C151.711 263.546 151.329 263.649 150.974 263.854C150.619 264.05 150.33 264.344 150.106 264.736C149.891 265.119 149.784 265.576 149.784 266.108C149.784 266.64 149.891 267.107 150.106 267.508C150.33 267.909 150.619 268.217 150.974 268.432C151.338 268.637 151.721 268.74 152.122 268.74C152.533 268.74 152.915 268.637 153.27 268.432C153.625 268.227 153.909 267.928 154.124 267.536C154.348 267.135 154.46 266.668 154.46 266.136ZM165.236 265.954C165.236 266.243 165.218 266.505 165.18 266.738H159.286C159.333 267.354 159.562 267.849 159.972 268.222C160.383 268.595 160.887 268.782 161.484 268.782C162.343 268.782 162.95 268.423 163.304 267.704H165.026C164.793 268.413 164.368 268.997 163.752 269.454C163.146 269.902 162.39 270.126 161.484 270.126C160.747 270.126 160.084 269.963 159.496 269.636C158.918 269.3 158.46 268.833 158.124 268.236C157.798 267.629 157.634 266.929 157.634 266.136C157.634 265.343 157.793 264.647 158.11 264.05C158.437 263.443 158.89 262.977 159.468 262.65C160.056 262.323 160.728 262.16 161.484 262.16C162.212 262.16 162.861 262.319 163.43 262.636C164 262.953 164.443 263.401 164.76 263.98C165.078 264.549 165.236 265.207 165.236 265.954ZM163.57 265.45C163.561 264.862 163.351 264.391 162.94 264.036C162.53 263.681 162.021 263.504 161.414 263.504C160.864 263.504 160.392 263.681 160 264.036C159.608 264.381 159.375 264.853 159.3 265.45H163.57ZM169.912 266.136C169.912 265.343 170.07 264.647 170.388 264.05C170.714 263.443 171.162 262.977 171.732 262.65C172.301 262.323 172.954 262.16 173.692 262.16C174.625 262.16 175.395 262.384 176.002 262.832C176.618 263.271 177.033 263.901 177.248 264.722H175.526C175.386 264.339 175.162 264.041 174.854 263.826C174.546 263.611 174.158 263.504 173.692 263.504C173.038 263.504 172.516 263.737 172.124 264.204C171.741 264.661 171.55 265.305 171.55 266.136C171.55 266.967 171.741 267.615 172.124 268.082C172.516 268.549 173.038 268.782 173.692 268.782C174.616 268.782 175.227 268.376 175.526 267.564H177.248C177.024 268.348 176.604 268.973 175.988 269.44C175.372 269.897 174.606 270.126 173.692 270.126C172.954 270.126 172.301 269.963 171.732 269.636C171.162 269.3 170.714 268.833 170.388 268.236C170.07 267.629 169.912 266.929 169.912 266.136ZM180.434 259.64V270H178.838V259.64H180.434ZM189.599 265.954C189.599 266.243 189.581 266.505 189.543 266.738H183.649C183.696 267.354 183.925 267.849 184.335 268.222C184.746 268.595 185.25 268.782 185.847 268.782C186.706 268.782 187.313 268.423 187.667 267.704H189.389C189.156 268.413 188.731 268.997 188.115 269.454C187.509 269.902 186.753 270.126 185.847 270.126C185.11 270.126 184.447 269.963 183.859 269.636C183.281 269.3 182.823 268.833 182.487 268.236C182.161 267.629 181.997 266.929 181.997 266.136C181.997 265.343 182.156 264.647 182.473 264.05C182.8 263.443 183.253 262.977 183.831 262.65C184.419 262.323 185.091 262.16 185.847 262.16C186.575 262.16 187.224 262.319 187.793 262.636C188.363 262.953 188.806 263.401 189.123 263.98C189.441 264.549 189.599 265.207 189.599 265.954ZM187.933 265.45C187.924 264.862 187.714 264.391 187.303 264.036C186.893 263.681 186.384 263.504 185.777 263.504C185.227 263.504 184.755 263.681 184.363 264.036C183.971 264.381 183.738 264.853 183.663 265.45H187.933ZM190.638 266.108C190.638 265.333 190.797 264.647 191.114 264.05C191.441 263.453 191.879 262.991 192.43 262.664C192.99 262.328 193.606 262.16 194.278 262.16C194.885 262.16 195.412 262.281 195.86 262.524C196.317 262.757 196.681 263.051 196.952 263.406V262.286H198.562V270H196.952V268.852C196.681 269.216 196.313 269.519 195.846 269.762C195.379 270.005 194.847 270.126 194.25 270.126C193.587 270.126 192.981 269.958 192.43 269.622C191.879 269.277 191.441 268.801 191.114 268.194C190.797 267.578 190.638 266.883 190.638 266.108ZM196.952 266.136C196.952 265.604 196.84 265.142 196.616 264.75C196.401 264.358 196.117 264.059 195.762 263.854C195.407 263.649 195.025 263.546 194.614 263.546C194.203 263.546 193.821 263.649 193.466 263.854C193.111 264.05 192.822 264.344 192.598 264.736C192.383 265.119 192.276 265.576 192.276 266.108C192.276 266.64 192.383 267.107 192.598 267.508C192.822 267.909 193.111 268.217 193.466 268.432C193.83 268.637 194.213 268.74 194.614 268.74C195.025 268.74 195.407 268.637 195.762 268.432C196.117 268.227 196.401 267.928 196.616 267.536C196.84 267.135 196.952 266.668 196.952 266.136ZM202.254 263.406C202.488 263.014 202.796 262.711 203.178 262.496C203.57 262.272 204.032 262.16 204.564 262.16V263.812H204.158C203.533 263.812 203.057 263.971 202.73 264.288C202.413 264.605 202.254 265.156 202.254 265.94V270H200.658V262.286H202.254V263.406ZM207.627 259.64V270H206.031V259.64H207.627ZM216.667 262.286L211.935 273.626H210.283L211.851 269.874L208.813 262.286H210.591L212.761 268.166L215.015 262.286H216.667ZM119.516 284.588H118.088V291H116.478V284.588H115.568V283.286H116.478V282.74C116.478 281.853 116.712 281.209 117.178 280.808C117.654 280.397 118.396 280.192 119.404 280.192V281.522C118.919 281.522 118.578 281.615 118.382 281.802C118.186 281.979 118.088 282.292 118.088 282.74V283.286H119.516V284.588ZM121.743 282.264C121.454 282.264 121.211 282.166 121.015 281.97C120.819 281.774 120.721 281.531 120.721 281.242C120.721 280.953 120.819 280.71 121.015 280.514C121.211 280.318 121.454 280.22 121.743 280.22C122.023 280.22 122.261 280.318 122.457 280.514C122.653 280.71 122.751 280.953 122.751 281.242C122.751 281.531 122.653 281.774 122.457 281.97C122.261 282.166 122.023 282.264 121.743 282.264ZM122.527 283.286V291H120.931V283.286H122.527ZM126.218 284.406C126.452 284.014 126.76 283.711 127.142 283.496C127.534 283.272 127.996 283.16 128.528 283.16V284.812H128.122C127.497 284.812 127.021 284.971 126.694 285.288C126.377 285.605 126.218 286.156 126.218 286.94V291H124.622V283.286H126.218V284.406ZM132.795 291.126C132.189 291.126 131.643 291.019 131.157 290.804C130.681 290.58 130.303 290.281 130.023 289.908C129.743 289.525 129.594 289.101 129.575 288.634H131.227C131.255 288.961 131.409 289.236 131.689 289.46C131.979 289.675 132.338 289.782 132.767 289.782C133.215 289.782 133.561 289.698 133.803 289.53C134.055 289.353 134.181 289.129 134.181 288.858C134.181 288.569 134.041 288.354 133.761 288.214C133.491 288.074 133.057 287.92 132.459 287.752C131.881 287.593 131.409 287.439 131.045 287.29C130.681 287.141 130.364 286.912 130.093 286.604C129.832 286.296 129.701 285.89 129.701 285.386C129.701 284.975 129.823 284.602 130.065 284.266C130.308 283.921 130.653 283.65 131.101 283.454C131.559 283.258 132.081 283.16 132.669 283.16C133.547 283.16 134.251 283.384 134.783 283.832C135.325 284.271 135.614 284.873 135.651 285.638H134.055C134.027 285.293 133.887 285.017 133.635 284.812C133.383 284.607 133.043 284.504 132.613 284.504C132.193 284.504 131.871 284.583 131.647 284.742C131.423 284.901 131.311 285.111 131.311 285.372C131.311 285.577 131.386 285.75 131.535 285.89C131.685 286.03 131.867 286.142 132.081 286.226C132.296 286.301 132.613 286.399 133.033 286.52C133.593 286.669 134.051 286.823 134.405 286.982C134.769 287.131 135.082 287.355 135.343 287.654C135.605 287.953 135.74 288.349 135.749 288.844C135.749 289.283 135.628 289.675 135.385 290.02C135.143 290.365 134.797 290.636 134.349 290.832C133.911 291.028 133.393 291.126 132.795 291.126ZM139.336 284.588V288.858C139.336 289.147 139.401 289.357 139.532 289.488C139.672 289.609 139.905 289.67 140.232 289.67H141.212V291H139.952C139.233 291 138.682 290.832 138.3 290.496C137.917 290.16 137.726 289.614 137.726 288.858V284.588H136.816V283.286H137.726V281.368H139.336V283.286H141.212V284.588H139.336ZM148.322 281.27L148.14 288.06H146.81L146.628 281.27H148.322ZM147.524 291.098C147.234 291.098 146.992 291 146.796 290.804C146.6 290.608 146.502 290.365 146.502 290.076C146.502 289.787 146.6 289.544 146.796 289.348C146.992 289.152 147.234 289.054 147.524 289.054C147.804 289.054 148.042 289.152 148.238 289.348C148.434 289.544 148.532 289.787 148.532 290.076C148.532 290.365 148.434 290.608 148.238 290.804C148.042 291 147.804 291.098 147.524 291.098Z" fill="#2E2C43"/>
<rect x="23" y="86" width="220" height="127" rx="16" fill="#F9F9F9"/>
<rect x="23.25" y="86.25" width="219.5" height="126.5" rx="15.75" stroke="#2E2C43" stroke-opacity="0.1" stroke-width="0.5"/>
<path d="M64.084 108.242V109.278H61.424V118H60.15V109.278H57.476V108.242H64.084ZM72.2602 110.328L67.6402 121.612H66.3242L67.8362 117.916L64.7422 110.328H66.1562L68.5642 116.544L70.9442 110.328H72.2602ZM74.8149 111.742C75.0669 111.303 75.4402 110.939 75.9349 110.65C76.4389 110.351 77.0222 110.202 77.6849 110.202C78.3662 110.202 78.9822 110.365 79.5329 110.692C80.0929 111.019 80.5316 111.481 80.8489 112.078C81.1662 112.666 81.3249 113.352 81.3249 114.136C81.3249 114.911 81.1662 115.601 80.8489 116.208C80.5316 116.815 80.0929 117.286 79.5329 117.622C78.9822 117.958 78.3662 118.126 77.6849 118.126C77.0316 118.126 76.4529 117.981 75.9489 117.692C75.4542 117.393 75.0762 117.025 74.8149 116.586V121.64H73.5409V110.328H74.8149V111.742ZM80.0229 114.136C80.0229 113.557 79.9062 113.053 79.6729 112.624C79.4396 112.195 79.1222 111.868 78.7209 111.644C78.3289 111.42 77.8949 111.308 77.4189 111.308C76.9522 111.308 76.5182 111.425 76.1169 111.658C75.7249 111.882 75.4076 112.213 75.1649 112.652C74.9316 113.081 74.8149 113.581 74.8149 114.15C74.8149 114.729 74.9316 115.237 75.1649 115.676C75.4076 116.105 75.7249 116.437 76.1169 116.67C76.5182 116.894 76.9522 117.006 77.4189 117.006C77.8949 117.006 78.3289 116.894 78.7209 116.67C79.1222 116.437 79.4396 116.105 79.6729 115.676C79.9062 115.237 80.0229 114.724 80.0229 114.136ZM90.0018 113.87C90.0018 114.113 89.9878 114.369 89.9598 114.64H83.8278C83.8745 115.396 84.1312 115.989 84.5978 116.418C85.0738 116.838 85.6478 117.048 86.3198 117.048C86.8705 117.048 87.3278 116.922 87.6918 116.67C88.0652 116.409 88.3265 116.063 88.4758 115.634H89.8478C89.6425 116.371 89.2318 116.973 88.6158 117.44C87.9998 117.897 87.2345 118.126 86.3198 118.126C85.5918 118.126 84.9385 117.963 84.3598 117.636C83.7905 117.309 83.3425 116.847 83.0158 116.25C82.6892 115.643 82.5258 114.943 82.5258 114.15C82.5258 113.357 82.6845 112.661 83.0018 112.064C83.3192 111.467 83.7625 111.009 84.3318 110.692C84.9105 110.365 85.5732 110.202 86.3198 110.202C87.0478 110.202 87.6918 110.361 88.2518 110.678C88.8118 110.995 89.2412 111.434 89.5398 111.994C89.8478 112.545 90.0018 113.17 90.0018 113.87ZM88.6858 113.604C88.6858 113.119 88.5785 112.703 88.3638 112.358C88.1492 112.003 87.8552 111.737 87.4818 111.56C87.1178 111.373 86.7118 111.28 86.2638 111.28C85.6198 111.28 85.0692 111.485 84.6118 111.896C84.1638 112.307 83.9072 112.876 83.8418 113.604H88.6858ZM99.2239 110.188C99.8026 110.188 100.325 110.314 100.792 110.566C101.259 110.809 101.623 111.177 101.884 111.672C102.155 112.167 102.29 112.769 102.29 113.478V118H101.03V113.66C101.03 112.895 100.839 112.311 100.456 111.91C100.073 111.499 99.5506 111.294 98.8879 111.294C98.2159 111.294 97.6792 111.504 97.2779 111.924C96.8859 112.344 96.6899 112.955 96.6899 113.758V118H95.4159V107.64H96.6899V111.42C96.9419 111.028 97.2872 110.725 97.7259 110.51C98.1739 110.295 98.6732 110.188 99.2239 110.188ZM111.371 113.87C111.371 114.113 111.357 114.369 111.329 114.64H105.197C105.244 115.396 105.5 115.989 105.967 116.418C106.443 116.838 107.017 117.048 107.689 117.048C108.24 117.048 108.697 116.922 109.061 116.67C109.434 116.409 109.696 116.063 109.845 115.634H111.217C111.012 116.371 110.601 116.973 109.985 117.44C109.369 117.897 108.604 118.126 107.689 118.126C106.961 118.126 106.308 117.963 105.729 117.636C105.16 117.309 104.712 116.847 104.385 116.25C104.058 115.643 103.895 114.943 103.895 114.15C103.895 113.357 104.054 112.661 104.371 112.064C104.688 111.467 105.132 111.009 105.701 110.692C106.28 110.365 106.942 110.202 107.689 110.202C108.417 110.202 109.061 110.361 109.621 110.678C110.181 110.995 110.61 111.434 110.909 111.994C111.217 112.545 111.371 113.17 111.371 113.87ZM110.055 113.604C110.055 113.119 109.948 112.703 109.733 112.358C109.518 112.003 109.224 111.737 108.851 111.56C108.487 111.373 108.081 111.28 107.633 111.28C106.989 111.28 106.438 111.485 105.981 111.896C105.533 112.307 105.276 112.876 105.211 113.604H110.055ZM114.327 111.574C114.551 111.135 114.868 110.795 115.279 110.552C115.699 110.309 116.207 110.188 116.805 110.188V111.504H116.469C115.041 111.504 114.327 112.279 114.327 113.828V118H113.053V110.328H114.327V111.574ZM125.275 113.87C125.275 114.113 125.261 114.369 125.233 114.64H119.101C119.148 115.396 119.405 115.989 119.871 116.418C120.347 116.838 120.921 117.048 121.593 117.048C122.144 117.048 122.601 116.922 122.965 116.67C123.339 116.409 123.6 116.063 123.749 115.634H125.121C124.916 116.371 124.505 116.973 123.889 117.44C123.273 117.897 122.508 118.126 121.593 118.126C120.865 118.126 120.212 117.963 119.633 117.636C119.064 117.309 118.616 116.847 118.289 116.25C117.963 115.643 117.799 114.943 117.799 114.15C117.799 113.357 117.958 112.661 118.275 112.064C118.593 111.467 119.036 111.009 119.605 110.692C120.184 110.365 120.847 110.202 121.593 110.202C122.321 110.202 122.965 110.361 123.525 110.678C124.085 110.995 124.515 111.434 124.813 111.994C125.121 112.545 125.275 113.17 125.275 113.87ZM123.959 113.604C123.959 113.119 123.852 112.703 123.637 112.358C123.423 112.003 123.129 111.737 122.755 111.56C122.391 111.373 121.985 111.28 121.537 111.28C120.893 111.28 120.343 111.485 119.885 111.896C119.437 112.307 119.181 112.876 119.115 113.604H123.959ZM131.095 118.084C130.853 118.084 130.647 118 130.479 117.832C130.311 117.664 130.227 117.459 130.227 117.216C130.227 116.973 130.311 116.768 130.479 116.6C130.647 116.432 130.853 116.348 131.095 116.348C131.329 116.348 131.525 116.432 131.683 116.6C131.851 116.768 131.935 116.973 131.935 117.216C131.935 117.459 131.851 117.664 131.683 117.832C131.525 118 131.329 118.084 131.095 118.084ZM134.035 118.084C133.792 118.084 133.587 118 133.419 117.832C133.251 117.664 133.167 117.459 133.167 117.216C133.167 116.973 133.251 116.768 133.419 116.6C133.587 116.432 133.792 116.348 134.035 116.348C134.268 116.348 134.464 116.432 134.623 116.6C134.791 116.768 134.875 116.973 134.875 117.216C134.875 117.459 134.791 117.664 134.623 117.832C134.464 118 134.268 118.084 134.035 118.084ZM136.974 118.084C136.732 118.084 136.526 118 136.358 117.832C136.19 117.664 136.106 117.459 136.106 117.216C136.106 116.973 136.19 116.768 136.358 116.6C136.526 116.432 136.732 116.348 136.974 116.348C137.208 116.348 137.404 116.432 137.562 116.6C137.73 116.768 137.814 116.973 137.814 117.216C137.814 117.459 137.73 117.664 137.562 117.832C137.404 118 137.208 118.084 136.974 118.084ZM139.914 118.084C139.671 118.084 139.466 118 139.298 117.832C139.13 117.664 139.046 117.459 139.046 117.216C139.046 116.973 139.13 116.768 139.298 116.6C139.466 116.432 139.671 116.348 139.914 116.348C140.147 116.348 140.343 116.432 140.502 116.6C140.67 116.768 140.754 116.973 140.754 117.216C140.754 117.459 140.67 117.664 140.502 117.832C140.343 118 140.147 118.084 139.914 118.084ZM142.853 118.084C142.61 118.084 142.405 118 142.237 117.832C142.069 117.664 141.985 117.459 141.985 117.216C141.985 116.973 142.069 116.768 142.237 116.6C142.405 116.432 142.61 116.348 142.853 116.348C143.086 116.348 143.282 116.432 143.441 116.6C143.609 116.768 143.693 116.973 143.693 117.216C143.693 117.459 143.609 117.664 143.441 117.832C143.282 118 143.086 118.084 142.853 118.084ZM145.793 118.084C145.55 118.084 145.345 118 145.177 117.832C145.009 117.664 144.925 117.459 144.925 117.216C144.925 116.973 145.009 116.768 145.177 116.6C145.345 116.432 145.55 116.348 145.793 116.348C146.026 116.348 146.222 116.432 146.381 116.6C146.549 116.768 146.633 116.973 146.633 117.216C146.633 117.459 146.549 117.664 146.381 117.832C146.222 118 146.026 118.084 145.793 118.084Z" fill="#DBCDBB"/>
<path d="M33.5968 57.098C32.9435 57.098 32.3555 56.986 31.8328 56.762C31.3102 56.5287 30.8995 56.202 30.6008 55.782C30.3022 55.362 30.1528 54.872 30.1528 54.312H31.8608C31.8982 54.732 32.0615 55.0773 32.3508 55.348C32.6495 55.6187 33.0648 55.754 33.5968 55.754C34.1475 55.754 34.5768 55.6233 34.8848 55.362C35.1928 55.0913 35.3468 54.746 35.3468 54.326C35.3468 53.9993 35.2488 53.7333 35.0528 53.528C34.8662 53.3227 34.6282 53.164 34.3388 53.052C34.0588 52.94 33.6668 52.8187 33.1628 52.688C32.5282 52.52 32.0102 52.352 31.6088 52.184C31.2168 52.0067 30.8808 51.736 30.6008 51.372C30.3208 51.008 30.1808 50.5227 30.1808 49.916C30.1808 49.356 30.3208 48.866 30.6008 48.446C30.8808 48.026 31.2728 47.704 31.7768 47.48C32.2808 47.256 32.8642 47.144 33.5268 47.144C34.4695 47.144 35.2395 47.382 35.8368 47.858C36.4435 48.3247 36.7795 48.9687 36.8448 49.79H35.0808C35.0528 49.4353 34.8848 49.132 34.5768 48.88C34.2688 48.628 33.8628 48.502 33.3588 48.502C32.9015 48.502 32.5282 48.6187 32.2388 48.852C31.9495 49.0853 31.8048 49.4213 31.8048 49.86C31.8048 50.1587 31.8935 50.406 32.0708 50.602C32.2575 50.7887 32.4908 50.938 32.7708 51.05C33.0508 51.162 33.4335 51.2833 33.9188 51.414C34.5628 51.5913 35.0855 51.7687 35.4868 51.946C35.8975 52.1233 36.2428 52.3987 36.5228 52.772C36.8122 53.136 36.9568 53.626 36.9568 54.242C36.9568 54.7367 36.8215 55.2033 36.5508 55.642C36.2895 56.0807 35.9022 56.4353 35.3888 56.706C34.8848 56.9673 34.2875 57.098 33.5968 57.098ZM40.702 50.588V54.858C40.702 55.1473 40.7674 55.3573 40.898 55.488C41.038 55.6093 41.2714 55.67 41.598 55.67H42.578V57H41.318C40.5994 57 40.0487 56.832 39.666 56.496C39.2834 56.16 39.092 55.614 39.092 54.858V50.588H38.182V49.286H39.092V47.368H40.702V49.286H42.578V50.588H40.702ZM51.119 52.954C51.119 53.2433 51.1004 53.5047 51.063 53.738H45.169C45.2157 54.354 45.4444 54.8487 45.855 55.222C46.2657 55.5953 46.7697 55.782 47.367 55.782C48.2257 55.782 48.8324 55.4227 49.187 54.704H50.909C50.6757 55.4133 50.251 55.9967 49.635 56.454C49.0284 56.902 48.2724 57.126 47.367 57.126C46.6297 57.126 45.967 56.9627 45.379 56.636C44.8004 56.3 44.343 55.8333 44.007 55.236C43.6804 54.6293 43.517 53.9293 43.517 53.136C43.517 52.3427 43.6757 51.6473 43.993 51.05C44.3197 50.4433 44.7724 49.9767 45.351 49.65C45.939 49.3233 46.611 49.16 47.367 49.16C48.095 49.16 48.7437 49.3187 49.313 49.636C49.8824 49.9533 50.3257 50.4013 50.643 50.98C50.9604 51.5493 51.119 52.2073 51.119 52.954ZM49.453 52.45C49.4437 51.862 49.2337 51.3907 48.823 51.036C48.4124 50.6813 47.9037 50.504 47.297 50.504C46.7464 50.504 46.275 50.6813 45.883 51.036C45.491 51.3813 45.2577 51.8527 45.183 52.45H49.453ZM54.2856 50.42C54.5563 50.0653 54.925 49.7667 55.3916 49.524C55.8583 49.2813 56.3856 49.16 56.9736 49.16C57.6456 49.16 58.257 49.328 58.8076 49.664C59.3676 49.9907 59.8063 50.4527 60.1236 51.05C60.441 51.6473 60.5996 52.3333 60.5996 53.108C60.5996 53.8827 60.441 54.578 60.1236 55.194C59.8063 55.8007 59.3676 56.2767 58.8076 56.622C58.257 56.958 57.6456 57.126 56.9736 57.126C56.3856 57.126 55.863 57.0093 55.4056 56.776C54.9483 56.5333 54.575 56.2347 54.2856 55.88V60.668H52.6896V49.286H54.2856V50.42ZM58.9756 53.108C58.9756 52.576 58.8636 52.1187 58.6396 51.736C58.425 51.344 58.1356 51.05 57.7716 50.854C57.417 50.6487 57.0343 50.546 56.6236 50.546C56.2223 50.546 55.8396 50.6487 55.4756 50.854C55.121 51.0593 54.8316 51.358 54.6076 51.75C54.393 52.142 54.2856 52.604 54.2856 53.136C54.2856 53.668 54.393 54.1347 54.6076 54.536C54.8316 54.928 55.121 55.2267 55.4756 55.432C55.8396 55.6373 56.2223 55.74 56.6236 55.74C57.0343 55.74 57.417 55.6373 57.7716 55.432C58.1356 55.2173 58.425 54.9093 58.6396 54.508C58.8636 54.1067 58.9756 53.64 58.9756 53.108ZM65.3946 48.25V46.794H68.3066V57H66.6966V48.25H65.3946Z" fill="black"/>
<path d="M135.626 57.8191L136.145 59.4344L135.407 62.688L132.032 66.3838C135.482 66.5925 138.904 65.6503 141.761 63.7047C141.761 63.7047 143.064 55.2371 135.248 55.2371C133.169 56.6232 131.388 57.5813 129.386 57.5774H129.467C127.465 57.5813 125.684 56.6232 123.605 55.2371C115.788 55.2371 117.091 63.7047 117.091 63.7047C123.59 67.6266 126.45 66.12 135.407 62.688L135.809 60.3945L120.132 61.2739L123.59 60.6824" fill="#FB8C00"/>
<path d="M141.752 63.7055C141.752 63.7055 143.054 55.2378 135.238 55.2378C133.159 56.6239 131.377 57.5814 129.376 57.5775H129.457C127.455 57.5814 125.674 56.6239 123.595 55.2378C115.779 55.2378 117.081 63.7055 117.081 63.7055" fill="#FB8C00"/>
<path d="M135.422 55.2378C133.729 56.5307 131.717 57.3386 129.601 57.5749C138.109 57.8439 138.109 61.1007 138.605 63.7061H141.935C141.935 63.7061 143.238 55.2378 135.422 55.2378Z" fill="#FB8C00"/>
<path d="M141.935 63.7054C141.935 63.7054 134.278 69.5846 128.428 65.6354L135.407 62.688L136.145 59.4344C136.145 59.4344 141.992 57.8295 141.935 63.7054Z" fill="#FB8C00"/>
<path d="M129.427 53.722C133.506 53.722 136.812 49.5888 136.812 44.4903C136.812 39.3917 133.506 35.2585 129.427 35.2585C125.348 35.2585 122.041 39.3917 122.041 44.4903C122.041 49.5888 125.348 53.722 129.427 53.722Z" fill="#FB8C00"/>
<path d="M138.006 34.4424C129.427 37.1241 122.041 43.2482 122.041 43.2482C122.041 43.2482 119.461 39.7699 120.584 36.261C120.584 36.261 122.041 31 129.075 31C134.092 31 136.628 33.0648 138.006 34.4424C142.01 40.1256 136.615 43.3036 136.615 43.3036C134.429 41.6 132.33 39.7869 130.326 37.8712" fill="white"/>
<path d="M138.006 34.4424C142.009 40.1255 136.615 43.3035 136.615 43.3035C134.428 41.5999 132.33 39.7868 130.326 37.8711" fill="#F9F9F9"/>
<path d="M129.427 41.6674C129.081 41.6674 128.75 41.5302 128.506 41.2859C128.261 41.0416 128.124 40.7102 128.124 40.3647V37.7593C128.124 37.4138 128.261 37.0824 128.506 36.8381C128.75 36.5938 129.081 36.4565 129.427 36.4565C129.772 36.4565 130.104 36.5938 130.348 36.8381C130.592 37.0824 130.729 37.4138 130.729 37.7593V40.3647C130.729 40.7102 130.592 41.0416 130.348 41.2859C130.104 41.5302 129.772 41.6674 129.427 41.6674ZM135.407 62.6881L132.533 63.8808V60.4644H135.809L135.407 62.6881Z" fill="#FCEA2B"/>
<path d="M132.032 66.3837C135.482 66.5927 138.904 65.6509 141.761 63.706C141.761 63.706 143.064 55.2383 135.247 55.2383C133.168 56.6244 131.387 57.5819 129.385 57.578H129.466C127.464 57.5819 125.683 56.6244 123.604 55.2383C115.788 55.2383 117.091 63.706 117.091 63.706C123.59 67.6272 126.449 66.1212 135.406 62.6885L135.808 60.3958L120.131 61.2751" stroke="black" stroke-width="2" stroke-linecap="round" stroke-linejoin="round"/>
<path d="M135.626 57.8191L136.145 59.4345L135.407 62.688" stroke="black" stroke-width="2" stroke-linecap="round" stroke-linejoin="round"/>
<path d="M133.335 43.604C133.335 43.8616 133.258 44.1135 133.115 44.3277C132.972 44.542 132.769 44.7089 132.531 44.8075C132.293 44.9061 132.031 44.9319 131.778 44.8817C131.525 44.8314 131.293 44.7073 131.111 44.5252C130.929 44.343 130.805 44.1108 130.754 43.8581C130.704 43.6054 130.73 43.3435 130.829 43.1055C130.927 42.8674 131.094 42.664 131.308 42.5208C131.523 42.3777 131.774 42.3013 132.032 42.3013C132.378 42.3013 132.709 42.4385 132.953 42.6828C133.198 42.9271 133.335 43.2585 133.335 43.604ZM128.124 43.604C128.124 43.8616 128.048 44.1135 127.904 44.3277C127.761 44.542 127.558 44.7089 127.32 44.8075C127.082 44.9061 126.82 44.9319 126.567 44.8817C126.314 44.8314 126.082 44.7073 125.9 44.5252C125.718 44.343 125.594 44.1108 125.544 43.8581C125.493 43.6054 125.519 43.3435 125.618 43.1055C125.716 42.8674 125.883 42.664 126.097 42.5208C126.312 42.3777 126.564 42.3013 126.821 42.3013C127.167 42.3013 127.498 42.4385 127.742 42.6828C127.987 42.9271 128.124 43.2585 128.124 43.604ZM129.427 50.1189C128.645 50.1114 127.875 49.9199 127.181 49.56C127.026 49.4827 126.909 49.3472 126.854 49.1833C126.8 49.0193 126.812 48.8404 126.89 48.6859C126.967 48.5314 127.102 48.4139 127.266 48.3593C127.43 48.3047 127.609 48.3174 127.764 48.3947C128.275 48.6703 128.846 48.8145 129.426 48.8145C130.007 48.8145 130.578 48.6703 131.089 48.3947C131.244 48.3174 131.423 48.3047 131.587 48.3594C131.751 48.414 131.886 48.5316 131.963 48.6862C132.041 48.8408 132.053 49.0198 131.999 49.1838C131.944 49.3478 131.827 49.4834 131.672 49.5607C130.978 49.9203 130.208 50.1115 129.427 50.1189Z" fill="black"/>
<path d="M128.125 39.0313C127.291 39.5328 126.516 40.0279 125.826 40.4903C123.787 41.8517 122.432 42.9329 122.113 43.187C122.068 43.226 122.042 43.2456 122.042 43.2456C122.042 43.2456 119.462 39.7673 120.582 36.263C120.582 36.263 122.042 31 129.076 31C134.092 31 136.625 33.0648 138.006 34.4457C141.641 39.598 137.537 42.6854 136.743 43.2195C136.658 43.2781 136.612 43.3042 136.612 43.3042C136.612 43.3042 133.74 41.1026 130.731 38.2562" stroke="black" stroke-width="2" stroke-linecap="round" stroke-linejoin="round"/>
<path d="M130.711 37.5593C133.042 36.3003 135.484 35.2581 138.006 34.4458" stroke="black" stroke-width="2" stroke-linecap="round" stroke-linejoin="round"/>
<path d="M132.533 60.6552V63.7479M122.092 43.3056C122.05 43.7042 122.03 44.1047 122.03 44.5054C122.03 49.6043 125.337 53.7371 129.416 53.7371C133.494 53.7371 136.801 49.6043 136.801 44.5054C136.801 44.092 136.779 43.6789 136.736 43.2678M129.427 41.6674C129.081 41.6674 128.75 41.5302 128.505 41.2859C128.261 41.0416 128.124 40.7102 128.124 40.3647V37.7593C128.124 37.4138 128.261 37.0824 128.505 36.8381C128.75 36.5938 129.081 36.4565 129.427 36.4565C129.772 36.4565 130.103 36.5938 130.348 36.8381C130.592 37.0824 130.729 37.4138 130.729 37.7593V40.3647C130.729 40.7102 130.592 41.0416 130.348 41.2859C130.103 41.5302 129.772 41.6674 129.427 41.6674Z" stroke="black" stroke-width="2" stroke-linecap="round" stroke-linejoin="round"/>
</svg>
