<svg width="273" height="343" viewBox="0 0 273 343" fill="none" xmlns="http://www.w3.org/2000/svg">
<rect width="272.127" height="343" rx="24" fill="white"/>
<path d="M62.1919 261.27L58.5379 271H56.6899L53.0219 261.27H54.7299L57.6139 269.362L60.5119 261.27H62.1919ZM64.3386 262.264C64.0492 262.264 63.8066 262.166 63.6106 261.97C63.4146 261.774 63.3166 261.531 63.3166 261.242C63.3166 260.953 63.4146 260.71 63.6106 260.514C63.8066 260.318 64.0492 260.22 64.3386 260.22C64.6186 260.22 64.8566 260.318 65.0526 260.514C65.2486 260.71 65.3466 260.953 65.3466 261.242C65.3466 261.531 65.2486 261.774 65.0526 261.97C64.8566 262.166 64.6186 262.264 64.3386 262.264ZM65.1226 263.286V271H63.5266V263.286H65.1226ZM70.018 271.126C69.4113 271.126 68.8653 271.019 68.38 270.804C67.904 270.58 67.526 270.281 67.246 269.908C66.966 269.525 66.8166 269.101 66.798 268.634H68.45C68.478 268.961 68.632 269.236 68.912 269.46C69.2013 269.675 69.5606 269.782 69.99 269.782C70.438 269.782 70.7833 269.698 71.026 269.53C71.278 269.353 71.404 269.129 71.404 268.858C71.404 268.569 71.264 268.354 70.984 268.214C70.7133 268.074 70.2793 267.92 69.682 267.752C69.1033 267.593 68.632 267.439 68.268 267.29C67.904 267.141 67.5866 266.912 67.316 266.604C67.0546 266.296 66.924 265.89 66.924 265.386C66.924 264.975 67.0453 264.602 67.288 264.266C67.5306 263.921 67.876 263.65 68.324 263.454C68.7813 263.258 69.304 263.16 69.892 263.16C70.7693 263.16 71.474 263.384 72.006 263.832C72.5473 264.271 72.8366 264.873 72.874 265.638H71.278C71.25 265.293 71.11 265.017 70.858 264.812C70.606 264.607 70.2653 264.504 69.836 264.504C69.416 264.504 69.094 264.583 68.87 264.742C68.646 264.901 68.534 265.111 68.534 265.372C68.534 265.577 68.6086 265.75 68.758 265.89C68.9073 266.03 69.0893 266.142 69.304 266.226C69.5186 266.301 69.836 266.399 70.256 266.52C70.816 266.669 71.2733 266.823 71.628 266.982C71.992 267.131 72.3046 267.355 72.566 267.654C72.8273 267.953 72.9626 268.349 72.972 268.844C72.972 269.283 72.8506 269.675 72.608 270.02C72.3653 270.365 72.02 270.636 71.572 270.832C71.1333 271.028 70.6153 271.126 70.018 271.126ZM75.5085 262.264C75.2192 262.264 74.9765 262.166 74.7805 261.97C74.5845 261.774 74.4865 261.531 74.4865 261.242C74.4865 260.953 74.5845 260.71 74.7805 260.514C74.9765 260.318 75.2192 260.22 75.5085 260.22C75.7885 260.22 76.0265 260.318 76.2225 260.514C76.4185 260.71 76.5165 260.953 76.5165 261.242C76.5165 261.531 76.4185 261.774 76.2225 261.97C76.0265 262.166 75.7885 262.264 75.5085 262.264ZM76.2925 263.286V271H74.6965V263.286H76.2925ZM80.2499 264.588V268.858C80.2499 269.147 80.3152 269.357 80.4459 269.488C80.5859 269.609 80.8192 269.67 81.1459 269.67H82.1259V271H80.8659C80.1472 271 79.5966 270.832 79.2139 270.496C78.8312 270.16 78.6399 269.614 78.6399 268.858V264.588H77.7299V263.286H78.6399V261.368H80.2499V263.286H82.1259V264.588H80.2499ZM89.0956 264.588V268.858C89.0956 269.147 89.1609 269.357 89.2916 269.488C89.4316 269.609 89.6649 269.67 89.9916 269.67H90.9716V271H89.7116C88.9929 271 88.4423 270.832 88.0596 270.496C87.6769 270.16 87.4856 269.614 87.4856 268.858V264.588H86.5756V263.286H87.4856V261.368H89.0956V263.286H90.9716V264.588H89.0956ZM96.4326 263.16C97.0206 263.16 97.5432 263.286 98.0006 263.538C98.4672 263.79 98.8312 264.163 99.0926 264.658C99.3632 265.153 99.4986 265.75 99.4986 266.45V271H97.9166V266.688C97.9166 265.997 97.7439 265.47 97.3986 265.106C97.0532 264.733 96.5819 264.546 95.9846 264.546C95.3872 264.546 94.9112 264.733 94.5566 265.106C94.2112 265.47 94.0386 265.997 94.0386 266.688V271H92.4426V260.64H94.0386V264.182C94.3092 263.855 94.6499 263.603 95.0606 263.426C95.4806 263.249 95.9379 263.16 96.4326 263.16ZM108.604 266.954C108.604 267.243 108.586 267.505 108.548 267.738H102.654C102.701 268.354 102.93 268.849 103.34 269.222C103.751 269.595 104.255 269.782 104.852 269.782C105.711 269.782 106.318 269.423 106.672 268.704H108.394C108.161 269.413 107.736 269.997 107.12 270.454C106.514 270.902 105.758 271.126 104.852 271.126C104.115 271.126 103.452 270.963 102.864 270.636C102.286 270.3 101.828 269.833 101.492 269.236C101.166 268.629 101.002 267.929 101.002 267.136C101.002 266.343 101.161 265.647 101.478 265.05C101.805 264.443 102.258 263.977 102.836 263.65C103.424 263.323 104.096 263.16 104.852 263.16C105.58 263.16 106.229 263.319 106.798 263.636C107.368 263.953 107.811 264.401 108.128 264.98C108.446 265.549 108.604 266.207 108.604 266.954ZM106.938 266.45C106.929 265.862 106.719 265.391 106.308 265.036C105.898 264.681 105.389 264.504 104.782 264.504C104.232 264.504 103.76 264.681 103.368 265.036C102.976 265.381 102.743 265.853 102.668 266.45H106.938ZM116.612 271.126C116.005 271.126 115.459 271.019 114.974 270.804C114.498 270.58 114.12 270.281 113.84 269.908C113.56 269.525 113.41 269.101 113.392 268.634H115.044C115.072 268.961 115.226 269.236 115.506 269.46C115.795 269.675 116.154 269.782 116.584 269.782C117.032 269.782 117.377 269.698 117.62 269.53C117.872 269.353 117.998 269.129 117.998 268.858C117.998 268.569 117.858 268.354 117.578 268.214C117.307 268.074 116.873 267.92 116.276 267.752C115.697 267.593 115.226 267.439 114.862 267.29C114.498 267.141 114.18 266.912 113.91 266.604C113.648 266.296 113.518 265.89 113.518 265.386C113.518 264.975 113.639 264.602 113.882 264.266C114.124 263.921 114.47 263.65 114.918 263.454C115.375 263.258 115.898 263.16 116.486 263.16C117.363 263.16 118.068 263.384 118.6 263.832C119.141 264.271 119.43 264.873 119.468 265.638H117.872C117.844 265.293 117.704 265.017 117.452 264.812C117.2 264.607 116.859 264.504 116.43 264.504C116.01 264.504 115.688 264.583 115.464 264.742C115.24 264.901 115.128 265.111 115.128 265.372C115.128 265.577 115.202 265.75 115.352 265.89C115.501 266.03 115.683 266.142 115.898 266.226C116.112 266.301 116.43 266.399 116.85 266.52C117.41 266.669 117.867 266.823 118.222 266.982C118.586 267.131 118.898 267.355 119.16 267.654C119.421 267.953 119.556 268.349 119.566 268.844C119.566 269.283 119.444 269.675 119.202 270.02C118.959 270.365 118.614 270.636 118.166 270.832C117.727 271.028 117.209 271.126 116.612 271.126ZM125.28 263.16C125.868 263.16 126.391 263.286 126.848 263.538C127.315 263.79 127.679 264.163 127.94 264.658C128.211 265.153 128.346 265.75 128.346 266.45V271H126.764V266.688C126.764 265.997 126.592 265.47 126.246 265.106C125.901 264.733 125.43 264.546 124.832 264.546C124.235 264.546 123.759 264.733 123.404 265.106C123.059 265.47 122.886 265.997 122.886 266.688V271H121.29V260.64H122.886V264.182C123.157 263.855 123.498 263.603 123.908 263.426C124.328 263.249 124.786 263.16 125.28 263.16ZM133.728 271.126C133 271.126 132.342 270.963 131.754 270.636C131.166 270.3 130.704 269.833 130.368 269.236C130.032 268.629 129.864 267.929 129.864 267.136C129.864 266.352 130.037 265.657 130.382 265.05C130.727 264.443 131.199 263.977 131.796 263.65C132.393 263.323 133.061 263.16 133.798 263.16C134.535 263.16 135.203 263.323 135.8 263.65C136.397 263.977 136.869 264.443 137.214 265.05C137.559 265.657 137.732 266.352 137.732 267.136C137.732 267.92 137.555 268.615 137.2 269.222C136.845 269.829 136.36 270.3 135.744 270.636C135.137 270.963 134.465 271.126 133.728 271.126ZM133.728 269.74C134.139 269.74 134.521 269.642 134.876 269.446C135.24 269.25 135.534 268.956 135.758 268.564C135.982 268.172 136.094 267.696 136.094 267.136C136.094 266.576 135.987 266.105 135.772 265.722C135.557 265.33 135.273 265.036 134.918 264.84C134.563 264.644 134.181 264.546 133.77 264.546C133.359 264.546 132.977 264.644 132.622 264.84C132.277 265.036 132.001 265.33 131.796 265.722C131.591 266.105 131.488 266.576 131.488 267.136C131.488 267.967 131.698 268.611 132.118 269.068C132.547 269.516 133.084 269.74 133.728 269.74ZM140.906 264.42C141.176 264.065 141.545 263.767 142.012 263.524C142.478 263.281 143.006 263.16 143.594 263.16C144.266 263.16 144.877 263.328 145.428 263.664C145.988 263.991 146.426 264.453 146.744 265.05C147.061 265.647 147.22 266.333 147.22 267.108C147.22 267.883 147.061 268.578 146.744 269.194C146.426 269.801 145.988 270.277 145.428 270.622C144.877 270.958 144.266 271.126 143.594 271.126C143.006 271.126 142.483 271.009 142.026 270.776C141.568 270.533 141.195 270.235 140.906 269.88V274.668H139.31V263.286H140.906V264.42ZM145.596 267.108C145.596 266.576 145.484 266.119 145.26 265.736C145.045 265.344 144.756 265.05 144.392 264.854C144.037 264.649 143.654 264.546 143.244 264.546C142.842 264.546 142.46 264.649 142.096 264.854C141.741 265.059 141.452 265.358 141.228 265.75C141.013 266.142 140.906 266.604 140.906 267.136C140.906 267.668 141.013 268.135 141.228 268.536C141.452 268.928 141.741 269.227 142.096 269.432C142.46 269.637 142.842 269.74 143.244 269.74C143.654 269.74 144.037 269.637 144.392 269.432C144.756 269.217 145.045 268.909 145.26 268.508C145.484 268.107 145.596 267.64 145.596 267.108ZM155.781 271.126C155.053 271.126 154.395 270.963 153.807 270.636C153.219 270.3 152.757 269.833 152.421 269.236C152.085 268.629 151.917 267.929 151.917 267.136C151.917 266.352 152.089 265.657 152.435 265.05C152.78 264.443 153.251 263.977 153.849 263.65C154.446 263.323 155.113 263.16 155.851 263.16C156.588 263.16 157.255 263.323 157.853 263.65C158.45 263.977 158.921 264.443 159.267 265.05C159.612 265.657 159.785 266.352 159.785 267.136C159.785 267.92 159.607 268.615 159.253 269.222C158.898 269.829 158.413 270.3 157.797 270.636C157.19 270.963 156.518 271.126 155.781 271.126ZM155.781 269.74C156.191 269.74 156.574 269.642 156.929 269.446C157.293 269.25 157.587 268.956 157.811 268.564C158.035 268.172 158.147 267.696 158.147 267.136C158.147 266.576 158.039 266.105 157.825 265.722C157.61 265.33 157.325 265.036 156.971 264.84C156.616 264.644 156.233 264.546 155.823 264.546C155.412 264.546 155.029 264.644 154.675 264.84C154.329 265.036 154.054 265.33 153.849 265.722C153.643 266.105 153.541 266.576 153.541 267.136C153.541 267.967 153.751 268.611 154.171 269.068C154.6 269.516 155.137 269.74 155.781 269.74ZM162.959 264.406C163.192 264.014 163.5 263.711 163.883 263.496C164.275 263.272 164.737 263.16 165.269 263.16V264.812H164.863C164.237 264.812 163.761 264.971 163.435 265.288C163.117 265.605 162.959 266.156 162.959 266.94V271H161.363V263.286H162.959V264.406ZM171.968 264.406C172.202 264.014 172.51 263.711 172.892 263.496C173.284 263.272 173.746 263.16 174.278 263.16V264.812H173.872C173.247 264.812 172.771 264.971 172.444 265.288C172.127 265.605 171.968 266.156 171.968 266.94V271H170.372V263.286H171.968V264.406ZM182.815 266.954C182.815 267.243 182.797 267.505 182.759 267.738H176.865C176.912 268.354 177.141 268.849 177.551 269.222C177.962 269.595 178.466 269.782 179.063 269.782C179.922 269.782 180.529 269.423 180.883 268.704H182.605C182.372 269.413 181.947 269.997 181.331 270.454C180.725 270.902 179.969 271.126 179.063 271.126C178.326 271.126 177.663 270.963 177.075 270.636C176.497 270.3 176.039 269.833 175.703 269.236C175.377 268.629 175.213 267.929 175.213 267.136C175.213 266.343 175.372 265.647 175.689 265.05C176.016 264.443 176.469 263.977 177.047 263.65C177.635 263.323 178.307 263.16 179.063 263.16C179.791 263.16 180.44 263.319 181.009 263.636C181.579 263.953 182.022 264.401 182.339 264.98C182.657 265.549 182.815 266.207 182.815 266.954ZM181.149 266.45C181.14 265.862 180.93 265.391 180.519 265.036C180.109 264.681 179.6 264.504 178.993 264.504C178.443 264.504 177.971 264.681 177.579 265.036C177.187 265.381 176.954 265.853 176.879 266.45H181.149ZM183.854 267.108C183.854 266.333 184.013 265.647 184.33 265.05C184.657 264.453 185.095 263.991 185.646 263.664C186.206 263.328 186.827 263.16 187.508 263.16C188.105 263.16 188.633 263.281 189.09 263.524C189.557 263.767 189.916 264.061 190.168 264.406V263.286H191.778V274.668H190.168V269.88C189.916 270.225 189.552 270.519 189.076 270.762C188.6 271.005 188.059 271.126 187.452 271.126C186.789 271.126 186.183 270.958 185.632 270.622C185.091 270.277 184.657 269.801 184.33 269.194C184.013 268.578 183.854 267.883 183.854 267.108ZM190.168 267.136C190.168 266.604 190.056 266.142 189.832 265.75C189.617 265.358 189.333 265.059 188.978 264.854C188.623 264.649 188.241 264.546 187.83 264.546C187.419 264.546 187.037 264.649 186.682 264.854C186.327 265.05 186.038 265.344 185.814 265.736C185.599 266.119 185.492 266.576 185.492 267.108C185.492 267.64 185.599 268.107 185.814 268.508C186.038 268.909 186.327 269.217 186.682 269.432C187.046 269.637 187.429 269.74 187.83 269.74C188.241 269.74 188.623 269.637 188.978 269.432C189.333 269.227 189.617 268.928 189.832 268.536C190.056 268.135 190.168 267.668 190.168 267.136ZM200.86 263.286V271H199.264V270.09C199.012 270.407 198.681 270.659 198.27 270.846C197.869 271.023 197.44 271.112 196.982 271.112C196.376 271.112 195.83 270.986 195.344 270.734C194.868 270.482 194.49 270.109 194.21 269.614C193.94 269.119 193.804 268.522 193.804 267.822V263.286H195.386V267.584C195.386 268.275 195.559 268.807 195.904 269.18C196.25 269.544 196.721 269.726 197.318 269.726C197.916 269.726 198.387 269.544 198.732 269.18C199.087 268.807 199.264 268.275 199.264 267.584V263.286H200.86ZM210.036 266.954C210.036 267.243 210.017 267.505 209.98 267.738H204.086C204.133 268.354 204.361 268.849 204.772 269.222C205.183 269.595 205.687 269.782 206.284 269.782C207.143 269.782 207.749 269.423 208.104 268.704H209.826C209.593 269.413 209.168 269.997 208.552 270.454C207.945 270.902 207.189 271.126 206.284 271.126C205.547 271.126 204.884 270.963 204.296 270.636C203.717 270.3 203.26 269.833 202.924 269.236C202.597 268.629 202.434 267.929 202.434 267.136C202.434 266.343 202.593 265.647 202.91 265.05C203.237 264.443 203.689 263.977 204.268 263.65C204.856 263.323 205.528 263.16 206.284 263.16C207.012 263.16 207.661 263.319 208.23 263.636C208.799 263.953 209.243 264.401 209.56 264.98C209.877 265.549 210.036 266.207 210.036 266.954ZM208.37 266.45C208.361 265.862 208.151 265.391 207.74 265.036C207.329 264.681 206.821 264.504 206.214 264.504C205.663 264.504 205.192 264.681 204.8 265.036C204.408 265.381 204.175 265.853 204.1 266.45H208.37ZM214.407 271.126C213.8 271.126 213.254 271.019 212.769 270.804C212.293 270.58 211.915 270.281 211.635 269.908C211.355 269.525 211.205 269.101 211.187 268.634H212.839C212.867 268.961 213.021 269.236 213.301 269.46C213.59 269.675 213.949 269.782 214.379 269.782C214.827 269.782 215.172 269.698 215.415 269.53C215.667 269.353 215.793 269.129 215.793 268.858C215.793 268.569 215.653 268.354 215.373 268.214C215.102 268.074 214.668 267.92 214.071 267.752C213.492 267.593 213.021 267.439 212.657 267.29C212.293 267.141 211.975 266.912 211.705 266.604C211.443 266.296 211.313 265.89 211.313 265.386C211.313 264.975 211.434 264.602 211.677 264.266C211.919 263.921 212.265 263.65 212.713 263.454C213.17 263.258 213.693 263.16 214.281 263.16C215.158 263.16 215.863 263.384 216.395 263.832C216.936 264.271 217.225 264.873 217.263 265.638H215.667C215.639 265.293 215.499 265.017 215.247 264.812C214.995 264.607 214.654 264.504 214.225 264.504C213.805 264.504 213.483 264.583 213.259 264.742C213.035 264.901 212.923 265.111 212.923 265.372C212.923 265.577 212.997 265.75 213.147 265.89C213.296 266.03 213.478 266.142 213.693 266.226C213.907 266.301 214.225 266.399 214.645 266.52C215.205 266.669 215.662 266.823 216.017 266.982C216.381 267.131 216.693 267.355 216.955 267.654C217.216 267.953 217.351 268.349 217.361 268.844C217.361 269.283 217.239 269.675 216.997 270.02C216.754 270.365 216.409 270.636 215.961 270.832C215.522 271.028 215.004 271.126 214.407 271.126ZM220.947 264.588V268.858C220.947 269.147 221.012 269.357 221.143 269.488C221.283 269.609 221.516 269.67 221.843 269.67H222.823V271H221.563C220.844 271 220.294 270.832 219.911 270.496C219.528 270.16 219.337 269.614 219.337 268.858V264.588H218.427V263.286H219.337V261.368H220.947V263.286H222.823V264.588H220.947ZM40.9105 292.126C40.3039 292.126 39.7579 292.019 39.2725 291.804C38.7965 291.58 38.4185 291.281 38.1385 290.908C37.8585 290.525 37.7092 290.101 37.6905 289.634H39.3425C39.3705 289.961 39.5245 290.236 39.8045 290.46C40.0939 290.675 40.4532 290.782 40.8825 290.782C41.3305 290.782 41.6759 290.698 41.9185 290.53C42.1705 290.353 42.2965 290.129 42.2965 289.858C42.2965 289.569 42.1565 289.354 41.8765 289.214C41.6059 289.074 41.1719 288.92 40.5745 288.752C39.9959 288.593 39.5245 288.439 39.1605 288.29C38.7965 288.141 38.4792 287.912 38.2085 287.604C37.9472 287.296 37.8165 286.89 37.8165 286.386C37.8165 285.975 37.9379 285.602 38.1805 285.266C38.4232 284.921 38.7685 284.65 39.2165 284.454C39.6739 284.258 40.1965 284.16 40.7845 284.16C41.6619 284.16 42.3665 284.384 42.8985 284.832C43.4399 285.271 43.7292 285.873 43.7665 286.638H42.1705C42.1425 286.293 42.0025 286.017 41.7505 285.812C41.4985 285.607 41.1579 285.504 40.7285 285.504C40.3085 285.504 39.9865 285.583 39.7625 285.742C39.5385 285.901 39.4265 286.111 39.4265 286.372C39.4265 286.577 39.5012 286.75 39.6505 286.89C39.7999 287.03 39.9819 287.142 40.1965 287.226C40.4112 287.301 40.7285 287.399 41.1485 287.52C41.7085 287.669 42.1659 287.823 42.5205 287.982C42.8845 288.131 43.1972 288.355 43.4585 288.654C43.7199 288.953 43.8552 289.349 43.8645 289.844C43.8645 290.283 43.7432 290.675 43.5005 291.02C43.2579 291.365 42.9125 291.636 42.4645 291.832C42.0259 292.028 41.5079 292.126 40.9105 292.126ZM49.5791 284.16C50.1671 284.16 50.6897 284.286 51.1471 284.538C51.6137 284.79 51.9777 285.163 52.2391 285.658C52.5097 286.153 52.6451 286.75 52.6451 287.45V292H51.0631V287.688C51.0631 286.997 50.8904 286.47 50.5451 286.106C50.1997 285.733 49.7284 285.546 49.1311 285.546C48.5337 285.546 48.0577 285.733 47.7031 286.106C47.3577 286.47 47.1851 286.997 47.1851 287.688V292H45.5891V281.64H47.1851V285.182C47.4557 284.855 47.7964 284.603 48.2071 284.426C48.6271 284.249 49.0844 284.16 49.5791 284.16ZM58.0269 292.126C57.2989 292.126 56.6409 291.963 56.0529 291.636C55.4649 291.3 55.0029 290.833 54.6669 290.236C54.3309 289.629 54.1629 288.929 54.1629 288.136C54.1629 287.352 54.3355 286.657 54.6809 286.05C55.0262 285.443 55.4975 284.977 56.0949 284.65C56.6922 284.323 57.3595 284.16 58.0969 284.16C58.8342 284.16 59.5015 284.323 60.0989 284.65C60.6962 284.977 61.1675 285.443 61.5129 286.05C61.8582 286.657 62.0309 287.352 62.0309 288.136C62.0309 288.92 61.8535 289.615 61.4989 290.222C61.1442 290.829 60.6589 291.3 60.0429 291.636C59.4362 291.963 58.7642 292.126 58.0269 292.126ZM58.0269 290.74C58.4375 290.74 58.8202 290.642 59.1749 290.446C59.5389 290.25 59.8329 289.956 60.0569 289.564C60.2809 289.172 60.3929 288.696 60.3929 288.136C60.3929 287.576 60.2855 287.105 60.0709 286.722C59.8562 286.33 59.5715 286.036 59.2169 285.84C58.8622 285.644 58.4795 285.546 58.0689 285.546C57.6582 285.546 57.2755 285.644 56.9209 285.84C56.5755 286.036 56.3002 286.33 56.0949 286.722C55.8895 287.105 55.7869 287.576 55.7869 288.136C55.7869 288.967 55.9969 289.611 56.4169 290.068C56.8462 290.516 57.3829 290.74 58.0269 290.74ZM65.2046 285.42C65.4753 285.065 65.8439 284.767 66.3106 284.524C66.7773 284.281 67.3046 284.16 67.8926 284.16C68.5646 284.16 69.1759 284.328 69.7266 284.664C70.2866 284.991 70.7253 285.453 71.0426 286.05C71.3599 286.647 71.5186 287.333 71.5186 288.108C71.5186 288.883 71.3599 289.578 71.0426 290.194C70.7253 290.801 70.2866 291.277 69.7266 291.622C69.1759 291.958 68.5646 292.126 67.8926 292.126C67.3046 292.126 66.7819 292.009 66.3246 291.776C65.8673 291.533 65.4939 291.235 65.2046 290.88V295.668H63.6086V284.286H65.2046V285.42ZM69.8946 288.108C69.8946 287.576 69.7826 287.119 69.5586 286.736C69.3439 286.344 69.0546 286.05 68.6906 285.854C68.3359 285.649 67.9533 285.546 67.5426 285.546C67.1413 285.546 66.7586 285.649 66.3946 285.854C66.0399 286.059 65.7506 286.358 65.5266 286.75C65.3119 287.142 65.2046 287.604 65.2046 288.136C65.2046 288.668 65.3119 289.135 65.5266 289.536C65.7506 289.928 66.0399 290.227 66.3946 290.432C66.7586 290.637 67.1413 290.74 67.5426 290.74C67.9533 290.74 68.3359 290.637 68.6906 290.432C69.0546 290.217 69.3439 289.909 69.5586 289.508C69.7826 289.107 69.8946 288.64 69.8946 288.108ZM76.1489 288.15L79.7049 292H77.5489L74.6929 288.682V292H73.0969V281.64H74.6929V287.66L77.4929 284.286H79.7049L76.1489 288.15ZM87.9188 287.954C87.9188 288.243 87.9002 288.505 87.8628 288.738H81.9688C82.0155 289.354 82.2442 289.849 82.6548 290.222C83.0655 290.595 83.5695 290.782 84.1668 290.782C85.0255 290.782 85.6322 290.423 85.9868 289.704H87.7088C87.4755 290.413 87.0508 290.997 86.4348 291.454C85.8282 291.902 85.0722 292.126 84.1668 292.126C83.4295 292.126 82.7668 291.963 82.1788 291.636C81.6002 291.3 81.1428 290.833 80.8068 290.236C80.4802 289.629 80.3168 288.929 80.3168 288.136C80.3168 287.343 80.4755 286.647 80.7928 286.05C81.1195 285.443 81.5722 284.977 82.1508 284.65C82.7388 284.323 83.4108 284.16 84.1668 284.16C84.8948 284.16 85.5435 284.319 86.1128 284.636C86.6822 284.953 87.1255 285.401 87.4428 285.98C87.7602 286.549 87.9188 287.207 87.9188 287.954ZM86.2528 287.45C86.2435 286.862 86.0335 286.391 85.6228 286.036C85.2122 285.681 84.7035 285.504 84.0968 285.504C83.5462 285.504 83.0748 285.681 82.6828 286.036C82.2908 286.381 82.0575 286.853 81.9828 287.45H86.2528ZM96.5595 287.954C96.5595 288.243 96.5408 288.505 96.5035 288.738H90.6095C90.6561 289.354 90.8848 289.849 91.2955 290.222C91.7061 290.595 92.2101 290.782 92.8075 290.782C93.6661 290.782 94.2728 290.423 94.6275 289.704H96.3495C96.1161 290.413 95.6915 290.997 95.0755 291.454C94.4688 291.902 93.7128 292.126 92.8075 292.126C92.0701 292.126 91.4075 291.963 90.8195 291.636C90.2408 291.3 89.7835 290.833 89.4475 290.236C89.1208 289.629 88.9575 288.929 88.9575 288.136C88.9575 287.343 89.1161 286.647 89.4335 286.05C89.7601 285.443 90.2128 284.977 90.7915 284.65C91.3795 284.323 92.0515 284.16 92.8075 284.16C93.5355 284.16 94.1841 284.319 94.7535 284.636C95.3228 284.953 95.7661 285.401 96.0835 285.98C96.4008 286.549 96.5595 287.207 96.5595 287.954ZM94.8935 287.45C94.8841 286.862 94.6741 286.391 94.2635 286.036C93.8528 285.681 93.3441 285.504 92.7375 285.504C92.1868 285.504 91.7155 285.681 91.3235 286.036C90.9315 286.381 90.6981 286.853 90.6235 287.45H94.8935ZM99.7261 285.42C99.9967 285.065 100.365 284.767 100.832 284.524C101.299 284.281 101.826 284.16 102.414 284.16C103.086 284.16 103.697 284.328 104.248 284.664C104.808 284.991 105.247 285.453 105.564 286.05C105.881 286.647 106.04 287.333 106.04 288.108C106.04 288.883 105.881 289.578 105.564 290.194C105.247 290.801 104.808 291.277 104.248 291.622C103.697 291.958 103.086 292.126 102.414 292.126C101.826 292.126 101.303 292.009 100.846 291.776C100.389 291.533 100.015 291.235 99.7261 290.88V295.668H98.1301V284.286H99.7261V285.42ZM104.416 288.108C104.416 287.576 104.304 287.119 104.08 286.736C103.865 286.344 103.576 286.05 103.212 285.854C102.857 285.649 102.475 285.546 102.064 285.546C101.663 285.546 101.28 285.649 100.916 285.854C100.561 286.059 100.272 286.358 100.048 286.75C99.8334 287.142 99.7261 287.604 99.7261 288.136C99.7261 288.668 99.8334 289.135 100.048 289.536C100.272 289.928 100.561 290.227 100.916 290.432C101.28 290.637 101.663 290.74 102.064 290.74C102.475 290.74 102.857 290.637 103.212 290.432C103.576 290.217 103.865 289.909 104.08 289.508C104.304 289.107 104.416 288.64 104.416 288.108ZM114.688 287.954C114.688 288.243 114.67 288.505 114.632 288.738H108.738C108.785 289.354 109.014 289.849 109.424 290.222C109.835 290.595 110.339 290.782 110.936 290.782C111.795 290.782 112.402 290.423 112.756 289.704H114.478C114.245 290.413 113.82 290.997 113.204 291.454C112.598 291.902 111.842 292.126 110.936 292.126C110.199 292.126 109.536 291.963 108.948 291.636C108.37 291.3 107.912 290.833 107.576 290.236C107.25 289.629 107.086 288.929 107.086 288.136C107.086 287.343 107.245 286.647 107.562 286.05C107.889 285.443 108.342 284.977 108.92 284.65C109.508 284.323 110.18 284.16 110.936 284.16C111.664 284.16 112.313 284.319 112.882 284.636C113.452 284.953 113.895 285.401 114.212 285.98C114.53 286.549 114.688 287.207 114.688 287.954ZM113.022 287.45C113.013 286.862 112.803 286.391 112.392 286.036C111.982 285.681 111.473 285.504 110.866 285.504C110.316 285.504 109.844 285.681 109.452 286.036C109.06 286.381 108.827 286.853 108.752 287.45H113.022ZM117.855 285.406C118.088 285.014 118.396 284.711 118.779 284.496C119.171 284.272 119.633 284.16 120.165 284.16V285.812H119.759C119.134 285.812 118.658 285.971 118.331 286.288C118.014 286.605 117.855 287.156 117.855 287.94V292H116.259V284.286H117.855V285.406ZM127.131 285.588V289.858C127.131 290.147 127.196 290.357 127.327 290.488C127.467 290.609 127.7 290.67 128.027 290.67H129.007V292H127.747C127.028 292 126.477 291.832 126.095 291.496C125.712 291.16 125.521 290.614 125.521 289.858V285.588H124.611V284.286H125.521V282.368H127.131V284.286H129.007V285.588H127.131ZM133.824 292.126C133.096 292.126 132.438 291.963 131.85 291.636C131.262 291.3 130.8 290.833 130.464 290.236C130.128 289.629 129.96 288.929 129.96 288.136C129.96 287.352 130.132 286.657 130.478 286.05C130.823 285.443 131.294 284.977 131.892 284.65C132.489 284.323 133.156 284.16 133.894 284.16C134.631 284.16 135.298 284.323 135.896 284.65C136.493 284.977 136.964 285.443 137.31 286.05C137.655 286.657 137.828 287.352 137.828 288.136C137.828 288.92 137.65 289.615 137.296 290.222C136.941 290.829 136.456 291.3 135.84 291.636C135.233 291.963 134.561 292.126 133.824 292.126ZM133.824 290.74C134.234 290.74 134.617 290.642 134.972 290.446C135.336 290.25 135.63 289.956 135.854 289.564C136.078 289.172 136.19 288.696 136.19 288.136C136.19 287.576 136.082 287.105 135.868 286.722C135.653 286.33 135.368 286.036 135.014 285.84C134.659 285.644 134.276 285.546 133.866 285.546C133.455 285.546 133.072 285.644 132.718 285.84C132.372 286.036 132.097 286.33 131.892 286.722C131.686 287.105 131.584 287.576 131.584 288.136C131.584 288.967 131.794 289.611 132.214 290.068C132.643 290.516 133.18 290.74 133.824 290.74ZM147.032 284.16C147.62 284.16 148.143 284.286 148.6 284.538C149.067 284.79 149.431 285.163 149.692 285.658C149.963 286.153 150.098 286.75 150.098 287.45V292H148.516V287.688C148.516 286.997 148.344 286.47 147.998 286.106C147.653 285.733 147.182 285.546 146.584 285.546C145.987 285.546 145.511 285.733 145.156 286.106C144.811 286.47 144.638 286.997 144.638 287.688V292H143.042V281.64H144.638V285.182C144.909 284.855 145.25 284.603 145.66 284.426C146.08 284.249 146.538 284.16 147.032 284.16ZM155.48 292.126C154.752 292.126 154.094 291.963 153.506 291.636C152.918 291.3 152.456 290.833 152.12 290.236C151.784 289.629 151.616 288.929 151.616 288.136C151.616 287.352 151.789 286.657 152.134 286.05C152.479 285.443 152.951 284.977 153.548 284.65C154.145 284.323 154.813 284.16 155.55 284.16C156.287 284.16 156.955 284.323 157.552 284.65C158.149 284.977 158.621 285.443 158.966 286.05C159.311 286.657 159.484 287.352 159.484 288.136C159.484 288.92 159.307 289.615 158.952 290.222C158.597 290.829 158.112 291.3 157.496 291.636C156.889 291.963 156.217 292.126 155.48 292.126ZM155.48 290.74C155.891 290.74 156.273 290.642 156.628 290.446C156.992 290.25 157.286 289.956 157.51 289.564C157.734 289.172 157.846 288.696 157.846 288.136C157.846 287.576 157.739 287.105 157.524 286.722C157.309 286.33 157.025 286.036 156.67 285.84C156.315 285.644 155.933 285.546 155.522 285.546C155.111 285.546 154.729 285.644 154.374 285.84C154.029 286.036 153.753 286.33 153.548 286.722C153.343 287.105 153.24 287.576 153.24 288.136C153.24 288.967 153.45 289.611 153.87 290.068C154.299 290.516 154.836 290.74 155.48 290.74ZM170.4 284.16C171.006 284.16 171.548 284.286 172.024 284.538C172.509 284.79 172.887 285.163 173.158 285.658C173.438 286.153 173.578 286.75 173.578 287.45V292H171.996V287.688C171.996 286.997 171.823 286.47 171.478 286.106C171.132 285.733 170.661 285.546 170.064 285.546C169.466 285.546 168.99 285.733 168.636 286.106C168.29 286.47 168.118 286.997 168.118 287.688V292H166.536V287.688C166.536 286.997 166.363 286.47 166.018 286.106C165.672 285.733 165.201 285.546 164.604 285.546C164.006 285.546 163.53 285.733 163.176 286.106C162.83 286.47 162.658 286.997 162.658 287.688V292H161.062V284.286H162.658V285.168C162.919 284.851 163.25 284.603 163.652 284.426C164.053 284.249 164.482 284.16 164.94 284.16C165.556 284.16 166.106 284.291 166.592 284.552C167.077 284.813 167.45 285.191 167.712 285.686C167.945 285.219 168.309 284.851 168.804 284.58C169.298 284.3 169.83 284.16 170.4 284.16ZM182.679 287.954C182.679 288.243 182.66 288.505 182.623 288.738H176.729C176.775 289.354 177.004 289.849 177.415 290.222C177.825 290.595 178.329 290.782 178.927 290.782C179.785 290.782 180.392 290.423 180.747 289.704H182.469C182.235 290.413 181.811 290.997 181.195 291.454C180.588 291.902 179.832 292.126 178.927 292.126C178.189 292.126 177.527 291.963 176.939 291.636C176.36 291.3 175.903 290.833 175.567 290.236C175.24 289.629 175.077 288.929 175.077 288.136C175.077 287.343 175.235 286.647 175.553 286.05C175.879 285.443 176.332 284.977 176.911 284.65C177.499 284.323 178.171 284.16 178.927 284.16C179.655 284.16 180.303 284.319 180.873 284.636C181.442 284.953 181.885 285.401 182.203 285.98C182.52 286.549 182.679 287.207 182.679 287.954ZM181.013 287.45C181.003 286.862 180.793 286.391 180.383 286.036C179.972 285.681 179.463 285.504 178.857 285.504C178.306 285.504 177.835 285.681 177.443 286.036C177.051 286.381 176.817 286.853 176.743 287.45H181.013ZM187.354 288.108C187.354 287.333 187.513 286.647 187.83 286.05C188.157 285.453 188.595 284.991 189.146 284.664C189.706 284.328 190.327 284.16 191.008 284.16C191.512 284.16 192.007 284.272 192.492 284.496C192.987 284.711 193.379 285 193.668 285.364V281.64H195.278V292H193.668V290.838C193.407 291.211 193.043 291.519 192.576 291.762C192.119 292.005 191.591 292.126 190.994 292.126C190.322 292.126 189.706 291.958 189.146 291.622C188.595 291.277 188.157 290.801 187.83 290.194C187.513 289.578 187.354 288.883 187.354 288.108ZM193.668 288.136C193.668 287.604 193.556 287.142 193.332 286.75C193.117 286.358 192.833 286.059 192.478 285.854C192.123 285.649 191.741 285.546 191.33 285.546C190.919 285.546 190.537 285.649 190.182 285.854C189.827 286.05 189.538 286.344 189.314 286.736C189.099 287.119 188.992 287.576 188.992 288.108C188.992 288.64 189.099 289.107 189.314 289.508C189.538 289.909 189.827 290.217 190.182 290.432C190.546 290.637 190.929 290.74 191.33 290.74C191.741 290.74 192.123 290.637 192.478 290.432C192.833 290.227 193.117 289.928 193.332 289.536C193.556 289.135 193.668 288.668 193.668 288.136ZM204.444 287.954C204.444 288.243 204.426 288.505 204.388 288.738H198.494C198.541 289.354 198.77 289.849 199.18 290.222C199.591 290.595 200.095 290.782 200.692 290.782C201.551 290.782 202.158 290.423 202.512 289.704H204.234C204.001 290.413 203.576 290.997 202.96 291.454C202.354 291.902 201.598 292.126 200.692 292.126C199.955 292.126 199.292 291.963 198.704 291.636C198.126 291.3 197.668 290.833 197.332 290.236C197.006 289.629 196.842 288.929 196.842 288.136C196.842 287.343 197.001 286.647 197.318 286.05C197.645 285.443 198.098 284.977 198.676 284.65C199.264 284.323 199.936 284.16 200.692 284.16C201.42 284.16 202.069 284.319 202.638 284.636C203.208 284.953 203.651 285.401 203.968 285.98C204.286 286.549 204.444 287.207 204.444 287.954ZM202.778 287.45C202.769 286.862 202.559 286.391 202.148 286.036C201.738 285.681 201.229 285.504 200.622 285.504C200.072 285.504 199.6 285.681 199.208 286.036C198.816 286.381 198.583 286.853 198.508 287.45H202.778ZM207.611 281.64V292H206.015V281.64H207.611ZM210.518 283.264C210.229 283.264 209.986 283.166 209.79 282.97C209.594 282.774 209.496 282.531 209.496 282.242C209.496 281.953 209.594 281.71 209.79 281.514C209.986 281.318 210.229 281.22 210.518 281.22C210.798 281.22 211.036 281.318 211.232 281.514C211.428 281.71 211.526 281.953 211.526 282.242C211.526 282.531 211.428 282.774 211.232 282.97C211.036 283.166 210.798 283.264 210.518 283.264ZM211.302 284.286V292H209.706V284.286H211.302ZM216.38 290.572L218.564 284.286H220.258L217.318 292H215.414L212.488 284.286H214.196L216.38 290.572ZM228.534 287.954C228.534 288.243 228.515 288.505 228.478 288.738H222.584C222.631 289.354 222.859 289.849 223.27 290.222C223.681 290.595 224.185 290.782 224.782 290.782C225.641 290.782 226.247 290.423 226.602 289.704H228.324C228.091 290.413 227.666 290.997 227.05 291.454C226.443 291.902 225.687 292.126 224.782 292.126C224.045 292.126 223.382 291.963 222.794 291.636C222.215 291.3 221.758 290.833 221.422 290.236C221.095 289.629 220.932 288.929 220.932 288.136C220.932 287.343 221.091 286.647 221.408 286.05C221.735 285.443 222.187 284.977 222.766 284.65C223.354 284.323 224.026 284.16 224.782 284.16C225.51 284.16 226.159 284.319 226.728 284.636C227.297 284.953 227.741 285.401 228.058 285.98C228.375 286.549 228.534 287.207 228.534 287.954ZM226.868 287.45C226.859 286.862 226.649 286.391 226.238 286.036C225.827 285.681 225.319 285.504 224.712 285.504C224.161 285.504 223.69 285.681 223.298 286.036C222.906 286.381 222.673 286.853 222.598 287.45H226.868ZM231.701 285.406C231.934 285.014 232.242 284.711 232.625 284.496C233.017 284.272 233.479 284.16 234.011 284.16V285.812H233.605C232.979 285.812 232.503 285.971 232.177 286.288C231.859 286.605 231.701 287.156 231.701 287.94V292H230.105V284.286H231.701V285.406ZM242.422 284.286L237.69 295.626H236.038L237.606 291.874L234.568 284.286H236.346L238.516 290.166L240.77 284.286H242.422ZM125.63 313L124.426 311.796C123.959 312.263 123.45 312.613 122.9 312.846C122.349 313.07 121.733 313.182 121.052 313.182C120.361 313.182 119.75 313.061 119.218 312.818C118.686 312.575 118.275 312.23 117.986 311.782C117.696 311.325 117.552 310.797 117.552 310.2C117.552 309.528 117.743 308.931 118.126 308.408C118.508 307.876 119.078 307.456 119.834 307.148C119.563 306.821 119.372 306.518 119.26 306.238C119.148 305.949 119.092 305.631 119.092 305.286C119.092 304.857 119.199 304.474 119.414 304.138C119.638 303.802 119.955 303.536 120.366 303.34C120.776 303.144 121.252 303.046 121.794 303.046C122.344 303.046 122.811 303.153 123.194 303.368C123.586 303.573 123.875 303.858 124.062 304.222C124.258 304.586 124.337 304.992 124.3 305.44H122.704C122.713 305.095 122.629 304.829 122.452 304.642C122.274 304.446 122.032 304.348 121.724 304.348C121.416 304.348 121.164 304.441 120.968 304.628C120.781 304.805 120.688 305.025 120.688 305.286C120.688 305.538 120.758 305.79 120.898 306.042C121.047 306.285 121.304 306.602 121.668 306.994L124.244 309.556L125.238 307.918H126.96L125.7 310.074L125.35 310.648L127.716 313H125.63ZM121.052 311.824C121.929 311.824 122.704 311.465 123.376 310.746L120.8 308.156C119.698 308.595 119.148 309.257 119.148 310.144C119.148 310.62 119.325 311.021 119.68 311.348C120.034 311.665 120.492 311.824 121.052 311.824ZM133.995 306.434C134.265 306.061 134.634 305.757 135.101 305.524C135.577 305.281 136.104 305.16 136.683 305.16C137.364 305.16 137.98 305.323 138.531 305.65C139.081 305.977 139.515 306.443 139.833 307.05C140.15 307.647 140.309 308.333 140.309 309.108C140.309 309.883 140.15 310.578 139.833 311.194C139.515 311.801 139.077 312.277 138.517 312.622C137.966 312.958 137.355 313.126 136.683 313.126C136.085 313.126 135.553 313.009 135.087 312.776C134.629 312.543 134.265 312.244 133.995 311.88V313H132.399V302.64H133.995V306.434ZM138.685 309.108C138.685 308.576 138.573 308.119 138.349 307.736C138.134 307.344 137.845 307.05 137.481 306.854C137.126 306.649 136.743 306.546 136.333 306.546C135.931 306.546 135.549 306.649 135.185 306.854C134.83 307.059 134.541 307.358 134.317 307.75C134.102 308.142 133.995 308.604 133.995 309.136C133.995 309.668 134.102 310.135 134.317 310.536C134.541 310.928 134.83 311.227 135.185 311.432C135.549 311.637 135.931 311.74 136.333 311.74C136.743 311.74 137.126 311.637 137.481 311.432C137.845 311.217 138.134 310.909 138.349 310.508C138.573 310.107 138.685 309.64 138.685 309.108ZM148.873 305.286V313H147.277V312.09C147.025 312.407 146.694 312.659 146.283 312.846C145.882 313.023 145.452 313.112 144.995 313.112C144.388 313.112 143.842 312.986 143.357 312.734C142.881 312.482 142.503 312.109 142.223 311.614C141.952 311.119 141.817 310.522 141.817 309.822V305.286H143.399V309.584C143.399 310.275 143.572 310.807 143.917 311.18C144.262 311.544 144.734 311.726 145.331 311.726C145.928 311.726 146.4 311.544 146.745 311.18C147.1 310.807 147.277 310.275 147.277 309.584V305.286H148.873ZM157.923 305.286L153.191 316.626H151.539L153.107 312.874L150.069 305.286H151.847L154.017 311.166L156.271 305.286H157.923ZM161.129 303.27L160.947 310.06H159.617L159.435 303.27H161.129ZM160.331 313.098C160.042 313.098 159.799 313 159.603 312.804C159.407 312.608 159.309 312.365 159.309 312.076C159.309 311.787 159.407 311.544 159.603 311.348C159.799 311.152 160.042 311.054 160.331 311.054C160.611 311.054 160.849 311.152 161.045 311.348C161.241 311.544 161.339 311.787 161.339 312.076C161.339 312.365 161.241 312.608 161.045 312.804C160.849 313 160.611 313.098 160.331 313.098Z" fill="#2E2C43"/>
<path d="M36.6271 59.098C35.9738 59.098 35.3858 58.986 34.8631 58.762C34.3404 58.5287 33.9298 58.202 33.6311 57.782C33.3324 57.362 33.1831 56.872 33.1831 56.312H34.8911C34.9284 56.732 35.0918 57.0773 35.3811 57.348C35.6798 57.6187 36.0951 57.754 36.6271 57.754C37.1778 57.754 37.6071 57.6233 37.9151 57.362C38.2231 57.0913 38.3771 56.746 38.3771 56.326C38.3771 55.9993 38.2791 55.7333 38.0831 55.528C37.8964 55.3227 37.6584 55.164 37.3691 55.052C37.0891 54.94 36.6971 54.8187 36.1931 54.688C35.5584 54.52 35.0404 54.352 34.6391 54.184C34.2471 54.0067 33.9111 53.736 33.6311 53.372C33.3511 53.008 33.2111 52.5227 33.2111 51.916C33.2111 51.356 33.3511 50.866 33.6311 50.446C33.9111 50.026 34.3031 49.704 34.8071 49.48C35.3111 49.256 35.8944 49.144 36.5571 49.144C37.4998 49.144 38.2698 49.382 38.8671 49.858C39.4738 50.3247 39.8098 50.9687 39.8751 51.79H38.1111C38.0831 51.4353 37.9151 51.132 37.6071 50.88C37.2991 50.628 36.8931 50.502 36.3891 50.502C35.9318 50.502 35.5584 50.6187 35.2691 50.852C34.9798 51.0853 34.8351 51.4213 34.8351 51.86C34.8351 52.1587 34.9238 52.406 35.1011 52.602C35.2878 52.7887 35.5211 52.938 35.8011 53.05C36.0811 53.162 36.4638 53.2833 36.9491 53.414C37.5931 53.5913 38.1158 53.7687 38.5171 53.946C38.9278 54.1233 39.2731 54.3987 39.5531 54.772C39.8424 55.136 39.9871 55.626 39.9871 56.242C39.9871 56.7367 39.8518 57.2033 39.5811 57.642C39.3198 58.0807 38.9324 58.4353 38.4191 58.706C37.9151 58.9673 37.3178 59.098 36.6271 59.098ZM43.7323 52.588V56.858C43.7323 57.1473 43.7976 57.3573 43.9283 57.488C44.0683 57.6093 44.3016 57.67 44.6283 57.67H45.6083V59H44.3483C43.6296 59 43.079 58.832 42.6963 58.496C42.3136 58.16 42.1223 57.614 42.1223 56.858V52.588H41.2123V51.286H42.1223V49.368H43.7323V51.286H45.6083V52.588H43.7323ZM54.1493 54.954C54.1493 55.2433 54.1306 55.5047 54.0933 55.738H48.1993C48.246 56.354 48.4746 56.8487 48.8853 57.222C49.296 57.5953 49.8 57.782 50.3973 57.782C51.256 57.782 51.8626 57.4227 52.2173 56.704H53.9393C53.706 57.4133 53.2813 57.9967 52.6653 58.454C52.0586 58.902 51.3026 59.126 50.3973 59.126C49.66 59.126 48.9973 58.9627 48.4093 58.636C47.8306 58.3 47.3733 57.8333 47.0373 57.236C46.7106 56.6293 46.5473 55.9293 46.5473 55.136C46.5473 54.3427 46.706 53.6473 47.0233 53.05C47.35 52.4433 47.8026 51.9767 48.3813 51.65C48.9693 51.3233 49.6413 51.16 50.3973 51.16C51.1253 51.16 51.774 51.3187 52.3433 51.636C52.9126 51.9533 53.356 52.4013 53.6733 52.98C53.9906 53.5493 54.1493 54.2073 54.1493 54.954ZM52.4833 54.45C52.474 53.862 52.264 53.3907 51.8533 53.036C51.4426 52.6813 50.934 52.504 50.3273 52.504C49.7766 52.504 49.3053 52.6813 48.9133 53.036C48.5213 53.3813 48.288 53.8527 48.2133 54.45H52.4833ZM57.3159 52.42C57.5866 52.0653 57.9553 51.7667 58.4219 51.524C58.8886 51.2813 59.4159 51.16 60.0039 51.16C60.6759 51.16 61.2873 51.328 61.8379 51.664C62.3979 51.9907 62.8366 52.4527 63.1539 53.05C63.4713 53.6473 63.6299 54.3333 63.6299 55.108C63.6299 55.8827 63.4713 56.578 63.1539 57.194C62.8366 57.8007 62.3979 58.2767 61.8379 58.622C61.2873 58.958 60.6759 59.126 60.0039 59.126C59.4159 59.126 58.8933 59.0093 58.4359 58.776C57.9786 58.5333 57.6053 58.2347 57.3159 57.88V62.668H55.7199V51.286H57.3159V52.42ZM62.0059 55.108C62.0059 54.576 61.8939 54.1187 61.6699 53.736C61.4553 53.344 61.1659 53.05 60.8019 52.854C60.4473 52.6487 60.0646 52.546 59.6539 52.546C59.2526 52.546 58.8699 52.6487 58.5059 52.854C58.1513 53.0593 57.8619 53.358 57.6379 53.75C57.4233 54.142 57.3159 54.604 57.3159 55.136C57.3159 55.668 57.4233 56.1347 57.6379 56.536C57.8619 56.928 58.1513 57.2267 58.5059 57.432C58.8699 57.6373 59.2526 57.74 59.6539 57.74C60.0646 57.74 60.4473 57.6373 60.8019 57.432C61.1659 57.2173 61.4553 56.9093 61.6699 56.508C61.8939 56.1067 62.0059 55.64 62.0059 55.108ZM75.1029 50.026L71.2109 59H69.6009L73.5349 50.194H68.3549V48.836H75.1029V50.026Z" fill="black"/>
<path d="M95.7188 180.308C90.3435 192.846 91.3743 208.072 95.7188 224.688H125.875C129.646 208.053 131.555 192.327 125.875 180.308H95.7188Z" fill="#E4E4E4"/>
<path d="M83.5557 180.308C73.7338 192.395 76.474 207.944 83.5557 224.688H95.7187C91.3324 208.869 90.6153 193.908 95.7187 180.308H83.5557Z" fill="#CACACA"/>
<path d="M120.3 181.337H115.739V185.898H120.3V181.337Z" fill="white"/>
<path d="M112.951 181.337H108.39V185.898H112.951V181.337Z" fill="white"/>
<path d="M105.602 181.337H101.041V185.898H105.602V181.337Z" fill="white"/>
<path d="M120.173 191.726H115.612V196.288H120.173V191.726Z" fill="white"/>
<path d="M112.824 191.726H108.263V196.288H112.824V191.726Z" fill="white"/>
<path d="M105.476 191.726H100.914V196.288H105.476V191.726Z" fill="white"/>
<path d="M120.046 202.116H115.485V206.677H120.046V202.116Z" fill="white"/>
<path d="M112.698 202.116H108.136V206.677H112.698V202.116Z" fill="white"/>
<path d="M105.349 202.116H100.788V206.677H105.349V202.116Z" fill="white"/>
<path d="M119.92 212.506H115.358V217.067H119.92V212.506Z" fill="white"/>
<path d="M112.571 212.506H108.01V217.067H112.571V212.506Z" fill="white"/>
<path d="M105.222 212.506H100.661V217.067H105.222V212.506Z" fill="white"/>
<path d="M119.793 222.895H115.231V224.689H119.793V222.895Z" fill="white"/>
<path d="M112.444 222.895H107.883V224.689H112.444V222.895Z" fill="white"/>
<path d="M105.095 222.895H100.534V224.689H105.095V222.895Z" fill="white"/>
<path d="M71.205 203.881V221.252C71.2048 222.03 71.4689 222.785 71.954 223.394C72.4391 224.003 73.1166 224.429 73.8754 224.602C74.0586 224.644 74.2451 224.67 74.4328 224.681C74.5009 224.687 74.5721 224.688 74.6418 224.688H87.8636C90.6394 216.559 95.743 181.671 74.8402 184.701L71.205 203.881Z" fill="#E4E4E4"/>
<path d="M81.9087 212.506H77.3474V217.067H81.9087V212.506Z" fill="white"/>
<path d="M74.56 212.506H71.205V217.067H74.56V212.506Z" fill="white"/>
<path d="M81.7822 222.895H77.2214V224.689H81.7822V222.895Z" fill="white"/>
<path d="M71.6232 222.895C71.8571 223.322 72.1787 223.695 72.5669 223.99C72.955 224.284 73.401 224.493 73.8755 224.602C74.0588 224.644 74.2452 224.67 74.4329 224.681V222.895H71.6232Z" fill="white"/>
<path d="M140.061 234.641C146.497 234.641 151.714 233.747 151.714 232.644C151.714 231.54 146.497 230.646 140.061 230.646C133.626 230.646 128.409 231.54 128.409 232.644C128.409 233.747 133.626 234.641 140.061 234.641Z" fill="#FB8C00"/>
<path d="M206.094 233.456H161.481C161.392 233.456 161.308 233.421 161.245 233.359C161.183 233.296 161.148 233.212 161.148 233.123C161.148 233.035 161.183 232.95 161.245 232.888C161.308 232.825 161.392 232.79 161.481 232.79H206.094C206.182 232.79 206.267 232.825 206.329 232.888C206.392 232.95 206.427 233.035 206.427 233.123C206.427 233.212 206.392 233.296 206.329 233.359C206.267 233.421 206.182 233.456 206.094 233.456Z" fill="#3F3D56"/>
<path d="M131.4 145.982C131.401 142.355 132.644 138.838 134.924 136.017C137.204 133.195 140.381 131.241 143.928 130.478C141.615 129.982 139.222 130.01 136.921 130.558C134.621 131.107 132.473 132.163 130.633 133.649C128.794 135.136 127.311 137.015 126.291 139.149C125.272 141.283 124.743 143.618 124.743 145.982C124.743 148.347 125.272 150.682 126.291 152.816C127.311 154.95 128.794 156.829 130.633 158.315C132.473 159.802 134.621 160.858 136.921 161.407C139.222 161.955 141.615 161.982 143.928 161.486C140.381 160.724 137.204 158.769 134.924 155.948C132.644 153.127 131.401 149.61 131.4 145.982Z" fill="#FB8C00"/>
<path d="M140.962 162.238C137.76 162.238 134.629 161.288 131.967 159.51C129.305 157.731 127.229 155.202 126.004 152.244C124.779 149.285 124.458 146.03 125.083 142.89C125.707 139.749 127.249 136.864 129.513 134.6C131.778 132.336 134.662 130.794 137.803 130.169C140.943 129.545 144.199 129.865 147.157 131.091C150.115 132.316 152.644 134.391 154.423 137.053C156.202 139.716 157.151 142.846 157.151 146.048C157.146 150.34 155.439 154.455 152.404 157.491C149.369 160.526 145.254 162.233 140.962 162.238ZM140.962 130.524C137.891 130.524 134.89 131.434 132.337 133.14C129.784 134.846 127.794 137.27 126.619 140.107C125.444 142.944 125.137 146.065 125.736 149.076C126.335 152.088 127.813 154.854 129.984 157.025C132.155 159.196 134.921 160.675 137.933 161.274C140.944 161.873 144.066 161.565 146.902 160.39C149.739 159.215 152.163 157.226 153.869 154.673C155.575 152.12 156.485 149.118 156.485 146.048C156.481 141.932 154.844 137.986 151.934 135.076C149.023 132.166 145.077 130.529 140.962 130.524V130.524Z" fill="#3F3D56"/>
<path d="M114.143 145.983C114.144 137.332 117.308 128.979 123.039 122.499C128.77 116.019 136.673 111.859 145.26 110.801C140.277 110.191 135.222 110.645 130.428 112.133C125.635 113.622 121.212 116.112 117.452 119.437C113.692 122.763 110.682 126.849 108.619 131.425C106.556 136.001 105.488 140.963 105.487 145.983C105.487 161.882 128.869 206.718 137.651 222.997C137.97 223.59 138.443 224.085 139.021 224.43C139.598 224.775 140.259 224.957 140.931 224.957C141.604 224.957 142.264 224.775 142.842 224.43C143.42 224.085 143.893 223.59 144.212 222.997C144.541 222.388 144.892 221.734 145.26 221.048C135.805 203.398 114.143 161.287 114.143 145.983Z" fill="#FB8C00"/>
<path d="M140.961 225.355C140.227 225.361 139.506 225.165 138.876 224.789C138.245 224.412 137.731 223.87 137.388 223.221C127.705 205.272 105.184 161.821 105.184 146.048C105.184 136.559 108.953 127.459 115.663 120.75C122.373 114.04 131.473 110.271 140.962 110.271C150.451 110.271 159.551 114.04 166.26 120.75C172.97 127.459 176.74 136.559 176.74 146.048C176.74 161.823 154.218 205.272 144.535 223.221C144.192 223.87 143.678 224.412 143.047 224.789C142.417 225.165 141.695 225.361 140.961 225.355ZM140.962 110.936C131.653 110.947 122.728 114.65 116.145 121.232C109.563 127.815 105.86 136.739 105.85 146.048C105.85 161.67 128.315 205 137.974 222.905C138.264 223.444 138.696 223.895 139.222 224.209C139.748 224.523 140.349 224.689 140.962 224.689C141.574 224.689 142.175 224.523 142.701 224.209C143.227 223.895 143.659 223.444 143.949 222.905C153.608 205.001 176.074 161.671 176.074 146.048C176.063 136.739 172.36 127.815 165.778 121.232C159.196 114.65 150.271 110.947 140.962 110.936Z" fill="#3F3D56"/>
<rect x="40.5" y="86.5" width="200.793" height="146.704" stroke="#C4C4C4" stroke-dasharray="10 10"/>
</svg>
