<svg width="401" height="530" viewBox="0 0 401 530" fill="none" xmlns="http://www.w3.org/2000/svg">
<g filter="url(#filter0_d_1165_5)">
<path d="M283.296 90.885H97.8423C93.9955 90.885 90.877 98.7326 90.877 108.413V402.008C90.877 411.689 93.9955 419.536 97.8423 419.536H283.296C287.143 419.536 290.261 411.689 290.261 402.008V108.413C290.261 98.7326 287.143 90.885 283.296 90.885Z" fill="white"/>
</g>
<rect x="73" y="77" width="272.127" height="343" rx="24" fill="white"/>
<path d="M137.395 348.012H133.321L132.621 350H130.955L134.441 340.256H136.289L139.775 350H138.095L137.395 348.012ZM136.947 346.71L135.365 342.188L133.769 346.71H136.947ZM142.886 343.42C143.157 343.065 143.526 342.767 143.992 342.524C144.459 342.281 144.986 342.16 145.574 342.16C146.246 342.16 146.858 342.328 147.408 342.664C147.968 342.991 148.407 343.453 148.724 344.05C149.042 344.647 149.2 345.333 149.2 346.108C149.2 346.883 149.042 347.578 148.724 348.194C148.407 348.801 147.968 349.277 147.408 349.622C146.858 349.958 146.246 350.126 145.574 350.126C144.986 350.126 144.464 350.009 144.006 349.776C143.549 349.533 143.176 349.235 142.886 348.88V353.668H141.29V342.286H142.886V343.42ZM147.576 346.108C147.576 345.576 147.464 345.119 147.24 344.736C147.026 344.344 146.736 344.05 146.372 343.854C146.018 343.649 145.635 343.546 145.224 343.546C144.823 343.546 144.44 343.649 144.076 343.854C143.722 344.059 143.432 344.358 143.208 344.75C142.994 345.142 142.886 345.604 142.886 346.136C142.886 346.668 142.994 347.135 143.208 347.536C143.432 347.928 143.722 348.227 144.076 348.432C144.44 348.637 144.823 348.74 145.224 348.74C145.635 348.74 146.018 348.637 146.372 348.432C146.736 348.217 147.026 347.909 147.24 347.508C147.464 347.107 147.576 346.64 147.576 346.108ZM152.375 343.42C152.645 343.065 153.014 342.767 153.481 342.524C153.947 342.281 154.475 342.16 155.063 342.16C155.735 342.16 156.346 342.328 156.897 342.664C157.457 342.991 157.895 343.453 158.213 344.05C158.53 344.647 158.689 345.333 158.689 346.108C158.689 346.883 158.53 347.578 158.213 348.194C157.895 348.801 157.457 349.277 156.897 349.622C156.346 349.958 155.735 350.126 155.063 350.126C154.475 350.126 153.952 350.009 153.495 349.776C153.037 349.533 152.664 349.235 152.375 348.88V353.668H150.779V342.286H152.375V343.42ZM157.065 346.108C157.065 345.576 156.953 345.119 156.729 344.736C156.514 344.344 156.225 344.05 155.861 343.854C155.506 343.649 155.123 343.546 154.713 343.546C154.311 343.546 153.929 343.649 153.565 343.854C153.21 344.059 152.921 344.358 152.697 344.75C152.482 345.142 152.375 345.604 152.375 346.136C152.375 346.668 152.482 347.135 152.697 347.536C152.921 347.928 153.21 348.227 153.565 348.432C153.929 348.637 154.311 348.74 154.713 348.74C155.123 348.74 155.506 348.637 155.861 348.432C156.225 348.217 156.514 347.909 156.729 347.508C156.953 347.107 157.065 346.64 157.065 346.108ZM161.863 339.64V350H160.267V339.64H161.863ZM170.902 342.286L166.17 353.626H164.518L166.086 349.874L163.048 342.286H164.826L166.996 348.166L169.25 342.286H170.902ZM175.211 345.114C175.211 344.162 175.431 343.308 175.869 342.552C176.317 341.796 176.919 341.208 177.675 340.788C178.441 340.359 179.276 340.144 180.181 340.144C181.217 340.144 182.137 340.401 182.939 340.914C183.751 341.418 184.339 342.137 184.703 343.07H182.785C182.533 342.557 182.183 342.174 181.735 341.922C181.287 341.67 180.769 341.544 180.181 341.544C179.537 341.544 178.963 341.689 178.459 341.978C177.955 342.267 177.559 342.683 177.269 343.224C176.989 343.765 176.849 344.395 176.849 345.114C176.849 345.833 176.989 346.463 177.269 347.004C177.559 347.545 177.955 347.965 178.459 348.264C178.963 348.553 179.537 348.698 180.181 348.698C180.769 348.698 181.287 348.572 181.735 348.32C182.183 348.068 182.533 347.685 182.785 347.172H184.703C184.339 348.105 183.751 348.824 182.939 349.328C182.137 349.832 181.217 350.084 180.181 350.084C179.267 350.084 178.431 349.874 177.675 349.454C176.919 349.025 176.317 348.432 175.869 347.676C175.431 346.92 175.211 346.066 175.211 345.114ZM189.917 350.126C189.189 350.126 188.531 349.963 187.943 349.636C187.355 349.3 186.893 348.833 186.557 348.236C186.221 347.629 186.053 346.929 186.053 346.136C186.053 345.352 186.226 344.657 186.571 344.05C186.917 343.443 187.388 342.977 187.985 342.65C188.583 342.323 189.25 342.16 189.987 342.16C190.725 342.16 191.392 342.323 191.989 342.65C192.587 342.977 193.058 343.443 193.403 344.05C193.749 344.657 193.921 345.352 193.921 346.136C193.921 346.92 193.744 347.615 193.389 348.222C193.035 348.829 192.549 349.3 191.933 349.636C191.327 349.963 190.655 350.126 189.917 350.126ZM189.917 348.74C190.328 348.74 190.711 348.642 191.065 348.446C191.429 348.25 191.723 347.956 191.947 347.564C192.171 347.172 192.283 346.696 192.283 346.136C192.283 345.576 192.176 345.105 191.961 344.722C191.747 344.33 191.462 344.036 191.107 343.84C190.753 343.644 190.37 343.546 189.959 343.546C189.549 343.546 189.166 343.644 188.811 343.84C188.466 344.036 188.191 344.33 187.985 344.722C187.78 345.105 187.677 345.576 187.677 346.136C187.677 346.967 187.887 347.611 188.307 348.068C188.737 348.516 189.273 348.74 189.917 348.74ZM202.485 342.286V350H200.889V349.09C200.637 349.407 200.306 349.659 199.895 349.846C199.494 350.023 199.065 350.112 198.607 350.112C198.001 350.112 197.455 349.986 196.969 349.734C196.493 349.482 196.115 349.109 195.835 348.614C195.565 348.119 195.429 347.522 195.429 346.822V342.286H197.011V346.584C197.011 347.275 197.184 347.807 197.529 348.18C197.875 348.544 198.346 348.726 198.943 348.726C199.541 348.726 200.012 348.544 200.357 348.18C200.712 347.807 200.889 347.275 200.889 346.584V342.286H202.485ZM206.187 343.42C206.458 343.065 206.826 342.767 207.293 342.524C207.76 342.281 208.287 342.16 208.875 342.16C209.547 342.16 210.158 342.328 210.709 342.664C211.269 342.991 211.708 343.453 212.025 344.05C212.342 344.647 212.501 345.333 212.501 346.108C212.501 346.883 212.342 347.578 212.025 348.194C211.708 348.801 211.269 349.277 210.709 349.622C210.158 349.958 209.547 350.126 208.875 350.126C208.287 350.126 207.764 350.009 207.307 349.776C206.85 349.533 206.476 349.235 206.187 348.88V353.668H204.591V342.286H206.187V343.42ZM210.877 346.108C210.877 345.576 210.765 345.119 210.541 344.736C210.326 344.344 210.037 344.05 209.673 343.854C209.318 343.649 208.936 343.546 208.525 343.546C208.124 343.546 207.741 343.649 207.377 343.854C207.022 344.059 206.733 344.358 206.509 344.75C206.294 345.142 206.187 345.604 206.187 346.136C206.187 346.668 206.294 347.135 206.509 347.536C206.733 347.928 207.022 348.227 207.377 348.432C207.741 348.637 208.124 348.74 208.525 348.74C208.936 348.74 209.318 348.637 209.673 348.432C210.037 348.217 210.326 347.909 210.541 347.508C210.765 347.107 210.877 346.64 210.877 346.108ZM217.425 350.126C216.697 350.126 216.039 349.963 215.451 349.636C214.863 349.3 214.401 348.833 214.065 348.236C213.729 347.629 213.561 346.929 213.561 346.136C213.561 345.352 213.734 344.657 214.079 344.05C214.425 343.443 214.896 342.977 215.493 342.65C216.091 342.323 216.758 342.16 217.495 342.16C218.233 342.16 218.9 342.323 219.497 342.65C220.095 342.977 220.566 343.443 220.911 344.05C221.257 344.657 221.429 345.352 221.429 346.136C221.429 346.92 221.252 347.615 220.897 348.222C220.543 348.829 220.057 349.3 219.441 349.636C218.835 349.963 218.163 350.126 217.425 350.126ZM217.425 348.74C217.836 348.74 218.219 348.642 218.573 348.446C218.937 348.25 219.231 347.956 219.455 347.564C219.679 347.172 219.791 346.696 219.791 346.136C219.791 345.576 219.684 345.105 219.469 344.722C219.255 344.33 218.97 344.036 218.615 343.84C218.261 343.644 217.878 343.546 217.467 343.546C217.057 343.546 216.674 343.644 216.319 343.84C215.974 344.036 215.699 344.33 215.493 344.722C215.288 345.105 215.185 345.576 215.185 346.136C215.185 346.967 215.395 347.611 215.815 348.068C216.245 348.516 216.781 348.74 217.425 348.74ZM226.899 342.16C227.506 342.16 228.047 342.286 228.523 342.538C229.008 342.79 229.386 343.163 229.657 343.658C229.928 344.153 230.063 344.75 230.063 345.45V350H228.481V345.688C228.481 344.997 228.308 344.47 227.963 344.106C227.618 343.733 227.146 343.546 226.549 343.546C225.952 343.546 225.476 343.733 225.121 344.106C224.776 344.47 224.603 344.997 224.603 345.688V350H223.007V342.286H224.603V343.168C224.864 342.851 225.196 342.603 225.597 342.426C226.008 342.249 226.442 342.16 226.899 342.16ZM237.598 343.588V347.858C237.598 348.147 237.663 348.357 237.794 348.488C237.934 348.609 238.167 348.67 238.494 348.67H239.474V350H238.214C237.495 350 236.944 349.832 236.562 349.496C236.179 349.16 235.988 348.614 235.988 347.858V343.588H235.078V342.286H235.988V340.368H237.598V342.286H239.474V343.588H237.598ZM244.291 350.126C243.563 350.126 242.905 349.963 242.317 349.636C241.729 349.3 241.267 348.833 240.931 348.236C240.595 347.629 240.427 346.929 240.427 346.136C240.427 345.352 240.599 344.657 240.945 344.05C241.29 343.443 241.761 342.977 242.359 342.65C242.956 342.323 243.623 342.16 244.361 342.16C245.098 342.16 245.765 342.323 246.363 342.65C246.96 342.977 247.431 343.443 247.777 344.05C248.122 344.657 248.295 345.352 248.295 346.136C248.295 346.92 248.117 347.615 247.763 348.222C247.408 348.829 246.923 349.3 246.307 349.636C245.7 349.963 245.028 350.126 244.291 350.126ZM244.291 348.74C244.701 348.74 245.084 348.642 245.439 348.446C245.803 348.25 246.097 347.956 246.321 347.564C246.545 347.172 246.657 346.696 246.657 346.136C246.657 345.576 246.549 345.105 246.335 344.722C246.12 344.33 245.835 344.036 245.481 343.84C245.126 343.644 244.743 343.546 244.333 343.546C243.922 343.546 243.539 343.644 243.185 343.84C242.839 344.036 242.564 344.33 242.359 344.722C242.153 345.105 242.051 345.576 242.051 346.136C242.051 346.967 242.261 347.611 242.681 348.068C243.11 348.516 243.647 348.74 244.291 348.74ZM252.977 346.108C252.977 345.333 253.136 344.647 253.453 344.05C253.78 343.453 254.218 342.991 254.769 342.664C255.329 342.328 255.945 342.16 256.617 342.16C257.224 342.16 257.751 342.281 258.199 342.524C258.656 342.757 259.02 343.051 259.291 343.406V342.286H260.901V350H259.291V348.852C259.02 349.216 258.652 349.519 258.185 349.762C257.718 350.005 257.186 350.126 256.589 350.126C255.926 350.126 255.32 349.958 254.769 349.622C254.218 349.277 253.78 348.801 253.453 348.194C253.136 347.578 252.977 346.883 252.977 346.108ZM259.291 346.136C259.291 345.604 259.179 345.142 258.955 344.75C258.74 344.358 258.456 344.059 258.101 343.854C257.746 343.649 257.364 343.546 256.953 343.546C256.542 343.546 256.16 343.649 255.805 343.854C255.45 344.05 255.161 344.344 254.937 344.736C254.722 345.119 254.615 345.576 254.615 346.108C254.615 346.64 254.722 347.107 254.937 347.508C255.161 347.909 255.45 348.217 255.805 348.432C256.169 348.637 256.552 348.74 256.953 348.74C257.364 348.74 257.746 348.637 258.101 348.432C258.456 348.227 258.74 347.928 258.955 347.536C259.179 347.135 259.291 346.668 259.291 346.136ZM265.979 348.572L268.163 342.286H269.857L266.917 350H265.013L262.087 342.286H263.795L265.979 348.572ZM270.532 346.108C270.532 345.333 270.69 344.647 271.008 344.05C271.334 343.453 271.773 342.991 272.324 342.664C272.884 342.328 273.5 342.16 274.172 342.16C274.778 342.16 275.306 342.281 275.754 342.524C276.211 342.757 276.575 343.051 276.846 343.406V342.286H278.456V350H276.846V348.852C276.575 349.216 276.206 349.519 275.74 349.762C275.273 350.005 274.741 350.126 274.144 350.126C273.481 350.126 272.874 349.958 272.324 349.622C271.773 349.277 271.334 348.801 271.008 348.194C270.69 347.578 270.532 346.883 270.532 346.108ZM276.846 346.136C276.846 345.604 276.734 345.142 276.51 344.75C276.295 344.358 276.01 344.059 275.656 343.854C275.301 343.649 274.918 343.546 274.508 343.546C274.097 343.546 273.714 343.649 273.36 343.854C273.005 344.05 272.716 344.344 272.492 344.736C272.277 345.119 272.17 345.576 272.17 346.108C272.17 346.64 272.277 347.107 272.492 347.508C272.716 347.909 273.005 348.217 273.36 348.432C273.724 348.637 274.106 348.74 274.508 348.74C274.918 348.74 275.301 348.637 275.656 348.432C276.01 348.227 276.295 347.928 276.51 347.536C276.734 347.135 276.846 346.668 276.846 346.136ZM281.364 341.264C281.075 341.264 280.832 341.166 280.636 340.97C280.44 340.774 280.342 340.531 280.342 340.242C280.342 339.953 280.44 339.71 280.636 339.514C280.832 339.318 281.075 339.22 281.364 339.22C281.644 339.22 281.882 339.318 282.078 339.514C282.274 339.71 282.372 339.953 282.372 340.242C282.372 340.531 282.274 340.774 282.078 340.97C281.882 341.166 281.644 341.264 281.364 341.264ZM282.148 342.286V350H280.552V342.286H282.148ZM285.839 339.64V350H284.243V339.64H285.839ZM193.349 371.126C192.621 371.126 191.963 370.963 191.375 370.636C190.787 370.3 190.325 369.833 189.989 369.236C189.653 368.629 189.485 367.929 189.485 367.136C189.485 366.352 189.658 365.657 190.003 365.05C190.348 364.443 190.82 363.977 191.417 363.65C192.014 363.323 192.682 363.16 193.419 363.16C194.156 363.16 194.824 363.323 195.421 363.65C196.018 363.977 196.49 364.443 196.835 365.05C197.18 365.657 197.353 366.352 197.353 367.136C197.353 367.92 197.176 368.615 196.821 369.222C196.466 369.829 195.981 370.3 195.365 370.636C194.758 370.963 194.086 371.126 193.349 371.126ZM193.349 369.74C193.76 369.74 194.142 369.642 194.497 369.446C194.861 369.25 195.155 368.956 195.379 368.564C195.603 368.172 195.715 367.696 195.715 367.136C195.715 366.576 195.608 366.105 195.393 365.722C195.178 365.33 194.894 365.036 194.539 364.84C194.184 364.644 193.802 364.546 193.391 364.546C192.98 364.546 192.598 364.644 192.243 364.84C191.898 365.036 191.622 365.33 191.417 365.722C191.212 366.105 191.109 366.576 191.109 367.136C191.109 367.967 191.319 368.611 191.739 369.068C192.168 369.516 192.705 369.74 193.349 369.74ZM202.165 364.588H200.737V371H199.127V364.588H198.217V363.286H199.127V362.74C199.127 361.853 199.36 361.209 199.827 360.808C200.303 360.397 201.045 360.192 202.053 360.192V361.522C201.568 361.522 201.227 361.615 201.031 361.802C200.835 361.979 200.737 362.292 200.737 362.74V363.286H202.165V364.588ZM206.813 364.588H205.385V371H203.775V364.588H202.865V363.286H203.775V362.74C203.775 361.853 204.009 361.209 204.475 360.808C204.951 360.397 205.693 360.192 206.701 360.192V361.522C206.216 361.522 205.875 361.615 205.679 361.802C205.483 361.979 205.385 362.292 205.385 362.74V363.286H206.813V364.588ZM215.298 366.954C215.298 367.243 215.279 367.505 215.242 367.738H209.348C209.394 368.354 209.623 368.849 210.034 369.222C210.444 369.595 210.948 369.782 211.546 369.782C212.404 369.782 213.011 369.423 213.366 368.704H215.088C214.854 369.413 214.43 369.997 213.814 370.454C213.207 370.902 212.451 371.126 211.546 371.126C210.808 371.126 210.146 370.963 209.558 370.636C208.979 370.3 208.522 369.833 208.186 369.236C207.859 368.629 207.696 367.929 207.696 367.136C207.696 366.343 207.854 365.647 208.172 365.05C208.498 364.443 208.951 363.977 209.53 363.65C210.118 363.323 210.79 363.16 211.546 363.16C212.274 363.16 212.922 363.319 213.492 363.636C214.061 363.953 214.504 364.401 214.822 364.98C215.139 365.549 215.298 366.207 215.298 366.954ZM213.632 366.45C213.622 365.862 213.412 365.391 213.002 365.036C212.591 364.681 212.082 364.504 211.476 364.504C210.925 364.504 210.454 364.681 210.062 365.036C209.67 365.381 209.436 365.853 209.362 366.45H213.632ZM218.464 364.406C218.698 364.014 219.006 363.711 219.388 363.496C219.78 363.272 220.242 363.16 220.774 363.16V364.812H220.368C219.743 364.812 219.267 364.971 218.94 365.288C218.623 365.605 218.464 366.156 218.464 366.94V371H216.868V363.286H218.464V364.406ZM225.041 371.126C224.435 371.126 223.889 371.019 223.403 370.804C222.927 370.58 222.549 370.281 222.269 369.908C221.989 369.525 221.84 369.101 221.821 368.634H223.473C223.501 368.961 223.655 369.236 223.935 369.46C224.225 369.675 224.584 369.782 225.013 369.782C225.461 369.782 225.807 369.698 226.049 369.53C226.301 369.353 226.427 369.129 226.427 368.858C226.427 368.569 226.287 368.354 226.007 368.214C225.737 368.074 225.303 367.92 224.705 367.752C224.127 367.593 223.655 367.439 223.291 367.29C222.927 367.141 222.61 366.912 222.339 366.604C222.078 366.296 221.947 365.89 221.947 365.386C221.947 364.975 222.069 364.602 222.311 364.266C222.554 363.921 222.899 363.65 223.347 363.454C223.805 363.258 224.327 363.16 224.915 363.16C225.793 363.16 226.497 363.384 227.029 363.832C227.571 364.271 227.86 364.873 227.897 365.638H226.301C226.273 365.293 226.133 365.017 225.881 364.812C225.629 364.607 225.289 364.504 224.859 364.504C224.439 364.504 224.117 364.583 223.893 364.742C223.669 364.901 223.557 365.111 223.557 365.372C223.557 365.577 223.632 365.75 223.781 365.89C223.931 366.03 224.113 366.142 224.327 366.226C224.542 366.301 224.859 366.399 225.279 366.52C225.839 366.669 226.297 366.823 226.651 366.982C227.015 367.131 227.328 367.355 227.589 367.654C227.851 367.953 227.986 368.349 227.995 368.844C227.995 369.283 227.874 369.675 227.631 370.02C227.389 370.365 227.043 370.636 226.595 370.832C226.157 371.028 225.639 371.126 225.041 371.126ZM230.364 371.098C230.075 371.098 229.832 371 229.636 370.804C229.44 370.608 229.342 370.365 229.342 370.076C229.342 369.787 229.44 369.544 229.636 369.348C229.832 369.152 230.075 369.054 230.364 369.054C230.644 369.054 230.882 369.152 231.078 369.348C231.274 369.544 231.372 369.787 231.372 370.076C231.372 370.365 231.274 370.608 231.078 370.804C230.882 371 230.644 371.098 230.364 371.098Z" fill="#2E2C43"/>
<path d="M109.512 131.098C108.859 131.098 108.271 130.986 107.748 130.762C107.225 130.529 106.815 130.202 106.516 129.782C106.217 129.362 106.068 128.872 106.068 128.312H107.776C107.813 128.732 107.977 129.077 108.266 129.348C108.565 129.619 108.98 129.754 109.512 129.754C110.063 129.754 110.492 129.623 110.8 129.362C111.108 129.091 111.262 128.746 111.262 128.326C111.262 127.999 111.164 127.733 110.968 127.528C110.781 127.323 110.543 127.164 110.254 127.052C109.974 126.94 109.582 126.819 109.078 126.688C108.443 126.52 107.925 126.352 107.524 126.184C107.132 126.007 106.796 125.736 106.516 125.372C106.236 125.008 106.096 124.523 106.096 123.916C106.096 123.356 106.236 122.866 106.516 122.446C106.796 122.026 107.188 121.704 107.692 121.48C108.196 121.256 108.779 121.144 109.442 121.144C110.385 121.144 111.155 121.382 111.752 121.858C112.359 122.325 112.695 122.969 112.76 123.79H110.996C110.968 123.435 110.8 123.132 110.492 122.88C110.184 122.628 109.778 122.502 109.274 122.502C108.817 122.502 108.443 122.619 108.154 122.852C107.865 123.085 107.72 123.421 107.72 123.86C107.72 124.159 107.809 124.406 107.986 124.602C108.173 124.789 108.406 124.938 108.686 125.05C108.966 125.162 109.349 125.283 109.834 125.414C110.478 125.591 111.001 125.769 111.402 125.946C111.813 126.123 112.158 126.399 112.438 126.772C112.727 127.136 112.872 127.626 112.872 128.242C112.872 128.737 112.737 129.203 112.466 129.642C112.205 130.081 111.817 130.435 111.304 130.706C110.8 130.967 110.203 131.098 109.512 131.098ZM116.617 124.588V128.858C116.617 129.147 116.682 129.357 116.813 129.488C116.953 129.609 117.186 129.67 117.513 129.67H118.493V131H117.233C116.514 131 115.964 130.832 115.581 130.496C115.198 130.16 115.007 129.614 115.007 128.858V124.588H114.097V123.286H115.007V121.368H116.617V123.286H118.493V124.588H116.617ZM127.034 126.954C127.034 127.243 127.015 127.505 126.978 127.738H121.084C121.131 128.354 121.359 128.849 121.77 129.222C122.181 129.595 122.685 129.782 123.282 129.782C124.141 129.782 124.747 129.423 125.102 128.704H126.824C126.591 129.413 126.166 129.997 125.55 130.454C124.943 130.902 124.187 131.126 123.282 131.126C122.545 131.126 121.882 130.963 121.294 130.636C120.715 130.3 120.258 129.833 119.922 129.236C119.595 128.629 119.432 127.929 119.432 127.136C119.432 126.343 119.591 125.647 119.908 125.05C120.235 124.443 120.687 123.977 121.266 123.65C121.854 123.323 122.526 123.16 123.282 123.16C124.01 123.16 124.659 123.319 125.228 123.636C125.797 123.953 126.241 124.401 126.558 124.98C126.875 125.549 127.034 126.207 127.034 126.954ZM125.368 126.45C125.359 125.862 125.149 125.391 124.738 125.036C124.327 124.681 123.819 124.504 123.212 124.504C122.661 124.504 122.19 124.681 121.798 125.036C121.406 125.381 121.173 125.853 121.098 126.45H125.368ZM130.201 124.42C130.471 124.065 130.84 123.767 131.307 123.524C131.773 123.281 132.301 123.16 132.889 123.16C133.561 123.16 134.172 123.328 134.723 123.664C135.283 123.991 135.721 124.453 136.039 125.05C136.356 125.647 136.515 126.333 136.515 127.108C136.515 127.883 136.356 128.578 136.039 129.194C135.721 129.801 135.283 130.277 134.723 130.622C134.172 130.958 133.561 131.126 132.889 131.126C132.301 131.126 131.778 131.009 131.321 130.776C130.863 130.533 130.49 130.235 130.201 129.88V134.668H128.605V123.286H130.201V124.42ZM134.891 127.108C134.891 126.576 134.779 126.119 134.555 125.736C134.34 125.344 134.051 125.05 133.687 124.854C133.332 124.649 132.949 124.546 132.539 124.546C132.137 124.546 131.755 124.649 131.391 124.854C131.036 125.059 130.747 125.358 130.523 125.75C130.308 126.142 130.201 126.604 130.201 127.136C130.201 127.668 130.308 128.135 130.523 128.536C130.747 128.928 131.036 129.227 131.391 129.432C131.755 129.637 132.137 129.74 132.539 129.74C132.949 129.74 133.332 129.637 133.687 129.432C134.051 129.217 134.34 128.909 134.555 128.508C134.779 128.107 134.891 127.64 134.891 127.108ZM141.324 128.872V127.668L146.028 120.92H147.96V127.486H149.262V128.872H147.96V131H146.392V128.872H141.324ZM146.462 122.544L143.158 127.486H146.462V122.544Z" fill="black"/>
<path d="M108.814 190.824H106.33L105.931 192H104.234L106.643 185.342H108.52L110.929 192H109.213L108.814 190.824ZM108.397 189.572L107.572 187.135L106.756 189.572H108.397ZM113.284 187.457C113.442 187.211 113.66 187.011 113.939 186.86C114.217 186.708 114.542 186.632 114.915 186.632C115.352 186.632 115.747 186.743 116.101 186.964C116.455 187.185 116.733 187.501 116.935 187.912C117.144 188.323 117.248 188.801 117.248 189.345C117.248 189.888 117.144 190.369 116.935 190.786C116.733 191.197 116.455 191.516 116.101 191.744C115.747 191.965 115.352 192.076 114.915 192.076C114.549 192.076 114.223 192 113.939 191.848C113.66 191.697 113.442 191.501 113.284 191.26V194.523H111.662V186.708H113.284V187.457ZM115.598 189.345C115.598 188.94 115.484 188.624 115.257 188.396C115.036 188.162 114.76 188.045 114.432 188.045C114.109 188.045 113.834 188.162 113.607 188.396C113.385 188.63 113.275 188.949 113.275 189.354C113.275 189.759 113.385 190.078 113.607 190.312C113.834 190.546 114.109 190.663 114.432 190.663C114.754 190.663 115.029 190.546 115.257 190.312C115.484 190.072 115.598 189.749 115.598 189.345ZM119.721 187.457C119.879 187.211 120.097 187.011 120.375 186.86C120.654 186.708 120.979 186.632 121.352 186.632C121.788 186.632 122.184 186.743 122.538 186.964C122.892 187.185 123.17 187.501 123.372 187.912C123.581 188.323 123.685 188.801 123.685 189.345C123.685 189.888 123.581 190.369 123.372 190.786C123.17 191.197 122.892 191.516 122.538 191.744C122.184 191.965 121.788 192.076 121.352 192.076C120.985 192.076 120.66 192 120.375 191.848C120.097 191.697 119.879 191.501 119.721 191.26V194.523H118.099V186.708H119.721V187.457ZM122.035 189.345C122.035 188.94 121.921 188.624 121.694 188.396C121.472 188.162 121.197 188.045 120.869 188.045C120.546 188.045 120.271 188.162 120.043 188.396C119.822 188.63 119.711 188.949 119.711 189.354C119.711 189.759 119.822 190.078 120.043 190.312C120.271 190.546 120.546 190.663 120.869 190.663C121.191 190.663 121.466 190.546 121.694 190.312C121.921 190.072 122.035 189.749 122.035 189.345ZM126.158 184.982V192H124.536V184.982H126.158ZM132.739 186.708L129.419 194.513H127.674L128.888 191.82L126.736 186.708H128.547L129.77 190.018L130.984 186.708H132.739ZM135.06 188.662C135.06 188.004 135.202 187.419 135.487 186.907C135.771 186.389 136.166 185.987 136.672 185.703C137.184 185.412 137.763 185.266 138.408 185.266C139.198 185.266 139.875 185.475 140.437 185.892C141 186.31 141.376 186.879 141.566 187.599H139.783C139.65 187.321 139.461 187.109 139.214 186.964C138.974 186.819 138.699 186.746 138.389 186.746C137.889 186.746 137.485 186.92 137.175 187.268C136.865 187.615 136.71 188.08 136.71 188.662C136.71 189.243 136.865 189.708 137.175 190.056C137.485 190.404 137.889 190.577 138.389 190.577C138.699 190.577 138.974 190.505 139.214 190.359C139.461 190.214 139.65 190.002 139.783 189.724H141.566C141.376 190.445 141 191.014 140.437 191.431C139.875 191.842 139.198 192.047 138.408 192.047C137.763 192.047 137.184 191.905 136.672 191.621C136.166 191.33 135.771 190.928 135.487 190.416C135.202 189.904 135.06 189.319 135.06 188.662ZM144.968 192.076C144.45 192.076 143.982 191.965 143.564 191.744C143.153 191.523 142.828 191.207 142.588 190.796C142.354 190.385 142.237 189.904 142.237 189.354C142.237 188.81 142.357 188.333 142.597 187.922C142.837 187.505 143.166 187.185 143.583 186.964C144.001 186.743 144.469 186.632 144.987 186.632C145.505 186.632 145.973 186.743 146.391 186.964C146.808 187.185 147.137 187.505 147.377 187.922C147.617 188.333 147.737 188.81 147.737 189.354C147.737 189.898 147.614 190.378 147.367 190.796C147.127 191.207 146.795 191.523 146.372 191.744C145.954 191.965 145.486 192.076 144.968 192.076ZM144.968 190.672C145.278 190.672 145.54 190.558 145.755 190.331C145.976 190.103 146.087 189.778 146.087 189.354C146.087 188.93 145.98 188.605 145.765 188.377C145.556 188.15 145.297 188.036 144.987 188.036C144.671 188.036 144.408 188.15 144.2 188.377C143.991 188.598 143.887 188.924 143.887 189.354C143.887 189.778 143.988 190.103 144.19 190.331C144.399 190.558 144.658 190.672 144.968 190.672ZM153.823 186.708V192H152.202V191.279C152.037 191.513 151.813 191.703 151.528 191.848C151.25 191.987 150.94 192.057 150.599 192.057C150.194 192.057 149.837 191.968 149.527 191.791C149.217 191.608 148.977 191.346 148.806 191.004C148.636 190.663 148.55 190.261 148.55 189.8V186.708H150.163V189.582C150.163 189.936 150.254 190.211 150.438 190.407C150.621 190.603 150.867 190.701 151.177 190.701C151.493 190.701 151.743 190.603 151.927 190.407C152.11 190.211 152.202 189.936 152.202 189.582V186.708H153.823ZM156.61 187.457C156.768 187.211 156.986 187.011 157.264 186.86C157.542 186.708 157.868 186.632 158.241 186.632C158.677 186.632 159.073 186.743 159.427 186.964C159.781 187.185 160.059 187.501 160.261 187.912C160.47 188.323 160.574 188.801 160.574 189.345C160.574 189.888 160.47 190.369 160.261 190.786C160.059 191.197 159.781 191.516 159.427 191.744C159.073 191.965 158.677 192.076 158.241 192.076C157.874 192.076 157.549 192 157.264 191.848C156.986 191.697 156.768 191.501 156.61 191.26V194.523H154.988V186.708H156.61V187.457ZM158.924 189.345C158.924 188.94 158.81 188.624 158.583 188.396C158.361 188.162 158.086 188.045 157.757 188.045C157.435 188.045 157.16 188.162 156.932 188.396C156.711 188.63 156.6 188.949 156.6 189.354C156.6 189.759 156.711 190.078 156.932 190.312C157.16 190.546 157.435 190.663 157.757 190.663C158.08 190.663 158.355 190.546 158.583 190.312C158.81 190.072 158.924 189.749 158.924 189.345ZM163.834 192.076C163.315 192.076 162.848 191.965 162.43 191.744C162.019 191.523 161.694 191.207 161.453 190.796C161.219 190.385 161.103 189.904 161.103 189.354C161.103 188.81 161.223 188.333 161.463 187.922C161.703 187.505 162.032 187.185 162.449 186.964C162.867 186.743 163.334 186.632 163.853 186.632C164.371 186.632 164.839 186.743 165.256 186.964C165.674 187.185 166.003 187.505 166.243 187.922C166.483 188.333 166.603 188.81 166.603 189.354C166.603 189.898 166.48 190.378 166.233 190.796C165.993 191.207 165.661 191.523 165.237 191.744C164.82 191.965 164.352 192.076 163.834 192.076ZM163.834 190.672C164.144 190.672 164.406 190.558 164.621 190.331C164.842 190.103 164.953 189.778 164.953 189.354C164.953 188.93 164.845 188.605 164.631 188.377C164.422 188.15 164.163 188.036 163.853 188.036C163.537 188.036 163.274 188.15 163.066 188.377C162.857 188.598 162.753 188.924 162.753 189.354C162.753 189.778 162.854 190.103 163.056 190.331C163.265 190.558 163.524 190.672 163.834 190.672ZM170.688 186.651C171.308 186.651 171.801 186.853 172.168 187.258C172.541 187.656 172.727 188.206 172.727 188.908V192H171.115V189.126C171.115 188.772 171.023 188.497 170.84 188.301C170.656 188.105 170.41 188.007 170.1 188.007C169.79 188.007 169.544 188.105 169.36 188.301C169.177 188.497 169.085 188.772 169.085 189.126V192H167.464V186.708H169.085V187.41C169.25 187.176 169.471 186.993 169.749 186.86C170.027 186.721 170.34 186.651 170.688 186.651Z" fill="#2E2C43"/>
<path d="M178.894 272.114H176.409L176.011 273.29H174.313L176.722 266.633H178.6L181.009 273.29H179.292L178.894 272.114ZM178.477 270.862L177.651 268.425L176.836 270.862H178.477ZM183.364 268.748C183.522 268.501 183.74 268.302 184.018 268.15C184.296 267.998 184.622 267.922 184.995 267.922C185.431 267.922 185.826 268.033 186.18 268.254C186.534 268.476 186.813 268.792 187.015 269.203C187.224 269.614 187.328 270.091 187.328 270.635C187.328 271.179 187.224 271.659 187.015 272.076C186.813 272.487 186.534 272.807 186.18 273.034C185.826 273.256 185.431 273.366 184.995 273.366C184.628 273.366 184.303 273.29 184.018 273.139C183.74 272.987 183.522 272.791 183.364 272.551V275.813H181.742V267.998H183.364V268.748ZM185.678 270.635C185.678 270.23 185.564 269.914 185.336 269.686C185.115 269.452 184.84 269.336 184.511 269.336C184.189 269.336 183.914 269.452 183.686 269.686C183.465 269.92 183.354 270.24 183.354 270.644C183.354 271.049 183.465 271.368 183.686 271.602C183.914 271.836 184.189 271.953 184.511 271.953C184.834 271.953 185.109 271.836 185.336 271.602C185.564 271.362 185.678 271.039 185.678 270.635ZM189.8 268.748C189.958 268.501 190.177 268.302 190.455 268.15C190.733 267.998 191.059 267.922 191.432 267.922C191.868 267.922 192.263 268.033 192.617 268.254C192.971 268.476 193.249 268.792 193.452 269.203C193.66 269.614 193.765 270.091 193.765 270.635C193.765 271.179 193.66 271.659 193.452 272.076C193.249 272.487 192.971 272.807 192.617 273.034C192.263 273.256 191.868 273.366 191.432 273.366C191.065 273.366 190.739 273.29 190.455 273.139C190.177 272.987 189.958 272.791 189.8 272.551V275.813H188.179V267.998H189.8V268.748ZM192.114 270.635C192.114 270.23 192.001 269.914 191.773 269.686C191.552 269.452 191.277 269.336 190.948 269.336C190.626 269.336 190.35 269.452 190.123 269.686C189.902 269.92 189.791 270.24 189.791 270.644C189.791 271.049 189.902 271.368 190.123 271.602C190.35 271.836 190.626 271.953 190.948 271.953C191.27 271.953 191.545 271.836 191.773 271.602C192.001 271.362 192.114 271.039 192.114 270.635ZM196.237 266.272V273.29H194.615V266.272H196.237ZM202.818 267.998L199.499 275.804H197.754L198.968 273.11L196.815 267.998H198.626L199.85 271.308L201.064 267.998H202.818ZM207.149 269.952C207.149 269.294 207.291 268.71 207.576 268.197C207.861 267.679 208.256 267.278 208.761 266.993C209.274 266.702 209.852 266.557 210.497 266.557C211.287 266.557 211.964 266.765 212.527 267.183C213.089 267.6 213.466 268.169 213.655 268.89H211.872C211.739 268.612 211.55 268.4 211.303 268.254C211.063 268.109 210.788 268.036 210.478 268.036C209.979 268.036 209.574 268.21 209.264 268.558C208.954 268.906 208.799 269.37 208.799 269.952C208.799 270.534 208.954 270.998 209.264 271.346C209.574 271.694 209.979 271.868 210.478 271.868C210.788 271.868 211.063 271.795 211.303 271.65C211.55 271.504 211.739 271.292 211.872 271.014H213.655C213.466 271.735 213.089 272.304 212.527 272.721C211.964 273.132 211.287 273.338 210.497 273.338C209.852 273.338 209.274 273.195 208.761 272.911C208.256 272.62 207.861 272.219 207.576 271.706C207.291 271.194 207.149 270.61 207.149 269.952ZM217.057 273.366C216.539 273.366 216.071 273.256 215.654 273.034C215.243 272.813 214.917 272.497 214.677 272.086C214.443 271.675 214.326 271.194 214.326 270.644C214.326 270.101 214.446 269.623 214.686 269.212C214.927 268.795 215.255 268.476 215.673 268.254C216.09 268.033 216.558 267.922 217.076 267.922C217.595 267.922 218.063 268.033 218.48 268.254C218.897 268.476 219.226 268.795 219.466 269.212C219.706 269.623 219.827 270.101 219.827 270.644C219.827 271.188 219.703 271.669 219.457 272.086C219.216 272.497 218.884 272.813 218.461 273.034C218.044 273.256 217.576 273.366 217.057 273.366ZM217.057 271.963C217.367 271.963 217.629 271.849 217.844 271.621C218.066 271.394 218.176 271.068 218.176 270.644C218.176 270.221 218.069 269.895 217.854 269.667C217.645 269.44 217.386 269.326 217.076 269.326C216.76 269.326 216.498 269.44 216.289 269.667C216.08 269.889 215.976 270.214 215.976 270.644C215.976 271.068 216.077 271.394 216.28 271.621C216.488 271.849 216.747 271.963 217.057 271.963ZM225.912 267.998V273.29H224.291V272.57C224.126 272.803 223.902 272.993 223.617 273.139C223.339 273.278 223.029 273.347 222.688 273.347C222.283 273.347 221.926 273.259 221.616 273.082C221.306 272.898 221.066 272.636 220.896 272.294C220.725 271.953 220.639 271.552 220.639 271.09V267.998H222.252V270.872C222.252 271.226 222.343 271.501 222.527 271.697C222.71 271.893 222.957 271.991 223.266 271.991C223.583 271.991 223.832 271.893 224.016 271.697C224.199 271.501 224.291 271.226 224.291 270.872V267.998H225.912ZM228.699 268.748C228.857 268.501 229.075 268.302 229.354 268.15C229.632 267.998 229.957 267.922 230.33 267.922C230.767 267.922 231.162 268.033 231.516 268.254C231.87 268.476 232.148 268.792 232.35 269.203C232.559 269.614 232.663 270.091 232.663 270.635C232.663 271.179 232.559 271.659 232.35 272.076C232.148 272.487 231.87 272.807 231.516 273.034C231.162 273.256 230.767 273.366 230.33 273.366C229.964 273.366 229.638 273.29 229.354 273.139C229.075 272.987 228.857 272.791 228.699 272.551V275.813H227.077V267.998H228.699V268.748ZM231.013 270.635C231.013 270.23 230.899 269.914 230.672 269.686C230.45 269.452 230.175 269.336 229.847 269.336C229.524 269.336 229.249 269.452 229.022 269.686C228.8 269.92 228.69 270.24 228.69 270.644C228.69 271.049 228.8 271.368 229.022 271.602C229.249 271.836 229.524 271.953 229.847 271.953C230.169 271.953 230.444 271.836 230.672 271.602C230.899 271.362 231.013 271.039 231.013 270.635ZM235.923 273.366C235.405 273.366 234.937 273.256 234.519 273.034C234.109 272.813 233.783 272.497 233.543 272.086C233.309 271.675 233.192 271.194 233.192 270.644C233.192 270.101 233.312 269.623 233.552 269.212C233.792 268.795 234.121 268.476 234.538 268.254C234.956 268.033 235.424 267.922 235.942 267.922C236.461 267.922 236.928 268.033 237.346 268.254C237.763 268.476 238.092 268.795 238.332 269.212C238.572 269.623 238.692 270.101 238.692 270.644C238.692 271.188 238.569 271.669 238.323 272.086C238.082 272.497 237.75 272.813 237.327 273.034C236.909 273.256 236.442 273.366 235.923 273.366ZM235.923 271.963C236.233 271.963 236.495 271.849 236.71 271.621C236.932 271.394 237.042 271.068 237.042 270.644C237.042 270.221 236.935 269.895 236.72 269.667C236.511 269.44 236.252 269.326 235.942 269.326C235.626 269.326 235.364 269.44 235.155 269.667C234.946 269.889 234.842 270.214 234.842 270.644C234.842 271.068 234.943 271.394 235.145 271.621C235.354 271.849 235.613 271.963 235.923 271.963ZM242.777 267.941C243.397 267.941 243.89 268.144 244.257 268.548C244.63 268.947 244.816 269.497 244.816 270.199V273.29H243.204V270.417C243.204 270.063 243.112 269.788 242.929 269.592C242.746 269.396 242.499 269.298 242.189 269.298C241.879 269.298 241.633 269.396 241.45 269.592C241.266 269.788 241.175 270.063 241.175 270.417V273.29H239.553V267.998H241.175V268.7C241.339 268.466 241.56 268.283 241.838 268.15C242.117 268.011 242.43 267.941 242.777 267.941Z" fill="#FB8C00"/>
<rect x="101" y="200.968" width="219.484" height="36.5807" rx="10.8387" fill="#FFC882" fill-opacity="0.44"/>
<rect x="101.169" y="201.137" width="219.145" height="36.242" rx="10.6694" stroke="#2E2C43" stroke-opacity="0.1" stroke-width="0.33871"/>
<path d="M183.385 215.864V216.936H181.621V222.484H180.293V216.936H178.529V215.864H183.385ZM189.38 217.23L186.127 224.969H184.714L185.852 222.351L183.747 217.23H185.236L186.592 220.9L187.967 217.23H189.38ZM191.424 217.989C191.594 217.748 191.828 217.549 192.126 217.391C192.429 217.227 192.774 217.144 193.159 217.144C193.608 217.144 194.013 217.255 194.373 217.476C194.74 217.698 195.028 218.014 195.236 218.425C195.451 218.829 195.559 219.3 195.559 219.838C195.559 220.375 195.451 220.853 195.236 221.27C195.028 221.681 194.74 222 194.373 222.228C194.013 222.455 193.608 222.569 193.159 222.569C192.774 222.569 192.432 222.49 192.135 222.332C191.844 222.174 191.607 221.975 191.424 221.735V224.988H190.096V217.23H191.424V217.989ZM194.203 219.838C194.203 219.522 194.136 219.25 194.003 219.022C193.877 218.788 193.706 218.611 193.491 218.491C193.283 218.371 193.055 218.311 192.808 218.311C192.568 218.311 192.341 218.374 192.126 218.501C191.917 218.621 191.746 218.798 191.613 219.032C191.487 219.266 191.424 219.541 191.424 219.857C191.424 220.173 191.487 220.448 191.613 220.682C191.746 220.916 191.917 221.096 192.126 221.223C192.341 221.343 192.568 221.403 192.808 221.403C193.055 221.403 193.283 221.339 193.491 221.213C193.706 221.087 193.877 220.906 194.003 220.672C194.136 220.439 194.203 220.16 194.203 219.838ZM201.408 219.743C201.408 219.933 201.395 220.103 201.37 220.255H197.529C197.561 220.635 197.693 220.932 197.927 221.147C198.161 221.362 198.449 221.469 198.79 221.469C199.283 221.469 199.634 221.257 199.843 220.834H201.275C201.123 221.339 200.832 221.757 200.403 222.086C199.973 222.408 199.445 222.569 198.819 222.569C198.313 222.569 197.858 222.459 197.453 222.237C197.055 222.01 196.742 221.69 196.514 221.279C196.293 220.868 196.182 220.394 196.182 219.857C196.182 219.313 196.293 218.836 196.514 218.425C196.735 218.014 197.045 217.698 197.444 217.476C197.842 217.255 198.3 217.144 198.819 217.144C199.318 217.144 199.764 217.252 200.156 217.467C200.554 217.682 200.861 217.989 201.076 218.387C201.297 218.779 201.408 219.231 201.408 219.743ZM200.033 219.364C200.026 219.022 199.903 218.75 199.663 218.548C199.423 218.339 199.129 218.235 198.781 218.235C198.452 218.235 198.174 218.336 197.946 218.539C197.725 218.735 197.589 219.01 197.538 219.364H200.033ZM207.596 217.154C207.994 217.154 208.348 217.242 208.658 217.419C208.968 217.59 209.208 217.846 209.379 218.188C209.556 218.523 209.644 218.927 209.644 219.402V222.484H208.317V219.582C208.317 219.165 208.212 218.845 208.004 218.624C207.795 218.396 207.51 218.283 207.15 218.283C206.783 218.283 206.492 218.396 206.277 218.624C206.069 218.845 205.965 219.165 205.965 219.582V222.484H204.637V215.466H205.965V217.884C206.135 217.657 206.363 217.48 206.647 217.353C206.932 217.22 207.248 217.154 207.596 217.154ZM215.791 219.743C215.791 219.933 215.778 220.103 215.753 220.255H211.912C211.944 220.635 212.077 220.932 212.31 221.147C212.544 221.362 212.832 221.469 213.174 221.469C213.667 221.469 214.018 221.257 214.226 220.834H215.658C215.507 221.339 215.216 221.757 214.786 222.086C214.356 222.408 213.828 222.569 213.202 222.569C212.696 222.569 212.241 222.459 211.836 222.237C211.438 222.01 211.125 221.69 210.897 221.279C210.676 220.868 210.565 220.394 210.565 219.857C210.565 219.313 210.676 218.836 210.897 218.425C211.119 218.014 211.428 217.698 211.827 217.476C212.225 217.255 212.684 217.144 213.202 217.144C213.701 217.144 214.147 217.252 214.539 217.467C214.938 217.682 215.244 217.989 215.459 218.387C215.68 218.779 215.791 219.231 215.791 219.743ZM214.416 219.364C214.41 219.022 214.286 218.75 214.046 218.548C213.806 218.339 213.512 218.235 213.164 218.235C212.835 218.235 212.557 218.336 212.329 218.539C212.108 218.735 211.972 219.01 211.922 219.364H214.416ZM218.088 218.045C218.259 217.767 218.48 217.549 218.752 217.391C219.03 217.233 219.346 217.154 219.7 217.154V218.548H219.349C218.932 218.548 218.616 218.646 218.401 218.842C218.192 219.038 218.088 219.379 218.088 219.866V222.484H216.76V217.23H218.088V218.045ZM225.479 219.743C225.479 219.933 225.466 220.103 225.441 220.255H221.6C221.631 220.635 221.764 220.932 221.998 221.147C222.232 221.362 222.52 221.469 222.861 221.469C223.354 221.469 223.705 221.257 223.914 220.834H225.346C225.194 221.339 224.903 221.757 224.473 222.086C224.043 222.408 223.516 222.569 222.89 222.569C222.384 222.569 221.929 222.459 221.524 222.237C221.126 222.01 220.813 221.69 220.585 221.279C220.364 220.868 220.253 220.394 220.253 219.857C220.253 219.313 220.364 218.836 220.585 218.425C220.806 218.014 221.116 217.698 221.514 217.476C221.913 217.255 222.371 217.144 222.89 217.144C223.389 217.144 223.835 217.252 224.227 217.467C224.625 217.682 224.932 217.989 225.147 218.387C225.368 218.779 225.479 219.231 225.479 219.743ZM224.104 219.364C224.097 219.022 223.974 218.75 223.734 218.548C223.493 218.339 223.199 218.235 222.852 218.235C222.523 218.235 222.245 218.336 222.017 218.539C221.796 218.735 221.66 219.01 221.609 219.364H224.104ZM227.036 222.55C226.796 222.55 226.596 222.478 226.438 222.332C226.287 222.18 226.211 221.994 226.211 221.773C226.211 221.551 226.287 221.368 226.438 221.223C226.596 221.071 226.796 220.995 227.036 220.995C227.27 220.995 227.463 221.071 227.614 221.223C227.766 221.368 227.842 221.551 227.842 221.773C227.842 221.994 227.766 222.18 227.614 222.332C227.463 222.478 227.27 222.55 227.036 222.55ZM229.499 222.55C229.259 222.55 229.06 222.478 228.902 222.332C228.75 222.18 228.674 221.994 228.674 221.773C228.674 221.551 228.75 221.368 228.902 221.223C229.06 221.071 229.259 220.995 229.499 220.995C229.733 220.995 229.926 221.071 230.078 221.223C230.23 221.368 230.306 221.551 230.306 221.773C230.306 221.994 230.23 222.18 230.078 222.332C229.926 222.478 229.733 222.55 229.499 222.55ZM231.963 222.55C231.723 222.55 231.524 222.478 231.366 222.332C231.214 222.18 231.138 221.994 231.138 221.773C231.138 221.551 231.214 221.368 231.366 221.223C231.524 221.071 231.723 220.995 231.963 220.995C232.197 220.995 232.39 221.071 232.542 221.223C232.693 221.368 232.769 221.551 232.769 221.773C232.769 221.994 232.693 222.18 232.542 222.332C232.39 222.478 232.197 222.55 231.963 222.55ZM234.427 222.55C234.186 222.55 233.987 222.478 233.829 222.332C233.677 222.18 233.601 221.994 233.601 221.773C233.601 221.551 233.677 221.368 233.829 221.223C233.987 221.071 234.186 220.995 234.427 220.995C234.661 220.995 234.853 221.071 235.005 221.223C235.157 221.368 235.233 221.551 235.233 221.773C235.233 221.994 235.157 222.18 235.005 222.332C234.853 222.478 234.661 222.55 234.427 222.55ZM236.89 222.55C236.65 222.55 236.451 222.478 236.293 222.332C236.141 222.18 236.065 221.994 236.065 221.773C236.065 221.551 236.141 221.368 236.293 221.223C236.451 221.071 236.65 220.995 236.89 220.995C237.124 220.995 237.317 221.071 237.469 221.223C237.62 221.368 237.696 221.551 237.696 221.773C237.696 221.994 237.62 222.18 237.469 222.332C237.317 222.478 237.124 222.55 236.89 222.55Z" fill="#558B2F"/>
<rect x="104.726" y="254.145" width="212.71" height="32.5162" stroke="#FB8C00" stroke-width="0.67742"/>
<defs>
<filter id="filter0_d_1165_5" x="0.876953" y="0.88501" width="399.384" height="528.651" filterUnits="userSpaceOnUse" color-interpolation-filters="sRGB">
<feFlood flood-opacity="0" result="BackgroundImageFix"/>
<feColorMatrix in="SourceAlpha" type="matrix" values="0 0 0 0 0 0 0 0 0 0 0 0 0 0 0 0 0 0 127 0" result="hardAlpha"/>
<feOffset dx="10" dy="10"/>
<feGaussianBlur stdDeviation="50"/>
<feComposite in2="hardAlpha" operator="out"/>
<feColorMatrix type="matrix" values="0 0 0 0 0.741667 0 0 0 0 0.741667 0 0 0 0 0.741667 0 0 0 0.35 0"/>
<feBlend mode="normal" in2="BackgroundImageFix" result="effect1_dropShadow_1165_5"/>
<feBlend mode="normal" in="SourceGraphic" in2="effect1_dropShadow_1165_5" result="shape"/>
</filter>
</defs>
</svg>
