<svg width="273" height="343" viewBox="0 0 273 343" fill="none" xmlns="http://www.w3.org/2000/svg">
<rect width="272.127" height="343" rx="24" fill="white"/>
<path d="M51.7755 260.27V261.572H49.1855V270H47.5895V261.572H44.9855V260.27H51.7755ZM60.3358 262.286L55.6038 273.626H53.9518L55.5198 269.874L52.4818 262.286H54.2598L56.4298 268.166L58.6838 262.286H60.3358ZM63.1362 263.42C63.4069 263.065 63.7756 262.767 64.2422 262.524C64.7089 262.281 65.2362 262.16 65.8242 262.16C66.4962 262.16 67.1076 262.328 67.6582 262.664C68.2182 262.991 68.6569 263.453 68.9742 264.05C69.2916 264.647 69.4502 265.333 69.4502 266.108C69.4502 266.883 69.2916 267.578 68.9742 268.194C68.6569 268.801 68.2182 269.277 67.6582 269.622C67.1076 269.958 66.4962 270.126 65.8242 270.126C65.2362 270.126 64.7136 270.009 64.2562 269.776C63.7989 269.533 63.4256 269.235 63.1362 268.88V273.668H61.5402V262.286H63.1362V263.42ZM67.8262 266.108C67.8262 265.576 67.7142 265.119 67.4902 264.736C67.2756 264.344 66.9862 264.05 66.6222 263.854C66.2676 263.649 65.8849 263.546 65.4742 263.546C65.0729 263.546 64.6902 263.649 64.3262 263.854C63.9716 264.059 63.6822 264.358 63.4582 264.75C63.2436 265.142 63.1362 265.604 63.1362 266.136C63.1362 266.668 63.2436 267.135 63.4582 267.536C63.6822 267.928 63.9716 268.227 64.3262 268.432C64.6902 268.637 65.0729 268.74 65.4742 268.74C65.8849 268.74 66.2676 268.637 66.6222 268.432C66.9862 268.217 67.2756 267.909 67.4902 267.508C67.7142 267.107 67.8262 266.64 67.8262 266.108ZM78.0985 265.954C78.0985 266.243 78.0798 266.505 78.0425 266.738H72.1485C72.1952 267.354 72.4238 267.849 72.8345 268.222C73.2452 268.595 73.7492 268.782 74.3465 268.782C75.2052 268.782 75.8118 268.423 76.1665 267.704H77.8885C77.6552 268.413 77.2305 268.997 76.6145 269.454C76.0078 269.902 75.2518 270.126 74.3465 270.126C73.6092 270.126 72.9465 269.963 72.3585 269.636C71.7798 269.3 71.3225 268.833 70.9865 268.236C70.6598 267.629 70.4965 266.929 70.4965 266.136C70.4965 265.343 70.6552 264.647 70.9725 264.05C71.2992 263.443 71.7518 262.977 72.3305 262.65C72.9185 262.323 73.5905 262.16 74.3465 262.16C75.0745 262.16 75.7232 262.319 76.2925 262.636C76.8618 262.953 77.3052 263.401 77.6225 263.98C77.9398 264.549 78.0985 265.207 78.0985 265.954ZM76.4325 265.45C76.4232 264.862 76.2132 264.391 75.8025 264.036C75.3918 263.681 74.8832 263.504 74.2765 263.504C73.7258 263.504 73.2545 263.681 72.8625 264.036C72.4705 264.381 72.2372 264.853 72.1625 265.45H76.4325ZM90.2499 262.286L85.5179 273.626H83.8659L85.4339 269.874L82.3959 262.286H84.1739L86.3439 268.166L88.5979 262.286H90.2499ZM94.8003 270.126C94.0723 270.126 93.4143 269.963 92.8263 269.636C92.2383 269.3 91.7763 268.833 91.4403 268.236C91.1043 267.629 90.9363 266.929 90.9363 266.136C90.9363 265.352 91.109 264.657 91.4543 264.05C91.7996 263.443 92.271 262.977 92.8683 262.65C93.4656 262.323 94.133 262.16 94.8703 262.16C95.6076 262.16 96.275 262.323 96.8723 262.65C97.4696 262.977 97.941 263.443 98.2863 264.05C98.6316 264.657 98.8043 265.352 98.8043 266.136C98.8043 266.92 98.627 267.615 98.2723 268.222C97.9176 268.829 97.4323 269.3 96.8163 269.636C96.2096 269.963 95.5376 270.126 94.8003 270.126ZM94.8003 268.74C95.211 268.74 95.5936 268.642 95.9483 268.446C96.3123 268.25 96.6063 267.956 96.8303 267.564C97.0543 267.172 97.1663 266.696 97.1663 266.136C97.1663 265.576 97.059 265.105 96.8443 264.722C96.6296 264.33 96.345 264.036 95.9903 263.84C95.6356 263.644 95.253 263.546 94.8423 263.546C94.4316 263.546 94.049 263.644 93.6943 263.84C93.349 264.036 93.0736 264.33 92.8683 264.722C92.663 265.105 92.5603 265.576 92.5603 266.136C92.5603 266.967 92.7703 267.611 93.1903 268.068C93.6196 268.516 94.1563 268.74 94.8003 268.74ZM107.368 262.286V270H105.772V269.09C105.52 269.407 105.189 269.659 104.778 269.846C104.377 270.023 103.947 270.112 103.49 270.112C102.883 270.112 102.337 269.986 101.852 269.734C101.376 269.482 100.998 269.109 100.718 268.614C100.447 268.119 100.312 267.522 100.312 266.822V262.286H101.894V266.584C101.894 267.275 102.067 267.807 102.412 268.18C102.757 268.544 103.229 268.726 103.826 268.726C104.423 268.726 104.895 268.544 105.24 268.18C105.595 267.807 105.772 267.275 105.772 266.584V262.286H107.368ZM111.07 263.406C111.303 263.014 111.611 262.711 111.994 262.496C112.386 262.272 112.848 262.16 113.38 262.16V263.812H112.974C112.348 263.812 111.872 263.971 111.546 264.288C111.228 264.605 111.07 265.156 111.07 265.94V270H109.474V262.286H111.07V263.406ZM121.284 270.126C120.677 270.126 120.131 270.019 119.646 269.804C119.17 269.58 118.792 269.281 118.512 268.908C118.232 268.525 118.082 268.101 118.064 267.634H119.716C119.744 267.961 119.898 268.236 120.178 268.46C120.467 268.675 120.826 268.782 121.256 268.782C121.704 268.782 122.049 268.698 122.292 268.53C122.544 268.353 122.67 268.129 122.67 267.858C122.67 267.569 122.53 267.354 122.25 267.214C121.979 267.074 121.545 266.92 120.948 266.752C120.369 266.593 119.898 266.439 119.534 266.29C119.17 266.141 118.852 265.912 118.582 265.604C118.32 265.296 118.19 264.89 118.19 264.386C118.19 263.975 118.311 263.602 118.554 263.266C118.796 262.921 119.142 262.65 119.59 262.454C120.047 262.258 120.57 262.16 121.158 262.16C122.035 262.16 122.74 262.384 123.272 262.832C123.813 263.271 124.102 263.873 124.14 264.638H122.544C122.516 264.293 122.376 264.017 122.124 263.812C121.872 263.607 121.531 263.504 121.102 263.504C120.682 263.504 120.36 263.583 120.136 263.742C119.912 263.901 119.8 264.111 119.8 264.372C119.8 264.577 119.874 264.75 120.024 264.89C120.173 265.03 120.355 265.142 120.57 265.226C120.784 265.301 121.102 265.399 121.522 265.52C122.082 265.669 122.539 265.823 122.894 265.982C123.258 266.131 123.57 266.355 123.832 266.654C124.093 266.953 124.228 267.349 124.238 267.844C124.238 268.283 124.116 268.675 123.874 269.02C123.631 269.365 123.286 269.636 122.838 269.832C122.399 270.028 121.881 270.126 121.284 270.126ZM127.558 263.42C127.829 263.065 128.197 262.767 128.664 262.524C129.131 262.281 129.658 262.16 130.246 262.16C130.918 262.16 131.529 262.328 132.08 262.664C132.64 262.991 133.079 263.453 133.396 264.05C133.713 264.647 133.872 265.333 133.872 266.108C133.872 266.883 133.713 267.578 133.396 268.194C133.079 268.801 132.64 269.277 132.08 269.622C131.529 269.958 130.918 270.126 130.246 270.126C129.658 270.126 129.135 270.009 128.678 269.776C128.221 269.533 127.847 269.235 127.558 268.88V273.668H125.962V262.286H127.558V263.42ZM132.248 266.108C132.248 265.576 132.136 265.119 131.912 264.736C131.697 264.344 131.408 264.05 131.044 263.854C130.689 263.649 130.307 263.546 129.896 263.546C129.495 263.546 129.112 263.649 128.748 263.854C128.393 264.059 128.104 264.358 127.88 264.75C127.665 265.142 127.558 265.604 127.558 266.136C127.558 266.668 127.665 267.135 127.88 267.536C128.104 267.928 128.393 268.227 128.748 268.432C129.112 268.637 129.495 268.74 129.896 268.74C130.307 268.74 130.689 268.637 131.044 268.432C131.408 268.217 131.697 267.909 131.912 267.508C132.136 267.107 132.248 266.64 132.248 266.108ZM134.918 266.108C134.918 265.333 135.077 264.647 135.394 264.05C135.721 263.453 136.16 262.991 136.71 262.664C137.27 262.328 137.886 262.16 138.558 262.16C139.165 262.16 139.692 262.281 140.14 262.524C140.598 262.757 140.962 263.051 141.232 263.406V262.286H142.842V270H141.232V268.852C140.962 269.216 140.593 269.519 140.126 269.762C139.66 270.005 139.128 270.126 138.53 270.126C137.868 270.126 137.261 269.958 136.71 269.622C136.16 269.277 135.721 268.801 135.394 268.194C135.077 267.578 134.918 266.883 134.918 266.108ZM141.232 266.136C141.232 265.604 141.12 265.142 140.896 264.75C140.682 264.358 140.397 264.059 140.042 263.854C139.688 263.649 139.305 263.546 138.894 263.546C138.484 263.546 138.101 263.649 137.746 263.854C137.392 264.05 137.102 264.344 136.878 264.736C136.664 265.119 136.556 265.576 136.556 266.108C136.556 266.64 136.664 267.107 136.878 267.508C137.102 267.909 137.392 268.217 137.746 268.432C138.11 268.637 138.493 268.74 138.894 268.74C139.305 268.74 139.688 268.637 140.042 268.432C140.397 268.227 140.682 267.928 140.896 267.536C141.12 267.135 141.232 266.668 141.232 266.136ZM144.407 266.108C144.407 265.333 144.565 264.647 144.883 264.05C145.209 263.453 145.648 262.991 146.199 262.664C146.759 262.328 147.379 262.16 148.061 262.16C148.565 262.16 149.059 262.272 149.545 262.496C150.039 262.711 150.431 263 150.721 263.364V259.64H152.331V270H150.721V268.838C150.459 269.211 150.095 269.519 149.629 269.762C149.171 270.005 148.644 270.126 148.047 270.126C147.375 270.126 146.759 269.958 146.199 269.622C145.648 269.277 145.209 268.801 144.883 268.194C144.565 267.578 144.407 266.883 144.407 266.108ZM150.721 266.136C150.721 265.604 150.609 265.142 150.385 264.75C150.17 264.358 149.885 264.059 149.531 263.854C149.176 263.649 148.793 263.546 148.383 263.546C147.972 263.546 147.589 263.649 147.235 263.854C146.88 264.05 146.591 264.344 146.367 264.736C146.152 265.119 146.045 265.576 146.045 266.108C146.045 266.64 146.152 267.107 146.367 267.508C146.591 267.909 146.88 268.217 147.235 268.432C147.599 268.637 147.981 268.74 148.383 268.74C148.793 268.74 149.176 268.637 149.531 268.432C149.885 268.227 150.17 267.928 150.385 267.536C150.609 267.135 150.721 266.668 150.721 266.136ZM161.497 265.954C161.497 266.243 161.478 266.505 161.441 266.738H155.547C155.594 267.354 155.822 267.849 156.233 268.222C156.644 268.595 157.148 268.782 157.745 268.782C158.604 268.782 159.21 268.423 159.565 267.704H161.287C161.054 268.413 160.629 268.997 160.013 269.454C159.406 269.902 158.65 270.126 157.745 270.126C157.008 270.126 156.345 269.963 155.757 269.636C155.178 269.3 154.721 268.833 154.385 268.236C154.058 267.629 153.895 266.929 153.895 266.136C153.895 265.343 154.054 264.647 154.371 264.05C154.698 263.443 155.15 262.977 155.729 262.65C156.317 262.323 156.989 262.16 157.745 262.16C158.473 262.16 159.122 262.319 159.691 262.636C160.26 262.953 160.704 263.401 161.021 263.98C161.338 264.549 161.497 265.207 161.497 265.954ZM159.831 265.45C159.822 264.862 159.612 264.391 159.201 264.036C158.79 263.681 158.282 263.504 157.675 263.504C157.124 263.504 156.653 263.681 156.261 264.036C155.869 264.381 155.636 264.853 155.561 265.45H159.831ZM165.868 270.126C165.261 270.126 164.715 270.019 164.23 269.804C163.754 269.58 163.376 269.281 163.096 268.908C162.816 268.525 162.666 268.101 162.648 267.634H164.3C164.328 267.961 164.482 268.236 164.762 268.46C165.051 268.675 165.41 268.782 165.84 268.782C166.288 268.782 166.633 268.698 166.876 268.53C167.128 268.353 167.254 268.129 167.254 267.858C167.254 267.569 167.114 267.354 166.834 267.214C166.563 267.074 166.129 266.92 165.532 266.752C164.953 266.593 164.482 266.439 164.118 266.29C163.754 266.141 163.436 265.912 163.166 265.604C162.904 265.296 162.774 264.89 162.774 264.386C162.774 263.975 162.895 263.602 163.138 263.266C163.38 262.921 163.726 262.65 164.174 262.454C164.631 262.258 165.154 262.16 165.742 262.16C166.619 262.16 167.324 262.384 167.856 262.832C168.397 263.271 168.686 263.873 168.724 264.638H167.128C167.1 264.293 166.96 264.017 166.708 263.812C166.456 263.607 166.115 263.504 165.686 263.504C165.266 263.504 164.944 263.583 164.72 263.742C164.496 263.901 164.384 264.111 164.384 264.372C164.384 264.577 164.458 264.75 164.608 264.89C164.757 265.03 164.939 265.142 165.154 265.226C165.368 265.301 165.686 265.399 166.106 265.52C166.666 265.669 167.123 265.823 167.478 265.982C167.842 266.131 168.154 266.355 168.416 266.654C168.677 266.953 168.812 267.349 168.822 267.844C168.822 268.283 168.7 268.675 168.458 269.02C168.215 269.365 167.87 269.636 167.422 269.832C166.983 270.028 166.465 270.126 165.868 270.126ZM173.651 266.136C173.651 265.343 173.809 264.647 174.127 264.05C174.453 263.443 174.901 262.977 175.471 262.65C176.04 262.323 176.693 262.16 177.431 262.16C178.364 262.16 179.134 262.384 179.741 262.832C180.357 263.271 180.772 263.901 180.987 264.722H179.265C179.125 264.339 178.901 264.041 178.593 263.826C178.285 263.611 177.897 263.504 177.431 263.504C176.777 263.504 176.255 263.737 175.863 264.204C175.48 264.661 175.289 265.305 175.289 266.136C175.289 266.967 175.48 267.615 175.863 268.082C176.255 268.549 176.777 268.782 177.431 268.782C178.355 268.782 178.966 268.376 179.265 267.564H180.987C180.763 268.348 180.343 268.973 179.727 269.44C179.111 269.897 178.345 270.126 177.431 270.126C176.693 270.126 176.04 269.963 175.471 269.636C174.901 269.3 174.453 268.833 174.127 268.236C173.809 267.629 173.651 266.929 173.651 266.136ZM184.173 259.64V270H182.577V259.64H184.173ZM193.339 265.954C193.339 266.243 193.32 266.505 193.283 266.738H187.389C187.435 267.354 187.664 267.849 188.075 268.222C188.485 268.595 188.989 268.782 189.587 268.782C190.445 268.782 191.052 268.423 191.407 267.704H193.129C192.895 268.413 192.471 268.997 191.855 269.454C191.248 269.902 190.492 270.126 189.587 270.126C188.849 270.126 188.187 269.963 187.599 269.636C187.02 269.3 186.563 268.833 186.227 268.236C185.9 267.629 185.737 266.929 185.737 266.136C185.737 265.343 185.895 264.647 186.213 264.05C186.539 263.443 186.992 262.977 187.571 262.65C188.159 262.323 188.831 262.16 189.587 262.16C190.315 262.16 190.963 262.319 191.533 262.636C192.102 262.953 192.545 263.401 192.863 263.98C193.18 264.549 193.339 265.207 193.339 265.954ZM191.673 265.45C191.663 264.862 191.453 264.391 191.043 264.036C190.632 263.681 190.123 263.504 189.517 263.504C188.966 263.504 188.495 263.681 188.103 264.036C187.711 264.381 187.477 264.853 187.403 265.45H191.673ZM194.377 266.108C194.377 265.333 194.536 264.647 194.853 264.05C195.18 263.453 195.619 262.991 196.169 262.664C196.729 262.328 197.345 262.16 198.017 262.16C198.624 262.16 199.151 262.281 199.599 262.524C200.057 262.757 200.421 263.051 200.691 263.406V262.286H202.301V270H200.691V268.852C200.421 269.216 200.052 269.519 199.585 269.762C199.119 270.005 198.587 270.126 197.989 270.126C197.327 270.126 196.72 269.958 196.169 269.622C195.619 269.277 195.18 268.801 194.853 268.194C194.536 267.578 194.377 266.883 194.377 266.108ZM200.691 266.136C200.691 265.604 200.579 265.142 200.355 264.75C200.141 264.358 199.856 264.059 199.501 263.854C199.147 263.649 198.764 263.546 198.353 263.546C197.943 263.546 197.56 263.649 197.205 263.854C196.851 264.05 196.561 264.344 196.337 264.736C196.123 265.119 196.015 265.576 196.015 266.108C196.015 266.64 196.123 267.107 196.337 267.508C196.561 267.909 196.851 268.217 197.205 268.432C197.569 268.637 197.952 268.74 198.353 268.74C198.764 268.74 199.147 268.637 199.501 268.432C199.856 268.227 200.141 267.928 200.355 267.536C200.579 267.135 200.691 266.668 200.691 266.136ZM205.994 263.406C206.227 263.014 206.535 262.711 206.918 262.496C207.31 262.272 207.772 262.16 208.304 262.16V263.812H207.898C207.272 263.812 206.796 263.971 206.47 264.288C206.152 264.605 205.994 265.156 205.994 265.94V270H204.398V262.286H205.994V263.406ZM211.367 259.64V270H209.771V259.64H211.367ZM220.406 262.286L215.674 273.626H214.022L215.59 269.874L212.552 262.286H214.33L216.5 268.166L218.754 262.286H220.406ZM119.516 284.588H118.088V291H116.478V284.588H115.568V283.286H116.478V282.74C116.478 281.853 116.712 281.209 117.178 280.808C117.654 280.397 118.396 280.192 119.404 280.192V281.522C118.919 281.522 118.578 281.615 118.382 281.802C118.186 281.979 118.088 282.292 118.088 282.74V283.286H119.516V284.588ZM121.743 282.264C121.454 282.264 121.211 282.166 121.015 281.97C120.819 281.774 120.721 281.531 120.721 281.242C120.721 280.953 120.819 280.71 121.015 280.514C121.211 280.318 121.454 280.22 121.743 280.22C122.023 280.22 122.261 280.318 122.457 280.514C122.653 280.71 122.751 280.953 122.751 281.242C122.751 281.531 122.653 281.774 122.457 281.97C122.261 282.166 122.023 282.264 121.743 282.264ZM122.527 283.286V291H120.931V283.286H122.527ZM126.218 284.406C126.452 284.014 126.76 283.711 127.142 283.496C127.534 283.272 127.996 283.16 128.528 283.16V284.812H128.122C127.497 284.812 127.021 284.971 126.694 285.288C126.377 285.605 126.218 286.156 126.218 286.94V291H124.622V283.286H126.218V284.406ZM132.795 291.126C132.189 291.126 131.643 291.019 131.157 290.804C130.681 290.58 130.303 290.281 130.023 289.908C129.743 289.525 129.594 289.101 129.575 288.634H131.227C131.255 288.961 131.409 289.236 131.689 289.46C131.979 289.675 132.338 289.782 132.767 289.782C133.215 289.782 133.561 289.698 133.803 289.53C134.055 289.353 134.181 289.129 134.181 288.858C134.181 288.569 134.041 288.354 133.761 288.214C133.491 288.074 133.057 287.92 132.459 287.752C131.881 287.593 131.409 287.439 131.045 287.29C130.681 287.141 130.364 286.912 130.093 286.604C129.832 286.296 129.701 285.89 129.701 285.386C129.701 284.975 129.823 284.602 130.065 284.266C130.308 283.921 130.653 283.65 131.101 283.454C131.559 283.258 132.081 283.16 132.669 283.16C133.547 283.16 134.251 283.384 134.783 283.832C135.325 284.271 135.614 284.873 135.651 285.638H134.055C134.027 285.293 133.887 285.017 133.635 284.812C133.383 284.607 133.043 284.504 132.613 284.504C132.193 284.504 131.871 284.583 131.647 284.742C131.423 284.901 131.311 285.111 131.311 285.372C131.311 285.577 131.386 285.75 131.535 285.89C131.685 286.03 131.867 286.142 132.081 286.226C132.296 286.301 132.613 286.399 133.033 286.52C133.593 286.669 134.051 286.823 134.405 286.982C134.769 287.131 135.082 287.355 135.343 287.654C135.605 287.953 135.74 288.349 135.749 288.844C135.749 289.283 135.628 289.675 135.385 290.02C135.143 290.365 134.797 290.636 134.349 290.832C133.911 291.028 133.393 291.126 132.795 291.126ZM139.336 284.588V288.858C139.336 289.147 139.401 289.357 139.532 289.488C139.672 289.609 139.905 289.67 140.232 289.67H141.212V291H139.952C139.233 291 138.682 290.832 138.3 290.496C137.917 290.16 137.726 289.614 137.726 288.858V284.588H136.816V283.286H137.726V281.368H139.336V283.286H141.212V284.588H139.336ZM148.322 281.27L148.14 288.06H146.81L146.628 281.27H148.322ZM147.524 291.098C147.234 291.098 146.992 291 146.796 290.804C146.6 290.608 146.502 290.365 146.502 290.076C146.502 289.787 146.6 289.544 146.796 289.348C146.992 289.152 147.234 289.054 147.524 289.054C147.804 289.054 148.042 289.152 148.238 289.348C148.434 289.544 148.532 289.787 148.532 290.076C148.532 290.365 148.434 290.608 148.238 290.804C148.042 291 147.804 291.098 147.524 291.098Z" fill="#2E2C43"/>
<rect x="23" y="86" width="220" height="127" rx="16" fill="#F9F9F9"/>
<rect x="23.25" y="86.25" width="219.5" height="126.5" rx="15.75" stroke="#2E2C43" stroke-opacity="0.1" stroke-width="0.5"/>
<path d="M64.084 108.242V109.278H61.424V118H60.15V109.278H57.476V108.242H64.084ZM72.2602 110.328L67.6402 121.612H66.3242L67.8362 117.916L64.7422 110.328H66.1562L68.5642 116.544L70.9442 110.328H72.2602ZM74.8149 111.742C75.0669 111.303 75.4402 110.939 75.9349 110.65C76.4389 110.351 77.0222 110.202 77.6849 110.202C78.3662 110.202 78.9822 110.365 79.5329 110.692C80.0929 111.019 80.5316 111.481 80.8489 112.078C81.1662 112.666 81.3249 113.352 81.3249 114.136C81.3249 114.911 81.1662 115.601 80.8489 116.208C80.5316 116.815 80.0929 117.286 79.5329 117.622C78.9822 117.958 78.3662 118.126 77.6849 118.126C77.0316 118.126 76.4529 117.981 75.9489 117.692C75.4542 117.393 75.0762 117.025 74.8149 116.586V121.64H73.5409V110.328H74.8149V111.742ZM80.0229 114.136C80.0229 113.557 79.9062 113.053 79.6729 112.624C79.4396 112.195 79.1222 111.868 78.7209 111.644C78.3289 111.42 77.8949 111.308 77.4189 111.308C76.9522 111.308 76.5182 111.425 76.1169 111.658C75.7249 111.882 75.4076 112.213 75.1649 112.652C74.9316 113.081 74.8149 113.581 74.8149 114.15C74.8149 114.729 74.9316 115.237 75.1649 115.676C75.4076 116.105 75.7249 116.437 76.1169 116.67C76.5182 116.894 76.9522 117.006 77.4189 117.006C77.8949 117.006 78.3289 116.894 78.7209 116.67C79.1222 116.437 79.4396 116.105 79.6729 115.676C79.9062 115.237 80.0229 114.724 80.0229 114.136ZM90.0018 113.87C90.0018 114.113 89.9878 114.369 89.9598 114.64H83.8278C83.8745 115.396 84.1312 115.989 84.5978 116.418C85.0738 116.838 85.6478 117.048 86.3198 117.048C86.8705 117.048 87.3278 116.922 87.6918 116.67C88.0652 116.409 88.3265 116.063 88.4758 115.634H89.8478C89.6425 116.371 89.2318 116.973 88.6158 117.44C87.9998 117.897 87.2345 118.126 86.3198 118.126C85.5918 118.126 84.9385 117.963 84.3598 117.636C83.7905 117.309 83.3425 116.847 83.0158 116.25C82.6892 115.643 82.5258 114.943 82.5258 114.15C82.5258 113.357 82.6845 112.661 83.0018 112.064C83.3192 111.467 83.7625 111.009 84.3318 110.692C84.9105 110.365 85.5732 110.202 86.3198 110.202C87.0478 110.202 87.6918 110.361 88.2518 110.678C88.8118 110.995 89.2412 111.434 89.5398 111.994C89.8478 112.545 90.0018 113.17 90.0018 113.87ZM88.6858 113.604C88.6858 113.119 88.5785 112.703 88.3638 112.358C88.1492 112.003 87.8552 111.737 87.4818 111.56C87.1178 111.373 86.7118 111.28 86.2638 111.28C85.6198 111.28 85.0692 111.485 84.6118 111.896C84.1638 112.307 83.9072 112.876 83.8418 113.604H88.6858ZM99.2239 110.188C99.8026 110.188 100.325 110.314 100.792 110.566C101.259 110.809 101.623 111.177 101.884 111.672C102.155 112.167 102.29 112.769 102.29 113.478V118H101.03V113.66C101.03 112.895 100.839 112.311 100.456 111.91C100.073 111.499 99.5506 111.294 98.8879 111.294C98.2159 111.294 97.6792 111.504 97.2779 111.924C96.8859 112.344 96.6899 112.955 96.6899 113.758V118H95.4159V107.64H96.6899V111.42C96.9419 111.028 97.2872 110.725 97.7259 110.51C98.1739 110.295 98.6732 110.188 99.2239 110.188ZM111.371 113.87C111.371 114.113 111.357 114.369 111.329 114.64H105.197C105.244 115.396 105.5 115.989 105.967 116.418C106.443 116.838 107.017 117.048 107.689 117.048C108.24 117.048 108.697 116.922 109.061 116.67C109.434 116.409 109.696 116.063 109.845 115.634H111.217C111.012 116.371 110.601 116.973 109.985 117.44C109.369 117.897 108.604 118.126 107.689 118.126C106.961 118.126 106.308 117.963 105.729 117.636C105.16 117.309 104.712 116.847 104.385 116.25C104.058 115.643 103.895 114.943 103.895 114.15C103.895 113.357 104.054 112.661 104.371 112.064C104.688 111.467 105.132 111.009 105.701 110.692C106.28 110.365 106.942 110.202 107.689 110.202C108.417 110.202 109.061 110.361 109.621 110.678C110.181 110.995 110.61 111.434 110.909 111.994C111.217 112.545 111.371 113.17 111.371 113.87ZM110.055 113.604C110.055 113.119 109.948 112.703 109.733 112.358C109.518 112.003 109.224 111.737 108.851 111.56C108.487 111.373 108.081 111.28 107.633 111.28C106.989 111.28 106.438 111.485 105.981 111.896C105.533 112.307 105.276 112.876 105.211 113.604H110.055ZM114.327 111.574C114.551 111.135 114.868 110.795 115.279 110.552C115.699 110.309 116.207 110.188 116.805 110.188V111.504H116.469C115.041 111.504 114.327 112.279 114.327 113.828V118H113.053V110.328H114.327V111.574ZM125.275 113.87C125.275 114.113 125.261 114.369 125.233 114.64H119.101C119.148 115.396 119.405 115.989 119.871 116.418C120.347 116.838 120.921 117.048 121.593 117.048C122.144 117.048 122.601 116.922 122.965 116.67C123.339 116.409 123.6 116.063 123.749 115.634H125.121C124.916 116.371 124.505 116.973 123.889 117.44C123.273 117.897 122.508 118.126 121.593 118.126C120.865 118.126 120.212 117.963 119.633 117.636C119.064 117.309 118.616 116.847 118.289 116.25C117.963 115.643 117.799 114.943 117.799 114.15C117.799 113.357 117.958 112.661 118.275 112.064C118.593 111.467 119.036 111.009 119.605 110.692C120.184 110.365 120.847 110.202 121.593 110.202C122.321 110.202 122.965 110.361 123.525 110.678C124.085 110.995 124.515 111.434 124.813 111.994C125.121 112.545 125.275 113.17 125.275 113.87ZM123.959 113.604C123.959 113.119 123.852 112.703 123.637 112.358C123.423 112.003 123.129 111.737 122.755 111.56C122.391 111.373 121.985 111.28 121.537 111.28C120.893 111.28 120.343 111.485 119.885 111.896C119.437 112.307 119.181 112.876 119.115 113.604H123.959ZM131.095 118.084C130.853 118.084 130.647 118 130.479 117.832C130.311 117.664 130.227 117.459 130.227 117.216C130.227 116.973 130.311 116.768 130.479 116.6C130.647 116.432 130.853 116.348 131.095 116.348C131.329 116.348 131.525 116.432 131.683 116.6C131.851 116.768 131.935 116.973 131.935 117.216C131.935 117.459 131.851 117.664 131.683 117.832C131.525 118 131.329 118.084 131.095 118.084ZM134.035 118.084C133.792 118.084 133.587 118 133.419 117.832C133.251 117.664 133.167 117.459 133.167 117.216C133.167 116.973 133.251 116.768 133.419 116.6C133.587 116.432 133.792 116.348 134.035 116.348C134.268 116.348 134.464 116.432 134.623 116.6C134.791 116.768 134.875 116.973 134.875 117.216C134.875 117.459 134.791 117.664 134.623 117.832C134.464 118 134.268 118.084 134.035 118.084ZM136.974 118.084C136.732 118.084 136.526 118 136.358 117.832C136.19 117.664 136.106 117.459 136.106 117.216C136.106 116.973 136.19 116.768 136.358 116.6C136.526 116.432 136.732 116.348 136.974 116.348C137.208 116.348 137.404 116.432 137.562 116.6C137.73 116.768 137.814 116.973 137.814 117.216C137.814 117.459 137.73 117.664 137.562 117.832C137.404 118 137.208 118.084 136.974 118.084ZM139.914 118.084C139.671 118.084 139.466 118 139.298 117.832C139.13 117.664 139.046 117.459 139.046 117.216C139.046 116.973 139.13 116.768 139.298 116.6C139.466 116.432 139.671 116.348 139.914 116.348C140.147 116.348 140.343 116.432 140.502 116.6C140.67 116.768 140.754 116.973 140.754 117.216C140.754 117.459 140.67 117.664 140.502 117.832C140.343 118 140.147 118.084 139.914 118.084ZM142.853 118.084C142.61 118.084 142.405 118 142.237 117.832C142.069 117.664 141.985 117.459 141.985 117.216C141.985 116.973 142.069 116.768 142.237 116.6C142.405 116.432 142.61 116.348 142.853 116.348C143.086 116.348 143.282 116.432 143.441 116.6C143.609 116.768 143.693 116.973 143.693 117.216C143.693 117.459 143.609 117.664 143.441 117.832C143.282 118 143.086 118.084 142.853 118.084ZM145.793 118.084C145.55 118.084 145.345 118 145.177 117.832C145.009 117.664 144.925 117.459 144.925 117.216C144.925 116.973 145.009 116.768 145.177 116.6C145.345 116.432 145.55 116.348 145.793 116.348C146.026 116.348 146.222 116.432 146.381 116.6C146.549 116.768 146.633 116.973 146.633 117.216C146.633 117.459 146.549 117.664 146.381 117.832C146.222 118 146.026 118.084 145.793 118.084Z" fill="#DBCDBB"/>
<path d="M33.5968 57.098C32.9435 57.098 32.3555 56.986 31.8328 56.762C31.3102 56.5287 30.8995 56.202 30.6008 55.782C30.3022 55.362 30.1528 54.872 30.1528 54.312H31.8608C31.8982 54.732 32.0615 55.0773 32.3508 55.348C32.6495 55.6187 33.0648 55.754 33.5968 55.754C34.1475 55.754 34.5768 55.6233 34.8848 55.362C35.1928 55.0913 35.3468 54.746 35.3468 54.326C35.3468 53.9993 35.2488 53.7333 35.0528 53.528C34.8662 53.3227 34.6282 53.164 34.3388 53.052C34.0588 52.94 33.6668 52.8187 33.1628 52.688C32.5282 52.52 32.0102 52.352 31.6088 52.184C31.2168 52.0067 30.8808 51.736 30.6008 51.372C30.3208 51.008 30.1808 50.5227 30.1808 49.916C30.1808 49.356 30.3208 48.866 30.6008 48.446C30.8808 48.026 31.2728 47.704 31.7768 47.48C32.2808 47.256 32.8642 47.144 33.5268 47.144C34.4695 47.144 35.2395 47.382 35.8368 47.858C36.4435 48.3247 36.7795 48.9687 36.8448 49.79H35.0808C35.0528 49.4353 34.8848 49.132 34.5768 48.88C34.2688 48.628 33.8628 48.502 33.3588 48.502C32.9015 48.502 32.5282 48.6187 32.2388 48.852C31.9495 49.0853 31.8048 49.4213 31.8048 49.86C31.8048 50.1587 31.8935 50.406 32.0708 50.602C32.2575 50.7887 32.4908 50.938 32.7708 51.05C33.0508 51.162 33.4335 51.2833 33.9188 51.414C34.5628 51.5913 35.0855 51.7687 35.4868 51.946C35.8975 52.1233 36.2428 52.3987 36.5228 52.772C36.8122 53.136 36.9568 53.626 36.9568 54.242C36.9568 54.7367 36.8215 55.2033 36.5508 55.642C36.2895 56.0807 35.9022 56.4353 35.3888 56.706C34.8848 56.9673 34.2875 57.098 33.5968 57.098ZM40.702 50.588V54.858C40.702 55.1473 40.7674 55.3573 40.898 55.488C41.038 55.6093 41.2714 55.67 41.598 55.67H42.578V57H41.318C40.5994 57 40.0487 56.832 39.666 56.496C39.2834 56.16 39.092 55.614 39.092 54.858V50.588H38.182V49.286H39.092V47.368H40.702V49.286H42.578V50.588H40.702ZM51.119 52.954C51.119 53.2433 51.1004 53.5047 51.063 53.738H45.169C45.2157 54.354 45.4444 54.8487 45.855 55.222C46.2657 55.5953 46.7697 55.782 47.367 55.782C48.2257 55.782 48.8324 55.4227 49.187 54.704H50.909C50.6757 55.4133 50.251 55.9967 49.635 56.454C49.0284 56.902 48.2724 57.126 47.367 57.126C46.6297 57.126 45.967 56.9627 45.379 56.636C44.8004 56.3 44.343 55.8333 44.007 55.236C43.6804 54.6293 43.517 53.9293 43.517 53.136C43.517 52.3427 43.6757 51.6473 43.993 51.05C44.3197 50.4433 44.7724 49.9767 45.351 49.65C45.939 49.3233 46.611 49.16 47.367 49.16C48.095 49.16 48.7437 49.3187 49.313 49.636C49.8824 49.9533 50.3257 50.4013 50.643 50.98C50.9604 51.5493 51.119 52.2073 51.119 52.954ZM49.453 52.45C49.4437 51.862 49.2337 51.3907 48.823 51.036C48.4124 50.6813 47.9037 50.504 47.297 50.504C46.7464 50.504 46.275 50.6813 45.883 51.036C45.491 51.3813 45.2577 51.8527 45.183 52.45H49.453ZM54.2856 50.42C54.5563 50.0653 54.925 49.7667 55.3916 49.524C55.8583 49.2813 56.3856 49.16 56.9736 49.16C57.6456 49.16 58.257 49.328 58.8076 49.664C59.3676 49.9907 59.8063 50.4527 60.1236 51.05C60.441 51.6473 60.5996 52.3333 60.5996 53.108C60.5996 53.8827 60.441 54.578 60.1236 55.194C59.8063 55.8007 59.3676 56.2767 58.8076 56.622C58.257 56.958 57.6456 57.126 56.9736 57.126C56.3856 57.126 55.863 57.0093 55.4056 56.776C54.9483 56.5333 54.575 56.2347 54.2856 55.88V60.668H52.6896V49.286H54.2856V50.42ZM58.9756 53.108C58.9756 52.576 58.8636 52.1187 58.6396 51.736C58.425 51.344 58.1356 51.05 57.7716 50.854C57.417 50.6487 57.0343 50.546 56.6236 50.546C56.2223 50.546 55.8396 50.6487 55.4756 50.854C55.121 51.0593 54.8316 51.358 54.6076 51.75C54.393 52.142 54.2856 52.604 54.2856 53.136C54.2856 53.668 54.393 54.1347 54.6076 54.536C54.8316 54.928 55.121 55.2267 55.4756 55.432C55.8396 55.6373 56.2223 55.74 56.6236 55.74C57.0343 55.74 57.417 55.6373 57.7716 55.432C58.1356 55.2173 58.425 54.9093 58.6396 54.508C58.8636 54.1067 58.9756 53.64 58.9756 53.108ZM65.3946 48.25V46.794H68.3066V57H66.6966V48.25H65.3946Z" fill="black"/>
<path d="M135.626 57.8191L136.145 59.4344L135.407 62.688L132.032 66.3838C135.482 66.5925 138.904 65.6503 141.761 63.7047C141.761 63.7047 143.064 55.2371 135.248 55.2371C133.169 56.6232 131.388 57.5813 129.386 57.5774H129.467C127.465 57.5813 125.684 56.6232 123.605 55.2371C115.788 55.2371 117.091 63.7047 117.091 63.7047C123.59 67.6266 126.45 66.12 135.407 62.688L135.809 60.3945L120.132 61.2739L123.59 60.6824" fill="#FB8C00"/>
<path d="M141.752 63.7055C141.752 63.7055 143.054 55.2378 135.238 55.2378C133.159 56.6239 131.377 57.5814 129.376 57.5775H129.457C127.455 57.5814 125.674 56.6239 123.595 55.2378C115.779 55.2378 117.081 63.7055 117.081 63.7055" fill="#FB8C00"/>
<path d="M135.422 55.2378C133.729 56.5307 131.717 57.3386 129.601 57.5749C138.109 57.8439 138.109 61.1007 138.605 63.7061H141.935C141.935 63.7061 143.238 55.2378 135.422 55.2378Z" fill="#FB8C00"/>
<path d="M141.935 63.7054C141.935 63.7054 134.278 69.5846 128.428 65.6354L135.407 62.688L136.145 59.4344C136.145 59.4344 141.992 57.8295 141.935 63.7054Z" fill="#FB8C00"/>
<path d="M129.427 53.722C133.506 53.722 136.812 49.5888 136.812 44.4903C136.812 39.3917 133.506 35.2585 129.427 35.2585C125.348 35.2585 122.041 39.3917 122.041 44.4903C122.041 49.5888 125.348 53.722 129.427 53.722Z" fill="#FB8C00"/>
<path d="M138.006 34.4424C129.427 37.1241 122.041 43.2482 122.041 43.2482C122.041 43.2482 119.461 39.7699 120.584 36.261C120.584 36.261 122.041 31 129.075 31C134.092 31 136.628 33.0648 138.006 34.4424C142.01 40.1256 136.615 43.3036 136.615 43.3036C134.429 41.6 132.33 39.7869 130.326 37.8712" fill="white"/>
<path d="M138.006 34.4424C142.009 40.1255 136.615 43.3035 136.615 43.3035C134.428 41.5999 132.33 39.7868 130.326 37.8711" fill="#F9F9F9"/>
<path d="M129.427 41.6674C129.081 41.6674 128.75 41.5302 128.505 41.2859C128.261 41.0416 128.124 40.7102 128.124 40.3647V37.7593C128.124 37.4138 128.261 37.0824 128.505 36.8381C128.75 36.5938 129.081 36.4565 129.427 36.4565C129.772 36.4565 130.103 36.5938 130.348 36.8381C130.592 37.0824 130.729 37.4138 130.729 37.7593V40.3647C130.729 40.7102 130.592 41.0416 130.348 41.2859C130.103 41.5302 129.772 41.6674 129.427 41.6674ZM135.407 62.6881L132.533 63.8808V60.4644H135.809L135.407 62.6881Z" fill="#FCEA2B"/>
<path d="M132.032 66.3837C135.482 66.5927 138.904 65.6509 141.761 63.706C141.761 63.706 143.064 55.2383 135.247 55.2383C133.168 56.6244 131.387 57.5819 129.385 57.578H129.466C127.464 57.5819 125.683 56.6244 123.604 55.2383C115.788 55.2383 117.091 63.706 117.091 63.706C123.59 67.6272 126.449 66.1212 135.406 62.6885L135.808 60.3958L120.131 61.2751" stroke="black" stroke-width="2" stroke-linecap="round" stroke-linejoin="round"/>
<path d="M135.626 57.8191L136.145 59.4345L135.407 62.688" stroke="black" stroke-width="2" stroke-linecap="round" stroke-linejoin="round"/>
<path d="M133.335 43.604C133.335 43.8616 133.258 44.1135 133.115 44.3277C132.972 44.542 132.769 44.7089 132.531 44.8075C132.293 44.9061 132.031 44.9319 131.778 44.8817C131.525 44.8314 131.293 44.7073 131.111 44.5252C130.929 44.343 130.805 44.1108 130.754 43.8581C130.704 43.6054 130.73 43.3435 130.828 43.1055C130.927 42.8674 131.094 42.664 131.308 42.5208C131.523 42.3777 131.774 42.3013 132.032 42.3013C132.378 42.3013 132.709 42.4385 132.953 42.6828C133.198 42.9271 133.335 43.2585 133.335 43.604ZM128.124 43.604C128.124 43.8616 128.047 44.1135 127.904 44.3277C127.761 44.542 127.558 44.7089 127.32 44.8075C127.082 44.9061 126.82 44.9319 126.567 44.8817C126.314 44.8314 126.082 44.7073 125.9 44.5252C125.718 44.343 125.594 44.1108 125.543 43.8581C125.493 43.6054 125.519 43.3435 125.618 43.1055C125.716 42.8674 125.883 42.664 126.097 42.5208C126.312 42.3777 126.564 42.3013 126.821 42.3013C127.167 42.3013 127.498 42.4385 127.742 42.6828C127.987 42.9271 128.124 43.2585 128.124 43.604ZM129.427 50.1189C128.644 50.1114 127.875 49.9199 127.181 49.56C127.026 49.4827 126.909 49.3472 126.854 49.1833C126.799 49.0193 126.812 48.8404 126.89 48.6859C126.967 48.5314 127.102 48.4139 127.266 48.3593C127.43 48.3047 127.609 48.3174 127.764 48.3947C128.275 48.6703 128.846 48.8145 129.426 48.8145C130.007 48.8145 130.578 48.6703 131.089 48.3947C131.243 48.3174 131.422 48.3047 131.586 48.3594C131.75 48.414 131.886 48.5316 131.963 48.6862C132.041 48.8408 132.053 49.0198 131.999 49.1838C131.944 49.3478 131.826 49.4834 131.672 49.5607C130.978 49.9203 130.208 50.1115 129.427 50.1189Z" fill="black"/>
<path d="M128.125 39.0313C127.291 39.5328 126.516 40.0279 125.826 40.4903C123.787 41.8517 122.432 42.9329 122.113 43.187C122.068 43.226 122.041 43.2456 122.041 43.2456C122.041 43.2456 119.462 39.7673 120.582 36.263C120.582 36.263 122.041 31 129.076 31C134.092 31 136.625 33.0648 138.006 34.4457C141.641 39.598 137.537 42.6854 136.743 43.2195C136.658 43.2781 136.612 43.3042 136.612 43.3042C136.612 43.3042 133.74 41.1026 130.731 38.2562" stroke="black" stroke-width="2" stroke-linecap="round" stroke-linejoin="round"/>
<path d="M130.711 37.5593C133.042 36.3003 135.484 35.2581 138.006 34.4458" stroke="black" stroke-width="2" stroke-linecap="round" stroke-linejoin="round"/>
<path d="M132.533 60.6552V63.7479M122.092 43.3056C122.05 43.7042 122.03 44.1047 122.03 44.5054C122.03 49.6043 125.337 53.7371 129.416 53.7371C133.494 53.7371 136.801 49.6043 136.801 44.5054C136.801 44.092 136.779 43.6789 136.736 43.2678M129.427 41.6674C129.081 41.6674 128.75 41.5302 128.505 41.2859C128.261 41.0416 128.124 40.7102 128.124 40.3647V37.7593C128.124 37.4138 128.261 37.0824 128.505 36.8381C128.75 36.5938 129.081 36.4565 129.427 36.4565C129.772 36.4565 130.103 36.5938 130.348 36.8381C130.592 37.0824 130.729 37.4138 130.729 37.7593V40.3647C130.729 40.7102 130.592 41.0416 130.348 41.2859C130.103 41.5302 129.772 41.6674 129.427 41.6674Z" stroke="black" stroke-width="2" stroke-linecap="round" stroke-linejoin="round"/>
</svg>
