<svg width="384" height="218" viewBox="0 0 384 218" fill="none" xmlns="http://www.w3.org/2000/svg">
<path d="M355.283 217.447C360.924 217.447 365.497 216.685 365.497 215.745C365.497 214.804 360.924 214.042 355.283 214.042C349.641 214.042 345.068 214.804 345.068 215.745C345.068 216.685 349.641 217.447 355.283 217.447Z" fill="#F2F2F2"/>
<path d="M367.2 53.1658H366.348V71.041H367.2V53.1658Z" fill="#A0616A"/>
<path d="M357.836 41.6741H352.729V217.873H357.836V41.6741Z" fill="#F2F2F2"/>
<path d="M378.664 55.5062H331.901C331.388 55.5063 330.881 55.3972 330.413 55.1863C329.946 54.9753 329.529 54.6674 329.189 54.2828C328.85 53.8983 328.596 53.4459 328.444 52.9558C328.293 52.4657 328.248 51.949 328.311 51.44L334.27 3.7727C334.38 2.89826 334.806 2.09411 335.467 1.51079C336.127 0.927477 336.978 0.605007 337.86 0.60376H372.706C373.587 0.605006 374.438 0.927477 375.099 1.51079C375.759 2.09411 376.185 2.89826 376.295 3.7727L382.254 51.44C382.317 51.949 382.272 52.4657 382.121 52.9558C381.97 53.4459 381.716 53.8983 381.376 54.2828C381.037 54.6674 380.619 54.9753 380.152 55.1863C379.684 55.3972 379.177 55.5063 378.664 55.5062Z" fill="#FCEA2B"/>
<path d="M366.774 74.0199C368.419 74.0199 369.753 72.6861 369.753 71.0407C369.753 69.3954 368.419 68.0615 366.774 68.0615C365.129 68.0615 363.795 69.3954 363.795 71.0407C363.795 72.6861 365.129 74.0199 366.774 74.0199Z" fill="#A0616A"/>
<path d="M53.4385 170.573C51.2883 178.033 45.01 183.254 38.461 187.69C37.5466 188.309 36.6319 188.914 35.7169 189.505C35.7107 189.508 35.7043 189.514 35.698 189.517C35.654 189.545 35.6099 189.573 35.5689 189.602C35.38 189.724 35.1911 189.845 35.0038 189.966L35.1067 190.012C35.1067 190.012 35.2077 190.066 35.0972 190.021C35.0643 190.007 35.0299 189.994 34.997 189.981C31.1925 188.446 27.3203 186.799 24.4047 183.924C21.3802 180.939 19.6126 176.257 21.2504 172.336C21.4657 171.822 21.7376 171.334 22.0611 170.881C22.1939 170.691 22.337 170.509 22.486 170.33C23.3894 169.228 24.5701 168.385 25.9068 167.891C27.2436 167.396 28.688 167.266 30.0916 167.514C31.4952 167.762 32.8074 168.38 33.8931 169.303C34.9789 170.227 35.799 171.423 36.2693 172.769C36.7504 168.289 33.0565 164.536 29.5017 161.768C25.9453 159 21.9042 155.987 21.2166 151.532C20.8327 149.053 21.6946 146.651 23.2647 144.723C23.3133 144.664 23.3619 144.606 23.4119 144.549C25.3232 142.303 28.0114 140.861 30.9396 140.51C36.3929 139.943 41.69 142.83 45.6517 146.622C52.028 152.722 55.8828 162.092 53.4385 170.573Z" fill="#55CD00"/>
<path d="M43.1882 160.817C44.2348 162.445 45.0383 164.217 45.5734 166.077C46.026 167.74 46.2274 169.461 46.171 171.183C46.025 174.727 45.0301 178.184 43.27 181.263C41.9441 183.599 40.3283 185.759 38.461 187.69C37.5465 188.309 36.6318 188.914 35.7168 189.505C35.7106 189.508 35.7043 189.514 35.698 189.516C35.654 189.545 35.6098 189.573 35.5688 189.602C35.38 189.723 35.1911 189.845 35.0038 189.965C35.0038 189.965 35.2077 190.065 35.0972 190.02C35.0643 190.006 35.0298 189.994 34.997 189.98C35.338 187.185 35.0039 184.348 34.0228 181.708C33.0417 179.068 31.4422 176.702 29.3582 174.807C27.2692 172.942 24.7689 171.596 22.061 170.881C22.1939 170.69 22.337 170.508 22.4859 170.33C23.5317 170.623 24.5496 171.008 25.5275 171.481C29.0235 173.16 31.886 175.919 33.6913 179.352C35.3114 182.468 36.0087 185.982 35.7013 189.482C35.8576 189.34 36.0141 189.195 36.1659 189.052C39.0569 186.356 41.6248 183.263 43.3626 179.692C44.8703 176.668 45.6113 173.32 45.5203 169.943C45.3785 166.26 43.9111 162.849 41.7866 159.879C39.458 156.711 36.7072 153.876 33.6106 151.453C30.4898 148.953 27.0749 146.845 23.442 145.175C23.3601 145.137 23.296 145.068 23.263 144.984C23.23 144.9 23.2306 144.806 23.2647 144.722C23.2889 144.647 23.3418 144.585 23.4119 144.548C23.448 144.533 23.4871 144.526 23.5263 144.527C23.5655 144.529 23.6039 144.539 23.6385 144.558C24.087 144.765 24.5325 144.974 24.9743 145.192C28.6546 147.011 32.0946 149.28 35.2153 151.948C38.2298 154.518 41.0677 157.454 43.1882 160.817Z" fill="white"/>
<path d="M22.3973 189.358H45.9601C46.2185 189.358 46.4741 189.413 46.7097 189.519C46.9453 189.625 47.1556 189.78 47.3266 189.974C47.4977 190.168 47.6256 190.396 47.7018 190.643C47.778 190.89 47.8009 191.15 47.7688 191.407L44.7665 215.425C44.7108 215.866 44.4964 216.271 44.1635 216.565C43.8305 216.859 43.4019 217.021 42.9578 217.022H25.3996C24.9555 217.021 24.5268 216.859 24.1939 216.565C23.8609 216.271 23.6466 215.866 23.5909 215.425L20.5885 191.407C20.5565 191.15 20.5793 190.89 20.6556 190.643C20.7318 190.396 20.8597 190.168 21.0307 189.974C21.2018 189.78 21.4121 189.625 21.6477 189.519C21.8833 189.413 22.1388 189.358 22.3973 189.358Z" fill="#A0616A"/>
<path d="M99.2237 217.206C100.852 217.206 102.173 215.886 102.173 214.257C102.173 212.629 100.852 211.309 99.2237 211.309C97.595 211.309 96.2748 212.629 96.2748 214.257C96.2748 215.886 97.595 217.206 99.2237 217.206Z" fill="#CCCCCC"/>
<path d="M285.494 217.206C287.122 217.206 288.443 215.886 288.443 214.257C288.443 212.629 287.122 211.309 285.494 211.309C283.865 211.309 282.545 212.629 282.545 214.257C282.545 215.886 283.865 217.206 285.494 217.206Z" fill="#CCCCCC"/>
<path d="M153.286 173.219H107.087C104.937 173.216 102.876 172.361 101.356 170.841C99.8355 169.321 98.9803 167.259 98.9779 165.109V133.655C98.9803 131.505 99.8355 129.444 101.356 127.923C102.876 126.403 104.937 125.548 107.087 125.545H153.286C155.436 125.548 157.497 126.403 159.018 127.923C160.538 129.444 161.393 131.505 161.396 133.655V165.109C161.393 167.259 160.538 169.321 159.018 170.841C157.497 172.361 155.436 173.216 153.286 173.219Z" fill="#F9A826"/>
<path d="M215.458 173.465H169.259C167.109 173.462 165.048 172.607 163.528 171.087C162.008 169.566 161.152 167.505 161.15 165.355V133.901C161.152 131.751 162.008 129.689 163.528 128.169C165.048 126.649 167.109 125.794 169.259 125.791H215.458C217.608 125.794 219.67 126.649 221.19 128.169C222.71 129.689 223.565 131.751 223.568 133.901V165.355C223.565 167.505 222.71 169.566 221.19 171.087C219.67 172.607 217.608 173.462 215.458 173.465Z" fill="#F9A826"/>
<path d="M277.63 173.71H231.431C229.281 173.708 227.22 172.853 225.7 171.333C224.179 169.812 223.324 167.751 223.322 165.601V134.146C223.324 131.996 224.179 129.935 225.7 128.415C227.22 126.895 229.281 126.04 231.431 126.037H277.63C279.78 126.04 281.841 126.895 283.362 128.415C284.882 129.935 285.737 131.996 285.739 134.146V165.601C285.737 167.751 284.882 169.812 283.362 171.333C281.841 172.853 279.78 173.708 277.63 173.71Z" fill="#F9A826"/>
<path d="M295.323 171.499H91.8516V214.011H295.323V171.499Z" fill="#FB8C00"/>
<path d="M99.2236 214.257H90.377C85.9054 214.257 82.2676 210.127 82.2676 205.05V160.686H99.2236V214.257Z" fill="#FB8C00"/>
<path d="M294.34 214.257H285.494V153.806H302.45V203.867C302.45 209.596 298.812 214.257 294.34 214.257Z" fill="#FB8C00"/>
<path d="M161.641 180.345H99.2236V167.076C120.03 155.141 140.835 155.141 161.641 167.076V180.345Z" fill="#FFE7C8"/>
<path d="M223.813 180.591H161.396V167.321C182.202 155.386 203.007 155.386 223.813 167.321V180.591Z" fill="#FFE7C8"/>
<path d="M285.985 180.837H223.567V167.567C244.373 155.633 265.179 155.633 285.985 167.567V180.837Z" fill="#FFE7C8"/>
<path d="M87.1826 171.99C95.1899 171.99 101.681 165.499 101.681 157.492C101.681 149.484 95.1899 142.993 87.1826 142.993C79.1752 142.993 72.684 149.484 72.684 157.492C72.684 165.499 79.1752 171.99 87.1826 171.99Z" fill="#FFE7C8"/>
<path d="M299.501 171.499C307.508 171.499 313.999 165.007 313.999 157C313.999 148.993 307.508 142.501 299.501 142.501C291.493 142.501 285.002 148.993 285.002 157C285.002 165.007 291.493 171.499 299.501 171.499Z" fill="#FFE7C8"/>
<path d="M256.792 128.596C256.826 128.829 256.841 129.064 256.838 129.3L274.216 141.278L278.851 139.084L283.076 145.646L275.249 150.327C274.617 150.705 273.879 150.868 273.146 150.791C272.413 150.714 271.725 150.402 271.185 149.901L253.585 133.565C252.712 133.811 251.784 133.785 250.926 133.491C250.068 133.196 249.319 132.648 248.781 131.918C248.242 131.188 247.938 130.312 247.909 129.405C247.881 128.498 248.129 127.604 248.621 126.842C249.113 126.08 249.825 125.485 250.663 125.138C251.501 124.79 252.425 124.706 253.312 124.896C254.199 125.087 255.007 125.543 255.629 126.204C256.251 126.865 256.656 127.699 256.792 128.596Z" fill="#FFB8B8"/>
<path d="M274.551 140.248C274.628 139.983 274.76 139.739 274.94 139.53C275.12 139.322 275.342 139.154 275.593 139.04L284.331 135.036C285.511 134.267 286.948 133.999 288.326 134.288C289.704 134.577 290.911 135.401 291.683 136.579C292.454 137.757 292.727 139.192 292.442 140.571C292.156 141.95 291.336 143.16 290.16 143.934L282.936 150.322C282.73 150.505 282.487 150.64 282.223 150.72C281.96 150.8 281.682 150.822 281.41 150.785C281.137 150.748 280.875 150.653 280.643 150.506C280.41 150.359 280.212 150.163 280.062 149.932L274.786 141.825C274.636 141.595 274.537 141.334 274.496 141.062C274.456 140.79 274.475 140.512 274.551 140.248Z" fill="#F9A826"/>
<path d="M256.573 129.377L256.486 129.383L256.247 126.087C256.171 125.033 255.489 124.224 254.725 124.279L249.657 124.646C248.893 124.701 247.486 125.662 247.562 126.715L247.624 127.564L248.871 144.799C248.947 145.853 250.478 146.601 251.242 146.546L256.309 146.179C257.074 146.124 257.632 145.225 257.556 144.171L256.655 131.73L256.743 131.723L256.573 129.377Z" fill="#3F3D56"/>
<path d="M255.953 126.122L257.26 144.179C257.317 144.966 256.9 145.637 256.329 145.679L251.238 146.047C250.667 146.088 250.158 145.484 250.101 144.697L248.794 126.64C248.737 125.853 249.154 125.181 249.725 125.14L250.343 125.095C250.3 125.256 250.309 125.426 250.369 125.581C250.429 125.736 250.537 125.868 250.676 125.958C250.735 125.987 250.8 125.999 250.865 125.995L253.768 125.785C254.039 125.765 254.237 125.446 254.21 125.072C254.204 124.985 254.185 124.9 254.155 124.819L254.817 124.772C255.387 124.73 255.897 125.335 255.953 126.122Z" fill="white"/>
<path d="M184.524 167.818L182.844 162.878L201.1 154.049L203.579 161.341L184.524 167.818Z" fill="#FFB8B8"/>
<path d="M180.164 170.706L174.749 154.777L174.95 154.708C175.764 154.432 176.625 154.318 177.483 154.374C178.341 154.43 179.18 154.654 179.951 155.034C180.723 155.414 181.412 155.942 181.979 156.588C182.547 157.235 182.981 157.986 183.258 158.801L186.565 168.53L180.164 170.706Z" fill="#2F2E41"/>
<path d="M256.979 171.344C253.063 171.563 249.159 170.746 245.661 168.974L224.194 154.37L199.128 163.652C198.463 163.878 197.737 163.844 197.096 163.555C196.455 163.267 195.947 162.746 195.676 162.098L194.447 159.143C194.167 158.478 194.159 157.73 194.425 157.06C194.69 156.389 195.209 155.85 195.868 155.557L219.816 144.803C222.691 143.517 225.916 143.238 228.969 144.011L262.214 152.483L271.001 162.919L270.904 163.054C266.59 169.005 261.473 171.018 256.979 171.344Z" fill="#2F2E41"/>
<path d="M284.13 127.736C289.903 127.736 294.583 123.056 294.583 117.283C294.583 111.51 289.903 106.83 284.13 106.83C278.357 106.83 273.677 111.51 273.677 117.283C273.677 123.056 278.357 127.736 284.13 127.736Z" fill="#FFB8B8"/>
<path d="M273.399 167.572L256.576 155.052L268.049 146.898C267.721 145.842 266.265 139.803 274.227 135.687C276.747 134.384 278.563 133.263 279.624 132.354C281.13 131.056 283.058 130.352 285.046 130.377C286.299 130.396 287.53 130.708 288.642 131.286C289.754 131.864 290.716 132.693 291.452 133.707C292.188 134.721 292.678 135.892 292.884 137.129C293.089 138.365 293.004 139.632 292.634 140.83C290.974 146.226 288.33 153.377 285.159 156.797C281.572 160.661 277.682 164.232 273.527 167.477L273.399 167.572Z" fill="#F9F9F9"/>
<path d="M187.192 172.196L185.512 167.255L203.768 158.427L206.247 165.718L187.192 172.196Z" fill="#FFB8B8"/>
<path d="M182.831 175.083L177.416 159.154L177.618 159.086C178.432 158.809 179.293 158.695 180.151 158.751C181.009 158.807 181.848 159.031 182.619 159.411C183.39 159.791 184.08 160.319 184.647 160.966C185.214 161.612 185.649 162.364 185.925 163.178L189.233 172.907L182.831 175.083Z" fill="#2F2E41"/>
<path d="M259.646 175.721C255.731 175.941 251.827 175.124 248.329 173.352L226.862 158.748L201.796 168.03C201.131 168.256 200.404 168.221 199.763 167.933C199.123 167.644 198.615 167.123 198.343 166.475L197.115 163.52C196.835 162.856 196.827 162.108 197.092 161.437C197.358 160.766 197.876 160.227 198.536 159.935L222.483 149.181C225.358 147.894 228.583 147.615 231.637 148.389L264.881 156.861L273.669 167.296L273.571 167.431C269.257 173.383 264.141 175.396 259.646 175.721Z" fill="#2F2E41"/>
<path d="M254.821 141.136C254.952 141.332 255.066 141.538 255.164 141.752L275.998 145.136L279.247 141.169L285.875 145.29L280.806 152.872C280.396 153.484 279.799 153.947 279.104 154.192C278.409 154.436 277.653 154.448 276.95 154.226L254.051 146.999C253.367 147.595 252.517 147.969 251.616 148.071C250.714 148.172 249.803 147.997 249.004 147.568C248.204 147.139 247.554 146.477 247.14 145.67C246.726 144.863 246.568 143.948 246.686 143.049C246.804 142.149 247.194 141.307 247.802 140.634C248.411 139.962 249.21 139.49 250.093 139.282C250.976 139.075 251.902 139.141 252.746 139.472C253.591 139.803 254.315 140.383 254.821 141.136Z" fill="#FFB8B8"/>
<path d="M275.859 144.061C275.815 143.79 275.83 143.512 275.903 143.246C275.976 142.981 276.106 142.734 276.283 142.524L282.466 135.164C283.203 133.964 284.386 133.106 285.756 132.778C287.125 132.449 288.568 132.677 289.77 133.411C290.972 134.145 291.833 135.326 292.165 136.694C292.498 138.062 292.274 139.506 291.543 140.71L287.75 149.576C287.641 149.829 287.48 150.056 287.276 150.241C287.072 150.426 286.831 150.565 286.569 150.648C286.306 150.731 286.029 150.757 285.756 150.723C285.483 150.69 285.22 150.598 284.986 150.454L276.746 145.387C276.512 145.243 276.311 145.05 276.158 144.821C276.005 144.592 275.903 144.333 275.859 144.061Z" fill="white"/>
<path d="M281.335 128.795C284.372 124.887 286.057 120.098 286.134 115.149C284.704 116.211 283.086 116.993 281.365 117.452C279.538 117.939 277.53 118.037 275.81 117.253C273.389 116.15 271.957 113.338 272.232 110.691C272.507 108.045 274.335 105.681 276.717 104.495C279.154 103.355 281.934 103.186 284.491 104.024C285.844 102.872 287.5 102.134 289.261 101.899C291.023 101.664 292.814 101.942 294.422 102.699C298.122 104.515 300.168 108.72 300.523 112.826C300.878 116.933 299.823 121.016 298.777 125.002L298.659 125.453C298.333 126.694 297.387 129.075 297.387 129.075C297.387 129.075 291.89 127.991 289.706 127.295C286.541 128.439 281.335 128.795 281.335 128.795Z" fill="#2F2E41"/>
<path d="M255.132 129.797L250.653 130.121C250.54 130.129 250.429 130.092 250.344 130.018C250.258 129.945 250.206 129.84 250.198 129.727C250.189 129.615 250.226 129.503 250.3 129.418C250.374 129.333 250.479 129.28 250.591 129.272L255.07 128.948C255.126 128.944 255.182 128.951 255.235 128.968C255.288 128.986 255.338 129.014 255.38 129.05C255.422 129.087 255.457 129.131 255.482 129.181C255.507 129.231 255.522 129.286 255.526 129.342C255.53 129.397 255.523 129.454 255.506 129.507C255.488 129.56 255.46 129.609 255.424 129.651C255.387 129.693 255.342 129.728 255.292 129.753C255.242 129.778 255.188 129.793 255.132 129.797Z" fill="#3F3D56"/>
<path d="M255.285 131.919L250.806 132.244C250.75 132.248 250.694 132.241 250.641 132.223C250.588 132.206 250.539 132.178 250.497 132.141C250.454 132.105 250.419 132.06 250.394 132.01C250.369 131.96 250.354 131.906 250.35 131.85C250.346 131.794 250.353 131.738 250.371 131.685C250.388 131.632 250.416 131.583 250.453 131.54C250.49 131.498 250.534 131.463 250.584 131.438C250.635 131.413 250.689 131.398 250.745 131.395L255.224 131.07C255.336 131.062 255.448 131.099 255.533 131.173C255.618 131.247 255.671 131.352 255.679 131.464C255.687 131.577 255.65 131.688 255.576 131.773C255.503 131.859 255.398 131.911 255.285 131.919Z" fill="#3F3D56"/>
<path d="M255.439 134.042L250.96 134.366C250.847 134.374 250.736 134.337 250.651 134.263C250.566 134.189 250.514 134.085 250.506 133.972C250.497 133.86 250.534 133.749 250.608 133.663C250.682 133.578 250.786 133.525 250.898 133.517L255.377 133.193C255.49 133.185 255.601 133.222 255.687 133.296C255.772 133.369 255.824 133.474 255.833 133.587C255.841 133.699 255.804 133.811 255.73 133.896C255.656 133.981 255.551 134.034 255.439 134.042Z" fill="#3F3D56"/>
<path opacity="0.1" d="M385.169 217.873H0.425601C0.312724 217.873 0.204471 217.828 0.124655 217.748C0.0448396 217.668 0 217.56 0 217.447C0 217.334 0.0448396 217.226 0.124655 217.146C0.204471 217.067 0.312724 217.022 0.425601 217.022H385.169C385.281 217.022 385.39 217.067 385.47 217.146C385.549 217.226 385.594 217.334 385.594 217.447C385.594 217.56 385.549 217.668 385.47 217.748C385.39 217.828 385.281 217.873 385.169 217.873Z" fill="#3F3D56"/>
<path d="M204.62 76.1478H161.634C160.619 76.1466 159.645 75.7427 158.927 75.0246C158.209 74.3065 157.805 73.3329 157.804 72.3174V35.2901C157.805 34.2746 158.209 33.301 158.927 32.5829C159.645 31.8648 160.619 31.4609 161.634 31.4597H204.62C205.636 31.4609 206.609 31.8648 207.327 32.5829C208.045 33.301 208.449 34.2746 208.45 35.2901V72.3174C208.449 73.3329 208.045 74.3065 207.327 75.0246C206.609 75.7427 205.636 76.1466 204.62 76.1478ZM161.634 32.3109C160.845 32.3118 160.087 32.626 159.529 33.1845C158.97 33.743 158.656 34.5003 158.655 35.2901V72.3174C158.656 73.1072 158.97 73.8645 159.529 74.423C160.087 74.9815 160.845 75.2957 161.634 75.2966H204.62C205.41 75.2957 206.167 74.9815 206.726 74.423C207.284 73.8645 207.598 73.1072 207.599 72.3174V35.2901C207.598 34.5003 207.284 33.743 206.726 33.1845C206.167 32.626 205.41 32.3118 204.62 32.3109H161.634Z" fill="#2F2E41"/>
<path d="M198.335 70.4024H167.919C166.96 70.4013 166.041 70.0198 165.362 69.3416C164.684 68.6634 164.303 67.7439 164.302 66.7848V40.8232C164.303 39.8641 164.684 38.9445 165.362 38.2663C166.041 37.5881 166.96 37.2066 167.919 37.2056H198.335C199.294 37.2066 200.214 37.5881 200.892 38.2663C201.57 38.9445 201.952 39.8641 201.953 40.8232V66.7848C201.952 67.7439 201.57 68.6634 200.892 69.3416C200.214 70.0198 199.294 70.4013 198.335 70.4024Z" fill="white"/>
<path d="M183.34 25.9271C184.515 25.9271 185.468 24.9744 185.468 23.7991C185.468 22.6239 184.515 21.6711 183.34 21.6711C182.165 21.6711 181.212 22.6239 181.212 23.7991C181.212 24.9744 182.165 25.9271 183.34 25.9271Z" fill="#F2F2F2"/>
<path d="M187.814 32.1043L183.341 24.6294L178.894 32.103L178.162 31.668L183.339 22.9688L188.545 31.6667L187.814 32.1043Z" fill="#2F2E41"/>
<path d="M188.235 50.8244C188.233 50.1802 188.163 49.5381 188.024 48.9092H181.638C181.186 48.9092 180.753 49.0886 180.434 49.4078C180.115 49.7271 179.935 50.1601 179.935 50.6116V59.7298C182.188 59.5699 184.297 58.5623 185.837 56.9099C187.377 55.2575 188.234 53.0831 188.235 50.8244Z" fill="#F9A826"/>
<path d="M179.297 60.1879C177.531 60.1885 175.801 59.6897 174.306 58.749C172.811 57.8083 171.613 56.4641 170.85 54.8716C170.087 53.279 169.789 51.5031 169.992 49.7488C170.195 47.9945 170.89 46.3333 171.997 44.9571C173.104 43.5809 174.577 42.5457 176.247 41.971C177.917 41.3963 179.715 41.3057 181.434 41.7094C183.153 42.1132 184.723 42.9949 185.963 44.2529C187.202 45.5108 188.061 47.0936 188.439 48.8186L188.552 49.335H181.638C181.299 49.3354 180.975 49.4701 180.735 49.7094C180.496 49.9488 180.361 50.2733 180.361 50.6118V60.1266L179.891 60.1598C179.694 60.1741 179.497 60.1879 179.297 60.1879ZM179.297 42.3126C177.039 42.3126 174.874 43.2094 173.278 44.8057C171.682 46.4021 170.785 48.5671 170.785 50.8246C170.785 53.0822 171.682 55.2472 173.278 56.8435C174.874 58.4399 177.039 59.3367 179.297 59.3367C179.368 59.3367 179.439 59.3346 179.51 59.3313V50.6118C179.51 50.0477 179.735 49.5068 180.134 49.1078C180.533 48.7089 181.073 48.4845 181.638 48.4838H187.478C186.962 46.7104 185.887 45.1513 184.412 44.0391C182.938 42.9269 181.144 42.3213 179.297 42.3126Z" fill="#3F3D56"/>
<path d="M191.852 62.9538H181.638C181.073 62.9532 180.533 62.7288 180.134 62.3298C179.735 61.9309 179.51 61.39 179.51 60.8258V59.3331L179.905 59.305C181.124 59.2209 182.31 58.8748 183.382 58.2904C184.455 57.706 185.388 56.8971 186.119 55.9188C186.851 54.9405 187.362 53.816 187.619 52.6219C187.876 51.4279 187.872 50.1924 187.608 49L187.495 48.4834H191.852C192.416 48.4841 192.957 48.7085 193.356 49.1074C193.755 49.5063 193.979 50.0472 193.98 50.6114V60.8258C193.979 61.39 193.755 61.9309 193.356 62.3298C192.957 62.7288 192.416 62.9532 191.852 62.9538ZM180.361 60.1176V60.8258C180.361 61.1643 180.496 61.4889 180.735 61.7282C180.975 61.9676 181.299 62.1022 181.638 62.1026H191.852C192.191 62.1022 192.515 61.9676 192.754 61.7282C192.994 61.4889 193.128 61.1643 193.129 60.8258V50.6114C193.128 50.2729 192.994 49.9484 192.754 49.709C192.515 49.4696 192.191 49.335 191.852 49.3346H188.538C188.619 49.827 188.659 50.3252 188.66 50.8242C188.652 53.1201 187.803 55.3335 186.274 57.0459C184.745 58.7584 182.641 59.8511 180.361 60.1176Z" fill="#3F3D56"/>
</svg>
