<svg width="273" height="343" viewBox="0 0 273 343" fill="none" xmlns="http://www.w3.org/2000/svg">
<rect width="272.127" height="343" rx="24" fill="white"/>
<path d="M64.3945 271.012H60.3205L59.6205 273H57.9545L61.4405 263.256H63.2885L66.7745 273H65.0945L64.3945 271.012ZM63.9465 269.71L62.3645 265.188L60.7685 269.71H63.9465ZM69.8862 266.42C70.1569 266.065 70.5256 265.767 70.9922 265.524C71.4589 265.281 71.9862 265.16 72.5742 265.16C73.2462 265.16 73.8576 265.328 74.4082 265.664C74.9682 265.991 75.4069 266.453 75.7242 267.05C76.0416 267.647 76.2002 268.333 76.2002 269.108C76.2002 269.883 76.0416 270.578 75.7242 271.194C75.4069 271.801 74.9682 272.277 74.4082 272.622C73.8576 272.958 73.2462 273.126 72.5742 273.126C71.9862 273.126 71.4636 273.009 71.0062 272.776C70.5489 272.533 70.1756 272.235 69.8862 271.88V276.668H68.2902V265.286H69.8862V266.42ZM74.5762 269.108C74.5762 268.576 74.4642 268.119 74.2402 267.736C74.0256 267.344 73.7362 267.05 73.3722 266.854C73.0176 266.649 72.6349 266.546 72.2242 266.546C71.8229 266.546 71.4402 266.649 71.0762 266.854C70.7216 267.059 70.4322 267.358 70.2082 267.75C69.9936 268.142 69.8862 268.604 69.8862 269.136C69.8862 269.668 69.9936 270.135 70.2082 270.536C70.4322 270.928 70.7216 271.227 71.0762 271.432C71.4402 271.637 71.8229 271.74 72.2242 271.74C72.6349 271.74 73.0176 271.637 73.3722 271.432C73.7362 271.217 74.0256 270.909 74.2402 270.508C74.4642 270.107 74.5762 269.64 74.5762 269.108ZM79.3745 266.42C79.6452 266.065 80.0138 265.767 80.4805 265.524C80.9472 265.281 81.4745 265.16 82.0625 265.16C82.7345 265.16 83.3458 265.328 83.8965 265.664C84.4565 265.991 84.8952 266.453 85.2125 267.05C85.5298 267.647 85.6885 268.333 85.6885 269.108C85.6885 269.883 85.5298 270.578 85.2125 271.194C84.8952 271.801 84.4565 272.277 83.8965 272.622C83.3458 272.958 82.7345 273.126 82.0625 273.126C81.4745 273.126 80.9518 273.009 80.4945 272.776C80.0372 272.533 79.6638 272.235 79.3745 271.88V276.668H77.7785V265.286H79.3745V266.42ZM84.0645 269.108C84.0645 268.576 83.9525 268.119 83.7285 267.736C83.5138 267.344 83.2245 267.05 82.8605 266.854C82.5058 266.649 82.1232 266.546 81.7125 266.546C81.3112 266.546 80.9285 266.649 80.5645 266.854C80.2098 267.059 79.9205 267.358 79.6965 267.75C79.4818 268.142 79.3745 268.604 79.3745 269.136C79.3745 269.668 79.4818 270.135 79.6965 270.536C79.9205 270.928 80.2098 271.227 80.5645 271.432C80.9285 271.637 81.3112 271.74 81.7125 271.74C82.1232 271.74 82.5058 271.637 82.8605 271.432C83.2245 271.217 83.5138 270.909 83.7285 270.508C83.9525 270.107 84.0645 269.64 84.0645 269.108ZM88.8628 262.64V273H87.2668V262.64H88.8628ZM97.9022 265.286L93.1702 276.626H91.5182L93.0862 272.874L90.0482 265.286H91.8262L93.9962 271.166L96.2502 265.286H97.9022ZM102.211 268.114C102.211 267.162 102.431 266.308 102.869 265.552C103.317 264.796 103.919 264.208 104.675 263.788C105.441 263.359 106.276 263.144 107.181 263.144C108.217 263.144 109.137 263.401 109.939 263.914C110.751 264.418 111.339 265.137 111.703 266.07H109.785C109.533 265.557 109.183 265.174 108.735 264.922C108.287 264.67 107.769 264.544 107.181 264.544C106.537 264.544 105.963 264.689 105.459 264.978C104.955 265.267 104.559 265.683 104.269 266.224C103.989 266.765 103.849 267.395 103.849 268.114C103.849 268.833 103.989 269.463 104.269 270.004C104.559 270.545 104.955 270.965 105.459 271.264C105.963 271.553 106.537 271.698 107.181 271.698C107.769 271.698 108.287 271.572 108.735 271.32C109.183 271.068 109.533 270.685 109.785 270.172H111.703C111.339 271.105 110.751 271.824 109.939 272.328C109.137 272.832 108.217 273.084 107.181 273.084C106.267 273.084 105.431 272.874 104.675 272.454C103.919 272.025 103.317 271.432 102.869 270.676C102.431 269.92 102.211 269.066 102.211 268.114ZM116.917 273.126C116.189 273.126 115.531 272.963 114.943 272.636C114.355 272.3 113.893 271.833 113.557 271.236C113.221 270.629 113.053 269.929 113.053 269.136C113.053 268.352 113.226 267.657 113.571 267.05C113.917 266.443 114.388 265.977 114.985 265.65C115.583 265.323 116.25 265.16 116.987 265.16C117.725 265.16 118.392 265.323 118.989 265.65C119.587 265.977 120.058 266.443 120.403 267.05C120.749 267.657 120.921 268.352 120.921 269.136C120.921 269.92 120.744 270.615 120.389 271.222C120.035 271.829 119.549 272.3 118.933 272.636C118.327 272.963 117.655 273.126 116.917 273.126ZM116.917 271.74C117.328 271.74 117.711 271.642 118.065 271.446C118.429 271.25 118.723 270.956 118.947 270.564C119.171 270.172 119.283 269.696 119.283 269.136C119.283 268.576 119.176 268.105 118.961 267.722C118.747 267.33 118.462 267.036 118.107 266.84C117.753 266.644 117.37 266.546 116.959 266.546C116.549 266.546 116.166 266.644 115.811 266.84C115.466 267.036 115.191 267.33 114.985 267.722C114.78 268.105 114.677 268.576 114.677 269.136C114.677 269.967 114.887 270.611 115.307 271.068C115.737 271.516 116.273 271.74 116.917 271.74ZM129.485 265.286V273H127.889V272.09C127.637 272.407 127.306 272.659 126.895 272.846C126.494 273.023 126.065 273.112 125.607 273.112C125.001 273.112 124.455 272.986 123.969 272.734C123.493 272.482 123.115 272.109 122.835 271.614C122.565 271.119 122.429 270.522 122.429 269.822V265.286H124.011V269.584C124.011 270.275 124.184 270.807 124.529 271.18C124.875 271.544 125.346 271.726 125.943 271.726C126.541 271.726 127.012 271.544 127.357 271.18C127.712 270.807 127.889 270.275 127.889 269.584V265.286H129.485ZM133.187 266.42C133.458 266.065 133.826 265.767 134.293 265.524C134.76 265.281 135.287 265.16 135.875 265.16C136.547 265.16 137.158 265.328 137.709 265.664C138.269 265.991 138.708 266.453 139.025 267.05C139.342 267.647 139.501 268.333 139.501 269.108C139.501 269.883 139.342 270.578 139.025 271.194C138.708 271.801 138.269 272.277 137.709 272.622C137.158 272.958 136.547 273.126 135.875 273.126C135.287 273.126 134.764 273.009 134.307 272.776C133.85 272.533 133.476 272.235 133.187 271.88V276.668H131.591V265.286H133.187V266.42ZM137.877 269.108C137.877 268.576 137.765 268.119 137.541 267.736C137.326 267.344 137.037 267.05 136.673 266.854C136.318 266.649 135.936 266.546 135.525 266.546C135.124 266.546 134.741 266.649 134.377 266.854C134.022 267.059 133.733 267.358 133.509 267.75C133.294 268.142 133.187 268.604 133.187 269.136C133.187 269.668 133.294 270.135 133.509 270.536C133.733 270.928 134.022 271.227 134.377 271.432C134.741 271.637 135.124 271.74 135.525 271.74C135.936 271.74 136.318 271.637 136.673 271.432C137.037 271.217 137.326 270.909 137.541 270.508C137.765 270.107 137.877 269.64 137.877 269.108ZM144.425 273.126C143.697 273.126 143.039 272.963 142.451 272.636C141.863 272.3 141.401 271.833 141.065 271.236C140.729 270.629 140.561 269.929 140.561 269.136C140.561 268.352 140.734 267.657 141.079 267.05C141.425 266.443 141.896 265.977 142.493 265.65C143.091 265.323 143.758 265.16 144.495 265.16C145.233 265.16 145.9 265.323 146.497 265.65C147.095 265.977 147.566 266.443 147.911 267.05C148.257 267.657 148.429 268.352 148.429 269.136C148.429 269.92 148.252 270.615 147.897 271.222C147.543 271.829 147.057 272.3 146.441 272.636C145.835 272.963 145.163 273.126 144.425 273.126ZM144.425 271.74C144.836 271.74 145.219 271.642 145.573 271.446C145.937 271.25 146.231 270.956 146.455 270.564C146.679 270.172 146.791 269.696 146.791 269.136C146.791 268.576 146.684 268.105 146.469 267.722C146.255 267.33 145.97 267.036 145.615 266.84C145.261 266.644 144.878 266.546 144.467 266.546C144.057 266.546 143.674 266.644 143.319 266.84C142.974 267.036 142.699 267.33 142.493 267.722C142.288 268.105 142.185 268.576 142.185 269.136C142.185 269.967 142.395 270.611 142.815 271.068C143.245 271.516 143.781 271.74 144.425 271.74ZM153.899 265.16C154.506 265.16 155.047 265.286 155.523 265.538C156.008 265.79 156.386 266.163 156.657 266.658C156.928 267.153 157.063 267.75 157.063 268.45V273H155.481V268.688C155.481 267.997 155.308 267.47 154.963 267.106C154.618 266.733 154.146 266.546 153.549 266.546C152.952 266.546 152.476 266.733 152.121 267.106C151.776 267.47 151.603 267.997 151.603 268.688V273H150.007V265.286H151.603V266.168C151.864 265.851 152.196 265.603 152.597 265.426C153.008 265.249 153.442 265.16 153.899 265.16ZM164.598 266.588V270.858C164.598 271.147 164.663 271.357 164.794 271.488C164.934 271.609 165.167 271.67 165.494 271.67H166.474V273H165.214C164.495 273 163.944 272.832 163.562 272.496C163.179 272.16 162.988 271.614 162.988 270.858V266.588H162.078V265.286H162.988V263.368H164.598V265.286H166.474V266.588H164.598ZM171.291 273.126C170.563 273.126 169.905 272.963 169.317 272.636C168.729 272.3 168.267 271.833 167.931 271.236C167.595 270.629 167.427 269.929 167.427 269.136C167.427 268.352 167.599 267.657 167.945 267.05C168.29 266.443 168.761 265.977 169.359 265.65C169.956 265.323 170.623 265.16 171.361 265.16C172.098 265.16 172.765 265.323 173.363 265.65C173.96 265.977 174.431 266.443 174.777 267.05C175.122 267.657 175.295 268.352 175.295 269.136C175.295 269.92 175.117 270.615 174.763 271.222C174.408 271.829 173.923 272.3 173.307 272.636C172.7 272.963 172.028 273.126 171.291 273.126ZM171.291 271.74C171.701 271.74 172.084 271.642 172.439 271.446C172.803 271.25 173.097 270.956 173.321 270.564C173.545 270.172 173.657 269.696 173.657 269.136C173.657 268.576 173.549 268.105 173.335 267.722C173.12 267.33 172.835 267.036 172.481 266.84C172.126 266.644 171.743 266.546 171.333 266.546C170.922 266.546 170.539 266.644 170.185 266.84C169.839 267.036 169.564 267.33 169.359 267.722C169.153 268.105 169.051 268.576 169.051 269.136C169.051 269.967 169.261 270.611 169.681 271.068C170.11 271.516 170.647 271.74 171.291 271.74ZM179.977 269.108C179.977 268.333 180.136 267.647 180.453 267.05C180.78 266.453 181.218 265.991 181.769 265.664C182.329 265.328 182.945 265.16 183.617 265.16C184.224 265.16 184.751 265.281 185.199 265.524C185.656 265.757 186.02 266.051 186.291 266.406V265.286H187.901V273H186.291V271.852C186.02 272.216 185.652 272.519 185.185 272.762C184.718 273.005 184.186 273.126 183.589 273.126C182.926 273.126 182.32 272.958 181.769 272.622C181.218 272.277 180.78 271.801 180.453 271.194C180.136 270.578 179.977 269.883 179.977 269.108ZM186.291 269.136C186.291 268.604 186.179 268.142 185.955 267.75C185.74 267.358 185.456 267.059 185.101 266.854C184.746 266.649 184.364 266.546 183.953 266.546C183.542 266.546 183.16 266.649 182.805 266.854C182.45 267.05 182.161 267.344 181.937 267.736C181.722 268.119 181.615 268.576 181.615 269.108C181.615 269.64 181.722 270.107 181.937 270.508C182.161 270.909 182.45 271.217 182.805 271.432C183.169 271.637 183.552 271.74 183.953 271.74C184.364 271.74 184.746 271.637 185.101 271.432C185.456 271.227 185.74 270.928 185.955 270.536C186.179 270.135 186.291 269.668 186.291 269.136ZM192.979 271.572L195.163 265.286H196.857L193.917 273H192.013L189.087 265.286H190.795L192.979 271.572ZM197.532 269.108C197.532 268.333 197.69 267.647 198.008 267.05C198.334 266.453 198.773 265.991 199.324 265.664C199.884 265.328 200.5 265.16 201.172 265.16C201.778 265.16 202.306 265.281 202.754 265.524C203.211 265.757 203.575 266.051 203.846 266.406V265.286H205.456V273H203.846V271.852C203.575 272.216 203.206 272.519 202.74 272.762C202.273 273.005 201.741 273.126 201.144 273.126C200.481 273.126 199.874 272.958 199.324 272.622C198.773 272.277 198.334 271.801 198.008 271.194C197.69 270.578 197.532 269.883 197.532 269.108ZM203.846 269.136C203.846 268.604 203.734 268.142 203.51 267.75C203.295 267.358 203.01 267.059 202.656 266.854C202.301 266.649 201.918 266.546 201.508 266.546C201.097 266.546 200.714 266.649 200.36 266.854C200.005 267.05 199.716 267.344 199.492 267.736C199.277 268.119 199.17 268.576 199.17 269.108C199.17 269.64 199.277 270.107 199.492 270.508C199.716 270.909 200.005 271.217 200.36 271.432C200.724 271.637 201.106 271.74 201.508 271.74C201.918 271.74 202.301 271.637 202.656 271.432C203.01 271.227 203.295 270.928 203.51 270.536C203.734 270.135 203.846 269.668 203.846 269.136ZM208.364 264.264C208.075 264.264 207.832 264.166 207.636 263.97C207.44 263.774 207.342 263.531 207.342 263.242C207.342 262.953 207.44 262.71 207.636 262.514C207.832 262.318 208.075 262.22 208.364 262.22C208.644 262.22 208.882 262.318 209.078 262.514C209.274 262.71 209.372 262.953 209.372 263.242C209.372 263.531 209.274 263.774 209.078 263.97C208.882 264.166 208.644 264.264 208.364 264.264ZM209.148 265.286V273H207.552V265.286H209.148ZM212.839 262.64V273H211.243V262.64H212.839ZM120.349 294.126C119.621 294.126 118.963 293.963 118.375 293.636C117.787 293.3 117.325 292.833 116.989 292.236C116.653 291.629 116.485 290.929 116.485 290.136C116.485 289.352 116.658 288.657 117.003 288.05C117.348 287.443 117.82 286.977 118.417 286.65C119.014 286.323 119.682 286.16 120.419 286.16C121.156 286.16 121.824 286.323 122.421 286.65C123.018 286.977 123.49 287.443 123.835 288.05C124.18 288.657 124.353 289.352 124.353 290.136C124.353 290.92 124.176 291.615 123.821 292.222C123.466 292.829 122.981 293.3 122.365 293.636C121.758 293.963 121.086 294.126 120.349 294.126ZM120.349 292.74C120.76 292.74 121.142 292.642 121.497 292.446C121.861 292.25 122.155 291.956 122.379 291.564C122.603 291.172 122.715 290.696 122.715 290.136C122.715 289.576 122.608 289.105 122.393 288.722C122.178 288.33 121.894 288.036 121.539 287.84C121.184 287.644 120.802 287.546 120.391 287.546C119.98 287.546 119.598 287.644 119.243 287.84C118.898 288.036 118.622 288.33 118.417 288.722C118.212 289.105 118.109 289.576 118.109 290.136C118.109 290.967 118.319 291.611 118.739 292.068C119.168 292.516 119.705 292.74 120.349 292.74ZM129.165 287.588H127.737V294H126.127V287.588H125.217V286.286H126.127V285.74C126.127 284.853 126.36 284.209 126.827 283.808C127.303 283.397 128.045 283.192 129.053 283.192V284.522C128.568 284.522 128.227 284.615 128.031 284.802C127.835 284.979 127.737 285.292 127.737 285.74V286.286H129.165V287.588ZM133.813 287.588H132.385V294H130.775V287.588H129.865V286.286H130.775V285.74C130.775 284.853 131.009 284.209 131.475 283.808C131.951 283.397 132.693 283.192 133.701 283.192V284.522C133.216 284.522 132.875 284.615 132.679 284.802C132.483 284.979 132.385 285.292 132.385 285.74V286.286H133.813V287.588ZM142.298 289.954C142.298 290.243 142.279 290.505 142.242 290.738H136.348C136.394 291.354 136.623 291.849 137.034 292.222C137.444 292.595 137.948 292.782 138.546 292.782C139.404 292.782 140.011 292.423 140.366 291.704H142.088C141.854 292.413 141.43 292.997 140.814 293.454C140.207 293.902 139.451 294.126 138.546 294.126C137.808 294.126 137.146 293.963 136.558 293.636C135.979 293.3 135.522 292.833 135.186 292.236C134.859 291.629 134.696 290.929 134.696 290.136C134.696 289.343 134.854 288.647 135.172 288.05C135.498 287.443 135.951 286.977 136.53 286.65C137.118 286.323 137.79 286.16 138.546 286.16C139.274 286.16 139.922 286.319 140.492 286.636C141.061 286.953 141.504 287.401 141.822 287.98C142.139 288.549 142.298 289.207 142.298 289.954ZM140.632 289.45C140.622 288.862 140.412 288.391 140.002 288.036C139.591 287.681 139.082 287.504 138.476 287.504C137.925 287.504 137.454 287.681 137.062 288.036C136.67 288.381 136.436 288.853 136.362 289.45H140.632ZM145.464 287.406C145.698 287.014 146.006 286.711 146.388 286.496C146.78 286.272 147.242 286.16 147.774 286.16V287.812H147.368C146.743 287.812 146.267 287.971 145.94 288.288C145.623 288.605 145.464 289.156 145.464 289.94V294H143.868V286.286H145.464V287.406ZM152.041 294.126C151.435 294.126 150.889 294.019 150.403 293.804C149.927 293.58 149.549 293.281 149.269 292.908C148.989 292.525 148.84 292.101 148.821 291.634H150.473C150.501 291.961 150.655 292.236 150.935 292.46C151.225 292.675 151.584 292.782 152.013 292.782C152.461 292.782 152.807 292.698 153.049 292.53C153.301 292.353 153.427 292.129 153.427 291.858C153.427 291.569 153.287 291.354 153.007 291.214C152.737 291.074 152.303 290.92 151.705 290.752C151.127 290.593 150.655 290.439 150.291 290.29C149.927 290.141 149.61 289.912 149.339 289.604C149.078 289.296 148.947 288.89 148.947 288.386C148.947 287.975 149.069 287.602 149.311 287.266C149.554 286.921 149.899 286.65 150.347 286.454C150.805 286.258 151.327 286.16 151.915 286.16C152.793 286.16 153.497 286.384 154.029 286.832C154.571 287.271 154.86 287.873 154.897 288.638H153.301C153.273 288.293 153.133 288.017 152.881 287.812C152.629 287.607 152.289 287.504 151.859 287.504C151.439 287.504 151.117 287.583 150.893 287.742C150.669 287.901 150.557 288.111 150.557 288.372C150.557 288.577 150.632 288.75 150.781 288.89C150.931 289.03 151.113 289.142 151.327 289.226C151.542 289.301 151.859 289.399 152.279 289.52C152.839 289.669 153.297 289.823 153.651 289.982C154.015 290.131 154.328 290.355 154.589 290.654C154.851 290.953 154.986 291.349 154.995 291.844C154.995 292.283 154.874 292.675 154.631 293.02C154.389 293.365 154.043 293.636 153.595 293.832C153.157 294.028 152.639 294.126 152.041 294.126ZM157.364 294.098C157.075 294.098 156.832 294 156.636 293.804C156.44 293.608 156.342 293.365 156.342 293.076C156.342 292.787 156.44 292.544 156.636 292.348C156.832 292.152 157.075 292.054 157.364 292.054C157.644 292.054 157.882 292.152 158.078 292.348C158.274 292.544 158.372 292.787 158.372 293.076C158.372 293.365 158.274 293.608 158.078 293.804C157.882 294 157.644 294.098 157.364 294.098Z" fill="#2E2C43"/>
<path d="M36.5119 54.098C35.8585 54.098 35.2705 53.986 34.7479 53.762C34.2252 53.5287 33.8145 53.202 33.5159 52.782C33.2172 52.362 33.0679 51.872 33.0679 51.312H34.7759C34.8132 51.732 34.9765 52.0773 35.2659 52.348C35.5645 52.6187 35.9799 52.754 36.5119 52.754C37.0625 52.754 37.4919 52.6233 37.7999 52.362C38.1079 52.0913 38.2619 51.746 38.2619 51.326C38.2619 50.9993 38.1639 50.7333 37.9679 50.528C37.7812 50.3227 37.5432 50.164 37.2539 50.052C36.9739 49.94 36.5819 49.8187 36.0779 49.688C35.4432 49.52 34.9252 49.352 34.5239 49.184C34.1319 49.0067 33.7959 48.736 33.5159 48.372C33.2359 48.008 33.0959 47.5227 33.0959 46.916C33.0959 46.356 33.2359 45.866 33.5159 45.446C33.7959 45.026 34.1879 44.704 34.6919 44.48C35.1959 44.256 35.7792 44.144 36.4419 44.144C37.3845 44.144 38.1545 44.382 38.7519 44.858C39.3585 45.3247 39.6945 45.9687 39.7599 46.79H37.9959C37.9679 46.4353 37.7999 46.132 37.4919 45.88C37.1839 45.628 36.7779 45.502 36.2739 45.502C35.8165 45.502 35.4432 45.6187 35.1539 45.852C34.8645 46.0853 34.7199 46.4213 34.7199 46.86C34.7199 47.1587 34.8085 47.406 34.9859 47.602C35.1725 47.7887 35.4059 47.938 35.6859 48.05C35.9659 48.162 36.3485 48.2833 36.8339 48.414C37.4779 48.5913 38.0005 48.7687 38.4019 48.946C38.8125 49.1233 39.1579 49.3987 39.4379 49.772C39.7272 50.136 39.8719 50.626 39.8719 51.242C39.8719 51.7367 39.7365 52.2033 39.4659 52.642C39.2045 53.0807 38.8172 53.4353 38.3039 53.706C37.7999 53.9673 37.2025 54.098 36.5119 54.098ZM43.6171 47.588V51.858C43.6171 52.1473 43.6824 52.3573 43.8131 52.488C43.9531 52.6093 44.1864 52.67 44.5131 52.67H45.4931V54H44.2331C43.5144 54 42.9637 53.832 42.5811 53.496C42.1984 53.16 42.0071 52.614 42.0071 51.858V47.588H41.0971V46.286H42.0071V44.368H43.6171V46.286H45.4931V47.588H43.6171ZM54.0341 49.954C54.0341 50.2433 54.0154 50.5047 53.9781 50.738H48.0841C48.1307 51.354 48.3594 51.8487 48.7701 52.222C49.1807 52.5953 49.6847 52.782 50.2821 52.782C51.1407 52.782 51.7474 52.4227 52.1021 51.704H53.8241C53.5907 52.4133 53.1661 52.9967 52.5501 53.454C51.9434 53.902 51.1874 54.126 50.2821 54.126C49.5447 54.126 48.8821 53.9627 48.2941 53.636C47.7154 53.3 47.2581 52.8333 46.9221 52.236C46.5954 51.6293 46.4321 50.9293 46.4321 50.136C46.4321 49.3427 46.5907 48.6473 46.9081 48.05C47.2347 47.4433 47.6874 46.9767 48.2661 46.65C48.8541 46.3233 49.5261 46.16 50.2821 46.16C51.0101 46.16 51.6587 46.3187 52.2281 46.636C52.7974 46.9533 53.2407 47.4013 53.5581 47.98C53.8754 48.5493 54.0341 49.2073 54.0341 49.954ZM52.3681 49.45C52.3587 48.862 52.1487 48.3907 51.7381 48.036C51.3274 47.6813 50.8187 47.504 50.2121 47.504C49.6614 47.504 49.1901 47.6813 48.7981 48.036C48.4061 48.3813 48.1727 48.8527 48.0981 49.45H52.3681ZM57.2007 47.42C57.4714 47.0653 57.84 46.7667 58.3067 46.524C58.7734 46.2813 59.3007 46.16 59.8887 46.16C60.5607 46.16 61.172 46.328 61.7227 46.664C62.2827 46.9907 62.7214 47.4527 63.0387 48.05C63.356 48.6473 63.5147 49.3333 63.5147 50.108C63.5147 50.8827 63.356 51.578 63.0387 52.194C62.7214 52.8007 62.2827 53.2767 61.7227 53.622C61.172 53.958 60.5607 54.126 59.8887 54.126C59.3007 54.126 58.778 54.0093 58.3207 53.776C57.8634 53.5333 57.49 53.2347 57.2007 52.88V57.668H55.6047V46.286H57.2007V47.42ZM61.8907 50.108C61.8907 49.576 61.7787 49.1187 61.5547 48.736C61.34 48.344 61.0507 48.05 60.6867 47.854C60.332 47.6487 59.9494 47.546 59.5387 47.546C59.1374 47.546 58.7547 47.6487 58.3907 47.854C58.036 48.0593 57.7467 48.358 57.5227 48.75C57.308 49.142 57.2007 49.604 57.2007 50.136C57.2007 50.668 57.308 51.1347 57.5227 51.536C57.7467 51.928 58.036 52.2267 58.3907 52.432C58.7547 52.6373 59.1374 52.74 59.5387 52.74C59.9494 52.74 60.332 52.6373 60.6867 52.432C61.0507 52.2173 61.34 51.9093 61.5547 51.508C61.7787 51.1067 61.8907 50.64 61.8907 50.108ZM68.3237 51.872V50.668L73.0277 43.92H74.9597V50.486H76.2617V51.872H74.9597V54H73.3917V51.872H68.3237ZM73.4617 45.544L70.1577 50.486H73.4617V45.544Z" fill="black"/>
<path d="M35.8143 113.824H33.3296L32.9313 115H31.2336L33.6425 108.342H35.5203L37.9293 115H36.2127L35.8143 113.824ZM35.3971 112.572L34.572 110.135L33.7563 112.572H35.3971ZM40.2841 110.457C40.4422 110.211 40.6603 110.011 40.9385 109.86C41.2167 109.708 41.5423 109.632 41.9154 109.632C42.3516 109.632 42.7468 109.743 43.1009 109.964C43.4549 110.185 43.7331 110.501 43.9354 110.912C44.1441 111.323 44.2484 111.801 44.2484 112.345C44.2484 112.888 44.1441 113.369 43.9354 113.786C43.7331 114.197 43.4549 114.516 43.1009 114.744C42.7468 114.965 42.3516 115.076 41.9154 115.076C41.5487 115.076 41.223 115 40.9385 114.848C40.6603 114.697 40.4422 114.501 40.2841 114.26V117.523H38.6624V109.708H40.2841V110.457ZM42.5982 112.345C42.5982 111.94 42.4844 111.624 42.2568 111.396C42.0355 111.162 41.7605 111.045 41.4317 111.045C41.1092 111.045 40.8342 111.162 40.6066 111.396C40.3853 111.63 40.2747 111.949 40.2747 112.354C40.2747 112.759 40.3853 113.078 40.6066 113.312C40.8342 113.546 41.1092 113.663 41.4317 113.663C41.7541 113.663 42.0292 113.546 42.2568 113.312C42.4844 113.072 42.5982 112.749 42.5982 112.345ZM46.721 110.457C46.879 110.211 47.0972 110.011 47.3753 109.86C47.6535 109.708 47.9792 109.632 48.3522 109.632C48.7884 109.632 49.1836 109.743 49.5377 109.964C49.8917 110.185 50.1699 110.501 50.3723 110.912C50.5809 111.323 50.6852 111.801 50.6852 112.345C50.6852 112.888 50.5809 113.369 50.3723 113.786C50.1699 114.197 49.8917 114.516 49.5377 114.744C49.1836 114.965 48.7884 115.076 48.3522 115.076C47.9855 115.076 47.6599 115 47.3753 114.848C47.0972 114.697 46.879 114.501 46.721 114.26V117.523H45.0992V109.708H46.721V110.457ZM49.035 112.345C49.035 111.94 48.9212 111.624 48.6936 111.396C48.4723 111.162 48.1973 111.045 47.8685 111.045C47.5461 111.045 47.271 111.162 47.0434 111.396C46.8221 111.63 46.7115 111.949 46.7115 112.354C46.7115 112.759 46.8221 113.078 47.0434 113.312C47.271 113.546 47.5461 113.663 47.8685 113.663C48.191 113.663 48.466 113.546 48.6936 113.312C48.9212 113.072 49.035 112.749 49.035 112.345ZM53.1578 107.982V115H51.536V107.982H53.1578ZM59.7388 109.708L56.4195 117.513H54.6744L55.8884 114.82L53.7355 109.708H55.547L56.7704 113.018L57.9843 109.708H59.7388ZM62.06 111.662C62.06 111.004 62.2023 110.419 62.4868 109.907C62.7713 109.389 63.1665 108.987 63.6723 108.703C64.1844 108.412 64.7629 108.266 65.4078 108.266C66.1982 108.266 66.8747 108.475 67.4374 108.892C68.0001 109.31 68.3763 109.879 68.566 110.599H66.783C66.6502 110.321 66.4605 110.109 66.214 109.964C65.9737 109.819 65.6987 109.746 65.3889 109.746C64.8894 109.746 64.4847 109.92 64.1749 110.268C63.8651 110.615 63.7102 111.08 63.7102 111.662C63.7102 112.243 63.8651 112.708 64.1749 113.056C64.4847 113.404 64.8894 113.577 65.3889 113.577C65.6987 113.577 65.9737 113.505 66.214 113.359C66.4605 113.214 66.6502 113.002 66.783 112.724H68.566C68.3763 113.445 68.0001 114.014 67.4374 114.431C66.8747 114.842 66.1982 115.047 65.4078 115.047C64.7629 115.047 64.1844 114.905 63.6723 114.621C63.1665 114.33 62.7713 113.928 62.4868 113.416C62.2023 112.904 62.06 112.319 62.06 111.662ZM71.968 115.076C71.4496 115.076 70.9817 114.965 70.5644 114.744C70.1534 114.523 69.8278 114.207 69.5876 113.796C69.3536 113.385 69.2366 112.904 69.2366 112.354C69.2366 111.81 69.3568 111.333 69.597 110.922C69.8373 110.505 70.1661 110.185 70.5834 109.964C71.0006 109.743 71.4685 109.632 71.987 109.632C72.5054 109.632 72.9733 109.743 73.3906 109.964C73.8079 110.185 74.1367 110.505 74.3769 110.922C74.6172 111.333 74.7373 111.81 74.7373 112.354C74.7373 112.898 74.614 113.378 74.3674 113.796C74.1272 114.207 73.7952 114.523 73.3716 114.744C72.9543 114.965 72.4865 115.076 71.968 115.076ZM71.968 113.672C72.2778 113.672 72.5402 113.558 72.7552 113.331C72.9765 113.103 73.0871 112.778 73.0871 112.354C73.0871 111.93 72.9796 111.605 72.7647 111.377C72.556 111.15 72.2968 111.036 71.987 111.036C71.6708 111.036 71.4085 111.15 71.1998 111.377C70.9912 111.598 70.8868 111.924 70.8868 112.354C70.8868 112.778 70.988 113.103 71.1903 113.331C71.399 113.558 71.6582 113.672 71.968 113.672ZM80.8233 109.708V115H79.2015V114.279C79.0371 114.513 78.8127 114.703 78.5282 114.848C78.25 114.987 77.9402 115.057 77.5988 115.057C77.1941 115.057 76.8369 114.968 76.5271 114.791C76.2173 114.608 75.977 114.346 75.8063 114.004C75.6356 113.663 75.5502 113.261 75.5502 112.8V109.708H77.1625V112.582C77.1625 112.936 77.2542 113.211 77.4375 113.407C77.6209 113.603 77.8675 113.701 78.1773 113.701C78.4934 113.701 78.7431 113.603 78.9265 113.407C79.1099 113.211 79.2015 112.936 79.2015 112.582V109.708H80.8233ZM83.6099 110.457C83.768 110.211 83.9861 110.011 84.2643 109.86C84.5425 109.708 84.8681 109.632 85.2411 109.632C85.6774 109.632 86.0726 109.743 86.4266 109.964C86.7807 110.185 87.0589 110.501 87.2612 110.912C87.4698 111.323 87.5742 111.801 87.5742 112.345C87.5742 112.888 87.4698 113.369 87.2612 113.786C87.0589 114.197 86.7807 114.516 86.4266 114.744C86.0726 114.965 85.6774 115.076 85.2411 115.076C84.8744 115.076 84.5488 115 84.2643 114.848C83.9861 114.697 83.768 114.501 83.6099 114.26V117.523H81.9882V109.708H83.6099V110.457ZM85.924 112.345C85.924 111.94 85.8102 111.624 85.5826 111.396C85.3613 111.162 85.0862 111.045 84.7575 111.045C84.435 111.045 84.16 111.162 83.9324 111.396C83.7111 111.63 83.6004 111.949 83.6004 112.354C83.6004 112.759 83.7111 113.078 83.9324 113.312C84.16 113.546 84.435 113.663 84.7575 113.663C85.0799 113.663 85.3549 113.546 85.5826 113.312C85.8102 113.072 85.924 112.749 85.924 112.345ZM90.8339 115.076C90.3154 115.076 89.8476 114.965 89.4303 114.744C89.0193 114.523 88.6937 114.207 88.4534 113.796C88.2195 113.385 88.1025 112.904 88.1025 112.354C88.1025 111.81 88.2227 111.333 88.4629 110.922C88.7032 110.505 89.0319 110.185 89.4492 109.964C89.8665 109.743 90.3344 109.632 90.8529 109.632C91.3713 109.632 91.8392 109.743 92.2565 109.964C92.6738 110.185 93.0025 110.505 93.2428 110.922C93.483 111.333 93.6032 111.81 93.6032 112.354C93.6032 112.898 93.4799 113.378 93.2333 113.796C92.993 114.207 92.6611 114.523 92.2375 114.744C91.8202 114.965 91.3523 115.076 90.8339 115.076ZM90.8339 113.672C91.1437 113.672 91.4061 113.558 91.621 113.331C91.8423 113.103 91.953 112.778 91.953 112.354C91.953 111.93 91.8455 111.605 91.6305 111.377C91.4219 111.15 91.1627 111.036 90.8529 111.036C90.5367 111.036 90.2743 111.15 90.0657 111.377C89.857 111.598 89.7527 111.924 89.7527 112.354C89.7527 112.778 89.8539 113.103 90.0562 113.331C90.2649 113.558 90.5241 113.672 90.8339 113.672ZM97.6881 109.651C98.3077 109.651 98.8008 109.853 99.1675 110.258C99.5406 110.656 99.7271 111.206 99.7271 111.908V115H98.1148V112.126C98.1148 111.772 98.0232 111.497 97.8398 111.301C97.6564 111.105 97.4099 111.007 97.1001 111.007C96.7903 111.007 96.5437 111.105 96.3603 111.301C96.177 111.497 96.0853 111.772 96.0853 112.126V115H94.4635V109.708H96.0853V110.41C96.2497 110.176 96.471 109.993 96.7492 109.86C97.0274 109.721 97.3403 109.651 97.6881 109.651Z" fill="#2E2C43"/>
<path d="M105.894 195.114H103.409L103.011 196.29H101.313L103.722 189.633H105.6L108.009 196.29H106.292L105.894 195.114ZM105.477 193.862L104.651 191.425L103.836 193.862H105.477ZM110.364 191.748C110.522 191.501 110.74 191.302 111.018 191.15C111.296 190.998 111.622 190.922 111.995 190.922C112.431 190.922 112.826 191.033 113.18 191.254C113.534 191.476 113.813 191.792 114.015 192.203C114.224 192.614 114.328 193.091 114.328 193.635C114.328 194.179 114.224 194.659 114.015 195.076C113.813 195.487 113.534 195.807 113.18 196.034C112.826 196.256 112.431 196.366 111.995 196.366C111.628 196.366 111.303 196.29 111.018 196.139C110.74 195.987 110.522 195.791 110.364 195.551V198.813H108.742V190.998H110.364V191.748ZM112.678 193.635C112.678 193.23 112.564 192.914 112.336 192.686C112.115 192.452 111.84 192.336 111.511 192.336C111.189 192.336 110.914 192.452 110.686 192.686C110.465 192.92 110.354 193.24 110.354 193.644C110.354 194.049 110.465 194.368 110.686 194.602C110.914 194.836 111.189 194.953 111.511 194.953C111.834 194.953 112.109 194.836 112.336 194.602C112.564 194.362 112.678 194.039 112.678 193.635ZM116.8 191.748C116.958 191.501 117.177 191.302 117.455 191.15C117.733 190.998 118.059 190.922 118.432 190.922C118.868 190.922 119.263 191.033 119.617 191.254C119.971 191.476 120.249 191.792 120.452 192.203C120.66 192.614 120.765 193.091 120.765 193.635C120.765 194.179 120.66 194.659 120.452 195.076C120.249 195.487 119.971 195.807 119.617 196.034C119.263 196.256 118.868 196.366 118.432 196.366C118.065 196.366 117.739 196.29 117.455 196.139C117.177 195.987 116.958 195.791 116.8 195.551V198.813H115.179V190.998H116.8V191.748ZM119.114 193.635C119.114 193.23 119.001 192.914 118.773 192.686C118.552 192.452 118.277 192.336 117.948 192.336C117.626 192.336 117.35 192.452 117.123 192.686C116.902 192.92 116.791 193.24 116.791 193.644C116.791 194.049 116.902 194.368 117.123 194.602C117.35 194.836 117.626 194.953 117.948 194.953C118.27 194.953 118.545 194.836 118.773 194.602C119.001 194.362 119.114 194.039 119.114 193.635ZM123.237 189.272V196.29H121.615V189.272H123.237ZM129.818 190.998L126.499 198.804H124.754L125.968 196.11L123.815 190.998H125.626L126.85 194.308L128.064 190.998H129.818ZM134.149 192.952C134.149 192.294 134.291 191.71 134.576 191.197C134.861 190.679 135.256 190.278 135.761 189.993C136.274 189.702 136.852 189.557 137.497 189.557C138.287 189.557 138.964 189.765 139.527 190.183C140.089 190.6 140.466 191.169 140.655 191.89H138.872C138.739 191.612 138.55 191.4 138.303 191.254C138.063 191.109 137.788 191.036 137.478 191.036C136.979 191.036 136.574 191.21 136.264 191.558C135.954 191.906 135.799 192.37 135.799 192.952C135.799 193.534 135.954 193.998 136.264 194.346C136.574 194.694 136.979 194.868 137.478 194.868C137.788 194.868 138.063 194.795 138.303 194.65C138.55 194.504 138.739 194.292 138.872 194.014H140.655C140.466 194.735 140.089 195.304 139.527 195.721C138.964 196.132 138.287 196.338 137.497 196.338C136.852 196.338 136.274 196.195 135.761 195.911C135.256 195.62 134.861 195.219 134.576 194.706C134.291 194.194 134.149 193.61 134.149 192.952ZM144.057 196.366C143.539 196.366 143.071 196.256 142.654 196.034C142.243 195.813 141.917 195.497 141.677 195.086C141.443 194.675 141.326 194.194 141.326 193.644C141.326 193.101 141.446 192.623 141.686 192.212C141.927 191.795 142.255 191.476 142.673 191.254C143.09 191.033 143.558 190.922 144.076 190.922C144.595 190.922 145.063 191.033 145.48 191.254C145.897 191.476 146.226 191.795 146.466 192.212C146.706 192.623 146.827 193.101 146.827 193.644C146.827 194.188 146.703 194.669 146.457 195.086C146.216 195.497 145.884 195.813 145.461 196.034C145.044 196.256 144.576 196.366 144.057 196.366ZM144.057 194.963C144.367 194.963 144.629 194.849 144.844 194.621C145.066 194.394 145.176 194.068 145.176 193.644C145.176 193.221 145.069 192.895 144.854 192.667C144.645 192.44 144.386 192.326 144.076 192.326C143.76 192.326 143.498 192.44 143.289 192.667C143.08 192.889 142.976 193.214 142.976 193.644C142.976 194.068 143.077 194.394 143.28 194.621C143.488 194.849 143.747 194.963 144.057 194.963ZM152.912 190.998V196.29H151.291V195.57C151.126 195.803 150.902 195.993 150.617 196.139C150.339 196.278 150.029 196.347 149.688 196.347C149.283 196.347 148.926 196.259 148.616 196.082C148.306 195.898 148.066 195.636 147.896 195.294C147.725 194.953 147.639 194.552 147.639 194.09V190.998H149.252V193.872C149.252 194.226 149.343 194.501 149.527 194.697C149.71 194.893 149.957 194.991 150.266 194.991C150.583 194.991 150.832 194.893 151.016 194.697C151.199 194.501 151.291 194.226 151.291 193.872V190.998H152.912ZM155.699 191.748C155.857 191.501 156.075 191.302 156.354 191.15C156.632 190.998 156.957 190.922 157.33 190.922C157.767 190.922 158.162 191.033 158.516 191.254C158.87 191.476 159.148 191.792 159.35 192.203C159.559 192.614 159.663 193.091 159.663 193.635C159.663 194.179 159.559 194.659 159.35 195.076C159.148 195.487 158.87 195.807 158.516 196.034C158.162 196.256 157.767 196.366 157.33 196.366C156.964 196.366 156.638 196.29 156.354 196.139C156.075 195.987 155.857 195.791 155.699 195.551V198.813H154.077V190.998H155.699V191.748ZM158.013 193.635C158.013 193.23 157.899 192.914 157.672 192.686C157.45 192.452 157.175 192.336 156.847 192.336C156.524 192.336 156.249 192.452 156.022 192.686C155.8 192.92 155.69 193.24 155.69 193.644C155.69 194.049 155.8 194.368 156.022 194.602C156.249 194.836 156.524 194.953 156.847 194.953C157.169 194.953 157.444 194.836 157.672 194.602C157.899 194.362 158.013 194.039 158.013 193.635ZM162.923 196.366C162.405 196.366 161.937 196.256 161.519 196.034C161.109 195.813 160.783 195.497 160.543 195.086C160.309 194.675 160.192 194.194 160.192 193.644C160.192 193.101 160.312 192.623 160.552 192.212C160.792 191.795 161.121 191.476 161.538 191.254C161.956 191.033 162.424 190.922 162.942 190.922C163.461 190.922 163.928 191.033 164.346 191.254C164.763 191.476 165.092 191.795 165.332 192.212C165.572 192.623 165.692 193.101 165.692 193.644C165.692 194.188 165.569 194.669 165.323 195.086C165.082 195.497 164.75 195.813 164.327 196.034C163.909 196.256 163.442 196.366 162.923 196.366ZM162.923 194.963C163.233 194.963 163.495 194.849 163.71 194.621C163.932 194.394 164.042 194.068 164.042 193.644C164.042 193.221 163.935 192.895 163.72 192.667C163.511 192.44 163.252 192.326 162.942 192.326C162.626 192.326 162.364 192.44 162.155 192.667C161.946 192.889 161.842 193.214 161.842 193.644C161.842 194.068 161.943 194.394 162.145 194.621C162.354 194.849 162.613 194.963 162.923 194.963ZM169.777 190.941C170.397 190.941 170.89 191.144 171.257 191.548C171.63 191.947 171.816 192.497 171.816 193.199V196.29H170.204V193.417C170.204 193.063 170.112 192.788 169.929 192.592C169.746 192.396 169.499 192.298 169.189 192.298C168.879 192.298 168.633 192.396 168.45 192.592C168.266 192.788 168.175 193.063 168.175 193.417V196.29H166.553V190.998H168.175V191.7C168.339 191.466 168.56 191.283 168.838 191.15C169.117 191.011 169.43 190.941 169.777 190.941Z" fill="#FB8C00"/>
<rect x="28" y="123.968" width="219.484" height="36.5807" rx="10.8387" fill="#F9F9F9"/>
<rect x="28.1694" y="124.137" width="219.145" height="36.242" rx="10.6694" stroke="#2E2C43" stroke-opacity="0.1" stroke-width="0.33871"/>
<path d="M110.385 138.864V139.936H108.621V145.484H107.293V139.936H105.529V138.864H110.385ZM116.38 140.23L113.127 147.969H111.714L112.852 145.351L110.747 140.23H112.236L113.592 143.9L114.967 140.23H116.38ZM118.424 140.989C118.594 140.748 118.828 140.549 119.126 140.391C119.429 140.227 119.774 140.144 120.159 140.144C120.608 140.144 121.013 140.255 121.373 140.476C121.74 140.698 122.028 141.014 122.236 141.425C122.451 141.829 122.559 142.3 122.559 142.838C122.559 143.375 122.451 143.853 122.236 144.27C122.028 144.681 121.74 145 121.373 145.228C121.013 145.455 120.608 145.569 120.159 145.569C119.774 145.569 119.432 145.49 119.135 145.332C118.844 145.174 118.607 144.975 118.424 144.735V147.988H117.096V140.23H118.424V140.989ZM121.203 142.838C121.203 142.522 121.136 142.25 121.003 142.022C120.877 141.788 120.706 141.611 120.491 141.491C120.283 141.371 120.055 141.311 119.808 141.311C119.568 141.311 119.341 141.374 119.126 141.501C118.917 141.621 118.746 141.798 118.613 142.032C118.487 142.266 118.424 142.541 118.424 142.857C118.424 143.173 118.487 143.448 118.613 143.682C118.746 143.916 118.917 144.096 119.126 144.223C119.341 144.343 119.568 144.403 119.808 144.403C120.055 144.403 120.283 144.339 120.491 144.213C120.706 144.087 120.877 143.906 121.003 143.672C121.136 143.439 121.203 143.16 121.203 142.838ZM128.408 142.743C128.408 142.933 128.395 143.103 128.37 143.255H124.529C124.561 143.635 124.693 143.932 124.927 144.147C125.161 144.362 125.449 144.469 125.79 144.469C126.283 144.469 126.634 144.257 126.843 143.834H128.275C128.123 144.339 127.832 144.757 127.403 145.086C126.973 145.408 126.445 145.569 125.819 145.569C125.313 145.569 124.858 145.459 124.453 145.237C124.055 145.01 123.742 144.69 123.514 144.279C123.293 143.868 123.182 143.394 123.182 142.857C123.182 142.313 123.293 141.836 123.514 141.425C123.735 141.014 124.045 140.698 124.444 140.476C124.842 140.255 125.3 140.144 125.819 140.144C126.318 140.144 126.764 140.252 127.156 140.467C127.554 140.682 127.861 140.989 128.076 141.387C128.297 141.779 128.408 142.231 128.408 142.743ZM127.033 142.364C127.026 142.022 126.903 141.75 126.663 141.548C126.423 141.339 126.129 141.235 125.781 141.235C125.452 141.235 125.174 141.336 124.946 141.539C124.725 141.735 124.589 142.01 124.538 142.364H127.033ZM134.596 140.154C134.994 140.154 135.348 140.242 135.658 140.419C135.968 140.59 136.208 140.846 136.379 141.188C136.556 141.523 136.644 141.927 136.644 142.402V145.484H135.317V142.582C135.317 142.165 135.212 141.845 135.004 141.624C134.795 141.396 134.51 141.283 134.15 141.283C133.783 141.283 133.492 141.396 133.277 141.624C133.069 141.845 132.965 142.165 132.965 142.582V145.484H131.637V138.466H132.965V140.884C133.135 140.657 133.363 140.48 133.647 140.353C133.932 140.22 134.248 140.154 134.596 140.154ZM142.791 142.743C142.791 142.933 142.778 143.103 142.753 143.255H138.912C138.944 143.635 139.077 143.932 139.31 144.147C139.544 144.362 139.832 144.469 140.174 144.469C140.667 144.469 141.018 144.257 141.226 143.834H142.658C142.507 144.339 142.216 144.757 141.786 145.086C141.356 145.408 140.828 145.569 140.202 145.569C139.696 145.569 139.241 145.459 138.836 145.237C138.438 145.01 138.125 144.69 137.897 144.279C137.676 143.868 137.565 143.394 137.565 142.857C137.565 142.313 137.676 141.836 137.897 141.425C138.119 141.014 138.428 140.698 138.827 140.476C139.225 140.255 139.684 140.144 140.202 140.144C140.701 140.144 141.147 140.252 141.539 140.467C141.938 140.682 142.244 140.989 142.459 141.387C142.68 141.779 142.791 142.231 142.791 142.743ZM141.416 142.364C141.41 142.022 141.286 141.75 141.046 141.548C140.806 141.339 140.512 141.235 140.164 141.235C139.835 141.235 139.557 141.336 139.329 141.539C139.108 141.735 138.972 142.01 138.922 142.364H141.416ZM145.088 141.045C145.259 140.767 145.48 140.549 145.752 140.391C146.03 140.233 146.346 140.154 146.7 140.154V141.548H146.349C145.932 141.548 145.616 141.646 145.401 141.842C145.192 142.038 145.088 142.379 145.088 142.866V145.484H143.76V140.23H145.088V141.045ZM152.479 142.743C152.479 142.933 152.466 143.103 152.441 143.255H148.6C148.631 143.635 148.764 143.932 148.998 144.147C149.232 144.362 149.52 144.469 149.861 144.469C150.354 144.469 150.705 144.257 150.914 143.834H152.346C152.194 144.339 151.903 144.757 151.473 145.086C151.043 145.408 150.516 145.569 149.89 145.569C149.384 145.569 148.929 145.459 148.524 145.237C148.126 145.01 147.813 144.69 147.585 144.279C147.364 143.868 147.253 143.394 147.253 142.857C147.253 142.313 147.364 141.836 147.585 141.425C147.806 141.014 148.116 140.698 148.514 140.476C148.913 140.255 149.371 140.144 149.89 140.144C150.389 140.144 150.835 140.252 151.227 140.467C151.625 140.682 151.932 140.989 152.147 141.387C152.368 141.779 152.479 142.231 152.479 142.743ZM151.104 142.364C151.097 142.022 150.974 141.75 150.734 141.548C150.493 141.339 150.199 141.235 149.852 141.235C149.523 141.235 149.245 141.336 149.017 141.539C148.796 141.735 148.66 142.01 148.609 142.364H151.104ZM154.036 145.55C153.796 145.55 153.596 145.478 153.438 145.332C153.287 145.18 153.211 144.994 153.211 144.773C153.211 144.551 153.287 144.368 153.438 144.223C153.596 144.071 153.796 143.995 154.036 143.995C154.27 143.995 154.463 144.071 154.614 144.223C154.766 144.368 154.842 144.551 154.842 144.773C154.842 144.994 154.766 145.18 154.614 145.332C154.463 145.478 154.27 145.55 154.036 145.55ZM156.499 145.55C156.259 145.55 156.06 145.478 155.902 145.332C155.75 145.18 155.674 144.994 155.674 144.773C155.674 144.551 155.75 144.368 155.902 144.223C156.06 144.071 156.259 143.995 156.499 143.995C156.733 143.995 156.926 144.071 157.078 144.223C157.23 144.368 157.306 144.551 157.306 144.773C157.306 144.994 157.23 145.18 157.078 145.332C156.926 145.478 156.733 145.55 156.499 145.55ZM158.963 145.55C158.723 145.55 158.524 145.478 158.366 145.332C158.214 145.18 158.138 144.994 158.138 144.773C158.138 144.551 158.214 144.368 158.366 144.223C158.524 144.071 158.723 143.995 158.963 143.995C159.197 143.995 159.39 144.071 159.542 144.223C159.693 144.368 159.769 144.551 159.769 144.773C159.769 144.994 159.693 145.18 159.542 145.332C159.39 145.478 159.197 145.55 158.963 145.55ZM161.427 145.55C161.186 145.55 160.987 145.478 160.829 145.332C160.677 145.18 160.601 144.994 160.601 144.773C160.601 144.551 160.677 144.368 160.829 144.223C160.987 144.071 161.186 143.995 161.427 143.995C161.661 143.995 161.853 144.071 162.005 144.223C162.157 144.368 162.233 144.551 162.233 144.773C162.233 144.994 162.157 145.18 162.005 145.332C161.853 145.478 161.661 145.55 161.427 145.55ZM163.89 145.55C163.65 145.55 163.451 145.478 163.293 145.332C163.141 145.18 163.065 144.994 163.065 144.773C163.065 144.551 163.141 144.368 163.293 144.223C163.451 144.071 163.65 143.995 163.89 143.995C164.124 143.995 164.317 144.071 164.469 144.223C164.62 144.368 164.696 144.551 164.696 144.773C164.696 144.994 164.62 145.18 164.469 145.332C164.317 145.478 164.124 145.55 163.89 145.55Z" fill="#558B2F"/>
<rect x="31.7257" y="177.145" width="212.71" height="32.5162" stroke="#FB8C00" stroke-width="0.67742"/>
</svg>
