<svg width="401" height="530" viewBox="0 0 401 530" fill="none" xmlns="http://www.w3.org/2000/svg">
<g filter="url(#filter0_d_1165_3)">
<path d="M283.296 90.885H97.8423C93.9955 90.885 90.877 98.7326 90.877 108.413V402.008C90.877 411.689 93.9955 419.536 97.8423 419.536H283.296C287.143 419.536 290.261 411.689 290.261 402.008V108.413C290.261 98.7326 287.143 90.885 283.296 90.885Z" fill="white"/>
</g>
<rect x="73" y="77" width="272.127" height="343" rx="24" fill="white"/>
<path d="M149.357 347.098C148.703 347.098 148.115 346.986 147.593 346.762C147.07 346.529 146.659 346.202 146.361 345.782C146.062 345.362 145.913 344.872 145.913 344.312H147.621C147.658 344.732 147.821 345.077 148.111 345.348C148.409 345.619 148.825 345.754 149.357 345.754C149.907 345.754 150.337 345.623 150.645 345.362C150.953 345.091 151.107 344.746 151.107 344.326C151.107 343.999 151.009 343.733 150.813 343.528C150.626 343.323 150.388 343.164 150.099 343.052C149.819 342.94 149.427 342.819 148.923 342.688C148.288 342.52 147.77 342.352 147.369 342.184C146.977 342.007 146.641 341.736 146.361 341.372C146.081 341.008 145.941 340.523 145.941 339.916C145.941 339.356 146.081 338.866 146.361 338.446C146.641 338.026 147.033 337.704 147.537 337.48C148.041 337.256 148.624 337.144 149.287 337.144C150.229 337.144 150.999 337.382 151.597 337.858C152.203 338.325 152.539 338.969 152.605 339.79H150.841C150.813 339.435 150.645 339.132 150.337 338.88C150.029 338.628 149.623 338.502 149.119 338.502C148.661 338.502 148.288 338.619 147.999 338.852C147.709 339.085 147.565 339.421 147.565 339.86C147.565 340.159 147.653 340.406 147.831 340.602C148.017 340.789 148.251 340.938 148.531 341.05C148.811 341.162 149.193 341.283 149.679 341.414C150.323 341.591 150.845 341.769 151.247 341.946C151.657 342.123 152.003 342.399 152.283 342.772C152.572 343.136 152.717 343.626 152.717 344.242C152.717 344.737 152.581 345.203 152.311 345.642C152.049 346.081 151.662 346.435 151.149 346.706C150.645 346.967 150.047 347.098 149.357 347.098ZM161.67 342.954C161.67 343.243 161.651 343.505 161.614 343.738H155.72C155.766 344.354 155.995 344.849 156.406 345.222C156.816 345.595 157.32 345.782 157.918 345.782C158.776 345.782 159.383 345.423 159.738 344.704H161.46C161.226 345.413 160.802 345.997 160.186 346.454C159.579 346.902 158.823 347.126 157.918 347.126C157.18 347.126 156.518 346.963 155.93 346.636C155.351 346.3 154.894 345.833 154.558 345.236C154.231 344.629 154.068 343.929 154.068 343.136C154.068 342.343 154.226 341.647 154.544 341.05C154.87 340.443 155.323 339.977 155.902 339.65C156.49 339.323 157.162 339.16 157.918 339.16C158.646 339.16 159.294 339.319 159.864 339.636C160.433 339.953 160.876 340.401 161.194 340.98C161.511 341.549 161.67 342.207 161.67 342.954ZM160.004 342.45C159.994 341.862 159.784 341.391 159.374 341.036C158.963 340.681 158.454 340.504 157.848 340.504C157.297 340.504 156.826 340.681 156.434 341.036C156.042 341.381 155.808 341.853 155.734 342.45H160.004ZM164.836 336.64V347H163.24V336.64H164.836ZM174.002 342.954C174.002 343.243 173.983 343.505 173.946 343.738H168.052C168.099 344.354 168.327 344.849 168.738 345.222C169.149 345.595 169.653 345.782 170.25 345.782C171.109 345.782 171.715 345.423 172.07 344.704H173.792C173.559 345.413 173.134 345.997 172.518 346.454C171.911 346.902 171.155 347.126 170.25 347.126C169.513 347.126 168.85 346.963 168.262 346.636C167.683 346.3 167.226 345.833 166.89 345.236C166.563 344.629 166.4 343.929 166.4 343.136C166.4 342.343 166.559 341.647 166.876 341.05C167.203 340.443 167.655 339.977 168.234 339.65C168.822 339.323 169.494 339.16 170.25 339.16C170.978 339.16 171.627 339.319 172.196 339.636C172.765 339.953 173.209 340.401 173.526 340.98C173.843 341.549 174.002 342.207 174.002 342.954ZM172.336 342.45C172.327 341.862 172.117 341.391 171.706 341.036C171.295 340.681 170.787 340.504 170.18 340.504C169.629 340.504 169.158 340.681 168.766 341.036C168.374 341.381 168.141 341.853 168.066 342.45H172.336ZM175.04 343.136C175.04 342.343 175.199 341.647 175.516 341.05C175.843 340.443 176.291 339.977 176.86 339.65C177.43 339.323 178.083 339.16 178.82 339.16C179.754 339.16 180.524 339.384 181.13 339.832C181.746 340.271 182.162 340.901 182.376 341.722H180.654C180.514 341.339 180.29 341.041 179.982 340.826C179.674 340.611 179.287 340.504 178.82 340.504C178.167 340.504 177.644 340.737 177.252 341.204C176.87 341.661 176.678 342.305 176.678 343.136C176.678 343.967 176.87 344.615 177.252 345.082C177.644 345.549 178.167 345.782 178.82 345.782C179.744 345.782 180.356 345.376 180.654 344.564H182.376C182.152 345.348 181.732 345.973 181.116 346.44C180.5 346.897 179.735 347.126 178.82 347.126C178.083 347.126 177.43 346.963 176.86 346.636C176.291 346.3 175.843 345.833 175.516 345.236C175.199 344.629 175.04 343.929 175.04 343.136ZM185.829 340.588V344.858C185.829 345.147 185.894 345.357 186.025 345.488C186.165 345.609 186.398 345.67 186.725 345.67H187.705V347H186.445C185.726 347 185.176 346.832 184.793 346.496C184.41 346.16 184.219 345.614 184.219 344.858V340.588H183.309V339.286H184.219V337.368H185.829V339.286H187.705V340.588H185.829ZM194.675 340.588V344.858C194.675 345.147 194.74 345.357 194.871 345.488C195.011 345.609 195.244 345.67 195.571 345.67H196.551V347H195.291C194.572 347 194.021 346.832 193.639 346.496C193.256 346.16 193.065 345.614 193.065 344.858V340.588H192.155V339.286H193.065V337.368H194.675V339.286H196.551V340.588H194.675ZM202.012 339.16C202.6 339.16 203.122 339.286 203.58 339.538C204.046 339.79 204.41 340.163 204.672 340.658C204.942 341.153 205.078 341.75 205.078 342.45V347H203.496V342.688C203.496 341.997 203.323 341.47 202.978 341.106C202.632 340.733 202.161 340.546 201.564 340.546C200.966 340.546 200.49 340.733 200.136 341.106C199.79 341.47 199.618 341.997 199.618 342.688V347H198.022V336.64H199.618V340.182C199.888 339.855 200.229 339.603 200.64 339.426C201.06 339.249 201.517 339.16 202.012 339.16ZM214.183 342.954C214.183 343.243 214.165 343.505 214.127 343.738H208.233C208.28 344.354 208.509 344.849 208.919 345.222C209.33 345.595 209.834 345.782 210.431 345.782C211.29 345.782 211.897 345.423 212.251 344.704H213.973C213.74 345.413 213.315 345.997 212.699 346.454C212.093 346.902 211.337 347.126 210.431 347.126C209.694 347.126 209.031 346.963 208.443 346.636C207.865 346.3 207.407 345.833 207.071 345.236C206.745 344.629 206.581 343.929 206.581 343.136C206.581 342.343 206.74 341.647 207.057 341.05C207.384 340.443 207.837 339.977 208.415 339.65C209.003 339.323 209.675 339.16 210.431 339.16C211.159 339.16 211.808 339.319 212.377 339.636C212.947 339.953 213.39 340.401 213.707 340.98C214.025 341.549 214.183 342.207 214.183 342.954ZM212.517 342.45C212.508 341.862 212.298 341.391 211.887 341.036C211.477 340.681 210.968 340.504 210.361 340.504C209.811 340.504 209.339 340.681 208.947 341.036C208.555 341.381 208.322 341.853 208.247 342.45H212.517ZM220.987 340.406C221.22 340.014 221.528 339.711 221.911 339.496C222.303 339.272 222.765 339.16 223.297 339.16V340.812H222.891C222.265 340.812 221.789 340.971 221.463 341.288C221.145 341.605 220.987 342.156 220.987 342.94V347H219.391V339.286H220.987V340.406ZM231.834 342.954C231.834 343.243 231.815 343.505 231.778 343.738H225.884C225.931 344.354 226.159 344.849 226.57 345.222C226.981 345.595 227.485 345.782 228.082 345.782C228.941 345.782 229.547 345.423 229.902 344.704H231.624C231.391 345.413 230.966 345.997 230.35 346.454C229.743 346.902 228.987 347.126 228.082 347.126C227.345 347.126 226.682 346.963 226.094 346.636C225.515 346.3 225.058 345.833 224.722 345.236C224.395 344.629 224.232 343.929 224.232 343.136C224.232 342.343 224.391 341.647 224.708 341.05C225.035 340.443 225.487 339.977 226.066 339.65C226.654 339.323 227.326 339.16 228.082 339.16C228.81 339.16 229.459 339.319 230.028 339.636C230.597 339.953 231.041 340.401 231.358 340.98C231.675 341.549 231.834 342.207 231.834 342.954ZM230.168 342.45C230.159 341.862 229.949 341.391 229.538 341.036C229.127 340.681 228.619 340.504 228.012 340.504C227.461 340.504 226.99 340.681 226.598 341.036C226.206 341.381 225.973 341.853 225.898 342.45H230.168ZM232.872 343.108C232.872 342.333 233.031 341.647 233.348 341.05C233.675 340.453 234.114 339.991 234.664 339.664C235.224 339.328 235.845 339.16 236.526 339.16C237.124 339.16 237.651 339.281 238.108 339.524C238.575 339.767 238.934 340.061 239.186 340.406V339.286H240.796V350.668H239.186V345.88C238.934 346.225 238.57 346.519 238.094 346.762C237.618 347.005 237.077 347.126 236.47 347.126C235.808 347.126 235.201 346.958 234.65 346.622C234.109 346.277 233.675 345.801 233.348 345.194C233.031 344.578 232.872 343.883 232.872 343.108ZM239.186 343.136C239.186 342.604 239.074 342.142 238.85 341.75C238.636 341.358 238.351 341.059 237.996 340.854C237.642 340.649 237.259 340.546 236.848 340.546C236.438 340.546 236.055 340.649 235.7 340.854C235.346 341.05 235.056 341.344 234.832 341.736C234.618 342.119 234.51 342.576 234.51 343.108C234.51 343.64 234.618 344.107 234.832 344.508C235.056 344.909 235.346 345.217 235.7 345.432C236.064 345.637 236.447 345.74 236.848 345.74C237.259 345.74 237.642 345.637 237.996 345.432C238.351 345.227 238.636 344.928 238.85 344.536C239.074 344.135 239.186 343.668 239.186 343.136ZM249.879 339.286V347H248.283V346.09C248.031 346.407 247.699 346.659 247.289 346.846C246.887 347.023 246.458 347.112 246.001 347.112C245.394 347.112 244.848 346.986 244.363 346.734C243.887 346.482 243.509 346.109 243.229 345.614C242.958 345.119 242.823 344.522 242.823 343.822V339.286H244.405V343.584C244.405 344.275 244.577 344.807 244.923 345.18C245.268 345.544 245.739 345.726 246.337 345.726C246.934 345.726 247.405 345.544 247.751 345.18C248.105 344.807 248.283 344.275 248.283 343.584V339.286H249.879ZM259.055 342.954C259.055 343.243 259.036 343.505 258.999 343.738H253.105C253.151 344.354 253.38 344.849 253.791 345.222C254.201 345.595 254.705 345.782 255.303 345.782C256.161 345.782 256.768 345.423 257.123 344.704H258.845C258.611 345.413 258.187 345.997 257.571 346.454C256.964 346.902 256.208 347.126 255.303 347.126C254.565 347.126 253.903 346.963 253.315 346.636C252.736 346.3 252.279 345.833 251.943 345.236C251.616 344.629 251.453 343.929 251.453 343.136C251.453 342.343 251.611 341.647 251.929 341.05C252.255 340.443 252.708 339.977 253.287 339.65C253.875 339.323 254.547 339.16 255.303 339.16C256.031 339.16 256.679 339.319 257.249 339.636C257.818 339.953 258.261 340.401 258.579 340.98C258.896 341.549 259.055 342.207 259.055 342.954ZM257.389 342.45C257.379 341.862 257.169 341.391 256.759 341.036C256.348 340.681 255.839 340.504 255.233 340.504C254.682 340.504 254.211 340.681 253.819 341.036C253.427 341.381 253.193 341.853 253.119 342.45H257.389ZM263.425 347.126C262.819 347.126 262.273 347.019 261.787 346.804C261.311 346.58 260.933 346.281 260.653 345.908C260.373 345.525 260.224 345.101 260.205 344.634H261.857C261.885 344.961 262.039 345.236 262.319 345.46C262.609 345.675 262.968 345.782 263.397 345.782C263.845 345.782 264.191 345.698 264.433 345.53C264.685 345.353 264.811 345.129 264.811 344.858C264.811 344.569 264.671 344.354 264.391 344.214C264.121 344.074 263.687 343.92 263.089 343.752C262.511 343.593 262.039 343.439 261.675 343.29C261.311 343.141 260.994 342.912 260.723 342.604C260.462 342.296 260.331 341.89 260.331 341.386C260.331 340.975 260.453 340.602 260.695 340.266C260.938 339.921 261.283 339.65 261.731 339.454C262.189 339.258 262.711 339.16 263.299 339.16C264.177 339.16 264.881 339.384 265.413 339.832C265.955 340.271 266.244 340.873 266.281 341.638H264.685C264.657 341.293 264.517 341.017 264.265 340.812C264.013 340.607 263.673 340.504 263.243 340.504C262.823 340.504 262.501 340.583 262.277 340.742C262.053 340.901 261.941 341.111 261.941 341.372C261.941 341.577 262.016 341.75 262.165 341.89C262.315 342.03 262.497 342.142 262.711 342.226C262.926 342.301 263.243 342.399 263.663 342.52C264.223 342.669 264.681 342.823 265.035 342.982C265.399 343.131 265.712 343.355 265.973 343.654C266.235 343.953 266.37 344.349 266.379 344.844C266.379 345.283 266.258 345.675 266.015 346.02C265.773 346.365 265.427 346.636 264.979 346.832C264.541 347.028 264.023 347.126 263.425 347.126ZM269.966 340.588V344.858C269.966 345.147 270.031 345.357 270.162 345.488C270.302 345.609 270.535 345.67 270.862 345.67H271.842V347H270.582C269.863 347 269.312 346.832 268.93 346.496C268.547 346.16 268.356 345.614 268.356 344.858V340.588H267.446V339.286H268.356V337.368H269.966V339.286H271.842V340.588H269.966ZM177.495 364.136C177.495 363.343 177.653 362.647 177.971 362.05C178.297 361.443 178.745 360.977 179.315 360.65C179.884 360.323 180.537 360.16 181.275 360.16C182.208 360.16 182.978 360.384 183.585 360.832C184.201 361.271 184.616 361.901 184.831 362.722H183.109C182.969 362.339 182.745 362.041 182.437 361.826C182.129 361.611 181.741 361.504 181.275 361.504C180.621 361.504 180.099 361.737 179.707 362.204C179.324 362.661 179.133 363.305 179.133 364.136C179.133 364.967 179.324 365.615 179.707 366.082C180.099 366.549 180.621 366.782 181.275 366.782C182.199 366.782 182.81 366.376 183.109 365.564H184.831C184.607 366.348 184.187 366.973 183.571 367.44C182.955 367.897 182.189 368.126 181.275 368.126C180.537 368.126 179.884 367.963 179.315 367.636C178.745 367.3 178.297 366.833 177.971 366.236C177.653 365.629 177.495 364.929 177.495 364.136ZM185.889 364.108C185.889 363.333 186.048 362.647 186.365 362.05C186.692 361.453 187.13 360.991 187.681 360.664C188.241 360.328 188.857 360.16 189.529 360.16C190.136 360.16 190.663 360.281 191.111 360.524C191.568 360.757 191.932 361.051 192.203 361.406V360.286H193.813V368H192.203V366.852C191.932 367.216 191.564 367.519 191.097 367.762C190.63 368.005 190.098 368.126 189.501 368.126C188.838 368.126 188.232 367.958 187.681 367.622C187.13 367.277 186.692 366.801 186.365 366.194C186.048 365.578 185.889 364.883 185.889 364.108ZM192.203 364.136C192.203 363.604 192.091 363.142 191.867 362.75C191.652 362.358 191.368 362.059 191.013 361.854C190.658 361.649 190.276 361.546 189.865 361.546C189.454 361.546 189.072 361.649 188.717 361.854C188.362 362.05 188.073 362.344 187.849 362.736C187.634 363.119 187.527 363.576 187.527 364.108C187.527 364.64 187.634 365.107 187.849 365.508C188.073 365.909 188.362 366.217 188.717 366.432C189.081 366.637 189.464 366.74 189.865 366.74C190.276 366.74 190.658 366.637 191.013 366.432C191.368 366.227 191.652 365.928 191.867 365.536C192.091 365.135 192.203 364.668 192.203 364.136ZM197.771 361.588V365.858C197.771 366.147 197.837 366.357 197.967 366.488C198.107 366.609 198.341 366.67 198.667 366.67H199.647V368H198.387C197.669 368 197.118 367.832 196.735 367.496C196.353 367.16 196.161 366.614 196.161 365.858V361.588H195.251V360.286H196.161V358.368H197.771V360.286H199.647V361.588H197.771ZM208.188 363.954C208.188 364.243 208.17 364.505 208.132 364.738H202.238C202.285 365.354 202.514 365.849 202.924 366.222C203.335 366.595 203.839 366.782 204.436 366.782C205.295 366.782 205.902 366.423 206.256 365.704H207.978C207.745 366.413 207.32 366.997 206.704 367.454C206.098 367.902 205.342 368.126 204.436 368.126C203.699 368.126 203.036 367.963 202.448 367.636C201.87 367.3 201.412 366.833 201.076 366.236C200.75 365.629 200.586 364.929 200.586 364.136C200.586 363.343 200.745 362.647 201.062 362.05C201.389 361.443 201.842 360.977 202.42 360.65C203.008 360.323 203.68 360.16 204.436 360.16C205.164 360.16 205.813 360.319 206.382 360.636C206.952 360.953 207.395 361.401 207.712 361.98C208.03 362.549 208.188 363.207 208.188 363.954ZM206.522 363.45C206.513 362.862 206.303 362.391 205.892 362.036C205.482 361.681 204.973 361.504 204.366 361.504C203.816 361.504 203.344 361.681 202.952 362.036C202.56 362.381 202.327 362.853 202.252 363.45H206.522ZM212.867 360.16C213.464 360.16 213.992 360.281 214.449 360.524C214.916 360.757 215.28 361.051 215.541 361.406V360.286H217.151V368.126C217.151 368.835 217.002 369.465 216.703 370.016C216.404 370.576 215.97 371.015 215.401 371.332C214.841 371.649 214.169 371.808 213.385 371.808C212.34 371.808 211.472 371.561 210.781 371.066C210.09 370.581 209.698 369.918 209.605 369.078H211.187C211.308 369.479 211.565 369.801 211.957 370.044C212.358 370.296 212.834 370.422 213.385 370.422C214.029 370.422 214.547 370.226 214.939 369.834C215.34 369.442 215.541 368.873 215.541 368.126V366.838C215.27 367.202 214.902 367.51 214.435 367.762C213.978 368.005 213.455 368.126 212.867 368.126C212.195 368.126 211.579 367.958 211.019 367.622C210.468 367.277 210.03 366.801 209.703 366.194C209.386 365.578 209.227 364.883 209.227 364.108C209.227 363.333 209.386 362.647 209.703 362.05C210.03 361.453 210.468 360.991 211.019 360.664C211.579 360.328 212.195 360.16 212.867 360.16ZM215.541 364.136C215.541 363.604 215.429 363.142 215.205 362.75C214.99 362.358 214.706 362.059 214.351 361.854C213.996 361.649 213.614 361.546 213.203 361.546C212.792 361.546 212.41 361.649 212.055 361.854C211.7 362.05 211.411 362.344 211.187 362.736C210.972 363.119 210.865 363.576 210.865 364.108C210.865 364.64 210.972 365.107 211.187 365.508C211.411 365.909 211.7 366.217 212.055 366.432C212.419 366.637 212.802 366.74 213.203 366.74C213.614 366.74 213.996 366.637 214.351 366.432C214.706 366.227 214.99 365.928 215.205 365.536C215.429 365.135 215.541 364.668 215.541 364.136ZM222.593 368.126C221.865 368.126 221.207 367.963 220.619 367.636C220.031 367.3 219.569 366.833 219.233 366.236C218.897 365.629 218.729 364.929 218.729 364.136C218.729 363.352 218.902 362.657 219.247 362.05C219.593 361.443 220.064 360.977 220.661 360.65C221.259 360.323 221.926 360.16 222.663 360.16C223.401 360.16 224.068 360.323 224.665 360.65C225.263 360.977 225.734 361.443 226.079 362.05C226.425 362.657 226.597 363.352 226.597 364.136C226.597 364.92 226.42 365.615 226.065 366.222C225.711 366.829 225.225 367.3 224.609 367.636C224.003 367.963 223.331 368.126 222.593 368.126ZM222.593 366.74C223.004 366.74 223.387 366.642 223.741 366.446C224.105 366.25 224.399 365.956 224.623 365.564C224.847 365.172 224.959 364.696 224.959 364.136C224.959 363.576 224.852 363.105 224.637 362.722C224.423 362.33 224.138 362.036 223.783 361.84C223.429 361.644 223.046 361.546 222.635 361.546C222.225 361.546 221.842 361.644 221.487 361.84C221.142 362.036 220.867 362.33 220.661 362.722C220.456 363.105 220.353 363.576 220.353 364.136C220.353 364.967 220.563 365.611 220.983 366.068C221.413 366.516 221.949 366.74 222.593 366.74ZM229.771 361.406C230.004 361.014 230.312 360.711 230.695 360.496C231.087 360.272 231.549 360.16 232.081 360.16V361.812H231.675C231.05 361.812 230.574 361.971 230.247 362.288C229.93 362.605 229.771 363.156 229.771 363.94V368H228.175V360.286H229.771V361.406ZM240.492 360.286L235.76 371.626H234.108L235.676 367.874L232.638 360.286H234.416L236.586 366.166L238.84 360.286H240.492ZM242.34 368.098C242.051 368.098 241.808 368 241.612 367.804C241.416 367.608 241.318 367.365 241.318 367.076C241.318 366.787 241.416 366.544 241.612 366.348C241.808 366.152 242.051 366.054 242.34 366.054C242.62 366.054 242.858 366.152 243.054 366.348C243.25 366.544 243.348 366.787 243.348 367.076C243.348 367.365 243.25 367.608 243.054 367.804C242.858 368 242.62 368.098 242.34 368.098Z" fill="#2E2C43"/>
<path d="M109.504 131.098C108.851 131.098 108.263 130.986 107.74 130.762C107.217 130.529 106.807 130.202 106.508 129.782C106.209 129.362 106.06 128.872 106.06 128.312H107.768C107.805 128.732 107.969 129.077 108.258 129.348C108.557 129.619 108.972 129.754 109.504 129.754C110.055 129.754 110.484 129.623 110.792 129.362C111.1 129.091 111.254 128.746 111.254 128.326C111.254 127.999 111.156 127.733 110.96 127.528C110.773 127.323 110.535 127.164 110.246 127.052C109.966 126.94 109.574 126.819 109.07 126.688C108.435 126.52 107.917 126.352 107.516 126.184C107.124 126.007 106.788 125.736 106.508 125.372C106.228 125.008 106.088 124.523 106.088 123.916C106.088 123.356 106.228 122.866 106.508 122.446C106.788 122.026 107.18 121.704 107.684 121.48C108.188 121.256 108.771 121.144 109.434 121.144C110.377 121.144 111.147 121.382 111.744 121.858C112.351 122.325 112.687 122.969 112.752 123.79H110.988C110.96 123.435 110.792 123.132 110.484 122.88C110.176 122.628 109.77 122.502 109.266 122.502C108.809 122.502 108.435 122.619 108.146 122.852C107.857 123.085 107.712 123.421 107.712 123.86C107.712 124.159 107.801 124.406 107.978 124.602C108.165 124.789 108.398 124.938 108.678 125.05C108.958 125.162 109.341 125.283 109.826 125.414C110.47 125.591 110.993 125.769 111.394 125.946C111.805 126.123 112.15 126.399 112.43 126.772C112.719 127.136 112.864 127.626 112.864 128.242C112.864 128.737 112.729 129.203 112.458 129.642C112.197 130.081 111.809 130.435 111.296 130.706C110.792 130.967 110.195 131.098 109.504 131.098ZM116.609 124.588V128.858C116.609 129.147 116.675 129.357 116.805 129.488C116.945 129.609 117.179 129.67 117.505 129.67H118.485V131H117.225C116.507 131 115.956 130.832 115.573 130.496C115.191 130.16 114.999 129.614 114.999 128.858V124.588H114.089V123.286H114.999V121.368H116.609V123.286H118.485V124.588H116.609ZM127.026 126.954C127.026 127.243 127.008 127.505 126.97 127.738H121.076C121.123 128.354 121.352 128.849 121.762 129.222C122.173 129.595 122.677 129.782 123.274 129.782C124.133 129.782 124.74 129.423 125.094 128.704H126.816C126.583 129.413 126.158 129.997 125.542 130.454C124.936 130.902 124.18 131.126 123.274 131.126C122.537 131.126 121.874 130.963 121.286 130.636C120.708 130.3 120.25 129.833 119.914 129.236C119.588 128.629 119.424 127.929 119.424 127.136C119.424 126.343 119.583 125.647 119.9 125.05C120.227 124.443 120.68 123.977 121.258 123.65C121.846 123.323 122.518 123.16 123.274 123.16C124.002 123.16 124.651 123.319 125.22 123.636C125.79 123.953 126.233 124.401 126.55 124.98C126.868 125.549 127.026 126.207 127.026 126.954ZM125.36 126.45C125.351 125.862 125.141 125.391 124.73 125.036C124.32 124.681 123.811 124.504 123.204 124.504C122.654 124.504 122.182 124.681 121.79 125.036C121.398 125.381 121.165 125.853 121.09 126.45H125.36ZM130.193 124.42C130.464 124.065 130.832 123.767 131.299 123.524C131.766 123.281 132.293 123.16 132.881 123.16C133.553 123.16 134.164 123.328 134.715 123.664C135.275 123.991 135.714 124.453 136.031 125.05C136.348 125.647 136.507 126.333 136.507 127.108C136.507 127.883 136.348 128.578 136.031 129.194C135.714 129.801 135.275 130.277 134.715 130.622C134.164 130.958 133.553 131.126 132.881 131.126C132.293 131.126 131.77 131.009 131.313 130.776C130.856 130.533 130.482 130.235 130.193 129.88V134.668H128.597V123.286H130.193V124.42ZM134.883 127.108C134.883 126.576 134.771 126.119 134.547 125.736C134.332 125.344 134.043 125.05 133.679 124.854C133.324 124.649 132.942 124.546 132.531 124.546C132.13 124.546 131.747 124.649 131.383 124.854C131.028 125.059 130.739 125.358 130.515 125.75C130.3 126.142 130.193 126.604 130.193 127.136C130.193 127.668 130.3 128.135 130.515 128.536C130.739 128.928 131.028 129.227 131.383 129.432C131.747 129.637 132.13 129.74 132.531 129.74C132.942 129.74 133.324 129.637 133.679 129.432C134.043 129.217 134.332 128.909 134.547 128.508C134.771 128.107 134.883 127.64 134.883 127.108ZM142.394 128.83C143.29 128.055 143.995 127.421 144.508 126.926C145.031 126.422 145.465 125.899 145.81 125.358C146.155 124.817 146.328 124.275 146.328 123.734C146.328 123.174 146.193 122.735 145.922 122.418C145.661 122.101 145.245 121.942 144.676 121.942C144.125 121.942 143.696 122.119 143.388 122.474C143.089 122.819 142.931 123.286 142.912 123.874H141.372C141.4 122.81 141.717 121.998 142.324 121.438C142.94 120.869 143.719 120.584 144.662 120.584C145.679 120.584 146.473 120.864 147.042 121.424C147.621 121.984 147.91 122.731 147.91 123.664C147.91 124.336 147.737 124.985 147.392 125.61C147.056 126.226 146.65 126.781 146.174 127.276C145.707 127.761 145.11 128.326 144.382 128.97L143.752 129.53H148.19V130.86H141.386V129.698L142.394 128.83Z" fill="black"/>
<path d="M176.047 205V209.501H175.455V206.145L173.959 209.501H173.543L172.04 206.139V209.501H171.449V205H172.086L173.751 208.721L175.416 205H176.047ZM177.357 205.358C177.244 205.358 177.149 205.319 177.071 205.241C176.993 205.163 176.954 205.067 176.954 204.955C176.954 204.842 176.993 204.747 177.071 204.669C177.149 204.59 177.244 204.551 177.357 204.551C177.465 204.551 177.556 204.59 177.63 204.669C177.708 204.747 177.747 204.842 177.747 204.955C177.747 205.067 177.708 205.163 177.63 205.241C177.556 205.319 177.465 205.358 177.357 205.358ZM177.643 205.937V209.501H177.051V205.937H177.643ZM179.914 209.56C179.641 209.56 179.396 209.514 179.179 209.423C178.962 209.328 178.791 209.198 178.665 209.033C178.539 208.864 178.47 208.671 178.457 208.454H179.068C179.086 208.632 179.168 208.777 179.315 208.89C179.467 209.003 179.664 209.059 179.907 209.059C180.133 209.059 180.311 209.009 180.441 208.91C180.571 208.81 180.636 208.684 180.636 208.532C180.636 208.376 180.566 208.261 180.428 208.188C180.289 208.109 180.074 208.034 179.784 207.96C179.519 207.89 179.302 207.821 179.133 207.752C178.968 207.678 178.825 207.572 178.704 207.433C178.587 207.29 178.528 207.103 178.528 206.874C178.528 206.691 178.583 206.525 178.691 206.373C178.799 206.221 178.953 206.102 179.153 206.015C179.352 205.924 179.58 205.878 179.836 205.878C180.23 205.878 180.549 205.978 180.792 206.178C181.035 206.377 181.165 206.65 181.182 206.997H180.59C180.577 206.811 180.501 206.661 180.363 206.548C180.228 206.436 180.046 206.379 179.816 206.379C179.604 206.379 179.435 206.425 179.309 206.516C179.183 206.607 179.12 206.726 179.12 206.874C179.12 206.991 179.157 207.088 179.231 207.166C179.309 207.24 179.404 207.301 179.517 207.348C179.634 207.392 179.795 207.442 179.998 207.498C180.254 207.567 180.462 207.637 180.623 207.706C180.783 207.771 180.92 207.871 181.033 208.005C181.15 208.14 181.21 208.315 181.215 208.532C181.215 208.727 181.161 208.903 181.052 209.059C180.944 209.215 180.79 209.339 180.59 209.43C180.395 209.517 180.17 209.56 179.914 209.56ZM181.829 207.713C181.829 207.344 181.903 207.023 182.05 206.75C182.198 206.472 182.402 206.258 182.662 206.106C182.926 205.954 183.228 205.878 183.566 205.878C184.004 205.878 184.364 205.985 184.646 206.197C184.932 206.41 185.12 206.704 185.212 207.082H184.574C184.513 206.865 184.394 206.694 184.216 206.568C184.043 206.442 183.826 206.379 183.566 206.379C183.228 206.379 182.954 206.496 182.746 206.73C182.538 206.96 182.434 207.288 182.434 207.713C182.434 208.142 182.538 208.474 182.746 208.708C182.954 208.942 183.228 209.059 183.566 209.059C183.826 209.059 184.043 208.998 184.216 208.877C184.39 208.756 184.509 208.582 184.574 208.357H185.212C185.116 208.721 184.925 209.014 184.639 209.235C184.353 209.452 183.995 209.56 183.566 209.56C183.228 209.56 182.926 209.484 182.662 209.332C182.402 209.181 182.198 208.966 182.05 208.688C181.903 208.411 181.829 208.086 181.829 207.713ZM189.254 207.583C189.254 207.695 189.247 207.815 189.234 207.94H186.385C186.407 208.292 186.526 208.567 186.743 208.766C186.964 208.962 187.231 209.059 187.543 209.059C187.799 209.059 188.011 209.001 188.18 208.884C188.354 208.762 188.475 208.602 188.545 208.402H189.182C189.087 208.745 188.896 209.024 188.61 209.241C188.324 209.454 187.968 209.56 187.543 209.56C187.205 209.56 186.901 209.484 186.632 209.332C186.368 209.181 186.16 208.966 186.008 208.688C185.856 208.407 185.78 208.081 185.78 207.713C185.78 207.344 185.854 207.021 186.001 206.744C186.149 206.466 186.355 206.253 186.619 206.106C186.888 205.954 187.196 205.878 187.543 205.878C187.881 205.878 188.18 205.952 188.441 206.1C188.701 206.247 188.9 206.451 189.039 206.711C189.182 206.967 189.254 207.257 189.254 207.583ZM188.642 207.459C188.642 207.234 188.592 207.041 188.493 206.88C188.393 206.715 188.256 206.592 188.083 206.509C187.914 206.423 187.725 206.379 187.517 206.379C187.218 206.379 186.962 206.475 186.749 206.665C186.541 206.856 186.422 207.121 186.392 207.459H188.642ZM190.627 204.688V209.501H190.035V204.688H190.627ZM192.228 204.688V209.501H191.636V204.688H192.228ZM193.015 207.706C193.015 207.342 193.089 207.023 193.236 206.75C193.384 206.472 193.586 206.258 193.841 206.106C194.102 205.954 194.39 205.878 194.707 205.878C195.019 205.878 195.29 205.946 195.52 206.08C195.749 206.214 195.921 206.384 196.033 206.587V205.937H196.632V209.501H196.033V208.838C195.916 209.046 195.741 209.22 195.507 209.358C195.277 209.493 195.008 209.56 194.7 209.56C194.383 209.56 194.097 209.482 193.841 209.326C193.586 209.17 193.384 208.951 193.236 208.669C193.089 208.387 193.015 208.066 193.015 207.706ZM196.033 207.713C196.033 207.444 195.979 207.21 195.871 207.01C195.762 206.811 195.615 206.659 195.429 206.555C195.246 206.446 195.045 206.392 194.824 206.392C194.602 206.392 194.401 206.444 194.219 206.548C194.037 206.652 193.891 206.804 193.783 207.004C193.674 207.203 193.62 207.437 193.62 207.706C193.62 207.979 193.674 208.218 193.783 208.422C193.891 208.621 194.037 208.775 194.219 208.884C194.401 208.988 194.602 209.04 194.824 209.04C195.045 209.04 195.246 208.988 195.429 208.884C195.615 208.775 195.762 208.621 195.871 208.422C195.979 208.218 196.033 207.982 196.033 207.713ZM199.369 205.872C199.803 205.872 200.154 206.004 200.423 206.269C200.692 206.529 200.826 206.906 200.826 207.4V209.501H200.241V207.485C200.241 207.129 200.152 206.858 199.974 206.672C199.796 206.481 199.553 206.386 199.245 206.386C198.933 206.386 198.684 206.483 198.497 206.678C198.315 206.874 198.224 207.158 198.224 207.531V209.501H197.632V205.937H198.224V206.444C198.341 206.262 198.499 206.121 198.699 206.021C198.903 205.922 199.126 205.872 199.369 205.872ZM205.045 207.583C205.045 207.695 205.039 207.815 205.026 207.94H202.177C202.198 208.292 202.318 208.567 202.534 208.766C202.756 208.962 203.022 209.059 203.334 209.059C203.59 209.059 203.803 209.001 203.972 208.884C204.145 208.762 204.267 208.602 204.336 208.402H204.974C204.878 208.745 204.687 209.024 204.401 209.241C204.115 209.454 203.759 209.56 203.334 209.56C202.996 209.56 202.693 209.484 202.424 209.332C202.159 209.181 201.951 208.966 201.799 208.688C201.648 208.407 201.572 208.081 201.572 207.713C201.572 207.344 201.645 207.021 201.793 206.744C201.94 206.466 202.146 206.253 202.411 206.106C202.68 205.954 202.988 205.878 203.334 205.878C203.673 205.878 203.972 205.952 204.232 206.1C204.492 206.247 204.692 206.451 204.83 206.711C204.974 206.967 205.045 207.257 205.045 207.583ZM204.434 207.459C204.434 207.234 204.384 207.041 204.284 206.88C204.184 206.715 204.048 206.592 203.874 206.509C203.705 206.423 203.517 206.379 203.308 206.379C203.009 206.379 202.753 206.475 202.541 206.665C202.333 206.856 202.213 207.121 202.183 207.459H204.434ZM207.381 209.56C207.047 209.56 206.744 209.484 206.47 209.332C206.202 209.181 205.989 208.966 205.833 208.688C205.681 208.407 205.605 208.081 205.605 207.713C205.605 207.348 205.683 207.028 205.839 206.75C206 206.468 206.217 206.253 206.49 206.106C206.763 205.954 207.069 205.878 207.407 205.878C207.745 205.878 208.051 205.954 208.324 206.106C208.597 206.253 208.812 206.466 208.968 206.744C209.129 207.021 209.209 207.344 209.209 207.713C209.209 208.081 209.126 208.407 208.962 208.688C208.801 208.966 208.582 209.181 208.305 209.332C208.027 209.484 207.719 209.56 207.381 209.56ZM207.381 209.04C207.594 209.04 207.793 208.99 207.979 208.89C208.166 208.79 208.316 208.641 208.428 208.441C208.545 208.242 208.604 207.999 208.604 207.713C208.604 207.426 208.548 207.184 208.435 206.984C208.322 206.785 208.175 206.637 207.992 206.542C207.81 206.442 207.613 206.392 207.401 206.392C207.184 206.392 206.984 206.442 206.802 206.542C206.624 206.637 206.481 206.785 206.373 206.984C206.264 207.184 206.21 207.426 206.21 207.713C206.21 208.003 206.262 208.248 206.366 208.448C206.475 208.647 206.618 208.797 206.796 208.897C206.973 208.992 207.169 209.04 207.381 209.04ZM213.148 205.937V209.501H212.556V208.975C212.444 209.157 212.285 209.3 212.082 209.404C211.882 209.504 211.661 209.554 211.418 209.554C211.141 209.554 210.891 209.497 210.67 209.384C210.449 209.267 210.273 209.094 210.143 208.864C210.017 208.634 209.955 208.354 209.955 208.025V205.937H210.54V207.947C210.54 208.298 210.629 208.569 210.807 208.76C210.984 208.946 211.227 209.04 211.535 209.04C211.852 209.04 212.101 208.942 212.283 208.747C212.465 208.552 212.556 208.268 212.556 207.895V205.937H213.148ZM215.41 209.56C215.136 209.56 214.891 209.514 214.675 209.423C214.458 209.328 214.287 209.198 214.161 209.033C214.035 208.864 213.966 208.671 213.953 208.454H214.564C214.581 208.632 214.664 208.777 214.811 208.89C214.963 209.003 215.16 209.059 215.403 209.059C215.629 209.059 215.806 209.009 215.937 208.91C216.067 208.81 216.132 208.684 216.132 208.532C216.132 208.376 216.062 208.261 215.924 208.188C215.785 208.109 215.57 208.034 215.28 207.96C215.015 207.89 214.798 207.821 214.629 207.752C214.464 207.678 214.321 207.572 214.2 207.433C214.083 207.29 214.024 207.103 214.024 206.874C214.024 206.691 214.078 206.525 214.187 206.373C214.295 206.221 214.449 206.102 214.649 206.015C214.848 205.924 215.076 205.878 215.332 205.878C215.726 205.878 216.045 205.978 216.288 206.178C216.531 206.377 216.661 206.65 216.678 206.997H216.086C216.073 206.811 215.997 206.661 215.859 206.548C215.724 206.436 215.542 206.379 215.312 206.379C215.1 206.379 214.931 206.425 214.805 206.516C214.679 206.607 214.616 206.726 214.616 206.874C214.616 206.991 214.653 207.088 214.727 207.166C214.805 207.24 214.9 207.301 215.013 207.348C215.13 207.392 215.29 207.442 215.494 207.498C215.75 207.567 215.958 207.637 216.119 207.706C216.279 207.771 216.416 207.871 216.528 208.005C216.646 208.14 216.706 208.315 216.711 208.532C216.711 208.727 216.656 208.903 216.548 209.059C216.44 209.215 216.286 209.339 216.086 209.43C215.891 209.517 215.666 209.56 215.41 209.56Z" fill="#2E2C43"/>
<path d="M172.886 235.101C172.587 235.101 172.318 235.049 172.079 234.945C171.845 234.836 171.661 234.689 171.527 234.503C171.392 234.312 171.323 234.093 171.318 233.846H171.949C171.971 234.058 172.058 234.238 172.21 234.385C172.366 234.529 172.591 234.6 172.886 234.6C173.168 234.6 173.389 234.531 173.55 234.392C173.714 234.249 173.797 234.067 173.797 233.846C173.797 233.672 173.749 233.531 173.654 233.423C173.558 233.314 173.439 233.232 173.296 233.176C173.153 233.119 172.96 233.059 172.717 232.993C172.418 232.915 172.177 232.837 171.995 232.759C171.817 232.681 171.663 232.56 171.533 232.395C171.407 232.226 171.344 232 171.344 231.719C171.344 231.471 171.407 231.252 171.533 231.062C171.659 230.871 171.834 230.723 172.06 230.619C172.29 230.515 172.552 230.463 172.847 230.463C173.272 230.463 173.619 230.569 173.888 230.782C174.161 230.994 174.315 231.276 174.35 231.627H173.699C173.677 231.454 173.586 231.302 173.426 231.172C173.266 231.038 173.053 230.971 172.788 230.971C172.541 230.971 172.34 231.036 172.184 231.166C172.027 231.291 171.949 231.469 171.949 231.699C171.949 231.864 171.995 231.998 172.086 232.102C172.181 232.206 172.296 232.287 172.431 232.343C172.57 232.395 172.762 232.456 173.01 232.525C173.309 232.608 173.55 232.69 173.732 232.772C173.914 232.85 174.07 232.974 174.2 233.143C174.33 233.308 174.395 233.533 174.395 233.82C174.395 234.041 174.337 234.249 174.22 234.444C174.102 234.639 173.929 234.797 173.699 234.919C173.469 235.04 173.198 235.101 172.886 235.101ZM175.858 232.148C175.975 231.944 176.149 231.775 176.378 231.64C176.613 231.502 176.884 231.432 177.192 231.432C177.508 231.432 177.794 231.508 178.05 231.66C178.31 231.812 178.514 232.026 178.662 232.304C178.809 232.577 178.883 232.896 178.883 233.26C178.883 233.62 178.809 233.941 178.662 234.223C178.514 234.505 178.31 234.724 178.05 234.88C177.794 235.036 177.508 235.114 177.192 235.114C176.888 235.114 176.619 235.047 176.385 234.912C176.155 234.774 175.98 234.602 175.858 234.398V236.747H175.266V231.491H175.858V232.148ZM178.278 233.26C178.278 232.991 178.224 232.757 178.115 232.558C178.007 232.358 177.859 232.206 177.673 232.102C177.491 231.998 177.289 231.946 177.068 231.946C176.851 231.946 176.65 232 176.463 232.109C176.281 232.213 176.133 232.367 176.021 232.571C175.912 232.77 175.858 233.002 175.858 233.267C175.858 233.536 175.912 233.772 176.021 233.976C176.133 234.175 176.281 234.329 176.463 234.437C176.65 234.542 176.851 234.594 177.068 234.594C177.289 234.594 177.491 234.542 177.673 234.437C177.859 234.329 178.007 234.175 178.115 233.976C178.224 233.772 178.278 233.533 178.278 233.26ZM179.441 233.26C179.441 232.896 179.514 232.577 179.662 232.304C179.809 232.026 180.011 231.812 180.267 231.66C180.527 231.508 180.815 231.432 181.132 231.432C181.444 231.432 181.715 231.5 181.945 231.634C182.175 231.768 182.346 231.938 182.459 232.141V231.491H183.057V235.055H182.459V234.392C182.342 234.6 182.166 234.774 181.932 234.912C181.702 235.047 181.433 235.114 181.125 235.114C180.809 235.114 180.523 235.036 180.267 234.88C180.011 234.724 179.809 234.505 179.662 234.223C179.514 233.941 179.441 233.62 179.441 233.26ZM182.459 233.267C182.459 232.998 182.405 232.764 182.296 232.564C182.188 232.365 182.04 232.213 181.854 232.109C181.672 232 181.47 231.946 181.249 231.946C181.028 231.946 180.826 231.998 180.644 232.102C180.462 232.206 180.317 232.358 180.208 232.558C180.1 232.757 180.046 232.991 180.046 233.26C180.046 233.533 180.1 233.772 180.208 233.976C180.317 234.175 180.462 234.329 180.644 234.437C180.826 234.542 181.028 234.594 181.249 234.594C181.47 234.594 181.672 234.542 181.854 234.437C182.04 234.329 182.188 234.175 182.296 233.976C182.405 233.772 182.459 233.536 182.459 233.267ZM184.65 232.07C184.754 231.866 184.901 231.708 185.092 231.595C185.287 231.482 185.523 231.426 185.801 231.426V232.037H185.645C184.981 232.037 184.65 232.397 184.65 233.117V235.055H184.058V231.491H184.65V232.07ZM189.736 233.137C189.736 233.249 189.73 233.369 189.717 233.494H186.868C186.89 233.846 187.009 234.121 187.226 234.32C187.447 234.516 187.713 234.613 188.026 234.613C188.282 234.613 188.494 234.555 188.663 234.437C188.837 234.316 188.958 234.156 189.027 233.956H189.665C189.569 234.299 189.379 234.578 189.092 234.795C188.806 235.008 188.451 235.114 188.026 235.114C187.687 235.114 187.384 235.038 187.115 234.886C186.851 234.735 186.642 234.52 186.491 234.242C186.339 233.96 186.263 233.635 186.263 233.267C186.263 232.898 186.337 232.575 186.484 232.297C186.632 232.02 186.838 231.807 187.102 231.66C187.371 231.508 187.679 231.432 188.026 231.432C188.364 231.432 188.663 231.506 188.923 231.654C189.184 231.801 189.383 232.005 189.522 232.265C189.665 232.521 189.736 232.811 189.736 233.137ZM189.125 233.013C189.125 232.787 189.075 232.595 188.975 232.434C188.876 232.269 188.739 232.146 188.566 232.063C188.396 231.977 188.208 231.933 188 231.933C187.7 231.933 187.445 232.029 187.232 232.219C187.024 232.41 186.905 232.675 186.874 233.013H189.125ZM195.283 231.849C195.283 232.226 195.153 232.54 194.893 232.792C194.637 233.039 194.244 233.163 193.715 233.163H192.844V235.055H192.252V230.522H193.715C194.227 230.522 194.615 230.645 194.88 230.892C195.149 231.14 195.283 231.458 195.283 231.849ZM193.715 232.675C194.045 232.675 194.288 232.603 194.444 232.46C194.6 232.317 194.678 232.113 194.678 231.849C194.678 231.289 194.357 231.01 193.715 231.01H192.844V232.675H193.715ZM195.798 233.26C195.798 232.896 195.871 232.577 196.019 232.304C196.166 232.026 196.368 231.812 196.624 231.66C196.884 231.508 197.172 231.432 197.489 231.432C197.801 231.432 198.072 231.5 198.302 231.634C198.532 231.768 198.703 231.938 198.816 232.141V231.491H199.414V235.055H198.816V234.392C198.699 234.6 198.523 234.774 198.289 234.912C198.059 235.047 197.79 235.114 197.482 235.114C197.166 235.114 196.879 235.036 196.624 234.88C196.368 234.724 196.166 234.505 196.019 234.223C195.871 233.941 195.798 233.62 195.798 233.26ZM198.816 233.267C198.816 232.998 198.761 232.764 198.653 232.564C198.545 232.365 198.397 232.213 198.211 232.109C198.029 232 197.827 231.946 197.606 231.946C197.385 231.946 197.183 231.998 197.001 232.102C196.819 232.206 196.674 232.358 196.565 232.558C196.457 232.757 196.402 232.991 196.402 233.26C196.402 233.533 196.457 233.772 196.565 233.976C196.674 234.175 196.819 234.329 197.001 234.437C197.183 234.542 197.385 234.594 197.606 234.594C197.827 234.594 198.029 234.542 198.211 234.437C198.397 234.329 198.545 234.175 198.653 233.976C198.761 233.772 198.816 233.536 198.816 233.267ZM201.006 232.07C201.11 231.866 201.258 231.708 201.449 231.595C201.644 231.482 201.88 231.426 202.158 231.426V232.037H202.002C201.338 232.037 201.006 232.397 201.006 233.117V235.055H200.414V231.491H201.006V232.07ZM203.563 231.979V234.08C203.563 234.253 203.6 234.377 203.674 234.45C203.747 234.52 203.875 234.555 204.057 234.555H204.493V235.055H203.96C203.63 235.055 203.383 234.98 203.218 234.828C203.053 234.676 202.971 234.427 202.971 234.08V231.979H202.509V231.491H202.971V230.593H203.563V231.491H204.493V231.979H203.563ZM206.472 235.114C206.199 235.114 205.954 235.068 205.737 234.977C205.52 234.882 205.349 234.752 205.223 234.587C205.098 234.418 205.028 234.225 205.015 234.008H205.627C205.644 234.186 205.726 234.331 205.874 234.444C206.026 234.557 206.223 234.613 206.466 234.613C206.691 234.613 206.869 234.563 206.999 234.463C207.129 234.364 207.194 234.238 207.194 234.086C207.194 233.93 207.125 233.815 206.986 233.741C206.847 233.663 206.633 233.588 206.342 233.514C206.078 233.444 205.861 233.375 205.692 233.306C205.527 233.232 205.384 233.126 205.262 232.987C205.145 232.844 205.087 232.657 205.087 232.428C205.087 232.245 205.141 232.078 205.249 231.927C205.358 231.775 205.512 231.656 205.711 231.569C205.911 231.478 206.138 231.432 206.394 231.432C206.789 231.432 207.107 231.532 207.35 231.732C207.593 231.931 207.723 232.204 207.741 232.551H207.149C207.136 232.365 207.06 232.215 206.921 232.102C206.787 231.99 206.604 231.933 206.375 231.933C206.162 231.933 205.993 231.979 205.867 232.07C205.742 232.161 205.679 232.28 205.679 232.428C205.679 232.545 205.715 232.642 205.789 232.72C205.867 232.794 205.963 232.855 206.075 232.902C206.192 232.946 206.353 232.996 206.557 233.052C206.813 233.121 207.021 233.191 207.181 233.26C207.342 233.325 207.478 233.425 207.591 233.559C207.708 233.694 207.769 233.869 207.773 234.086C207.773 234.281 207.719 234.457 207.611 234.613C207.502 234.769 207.348 234.893 207.149 234.984C206.954 235.071 206.728 235.114 206.472 235.114Z" fill="#2E2C43"/>
<path d="M176.047 255.179V259.68H175.455V256.324L173.959 259.68H173.543L172.04 256.317V259.68H171.449V255.179H172.086L173.751 258.899L175.416 255.179H176.047ZM178.606 259.738C178.272 259.738 177.968 259.663 177.695 259.511C177.426 259.359 177.214 259.144 177.058 258.867C176.906 258.585 176.83 258.26 176.83 257.891C176.83 257.527 176.908 257.206 177.064 256.928C177.225 256.647 177.441 256.432 177.715 256.285C177.988 256.133 178.294 256.057 178.632 256.057C178.97 256.057 179.276 256.133 179.549 256.285C179.822 256.432 180.037 256.644 180.193 256.922C180.353 257.2 180.434 257.523 180.434 257.891C180.434 258.26 180.351 258.585 180.186 258.867C180.026 259.144 179.807 259.359 179.529 259.511C179.252 259.663 178.944 259.738 178.606 259.738ZM178.606 259.218C178.818 259.218 179.018 259.168 179.204 259.068C179.391 258.969 179.54 258.819 179.653 258.62C179.77 258.42 179.829 258.177 179.829 257.891C179.829 257.605 179.772 257.362 179.66 257.163C179.547 256.963 179.399 256.816 179.217 256.72C179.035 256.621 178.838 256.571 178.625 256.571C178.408 256.571 178.209 256.621 178.027 256.72C177.849 256.816 177.706 256.963 177.598 257.163C177.489 257.362 177.435 257.605 177.435 257.891C177.435 258.182 177.487 258.427 177.591 258.626C177.699 258.826 177.843 258.975 178.02 259.075C178.198 259.17 178.393 259.218 178.606 259.218ZM181.804 256.779C181.925 256.566 182.103 256.393 182.337 256.259C182.571 256.124 182.838 256.057 183.137 256.057C183.458 256.057 183.746 256.133 184.002 256.285C184.258 256.436 184.46 256.651 184.607 256.928C184.755 257.202 184.828 257.52 184.828 257.885C184.828 258.245 184.755 258.565 184.607 258.847C184.46 259.129 184.256 259.348 183.996 259.504C183.74 259.66 183.454 259.738 183.137 259.738C182.829 259.738 182.558 259.671 182.324 259.537C182.094 259.402 181.921 259.231 181.804 259.023V259.68H181.212V254.867H181.804V256.779ZM184.223 257.885C184.223 257.616 184.169 257.382 184.061 257.182C183.952 256.983 183.805 256.831 183.619 256.727C183.436 256.623 183.235 256.571 183.014 256.571C182.797 256.571 182.595 256.625 182.409 256.733C182.227 256.837 182.079 256.991 181.966 257.195C181.858 257.395 181.804 257.627 181.804 257.891C181.804 258.16 181.858 258.396 181.966 258.6C182.079 258.8 182.227 258.954 182.409 259.062C182.595 259.166 182.797 259.218 183.014 259.218C183.235 259.218 183.436 259.166 183.619 259.062C183.805 258.954 183.952 258.8 184.061 258.6C184.169 258.396 184.223 258.158 184.223 257.885ZM185.913 255.536C185.8 255.536 185.705 255.497 185.627 255.419C185.549 255.341 185.51 255.246 185.51 255.133C185.51 255.02 185.549 254.925 185.627 254.847C185.705 254.769 185.8 254.73 185.913 254.73C186.022 254.73 186.113 254.769 186.186 254.847C186.264 254.925 186.304 255.02 186.304 255.133C186.304 255.246 186.264 255.341 186.186 255.419C186.113 255.497 186.022 255.536 185.913 255.536ZM186.199 256.115V259.68H185.608V256.115H186.199ZM187.8 254.867V259.68H187.208V254.867H187.8ZM192.061 257.761C192.061 257.874 192.055 257.993 192.042 258.119H189.193C189.214 258.47 189.334 258.745 189.551 258.945C189.772 259.14 190.038 259.238 190.351 259.238C190.606 259.238 190.819 259.179 190.988 259.062C191.162 258.941 191.283 258.78 191.352 258.581H191.99C191.894 258.923 191.704 259.203 191.417 259.42C191.131 259.632 190.776 259.738 190.351 259.738C190.012 259.738 189.709 259.663 189.44 259.511C189.175 259.359 188.967 259.144 188.816 258.867C188.664 258.585 188.588 258.26 188.588 257.891C188.588 257.523 188.662 257.2 188.809 256.922C188.956 256.644 189.162 256.432 189.427 256.285C189.696 256.133 190.004 256.057 190.351 256.057C190.689 256.057 190.988 256.131 191.248 256.278C191.508 256.425 191.708 256.629 191.847 256.889C191.99 257.145 192.061 257.436 192.061 257.761ZM191.45 257.637C191.45 257.412 191.4 257.219 191.3 257.059C191.201 256.894 191.064 256.77 190.89 256.688C190.721 256.601 190.533 256.558 190.325 256.558C190.025 256.558 189.77 256.653 189.557 256.844C189.349 257.035 189.23 257.299 189.199 257.637H191.45ZM195.169 256.694C195.273 256.491 195.42 256.332 195.611 256.219C195.806 256.107 196.042 256.05 196.32 256.05V256.662H196.164C195.5 256.662 195.169 257.022 195.169 257.742V259.68H194.577V256.115H195.169V256.694ZM200.256 257.761C200.256 257.874 200.249 257.993 200.236 258.119H197.387C197.409 258.47 197.528 258.745 197.745 258.945C197.966 259.14 198.233 259.238 198.545 259.238C198.801 259.238 199.013 259.179 199.182 259.062C199.356 258.941 199.477 258.78 199.547 258.581H200.184C200.089 258.923 199.898 259.203 199.612 259.42C199.325 259.632 198.97 259.738 198.545 259.738C198.207 259.738 197.903 259.663 197.634 259.511C197.37 259.359 197.162 259.144 197.01 258.867C196.858 258.585 196.782 258.26 196.782 257.891C196.782 257.523 196.856 257.2 197.003 256.922C197.151 256.644 197.357 256.432 197.621 256.285C197.89 256.133 198.198 256.057 198.545 256.057C198.883 256.057 199.182 256.131 199.443 256.278C199.703 256.425 199.902 256.629 200.041 256.889C200.184 257.145 200.256 257.436 200.256 257.761ZM199.644 257.637C199.644 257.412 199.594 257.219 199.495 257.059C199.395 256.894 199.258 256.77 199.085 256.688C198.916 256.601 198.727 256.558 198.519 256.558C198.22 256.558 197.964 256.653 197.751 256.844C197.543 257.035 197.424 257.299 197.394 257.637H199.644ZM201.629 256.772C201.746 256.569 201.919 256.399 202.149 256.265C202.383 256.126 202.654 256.057 202.962 256.057C203.279 256.057 203.565 256.133 203.821 256.285C204.081 256.436 204.285 256.651 204.432 256.928C204.58 257.202 204.653 257.52 204.653 257.885C204.653 258.245 204.58 258.565 204.432 258.847C204.285 259.129 204.081 259.348 203.821 259.504C203.565 259.66 203.279 259.738 202.962 259.738C202.659 259.738 202.39 259.671 202.156 259.537C201.926 259.398 201.75 259.227 201.629 259.023V261.371H201.037V256.115H201.629V256.772ZM204.049 257.885C204.049 257.616 203.994 257.382 203.886 257.182C203.778 256.983 203.63 256.831 203.444 256.727C203.262 256.623 203.06 256.571 202.839 256.571C202.622 256.571 202.42 256.625 202.234 256.733C202.052 256.837 201.904 256.991 201.791 257.195C201.683 257.395 201.629 257.627 201.629 257.891C201.629 258.16 201.683 258.396 201.791 258.6C201.904 258.8 202.052 258.954 202.234 259.062C202.42 259.166 202.622 259.218 202.839 259.218C203.06 259.218 203.262 259.166 203.444 259.062C203.63 258.954 203.778 258.8 203.886 258.6C203.994 258.396 204.049 258.158 204.049 257.885ZM205.211 257.885C205.211 257.52 205.285 257.202 205.433 256.928C205.58 256.651 205.782 256.436 206.038 256.285C206.298 256.133 206.586 256.057 206.903 256.057C207.215 256.057 207.486 256.124 207.716 256.259C207.946 256.393 208.117 256.562 208.23 256.766V256.115H208.828V259.68H208.23V259.016C208.113 259.225 207.937 259.398 207.703 259.537C207.473 259.671 207.204 259.738 206.896 259.738C206.58 259.738 206.293 259.66 206.038 259.504C205.782 259.348 205.58 259.129 205.433 258.847C205.285 258.565 205.211 258.245 205.211 257.885ZM208.23 257.891C208.23 257.622 208.175 257.388 208.067 257.189C207.959 256.989 207.811 256.837 207.625 256.733C207.443 256.625 207.241 256.571 207.02 256.571C206.799 256.571 206.597 256.623 206.415 256.727C206.233 256.831 206.087 256.983 205.979 257.182C205.871 257.382 205.816 257.616 205.816 257.885C205.816 258.158 205.871 258.396 205.979 258.6C206.087 258.8 206.233 258.954 206.415 259.062C206.597 259.166 206.799 259.218 207.02 259.218C207.241 259.218 207.443 259.166 207.625 259.062C207.811 258.954 207.959 258.8 208.067 258.6C208.175 258.396 208.23 258.16 208.23 257.891ZM210.134 255.536C210.021 255.536 209.926 255.497 209.848 255.419C209.77 255.341 209.731 255.246 209.731 255.133C209.731 255.02 209.77 254.925 209.848 254.847C209.926 254.769 210.021 254.73 210.134 254.73C210.242 254.73 210.334 254.769 210.407 254.847C210.485 254.925 210.524 255.02 210.524 255.133C210.524 255.246 210.485 255.341 210.407 255.419C210.334 255.497 210.242 255.536 210.134 255.536ZM210.42 256.115V259.68H209.828V256.115H210.42ZM212.021 256.694C212.125 256.491 212.272 256.332 212.463 256.219C212.658 256.107 212.895 256.05 213.172 256.05V256.662H213.016C212.353 256.662 212.021 257.022 212.021 257.742V259.68H211.429V256.115H212.021V256.694Z" fill="#2E2C43"/>
<rect x="152.595" y="203.663" width="6.96923" height="6.96923" stroke="#FB8C00" stroke-width="0.464615"/>
<rect x="152.595" y="231.075" width="6.96923" height="6.96923" stroke="#FB8C00" stroke-width="0.464615"/>
<rect x="152.595" y="254.306" width="6.96923" height="6.96923" stroke="#FB8C00" stroke-width="0.464615"/>
<rect x="152.595" y="278.931" width="6.96923" height="6.96923" stroke="#FB8C00" stroke-width="0.464615"/>
<path d="M171.854 279.788V281.303H173.506V281.791H171.854V283.352H173.701V283.84H171.262V279.3H173.701V279.788H171.854ZM175.189 279.027V283.84H174.597V279.027H175.189ZM179.45 281.921C179.45 282.034 179.443 282.153 179.43 282.279H176.581C176.603 282.63 176.722 282.906 176.939 283.105C177.16 283.3 177.427 283.398 177.739 283.398C177.995 283.398 178.208 283.339 178.377 283.222C178.55 283.101 178.672 282.94 178.741 282.741H179.378C179.283 283.083 179.092 283.363 178.806 283.58C178.52 283.792 178.164 283.899 177.739 283.899C177.401 283.899 177.097 283.823 176.829 283.671C176.564 283.519 176.356 283.305 176.204 283.027C176.052 282.745 175.977 282.42 175.977 282.051C175.977 281.683 176.05 281.36 176.198 281.082C176.345 280.805 176.551 280.592 176.816 280.445C177.084 280.293 177.392 280.217 177.739 280.217C178.078 280.217 178.377 280.291 178.637 280.438C178.897 280.586 179.097 280.789 179.235 281.05C179.378 281.305 179.45 281.596 179.45 281.921ZM178.839 281.798C178.839 281.572 178.789 281.379 178.689 281.219C178.589 281.054 178.453 280.93 178.279 280.848C178.11 280.761 177.921 280.718 177.713 280.718C177.414 280.718 177.158 280.813 176.946 281.004C176.738 281.195 176.618 281.459 176.588 281.798H178.839ZM180.01 282.051C180.01 281.683 180.084 281.362 180.231 281.089C180.379 280.811 180.583 280.596 180.843 280.445C181.107 280.293 181.409 280.217 181.747 280.217C182.185 280.217 182.545 280.323 182.827 280.536C183.113 280.748 183.301 281.043 183.393 281.42H182.755C182.694 281.204 182.575 281.032 182.397 280.907C182.224 280.781 182.007 280.718 181.747 280.718C181.409 280.718 181.135 280.835 180.927 281.069C180.719 281.299 180.615 281.626 180.615 282.051C180.615 282.481 180.719 282.812 180.927 283.047C181.135 283.281 181.409 283.398 181.747 283.398C182.007 283.398 182.224 283.337 182.397 283.216C182.571 283.094 182.69 282.921 182.755 282.695H183.393C183.297 283.06 183.106 283.352 182.82 283.573C182.534 283.79 182.176 283.899 181.747 283.899C181.409 283.899 181.107 283.823 180.843 283.671C180.583 283.519 180.379 283.305 180.231 283.027C180.084 282.749 180.01 282.424 180.01 282.051ZM184.904 280.763V282.864C184.904 283.038 184.941 283.161 185.015 283.235C185.089 283.305 185.217 283.339 185.399 283.339H185.835V283.84H185.301C184.972 283.84 184.724 283.764 184.56 283.612C184.395 283.461 184.312 283.211 184.312 282.864V280.763H183.851V280.276H184.312V279.378H184.904V280.276H185.835V280.763H184.904ZM187.144 280.854C187.248 280.651 187.395 280.492 187.586 280.38C187.781 280.267 188.017 280.211 188.295 280.211V280.822H188.139C187.475 280.822 187.144 281.182 187.144 281.902V283.84H186.552V280.276H187.144V280.854ZM190.533 283.899C190.199 283.899 189.895 283.823 189.622 283.671C189.353 283.519 189.141 283.305 188.985 283.027C188.833 282.745 188.757 282.42 188.757 282.051C188.757 281.687 188.835 281.366 188.991 281.089C189.152 280.807 189.369 280.592 189.642 280.445C189.915 280.293 190.221 280.217 190.559 280.217C190.897 280.217 191.203 280.293 191.476 280.445C191.749 280.592 191.964 280.805 192.12 281.082C192.28 281.36 192.361 281.683 192.361 282.051C192.361 282.42 192.278 282.745 192.113 283.027C191.953 283.305 191.734 283.519 191.456 283.671C191.179 283.823 190.871 283.899 190.533 283.899ZM190.533 283.378C190.745 283.378 190.945 283.328 191.131 283.229C191.318 283.129 191.467 282.979 191.58 282.78C191.697 282.58 191.756 282.338 191.756 282.051C191.756 281.765 191.699 281.522 191.587 281.323C191.474 281.123 191.326 280.976 191.144 280.88C190.962 280.781 190.765 280.731 190.552 280.731C190.336 280.731 190.136 280.781 189.954 280.88C189.776 280.976 189.633 281.123 189.525 281.323C189.416 281.522 189.362 281.765 189.362 282.051C189.362 282.342 189.414 282.587 189.518 282.786C189.627 282.986 189.77 283.135 189.947 283.235C190.125 283.331 190.32 283.378 190.533 283.378ZM194.876 280.211C195.309 280.211 195.661 280.343 195.929 280.607C196.198 280.867 196.333 281.245 196.333 281.739V283.84H195.747V281.824C195.747 281.468 195.658 281.197 195.481 281.011C195.303 280.82 195.06 280.724 194.752 280.724C194.44 280.724 194.19 280.822 194.004 281.017C193.822 281.212 193.731 281.496 193.731 281.869V283.84H193.139V280.276H193.731V280.783C193.848 280.601 194.006 280.46 194.206 280.36C194.409 280.26 194.633 280.211 194.876 280.211ZM197.605 279.697C197.493 279.697 197.397 279.658 197.319 279.58C197.241 279.502 197.202 279.406 197.202 279.293C197.202 279.181 197.241 279.085 197.319 279.007C197.397 278.929 197.493 278.89 197.605 278.89C197.714 278.89 197.805 278.929 197.878 279.007C197.957 279.085 197.996 279.181 197.996 279.293C197.996 279.406 197.957 279.502 197.878 279.58C197.805 279.658 197.714 279.697 197.605 279.697ZM197.891 280.276V283.84H197.3V280.276H197.891ZM198.679 282.051C198.679 281.683 198.753 281.362 198.9 281.089C199.048 280.811 199.252 280.596 199.512 280.445C199.776 280.293 200.078 280.217 200.416 280.217C200.854 280.217 201.214 280.323 201.496 280.536C201.782 280.748 201.97 281.043 202.062 281.42H201.424C201.363 281.204 201.244 281.032 201.066 280.907C200.893 280.781 200.676 280.718 200.416 280.718C200.078 280.718 199.804 280.835 199.596 281.069C199.388 281.299 199.284 281.626 199.284 282.051C199.284 282.481 199.388 282.812 199.596 283.047C199.804 283.281 200.078 283.398 200.416 283.398C200.676 283.398 200.893 283.337 201.066 283.216C201.24 283.094 201.359 282.921 201.424 282.695H202.062C201.966 283.06 201.775 283.352 201.489 283.573C201.203 283.79 200.845 283.899 200.416 283.899C200.078 283.899 199.776 283.823 199.512 283.671C199.252 283.519 199.048 283.305 198.9 283.027C198.753 282.749 198.679 282.424 198.679 282.051ZM204.113 283.899C203.84 283.899 203.595 283.853 203.378 283.762C203.161 283.667 202.99 283.537 202.864 283.372C202.739 283.203 202.669 283.01 202.656 282.793H203.268C203.285 282.971 203.367 283.116 203.515 283.229C203.667 283.341 203.864 283.398 204.107 283.398C204.332 283.398 204.51 283.348 204.64 283.248C204.77 283.148 204.835 283.023 204.835 282.871C204.835 282.715 204.766 282.6 204.627 282.526C204.488 282.448 204.274 282.372 203.983 282.298C203.719 282.229 203.502 282.16 203.333 282.09C203.168 282.017 203.025 281.91 202.903 281.772C202.786 281.629 202.728 281.442 202.728 281.212C202.728 281.03 202.782 280.863 202.89 280.711C202.999 280.56 203.153 280.44 203.352 280.354C203.552 280.263 203.779 280.217 204.035 280.217C204.43 280.217 204.749 280.317 204.991 280.516C205.234 280.716 205.364 280.989 205.382 281.336H204.79C204.777 281.149 204.701 281 204.562 280.887C204.428 280.774 204.246 280.718 204.016 280.718C203.803 280.718 203.634 280.763 203.508 280.854C203.383 280.946 203.32 281.065 203.32 281.212C203.32 281.329 203.357 281.427 203.43 281.505C203.508 281.579 203.604 281.639 203.716 281.687C203.834 281.73 203.994 281.78 204.198 281.837C204.454 281.906 204.662 281.975 204.822 282.045C204.983 282.11 205.119 282.21 205.232 282.344C205.349 282.478 205.41 282.654 205.414 282.871C205.414 283.066 205.36 283.242 205.252 283.398C205.143 283.554 204.989 283.677 204.79 283.769C204.595 283.855 204.369 283.899 204.113 283.899ZM211.464 283.84L210.872 283.242C210.651 283.471 210.414 283.643 210.163 283.756C209.911 283.864 209.627 283.918 209.311 283.918C208.999 283.918 208.721 283.862 208.478 283.749C208.24 283.636 208.053 283.476 207.919 283.268C207.789 283.06 207.724 282.817 207.724 282.539C207.724 282.223 207.813 281.945 207.99 281.707C208.173 281.464 208.439 281.273 208.79 281.134C208.652 280.969 208.552 280.818 208.491 280.679C208.431 280.54 208.4 280.388 208.4 280.224C208.4 280.033 208.448 279.861 208.543 279.71C208.643 279.554 208.784 279.432 208.966 279.345C209.148 279.259 209.359 279.215 209.597 279.215C209.831 279.215 210.035 279.261 210.208 279.352C210.382 279.443 210.512 279.571 210.599 279.736C210.685 279.896 210.725 280.076 210.716 280.276H210.124C210.128 280.098 210.078 279.959 209.974 279.859C209.87 279.755 209.736 279.703 209.571 279.703C209.398 279.703 209.257 279.753 209.148 279.853C209.044 279.948 208.992 280.072 208.992 280.224C208.992 280.354 209.027 280.479 209.096 280.601C209.17 280.722 209.291 280.872 209.46 281.05L210.813 282.409L210.93 282.227L211.373 281.485H212.01L211.477 282.409C211.403 282.539 211.316 282.676 211.217 282.819L212.238 283.84H211.464ZM209.311 283.411C209.545 283.411 209.755 283.365 209.942 283.274C210.133 283.183 210.313 283.042 210.482 282.851L209.148 281.511C208.593 281.724 208.316 282.06 208.316 282.52C208.316 282.775 208.407 282.988 208.589 283.157C208.775 283.326 209.016 283.411 209.311 283.411ZM215.119 279.788V281.303H216.771V281.791H215.119V283.352H216.966V283.84H214.527V279.3H216.966V279.788H215.119ZM218.453 279.027V283.84H217.862V279.027H218.453ZM222.715 281.921C222.715 282.034 222.708 282.153 222.695 282.279H219.846C219.868 282.63 219.987 282.906 220.204 283.105C220.425 283.3 220.692 283.398 221.004 283.398C221.26 283.398 221.472 283.339 221.641 283.222C221.815 283.101 221.936 282.94 222.006 282.741H222.643C222.548 283.083 222.357 283.363 222.071 283.58C221.784 283.792 221.429 283.899 221.004 283.899C220.666 283.899 220.362 283.823 220.093 283.671C219.829 283.519 219.621 283.305 219.469 283.027C219.317 282.745 219.241 282.42 219.241 282.051C219.241 281.683 219.315 281.36 219.462 281.082C219.61 280.805 219.816 280.592 220.08 280.445C220.349 280.293 220.657 280.217 221.004 280.217C221.342 280.217 221.641 280.291 221.901 280.438C222.162 280.586 222.361 280.789 222.5 281.05C222.643 281.305 222.715 281.596 222.715 281.921ZM222.103 281.798C222.103 281.572 222.053 281.379 221.954 281.219C221.854 281.054 221.717 280.93 221.544 280.848C221.375 280.761 221.186 280.718 220.978 280.718C220.679 280.718 220.423 280.813 220.21 281.004C220.002 281.195 219.883 281.459 219.853 281.798H222.103ZM223.275 282.051C223.275 281.683 223.348 281.362 223.496 281.089C223.643 280.811 223.847 280.596 224.107 280.445C224.372 280.293 224.673 280.217 225.011 280.217C225.449 280.217 225.809 280.323 226.091 280.536C226.377 280.748 226.566 281.043 226.657 281.42H226.02C225.959 281.204 225.84 281.032 225.662 280.907C225.488 280.781 225.272 280.718 225.011 280.718C224.673 280.718 224.4 280.835 224.192 281.069C223.984 281.299 223.88 281.626 223.88 282.051C223.88 282.481 223.984 282.812 224.192 283.047C224.4 283.281 224.673 283.398 225.011 283.398C225.272 283.398 225.488 283.337 225.662 283.216C225.835 283.094 225.955 282.921 226.02 282.695H226.657C226.562 283.06 226.371 283.352 226.085 283.573C225.799 283.79 225.441 283.899 225.011 283.899C224.673 283.899 224.372 283.823 224.107 283.671C223.847 283.519 223.643 283.305 223.496 283.027C223.348 282.749 223.275 282.424 223.275 282.051ZM228.169 280.763V282.864C228.169 283.038 228.206 283.161 228.28 283.235C228.353 283.305 228.481 283.339 228.663 283.339H229.099V283.84H228.566C228.236 283.84 227.989 283.764 227.824 283.612C227.659 283.461 227.577 283.211 227.577 282.864V280.763H227.115V280.276H227.577V279.378H228.169V280.276H229.099V280.763H228.169ZM230.408 280.854C230.512 280.651 230.66 280.492 230.851 280.38C231.046 280.267 231.282 280.211 231.56 280.211V280.822H231.403C230.74 280.822 230.408 281.182 230.408 281.902V283.84H229.816V280.276H230.408V280.854ZM232.549 279.697C232.436 279.697 232.34 279.658 232.262 279.58C232.184 279.502 232.145 279.406 232.145 279.293C232.145 279.181 232.184 279.085 232.262 279.007C232.34 278.929 232.436 278.89 232.549 278.89C232.657 278.89 232.748 278.929 232.822 279.007C232.9 279.085 232.939 279.181 232.939 279.293C232.939 279.406 232.9 279.502 232.822 279.58C232.748 279.658 232.657 279.697 232.549 279.697ZM232.835 280.276V283.84H232.243V280.276H232.835ZM233.622 282.051C233.622 281.683 233.696 281.362 233.844 281.089C233.991 280.811 234.195 280.596 234.455 280.445C234.72 280.293 235.021 280.217 235.359 280.217C235.797 280.217 236.157 280.323 236.439 280.536C236.725 280.748 236.914 281.043 237.005 281.42H236.367C236.307 281.204 236.187 281.032 236.01 280.907C235.836 280.781 235.619 280.718 235.359 280.718C235.021 280.718 234.748 280.835 234.54 281.069C234.331 281.299 234.227 281.626 234.227 282.051C234.227 282.481 234.331 282.812 234.54 283.047C234.748 283.281 235.021 283.398 235.359 283.398C235.619 283.398 235.836 283.337 236.01 283.216C236.183 283.094 236.302 282.921 236.367 282.695H237.005C236.909 283.06 236.719 283.352 236.432 283.573C236.146 283.79 235.788 283.899 235.359 283.899C235.021 283.899 234.72 283.823 234.455 283.671C234.195 283.519 233.991 283.305 233.844 283.027C233.696 282.749 233.622 282.424 233.622 282.051ZM237.573 282.045C237.573 281.681 237.647 281.362 237.795 281.089C237.942 280.811 238.144 280.596 238.4 280.445C238.66 280.293 238.948 280.217 239.265 280.217C239.577 280.217 239.848 280.284 240.078 280.419C240.308 280.553 240.479 280.722 240.592 280.926V280.276H241.19V283.84H240.592V283.177C240.475 283.385 240.299 283.558 240.065 283.697C239.835 283.831 239.566 283.899 239.258 283.899C238.942 283.899 238.655 283.821 238.4 283.664C238.144 283.508 237.942 283.289 237.795 283.007C237.647 282.726 237.573 282.405 237.573 282.045ZM240.592 282.051C240.592 281.782 240.537 281.548 240.429 281.349C240.321 281.149 240.173 280.998 239.987 280.893C239.805 280.785 239.603 280.731 239.382 280.731C239.161 280.731 238.959 280.783 238.777 280.887C238.595 280.991 238.449 281.143 238.341 281.342C238.233 281.542 238.178 281.776 238.178 282.045C238.178 282.318 238.233 282.557 238.341 282.76C238.449 282.96 238.595 283.114 238.777 283.222C238.959 283.326 239.161 283.378 239.382 283.378C239.603 283.378 239.805 283.326 239.987 283.222C240.173 283.114 240.321 282.96 240.429 282.76C240.537 282.557 240.592 282.32 240.592 282.051ZM242.782 279.027V283.84H242.19V279.027H242.782ZM246.117 279.306V283.84H245.525V279.306H246.117ZM247.848 280.763V282.864C247.848 283.038 247.885 283.161 247.959 283.235C248.032 283.305 248.16 283.339 248.342 283.339H248.778V283.84H248.245C247.915 283.84 247.668 283.764 247.503 283.612C247.338 283.461 247.256 283.211 247.256 282.864V280.763H246.794V280.276H247.256V279.378H247.848V280.276H248.778V280.763H247.848ZM252.748 281.921C252.748 282.034 252.741 282.153 252.728 282.279H249.879C249.901 282.63 250.02 282.906 250.237 283.105C250.458 283.3 250.725 283.398 251.037 283.398C251.293 283.398 251.505 283.339 251.674 283.222C251.848 283.101 251.969 282.94 252.039 282.741H252.676C252.581 283.083 252.39 283.363 252.104 283.58C251.817 283.792 251.462 283.899 251.037 283.899C250.699 283.899 250.395 283.823 250.126 283.671C249.862 283.519 249.654 283.305 249.502 283.027C249.35 282.745 249.274 282.42 249.274 282.051C249.274 281.683 249.348 281.36 249.495 281.082C249.643 280.805 249.849 280.592 250.113 280.445C250.382 280.293 250.69 280.217 251.037 280.217C251.375 280.217 251.674 280.291 251.935 280.438C252.195 280.586 252.394 280.789 252.533 281.05C252.676 281.305 252.748 281.596 252.748 281.921ZM252.136 281.798C252.136 281.572 252.086 281.379 251.987 281.219C251.887 281.054 251.75 280.93 251.577 280.848C251.408 280.761 251.219 280.718 251.011 280.718C250.712 280.718 250.456 280.813 250.243 281.004C250.035 281.195 249.916 281.459 249.886 281.798H252.136ZM257.815 280.211C258.093 280.211 258.34 280.269 258.557 280.386C258.774 280.499 258.945 280.67 259.071 280.9C259.197 281.13 259.259 281.41 259.259 281.739V283.84H258.674V281.824C258.674 281.468 258.585 281.197 258.407 281.011C258.234 280.82 257.998 280.724 257.698 280.724C257.39 280.724 257.145 280.824 256.963 281.024C256.781 281.219 256.69 281.503 256.69 281.876V283.84H256.105V281.824C256.105 281.468 256.016 281.197 255.838 281.011C255.665 280.82 255.428 280.724 255.129 280.724C254.821 280.724 254.576 280.824 254.394 281.024C254.212 281.219 254.121 281.503 254.121 281.876V283.84H253.529V280.276H254.121V280.789C254.238 280.603 254.394 280.46 254.589 280.36C254.789 280.26 255.008 280.211 255.246 280.211C255.545 280.211 255.81 280.278 256.04 280.412C256.27 280.547 256.441 280.744 256.554 281.004C256.653 280.753 256.818 280.557 257.048 280.419C257.278 280.28 257.534 280.211 257.815 280.211ZM261.492 283.899C261.219 283.899 260.974 283.853 260.757 283.762C260.54 283.667 260.369 283.537 260.243 283.372C260.118 283.203 260.048 283.01 260.035 282.793H260.647C260.664 282.971 260.746 283.116 260.894 283.229C261.046 283.341 261.243 283.398 261.486 283.398C261.711 283.398 261.889 283.348 262.019 283.248C262.149 283.148 262.214 283.023 262.214 282.871C262.214 282.715 262.145 282.6 262.006 282.526C261.867 282.448 261.653 282.372 261.362 282.298C261.098 282.229 260.881 282.16 260.712 282.09C260.547 282.017 260.404 281.91 260.282 281.772C260.165 281.629 260.107 281.442 260.107 281.212C260.107 281.03 260.161 280.863 260.269 280.711C260.378 280.56 260.532 280.44 260.731 280.354C260.931 280.263 261.158 280.217 261.414 280.217C261.809 280.217 262.128 280.317 262.37 280.516C262.613 280.716 262.743 280.989 262.761 281.336H262.169C262.156 281.149 262.08 281 261.941 280.887C261.807 280.774 261.625 280.718 261.395 280.718C261.182 280.718 261.013 280.763 260.887 280.854C260.762 280.946 260.699 281.065 260.699 281.212C260.699 281.329 260.736 281.427 260.809 281.505C260.887 281.579 260.983 281.639 261.096 281.687C261.213 281.73 261.373 281.78 261.577 281.837C261.833 281.906 262.041 281.975 262.201 282.045C262.362 282.11 262.498 282.21 262.611 282.344C262.728 282.478 262.789 282.654 262.793 282.871C262.793 283.066 262.739 283.242 262.631 283.398C262.522 283.554 262.368 283.677 262.169 283.769C261.974 283.855 261.748 283.899 261.492 283.899Z" fill="#2E2C43"/>
<g filter="url(#filter1_d_1165_3)">
<path d="M261.108 150.664H158.202C156.067 150.664 154.337 151.302 154.337 152.088V175.95C154.337 176.737 156.067 177.375 158.202 177.375H261.108C263.242 177.375 264.973 176.737 264.973 175.95V152.088C264.973 151.302 263.242 150.664 261.108 150.664Z" fill="white"/>
</g>
<rect x="144" y="150" width="151" height="27.8769" rx="11.1508" fill="white"/>
<rect x="144.232" y="150.232" width="150.535" height="27.4123" rx="10.9185" stroke="black" stroke-opacity="0.1" stroke-width="0.464615"/>
<path d="M194.402 165.873C193.981 165.873 193.639 165.773 193.374 165.574C193.114 165.37 192.984 165.099 192.984 164.761C192.984 164.696 192.986 164.648 192.99 164.618H193.576C193.563 164.83 193.628 165.012 193.771 165.164C193.914 165.316 194.133 165.392 194.428 165.392C194.723 165.392 194.957 165.325 195.13 165.19C195.304 165.056 195.39 164.867 195.39 164.624C195.39 164.477 195.347 164.353 195.26 164.254C195.178 164.149 195.074 164.065 194.948 164C194.827 163.93 194.66 163.855 194.447 163.772C194.187 163.668 193.977 163.571 193.816 163.479C193.66 163.388 193.528 163.265 193.42 163.109C193.311 162.953 193.261 162.755 193.27 162.517C193.27 162.265 193.337 162.042 193.472 161.847C193.606 161.652 193.79 161.502 194.024 161.398C194.263 161.29 194.534 161.235 194.838 161.235C195.132 161.235 195.386 161.285 195.599 161.385C195.815 161.485 195.978 161.623 196.086 161.801C196.195 161.979 196.243 162.179 196.23 162.4H195.612C195.62 162.287 195.594 162.179 195.534 162.074C195.477 161.97 195.386 161.886 195.26 161.821C195.139 161.756 194.987 161.723 194.805 161.723C194.523 161.723 194.295 161.79 194.122 161.925C193.953 162.055 193.868 162.235 193.868 162.465C193.868 162.599 193.907 162.716 193.985 162.816C194.068 162.911 194.17 162.994 194.291 163.063C194.413 163.128 194.58 163.206 194.792 163.297C195.048 163.406 195.256 163.508 195.416 163.603C195.581 163.694 195.72 163.818 195.833 163.974C195.945 164.13 196.002 164.325 196.002 164.559C196.002 164.811 195.937 165.036 195.807 165.236C195.677 165.431 195.49 165.587 195.247 165.704C195.004 165.817 194.723 165.873 194.402 165.873ZM198.819 162.205C199.118 162.205 199.376 162.263 199.593 162.38C199.814 162.493 199.981 162.653 200.093 162.862C200.211 163.065 200.269 163.3 200.269 163.564C200.269 163.655 200.258 163.766 200.237 163.896C200.219 164.009 200.191 164.126 200.152 164.247H197.303C197.294 164.334 197.29 164.397 197.29 164.436C197.29 164.735 197.379 164.969 197.557 165.138C197.739 165.303 197.975 165.385 198.266 165.385C198.522 165.385 198.745 165.327 198.936 165.21C199.131 165.088 199.278 164.928 199.378 164.728H200.015C199.859 165.071 199.619 165.351 199.293 165.567C198.972 165.78 198.6 165.886 198.175 165.886C197.728 165.886 197.368 165.758 197.095 165.502C196.826 165.242 196.692 164.889 196.692 164.442C196.692 164.316 196.705 164.182 196.731 164.039C196.796 163.67 196.928 163.347 197.127 163.07C197.327 162.792 197.572 162.58 197.862 162.432C198.157 162.28 198.476 162.205 198.819 162.205ZM199.638 163.818C199.651 163.731 199.658 163.651 199.658 163.577C199.658 163.3 199.569 163.085 199.391 162.933C199.218 162.781 198.99 162.705 198.708 162.705C198.404 162.705 198.129 162.805 197.882 163.005C197.635 163.2 197.468 163.471 197.381 163.818H199.638ZM200.764 164.032C200.829 163.668 200.959 163.349 201.154 163.076C201.354 162.799 201.595 162.584 201.876 162.432C202.163 162.28 202.466 162.205 202.787 162.205C203.099 162.205 203.357 162.272 203.561 162.406C203.765 162.541 203.906 162.71 203.984 162.914L204.101 162.263H204.699L204.069 165.828H203.47L203.594 165.164C203.438 165.372 203.232 165.546 202.976 165.685C202.72 165.819 202.438 165.886 202.13 165.886C201.853 165.886 201.608 165.828 201.395 165.711C201.183 165.589 201.018 165.418 200.901 165.197C200.784 164.976 200.725 164.72 200.725 164.429C200.725 164.299 200.738 164.167 200.764 164.032ZM203.789 164.039C203.806 163.948 203.815 163.85 203.815 163.746C203.815 163.43 203.719 163.18 203.529 162.998C203.342 162.812 203.104 162.718 202.813 162.718C202.592 162.718 202.38 162.77 202.176 162.875C201.976 162.979 201.805 163.13 201.662 163.33C201.519 163.529 201.423 163.764 201.376 164.032C201.358 164.123 201.35 164.223 201.35 164.332C201.35 164.652 201.443 164.906 201.629 165.093C201.816 165.275 202.054 165.366 202.345 165.366C202.566 165.366 202.776 165.314 202.976 165.21C203.18 165.101 203.353 164.947 203.496 164.748C203.644 164.544 203.741 164.308 203.789 164.039ZM206.175 162.94C206.318 162.705 206.498 162.523 206.714 162.393C206.931 162.263 207.178 162.198 207.456 162.198L207.345 162.809H207.189C206.881 162.809 206.623 162.892 206.415 163.057C206.211 163.221 206.075 163.499 206.005 163.889L205.661 165.828H205.069L205.7 162.263H206.292L206.175 162.94ZM207.586 164.039C207.651 163.67 207.782 163.349 207.977 163.076C208.176 162.799 208.421 162.584 208.712 162.432C209.002 162.28 209.317 162.205 209.655 162.205C210.093 162.205 210.433 162.311 210.676 162.523C210.923 162.736 211.06 163.031 211.086 163.408H210.448C210.427 163.191 210.338 163.02 210.182 162.894C210.03 162.768 209.824 162.705 209.564 162.705C209.226 162.705 208.931 162.823 208.679 163.057C208.432 163.287 208.272 163.614 208.198 164.039C208.176 164.182 208.165 164.301 208.165 164.397C208.165 164.713 208.25 164.958 208.419 165.132C208.588 165.301 208.814 165.385 209.095 165.385C209.356 165.385 209.581 165.325 209.772 165.203C209.967 165.082 210.117 164.908 210.221 164.683H210.858C210.702 165.047 210.461 165.34 210.136 165.561C209.811 165.778 209.434 165.886 209.004 165.886C208.558 165.886 208.202 165.758 207.938 165.502C207.677 165.247 207.547 164.897 207.547 164.455C207.547 164.321 207.56 164.182 207.586 164.039ZM213.86 162.198C214.215 162.198 214.501 162.298 214.718 162.497C214.935 162.692 215.043 162.976 215.043 163.349C215.043 163.488 215.033 163.614 215.011 163.727L214.64 165.828H214.055L214.413 163.811C214.43 163.72 214.439 163.625 214.439 163.525C214.439 163.26 214.365 163.059 214.217 162.92C214.074 162.781 213.873 162.712 213.612 162.712C213.3 162.712 213.034 162.809 212.812 163.005C212.596 163.2 212.455 163.484 212.39 163.857V163.844L212.038 165.828H211.446L212.299 161.014H212.89L212.578 162.777C212.726 162.595 212.912 162.454 213.138 162.354C213.367 162.25 213.608 162.198 213.86 162.198ZM219.958 162.198C220.313 162.198 220.599 162.298 220.816 162.497C221.033 162.692 221.142 162.976 221.142 163.349C221.142 163.488 221.131 163.614 221.109 163.727L220.738 165.828H220.153L220.511 163.811C220.528 163.72 220.537 163.625 220.537 163.525C220.537 163.26 220.463 163.059 220.315 162.92C220.172 162.781 219.971 162.712 219.711 162.712C219.398 162.712 219.132 162.809 218.91 163.005C218.694 163.2 218.553 163.484 218.488 163.857V163.844L218.136 165.828H217.544L218.397 161.014H218.989L218.676 162.777C218.824 162.595 219.01 162.454 219.236 162.354C219.466 162.25 219.706 162.198 219.958 162.198ZM223.884 162.205C224.183 162.205 224.441 162.263 224.658 162.38C224.879 162.493 225.046 162.653 225.159 162.862C225.276 163.065 225.335 163.3 225.335 163.564C225.335 163.655 225.324 163.766 225.302 163.896C225.285 164.009 225.257 164.126 225.218 164.247H222.369C222.36 164.334 222.356 164.397 222.356 164.436C222.356 164.735 222.445 164.969 222.622 165.138C222.804 165.303 223.041 165.385 223.331 165.385C223.587 165.385 223.81 165.327 224.001 165.21C224.196 165.088 224.344 164.928 224.444 164.728H225.081C224.925 165.071 224.684 165.351 224.359 165.567C224.038 165.78 223.665 165.886 223.24 165.886C222.794 165.886 222.434 165.758 222.16 165.502C221.892 165.242 221.757 164.889 221.757 164.442C221.757 164.316 221.77 164.182 221.796 164.039C221.861 163.67 221.994 163.347 222.193 163.07C222.392 162.792 222.637 162.58 222.928 162.432C223.223 162.28 223.542 162.205 223.884 162.205ZM224.704 163.818C224.717 163.731 224.723 163.651 224.723 163.577C224.723 163.3 224.634 163.085 224.457 162.933C224.283 162.781 224.055 162.705 223.774 162.705C223.47 162.705 223.195 162.805 222.948 163.005C222.7 163.2 222.533 163.471 222.447 163.818H224.704ZM226.845 162.94C226.988 162.705 227.168 162.523 227.384 162.393C227.601 162.263 227.848 162.198 228.126 162.198L228.015 162.809H227.859C227.551 162.809 227.293 162.892 227.085 163.057C226.881 163.221 226.745 163.499 226.675 163.889L226.331 165.828H225.739L226.37 162.263H226.962L226.845 162.94ZM230.344 162.205C230.644 162.205 230.902 162.263 231.118 162.38C231.34 162.493 231.506 162.653 231.619 162.862C231.736 163.065 231.795 163.3 231.795 163.564C231.795 163.655 231.784 163.766 231.762 163.896C231.745 164.009 231.717 164.126 231.678 164.247H228.829C228.82 164.334 228.816 164.397 228.816 164.436C228.816 164.735 228.905 164.969 229.082 165.138C229.265 165.303 229.501 165.385 229.791 165.385C230.047 165.385 230.271 165.327 230.461 165.21C230.657 165.088 230.804 164.928 230.904 164.728H231.541C231.385 165.071 231.144 165.351 230.819 165.567C230.498 165.78 230.125 165.886 229.7 165.886C229.254 165.886 228.894 165.758 228.621 165.502C228.352 165.242 228.217 164.889 228.217 164.442C228.217 164.316 228.23 164.182 228.256 164.039C228.321 163.67 228.454 163.347 228.653 163.07C228.853 162.792 229.098 162.58 229.388 162.432C229.683 162.28 230.002 162.205 230.344 162.205ZM231.164 163.818C231.177 163.731 231.183 163.651 231.183 163.577C231.183 163.3 231.095 163.085 230.917 162.933C230.743 162.781 230.516 162.705 230.234 162.705C229.93 162.705 229.655 162.805 229.408 163.005C229.161 163.2 228.994 163.471 228.907 163.818H231.164ZM232.381 165.867C232.281 165.867 232.199 165.836 232.134 165.776C232.073 165.715 232.043 165.635 232.043 165.535C232.043 165.405 232.091 165.294 232.186 165.203C232.281 165.108 232.394 165.06 232.524 165.06C232.624 165.06 232.704 165.09 232.765 165.151C232.826 165.212 232.856 165.292 232.856 165.392C232.856 165.522 232.808 165.635 232.713 165.73C232.617 165.821 232.507 165.867 232.381 165.867ZM233.747 165.867C233.647 165.867 233.565 165.836 233.5 165.776C233.439 165.715 233.409 165.635 233.409 165.535C233.409 165.405 233.456 165.294 233.552 165.203C233.647 165.108 233.76 165.06 233.89 165.06C233.99 165.06 234.07 165.09 234.131 165.151C234.191 165.212 234.222 165.292 234.222 165.392C234.222 165.522 234.174 165.635 234.078 165.73C233.983 165.821 233.873 165.867 233.747 165.867ZM235.112 165.867C235.013 165.867 234.93 165.836 234.865 165.776C234.805 165.715 234.774 165.635 234.774 165.535C234.774 165.405 234.822 165.294 234.917 165.203C235.013 165.108 235.125 165.06 235.256 165.06C235.355 165.06 235.436 165.09 235.496 165.151C235.557 165.212 235.587 165.292 235.587 165.392C235.587 165.522 235.54 165.635 235.444 165.73C235.349 165.821 235.238 165.867 235.112 165.867ZM236.478 165.867C236.378 165.867 236.296 165.836 236.231 165.776C236.17 165.715 236.14 165.635 236.14 165.535C236.14 165.405 236.188 165.294 236.283 165.203C236.378 165.108 236.491 165.06 236.621 165.06C236.721 165.06 236.801 165.09 236.862 165.151C236.923 165.212 236.953 165.292 236.953 165.392C236.953 165.522 236.905 165.635 236.81 165.73C236.715 165.821 236.604 165.867 236.478 165.867ZM237.844 165.867C237.744 165.867 237.662 165.836 237.597 165.776C237.536 165.715 237.506 165.635 237.506 165.535C237.506 165.405 237.553 165.294 237.649 165.203C237.744 165.108 237.857 165.06 237.987 165.06C238.087 165.06 238.167 165.09 238.228 165.151C238.288 165.212 238.319 165.292 238.319 165.392C238.319 165.522 238.271 165.635 238.176 165.73C238.08 165.821 237.97 165.867 237.844 165.867ZM239.21 165.867C239.11 165.867 239.027 165.836 238.962 165.776C238.902 165.715 238.871 165.635 238.871 165.535C238.871 165.405 238.919 165.294 239.014 165.203C239.11 165.108 239.223 165.06 239.353 165.06C239.452 165.06 239.533 165.09 239.593 165.151C239.654 165.212 239.684 165.292 239.684 165.392C239.684 165.522 239.637 165.635 239.541 165.73C239.446 165.821 239.335 165.867 239.21 165.867ZM240.575 165.867C240.476 165.867 240.393 165.836 240.328 165.776C240.267 165.715 240.237 165.635 240.237 165.535C240.237 165.405 240.285 165.294 240.38 165.203C240.476 165.108 240.588 165.06 240.718 165.06C240.818 165.06 240.898 165.09 240.959 165.151C241.02 165.212 241.05 165.292 241.05 165.392C241.05 165.522 241.002 165.635 240.907 165.73C240.812 165.821 240.701 165.867 240.575 165.867ZM241.941 165.867C241.841 165.867 241.759 165.836 241.694 165.776C241.633 165.715 241.603 165.635 241.603 165.535C241.603 165.405 241.651 165.294 241.746 165.203C241.841 165.108 241.954 165.06 242.084 165.06C242.184 165.06 242.264 165.09 242.325 165.151C242.386 165.212 242.416 165.292 242.416 165.392C242.416 165.522 242.368 165.635 242.273 165.73C242.177 165.821 242.067 165.867 241.941 165.867Z" fill="#DBCDBB"/>
<path d="M162.585 168.585L160.5 166.497L162.585 168.585ZM161.655 163.706C161.655 164.753 161.239 165.758 160.499 166.499C159.758 167.239 158.754 167.655 157.706 167.655C156.659 167.655 155.654 167.239 154.914 166.499C154.173 165.758 153.757 164.753 153.757 163.706C153.757 162.659 154.173 161.654 154.914 160.914C155.654 160.173 156.659 159.757 157.706 159.757C158.754 159.757 159.758 160.173 160.499 160.914C161.239 161.654 161.655 162.659 161.655 163.706V163.706Z" stroke="#2E2C43" stroke-width="0.929231" stroke-linecap="round"/>
<defs>
<filter id="filter0_d_1165_3" x="0.876953" y="0.88501" width="399.384" height="528.651" filterUnits="userSpaceOnUse" color-interpolation-filters="sRGB">
<feFlood flood-opacity="0" result="BackgroundImageFix"/>
<feColorMatrix in="SourceAlpha" type="matrix" values="0 0 0 0 0 0 0 0 0 0 0 0 0 0 0 0 0 0 127 0" result="hardAlpha"/>
<feOffset dx="10" dy="10"/>
<feGaussianBlur stdDeviation="50"/>
<feComposite in2="hardAlpha" operator="out"/>
<feColorMatrix type="matrix" values="0 0 0 0 0.741667 0 0 0 0 0.741667 0 0 0 0 0.741667 0 0 0 0.35 0"/>
<feBlend mode="normal" in2="BackgroundImageFix" result="effect1_dropShadow_1165_3"/>
<feBlend mode="normal" in="SourceGraphic" in2="effect1_dropShadow_1165_3" result="shape"/>
</filter>
<filter id="filter1_d_1165_3" x="112.522" y="108.848" width="203.559" height="119.634" filterUnits="userSpaceOnUse" color-interpolation-filters="sRGB">
<feFlood flood-opacity="0" result="BackgroundImageFix"/>
<feColorMatrix in="SourceAlpha" type="matrix" values="0 0 0 0 0 0 0 0 0 0 0 0 0 0 0 0 0 0 127 0" result="hardAlpha"/>
<feOffset dx="4.64615" dy="4.64615"/>
<feGaussianBlur stdDeviation="23.2308"/>
<feComposite in2="hardAlpha" operator="out"/>
<feColorMatrix type="matrix" values="0 0 0 0 0.741667 0 0 0 0 0.741667 0 0 0 0 0.741667 0 0 0 0.35 0"/>
<feBlend mode="normal" in2="BackgroundImageFix" result="effect1_dropShadow_1165_3"/>
<feBlend mode="normal" in="SourceGraphic" in2="effect1_dropShadow_1165_3" result="shape"/>
</filter>
</defs>
</svg>
