<svg width="273" height="343" viewBox="0 0 273 343" fill="none" xmlns="http://www.w3.org/2000/svg">
<rect width="272.127" height="343" rx="24" fill="white"/>
<path d="M49.7032 260.27V261.572H47.1132V270H45.5172V261.572H42.9132V260.27H49.7032ZM58.2635 262.286L53.5315 273.626H51.8795L53.4475 269.874L50.4095 262.286H52.1875L54.3575 268.166L56.6115 262.286H58.2635ZM61.064 263.42C61.3346 263.065 61.7033 262.767 62.17 262.524C62.6366 262.281 63.164 262.16 63.752 262.16C64.424 262.16 65.0353 262.328 65.586 262.664C66.146 262.991 66.5846 263.453 66.902 264.05C67.2193 264.647 67.378 265.333 67.378 266.108C67.378 266.883 67.2193 267.578 66.902 268.194C66.5846 268.801 66.146 269.277 65.586 269.622C65.0353 269.958 64.424 270.126 63.752 270.126C63.164 270.126 62.6413 270.009 62.184 269.776C61.7266 269.533 61.3533 269.235 61.064 268.88V273.668H59.468V262.286H61.064V263.42ZM65.754 266.108C65.754 265.576 65.642 265.119 65.418 264.736C65.2033 264.344 64.914 264.05 64.55 263.854C64.1953 263.649 63.8126 263.546 63.402 263.546C63.0006 263.546 62.618 263.649 62.254 263.854C61.8993 264.059 61.61 264.358 61.386 264.75C61.1713 265.142 61.064 265.604 61.064 266.136C61.064 266.668 61.1713 267.135 61.386 267.536C61.61 267.928 61.8993 268.227 62.254 268.432C62.618 268.637 63.0006 268.74 63.402 268.74C63.8126 268.74 64.1953 268.637 64.55 268.432C64.914 268.217 65.2033 267.909 65.418 267.508C65.642 267.107 65.754 266.64 65.754 266.108ZM76.0263 265.954C76.0263 266.243 76.0076 266.505 75.9703 266.738H70.0763C70.1229 267.354 70.3516 267.849 70.7623 268.222C71.1729 268.595 71.6769 268.782 72.2743 268.782C73.1329 268.782 73.7396 268.423 74.0943 267.704H75.8162C75.5829 268.413 75.1583 268.997 74.5423 269.454C73.9356 269.902 73.1796 270.126 72.2743 270.126C71.5369 270.126 70.8743 269.963 70.2863 269.636C69.7076 269.3 69.2503 268.833 68.9143 268.236C68.5876 267.629 68.4243 266.929 68.4243 266.136C68.4243 265.343 68.5829 264.647 68.9003 264.05C69.2269 263.443 69.6796 262.977 70.2583 262.65C70.8463 262.323 71.5183 262.16 72.2743 262.16C73.0023 262.16 73.6509 262.319 74.2203 262.636C74.7896 262.953 75.2329 263.401 75.5503 263.98C75.8676 264.549 76.0263 265.207 76.0263 265.954ZM74.3603 265.45C74.3509 264.862 74.1409 264.391 73.7303 264.036C73.3196 263.681 72.8109 263.504 72.2043 263.504C71.6536 263.504 71.1823 263.681 70.7903 264.036C70.3983 264.381 70.1649 264.853 70.0903 265.45H74.3603ZM88.1776 262.286L83.4456 273.626H81.7936L83.3616 269.874L80.3236 262.286H82.1016L84.2716 268.166L86.5256 262.286H88.1776ZM92.728 270.126C92 270.126 91.342 269.963 90.754 269.636C90.166 269.3 89.704 268.833 89.368 268.236C89.032 267.629 88.864 266.929 88.864 266.136C88.864 265.352 89.0367 264.657 89.382 264.05C89.7274 263.443 90.1987 262.977 90.796 262.65C91.3934 262.323 92.0607 262.16 92.798 262.16C93.5354 262.16 94.2027 262.323 94.8 262.65C95.3974 262.977 95.8687 263.443 96.214 264.05C96.5594 264.657 96.732 265.352 96.732 266.136C96.732 266.92 96.5547 267.615 96.2 268.222C95.8454 268.829 95.36 269.3 94.744 269.636C94.1374 269.963 93.4654 270.126 92.728 270.126ZM92.728 268.74C93.1387 268.74 93.5214 268.642 93.876 268.446C94.24 268.25 94.534 267.956 94.758 267.564C94.982 267.172 95.094 266.696 95.094 266.136C95.094 265.576 94.9867 265.105 94.772 264.722C94.5574 264.33 94.2727 264.036 93.918 263.84C93.5634 263.644 93.1807 263.546 92.77 263.546C92.3594 263.546 91.9767 263.644 91.622 263.84C91.2767 264.036 91.0014 264.33 90.796 264.722C90.5907 265.105 90.488 265.576 90.488 266.136C90.488 266.967 90.698 267.611 91.118 268.068C91.5474 268.516 92.084 268.74 92.728 268.74ZM105.296 262.286V270H103.7V269.09C103.448 269.407 103.116 269.659 102.706 269.846C102.304 270.023 101.875 270.112 101.418 270.112C100.811 270.112 100.265 269.986 99.7798 269.734C99.3038 269.482 98.9258 269.109 98.6458 268.614C98.3751 268.119 98.2398 267.522 98.2398 266.822V262.286H99.8218V266.584C99.8218 267.275 99.9944 267.807 100.34 268.18C100.685 268.544 101.156 268.726 101.754 268.726C102.351 268.726 102.822 268.544 103.168 268.18C103.522 267.807 103.7 267.275 103.7 266.584V262.286H105.296ZM108.998 263.406C109.231 263.014 109.539 262.711 109.922 262.496C110.314 262.272 110.776 262.16 111.308 262.16V263.812H110.902C110.276 263.812 109.8 263.971 109.474 264.288C109.156 264.605 108.998 265.156 108.998 265.94V270H107.402V262.286H108.998V263.406ZM119.211 270.126C118.605 270.126 118.059 270.019 117.573 269.804C117.097 269.58 116.719 269.281 116.439 268.908C116.159 268.525 116.01 268.101 115.991 267.634H117.643C117.671 267.961 117.825 268.236 118.105 268.46C118.395 268.675 118.754 268.782 119.183 268.782C119.631 268.782 119.977 268.698 120.219 268.53C120.471 268.353 120.597 268.129 120.597 267.858C120.597 267.569 120.457 267.354 120.177 267.214C119.907 267.074 119.473 266.92 118.875 266.752C118.297 266.593 117.825 266.439 117.461 266.29C117.097 266.141 116.78 265.912 116.509 265.604C116.248 265.296 116.117 264.89 116.117 264.386C116.117 263.975 116.239 263.602 116.481 263.266C116.724 262.921 117.069 262.65 117.517 262.454C117.975 262.258 118.497 262.16 119.085 262.16C119.963 262.16 120.667 262.384 121.199 262.832C121.741 263.271 122.03 263.873 122.067 264.638H120.471C120.443 264.293 120.303 264.017 120.051 263.812C119.799 263.607 119.459 263.504 119.029 263.504C118.609 263.504 118.287 263.583 118.063 263.742C117.839 263.901 117.727 264.111 117.727 264.372C117.727 264.577 117.802 264.75 117.951 264.89C118.101 265.03 118.283 265.142 118.497 265.226C118.712 265.301 119.029 265.399 119.449 265.52C120.009 265.669 120.467 265.823 120.821 265.982C121.185 266.131 121.498 266.355 121.759 266.654C122.021 266.953 122.156 267.349 122.165 267.844C122.165 268.283 122.044 268.675 121.801 269.02C121.559 269.365 121.213 269.636 120.765 269.832C120.327 270.028 119.809 270.126 119.211 270.126ZM125.486 263.42C125.757 263.065 126.125 262.767 126.592 262.524C127.059 262.281 127.586 262.16 128.174 262.16C128.846 262.16 129.457 262.328 130.008 262.664C130.568 262.991 131.007 263.453 131.324 264.05C131.641 264.647 131.8 265.333 131.8 266.108C131.8 266.883 131.641 267.578 131.324 268.194C131.007 268.801 130.568 269.277 130.008 269.622C129.457 269.958 128.846 270.126 128.174 270.126C127.586 270.126 127.063 270.009 126.606 269.776C126.149 269.533 125.775 269.235 125.486 268.88V273.668H123.89V262.286H125.486V263.42ZM130.176 266.108C130.176 265.576 130.064 265.119 129.84 264.736C129.625 264.344 129.336 264.05 128.972 263.854C128.617 263.649 128.235 263.546 127.824 263.546C127.423 263.546 127.04 263.649 126.676 263.854C126.321 264.059 126.032 264.358 125.808 264.75C125.593 265.142 125.486 265.604 125.486 266.136C125.486 266.668 125.593 267.135 125.808 267.536C126.032 267.928 126.321 268.227 126.676 268.432C127.04 268.637 127.423 268.74 127.824 268.74C128.235 268.74 128.617 268.637 128.972 268.432C129.336 268.217 129.625 267.909 129.84 267.508C130.064 267.107 130.176 266.64 130.176 266.108ZM132.846 266.108C132.846 265.333 133.005 264.647 133.322 264.05C133.649 263.453 134.087 262.991 134.638 262.664C135.198 262.328 135.814 262.16 136.486 262.16C137.093 262.16 137.62 262.281 138.068 262.524C138.525 262.757 138.889 263.051 139.16 263.406V262.286H140.77V270H139.16V268.852C138.889 269.216 138.521 269.519 138.054 269.762C137.587 270.005 137.055 270.126 136.458 270.126C135.795 270.126 135.189 269.958 134.638 269.622C134.087 269.277 133.649 268.801 133.322 268.194C133.005 267.578 132.846 266.883 132.846 266.108ZM139.16 266.136C139.16 265.604 139.048 265.142 138.824 264.75C138.609 264.358 138.325 264.059 137.97 263.854C137.615 263.649 137.233 263.546 136.822 263.546C136.411 263.546 136.029 263.649 135.674 263.854C135.319 264.05 135.03 264.344 134.806 264.736C134.591 265.119 134.484 265.576 134.484 266.108C134.484 266.64 134.591 267.107 134.806 267.508C135.03 267.909 135.319 268.217 135.674 268.432C136.038 268.637 136.421 268.74 136.822 268.74C137.233 268.74 137.615 268.637 137.97 268.432C138.325 268.227 138.609 267.928 138.824 267.536C139.048 267.135 139.16 266.668 139.16 266.136ZM142.334 266.108C142.334 265.333 142.493 264.647 142.81 264.05C143.137 263.453 143.576 262.991 144.126 262.664C144.686 262.328 145.307 262.16 145.988 262.16C146.492 262.16 146.987 262.272 147.472 262.496C147.967 262.711 148.359 263 148.648 263.364V259.64H150.258V270H148.648V268.838C148.387 269.211 148.023 269.519 147.556 269.762C147.099 270.005 146.572 270.126 145.974 270.126C145.302 270.126 144.686 269.958 144.126 269.622C143.576 269.277 143.137 268.801 142.81 268.194C142.493 267.578 142.334 266.883 142.334 266.108ZM148.648 266.136C148.648 265.604 148.536 265.142 148.312 264.75C148.098 264.358 147.813 264.059 147.458 263.854C147.104 263.649 146.721 263.546 146.31 263.546C145.9 263.546 145.517 263.649 145.162 263.854C144.808 264.05 144.518 264.344 144.294 264.736C144.08 265.119 143.972 265.576 143.972 266.108C143.972 266.64 144.08 267.107 144.294 267.508C144.518 267.909 144.808 268.217 145.162 268.432C145.526 268.637 145.909 268.74 146.31 268.74C146.721 268.74 147.104 268.637 147.458 268.432C147.813 268.227 148.098 267.928 148.312 267.536C148.536 267.135 148.648 266.668 148.648 266.136ZM159.425 265.954C159.425 266.243 159.406 266.505 159.369 266.738H153.475C153.521 267.354 153.75 267.849 154.161 268.222C154.571 268.595 155.075 268.782 155.673 268.782C156.531 268.782 157.138 268.423 157.493 267.704H159.215C158.981 268.413 158.557 268.997 157.941 269.454C157.334 269.902 156.578 270.126 155.673 270.126C154.935 270.126 154.273 269.963 153.685 269.636C153.106 269.3 152.649 268.833 152.313 268.236C151.986 267.629 151.823 266.929 151.823 266.136C151.823 265.343 151.981 264.647 152.299 264.05C152.625 263.443 153.078 262.977 153.657 262.65C154.245 262.323 154.917 262.16 155.673 262.16C156.401 262.16 157.049 262.319 157.619 262.636C158.188 262.953 158.631 263.401 158.949 263.98C159.266 264.549 159.425 265.207 159.425 265.954ZM157.759 265.45C157.749 264.862 157.539 264.391 157.129 264.036C156.718 263.681 156.209 263.504 155.603 263.504C155.052 263.504 154.581 263.681 154.189 264.036C153.797 264.381 153.563 264.853 153.489 265.45H157.759ZM163.795 270.126C163.189 270.126 162.643 270.019 162.157 269.804C161.681 269.58 161.303 269.281 161.023 268.908C160.743 268.525 160.594 268.101 160.575 267.634H162.227C162.255 267.961 162.409 268.236 162.689 268.46C162.979 268.675 163.338 268.782 163.767 268.782C164.215 268.782 164.561 268.698 164.803 268.53C165.055 268.353 165.181 268.129 165.181 267.858C165.181 267.569 165.041 267.354 164.761 267.214C164.491 267.074 164.057 266.92 163.459 266.752C162.881 266.593 162.409 266.439 162.045 266.29C161.681 266.141 161.364 265.912 161.093 265.604C160.832 265.296 160.701 264.89 160.701 264.386C160.701 263.975 160.823 263.602 161.065 263.266C161.308 262.921 161.653 262.65 162.101 262.454C162.559 262.258 163.081 262.16 163.669 262.16C164.547 262.16 165.251 262.384 165.783 262.832C166.325 263.271 166.614 263.873 166.651 264.638H165.055C165.027 264.293 164.887 264.017 164.635 263.812C164.383 263.607 164.043 263.504 163.613 263.504C163.193 263.504 162.871 263.583 162.647 263.742C162.423 263.901 162.311 264.111 162.311 264.372C162.311 264.577 162.386 264.75 162.535 264.89C162.685 265.03 162.867 265.142 163.081 265.226C163.296 265.301 163.613 265.399 164.033 265.52C164.593 265.669 165.051 265.823 165.405 265.982C165.769 266.131 166.082 266.355 166.343 266.654C166.605 266.953 166.74 267.349 166.749 267.844C166.749 268.283 166.628 268.675 166.385 269.02C166.143 269.365 165.797 269.636 165.349 269.832C164.911 270.028 164.393 270.126 163.795 270.126ZM170.224 268.082L168.53 271.946H167.494L168.488 268.082H170.224ZM174.723 266.136C174.723 265.343 174.882 264.647 175.199 264.05C175.526 263.443 175.974 262.977 176.543 262.65C177.112 262.323 177.766 262.16 178.503 262.16C179.436 262.16 180.206 262.384 180.813 262.832C181.429 263.271 181.844 263.901 182.059 264.722H180.337C180.197 264.339 179.973 264.041 179.665 263.826C179.357 263.611 178.97 263.504 178.503 263.504C177.85 263.504 177.327 263.737 176.935 264.204C176.552 264.661 176.361 265.305 176.361 266.136C176.361 266.967 176.552 267.615 176.935 268.082C177.327 268.549 177.85 268.782 178.503 268.782C179.427 268.782 180.038 268.376 180.337 267.564H182.059C181.835 268.348 181.415 268.973 180.799 269.44C180.183 269.897 179.418 270.126 178.503 270.126C177.766 270.126 177.112 269.963 176.543 269.636C175.974 269.3 175.526 268.833 175.199 268.236C174.882 267.629 174.723 266.929 174.723 266.136ZM185.246 259.64V270H183.65V259.64H185.246ZM194.411 265.954C194.411 266.243 194.392 266.505 194.355 266.738H188.461C188.508 267.354 188.736 267.849 189.147 268.222C189.558 268.595 190.062 268.782 190.659 268.782C191.518 268.782 192.124 268.423 192.479 267.704H194.201C193.968 268.413 193.543 268.997 192.927 269.454C192.32 269.902 191.564 270.126 190.659 270.126C189.922 270.126 189.259 269.963 188.671 269.636C188.092 269.3 187.635 268.833 187.299 268.236C186.972 267.629 186.809 266.929 186.809 266.136C186.809 265.343 186.968 264.647 187.285 264.05C187.612 263.443 188.064 262.977 188.643 262.65C189.231 262.323 189.903 262.16 190.659 262.16C191.387 262.16 192.036 262.319 192.605 262.636C193.174 262.953 193.618 263.401 193.935 263.98C194.252 264.549 194.411 265.207 194.411 265.954ZM192.745 265.45C192.736 264.862 192.526 264.391 192.115 264.036C191.704 263.681 191.196 263.504 190.589 263.504C190.038 263.504 189.567 263.681 189.175 264.036C188.783 264.381 188.55 264.853 188.475 265.45H192.745ZM195.45 266.108C195.45 265.333 195.608 264.647 195.926 264.05C196.252 263.453 196.691 262.991 197.242 262.664C197.802 262.328 198.418 262.16 199.09 262.16C199.696 262.16 200.224 262.281 200.672 262.524C201.129 262.757 201.493 263.051 201.764 263.406V262.286H203.374V270H201.764V268.852C201.493 269.216 201.124 269.519 200.658 269.762C200.191 270.005 199.659 270.126 199.062 270.126C198.399 270.126 197.792 269.958 197.242 269.622C196.691 269.277 196.252 268.801 195.926 268.194C195.608 267.578 195.45 266.883 195.45 266.108ZM201.764 266.136C201.764 265.604 201.652 265.142 201.428 264.75C201.213 264.358 200.928 264.059 200.574 263.854C200.219 263.649 199.836 263.546 199.426 263.546C199.015 263.546 198.632 263.649 198.278 263.854C197.923 264.05 197.634 264.344 197.41 264.736C197.195 265.119 197.088 265.576 197.088 266.108C197.088 266.64 197.195 267.107 197.41 267.508C197.634 267.909 197.923 268.217 198.278 268.432C198.642 268.637 199.024 268.74 199.426 268.74C199.836 268.74 200.219 268.637 200.574 268.432C200.928 268.227 201.213 267.928 201.428 267.536C201.652 267.135 201.764 266.668 201.764 266.136ZM207.066 263.406C207.299 263.014 207.607 262.711 207.99 262.496C208.382 262.272 208.844 262.16 209.376 262.16V263.812H208.97C208.345 263.812 207.869 263.971 207.542 264.288C207.225 264.605 207.066 265.156 207.066 265.94V270H205.47V262.286H207.066V263.406ZM212.439 259.64V270H210.843V259.64H212.439ZM221.478 262.286L216.746 273.626H215.094L216.662 269.874L213.624 262.286H215.402L217.572 268.166L219.826 262.286H221.478ZM119.016 284.588H117.588V291H115.978V284.588H115.068V283.286H115.978V282.74C115.978 281.853 116.212 281.209 116.678 280.808C117.154 280.397 117.896 280.192 118.904 280.192V281.522C118.419 281.522 118.078 281.615 117.882 281.802C117.686 281.979 117.588 282.292 117.588 282.74V283.286H119.016V284.588ZM121.243 282.264C120.954 282.264 120.711 282.166 120.515 281.97C120.319 281.774 120.221 281.531 120.221 281.242C120.221 280.953 120.319 280.71 120.515 280.514C120.711 280.318 120.954 280.22 121.243 280.22C121.523 280.22 121.761 280.318 121.957 280.514C122.153 280.71 122.251 280.953 122.251 281.242C122.251 281.531 122.153 281.774 121.957 281.97C121.761 282.166 121.523 282.264 121.243 282.264ZM122.027 283.286V291H120.431V283.286H122.027ZM125.718 284.406C125.952 284.014 126.26 283.711 126.642 283.496C127.034 283.272 127.496 283.16 128.028 283.16V284.812H127.622C126.997 284.812 126.521 284.971 126.194 285.288C125.877 285.605 125.718 286.156 125.718 286.94V291H124.122V283.286H125.718V284.406ZM132.295 291.126C131.689 291.126 131.143 291.019 130.657 290.804C130.181 290.58 129.803 290.281 129.523 289.908C129.243 289.525 129.094 289.101 129.075 288.634H130.727C130.755 288.961 130.909 289.236 131.189 289.46C131.479 289.675 131.838 289.782 132.267 289.782C132.715 289.782 133.061 289.698 133.303 289.53C133.555 289.353 133.681 289.129 133.681 288.858C133.681 288.569 133.541 288.354 133.261 288.214C132.991 288.074 132.557 287.92 131.959 287.752C131.381 287.593 130.909 287.439 130.545 287.29C130.181 287.141 129.864 286.912 129.593 286.604C129.332 286.296 129.201 285.89 129.201 285.386C129.201 284.975 129.323 284.602 129.565 284.266C129.808 283.921 130.153 283.65 130.601 283.454C131.059 283.258 131.581 283.16 132.169 283.16C133.047 283.16 133.751 283.384 134.283 283.832C134.825 284.271 135.114 284.873 135.151 285.638H133.555C133.527 285.293 133.387 285.017 133.135 284.812C132.883 284.607 132.543 284.504 132.113 284.504C131.693 284.504 131.371 284.583 131.147 284.742C130.923 284.901 130.811 285.111 130.811 285.372C130.811 285.577 130.886 285.75 131.035 285.89C131.185 286.03 131.367 286.142 131.581 286.226C131.796 286.301 132.113 286.399 132.533 286.52C133.093 286.669 133.551 286.823 133.905 286.982C134.269 287.131 134.582 287.355 134.843 287.654C135.105 287.953 135.24 288.349 135.249 288.844C135.249 289.283 135.128 289.675 134.885 290.02C134.643 290.365 134.297 290.636 133.849 290.832C133.411 291.028 132.893 291.126 132.295 291.126ZM138.836 284.588V288.858C138.836 289.147 138.901 289.357 139.032 289.488C139.172 289.609 139.405 289.67 139.732 289.67H140.712V291H139.452C138.733 291 138.182 290.832 137.8 290.496C137.417 290.16 137.226 289.614 137.226 288.858V284.588H136.316V283.286H137.226V281.368H138.836V283.286H140.712V284.588H138.836ZM147.822 281.27L147.64 288.06H146.31L146.128 281.27H147.822ZM147.024 291.098C146.734 291.098 146.492 291 146.296 290.804C146.1 290.608 146.002 290.365 146.002 290.076C146.002 289.787 146.1 289.544 146.296 289.348C146.492 289.152 146.734 289.054 147.024 289.054C147.304 289.054 147.542 289.152 147.738 289.348C147.934 289.544 148.032 289.787 148.032 290.076C148.032 290.365 147.934 290.608 147.738 290.804C147.542 291 147.304 291.098 147.024 291.098Z" fill="#2E2C43"/>
<rect x="23" y="86" width="220" height="127" rx="16" fill="#F9F9F9"/>
<rect x="23.25" y="86.25" width="219.5" height="126.5" rx="15.75" stroke="#2E2C43" stroke-opacity="0.1" stroke-width="0.5"/>
<path d="M64.084 108.242V109.278H61.424V118H60.15V109.278H57.476V108.242H64.084ZM72.2602 110.328L67.6402 121.612H66.3242L67.8362 117.916L64.7422 110.328H66.1562L68.5642 116.544L70.9442 110.328H72.2602ZM74.8149 111.742C75.0669 111.303 75.4402 110.939 75.9349 110.65C76.4389 110.351 77.0222 110.202 77.6849 110.202C78.3662 110.202 78.9822 110.365 79.5329 110.692C80.0929 111.019 80.5316 111.481 80.8489 112.078C81.1662 112.666 81.3249 113.352 81.3249 114.136C81.3249 114.911 81.1662 115.601 80.8489 116.208C80.5316 116.815 80.0929 117.286 79.5329 117.622C78.9822 117.958 78.3662 118.126 77.6849 118.126C77.0316 118.126 76.4529 117.981 75.9489 117.692C75.4542 117.393 75.0762 117.025 74.8149 116.586V121.64H73.5409V110.328H74.8149V111.742ZM80.0229 114.136C80.0229 113.557 79.9062 113.053 79.6729 112.624C79.4396 112.195 79.1222 111.868 78.7209 111.644C78.3289 111.42 77.8949 111.308 77.4189 111.308C76.9522 111.308 76.5182 111.425 76.1169 111.658C75.7249 111.882 75.4076 112.213 75.1649 112.652C74.9316 113.081 74.8149 113.581 74.8149 114.15C74.8149 114.729 74.9316 115.237 75.1649 115.676C75.4076 116.105 75.7249 116.437 76.1169 116.67C76.5182 116.894 76.9522 117.006 77.4189 117.006C77.8949 117.006 78.3289 116.894 78.7209 116.67C79.1222 116.437 79.4396 116.105 79.6729 115.676C79.9062 115.237 80.0229 114.724 80.0229 114.136ZM90.0018 113.87C90.0018 114.113 89.9878 114.369 89.9598 114.64H83.8278C83.8745 115.396 84.1312 115.989 84.5978 116.418C85.0738 116.838 85.6478 117.048 86.3198 117.048C86.8705 117.048 87.3278 116.922 87.6918 116.67C88.0652 116.409 88.3265 116.063 88.4758 115.634H89.8478C89.6425 116.371 89.2318 116.973 88.6158 117.44C87.9998 117.897 87.2345 118.126 86.3198 118.126C85.5918 118.126 84.9385 117.963 84.3598 117.636C83.7905 117.309 83.3425 116.847 83.0158 116.25C82.6892 115.643 82.5258 114.943 82.5258 114.15C82.5258 113.357 82.6845 112.661 83.0018 112.064C83.3192 111.467 83.7625 111.009 84.3318 110.692C84.9105 110.365 85.5732 110.202 86.3198 110.202C87.0478 110.202 87.6918 110.361 88.2518 110.678C88.8118 110.995 89.2412 111.434 89.5398 111.994C89.8478 112.545 90.0018 113.17 90.0018 113.87ZM88.6858 113.604C88.6858 113.119 88.5785 112.703 88.3638 112.358C88.1492 112.003 87.8552 111.737 87.4818 111.56C87.1178 111.373 86.7118 111.28 86.2638 111.28C85.6198 111.28 85.0692 111.485 84.6118 111.896C84.1638 112.307 83.9072 112.876 83.8418 113.604H88.6858ZM99.2239 110.188C99.8026 110.188 100.325 110.314 100.792 110.566C101.259 110.809 101.623 111.177 101.884 111.672C102.155 112.167 102.29 112.769 102.29 113.478V118H101.03V113.66C101.03 112.895 100.839 112.311 100.456 111.91C100.073 111.499 99.5506 111.294 98.8879 111.294C98.2159 111.294 97.6792 111.504 97.2779 111.924C96.8859 112.344 96.6899 112.955 96.6899 113.758V118H95.4159V107.64H96.6899V111.42C96.9419 111.028 97.2872 110.725 97.7259 110.51C98.1739 110.295 98.6732 110.188 99.2239 110.188ZM111.371 113.87C111.371 114.113 111.357 114.369 111.329 114.64H105.197C105.244 115.396 105.5 115.989 105.967 116.418C106.443 116.838 107.017 117.048 107.689 117.048C108.24 117.048 108.697 116.922 109.061 116.67C109.434 116.409 109.696 116.063 109.845 115.634H111.217C111.012 116.371 110.601 116.973 109.985 117.44C109.369 117.897 108.604 118.126 107.689 118.126C106.961 118.126 106.308 117.963 105.729 117.636C105.16 117.309 104.712 116.847 104.385 116.25C104.058 115.643 103.895 114.943 103.895 114.15C103.895 113.357 104.054 112.661 104.371 112.064C104.688 111.467 105.132 111.009 105.701 110.692C106.28 110.365 106.942 110.202 107.689 110.202C108.417 110.202 109.061 110.361 109.621 110.678C110.181 110.995 110.61 111.434 110.909 111.994C111.217 112.545 111.371 113.17 111.371 113.87ZM110.055 113.604C110.055 113.119 109.948 112.703 109.733 112.358C109.518 112.003 109.224 111.737 108.851 111.56C108.487 111.373 108.081 111.28 107.633 111.28C106.989 111.28 106.438 111.485 105.981 111.896C105.533 112.307 105.276 112.876 105.211 113.604H110.055ZM114.327 111.574C114.551 111.135 114.868 110.795 115.279 110.552C115.699 110.309 116.207 110.188 116.805 110.188V111.504H116.469C115.041 111.504 114.327 112.279 114.327 113.828V118H113.053V110.328H114.327V111.574ZM125.275 113.87C125.275 114.113 125.261 114.369 125.233 114.64H119.101C119.148 115.396 119.405 115.989 119.871 116.418C120.347 116.838 120.921 117.048 121.593 117.048C122.144 117.048 122.601 116.922 122.965 116.67C123.339 116.409 123.6 116.063 123.749 115.634H125.121C124.916 116.371 124.505 116.973 123.889 117.44C123.273 117.897 122.508 118.126 121.593 118.126C120.865 118.126 120.212 117.963 119.633 117.636C119.064 117.309 118.616 116.847 118.289 116.25C117.963 115.643 117.799 114.943 117.799 114.15C117.799 113.357 117.958 112.661 118.275 112.064C118.593 111.467 119.036 111.009 119.605 110.692C120.184 110.365 120.847 110.202 121.593 110.202C122.321 110.202 122.965 110.361 123.525 110.678C124.085 110.995 124.515 111.434 124.813 111.994C125.121 112.545 125.275 113.17 125.275 113.87ZM123.959 113.604C123.959 113.119 123.852 112.703 123.637 112.358C123.423 112.003 123.129 111.737 122.755 111.56C122.391 111.373 121.985 111.28 121.537 111.28C120.893 111.28 120.343 111.485 119.885 111.896C119.437 112.307 119.181 112.876 119.115 113.604H123.959ZM131.095 118.084C130.853 118.084 130.647 118 130.479 117.832C130.311 117.664 130.227 117.459 130.227 117.216C130.227 116.973 130.311 116.768 130.479 116.6C130.647 116.432 130.853 116.348 131.095 116.348C131.329 116.348 131.525 116.432 131.683 116.6C131.851 116.768 131.935 116.973 131.935 117.216C131.935 117.459 131.851 117.664 131.683 117.832C131.525 118 131.329 118.084 131.095 118.084ZM134.035 118.084C133.792 118.084 133.587 118 133.419 117.832C133.251 117.664 133.167 117.459 133.167 117.216C133.167 116.973 133.251 116.768 133.419 116.6C133.587 116.432 133.792 116.348 134.035 116.348C134.268 116.348 134.464 116.432 134.623 116.6C134.791 116.768 134.875 116.973 134.875 117.216C134.875 117.459 134.791 117.664 134.623 117.832C134.464 118 134.268 118.084 134.035 118.084ZM136.974 118.084C136.732 118.084 136.526 118 136.358 117.832C136.19 117.664 136.106 117.459 136.106 117.216C136.106 116.973 136.19 116.768 136.358 116.6C136.526 116.432 136.732 116.348 136.974 116.348C137.208 116.348 137.404 116.432 137.562 116.6C137.73 116.768 137.814 116.973 137.814 117.216C137.814 117.459 137.73 117.664 137.562 117.832C137.404 118 137.208 118.084 136.974 118.084ZM139.914 118.084C139.671 118.084 139.466 118 139.298 117.832C139.13 117.664 139.046 117.459 139.046 117.216C139.046 116.973 139.13 116.768 139.298 116.6C139.466 116.432 139.671 116.348 139.914 116.348C140.147 116.348 140.343 116.432 140.502 116.6C140.67 116.768 140.754 116.973 140.754 117.216C140.754 117.459 140.67 117.664 140.502 117.832C140.343 118 140.147 118.084 139.914 118.084ZM142.853 118.084C142.61 118.084 142.405 118 142.237 117.832C142.069 117.664 141.985 117.459 141.985 117.216C141.985 116.973 142.069 116.768 142.237 116.6C142.405 116.432 142.61 116.348 142.853 116.348C143.086 116.348 143.282 116.432 143.441 116.6C143.609 116.768 143.693 116.973 143.693 117.216C143.693 117.459 143.609 117.664 143.441 117.832C143.282 118 143.086 118.084 142.853 118.084ZM145.793 118.084C145.55 118.084 145.345 118 145.177 117.832C145.009 117.664 144.925 117.459 144.925 117.216C144.925 116.973 145.009 116.768 145.177 116.6C145.345 116.432 145.55 116.348 145.793 116.348C146.026 116.348 146.222 116.432 146.381 116.6C146.549 116.768 146.633 116.973 146.633 117.216C146.633 117.459 146.549 117.664 146.381 117.832C146.222 118 146.026 118.084 145.793 118.084Z" fill="#DBCDBB"/>
<path d="M33.5968 57.098C32.9435 57.098 32.3555 56.986 31.8328 56.762C31.3102 56.5287 30.8995 56.202 30.6008 55.782C30.3022 55.362 30.1528 54.872 30.1528 54.312H31.8608C31.8982 54.732 32.0615 55.0773 32.3508 55.348C32.6495 55.6187 33.0648 55.754 33.5968 55.754C34.1475 55.754 34.5768 55.6233 34.8848 55.362C35.1928 55.0913 35.3468 54.746 35.3468 54.326C35.3468 53.9993 35.2488 53.7333 35.0528 53.528C34.8662 53.3227 34.6282 53.164 34.3388 53.052C34.0588 52.94 33.6668 52.8187 33.1628 52.688C32.5282 52.52 32.0102 52.352 31.6088 52.184C31.2168 52.0067 30.8808 51.736 30.6008 51.372C30.3208 51.008 30.1808 50.5227 30.1808 49.916C30.1808 49.356 30.3208 48.866 30.6008 48.446C30.8808 48.026 31.2728 47.704 31.7768 47.48C32.2808 47.256 32.8642 47.144 33.5268 47.144C34.4695 47.144 35.2395 47.382 35.8368 47.858C36.4435 48.3247 36.7795 48.9687 36.8448 49.79H35.0808C35.0528 49.4353 34.8848 49.132 34.5768 48.88C34.2688 48.628 33.8628 48.502 33.3588 48.502C32.9015 48.502 32.5282 48.6187 32.2388 48.852C31.9495 49.0853 31.8048 49.4213 31.8048 49.86C31.8048 50.1587 31.8935 50.406 32.0708 50.602C32.2575 50.7887 32.4908 50.938 32.7708 51.05C33.0508 51.162 33.4335 51.2833 33.9188 51.414C34.5628 51.5913 35.0855 51.7687 35.4868 51.946C35.8975 52.1233 36.2428 52.3987 36.5228 52.772C36.8122 53.136 36.9568 53.626 36.9568 54.242C36.9568 54.7367 36.8215 55.2033 36.5508 55.642C36.2895 56.0807 35.9022 56.4353 35.3888 56.706C34.8848 56.9673 34.2875 57.098 33.5968 57.098ZM40.702 50.588V54.858C40.702 55.1473 40.7674 55.3573 40.898 55.488C41.038 55.6093 41.2714 55.67 41.598 55.67H42.578V57H41.318C40.5994 57 40.0487 56.832 39.666 56.496C39.2834 56.16 39.092 55.614 39.092 54.858V50.588H38.182V49.286H39.092V47.368H40.702V49.286H42.578V50.588H40.702ZM51.119 52.954C51.119 53.2433 51.1004 53.5047 51.063 53.738H45.169C45.2157 54.354 45.4444 54.8487 45.855 55.222C46.2657 55.5953 46.7697 55.782 47.367 55.782C48.2257 55.782 48.8324 55.4227 49.187 54.704H50.909C50.6757 55.4133 50.251 55.9967 49.635 56.454C49.0284 56.902 48.2724 57.126 47.367 57.126C46.6297 57.126 45.967 56.9627 45.379 56.636C44.8004 56.3 44.343 55.8333 44.007 55.236C43.6804 54.6293 43.517 53.9293 43.517 53.136C43.517 52.3427 43.6757 51.6473 43.993 51.05C44.3197 50.4433 44.7724 49.9767 45.351 49.65C45.939 49.3233 46.611 49.16 47.367 49.16C48.095 49.16 48.7437 49.3187 49.313 49.636C49.8824 49.9533 50.3257 50.4013 50.643 50.98C50.9604 51.5493 51.119 52.2073 51.119 52.954ZM49.453 52.45C49.4437 51.862 49.2337 51.3907 48.823 51.036C48.4124 50.6813 47.9037 50.504 47.297 50.504C46.7464 50.504 46.275 50.6813 45.883 51.036C45.491 51.3813 45.2577 51.8527 45.183 52.45H49.453ZM54.2856 50.42C54.5563 50.0653 54.925 49.7667 55.3916 49.524C55.8583 49.2813 56.3856 49.16 56.9736 49.16C57.6456 49.16 58.257 49.328 58.8076 49.664C59.3676 49.9907 59.8063 50.4527 60.1236 51.05C60.441 51.6473 60.5996 52.3333 60.5996 53.108C60.5996 53.8827 60.441 54.578 60.1236 55.194C59.8063 55.8007 59.3676 56.2767 58.8076 56.622C58.257 56.958 57.6456 57.126 56.9736 57.126C56.3856 57.126 55.863 57.0093 55.4056 56.776C54.9483 56.5333 54.575 56.2347 54.2856 55.88V60.668H52.6896V49.286H54.2856V50.42ZM58.9756 53.108C58.9756 52.576 58.8636 52.1187 58.6396 51.736C58.425 51.344 58.1356 51.05 57.7716 50.854C57.417 50.6487 57.0343 50.546 56.6236 50.546C56.2223 50.546 55.8396 50.6487 55.4756 50.854C55.121 51.0593 54.8316 51.358 54.6076 51.75C54.393 52.142 54.2856 52.604 54.2856 53.136C54.2856 53.668 54.393 54.1347 54.6076 54.536C54.8316 54.928 55.121 55.2267 55.4756 55.432C55.8396 55.6373 56.2223 55.74 56.6236 55.74C57.0343 55.74 57.417 55.6373 57.7716 55.432C58.1356 55.2173 58.425 54.9093 58.6396 54.508C58.8636 54.1067 58.9756 53.64 58.9756 53.108ZM65.3946 48.25V46.794H68.3066V57H66.6966V48.25H65.3946Z" fill="#2E2C43"/>
<path d="M135.626 57.8191L136.145 59.4344L135.407 62.688L132.032 66.3838C135.482 66.5925 138.904 65.6503 141.761 63.7047C141.761 63.7047 143.064 55.2371 135.248 55.2371C133.169 56.6232 131.388 57.5813 129.386 57.5774H129.467C127.465 57.5813 125.684 56.6232 123.605 55.2371C115.788 55.2371 117.091 63.7047 117.091 63.7047C123.59 67.6266 126.45 66.12 135.407 62.688L135.809 60.3945L120.132 61.2739L123.59 60.6824" fill="#FB8C00"/>
<path d="M141.752 63.7055C141.752 63.7055 143.054 55.2378 135.238 55.2378C133.159 56.6239 131.377 57.5814 129.376 57.5775H129.457C127.455 57.5814 125.674 56.6239 123.595 55.2378C115.779 55.2378 117.081 63.7055 117.081 63.7055" fill="#FB8C00"/>
<path d="M135.422 55.2378C133.729 56.5307 131.717 57.3386 129.601 57.5749C138.109 57.8439 138.109 61.1007 138.605 63.7061H141.935C141.935 63.7061 143.238 55.2378 135.422 55.2378Z" fill="#FB8C00"/>
<path d="M141.935 63.7054C141.935 63.7054 134.278 69.5846 128.428 65.6354L135.407 62.688L136.145 59.4344C136.145 59.4344 141.992 57.8295 141.935 63.7054Z" fill="#FB8C00"/>
<path d="M129.427 53.722C133.506 53.722 136.812 49.5888 136.812 44.4903C136.812 39.3917 133.506 35.2585 129.427 35.2585C125.348 35.2585 122.041 39.3917 122.041 44.4903C122.041 49.5888 125.348 53.722 129.427 53.722Z" fill="#FB8C00"/>
<path d="M138.006 34.4424C129.427 37.1241 122.041 43.2482 122.041 43.2482C122.041 43.2482 119.461 39.7699 120.584 36.261C120.584 36.261 122.041 31 129.075 31C134.092 31 136.628 33.0648 138.006 34.4424C142.01 40.1256 136.615 43.3036 136.615 43.3036C134.429 41.6 132.33 39.7869 130.326 37.8712" fill="white"/>
<path d="M138.006 34.4424C142.009 40.1255 136.615 43.3035 136.615 43.3035C134.428 41.5999 132.33 39.7868 130.326 37.8711" fill="#F9F9F9"/>
<path d="M129.427 41.6674C129.081 41.6674 128.75 41.5302 128.505 41.2859C128.261 41.0416 128.124 40.7102 128.124 40.3647V37.7593C128.124 37.4138 128.261 37.0824 128.505 36.8381C128.75 36.5938 129.081 36.4565 129.427 36.4565C129.772 36.4565 130.103 36.5938 130.348 36.8381C130.592 37.0824 130.729 37.4138 130.729 37.7593V40.3647C130.729 40.7102 130.592 41.0416 130.348 41.2859C130.103 41.5302 129.772 41.6674 129.427 41.6674ZM135.407 62.6881L132.533 63.8808V60.4644H135.809L135.407 62.6881Z" fill="#FCEA2B"/>
<path d="M132.032 66.3837C135.482 66.5927 138.904 65.6509 141.761 63.706C141.761 63.706 143.064 55.2383 135.247 55.2383C133.168 56.6244 131.387 57.5819 129.385 57.578H129.466C127.464 57.5819 125.683 56.6244 123.604 55.2383C115.788 55.2383 117.091 63.706 117.091 63.706C123.59 67.6272 126.449 66.1212 135.406 62.6885L135.808 60.3958L120.131 61.2751" stroke="black" stroke-width="2" stroke-linecap="round" stroke-linejoin="round"/>
<path d="M135.626 57.8191L136.145 59.4345L135.407 62.688" stroke="black" stroke-width="2" stroke-linecap="round" stroke-linejoin="round"/>
<path d="M133.335 43.604C133.335 43.8616 133.258 44.1135 133.115 44.3277C132.972 44.542 132.769 44.7089 132.531 44.8075C132.293 44.9061 132.031 44.9319 131.778 44.8817C131.525 44.8314 131.293 44.7073 131.111 44.5252C130.929 44.343 130.805 44.1108 130.754 43.8581C130.704 43.6054 130.73 43.3435 130.828 43.1055C130.927 42.8674 131.094 42.664 131.308 42.5208C131.523 42.3777 131.774 42.3013 132.032 42.3013C132.378 42.3013 132.709 42.4385 132.953 42.6828C133.198 42.9271 133.335 43.2585 133.335 43.604ZM128.124 43.604C128.124 43.8616 128.047 44.1135 127.904 44.3277C127.761 44.542 127.558 44.7089 127.32 44.8075C127.082 44.9061 126.82 44.9319 126.567 44.8817C126.314 44.8314 126.082 44.7073 125.9 44.5252C125.718 44.343 125.594 44.1108 125.543 43.8581C125.493 43.6054 125.519 43.3435 125.618 43.1055C125.716 42.8674 125.883 42.664 126.097 42.5208C126.312 42.3777 126.564 42.3013 126.821 42.3013C127.167 42.3013 127.498 42.4385 127.742 42.6828C127.987 42.9271 128.124 43.2585 128.124 43.604ZM129.427 50.1189C128.644 50.1114 127.875 49.9199 127.181 49.56C127.026 49.4827 126.909 49.3472 126.854 49.1833C126.799 49.0193 126.812 48.8404 126.89 48.6859C126.967 48.5314 127.102 48.4139 127.266 48.3593C127.43 48.3047 127.609 48.3174 127.764 48.3947C128.275 48.6703 128.846 48.8145 129.426 48.8145C130.007 48.8145 130.578 48.6703 131.089 48.3947C131.243 48.3174 131.422 48.3047 131.586 48.3594C131.75 48.414 131.886 48.5316 131.963 48.6862C132.041 48.8408 132.053 49.0198 131.999 49.1838C131.944 49.3478 131.826 49.4834 131.672 49.5607C130.978 49.9203 130.208 50.1115 129.427 50.1189Z" fill="black"/>
<path d="M128.125 39.0313C127.291 39.5328 126.516 40.0279 125.826 40.4903C123.787 41.8517 122.432 42.9329 122.113 43.187C122.068 43.226 122.041 43.2456 122.041 43.2456C122.041 43.2456 119.462 39.7673 120.582 36.263C120.582 36.263 122.041 31 129.076 31C134.092 31 136.625 33.0648 138.006 34.4457C141.641 39.598 137.537 42.6854 136.743 43.2195C136.658 43.2781 136.612 43.3042 136.612 43.3042C136.612 43.3042 133.74 41.1026 130.731 38.2562" stroke="black" stroke-width="2" stroke-linecap="round" stroke-linejoin="round"/>
<path d="M130.711 37.5593C133.042 36.3003 135.484 35.2581 138.006 34.4458" stroke="black" stroke-width="2" stroke-linecap="round" stroke-linejoin="round"/>
<path d="M132.533 60.6552V63.7479M122.092 43.3056C122.05 43.7042 122.03 44.1047 122.03 44.5054C122.03 49.6043 125.337 53.7371 129.416 53.7371C133.494 53.7371 136.801 49.6043 136.801 44.5054C136.801 44.092 136.779 43.6789 136.736 43.2678M129.427 41.6674C129.081 41.6674 128.75 41.5302 128.505 41.2859C128.261 41.0416 128.124 40.7102 128.124 40.3647V37.7593C128.124 37.4138 128.261 37.0824 128.505 36.8381C128.75 36.5938 129.081 36.4565 129.427 36.4565C129.772 36.4565 130.103 36.5938 130.348 36.8381C130.592 37.0824 130.729 37.4138 130.729 37.7593V40.3647C130.729 40.7102 130.592 41.0416 130.348 41.2859C130.103 41.5302 129.772 41.6674 129.427 41.6674Z" stroke="black" stroke-width="2" stroke-linecap="round" stroke-linejoin="round"/>
</svg>
