<svg width="401" height="530" viewBox="0 0 401 530" fill="none" xmlns="http://www.w3.org/2000/svg">
<g filter="url(#filter0_d_1165_2)">
<path d="M283.296 90.885H97.8423C93.9955 90.885 90.877 98.7326 90.877 108.413V402.008C90.877 411.689 93.9955 419.536 97.8423 419.536H283.296C287.143 419.536 290.261 411.689 290.261 402.008V108.413C290.261 98.7326 287.143 90.885 283.296 90.885Z" fill="white"/>
</g>
<rect x="73" y="77" width="272.127" height="343" rx="24" fill="white"/>
<path d="M128.346 334.27V335.572H125.756V344H124.16V335.572H121.556V334.27H128.346ZM136.906 336.286L132.174 347.626H130.522L132.09 343.874L129.052 336.286H130.83L133 342.166L135.254 336.286H136.906ZM139.707 337.42C139.977 337.065 140.346 336.767 140.813 336.524C141.279 336.281 141.807 336.16 142.395 336.16C143.067 336.16 143.678 336.328 144.229 336.664C144.789 336.991 145.227 337.453 145.545 338.05C145.862 338.647 146.021 339.333 146.021 340.108C146.021 340.883 145.862 341.578 145.545 342.194C145.227 342.801 144.789 343.277 144.229 343.622C143.678 343.958 143.067 344.126 142.395 344.126C141.807 344.126 141.284 344.009 140.827 343.776C140.369 343.533 139.996 343.235 139.707 342.88V347.668H138.111V336.286H139.707V337.42ZM144.397 340.108C144.397 339.576 144.285 339.119 144.061 338.736C143.846 338.344 143.557 338.05 143.193 337.854C142.838 337.649 142.455 337.546 142.045 337.546C141.643 337.546 141.261 337.649 140.897 337.854C140.542 338.059 140.253 338.358 140.029 338.75C139.814 339.142 139.707 339.604 139.707 340.136C139.707 340.668 139.814 341.135 140.029 341.536C140.253 341.928 140.542 342.227 140.897 342.432C141.261 342.637 141.643 342.74 142.045 342.74C142.455 342.74 142.838 342.637 143.193 342.432C143.557 342.217 143.846 341.909 144.061 341.508C144.285 341.107 144.397 340.64 144.397 340.108ZM154.669 339.954C154.669 340.243 154.65 340.505 154.613 340.738H148.719C148.765 341.354 148.994 341.849 149.405 342.222C149.815 342.595 150.319 342.782 150.917 342.782C151.775 342.782 152.382 342.423 152.737 341.704H154.459C154.225 342.413 153.801 342.997 153.185 343.454C152.578 343.902 151.822 344.126 150.917 344.126C150.179 344.126 149.517 343.963 148.929 343.636C148.35 343.3 147.893 342.833 147.557 342.236C147.23 341.629 147.067 340.929 147.067 340.136C147.067 339.343 147.225 338.647 147.543 338.05C147.869 337.443 148.322 336.977 148.901 336.65C149.489 336.323 150.161 336.16 150.917 336.16C151.645 336.16 152.293 336.319 152.863 336.636C153.432 336.953 153.875 337.401 154.193 337.98C154.51 338.549 154.669 339.207 154.669 339.954ZM153.003 339.45C152.993 338.862 152.783 338.391 152.373 338.036C151.962 337.681 151.453 337.504 150.847 337.504C150.296 337.504 149.825 337.681 149.433 338.036C149.041 338.381 148.807 338.853 148.733 339.45H153.003ZM166.82 336.286L162.088 347.626H160.436L162.004 343.874L158.966 336.286H160.744L162.914 342.166L165.168 336.286H166.82ZM171.371 344.126C170.643 344.126 169.985 343.963 169.397 343.636C168.809 343.3 168.347 342.833 168.011 342.236C167.675 341.629 167.507 340.929 167.507 340.136C167.507 339.352 167.679 338.657 168.025 338.05C168.37 337.443 168.841 336.977 169.439 336.65C170.036 336.323 170.703 336.16 171.441 336.16C172.178 336.16 172.845 336.323 173.443 336.65C174.04 336.977 174.511 337.443 174.857 338.05C175.202 338.657 175.375 339.352 175.375 340.136C175.375 340.92 175.197 341.615 174.843 342.222C174.488 342.829 174.003 343.3 173.387 343.636C172.78 343.963 172.108 344.126 171.371 344.126ZM171.371 342.74C171.781 342.74 172.164 342.642 172.519 342.446C172.883 342.25 173.177 341.956 173.401 341.564C173.625 341.172 173.737 340.696 173.737 340.136C173.737 339.576 173.629 339.105 173.415 338.722C173.2 338.33 172.915 338.036 172.561 337.84C172.206 337.644 171.823 337.546 171.413 337.546C171.002 337.546 170.619 337.644 170.265 337.84C169.919 338.036 169.644 338.33 169.439 338.722C169.233 339.105 169.131 339.576 169.131 340.136C169.131 340.967 169.341 341.611 169.761 342.068C170.19 342.516 170.727 342.74 171.371 342.74ZM183.938 336.286V344H182.342V343.09C182.09 343.407 181.759 343.659 181.348 343.846C180.947 344.023 180.518 344.112 180.06 344.112C179.454 344.112 178.908 343.986 178.422 343.734C177.946 343.482 177.568 343.109 177.288 342.614C177.018 342.119 176.882 341.522 176.882 340.822V336.286H178.464V340.584C178.464 341.275 178.637 341.807 178.982 342.18C179.328 342.544 179.799 342.726 180.396 342.726C180.994 342.726 181.465 342.544 181.81 342.18C182.165 341.807 182.342 341.275 182.342 340.584V336.286H183.938ZM187.64 337.406C187.873 337.014 188.181 336.711 188.564 336.496C188.956 336.272 189.418 336.16 189.95 336.16V337.812H189.544C188.919 337.812 188.443 337.971 188.116 338.288C187.799 338.605 187.64 339.156 187.64 339.94V344H186.044V336.286H187.64V337.406ZM196.65 337.406C196.883 337.014 197.191 336.711 197.574 336.496C197.966 336.272 198.428 336.16 198.96 336.16V337.812H198.554C197.929 337.812 197.453 337.971 197.126 338.288C196.809 338.605 196.65 339.156 196.65 339.94V344H195.054V336.286H196.65V337.406ZM207.497 339.954C207.497 340.243 207.478 340.505 207.441 340.738H201.547C201.594 341.354 201.822 341.849 202.233 342.222C202.644 342.595 203.148 342.782 203.745 342.782C204.604 342.782 205.21 342.423 205.565 341.704H207.287C207.054 342.413 206.629 342.997 206.013 343.454C205.406 343.902 204.65 344.126 203.745 344.126C203.008 344.126 202.345 343.963 201.757 343.636C201.178 343.3 200.721 342.833 200.385 342.236C200.058 341.629 199.895 340.929 199.895 340.136C199.895 339.343 200.054 338.647 200.371 338.05C200.698 337.443 201.15 336.977 201.729 336.65C202.317 336.323 202.989 336.16 203.745 336.16C204.473 336.16 205.122 336.319 205.691 336.636C206.26 336.953 206.704 337.401 207.021 337.98C207.338 338.549 207.497 339.207 207.497 339.954ZM205.831 339.45C205.822 338.862 205.612 338.391 205.201 338.036C204.79 337.681 204.282 337.504 203.675 337.504C203.124 337.504 202.653 337.681 202.261 338.036C201.869 338.381 201.636 338.853 201.561 339.45H205.831ZM208.536 340.108C208.536 339.333 208.694 338.647 209.012 338.05C209.338 337.453 209.777 336.991 210.328 336.664C210.888 336.328 211.508 336.16 212.19 336.16C212.787 336.16 213.314 336.281 213.772 336.524C214.238 336.767 214.598 337.061 214.85 337.406V336.286H216.46V347.668H214.85V342.88C214.598 343.225 214.234 343.519 213.758 343.762C213.282 344.005 212.74 344.126 212.134 344.126C211.471 344.126 210.864 343.958 210.314 343.622C209.772 343.277 209.338 342.801 209.012 342.194C208.694 341.578 208.536 340.883 208.536 340.108ZM214.85 340.136C214.85 339.604 214.738 339.142 214.514 338.75C214.299 338.358 214.014 338.059 213.66 337.854C213.305 337.649 212.922 337.546 212.512 337.546C212.101 337.546 211.718 337.649 211.364 337.854C211.009 338.05 210.72 338.344 210.496 338.736C210.281 339.119 210.174 339.576 210.174 340.108C210.174 340.64 210.281 341.107 210.496 341.508C210.72 341.909 211.009 342.217 211.364 342.432C211.728 342.637 212.11 342.74 212.512 342.74C212.922 342.74 213.305 342.637 213.66 342.432C214.014 342.227 214.299 341.928 214.514 341.536C214.738 341.135 214.85 340.668 214.85 340.136ZM225.542 336.286V344H223.946V343.09C223.694 343.407 223.363 343.659 222.952 343.846C222.551 344.023 222.121 344.112 221.664 344.112C221.057 344.112 220.511 343.986 220.026 343.734C219.55 343.482 219.172 343.109 218.892 342.614C218.621 342.119 218.486 341.522 218.486 340.822V336.286H220.068V340.584C220.068 341.275 220.241 341.807 220.586 342.18C220.931 342.544 221.403 342.726 222 342.726C222.597 342.726 223.069 342.544 223.414 342.18C223.769 341.807 223.946 341.275 223.946 340.584V336.286H225.542ZM234.718 339.954C234.718 340.243 234.699 340.505 234.662 340.738H228.768C228.814 341.354 229.043 341.849 229.454 342.222C229.864 342.595 230.368 342.782 230.966 342.782C231.824 342.782 232.431 342.423 232.786 341.704H234.508C234.274 342.413 233.85 342.997 233.234 343.454C232.627 343.902 231.871 344.126 230.966 344.126C230.228 344.126 229.566 343.963 228.978 343.636C228.399 343.3 227.942 342.833 227.606 342.236C227.279 341.629 227.116 340.929 227.116 340.136C227.116 339.343 227.274 338.647 227.592 338.05C227.918 337.443 228.371 336.977 228.95 336.65C229.538 336.323 230.21 336.16 230.966 336.16C231.694 336.16 232.342 336.319 232.912 336.636C233.481 336.953 233.924 337.401 234.242 337.98C234.559 338.549 234.718 339.207 234.718 339.954ZM233.052 339.45C233.042 338.862 232.832 338.391 232.422 338.036C232.011 337.681 231.502 337.504 230.896 337.504C230.345 337.504 229.874 337.681 229.482 338.036C229.09 338.381 228.856 338.853 228.782 339.45H233.052ZM239.088 344.126C238.482 344.126 237.936 344.019 237.45 343.804C236.974 343.58 236.596 343.281 236.316 342.908C236.036 342.525 235.887 342.101 235.868 341.634H237.52C237.548 341.961 237.702 342.236 237.982 342.46C238.272 342.675 238.631 342.782 239.06 342.782C239.508 342.782 239.854 342.698 240.096 342.53C240.348 342.353 240.474 342.129 240.474 341.858C240.474 341.569 240.334 341.354 240.054 341.214C239.784 341.074 239.35 340.92 238.752 340.752C238.174 340.593 237.702 340.439 237.338 340.29C236.974 340.141 236.657 339.912 236.386 339.604C236.125 339.296 235.994 338.89 235.994 338.386C235.994 337.975 236.116 337.602 236.358 337.266C236.601 336.921 236.946 336.65 237.394 336.454C237.852 336.258 238.374 336.16 238.962 336.16C239.84 336.16 240.544 336.384 241.076 336.832C241.618 337.271 241.907 337.873 241.944 338.638H240.348C240.32 338.293 240.18 338.017 239.928 337.812C239.676 337.607 239.336 337.504 238.906 337.504C238.486 337.504 238.164 337.583 237.94 337.742C237.716 337.901 237.604 338.111 237.604 338.372C237.604 338.577 237.679 338.75 237.828 338.89C237.978 339.03 238.16 339.142 238.374 339.226C238.589 339.301 238.906 339.399 239.326 339.52C239.886 339.669 240.344 339.823 240.698 339.982C241.062 340.131 241.375 340.355 241.636 340.654C241.898 340.953 242.033 341.349 242.042 341.844C242.042 342.283 241.921 342.675 241.678 343.02C241.436 343.365 241.09 343.636 240.642 343.832C240.204 344.028 239.686 344.126 239.088 344.126ZM245.629 337.588V341.858C245.629 342.147 245.694 342.357 245.825 342.488C245.965 342.609 246.198 342.67 246.525 342.67H247.505V344H246.245C245.526 344 244.975 343.832 244.593 343.496C244.21 343.16 244.019 342.614 244.019 341.858V337.588H243.109V336.286H244.019V334.368H245.629V336.286H247.505V337.588H245.629ZM252.081 340.136C252.081 339.343 252.239 338.647 252.557 338.05C252.883 337.443 253.331 336.977 253.901 336.65C254.47 336.323 255.123 336.16 255.861 336.16C256.794 336.16 257.564 336.384 258.171 336.832C258.787 337.271 259.202 337.901 259.417 338.722H257.695C257.555 338.339 257.331 338.041 257.023 337.826C256.715 337.611 256.327 337.504 255.861 337.504C255.207 337.504 254.685 337.737 254.293 338.204C253.91 338.661 253.719 339.305 253.719 340.136C253.719 340.967 253.91 341.615 254.293 342.082C254.685 342.549 255.207 342.782 255.861 342.782C256.785 342.782 257.396 342.376 257.695 341.564H259.417C259.193 342.348 258.773 342.973 258.157 343.44C257.541 343.897 256.775 344.126 255.861 344.126C255.123 344.126 254.47 343.963 253.901 343.636C253.331 343.3 252.883 342.833 252.557 342.236C252.239 341.629 252.081 340.929 252.081 340.136ZM262.603 333.64V344H261.007V333.64H262.603ZM271.768 339.954C271.768 340.243 271.75 340.505 271.712 340.738H265.818C265.865 341.354 266.094 341.849 266.504 342.222C266.915 342.595 267.419 342.782 268.016 342.782C268.875 342.782 269.482 342.423 269.836 341.704H271.558C271.325 342.413 270.9 342.997 270.284 343.454C269.678 343.902 268.922 344.126 268.016 344.126C267.279 344.126 266.616 343.963 266.028 343.636C265.45 343.3 264.992 342.833 264.656 342.236C264.33 341.629 264.166 340.929 264.166 340.136C264.166 339.343 264.325 338.647 264.642 338.05C264.969 337.443 265.422 336.977 266 336.65C266.588 336.323 267.26 336.16 268.016 336.16C268.744 336.16 269.393 336.319 269.962 336.636C270.532 336.953 270.975 337.401 271.292 337.98C271.61 338.549 271.768 339.207 271.768 339.954ZM270.102 339.45C270.093 338.862 269.883 338.391 269.472 338.036C269.062 337.681 268.553 337.504 267.946 337.504C267.396 337.504 266.924 337.681 266.532 338.036C266.14 338.381 265.907 338.853 265.832 339.45H270.102ZM272.807 340.108C272.807 339.333 272.966 338.647 273.283 338.05C273.61 337.453 274.048 336.991 274.599 336.664C275.159 336.328 275.775 336.16 276.447 336.16C277.054 336.16 277.581 336.281 278.029 336.524C278.486 336.757 278.85 337.051 279.121 337.406V336.286H280.731V344H279.121V342.852C278.85 343.216 278.482 343.519 278.015 343.762C277.548 344.005 277.016 344.126 276.419 344.126C275.756 344.126 275.15 343.958 274.599 343.622C274.048 343.277 273.61 342.801 273.283 342.194C272.966 341.578 272.807 340.883 272.807 340.108ZM279.121 340.136C279.121 339.604 279.009 339.142 278.785 338.75C278.57 338.358 278.286 338.059 277.931 337.854C277.576 337.649 277.194 337.546 276.783 337.546C276.372 337.546 275.99 337.649 275.635 337.854C275.28 338.05 274.991 338.344 274.767 338.736C274.552 339.119 274.445 339.576 274.445 340.108C274.445 340.64 274.552 341.107 274.767 341.508C274.991 341.909 275.28 342.217 275.635 342.432C275.999 342.637 276.382 342.74 276.783 342.74C277.194 342.74 277.576 342.637 277.931 342.432C278.286 342.227 278.57 341.928 278.785 341.536C279.009 341.135 279.121 340.668 279.121 340.136ZM284.423 337.406C284.657 337.014 284.965 336.711 285.347 336.496C285.739 336.272 286.201 336.16 286.733 336.16V337.812H286.327C285.702 337.812 285.226 337.971 284.899 338.288C284.582 338.605 284.423 339.156 284.423 339.94V344H282.827V336.286H284.423V337.406ZM289.796 333.64V344H288.2V333.64H289.796ZM298.836 336.286L294.104 347.626H292.452L294.02 343.874L290.982 336.286H292.76L294.93 342.166L297.184 336.286H298.836ZM197.016 358.588H195.588V365H193.978V358.588H193.068V357.286H193.978V356.74C193.978 355.853 194.212 355.209 194.678 354.808C195.154 354.397 195.896 354.192 196.904 354.192V355.522C196.419 355.522 196.078 355.615 195.882 355.802C195.686 355.979 195.588 356.292 195.588 356.74V357.286H197.016V358.588ZM199.243 356.264C198.954 356.264 198.711 356.166 198.515 355.97C198.319 355.774 198.221 355.531 198.221 355.242C198.221 354.953 198.319 354.71 198.515 354.514C198.711 354.318 198.954 354.22 199.243 354.22C199.523 354.22 199.761 354.318 199.957 354.514C200.153 354.71 200.251 354.953 200.251 355.242C200.251 355.531 200.153 355.774 199.957 355.97C199.761 356.166 199.523 356.264 199.243 356.264ZM200.027 357.286V365H198.431V357.286H200.027ZM203.718 358.406C203.952 358.014 204.26 357.711 204.642 357.496C205.034 357.272 205.496 357.16 206.028 357.16V358.812H205.622C204.997 358.812 204.521 358.971 204.194 359.288C203.877 359.605 203.718 360.156 203.718 360.94V365H202.122V357.286H203.718V358.406ZM210.295 365.126C209.689 365.126 209.143 365.019 208.657 364.804C208.181 364.58 207.803 364.281 207.523 363.908C207.243 363.525 207.094 363.101 207.075 362.634H208.727C208.755 362.961 208.909 363.236 209.189 363.46C209.479 363.675 209.838 363.782 210.267 363.782C210.715 363.782 211.061 363.698 211.303 363.53C211.555 363.353 211.681 363.129 211.681 362.858C211.681 362.569 211.541 362.354 211.261 362.214C210.991 362.074 210.557 361.92 209.959 361.752C209.381 361.593 208.909 361.439 208.545 361.29C208.181 361.141 207.864 360.912 207.593 360.604C207.332 360.296 207.201 359.89 207.201 359.386C207.201 358.975 207.323 358.602 207.565 358.266C207.808 357.921 208.153 357.65 208.601 357.454C209.059 357.258 209.581 357.16 210.169 357.16C211.047 357.16 211.751 357.384 212.283 357.832C212.825 358.271 213.114 358.873 213.151 359.638H211.555C211.527 359.293 211.387 359.017 211.135 358.812C210.883 358.607 210.543 358.504 210.113 358.504C209.693 358.504 209.371 358.583 209.147 358.742C208.923 358.901 208.811 359.111 208.811 359.372C208.811 359.577 208.886 359.75 209.035 359.89C209.185 360.03 209.367 360.142 209.581 360.226C209.796 360.301 210.113 360.399 210.533 360.52C211.093 360.669 211.551 360.823 211.905 360.982C212.269 361.131 212.582 361.355 212.843 361.654C213.105 361.953 213.24 362.349 213.249 362.844C213.249 363.283 213.128 363.675 212.885 364.02C212.643 364.365 212.297 364.636 211.849 364.832C211.411 365.028 210.893 365.126 210.295 365.126ZM216.836 358.588V362.858C216.836 363.147 216.901 363.357 217.032 363.488C217.172 363.609 217.405 363.67 217.732 363.67H218.712V365H217.452C216.733 365 216.182 364.832 215.8 364.496C215.417 364.16 215.226 363.614 215.226 362.858V358.588H214.316V357.286H215.226V355.368H216.836V357.286H218.712V358.588H216.836ZM225.822 355.27L225.64 362.06H224.31L224.128 355.27H225.822ZM225.024 365.098C224.734 365.098 224.492 365 224.296 364.804C224.1 364.608 224.002 364.365 224.002 364.076C224.002 363.787 224.1 363.544 224.296 363.348C224.492 363.152 224.734 363.054 225.024 363.054C225.304 363.054 225.542 363.152 225.738 363.348C225.934 363.544 226.032 363.787 226.032 364.076C226.032 364.365 225.934 364.608 225.738 364.804C225.542 365 225.304 365.098 225.024 365.098Z" fill="#2E2C43"/>
<rect x="101" y="160" width="220" height="127" rx="16" fill="#F9F9F9"/>
<rect x="101.25" y="160.25" width="219.5" height="126.5" rx="15.75" stroke="#2E2C43" stroke-opacity="0.1" stroke-width="0.5"/>
<path d="M142.084 182.242V183.278H139.424V192H138.15V183.278H135.476V182.242H142.084ZM150.26 184.328L145.64 195.612H144.324L145.836 191.916L142.742 184.328H144.156L146.564 190.544L148.944 184.328H150.26ZM152.815 185.742C153.067 185.303 153.44 184.939 153.935 184.65C154.439 184.351 155.022 184.202 155.685 184.202C156.366 184.202 156.982 184.365 157.533 184.692C158.093 185.019 158.532 185.481 158.849 186.078C159.166 186.666 159.325 187.352 159.325 188.136C159.325 188.911 159.166 189.601 158.849 190.208C158.532 190.815 158.093 191.286 157.533 191.622C156.982 191.958 156.366 192.126 155.685 192.126C155.032 192.126 154.453 191.981 153.949 191.692C153.454 191.393 153.076 191.025 152.815 190.586V195.64H151.541V184.328H152.815V185.742ZM158.023 188.136C158.023 187.557 157.906 187.053 157.673 186.624C157.44 186.195 157.122 185.868 156.721 185.644C156.329 185.42 155.895 185.308 155.419 185.308C154.952 185.308 154.518 185.425 154.117 185.658C153.725 185.882 153.408 186.213 153.165 186.652C152.932 187.081 152.815 187.581 152.815 188.15C152.815 188.729 152.932 189.237 153.165 189.676C153.408 190.105 153.725 190.437 154.117 190.67C154.518 190.894 154.952 191.006 155.419 191.006C155.895 191.006 156.329 190.894 156.721 190.67C157.122 190.437 157.44 190.105 157.673 189.676C157.906 189.237 158.023 188.724 158.023 188.136ZM168.002 187.87C168.002 188.113 167.988 188.369 167.96 188.64H161.828C161.874 189.396 162.131 189.989 162.598 190.418C163.074 190.838 163.648 191.048 164.32 191.048C164.87 191.048 165.328 190.922 165.692 190.67C166.065 190.409 166.326 190.063 166.476 189.634H167.848C167.642 190.371 167.232 190.973 166.616 191.44C166 191.897 165.234 192.126 164.32 192.126C163.592 192.126 162.938 191.963 162.36 191.636C161.79 191.309 161.342 190.847 161.016 190.25C160.689 189.643 160.526 188.943 160.526 188.15C160.526 187.357 160.684 186.661 161.002 186.064C161.319 185.467 161.762 185.009 162.332 184.692C162.91 184.365 163.573 184.202 164.32 184.202C165.048 184.202 165.692 184.361 166.252 184.678C166.812 184.995 167.241 185.434 167.54 185.994C167.848 186.545 168.002 187.17 168.002 187.87ZM166.686 187.604C166.686 187.119 166.578 186.703 166.364 186.358C166.149 186.003 165.855 185.737 165.482 185.56C165.118 185.373 164.712 185.28 164.264 185.28C163.62 185.28 163.069 185.485 162.612 185.896C162.164 186.307 161.907 186.876 161.842 187.604H166.686ZM177.224 184.188C177.803 184.188 178.325 184.314 178.792 184.566C179.259 184.809 179.623 185.177 179.884 185.672C180.155 186.167 180.29 186.769 180.29 187.478V192H179.03V187.66C179.03 186.895 178.839 186.311 178.456 185.91C178.073 185.499 177.551 185.294 176.888 185.294C176.216 185.294 175.679 185.504 175.278 185.924C174.886 186.344 174.69 186.955 174.69 187.758V192H173.416V181.64H174.69V185.42C174.942 185.028 175.287 184.725 175.726 184.51C176.174 184.295 176.673 184.188 177.224 184.188ZM189.371 187.87C189.371 188.113 189.357 188.369 189.329 188.64H183.197C183.244 189.396 183.5 189.989 183.967 190.418C184.443 190.838 185.017 191.048 185.689 191.048C186.24 191.048 186.697 190.922 187.061 190.67C187.434 190.409 187.696 190.063 187.845 189.634H189.217C189.012 190.371 188.601 190.973 187.985 191.44C187.369 191.897 186.604 192.126 185.689 192.126C184.961 192.126 184.308 191.963 183.729 191.636C183.16 191.309 182.712 190.847 182.385 190.25C182.058 189.643 181.895 188.943 181.895 188.15C181.895 187.357 182.054 186.661 182.371 186.064C182.688 185.467 183.132 185.009 183.701 184.692C184.28 184.365 184.942 184.202 185.689 184.202C186.417 184.202 187.061 184.361 187.621 184.678C188.181 184.995 188.61 185.434 188.909 185.994C189.217 186.545 189.371 187.17 189.371 187.87ZM188.055 187.604C188.055 187.119 187.948 186.703 187.733 186.358C187.518 186.003 187.224 185.737 186.851 185.56C186.487 185.373 186.081 185.28 185.633 185.28C184.989 185.28 184.438 185.485 183.981 185.896C183.533 186.307 183.276 186.876 183.211 187.604H188.055ZM192.327 185.574C192.551 185.135 192.868 184.795 193.279 184.552C193.699 184.309 194.207 184.188 194.805 184.188V185.504H194.469C193.041 185.504 192.327 186.279 192.327 187.828V192H191.053V184.328H192.327V185.574ZM203.275 187.87C203.275 188.113 203.261 188.369 203.233 188.64H197.101C197.148 189.396 197.405 189.989 197.871 190.418C198.347 190.838 198.921 191.048 199.593 191.048C200.144 191.048 200.601 190.922 200.965 190.67C201.339 190.409 201.6 190.063 201.749 189.634H203.121C202.916 190.371 202.505 190.973 201.889 191.44C201.273 191.897 200.508 192.126 199.593 192.126C198.865 192.126 198.212 191.963 197.633 191.636C197.064 191.309 196.616 190.847 196.289 190.25C195.963 189.643 195.799 188.943 195.799 188.15C195.799 187.357 195.958 186.661 196.275 186.064C196.593 185.467 197.036 185.009 197.605 184.692C198.184 184.365 198.847 184.202 199.593 184.202C200.321 184.202 200.965 184.361 201.525 184.678C202.085 184.995 202.515 185.434 202.813 185.994C203.121 186.545 203.275 187.17 203.275 187.87ZM201.959 187.604C201.959 187.119 201.852 186.703 201.637 186.358C201.423 186.003 201.129 185.737 200.755 185.56C200.391 185.373 199.985 185.28 199.537 185.28C198.893 185.28 198.343 185.485 197.885 185.896C197.437 186.307 197.181 186.876 197.115 187.604H201.959ZM209.095 192.084C208.853 192.084 208.647 192 208.479 191.832C208.311 191.664 208.227 191.459 208.227 191.216C208.227 190.973 208.311 190.768 208.479 190.6C208.647 190.432 208.853 190.348 209.095 190.348C209.329 190.348 209.525 190.432 209.683 190.6C209.851 190.768 209.935 190.973 209.935 191.216C209.935 191.459 209.851 191.664 209.683 191.832C209.525 192 209.329 192.084 209.095 192.084ZM212.035 192.084C211.792 192.084 211.587 192 211.419 191.832C211.251 191.664 211.167 191.459 211.167 191.216C211.167 190.973 211.251 190.768 211.419 190.6C211.587 190.432 211.792 190.348 212.035 190.348C212.268 190.348 212.464 190.432 212.623 190.6C212.791 190.768 212.875 190.973 212.875 191.216C212.875 191.459 212.791 191.664 212.623 191.832C212.464 192 212.268 192.084 212.035 192.084ZM214.974 192.084C214.732 192.084 214.526 192 214.358 191.832C214.19 191.664 214.106 191.459 214.106 191.216C214.106 190.973 214.19 190.768 214.358 190.6C214.526 190.432 214.732 190.348 214.974 190.348C215.208 190.348 215.404 190.432 215.562 190.6C215.73 190.768 215.814 190.973 215.814 191.216C215.814 191.459 215.73 191.664 215.562 191.832C215.404 192 215.208 192.084 214.974 192.084ZM217.914 192.084C217.671 192.084 217.466 192 217.298 191.832C217.13 191.664 217.046 191.459 217.046 191.216C217.046 190.973 217.13 190.768 217.298 190.6C217.466 190.432 217.671 190.348 217.914 190.348C218.147 190.348 218.343 190.432 218.502 190.6C218.67 190.768 218.754 190.973 218.754 191.216C218.754 191.459 218.67 191.664 218.502 191.832C218.343 192 218.147 192.084 217.914 192.084ZM220.853 192.084C220.61 192.084 220.405 192 220.237 191.832C220.069 191.664 219.985 191.459 219.985 191.216C219.985 190.973 220.069 190.768 220.237 190.6C220.405 190.432 220.61 190.348 220.853 190.348C221.086 190.348 221.282 190.432 221.441 190.6C221.609 190.768 221.693 190.973 221.693 191.216C221.693 191.459 221.609 191.664 221.441 191.832C221.282 192 221.086 192.084 220.853 192.084ZM223.793 192.084C223.55 192.084 223.345 192 223.177 191.832C223.009 191.664 222.925 191.459 222.925 191.216C222.925 190.973 223.009 190.768 223.177 190.6C223.345 190.432 223.55 190.348 223.793 190.348C224.026 190.348 224.222 190.432 224.381 190.6C224.549 190.768 224.633 190.973 224.633 191.216C224.633 191.459 224.549 191.664 224.381 191.832C224.222 192 224.026 192.084 223.793 192.084Z" fill="#DBCDBB"/>
<path d="M111.597 131.098C110.943 131.098 110.355 130.986 109.833 130.762C109.31 130.529 108.899 130.202 108.601 129.782C108.302 129.362 108.153 128.872 108.153 128.312H109.861C109.898 128.732 110.061 129.077 110.351 129.348C110.649 129.619 111.065 129.754 111.597 129.754C112.147 129.754 112.577 129.623 112.885 129.362C113.193 129.091 113.347 128.746 113.347 128.326C113.347 127.999 113.249 127.733 113.053 127.528C112.866 127.323 112.628 127.164 112.339 127.052C112.059 126.94 111.667 126.819 111.163 126.688C110.528 126.52 110.01 126.352 109.609 126.184C109.217 126.007 108.881 125.736 108.601 125.372C108.321 125.008 108.181 124.523 108.181 123.916C108.181 123.356 108.321 122.866 108.601 122.446C108.881 122.026 109.273 121.704 109.777 121.48C110.281 121.256 110.864 121.144 111.527 121.144C112.469 121.144 113.239 121.382 113.837 121.858C114.443 122.325 114.779 122.969 114.845 123.79H113.081C113.053 123.435 112.885 123.132 112.577 122.88C112.269 122.628 111.863 122.502 111.359 122.502C110.901 122.502 110.528 122.619 110.239 122.852C109.949 123.085 109.805 123.421 109.805 123.86C109.805 124.159 109.893 124.406 110.071 124.602C110.257 124.789 110.491 124.938 110.771 125.05C111.051 125.162 111.433 125.283 111.919 125.414C112.563 125.591 113.085 125.769 113.487 125.946C113.897 126.123 114.243 126.399 114.523 126.772C114.812 127.136 114.957 127.626 114.957 128.242C114.957 128.737 114.821 129.203 114.551 129.642C114.289 130.081 113.902 130.435 113.389 130.706C112.885 130.967 112.287 131.098 111.597 131.098ZM118.702 124.588V128.858C118.702 129.147 118.767 129.357 118.898 129.488C119.038 129.609 119.271 129.67 119.598 129.67H120.578V131H119.318C118.599 131 118.049 130.832 117.666 130.496C117.283 130.16 117.092 129.614 117.092 128.858V124.588H116.182V123.286H117.092V121.368H118.702V123.286H120.578V124.588H118.702ZM129.119 126.954C129.119 127.243 129.1 127.505 129.063 127.738H123.169C123.216 128.354 123.444 128.849 123.855 129.222C124.266 129.595 124.77 129.782 125.367 129.782C126.226 129.782 126.832 129.423 127.187 128.704H128.909C128.676 129.413 128.251 129.997 127.635 130.454C127.028 130.902 126.272 131.126 125.367 131.126C124.63 131.126 123.967 130.963 123.379 130.636C122.8 130.3 122.343 129.833 122.007 129.236C121.68 128.629 121.517 127.929 121.517 127.136C121.517 126.343 121.676 125.647 121.993 125.05C122.32 124.443 122.772 123.977 123.351 123.65C123.939 123.323 124.611 123.16 125.367 123.16C126.095 123.16 126.744 123.319 127.313 123.636C127.882 123.953 128.326 124.401 128.643 124.98C128.96 125.549 129.119 126.207 129.119 126.954ZM127.453 126.45C127.444 125.862 127.234 125.391 126.823 125.036C126.412 124.681 125.904 124.504 125.297 124.504C124.746 124.504 124.275 124.681 123.883 125.036C123.491 125.381 123.258 125.853 123.183 126.45H127.453ZM132.286 124.42C132.556 124.065 132.925 123.767 133.392 123.524C133.858 123.281 134.386 123.16 134.974 123.16C135.646 123.16 136.257 123.328 136.808 123.664C137.368 123.991 137.806 124.453 138.124 125.05C138.441 125.647 138.6 126.333 138.6 127.108C138.6 127.883 138.441 128.578 138.124 129.194C137.806 129.801 137.368 130.277 136.808 130.622C136.257 130.958 135.646 131.126 134.974 131.126C134.386 131.126 133.863 131.009 133.406 130.776C132.948 130.533 132.575 130.235 132.286 129.88V134.668H130.69V123.286H132.286V124.42ZM136.976 127.108C136.976 126.576 136.864 126.119 136.64 125.736C136.425 125.344 136.136 125.05 135.772 124.854C135.417 124.649 135.034 124.546 134.624 124.546C134.222 124.546 133.84 124.649 133.476 124.854C133.121 125.059 132.832 125.358 132.608 125.75C132.393 126.142 132.286 126.604 132.286 127.136C132.286 127.668 132.393 128.135 132.608 128.536C132.832 128.928 133.121 129.227 133.476 129.432C133.84 129.637 134.222 129.74 134.624 129.74C135.034 129.74 135.417 129.637 135.772 129.432C136.136 129.217 136.425 128.909 136.64 128.508C136.864 128.107 136.976 127.64 136.976 127.108ZM143.395 122.25V120.794H146.307V131H144.697V122.25H143.395Z" fill="black"/>
<path d="M213.626 131.819L214.145 133.434L213.407 136.688L210.032 140.384C213.482 140.593 216.904 139.65 219.761 137.705C219.761 137.705 221.064 129.237 213.248 129.237C211.169 130.623 209.388 131.581 207.386 131.577H207.467C205.465 131.581 203.684 130.623 201.605 129.237C193.788 129.237 195.091 137.705 195.091 137.705C201.59 141.627 204.45 140.12 213.407 136.688L213.809 134.395L198.132 135.274L201.59 134.682" fill="#FB8C00"/>
<path d="M219.752 137.705C219.752 137.705 221.054 129.238 213.238 129.238C211.159 130.624 209.377 131.581 207.376 131.577H207.457C205.455 131.581 203.674 130.624 201.595 129.238C193.779 129.238 195.081 137.705 195.081 137.705" fill="#FB8C00"/>
<path d="M213.422 129.238C211.729 130.531 209.717 131.339 207.601 131.575C216.109 131.844 216.109 135.101 216.605 137.706H219.935C219.935 137.706 221.238 129.238 213.422 129.238Z" fill="#FB8C00"/>
<path d="M219.935 137.705C219.935 137.705 212.278 143.585 206.428 139.635L213.407 136.688L214.145 133.434C214.145 133.434 219.992 131.829 219.935 137.705Z" fill="#FB8C00"/>
<path d="M207.427 127.722C211.506 127.722 214.812 123.589 214.812 118.49C214.812 113.392 211.506 109.259 207.427 109.259C203.348 109.259 200.041 113.392 200.041 118.49C200.041 123.589 203.348 127.722 207.427 127.722Z" fill="#FB8C00"/>
<path d="M216.006 108.442C207.427 111.124 200.041 117.248 200.041 117.248C200.041 117.248 197.461 113.77 198.584 110.261C198.584 110.261 200.041 105 207.075 105C212.092 105 214.628 107.065 216.006 108.442C220.01 114.126 214.615 117.304 214.615 117.304C212.429 115.6 210.33 113.787 208.326 111.871" fill="white"/>
<path d="M216.006 108.442C220.009 114.126 214.615 117.303 214.615 117.303C212.428 115.6 210.33 113.787 208.326 111.871" fill="#F9F9F9"/>
<path d="M207.427 115.667C207.081 115.667 206.75 115.53 206.506 115.286C206.261 115.042 206.124 114.71 206.124 114.365V111.759C206.124 111.414 206.261 111.082 206.506 110.838C206.75 110.594 207.081 110.457 207.427 110.457C207.772 110.457 208.104 110.594 208.348 110.838C208.592 111.082 208.729 111.414 208.729 111.759V114.365C208.729 114.71 208.592 115.042 208.348 115.286C208.104 115.53 207.772 115.667 207.427 115.667ZM213.407 136.688L210.533 137.881V134.464H213.809L213.407 136.688Z" fill="#FCEA2B"/>
<path d="M210.032 140.384C213.482 140.593 216.904 139.651 219.761 137.706C219.761 137.706 221.064 129.238 213.247 129.238C211.168 130.624 209.387 131.582 207.385 131.578H207.466C205.464 131.582 203.683 130.624 201.604 129.238C193.788 129.238 195.091 137.706 195.091 137.706C201.59 141.627 204.449 140.121 213.406 136.689L213.808 134.396L198.131 135.275" stroke="black" stroke-width="2" stroke-linecap="round" stroke-linejoin="round"/>
<path d="M213.626 131.819L214.145 133.434L213.407 136.688" stroke="black" stroke-width="2" stroke-linecap="round" stroke-linejoin="round"/>
<path d="M211.335 117.604C211.335 117.862 211.258 118.114 211.115 118.328C210.972 118.542 210.769 118.709 210.531 118.808C210.293 118.906 210.031 118.932 209.778 118.882C209.525 118.831 209.293 118.707 209.111 118.525C208.929 118.343 208.805 118.111 208.754 117.858C208.704 117.605 208.73 117.344 208.829 117.105C208.927 116.867 209.094 116.664 209.308 116.521C209.523 116.378 209.774 116.301 210.032 116.301C210.378 116.301 210.709 116.439 210.953 116.683C211.198 116.927 211.335 117.258 211.335 117.604ZM206.124 117.604C206.124 117.862 206.048 118.114 205.904 118.328C205.761 118.542 205.558 118.709 205.32 118.808C205.082 118.906 204.82 118.932 204.567 118.882C204.314 118.831 204.082 118.707 203.9 118.525C203.718 118.343 203.594 118.111 203.544 117.858C203.493 117.605 203.519 117.344 203.618 117.105C203.716 116.867 203.883 116.664 204.097 116.521C204.312 116.378 204.564 116.301 204.821 116.301C205.167 116.301 205.498 116.439 205.742 116.683C205.987 116.927 206.124 117.258 206.124 117.604ZM207.427 124.119C206.645 124.111 205.875 123.92 205.181 123.56C205.026 123.483 204.909 123.347 204.854 123.183C204.8 123.019 204.812 122.84 204.89 122.686C204.967 122.531 205.102 122.414 205.266 122.359C205.43 122.305 205.609 122.317 205.764 122.395C206.275 122.67 206.846 122.815 207.426 122.815C208.007 122.815 208.578 122.67 209.089 122.395C209.244 122.317 209.423 122.305 209.587 122.359C209.751 122.414 209.886 122.532 209.963 122.686C210.041 122.841 210.053 123.02 209.999 123.184C209.944 123.348 209.827 123.483 209.672 123.561C208.978 123.92 208.208 124.111 207.427 124.119Z" fill="black"/>
<path d="M206.125 113.031C205.291 113.533 204.516 114.028 203.826 114.49C201.787 115.852 200.432 116.933 200.113 117.187C200.068 117.226 200.042 117.246 200.042 117.246C200.042 117.246 197.462 113.767 198.582 110.263C198.582 110.263 200.042 105 207.076 105C212.092 105 214.625 107.065 216.006 108.446C219.641 113.598 215.537 116.685 214.743 117.22C214.658 117.278 214.612 117.304 214.612 117.304C214.612 117.304 211.74 115.103 208.731 112.256" stroke="black" stroke-width="2" stroke-linecap="round" stroke-linejoin="round"/>
<path d="M208.711 111.559C211.042 110.3 213.484 109.258 216.006 108.446" stroke="black" stroke-width="2" stroke-linecap="round" stroke-linejoin="round"/>
<path d="M210.533 134.655V137.748M200.092 117.306C200.05 117.704 200.03 118.105 200.03 118.505C200.03 123.604 203.337 127.737 207.416 127.737C211.494 127.737 214.801 123.604 214.801 118.505C214.801 118.092 214.779 117.679 214.736 117.268M207.427 115.667C207.081 115.667 206.75 115.53 206.505 115.286C206.261 115.042 206.124 114.71 206.124 114.365V111.759C206.124 111.414 206.261 111.082 206.505 110.838C206.75 110.594 207.081 110.457 207.427 110.457C207.772 110.457 208.103 110.594 208.348 110.838C208.592 111.082 208.729 111.414 208.729 111.759V114.365C208.729 114.71 208.592 115.042 208.348 115.286C208.103 115.53 207.772 115.667 207.427 115.667Z" stroke="black" stroke-width="2" stroke-linecap="round" stroke-linejoin="round"/>
<defs>
<filter id="filter0_d_1165_2" x="0.876953" y="0.88501" width="399.384" height="528.651" filterUnits="userSpaceOnUse" color-interpolation-filters="sRGB">
<feFlood flood-opacity="0" result="BackgroundImageFix"/>
<feColorMatrix in="SourceAlpha" type="matrix" values="0 0 0 0 0 0 0 0 0 0 0 0 0 0 0 0 0 0 127 0" result="hardAlpha"/>
<feOffset dx="10" dy="10"/>
<feGaussianBlur stdDeviation="50"/>
<feComposite in2="hardAlpha" operator="out"/>
<feColorMatrix type="matrix" values="0 0 0 0 0.741667 0 0 0 0 0.741667 0 0 0 0 0.741667 0 0 0 0.35 0"/>
<feBlend mode="normal" in2="BackgroundImageFix" result="effect1_dropShadow_1165_2"/>
<feBlend mode="normal" in="SourceGraphic" in2="effect1_dropShadow_1165_2" result="shape"/>
</filter>
</defs>
</svg>
