<svg width="273" height="343" viewBox="0 0 273 343" fill="none" xmlns="http://www.w3.org/2000/svg">
<rect width="272.127" height="343" rx="24" fill="white"/>
<path d="M62.1919 261.27L58.5379 271H56.6899L53.0219 261.27H54.7299L57.6139 269.362L60.5119 261.27H62.1919ZM64.3386 262.264C64.0492 262.264 63.8066 262.166 63.6106 261.97C63.4146 261.774 63.3166 261.531 63.3166 261.242C63.3166 260.953 63.4146 260.71 63.6106 260.514C63.8066 260.318 64.0492 260.22 64.3386 260.22C64.6186 260.22 64.8566 260.318 65.0526 260.514C65.2486 260.71 65.3466 260.953 65.3466 261.242C65.3466 261.531 65.2486 261.774 65.0526 261.97C64.8566 262.166 64.6186 262.264 64.3386 262.264ZM65.1226 263.286V271H63.5266V263.286H65.1226ZM70.018 271.126C69.4113 271.126 68.8653 271.019 68.38 270.804C67.904 270.58 67.526 270.281 67.246 269.908C66.966 269.525 66.8166 269.101 66.798 268.634H68.45C68.478 268.961 68.632 269.236 68.912 269.46C69.2013 269.675 69.5606 269.782 69.99 269.782C70.438 269.782 70.7833 269.698 71.026 269.53C71.278 269.353 71.404 269.129 71.404 268.858C71.404 268.569 71.264 268.354 70.984 268.214C70.7133 268.074 70.2793 267.92 69.682 267.752C69.1033 267.593 68.632 267.439 68.268 267.29C67.904 267.141 67.5866 266.912 67.316 266.604C67.0546 266.296 66.924 265.89 66.924 265.386C66.924 264.975 67.0453 264.602 67.288 264.266C67.5306 263.921 67.876 263.65 68.324 263.454C68.7813 263.258 69.304 263.16 69.892 263.16C70.7693 263.16 71.474 263.384 72.006 263.832C72.5473 264.271 72.8366 264.873 72.874 265.638H71.278C71.25 265.293 71.11 265.017 70.858 264.812C70.606 264.607 70.2653 264.504 69.836 264.504C69.416 264.504 69.094 264.583 68.87 264.742C68.646 264.901 68.534 265.111 68.534 265.372C68.534 265.577 68.6086 265.75 68.758 265.89C68.9073 266.03 69.0893 266.142 69.304 266.226C69.5186 266.301 69.836 266.399 70.256 266.52C70.816 266.669 71.2733 266.823 71.628 266.982C71.992 267.131 72.3046 267.355 72.566 267.654C72.8273 267.953 72.9626 268.349 72.972 268.844C72.972 269.283 72.8506 269.675 72.608 270.02C72.3653 270.365 72.02 270.636 71.572 270.832C71.1333 271.028 70.6153 271.126 70.018 271.126ZM75.5085 262.264C75.2192 262.264 74.9765 262.166 74.7805 261.97C74.5845 261.774 74.4865 261.531 74.4865 261.242C74.4865 260.953 74.5845 260.71 74.7805 260.514C74.9765 260.318 75.2192 260.22 75.5085 260.22C75.7885 260.22 76.0265 260.318 76.2225 260.514C76.4185 260.71 76.5165 260.953 76.5165 261.242C76.5165 261.531 76.4185 261.774 76.2225 261.97C76.0265 262.166 75.7885 262.264 75.5085 262.264ZM76.2925 263.286V271H74.6965V263.286H76.2925ZM80.2499 264.588V268.858C80.2499 269.147 80.3152 269.357 80.4459 269.488C80.5859 269.609 80.8192 269.67 81.1459 269.67H82.1259V271H80.8659C80.1472 271 79.5966 270.832 79.2139 270.496C78.8312 270.16 78.6399 269.614 78.6399 268.858V264.588H77.7299V263.286H78.6399V261.368H80.2499V263.286H82.1259V264.588H80.2499ZM89.0956 264.588V268.858C89.0956 269.147 89.1609 269.357 89.2916 269.488C89.4316 269.609 89.6649 269.67 89.9916 269.67H90.9716V271H89.7116C88.9929 271 88.4423 270.832 88.0596 270.496C87.6769 270.16 87.4856 269.614 87.4856 268.858V264.588H86.5756V263.286H87.4856V261.368H89.0956V263.286H90.9716V264.588H89.0956ZM96.4326 263.16C97.0206 263.16 97.5432 263.286 98.0006 263.538C98.4672 263.79 98.8312 264.163 99.0926 264.658C99.3632 265.153 99.4986 265.75 99.4986 266.45V271H97.9166V266.688C97.9166 265.997 97.7439 265.47 97.3986 265.106C97.0532 264.733 96.5819 264.546 95.9846 264.546C95.3872 264.546 94.9112 264.733 94.5566 265.106C94.2112 265.47 94.0386 265.997 94.0386 266.688V271H92.4426V260.64H94.0386V264.182C94.3092 263.855 94.6499 263.603 95.0606 263.426C95.4806 263.249 95.9379 263.16 96.4326 263.16ZM108.604 266.954C108.604 267.243 108.586 267.505 108.548 267.738H102.654C102.701 268.354 102.93 268.849 103.34 269.222C103.751 269.595 104.255 269.782 104.852 269.782C105.711 269.782 106.318 269.423 106.672 268.704H108.394C108.161 269.413 107.736 269.997 107.12 270.454C106.514 270.902 105.758 271.126 104.852 271.126C104.115 271.126 103.452 270.963 102.864 270.636C102.286 270.3 101.828 269.833 101.492 269.236C101.166 268.629 101.002 267.929 101.002 267.136C101.002 266.343 101.161 265.647 101.478 265.05C101.805 264.443 102.258 263.977 102.836 263.65C103.424 263.323 104.096 263.16 104.852 263.16C105.58 263.16 106.229 263.319 106.798 263.636C107.368 263.953 107.811 264.401 108.128 264.98C108.446 265.549 108.604 266.207 108.604 266.954ZM106.938 266.45C106.929 265.862 106.719 265.391 106.308 265.036C105.898 264.681 105.389 264.504 104.782 264.504C104.232 264.504 103.76 264.681 103.368 265.036C102.976 265.381 102.743 265.853 102.668 266.45H106.938ZM116.612 271.126C116.005 271.126 115.459 271.019 114.974 270.804C114.498 270.58 114.12 270.281 113.84 269.908C113.56 269.525 113.41 269.101 113.392 268.634H115.044C115.072 268.961 115.226 269.236 115.506 269.46C115.795 269.675 116.154 269.782 116.584 269.782C117.032 269.782 117.377 269.698 117.62 269.53C117.872 269.353 117.998 269.129 117.998 268.858C117.998 268.569 117.858 268.354 117.578 268.214C117.307 268.074 116.873 267.92 116.276 267.752C115.697 267.593 115.226 267.439 114.862 267.29C114.498 267.141 114.18 266.912 113.91 266.604C113.648 266.296 113.518 265.89 113.518 265.386C113.518 264.975 113.639 264.602 113.882 264.266C114.124 263.921 114.47 263.65 114.918 263.454C115.375 263.258 115.898 263.16 116.486 263.16C117.363 263.16 118.068 263.384 118.6 263.832C119.141 264.271 119.43 264.873 119.468 265.638H117.872C117.844 265.293 117.704 265.017 117.452 264.812C117.2 264.607 116.859 264.504 116.43 264.504C116.01 264.504 115.688 264.583 115.464 264.742C115.24 264.901 115.128 265.111 115.128 265.372C115.128 265.577 115.202 265.75 115.352 265.89C115.501 266.03 115.683 266.142 115.898 266.226C116.112 266.301 116.43 266.399 116.85 266.52C117.41 266.669 117.867 266.823 118.222 266.982C118.586 267.131 118.898 267.355 119.16 267.654C119.421 267.953 119.556 268.349 119.566 268.844C119.566 269.283 119.444 269.675 119.202 270.02C118.959 270.365 118.614 270.636 118.166 270.832C117.727 271.028 117.209 271.126 116.612 271.126ZM125.28 263.16C125.868 263.16 126.391 263.286 126.848 263.538C127.315 263.79 127.679 264.163 127.94 264.658C128.211 265.153 128.346 265.75 128.346 266.45V271H126.764V266.688C126.764 265.997 126.592 265.47 126.246 265.106C125.901 264.733 125.43 264.546 124.832 264.546C124.235 264.546 123.759 264.733 123.404 265.106C123.059 265.47 122.886 265.997 122.886 266.688V271H121.29V260.64H122.886V264.182C123.157 263.855 123.498 263.603 123.908 263.426C124.328 263.249 124.786 263.16 125.28 263.16ZM133.728 271.126C133 271.126 132.342 270.963 131.754 270.636C131.166 270.3 130.704 269.833 130.368 269.236C130.032 268.629 129.864 267.929 129.864 267.136C129.864 266.352 130.037 265.657 130.382 265.05C130.727 264.443 131.199 263.977 131.796 263.65C132.393 263.323 133.061 263.16 133.798 263.16C134.535 263.16 135.203 263.323 135.8 263.65C136.397 263.977 136.869 264.443 137.214 265.05C137.559 265.657 137.732 266.352 137.732 267.136C137.732 267.92 137.555 268.615 137.2 269.222C136.845 269.829 136.36 270.3 135.744 270.636C135.137 270.963 134.465 271.126 133.728 271.126ZM133.728 269.74C134.139 269.74 134.521 269.642 134.876 269.446C135.24 269.25 135.534 268.956 135.758 268.564C135.982 268.172 136.094 267.696 136.094 267.136C136.094 266.576 135.987 266.105 135.772 265.722C135.557 265.33 135.273 265.036 134.918 264.84C134.563 264.644 134.181 264.546 133.77 264.546C133.359 264.546 132.977 264.644 132.622 264.84C132.277 265.036 132.001 265.33 131.796 265.722C131.591 266.105 131.488 266.576 131.488 267.136C131.488 267.967 131.698 268.611 132.118 269.068C132.547 269.516 133.084 269.74 133.728 269.74ZM140.906 264.42C141.176 264.065 141.545 263.767 142.012 263.524C142.478 263.281 143.006 263.16 143.594 263.16C144.266 263.16 144.877 263.328 145.428 263.664C145.988 263.991 146.426 264.453 146.744 265.05C147.061 265.647 147.22 266.333 147.22 267.108C147.22 267.883 147.061 268.578 146.744 269.194C146.426 269.801 145.988 270.277 145.428 270.622C144.877 270.958 144.266 271.126 143.594 271.126C143.006 271.126 142.483 271.009 142.026 270.776C141.568 270.533 141.195 270.235 140.906 269.88V274.668H139.31V263.286H140.906V264.42ZM145.596 267.108C145.596 266.576 145.484 266.119 145.26 265.736C145.045 265.344 144.756 265.05 144.392 264.854C144.037 264.649 143.654 264.546 143.244 264.546C142.842 264.546 142.46 264.649 142.096 264.854C141.741 265.059 141.452 265.358 141.228 265.75C141.013 266.142 140.906 266.604 140.906 267.136C140.906 267.668 141.013 268.135 141.228 268.536C141.452 268.928 141.741 269.227 142.096 269.432C142.46 269.637 142.842 269.74 143.244 269.74C143.654 269.74 144.037 269.637 144.392 269.432C144.756 269.217 145.045 268.909 145.26 268.508C145.484 268.107 145.596 267.64 145.596 267.108ZM155.781 271.126C155.053 271.126 154.395 270.963 153.807 270.636C153.219 270.3 152.757 269.833 152.421 269.236C152.085 268.629 151.917 267.929 151.917 267.136C151.917 266.352 152.089 265.657 152.435 265.05C152.78 264.443 153.251 263.977 153.849 263.65C154.446 263.323 155.113 263.16 155.851 263.16C156.588 263.16 157.255 263.323 157.853 263.65C158.45 263.977 158.921 264.443 159.267 265.05C159.612 265.657 159.785 266.352 159.785 267.136C159.785 267.92 159.607 268.615 159.253 269.222C158.898 269.829 158.413 270.3 157.797 270.636C157.19 270.963 156.518 271.126 155.781 271.126ZM155.781 269.74C156.191 269.74 156.574 269.642 156.929 269.446C157.293 269.25 157.587 268.956 157.811 268.564C158.035 268.172 158.147 267.696 158.147 267.136C158.147 266.576 158.039 266.105 157.825 265.722C157.61 265.33 157.325 265.036 156.971 264.84C156.616 264.644 156.233 264.546 155.823 264.546C155.412 264.546 155.029 264.644 154.675 264.84C154.329 265.036 154.054 265.33 153.849 265.722C153.643 266.105 153.541 266.576 153.541 267.136C153.541 267.967 153.751 268.611 154.171 269.068C154.6 269.516 155.137 269.74 155.781 269.74ZM162.959 264.406C163.192 264.014 163.5 263.711 163.883 263.496C164.275 263.272 164.737 263.16 165.269 263.16V264.812H164.863C164.237 264.812 163.761 264.971 163.435 265.288C163.117 265.605 162.959 266.156 162.959 266.94V271H161.363V263.286H162.959V264.406ZM171.968 264.406C172.202 264.014 172.51 263.711 172.892 263.496C173.284 263.272 173.746 263.16 174.278 263.16V264.812H173.872C173.247 264.812 172.771 264.971 172.444 265.288C172.127 265.605 171.968 266.156 171.968 266.94V271H170.372V263.286H171.968V264.406ZM182.815 266.954C182.815 267.243 182.797 267.505 182.759 267.738H176.865C176.912 268.354 177.141 268.849 177.551 269.222C177.962 269.595 178.466 269.782 179.063 269.782C179.922 269.782 180.529 269.423 180.883 268.704H182.605C182.372 269.413 181.947 269.997 181.331 270.454C180.725 270.902 179.969 271.126 179.063 271.126C178.326 271.126 177.663 270.963 177.075 270.636C176.497 270.3 176.039 269.833 175.703 269.236C175.377 268.629 175.213 267.929 175.213 267.136C175.213 266.343 175.372 265.647 175.689 265.05C176.016 264.443 176.469 263.977 177.047 263.65C177.635 263.323 178.307 263.16 179.063 263.16C179.791 263.16 180.44 263.319 181.009 263.636C181.579 263.953 182.022 264.401 182.339 264.98C182.657 265.549 182.815 266.207 182.815 266.954ZM181.149 266.45C181.14 265.862 180.93 265.391 180.519 265.036C180.109 264.681 179.6 264.504 178.993 264.504C178.443 264.504 177.971 264.681 177.579 265.036C177.187 265.381 176.954 265.853 176.879 266.45H181.149ZM183.854 267.108C183.854 266.333 184.013 265.647 184.33 265.05C184.657 264.453 185.095 263.991 185.646 263.664C186.206 263.328 186.827 263.16 187.508 263.16C188.105 263.16 188.633 263.281 189.09 263.524C189.557 263.767 189.916 264.061 190.168 264.406V263.286H191.778V274.668H190.168V269.88C189.916 270.225 189.552 270.519 189.076 270.762C188.6 271.005 188.059 271.126 187.452 271.126C186.789 271.126 186.183 270.958 185.632 270.622C185.091 270.277 184.657 269.801 184.33 269.194C184.013 268.578 183.854 267.883 183.854 267.108ZM190.168 267.136C190.168 266.604 190.056 266.142 189.832 265.75C189.617 265.358 189.333 265.059 188.978 264.854C188.623 264.649 188.241 264.546 187.83 264.546C187.419 264.546 187.037 264.649 186.682 264.854C186.327 265.05 186.038 265.344 185.814 265.736C185.599 266.119 185.492 266.576 185.492 267.108C185.492 267.64 185.599 268.107 185.814 268.508C186.038 268.909 186.327 269.217 186.682 269.432C187.046 269.637 187.429 269.74 187.83 269.74C188.241 269.74 188.623 269.637 188.978 269.432C189.333 269.227 189.617 268.928 189.832 268.536C190.056 268.135 190.168 267.668 190.168 267.136ZM200.86 263.286V271H199.264V270.09C199.012 270.407 198.681 270.659 198.27 270.846C197.869 271.023 197.44 271.112 196.982 271.112C196.376 271.112 195.83 270.986 195.344 270.734C194.868 270.482 194.49 270.109 194.21 269.614C193.94 269.119 193.804 268.522 193.804 267.822V263.286H195.386V267.584C195.386 268.275 195.559 268.807 195.904 269.18C196.25 269.544 196.721 269.726 197.318 269.726C197.916 269.726 198.387 269.544 198.732 269.18C199.087 268.807 199.264 268.275 199.264 267.584V263.286H200.86ZM210.036 266.954C210.036 267.243 210.017 267.505 209.98 267.738H204.086C204.133 268.354 204.361 268.849 204.772 269.222C205.183 269.595 205.687 269.782 206.284 269.782C207.143 269.782 207.749 269.423 208.104 268.704H209.826C209.593 269.413 209.168 269.997 208.552 270.454C207.945 270.902 207.189 271.126 206.284 271.126C205.547 271.126 204.884 270.963 204.296 270.636C203.717 270.3 203.26 269.833 202.924 269.236C202.597 268.629 202.434 267.929 202.434 267.136C202.434 266.343 202.593 265.647 202.91 265.05C203.237 264.443 203.689 263.977 204.268 263.65C204.856 263.323 205.528 263.16 206.284 263.16C207.012 263.16 207.661 263.319 208.23 263.636C208.799 263.953 209.243 264.401 209.56 264.98C209.877 265.549 210.036 266.207 210.036 266.954ZM208.37 266.45C208.361 265.862 208.151 265.391 207.74 265.036C207.329 264.681 206.821 264.504 206.214 264.504C205.663 264.504 205.192 264.681 204.8 265.036C204.408 265.381 204.175 265.853 204.1 266.45H208.37ZM214.407 271.126C213.8 271.126 213.254 271.019 212.769 270.804C212.293 270.58 211.915 270.281 211.635 269.908C211.355 269.525 211.205 269.101 211.187 268.634H212.839C212.867 268.961 213.021 269.236 213.301 269.46C213.59 269.675 213.949 269.782 214.379 269.782C214.827 269.782 215.172 269.698 215.415 269.53C215.667 269.353 215.793 269.129 215.793 268.858C215.793 268.569 215.653 268.354 215.373 268.214C215.102 268.074 214.668 267.92 214.071 267.752C213.492 267.593 213.021 267.439 212.657 267.29C212.293 267.141 211.975 266.912 211.705 266.604C211.443 266.296 211.313 265.89 211.313 265.386C211.313 264.975 211.434 264.602 211.677 264.266C211.919 263.921 212.265 263.65 212.713 263.454C213.17 263.258 213.693 263.16 214.281 263.16C215.158 263.16 215.863 263.384 216.395 263.832C216.936 264.271 217.225 264.873 217.263 265.638H215.667C215.639 265.293 215.499 265.017 215.247 264.812C214.995 264.607 214.654 264.504 214.225 264.504C213.805 264.504 213.483 264.583 213.259 264.742C213.035 264.901 212.923 265.111 212.923 265.372C212.923 265.577 212.997 265.75 213.147 265.89C213.296 266.03 213.478 266.142 213.693 266.226C213.907 266.301 214.225 266.399 214.645 266.52C215.205 266.669 215.662 266.823 216.017 266.982C216.381 267.131 216.693 267.355 216.955 267.654C217.216 267.953 217.351 268.349 217.361 268.844C217.361 269.283 217.239 269.675 216.997 270.02C216.754 270.365 216.409 270.636 215.961 270.832C215.522 271.028 215.004 271.126 214.407 271.126ZM220.947 264.588V268.858C220.947 269.147 221.012 269.357 221.143 269.488C221.283 269.609 221.516 269.67 221.843 269.67H222.823V271H221.563C220.844 271 220.294 270.832 219.911 270.496C219.528 270.16 219.337 269.614 219.337 268.858V264.588H218.427V263.286H219.337V261.368H220.947V263.286H222.823V264.588H220.947ZM58.0593 290.572L60.2433 284.286H61.9373L58.9973 292H57.0933L54.1673 284.286H55.8753L58.0593 290.572ZM70.2138 287.954C70.2138 288.243 70.1951 288.505 70.1578 288.738H64.2638C64.3104 289.354 64.5391 289.849 64.9498 290.222C65.3604 290.595 65.8644 290.782 66.4618 290.782C67.3204 290.782 67.9271 290.423 68.2818 289.704H70.0037C69.7704 290.413 69.3458 290.997 68.7298 291.454C68.1231 291.902 67.3671 292.126 66.4618 292.126C65.7244 292.126 65.0618 291.963 64.4738 291.636C63.8951 291.3 63.4378 290.833 63.1018 290.236C62.7751 289.629 62.6118 288.929 62.6118 288.136C62.6118 287.343 62.7704 286.647 63.0878 286.05C63.4144 285.443 63.8671 284.977 64.4458 284.65C65.0338 284.323 65.7058 284.16 66.4618 284.16C67.1898 284.16 67.8384 284.319 68.4078 284.636C68.9771 284.953 69.4204 285.401 69.7378 285.98C70.0551 286.549 70.2138 287.207 70.2138 287.954ZM68.5478 287.45C68.5384 286.862 68.3284 286.391 67.9178 286.036C67.5071 285.681 66.9984 285.504 66.3918 285.504C65.8411 285.504 65.3698 285.681 64.9778 286.036C64.5858 286.381 64.3524 286.853 64.2778 287.45H68.5478ZM75.6764 284.16C76.283 284.16 76.8244 284.286 77.3004 284.538C77.7857 284.79 78.1637 285.163 78.4344 285.658C78.705 286.153 78.8404 286.75 78.8404 287.45V292H77.2584V287.688C77.2584 286.997 77.0857 286.47 76.7404 286.106C76.395 285.733 75.9237 285.546 75.3264 285.546C74.729 285.546 74.253 285.733 73.8984 286.106C73.553 286.47 73.3804 286.997 73.3804 287.688V292H71.7844V284.286H73.3804V285.168C73.6417 284.851 73.973 284.603 74.3744 284.426C74.785 284.249 75.219 284.16 75.6764 284.16ZM80.3442 288.108C80.3442 287.333 80.5028 286.647 80.8202 286.05C81.1468 285.453 81.5855 284.991 82.1362 284.664C82.6962 284.328 83.3168 284.16 83.9982 284.16C84.5022 284.16 84.9968 284.272 85.4822 284.496C85.9768 284.711 86.3688 285 86.6582 285.364V281.64H88.2682V292H86.6582V290.838C86.3968 291.211 86.0328 291.519 85.5662 291.762C85.1088 292.005 84.5815 292.126 83.9842 292.126C83.3122 292.126 82.6962 291.958 82.1362 291.622C81.5855 291.277 81.1468 290.801 80.8202 290.194C80.5028 289.578 80.3442 288.883 80.3442 288.108ZM86.6582 288.136C86.6582 287.604 86.5462 287.142 86.3222 286.75C86.1075 286.358 85.8228 286.059 85.4682 285.854C85.1135 285.649 84.7308 285.546 84.3202 285.546C83.9095 285.546 83.5268 285.649 83.1722 285.854C82.8175 286.05 82.5282 286.344 82.3042 286.736C82.0895 287.119 81.9822 287.576 81.9822 288.108C81.9822 288.64 82.0895 289.107 82.3042 289.508C82.5282 289.909 82.8175 290.217 83.1722 290.432C83.5362 290.637 83.9188 290.74 84.3202 290.74C84.7308 290.74 85.1135 290.637 85.4682 290.432C85.8228 290.227 86.1075 289.928 86.3222 289.536C86.5462 289.135 86.6582 288.668 86.6582 288.136ZM93.7105 292.126C92.9825 292.126 92.3245 291.963 91.7365 291.636C91.1485 291.3 90.6865 290.833 90.3505 290.236C90.0145 289.629 89.8465 288.929 89.8465 288.136C89.8465 287.352 90.0191 286.657 90.3645 286.05C90.7098 285.443 91.1811 284.977 91.7785 284.65C92.3758 284.323 93.0431 284.16 93.7805 284.16C94.5178 284.16 95.1851 284.323 95.7825 284.65C96.3798 284.977 96.8511 285.443 97.1965 286.05C97.5418 286.657 97.7145 287.352 97.7145 288.136C97.7145 288.92 97.5371 289.615 97.1825 290.222C96.8278 290.829 96.3425 291.3 95.7265 291.636C95.1198 291.963 94.4478 292.126 93.7105 292.126ZM93.7105 290.74C94.1211 290.74 94.5038 290.642 94.8585 290.446C95.2225 290.25 95.5165 289.956 95.7405 289.564C95.9645 289.172 96.0765 288.696 96.0765 288.136C96.0765 287.576 95.9691 287.105 95.7545 286.722C95.5398 286.33 95.2551 286.036 94.9005 285.84C94.5458 285.644 94.1631 285.546 93.7525 285.546C93.3418 285.546 92.9591 285.644 92.6045 285.84C92.2591 286.036 91.9838 286.33 91.7785 286.722C91.5731 287.105 91.4705 287.576 91.4705 288.136C91.4705 288.967 91.6805 289.611 92.1005 290.068C92.5298 290.516 93.0665 290.74 93.7105 290.74ZM100.888 285.406C101.122 285.014 101.43 284.711 101.812 284.496C102.204 284.272 102.666 284.16 103.198 284.16V285.812H102.792C102.167 285.812 101.691 285.971 101.364 286.288C101.047 286.605 100.888 287.156 100.888 287.94V292H99.2922V284.286H100.888V285.406ZM110.164 285.588V289.858C110.164 290.147 110.229 290.357 110.36 290.488C110.5 290.609 110.733 290.67 111.06 290.67H112.04V292H110.78C110.061 292 109.511 291.832 109.128 291.496C108.745 291.16 108.554 290.614 108.554 289.858V285.588H107.644V284.286H108.554V282.368H110.164V284.286H112.04V285.588H110.164ZM116.857 292.126C116.129 292.126 115.471 291.963 114.883 291.636C114.295 291.3 113.833 290.833 113.497 290.236C113.161 289.629 112.993 288.929 112.993 288.136C112.993 287.352 113.166 286.657 113.511 286.05C113.856 285.443 114.328 284.977 114.925 284.65C115.522 284.323 116.19 284.16 116.927 284.16C117.664 284.16 118.332 284.323 118.929 284.65C119.526 284.977 119.998 285.443 120.343 286.05C120.688 286.657 120.861 287.352 120.861 288.136C120.861 288.92 120.684 289.615 120.329 290.222C119.974 290.829 119.489 291.3 118.873 291.636C118.266 291.963 117.594 292.126 116.857 292.126ZM116.857 290.74C117.268 290.74 117.65 290.642 118.005 290.446C118.369 290.25 118.663 289.956 118.887 289.564C119.111 289.172 119.223 288.696 119.223 288.136C119.223 287.576 119.116 287.105 118.901 286.722C118.686 286.33 118.402 286.036 118.047 285.84C117.692 285.644 117.31 285.546 116.899 285.546C116.488 285.546 116.106 285.644 115.751 285.84C115.406 286.036 115.13 286.33 114.925 286.722C114.72 287.105 114.617 287.576 114.617 288.136C114.617 288.967 114.827 289.611 115.247 290.068C115.676 290.516 116.213 290.74 116.857 290.74ZM130.065 284.16C130.653 284.16 131.176 284.286 131.633 284.538C132.1 284.79 132.464 285.163 132.725 285.658C132.996 286.153 133.131 286.75 133.131 287.45V292H131.549V287.688C131.549 286.997 131.377 286.47 131.031 286.106C130.686 285.733 130.215 285.546 129.617 285.546C129.02 285.546 128.544 285.733 128.189 286.106C127.844 286.47 127.671 286.997 127.671 287.688V292H126.075V281.64H127.671V285.182C127.942 284.855 128.283 284.603 128.693 284.426C129.113 284.249 129.571 284.16 130.065 284.16ZM138.513 292.126C137.785 292.126 137.127 291.963 136.539 291.636C135.951 291.3 135.489 290.833 135.153 290.236C134.817 289.629 134.649 288.929 134.649 288.136C134.649 287.352 134.822 286.657 135.167 286.05C135.513 285.443 135.984 284.977 136.581 284.65C137.179 284.323 137.846 284.16 138.583 284.16C139.321 284.16 139.988 284.323 140.585 284.65C141.183 284.977 141.654 285.443 141.999 286.05C142.345 286.657 142.517 287.352 142.517 288.136C142.517 288.92 142.34 289.615 141.985 290.222C141.631 290.829 141.145 291.3 140.529 291.636C139.923 291.963 139.251 292.126 138.513 292.126ZM138.513 290.74C138.924 290.74 139.307 290.642 139.661 290.446C140.025 290.25 140.319 289.956 140.543 289.564C140.767 289.172 140.879 288.696 140.879 288.136C140.879 287.576 140.772 287.105 140.557 286.722C140.343 286.33 140.058 286.036 139.703 285.84C139.349 285.644 138.966 285.546 138.555 285.546C138.145 285.546 137.762 285.644 137.407 285.84C137.062 286.036 136.787 286.33 136.581 286.722C136.376 287.105 136.273 287.576 136.273 288.136C136.273 288.967 136.483 289.611 136.903 290.068C137.333 290.516 137.869 290.74 138.513 290.74ZM153.433 284.16C154.04 284.16 154.581 284.286 155.057 284.538C155.542 284.79 155.92 285.163 156.191 285.658C156.471 286.153 156.611 286.75 156.611 287.45V292H155.029V287.688C155.029 286.997 154.856 286.47 154.511 286.106C154.166 285.733 153.694 285.546 153.097 285.546C152.5 285.546 152.024 285.733 151.669 286.106C151.324 286.47 151.151 286.997 151.151 287.688V292H149.569V287.688C149.569 286.997 149.396 286.47 149.051 286.106C148.706 285.733 148.234 285.546 147.637 285.546C147.04 285.546 146.564 285.733 146.209 286.106C145.864 286.47 145.691 286.997 145.691 287.688V292H144.095V284.286H145.691V285.168C145.952 284.851 146.284 284.603 146.685 284.426C147.086 284.249 147.516 284.16 147.973 284.16C148.589 284.16 149.14 284.291 149.625 284.552C150.11 284.813 150.484 285.191 150.745 285.686C150.978 285.219 151.342 284.851 151.837 284.58C152.332 284.3 152.864 284.16 153.433 284.16ZM165.712 287.954C165.712 288.243 165.693 288.505 165.656 288.738H159.762C159.808 289.354 160.037 289.849 160.448 290.222C160.858 290.595 161.362 290.782 161.96 290.782C162.818 290.782 163.425 290.423 163.78 289.704H165.502C165.268 290.413 164.844 290.997 164.228 291.454C163.621 291.902 162.865 292.126 161.96 292.126C161.222 292.126 160.56 291.963 159.972 291.636C159.393 291.3 158.936 290.833 158.6 290.236C158.273 289.629 158.11 288.929 158.11 288.136C158.11 287.343 158.268 286.647 158.586 286.05C158.912 285.443 159.365 284.977 159.944 284.65C160.532 284.323 161.204 284.16 161.96 284.16C162.688 284.16 163.336 284.319 163.906 284.636C164.475 284.953 164.918 285.401 165.236 285.98C165.553 286.549 165.712 287.207 165.712 287.954ZM164.046 287.45C164.036 286.862 163.826 286.391 163.416 286.036C163.005 285.681 162.496 285.504 161.89 285.504C161.339 285.504 160.868 285.681 160.476 286.036C160.084 286.381 159.85 286.853 159.776 287.45H164.046ZM170.387 288.108C170.387 287.333 170.546 286.647 170.863 286.05C171.19 285.453 171.628 284.991 172.179 284.664C172.739 284.328 173.36 284.16 174.041 284.16C174.545 284.16 175.04 284.272 175.525 284.496C176.02 284.711 176.412 285 176.701 285.364V281.64H178.311V292H176.701V290.838C176.44 291.211 176.076 291.519 175.609 291.762C175.152 292.005 174.624 292.126 174.027 292.126C173.355 292.126 172.739 291.958 172.179 291.622C171.628 291.277 171.19 290.801 170.863 290.194C170.546 289.578 170.387 288.883 170.387 288.108ZM176.701 288.136C176.701 287.604 176.589 287.142 176.365 286.75C176.15 286.358 175.866 286.059 175.511 285.854C175.156 285.649 174.774 285.546 174.363 285.546C173.952 285.546 173.57 285.649 173.215 285.854C172.86 286.05 172.571 286.344 172.347 286.736C172.132 287.119 172.025 287.576 172.025 288.108C172.025 288.64 172.132 289.107 172.347 289.508C172.571 289.909 172.86 290.217 173.215 290.432C173.579 290.637 173.962 290.74 174.363 290.74C174.774 290.74 175.156 290.637 175.511 290.432C175.866 290.227 176.15 289.928 176.365 289.536C176.589 289.135 176.701 288.668 176.701 288.136ZM187.477 287.954C187.477 288.243 187.459 288.505 187.421 288.738H181.527C181.574 289.354 181.803 289.849 182.213 290.222C182.624 290.595 183.128 290.782 183.725 290.782C184.584 290.782 185.191 290.423 185.545 289.704H187.267C187.034 290.413 186.609 290.997 185.993 291.454C185.387 291.902 184.631 292.126 183.725 292.126C182.988 292.126 182.325 291.963 181.737 291.636C181.159 291.3 180.701 290.833 180.365 290.236C180.039 289.629 179.875 288.929 179.875 288.136C179.875 287.343 180.034 286.647 180.351 286.05C180.678 285.443 181.131 284.977 181.709 284.65C182.297 284.323 182.969 284.16 183.725 284.16C184.453 284.16 185.102 284.319 185.671 284.636C186.241 284.953 186.684 285.401 187.001 285.98C187.319 286.549 187.477 287.207 187.477 287.954ZM185.811 287.45C185.802 286.862 185.592 286.391 185.181 286.036C184.771 285.681 184.262 285.504 183.655 285.504C183.105 285.504 182.633 285.681 182.241 286.036C181.849 286.381 181.616 286.853 181.541 287.45H185.811ZM190.644 281.64V292H189.048V281.64H190.644ZM193.551 283.264C193.262 283.264 193.019 283.166 192.823 282.97C192.627 282.774 192.529 282.531 192.529 282.242C192.529 281.953 192.627 281.71 192.823 281.514C193.019 281.318 193.262 281.22 193.551 281.22C193.831 281.22 194.069 281.318 194.265 281.514C194.461 281.71 194.559 281.953 194.559 282.242C194.559 282.531 194.461 282.774 194.265 282.97C194.069 283.166 193.831 283.264 193.551 283.264ZM194.335 284.286V292H192.739V284.286H194.335ZM199.413 290.572L201.597 284.286H203.291L200.351 292H198.447L195.521 284.286H197.229L199.413 290.572ZM211.567 287.954C211.567 288.243 211.549 288.505 211.511 288.738H205.617C205.664 289.354 205.893 289.849 206.303 290.222C206.714 290.595 207.218 290.782 207.815 290.782C208.674 290.782 209.281 290.423 209.635 289.704H211.357C211.124 290.413 210.699 290.997 210.083 291.454C209.477 291.902 208.721 292.126 207.815 292.126C207.078 292.126 206.415 291.963 205.827 291.636C205.249 291.3 204.791 290.833 204.455 290.236C204.129 289.629 203.965 288.929 203.965 288.136C203.965 287.343 204.124 286.647 204.441 286.05C204.768 285.443 205.221 284.977 205.799 284.65C206.387 284.323 207.059 284.16 207.815 284.16C208.543 284.16 209.192 284.319 209.761 284.636C210.331 284.953 210.774 285.401 211.091 285.98C211.409 286.549 211.567 287.207 211.567 287.954ZM209.901 287.45C209.892 286.862 209.682 286.391 209.271 286.036C208.861 285.681 208.352 285.504 207.745 285.504C207.195 285.504 206.723 285.681 206.331 286.036C205.939 286.381 205.706 286.853 205.631 287.45H209.901ZM214.734 285.406C214.967 285.014 215.275 284.711 215.658 284.496C216.05 284.272 216.512 284.16 217.044 284.16V285.812H216.638C216.013 285.812 215.537 285.971 215.21 286.288C214.893 286.605 214.734 287.156 214.734 287.94V292H213.138V284.286H214.734V285.406ZM225.455 284.286L220.723 295.626H219.071L220.639 291.874L217.601 284.286H219.379L221.549 290.166L223.803 284.286H225.455ZM125.63 313L124.426 311.796C123.959 312.263 123.45 312.613 122.9 312.846C122.349 313.07 121.733 313.182 121.052 313.182C120.361 313.182 119.75 313.061 119.218 312.818C118.686 312.575 118.275 312.23 117.986 311.782C117.696 311.325 117.552 310.797 117.552 310.2C117.552 309.528 117.743 308.931 118.126 308.408C118.508 307.876 119.078 307.456 119.834 307.148C119.563 306.821 119.372 306.518 119.26 306.238C119.148 305.949 119.092 305.631 119.092 305.286C119.092 304.857 119.199 304.474 119.414 304.138C119.638 303.802 119.955 303.536 120.366 303.34C120.776 303.144 121.252 303.046 121.794 303.046C122.344 303.046 122.811 303.153 123.194 303.368C123.586 303.573 123.875 303.858 124.062 304.222C124.258 304.586 124.337 304.992 124.3 305.44H122.704C122.713 305.095 122.629 304.829 122.452 304.642C122.274 304.446 122.032 304.348 121.724 304.348C121.416 304.348 121.164 304.441 120.968 304.628C120.781 304.805 120.688 305.025 120.688 305.286C120.688 305.538 120.758 305.79 120.898 306.042C121.047 306.285 121.304 306.602 121.668 306.994L124.244 309.556L125.238 307.918H126.96L125.7 310.074L125.35 310.648L127.716 313H125.63ZM121.052 311.824C121.929 311.824 122.704 311.465 123.376 310.746L120.8 308.156C119.698 308.595 119.148 309.257 119.148 310.144C119.148 310.62 119.325 311.021 119.68 311.348C120.034 311.665 120.492 311.824 121.052 311.824ZM133.995 306.434C134.265 306.061 134.634 305.757 135.101 305.524C135.577 305.281 136.104 305.16 136.683 305.16C137.364 305.16 137.98 305.323 138.531 305.65C139.081 305.977 139.515 306.443 139.833 307.05C140.15 307.647 140.309 308.333 140.309 309.108C140.309 309.883 140.15 310.578 139.833 311.194C139.515 311.801 139.077 312.277 138.517 312.622C137.966 312.958 137.355 313.126 136.683 313.126C136.085 313.126 135.553 313.009 135.087 312.776C134.629 312.543 134.265 312.244 133.995 311.88V313H132.399V302.64H133.995V306.434ZM138.685 309.108C138.685 308.576 138.573 308.119 138.349 307.736C138.134 307.344 137.845 307.05 137.481 306.854C137.126 306.649 136.743 306.546 136.333 306.546C135.931 306.546 135.549 306.649 135.185 306.854C134.83 307.059 134.541 307.358 134.317 307.75C134.102 308.142 133.995 308.604 133.995 309.136C133.995 309.668 134.102 310.135 134.317 310.536C134.541 310.928 134.83 311.227 135.185 311.432C135.549 311.637 135.931 311.74 136.333 311.74C136.743 311.74 137.126 311.637 137.481 311.432C137.845 311.217 138.134 310.909 138.349 310.508C138.573 310.107 138.685 309.64 138.685 309.108ZM148.873 305.286V313H147.277V312.09C147.025 312.407 146.694 312.659 146.283 312.846C145.882 313.023 145.452 313.112 144.995 313.112C144.388 313.112 143.842 312.986 143.357 312.734C142.881 312.482 142.503 312.109 142.223 311.614C141.952 311.119 141.817 310.522 141.817 309.822V305.286H143.399V309.584C143.399 310.275 143.572 310.807 143.917 311.18C144.262 311.544 144.734 311.726 145.331 311.726C145.928 311.726 146.4 311.544 146.745 311.18C147.1 310.807 147.277 310.275 147.277 309.584V305.286H148.873ZM157.923 305.286L153.191 316.626H151.539L153.107 312.874L150.069 305.286H151.847L154.017 311.166L156.271 305.286H157.923ZM161.129 303.27L160.947 310.06H159.617L159.435 303.27H161.129ZM160.331 313.098C160.042 313.098 159.799 313 159.603 312.804C159.407 312.608 159.309 312.365 159.309 312.076C159.309 311.787 159.407 311.544 159.603 311.348C159.799 311.152 160.042 311.054 160.331 311.054C160.611 311.054 160.849 311.152 161.045 311.348C161.241 311.544 161.339 311.787 161.339 312.076C161.339 312.365 161.241 312.608 161.045 312.804C160.849 313 160.611 313.098 160.331 313.098Z" fill="#2E2C43"/>
<path d="M36.6271 59.098C35.9738 59.098 35.3858 58.986 34.8631 58.762C34.3404 58.5287 33.9298 58.202 33.6311 57.782C33.3324 57.362 33.1831 56.872 33.1831 56.312H34.8911C34.9284 56.732 35.0918 57.0773 35.3811 57.348C35.6798 57.6187 36.0951 57.754 36.6271 57.754C37.1778 57.754 37.6071 57.6233 37.9151 57.362C38.2231 57.0913 38.3771 56.746 38.3771 56.326C38.3771 55.9993 38.2791 55.7333 38.0831 55.528C37.8964 55.3227 37.6584 55.164 37.3691 55.052C37.0891 54.94 36.6971 54.8187 36.1931 54.688C35.5584 54.52 35.0404 54.352 34.6391 54.184C34.2471 54.0067 33.9111 53.736 33.6311 53.372C33.3511 53.008 33.2111 52.5227 33.2111 51.916C33.2111 51.356 33.3511 50.866 33.6311 50.446C33.9111 50.026 34.3031 49.704 34.8071 49.48C35.3111 49.256 35.8944 49.144 36.5571 49.144C37.4998 49.144 38.2698 49.382 38.8671 49.858C39.4738 50.3247 39.8098 50.9687 39.8751 51.79H38.1111C38.0831 51.4353 37.9151 51.132 37.6071 50.88C37.2991 50.628 36.8931 50.502 36.3891 50.502C35.9318 50.502 35.5584 50.6187 35.2691 50.852C34.9798 51.0853 34.8351 51.4213 34.8351 51.86C34.8351 52.1587 34.9238 52.406 35.1011 52.602C35.2878 52.7887 35.5211 52.938 35.8011 53.05C36.0811 53.162 36.4638 53.2833 36.9491 53.414C37.5931 53.5913 38.1158 53.7687 38.5171 53.946C38.9278 54.1233 39.2731 54.3987 39.5531 54.772C39.8424 55.136 39.9871 55.626 39.9871 56.242C39.9871 56.7367 39.8518 57.2033 39.5811 57.642C39.3198 58.0807 38.9324 58.4353 38.4191 58.706C37.9151 58.9673 37.3178 59.098 36.6271 59.098ZM43.7323 52.588V56.858C43.7323 57.1473 43.7976 57.3573 43.9283 57.488C44.0683 57.6093 44.3016 57.67 44.6283 57.67H45.6083V59H44.3483C43.6296 59 43.079 58.832 42.6963 58.496C42.3136 58.16 42.1223 57.614 42.1223 56.858V52.588H41.2123V51.286H42.1223V49.368H43.7323V51.286H45.6083V52.588H43.7323ZM54.1493 54.954C54.1493 55.2433 54.1306 55.5047 54.0933 55.738H48.1993C48.246 56.354 48.4746 56.8487 48.8853 57.222C49.296 57.5953 49.8 57.782 50.3973 57.782C51.256 57.782 51.8626 57.4227 52.2173 56.704H53.9393C53.706 57.4133 53.2813 57.9967 52.6653 58.454C52.0586 58.902 51.3026 59.126 50.3973 59.126C49.66 59.126 48.9973 58.9627 48.4093 58.636C47.8306 58.3 47.3733 57.8333 47.0373 57.236C46.7106 56.6293 46.5473 55.9293 46.5473 55.136C46.5473 54.3427 46.706 53.6473 47.0233 53.05C47.35 52.4433 47.8026 51.9767 48.3813 51.65C48.9693 51.3233 49.6413 51.16 50.3973 51.16C51.1253 51.16 51.774 51.3187 52.3433 51.636C52.9126 51.9533 53.356 52.4013 53.6733 52.98C53.9906 53.5493 54.1493 54.2073 54.1493 54.954ZM52.4833 54.45C52.474 53.862 52.264 53.3907 51.8533 53.036C51.4426 52.6813 50.934 52.504 50.3273 52.504C49.7766 52.504 49.3053 52.6813 48.9133 53.036C48.5213 53.3813 48.288 53.8527 48.2133 54.45H52.4833ZM57.3159 52.42C57.5866 52.0653 57.9553 51.7667 58.4219 51.524C58.8886 51.2813 59.4159 51.16 60.0039 51.16C60.6759 51.16 61.2873 51.328 61.8379 51.664C62.3979 51.9907 62.8366 52.4527 63.1539 53.05C63.4713 53.6473 63.6299 54.3333 63.6299 55.108C63.6299 55.8827 63.4713 56.578 63.1539 57.194C62.8366 57.8007 62.3979 58.2767 61.8379 58.622C61.2873 58.958 60.6759 59.126 60.0039 59.126C59.4159 59.126 58.8933 59.0093 58.4359 58.776C57.9786 58.5333 57.6053 58.2347 57.3159 57.88V62.668H55.7199V51.286H57.3159V52.42ZM62.0059 55.108C62.0059 54.576 61.8939 54.1187 61.6699 53.736C61.4553 53.344 61.1659 53.05 60.8019 52.854C60.4473 52.6487 60.0646 52.546 59.6539 52.546C59.2526 52.546 58.8699 52.6487 58.5059 52.854C58.1513 53.0593 57.8619 53.358 57.6379 53.75C57.4233 54.142 57.3159 54.604 57.3159 55.136C57.3159 55.668 57.4233 56.1347 57.6379 56.536C57.8619 56.928 58.1513 57.2267 58.5059 57.432C58.8699 57.6373 59.2526 57.74 59.6539 57.74C60.0646 57.74 60.4473 57.6373 60.8019 57.432C61.1659 57.2173 61.4553 56.9093 61.6699 56.508C61.8939 56.1067 62.0059 55.64 62.0059 55.108ZM75.1029 50.026L71.2109 59H69.6009L73.5349 50.194H68.3549V48.836H75.1029V50.026Z" fill="black"/>
<path d="M95.7188 180.308C90.3435 192.846 91.3743 208.072 95.7188 224.688H125.875C129.646 208.053 131.555 192.327 125.875 180.308H95.7188Z" fill="#E4E4E4"/>
<path d="M83.5557 180.308C73.7338 192.395 76.474 207.944 83.5557 224.688H95.7187C91.3324 208.869 90.6153 193.908 95.7187 180.308H83.5557Z" fill="#CACACA"/>
<path d="M120.3 181.337H115.739V185.898H120.3V181.337Z" fill="white"/>
<path d="M112.951 181.337H108.39V185.898H112.951V181.337Z" fill="white"/>
<path d="M105.602 181.337H101.041V185.898H105.602V181.337Z" fill="white"/>
<path d="M120.173 191.726H115.612V196.288H120.173V191.726Z" fill="white"/>
<path d="M112.824 191.726H108.263V196.288H112.824V191.726Z" fill="white"/>
<path d="M105.476 191.726H100.914V196.288H105.476V191.726Z" fill="white"/>
<path d="M120.046 202.116H115.485V206.677H120.046V202.116Z" fill="white"/>
<path d="M112.698 202.116H108.136V206.677H112.698V202.116Z" fill="white"/>
<path d="M105.349 202.116H100.788V206.677H105.349V202.116Z" fill="white"/>
<path d="M119.92 212.506H115.358V217.067H119.92V212.506Z" fill="white"/>
<path d="M112.571 212.506H108.01V217.067H112.571V212.506Z" fill="white"/>
<path d="M105.222 212.506H100.661V217.067H105.222V212.506Z" fill="white"/>
<path d="M119.793 222.895H115.231V224.689H119.793V222.895Z" fill="white"/>
<path d="M112.444 222.895H107.883V224.689H112.444V222.895Z" fill="white"/>
<path d="M105.095 222.895H100.534V224.689H105.095V222.895Z" fill="white"/>
<path d="M71.205 203.881V221.252C71.2048 222.03 71.4689 222.785 71.954 223.394C72.4391 224.003 73.1166 224.429 73.8754 224.602C74.0586 224.644 74.2451 224.67 74.4328 224.681C74.5009 224.687 74.5721 224.688 74.6418 224.688H87.8636C90.6394 216.559 95.743 181.671 74.8402 184.701L71.205 203.881Z" fill="#E4E4E4"/>
<path d="M81.9087 212.506H77.3474V217.067H81.9087V212.506Z" fill="white"/>
<path d="M74.56 212.506H71.205V217.067H74.56V212.506Z" fill="white"/>
<path d="M81.7822 222.895H77.2214V224.689H81.7822V222.895Z" fill="white"/>
<path d="M71.6232 222.895C71.8571 223.322 72.1787 223.695 72.5669 223.99C72.955 224.284 73.401 224.493 73.8755 224.602C74.0588 224.644 74.2452 224.67 74.4329 224.681V222.895H71.6232Z" fill="white"/>
<path d="M140.061 234.641C146.497 234.641 151.714 233.747 151.714 232.644C151.714 231.54 146.497 230.646 140.061 230.646C133.626 230.646 128.409 231.54 128.409 232.644C128.409 233.747 133.626 234.641 140.061 234.641Z" fill="#FB8C00"/>
<path d="M206.094 233.456H161.481C161.392 233.456 161.308 233.421 161.245 233.359C161.183 233.296 161.148 233.212 161.148 233.123C161.148 233.035 161.183 232.95 161.245 232.888C161.308 232.825 161.392 232.79 161.481 232.79H206.094C206.182 232.79 206.267 232.825 206.329 232.888C206.392 232.95 206.427 233.035 206.427 233.123C206.427 233.212 206.392 233.296 206.329 233.359C206.267 233.421 206.182 233.456 206.094 233.456Z" fill="#3F3D56"/>
<path d="M131.4 145.982C131.401 142.355 132.644 138.838 134.924 136.017C137.204 133.195 140.381 131.241 143.928 130.478C141.615 129.982 139.222 130.01 136.921 130.558C134.621 131.107 132.473 132.163 130.633 133.649C128.794 135.136 127.311 137.015 126.291 139.149C125.272 141.283 124.743 143.618 124.743 145.982C124.743 148.347 125.272 150.682 126.291 152.816C127.311 154.95 128.794 156.829 130.633 158.315C132.473 159.802 134.621 160.858 136.921 161.407C139.222 161.955 141.615 161.982 143.928 161.486C140.381 160.724 137.204 158.769 134.924 155.948C132.644 153.127 131.401 149.61 131.4 145.982Z" fill="#FB8C00"/>
<path d="M140.962 162.238C137.76 162.238 134.629 161.288 131.967 159.51C129.305 157.731 127.229 155.202 126.004 152.244C124.779 149.285 124.458 146.03 125.083 142.89C125.707 139.749 127.249 136.864 129.513 134.6C131.778 132.336 134.662 130.794 137.803 130.169C140.943 129.545 144.199 129.865 147.157 131.091C150.115 132.316 152.644 134.391 154.423 137.053C156.202 139.716 157.151 142.846 157.151 146.048C157.146 150.34 155.439 154.455 152.404 157.491C149.369 160.526 145.254 162.233 140.962 162.238ZM140.962 130.524C137.891 130.524 134.89 131.434 132.337 133.14C129.784 134.846 127.794 137.27 126.619 140.107C125.444 142.944 125.137 146.065 125.736 149.076C126.335 152.088 127.813 154.854 129.984 157.025C132.155 159.196 134.921 160.675 137.933 161.274C140.944 161.873 144.066 161.565 146.902 160.39C149.739 159.215 152.163 157.226 153.869 154.673C155.575 152.12 156.485 149.118 156.485 146.048C156.481 141.932 154.844 137.986 151.934 135.076C149.023 132.166 145.077 130.529 140.962 130.524V130.524Z" fill="#3F3D56"/>
<path d="M114.143 145.983C114.144 137.332 117.308 128.979 123.039 122.499C128.77 116.019 136.673 111.859 145.26 110.801C140.277 110.191 135.222 110.645 130.428 112.133C125.635 113.622 121.212 116.112 117.452 119.437C113.692 122.763 110.682 126.849 108.619 131.425C106.556 136.001 105.488 140.963 105.487 145.983C105.487 161.882 128.869 206.718 137.651 222.997C137.97 223.59 138.443 224.085 139.021 224.43C139.598 224.775 140.259 224.957 140.931 224.957C141.604 224.957 142.264 224.775 142.842 224.43C143.42 224.085 143.893 223.59 144.212 222.997C144.541 222.388 144.892 221.734 145.26 221.048C135.805 203.398 114.143 161.287 114.143 145.983Z" fill="#FB8C00"/>
<path d="M140.961 225.355C140.227 225.361 139.506 225.165 138.876 224.789C138.245 224.412 137.731 223.87 137.388 223.221C127.705 205.272 105.184 161.821 105.184 146.048C105.184 136.559 108.953 127.459 115.663 120.75C122.373 114.04 131.473 110.271 140.962 110.271C150.451 110.271 159.551 114.04 166.26 120.75C172.97 127.459 176.74 136.559 176.74 146.048C176.74 161.823 154.218 205.272 144.535 223.221C144.192 223.87 143.678 224.412 143.047 224.789C142.417 225.165 141.695 225.361 140.961 225.355ZM140.962 110.936C131.653 110.947 122.728 114.65 116.145 121.232C109.563 127.815 105.86 136.739 105.85 146.048C105.85 161.67 128.315 205 137.974 222.905C138.264 223.444 138.696 223.895 139.222 224.209C139.748 224.523 140.349 224.689 140.962 224.689C141.574 224.689 142.175 224.523 142.701 224.209C143.227 223.895 143.659 223.444 143.949 222.905C153.608 205.001 176.074 161.671 176.074 146.048C176.063 136.739 172.36 127.815 165.778 121.232C159.196 114.65 150.271 110.947 140.962 110.936Z" fill="#3F3D56"/>
<rect x="40.5" y="86.5" width="200.793" height="146.704" stroke="#C4C4C4" stroke-dasharray="10 10"/>
</svg>
