<svg width="401" height="530" viewBox="0 0 401 530" fill="none" xmlns="http://www.w3.org/2000/svg">
<g filter="url(#filter0_d_1165_8)">
<path d="M283.296 90.885H97.8423C93.9955 90.885 90.877 98.7326 90.877 108.413V402.008C90.877 411.689 93.9955 419.536 97.8423 419.536H283.296C287.143 419.536 290.261 411.689 290.261 402.008V108.413C290.261 98.7326 287.143 90.885 283.296 90.885Z" fill="white"/>
</g>
<rect x="73" y="77" width="272.127" height="343" rx="24" fill="white"/>
<path d="M114.616 343.27L110.962 353H109.114L105.446 343.27H107.154L110.038 351.362L112.936 343.27H114.616ZM116.762 344.264C116.473 344.264 116.23 344.166 116.034 343.97C115.838 343.774 115.74 343.531 115.74 343.242C115.74 342.953 115.838 342.71 116.034 342.514C116.23 342.318 116.473 342.22 116.762 342.22C117.042 342.22 117.28 342.318 117.476 342.514C117.672 342.71 117.77 342.953 117.77 343.242C117.77 343.531 117.672 343.774 117.476 343.97C117.28 344.166 117.042 344.264 116.762 344.264ZM117.546 345.286V353H115.95V345.286H117.546ZM122.442 353.126C121.835 353.126 121.289 353.019 120.804 352.804C120.328 352.58 119.95 352.281 119.67 351.908C119.39 351.525 119.24 351.101 119.222 350.634H120.874C120.902 350.961 121.056 351.236 121.336 351.46C121.625 351.675 121.984 351.782 122.414 351.782C122.862 351.782 123.207 351.698 123.45 351.53C123.702 351.353 123.828 351.129 123.828 350.858C123.828 350.569 123.688 350.354 123.408 350.214C123.137 350.074 122.703 349.92 122.106 349.752C121.527 349.593 121.056 349.439 120.692 349.29C120.328 349.141 120.01 348.912 119.74 348.604C119.478 348.296 119.348 347.89 119.348 347.386C119.348 346.975 119.469 346.602 119.712 346.266C119.954 345.921 120.3 345.65 120.748 345.454C121.205 345.258 121.728 345.16 122.316 345.16C123.193 345.16 123.898 345.384 124.43 345.832C124.971 346.271 125.26 346.873 125.298 347.638H123.702C123.674 347.293 123.534 347.017 123.282 346.812C123.03 346.607 122.689 346.504 122.26 346.504C121.84 346.504 121.518 346.583 121.294 346.742C121.07 346.901 120.958 347.111 120.958 347.372C120.958 347.577 121.032 347.75 121.182 347.89C121.331 348.03 121.513 348.142 121.728 348.226C121.942 348.301 122.26 348.399 122.68 348.52C123.24 348.669 123.697 348.823 124.052 348.982C124.416 349.131 124.728 349.355 124.99 349.654C125.251 349.953 125.386 350.349 125.396 350.844C125.396 351.283 125.274 351.675 125.032 352.02C124.789 352.365 124.444 352.636 123.996 352.832C123.557 353.028 123.039 353.126 122.442 353.126ZM127.932 344.264C127.643 344.264 127.4 344.166 127.204 343.97C127.008 343.774 126.91 343.531 126.91 343.242C126.91 342.953 127.008 342.71 127.204 342.514C127.4 342.318 127.643 342.22 127.932 342.22C128.212 342.22 128.45 342.318 128.646 342.514C128.842 342.71 128.94 342.953 128.94 343.242C128.94 343.531 128.842 343.774 128.646 343.97C128.45 344.166 128.212 344.264 127.932 344.264ZM128.716 345.286V353H127.12V345.286H128.716ZM132.674 346.588V350.858C132.674 351.147 132.739 351.357 132.87 351.488C133.01 351.609 133.243 351.67 133.57 351.67H134.55V353H133.29C132.571 353 132.02 352.832 131.638 352.496C131.255 352.16 131.064 351.614 131.064 350.858V346.588H130.154V345.286H131.064V343.368H132.674V345.286H134.55V346.588H132.674ZM141.519 346.588V350.858C141.519 351.147 141.585 351.357 141.715 351.488C141.855 351.609 142.089 351.67 142.415 351.67H143.395V353H142.135C141.417 353 140.866 352.832 140.483 352.496C140.101 352.16 139.909 351.614 139.909 350.858V346.588H138.999V345.286H139.909V343.368H141.519V345.286H143.395V346.588H141.519ZM148.856 345.16C149.444 345.16 149.967 345.286 150.424 345.538C150.891 345.79 151.255 346.163 151.516 346.658C151.787 347.153 151.922 347.75 151.922 348.45V353H150.34V348.688C150.34 347.997 150.168 347.47 149.822 347.106C149.477 346.733 149.006 346.546 148.408 346.546C147.811 346.546 147.335 346.733 146.98 347.106C146.635 347.47 146.462 347.997 146.462 348.688V353H144.866V342.64H146.462V346.182C146.733 345.855 147.074 345.603 147.484 345.426C147.904 345.249 148.362 345.16 148.856 345.16ZM161.028 348.954C161.028 349.243 161.01 349.505 160.972 349.738H155.078C155.125 350.354 155.354 350.849 155.764 351.222C156.175 351.595 156.679 351.782 157.276 351.782C158.135 351.782 158.742 351.423 159.096 350.704H160.818C160.585 351.413 160.16 351.997 159.544 352.454C158.938 352.902 158.182 353.126 157.276 353.126C156.539 353.126 155.876 352.963 155.288 352.636C154.71 352.3 154.252 351.833 153.916 351.236C153.59 350.629 153.426 349.929 153.426 349.136C153.426 348.343 153.585 347.647 153.902 347.05C154.229 346.443 154.682 345.977 155.26 345.65C155.848 345.323 156.52 345.16 157.276 345.16C158.004 345.16 158.653 345.319 159.222 345.636C159.792 345.953 160.235 346.401 160.552 346.98C160.87 347.549 161.028 348.207 161.028 348.954ZM159.362 348.45C159.353 347.862 159.143 347.391 158.732 347.036C158.322 346.681 157.813 346.504 157.206 346.504C156.656 346.504 156.184 346.681 155.792 347.036C155.4 347.381 155.167 347.853 155.092 348.45H159.362ZM169.036 353.126C168.429 353.126 167.883 353.019 167.398 352.804C166.922 352.58 166.544 352.281 166.264 351.908C165.984 351.525 165.834 351.101 165.816 350.634H167.468C167.496 350.961 167.65 351.236 167.93 351.46C168.219 351.675 168.578 351.782 169.008 351.782C169.456 351.782 169.801 351.698 170.044 351.53C170.296 351.353 170.422 351.129 170.422 350.858C170.422 350.569 170.282 350.354 170.002 350.214C169.731 350.074 169.297 349.92 168.7 349.752C168.121 349.593 167.65 349.439 167.286 349.29C166.922 349.141 166.604 348.912 166.334 348.604C166.072 348.296 165.942 347.89 165.942 347.386C165.942 346.975 166.063 346.602 166.306 346.266C166.548 345.921 166.894 345.65 167.342 345.454C167.799 345.258 168.322 345.16 168.91 345.16C169.787 345.16 170.492 345.384 171.024 345.832C171.565 346.271 171.854 346.873 171.892 347.638H170.296C170.268 347.293 170.128 347.017 169.876 346.812C169.624 346.607 169.283 346.504 168.854 346.504C168.434 346.504 168.112 346.583 167.888 346.742C167.664 346.901 167.552 347.111 167.552 347.372C167.552 347.577 167.626 347.75 167.776 347.89C167.925 348.03 168.107 348.142 168.322 348.226C168.536 348.301 168.854 348.399 169.274 348.52C169.834 348.669 170.291 348.823 170.646 348.982C171.01 349.131 171.322 349.355 171.584 349.654C171.845 349.953 171.98 350.349 171.99 350.844C171.99 351.283 171.868 351.675 171.626 352.02C171.383 352.365 171.038 352.636 170.59 352.832C170.151 353.028 169.633 353.126 169.036 353.126ZM177.704 345.16C178.292 345.16 178.815 345.286 179.272 345.538C179.739 345.79 180.103 346.163 180.364 346.658C180.635 347.153 180.77 347.75 180.77 348.45V353H179.188V348.688C179.188 347.997 179.015 347.47 178.67 347.106C178.325 346.733 177.853 346.546 177.256 346.546C176.659 346.546 176.183 346.733 175.828 347.106C175.483 347.47 175.31 347.997 175.31 348.688V353H173.714V342.64H175.31V346.182C175.581 345.855 175.921 345.603 176.332 345.426C176.752 345.249 177.209 345.16 177.704 345.16ZM186.152 353.126C185.424 353.126 184.766 352.963 184.178 352.636C183.59 352.3 183.128 351.833 182.792 351.236C182.456 350.629 182.288 349.929 182.288 349.136C182.288 348.352 182.461 347.657 182.806 347.05C183.151 346.443 183.623 345.977 184.22 345.65C184.817 345.323 185.485 345.16 186.222 345.16C186.959 345.16 187.627 345.323 188.224 345.65C188.821 345.977 189.293 346.443 189.638 347.05C189.983 347.657 190.156 348.352 190.156 349.136C190.156 349.92 189.979 350.615 189.624 351.222C189.269 351.829 188.784 352.3 188.168 352.636C187.561 352.963 186.889 353.126 186.152 353.126ZM186.152 351.74C186.563 351.74 186.945 351.642 187.3 351.446C187.664 351.25 187.958 350.956 188.182 350.564C188.406 350.172 188.518 349.696 188.518 349.136C188.518 348.576 188.411 348.105 188.196 347.722C187.981 347.33 187.697 347.036 187.342 346.84C186.987 346.644 186.605 346.546 186.194 346.546C185.783 346.546 185.401 346.644 185.046 346.84C184.701 347.036 184.425 347.33 184.22 347.722C184.015 348.105 183.912 348.576 183.912 349.136C183.912 349.967 184.122 350.611 184.542 351.068C184.971 351.516 185.508 351.74 186.152 351.74ZM193.33 346.42C193.6 346.065 193.969 345.767 194.436 345.524C194.902 345.281 195.43 345.16 196.018 345.16C196.69 345.16 197.301 345.328 197.852 345.664C198.412 345.991 198.85 346.453 199.168 347.05C199.485 347.647 199.644 348.333 199.644 349.108C199.644 349.883 199.485 350.578 199.168 351.194C198.85 351.801 198.412 352.277 197.852 352.622C197.301 352.958 196.69 353.126 196.018 353.126C195.43 353.126 194.907 353.009 194.45 352.776C193.992 352.533 193.619 352.235 193.33 351.88V356.668H191.734V345.286H193.33V346.42ZM198.02 349.108C198.02 348.576 197.908 348.119 197.684 347.736C197.469 347.344 197.18 347.05 196.816 346.854C196.461 346.649 196.078 346.546 195.668 346.546C195.266 346.546 194.884 346.649 194.52 346.854C194.165 347.059 193.876 347.358 193.652 347.75C193.437 348.142 193.33 348.604 193.33 349.136C193.33 349.668 193.437 350.135 193.652 350.536C193.876 350.928 194.165 351.227 194.52 351.432C194.884 351.637 195.266 351.74 195.668 351.74C196.078 351.74 196.461 351.637 196.816 351.432C197.18 351.217 197.469 350.909 197.684 350.508C197.908 350.107 198.02 349.64 198.02 349.108ZM208.205 353.126C207.477 353.126 206.819 352.963 206.231 352.636C205.643 352.3 205.181 351.833 204.845 351.236C204.509 350.629 204.341 349.929 204.341 349.136C204.341 348.352 204.513 347.657 204.859 347.05C205.204 346.443 205.675 345.977 206.273 345.65C206.87 345.323 207.537 345.16 208.275 345.16C209.012 345.16 209.679 345.323 210.277 345.65C210.874 345.977 211.345 346.443 211.691 347.05C212.036 347.657 212.209 348.352 212.209 349.136C212.209 349.92 212.031 350.615 211.677 351.222C211.322 351.829 210.837 352.3 210.221 352.636C209.614 352.963 208.942 353.126 208.205 353.126ZM208.205 351.74C208.615 351.74 208.998 351.642 209.353 351.446C209.717 351.25 210.011 350.956 210.235 350.564C210.459 350.172 210.571 349.696 210.571 349.136C210.571 348.576 210.463 348.105 210.249 347.722C210.034 347.33 209.749 347.036 209.395 346.84C209.04 346.644 208.657 346.546 208.247 346.546C207.836 346.546 207.453 346.644 207.099 346.84C206.753 347.036 206.478 347.33 206.273 347.722C206.067 348.105 205.965 348.576 205.965 349.136C205.965 349.967 206.175 350.611 206.595 351.068C207.024 351.516 207.561 351.74 208.205 351.74ZM215.382 346.406C215.616 346.014 215.924 345.711 216.306 345.496C216.698 345.272 217.16 345.16 217.692 345.16V346.812H217.286C216.661 346.812 216.185 346.971 215.858 347.288C215.541 347.605 215.382 348.156 215.382 348.94V353H213.786V345.286H215.382V346.406ZM224.392 346.406C224.625 346.014 224.933 345.711 225.316 345.496C225.708 345.272 226.17 345.16 226.702 345.16V346.812H226.296C225.671 346.812 225.195 346.971 224.868 347.288C224.551 347.605 224.392 348.156 224.392 348.94V353H222.796V345.286H224.392V346.406ZM235.239 348.954C235.239 349.243 235.22 349.505 235.183 349.738H229.289C229.336 350.354 229.564 350.849 229.975 351.222C230.386 351.595 230.89 351.782 231.487 351.782C232.346 351.782 232.952 351.423 233.307 350.704H235.029C234.796 351.413 234.371 351.997 233.755 352.454C233.148 352.902 232.392 353.126 231.487 353.126C230.75 353.126 230.087 352.963 229.499 352.636C228.92 352.3 228.463 351.833 228.127 351.236C227.8 350.629 227.637 349.929 227.637 349.136C227.637 348.343 227.796 347.647 228.113 347.05C228.44 346.443 228.892 345.977 229.471 345.65C230.059 345.323 230.731 345.16 231.487 345.16C232.215 345.16 232.864 345.319 233.433 345.636C234.002 345.953 234.446 346.401 234.763 346.98C235.08 347.549 235.239 348.207 235.239 348.954ZM233.573 348.45C233.564 347.862 233.354 347.391 232.943 347.036C232.532 346.681 232.024 346.504 231.417 346.504C230.866 346.504 230.395 346.681 230.003 347.036C229.611 347.381 229.378 347.853 229.303 348.45H233.573ZM236.278 349.108C236.278 348.333 236.436 347.647 236.754 347.05C237.08 346.453 237.519 345.991 238.07 345.664C238.63 345.328 239.25 345.16 239.932 345.16C240.529 345.16 241.056 345.281 241.514 345.524C241.98 345.767 242.34 346.061 242.592 346.406V345.286H244.202V356.668H242.592V351.88C242.34 352.225 241.976 352.519 241.5 352.762C241.024 353.005 240.482 353.126 239.876 353.126C239.213 353.126 238.606 352.958 238.056 352.622C237.514 352.277 237.08 351.801 236.754 351.194C236.436 350.578 236.278 349.883 236.278 349.108ZM242.592 349.136C242.592 348.604 242.48 348.142 242.256 347.75C242.041 347.358 241.756 347.059 241.402 346.854C241.047 346.649 240.664 346.546 240.254 346.546C239.843 346.546 239.46 346.649 239.106 346.854C238.751 347.05 238.462 347.344 238.238 347.736C238.023 348.119 237.916 348.576 237.916 349.108C237.916 349.64 238.023 350.107 238.238 350.508C238.462 350.909 238.751 351.217 239.106 351.432C239.47 351.637 239.852 351.74 240.254 351.74C240.664 351.74 241.047 351.637 241.402 351.432C241.756 351.227 242.041 350.928 242.256 350.536C242.48 350.135 242.592 349.668 242.592 349.136ZM253.284 345.286V353H251.688V352.09C251.436 352.407 251.105 352.659 250.694 352.846C250.293 353.023 249.863 353.112 249.406 353.112C248.799 353.112 248.253 352.986 247.768 352.734C247.292 352.482 246.914 352.109 246.634 351.614C246.363 351.119 246.228 350.522 246.228 349.822V345.286H247.81V349.584C247.81 350.275 247.983 350.807 248.328 351.18C248.673 351.544 249.145 351.726 249.742 351.726C250.339 351.726 250.811 351.544 251.156 351.18C251.511 350.807 251.688 350.275 251.688 349.584V345.286H253.284ZM262.46 348.954C262.46 349.243 262.441 349.505 262.404 349.738H256.51C256.557 350.354 256.785 350.849 257.196 351.222C257.607 351.595 258.111 351.782 258.708 351.782C259.567 351.782 260.173 351.423 260.528 350.704H262.25C262.017 351.413 261.592 351.997 260.976 352.454C260.369 352.902 259.613 353.126 258.708 353.126C257.971 353.126 257.308 352.963 256.72 352.636C256.141 352.3 255.684 351.833 255.348 351.236C255.021 350.629 254.858 349.929 254.858 349.136C254.858 348.343 255.017 347.647 255.334 347.05C255.661 346.443 256.113 345.977 256.692 345.65C257.28 345.323 257.952 345.16 258.708 345.16C259.436 345.16 260.085 345.319 260.654 345.636C261.223 345.953 261.667 346.401 261.984 346.98C262.301 347.549 262.46 348.207 262.46 348.954ZM260.794 348.45C260.785 347.862 260.575 347.391 260.164 347.036C259.753 346.681 259.245 346.504 258.638 346.504C258.087 346.504 257.616 346.681 257.224 347.036C256.832 347.381 256.599 347.853 256.524 348.45H260.794ZM266.83 353.126C266.224 353.126 265.678 353.019 265.192 352.804C264.716 352.58 264.338 352.281 264.058 351.908C263.778 351.525 263.629 351.101 263.61 350.634H265.262C265.29 350.961 265.444 351.236 265.724 351.46C266.014 351.675 266.373 351.782 266.802 351.782C267.25 351.782 267.596 351.698 267.838 351.53C268.09 351.353 268.216 351.129 268.216 350.858C268.216 350.569 268.076 350.354 267.796 350.214C267.526 350.074 267.092 349.92 266.494 349.752C265.916 349.593 265.444 349.439 265.08 349.29C264.716 349.141 264.399 348.912 264.128 348.604C263.867 348.296 263.736 347.89 263.736 347.386C263.736 346.975 263.858 346.602 264.1 346.266C264.343 345.921 264.688 345.65 265.136 345.454C265.594 345.258 266.116 345.16 266.704 345.16C267.582 345.16 268.286 345.384 268.818 345.832C269.36 346.271 269.649 346.873 269.686 347.638H268.09C268.062 347.293 267.922 347.017 267.67 346.812C267.418 346.607 267.078 346.504 266.648 346.504C266.228 346.504 265.906 346.583 265.682 346.742C265.458 346.901 265.346 347.111 265.346 347.372C265.346 347.577 265.421 347.75 265.57 347.89C265.72 348.03 265.902 348.142 266.116 348.226C266.331 348.301 266.648 348.399 267.068 348.52C267.628 348.669 268.086 348.823 268.44 348.982C268.804 349.131 269.117 349.355 269.378 349.654C269.64 349.953 269.775 350.349 269.784 350.844C269.784 351.283 269.663 351.675 269.42 352.02C269.178 352.365 268.832 352.636 268.384 352.832C267.946 353.028 267.428 353.126 266.83 353.126ZM273.371 346.588V350.858C273.371 351.147 273.436 351.357 273.567 351.488C273.707 351.609 273.94 351.67 274.267 351.67H275.247V353H273.987C273.268 353 272.718 352.832 272.335 352.496C271.952 352.16 271.761 351.614 271.761 350.858V346.588H270.851V345.286H271.761V343.368H273.371V345.286H275.247V346.588H273.371ZM283.155 353.126C282.548 353.126 282.002 353.019 281.517 352.804C281.041 352.58 280.663 352.281 280.383 351.908C280.103 351.525 279.953 351.101 279.935 350.634H281.587C281.615 350.961 281.769 351.236 282.049 351.46C282.338 351.675 282.697 351.782 283.127 351.782C283.575 351.782 283.92 351.698 284.163 351.53C284.415 351.353 284.541 351.129 284.541 350.858C284.541 350.569 284.401 350.354 284.121 350.214C283.85 350.074 283.416 349.92 282.819 349.752C282.24 349.593 281.769 349.439 281.405 349.29C281.041 349.141 280.723 348.912 280.453 348.604C280.191 348.296 280.061 347.89 280.061 347.386C280.061 346.975 280.182 346.602 280.425 346.266C280.667 345.921 281.013 345.65 281.461 345.454C281.918 345.258 282.441 345.16 283.029 345.16C283.906 345.16 284.611 345.384 285.143 345.832C285.684 346.271 285.973 346.873 286.011 347.638H284.415C284.387 347.293 284.247 347.017 283.995 346.812C283.743 346.607 283.402 346.504 282.973 346.504C282.553 346.504 282.231 346.583 282.007 346.742C281.783 346.901 281.671 347.111 281.671 347.372C281.671 347.577 281.745 347.75 281.895 347.89C282.044 348.03 282.226 348.142 282.441 348.226C282.655 348.301 282.973 348.399 283.393 348.52C283.953 348.669 284.41 348.823 284.765 348.982C285.129 349.131 285.441 349.355 285.703 349.654C285.964 349.953 286.099 350.349 286.109 350.844C286.109 351.283 285.987 351.675 285.745 352.02C285.502 352.365 285.157 352.636 284.709 352.832C284.27 353.028 283.752 353.126 283.155 353.126ZM294.903 348.954C294.903 349.243 294.885 349.505 294.847 349.738H288.953C289 350.354 289.229 350.849 289.639 351.222C290.05 351.595 290.554 351.782 291.151 351.782C292.01 351.782 292.617 351.423 292.971 350.704H294.693C294.46 351.413 294.035 351.997 293.419 352.454C292.813 352.902 292.057 353.126 291.151 353.126C290.414 353.126 289.751 352.963 289.163 352.636C288.585 352.3 288.127 351.833 287.791 351.236C287.465 350.629 287.301 349.929 287.301 349.136C287.301 348.343 287.46 347.647 287.777 347.05C288.104 346.443 288.557 345.977 289.135 345.65C289.723 345.323 290.395 345.16 291.151 345.16C291.879 345.16 292.528 345.319 293.097 345.636C293.667 345.953 294.11 346.401 294.427 346.98C294.745 347.549 294.903 348.207 294.903 348.954ZM293.237 348.45C293.228 347.862 293.018 347.391 292.607 347.036C292.197 346.681 291.688 346.504 291.081 346.504C290.531 346.504 290.059 346.681 289.667 347.036C289.275 347.381 289.042 347.853 288.967 348.45H293.237ZM298.07 342.64V353H296.474V342.64H298.07ZM301.761 342.64V353H300.165V342.64H301.761ZM310.927 348.954C310.927 349.243 310.908 349.505 310.871 349.738H304.977C305.023 350.354 305.252 350.849 305.663 351.222C306.073 351.595 306.577 351.782 307.175 351.782C308.033 351.782 308.64 351.423 308.995 350.704H310.717C310.483 351.413 310.059 351.997 309.443 352.454C308.836 352.902 308.08 353.126 307.175 353.126C306.437 353.126 305.775 352.963 305.187 352.636C304.608 352.3 304.151 351.833 303.815 351.236C303.488 350.629 303.325 349.929 303.325 349.136C303.325 348.343 303.483 347.647 303.801 347.05C304.127 346.443 304.58 345.977 305.159 345.65C305.747 345.323 306.419 345.16 307.175 345.16C307.903 345.16 308.551 345.319 309.121 345.636C309.69 345.953 310.133 346.401 310.451 346.98C310.768 347.549 310.927 348.207 310.927 348.954ZM309.261 348.45C309.251 347.862 309.041 347.391 308.631 347.036C308.22 346.681 307.711 346.504 307.105 346.504C306.554 346.504 306.083 346.681 305.691 347.036C305.299 347.381 305.065 347.853 304.991 348.45H309.261ZM314.093 346.406C314.327 346.014 314.635 345.711 315.017 345.496C315.409 345.272 315.871 345.16 316.403 345.16V346.812H315.997C315.372 346.812 314.896 346.971 314.569 347.288C314.252 347.605 314.093 348.156 314.093 348.94V353H312.497V345.286H314.093V346.406ZM131.976 367.588V371.858C131.976 372.147 132.042 372.357 132.172 372.488C132.312 372.609 132.546 372.67 132.872 372.67H133.852V374H132.592C131.874 374 131.323 373.832 130.94 373.496C130.558 373.16 130.366 372.614 130.366 371.858V367.588H129.456V366.286H130.366V364.368H131.976V366.286H133.852V367.588H131.976ZM138.669 374.126C137.941 374.126 137.283 373.963 136.695 373.636C136.107 373.3 135.645 372.833 135.309 372.236C134.973 371.629 134.805 370.929 134.805 370.136C134.805 369.352 134.978 368.657 135.323 368.05C135.669 367.443 136.14 366.977 136.737 366.65C137.335 366.323 138.002 366.16 138.739 366.16C139.477 366.16 140.144 366.323 140.741 366.65C141.339 366.977 141.81 367.443 142.155 368.05C142.501 368.657 142.673 369.352 142.673 370.136C142.673 370.92 142.496 371.615 142.141 372.222C141.787 372.829 141.301 373.3 140.685 373.636C140.079 373.963 139.407 374.126 138.669 374.126ZM138.669 372.74C139.08 372.74 139.463 372.642 139.817 372.446C140.181 372.25 140.475 371.956 140.699 371.564C140.923 371.172 141.035 370.696 141.035 370.136C141.035 369.576 140.928 369.105 140.713 368.722C140.499 368.33 140.214 368.036 139.859 367.84C139.505 367.644 139.122 367.546 138.711 367.546C138.301 367.546 137.918 367.644 137.563 367.84C137.218 368.036 136.943 368.33 136.737 368.722C136.532 369.105 136.429 369.576 136.429 370.136C136.429 370.967 136.639 371.611 137.059 372.068C137.489 372.516 138.025 372.74 138.669 372.74ZM151.878 366.16C152.466 366.16 152.989 366.286 153.446 366.538C153.913 366.79 154.277 367.163 154.538 367.658C154.809 368.153 154.944 368.75 154.944 369.45V374H153.362V369.688C153.362 368.997 153.189 368.47 152.844 368.106C152.499 367.733 152.027 367.546 151.43 367.546C150.833 367.546 150.357 367.733 150.002 368.106C149.657 368.47 149.484 368.997 149.484 369.688V374H147.888V363.64H149.484V367.182C149.755 366.855 150.095 366.603 150.506 366.426C150.926 366.249 151.383 366.16 151.878 366.16ZM160.326 374.126C159.598 374.126 158.94 373.963 158.352 373.636C157.764 373.3 157.302 372.833 156.966 372.236C156.63 371.629 156.462 370.929 156.462 370.136C156.462 369.352 156.634 368.657 156.98 368.05C157.325 367.443 157.796 366.977 158.394 366.65C158.991 366.323 159.658 366.16 160.396 366.16C161.133 366.16 161.8 366.323 162.398 366.65C162.995 366.977 163.466 367.443 163.812 368.05C164.157 368.657 164.33 369.352 164.33 370.136C164.33 370.92 164.152 371.615 163.798 372.222C163.443 372.829 162.958 373.3 162.342 373.636C161.735 373.963 161.063 374.126 160.326 374.126ZM160.326 372.74C160.736 372.74 161.119 372.642 161.474 372.446C161.838 372.25 162.132 371.956 162.356 371.564C162.58 371.172 162.692 370.696 162.692 370.136C162.692 369.576 162.584 369.105 162.37 368.722C162.155 368.33 161.87 368.036 161.516 367.84C161.161 367.644 160.778 367.546 160.368 367.546C159.957 367.546 159.574 367.644 159.22 367.84C158.874 368.036 158.599 368.33 158.394 368.722C158.188 369.105 158.086 369.576 158.086 370.136C158.086 370.967 158.296 371.611 158.716 372.068C159.145 372.516 159.682 372.74 160.326 372.74ZM175.245 366.16C175.852 366.16 176.393 366.286 176.869 366.538C177.355 366.79 177.733 367.163 178.003 367.658C178.283 368.153 178.423 368.75 178.423 369.45V374H176.841V369.688C176.841 368.997 176.669 368.47 176.323 368.106C175.978 367.733 175.507 367.546 174.909 367.546C174.312 367.546 173.836 367.733 173.481 368.106C173.136 368.47 172.963 368.997 172.963 369.688V374H171.381V369.688C171.381 368.997 171.209 368.47 170.863 368.106C170.518 367.733 170.047 367.546 169.449 367.546C168.852 367.546 168.376 367.733 168.021 368.106C167.676 368.47 167.503 368.997 167.503 369.688V374H165.907V366.286H167.503V367.168C167.765 366.851 168.096 366.603 168.497 366.426C168.899 366.249 169.328 366.16 169.785 366.16C170.401 366.16 170.952 366.291 171.437 366.552C171.923 366.813 172.296 367.191 172.557 367.686C172.791 367.219 173.155 366.851 173.649 366.58C174.144 366.3 174.676 366.16 175.245 366.16ZM187.524 369.954C187.524 370.243 187.506 370.505 187.468 370.738H181.574C181.621 371.354 181.85 371.849 182.26 372.222C182.671 372.595 183.175 372.782 183.772 372.782C184.631 372.782 185.238 372.423 185.592 371.704H187.314C187.081 372.413 186.656 372.997 186.04 373.454C185.434 373.902 184.678 374.126 183.772 374.126C183.035 374.126 182.372 373.963 181.784 373.636C181.206 373.3 180.748 372.833 180.412 372.236C180.086 371.629 179.922 370.929 179.922 370.136C179.922 369.343 180.081 368.647 180.398 368.05C180.725 367.443 181.178 366.977 181.756 366.65C182.344 366.323 183.016 366.16 183.772 366.16C184.5 366.16 185.149 366.319 185.718 366.636C186.288 366.953 186.731 367.401 187.048 367.98C187.366 368.549 187.524 369.207 187.524 369.954ZM185.858 369.45C185.849 368.862 185.639 368.391 185.228 368.036C184.818 367.681 184.309 367.504 183.702 367.504C183.152 367.504 182.68 367.681 182.288 368.036C181.896 368.381 181.663 368.853 181.588 369.45H185.858ZM192.2 370.108C192.2 369.333 192.358 368.647 192.676 368.05C193.002 367.453 193.441 366.991 193.992 366.664C194.552 366.328 195.172 366.16 195.854 366.16C196.358 366.16 196.852 366.272 197.338 366.496C197.832 366.711 198.224 367 198.514 367.364V363.64H200.124V374H198.514V372.838C198.252 373.211 197.888 373.519 197.422 373.762C196.964 374.005 196.437 374.126 195.84 374.126C195.168 374.126 194.552 373.958 193.992 373.622C193.441 373.277 193.002 372.801 192.676 372.194C192.358 371.578 192.2 370.883 192.2 370.108ZM198.514 370.136C198.514 369.604 198.402 369.142 198.178 368.75C197.963 368.358 197.678 368.059 197.324 367.854C196.969 367.649 196.586 367.546 196.176 367.546C195.765 367.546 195.382 367.649 195.028 367.854C194.673 368.05 194.384 368.344 194.16 368.736C193.945 369.119 193.838 369.576 193.838 370.108C193.838 370.64 193.945 371.107 194.16 371.508C194.384 371.909 194.673 372.217 195.028 372.432C195.392 372.637 195.774 372.74 196.176 372.74C196.586 372.74 196.969 372.637 197.324 372.432C197.678 372.227 197.963 371.928 198.178 371.536C198.402 371.135 198.514 370.668 198.514 370.136ZM209.29 369.954C209.29 370.243 209.271 370.505 209.234 370.738H203.34C203.387 371.354 203.615 371.849 204.026 372.222C204.437 372.595 204.941 372.782 205.538 372.782C206.397 372.782 207.003 372.423 207.358 371.704H209.08C208.847 372.413 208.422 372.997 207.806 373.454C207.199 373.902 206.443 374.126 205.538 374.126C204.801 374.126 204.138 373.963 203.55 373.636C202.971 373.3 202.514 372.833 202.178 372.236C201.851 371.629 201.688 370.929 201.688 370.136C201.688 369.343 201.847 368.647 202.164 368.05C202.491 367.443 202.943 366.977 203.522 366.65C204.11 366.323 204.782 366.16 205.538 366.16C206.266 366.16 206.915 366.319 207.484 366.636C208.053 366.953 208.497 367.401 208.814 367.98C209.131 368.549 209.29 369.207 209.29 369.954ZM207.624 369.45C207.615 368.862 207.405 368.391 206.994 368.036C206.583 367.681 206.075 367.504 205.468 367.504C204.917 367.504 204.446 367.681 204.054 368.036C203.662 368.381 203.429 368.853 203.354 369.45H207.624ZM212.457 363.64V374H210.861V363.64H212.457ZM215.364 365.264C215.075 365.264 214.832 365.166 214.636 364.97C214.44 364.774 214.342 364.531 214.342 364.242C214.342 363.953 214.44 363.71 214.636 363.514C214.832 363.318 215.075 363.22 215.364 363.22C215.644 363.22 215.882 363.318 216.078 363.514C216.274 363.71 216.372 363.953 216.372 364.242C216.372 364.531 216.274 364.774 216.078 364.97C215.882 365.166 215.644 365.264 215.364 365.264ZM216.148 366.286V374H214.552V366.286H216.148ZM221.225 372.572L223.409 366.286H225.103L222.163 374H220.259L217.333 366.286H219.041L221.225 372.572ZM233.38 369.954C233.38 370.243 233.361 370.505 233.324 370.738H227.43C227.476 371.354 227.705 371.849 228.116 372.222C228.526 372.595 229.03 372.782 229.628 372.782C230.486 372.782 231.093 372.423 231.448 371.704H233.17C232.936 372.413 232.512 372.997 231.896 373.454C231.289 373.902 230.533 374.126 229.628 374.126C228.89 374.126 228.228 373.963 227.64 373.636C227.061 373.3 226.604 372.833 226.268 372.236C225.941 371.629 225.778 370.929 225.778 370.136C225.778 369.343 225.936 368.647 226.254 368.05C226.58 367.443 227.033 366.977 227.612 366.65C228.2 366.323 228.872 366.16 229.628 366.16C230.356 366.16 231.004 366.319 231.574 366.636C232.143 366.953 232.586 367.401 232.904 367.98C233.221 368.549 233.38 369.207 233.38 369.954ZM231.714 369.45C231.704 368.862 231.494 368.391 231.084 368.036C230.673 367.681 230.164 367.504 229.558 367.504C229.007 367.504 228.536 367.681 228.144 368.036C227.752 368.381 227.518 368.853 227.444 369.45H231.714ZM236.546 367.406C236.78 367.014 237.088 366.711 237.47 366.496C237.862 366.272 238.324 366.16 238.856 366.16V367.812H238.45C237.825 367.812 237.349 367.971 237.022 368.288C236.705 368.605 236.546 369.156 236.546 369.94V374H234.95V366.286H236.546V367.406ZM247.267 366.286L242.535 377.626H240.883L242.451 373.874L239.413 366.286H241.191L243.361 372.166L245.615 366.286H247.267ZM259.627 374L258.423 372.796C257.956 373.263 257.447 373.613 256.897 373.846C256.346 374.07 255.73 374.182 255.049 374.182C254.358 374.182 253.747 374.061 253.215 373.818C252.683 373.575 252.272 373.23 251.983 372.782C251.693 372.325 251.549 371.797 251.549 371.2C251.549 370.528 251.74 369.931 252.123 369.408C252.505 368.876 253.075 368.456 253.831 368.148C253.56 367.821 253.369 367.518 253.257 367.238C253.145 366.949 253.089 366.631 253.089 366.286C253.089 365.857 253.196 365.474 253.411 365.138C253.635 364.802 253.952 364.536 254.363 364.34C254.773 364.144 255.249 364.046 255.791 364.046C256.341 364.046 256.808 364.153 257.191 364.368C257.583 364.573 257.872 364.858 258.059 365.222C258.255 365.586 258.334 365.992 258.297 366.44H256.701C256.71 366.095 256.626 365.829 256.449 365.642C256.271 365.446 256.029 365.348 255.721 365.348C255.413 365.348 255.161 365.441 254.965 365.628C254.778 365.805 254.685 366.025 254.685 366.286C254.685 366.538 254.755 366.79 254.895 367.042C255.044 367.285 255.301 367.602 255.665 367.994L258.241 370.556L259.235 368.918H260.957L259.697 371.074L259.347 371.648L261.713 374H259.627ZM255.049 372.824C255.926 372.824 256.701 372.465 257.373 371.746L254.797 369.156C253.695 369.595 253.145 370.257 253.145 371.144C253.145 371.62 253.322 372.021 253.677 372.348C254.031 372.665 254.489 372.824 255.049 372.824ZM267.992 367.434C268.262 367.061 268.631 366.757 269.098 366.524C269.574 366.281 270.101 366.16 270.68 366.16C271.361 366.16 271.977 366.323 272.528 366.65C273.078 366.977 273.512 367.443 273.83 368.05C274.147 368.647 274.306 369.333 274.306 370.108C274.306 370.883 274.147 371.578 273.83 372.194C273.512 372.801 273.074 373.277 272.514 373.622C271.963 373.958 271.352 374.126 270.68 374.126C270.082 374.126 269.55 374.009 269.084 373.776C268.626 373.543 268.262 373.244 267.992 372.88V374H266.396V363.64H267.992V367.434ZM272.682 370.108C272.682 369.576 272.57 369.119 272.346 368.736C272.131 368.344 271.842 368.05 271.478 367.854C271.123 367.649 270.74 367.546 270.33 367.546C269.928 367.546 269.546 367.649 269.182 367.854C268.827 368.059 268.538 368.358 268.314 368.75C268.099 369.142 267.992 369.604 267.992 370.136C267.992 370.668 268.099 371.135 268.314 371.536C268.538 371.928 268.827 372.227 269.182 372.432C269.546 372.637 269.928 372.74 270.33 372.74C270.74 372.74 271.123 372.637 271.478 372.432C271.842 372.217 272.131 371.909 272.346 371.508C272.57 371.107 272.682 370.64 272.682 370.108ZM282.87 366.286V374H281.274V373.09C281.022 373.407 280.691 373.659 280.28 373.846C279.879 374.023 279.449 374.112 278.992 374.112C278.385 374.112 277.839 373.986 277.354 373.734C276.878 373.482 276.5 373.109 276.22 372.614C275.949 372.119 275.814 371.522 275.814 370.822V366.286H277.396V370.584C277.396 371.275 277.569 371.807 277.914 372.18C278.259 372.544 278.731 372.726 279.328 372.726C279.925 372.726 280.397 372.544 280.742 372.18C281.097 371.807 281.274 371.275 281.274 370.584V366.286H282.87ZM291.92 366.286L287.188 377.626H285.536L287.104 373.874L284.066 366.286H285.844L288.014 372.166L290.268 366.286H291.92ZM295.126 364.27L294.944 371.06H293.614L293.432 364.27H295.126ZM294.328 374.098C294.039 374.098 293.796 374 293.6 373.804C293.404 373.608 293.306 373.365 293.306 373.076C293.306 372.787 293.404 372.544 293.6 372.348C293.796 372.152 294.039 372.054 294.328 372.054C294.608 372.054 294.846 372.152 295.042 372.348C295.238 372.544 295.336 372.787 295.336 373.076C295.336 373.365 295.238 373.608 295.042 373.804C294.846 374 294.608 374.098 294.328 374.098Z" fill="#2E2C43"/>
<path d="M109.627 136.098C108.974 136.098 108.386 135.986 107.863 135.762C107.34 135.529 106.93 135.202 106.631 134.782C106.332 134.362 106.183 133.872 106.183 133.312H107.891C107.928 133.732 108.092 134.077 108.381 134.348C108.68 134.619 109.095 134.754 109.627 134.754C110.178 134.754 110.607 134.623 110.915 134.362C111.223 134.091 111.377 133.746 111.377 133.326C111.377 132.999 111.279 132.733 111.083 132.528C110.896 132.323 110.658 132.164 110.369 132.052C110.089 131.94 109.697 131.819 109.193 131.688C108.558 131.52 108.04 131.352 107.639 131.184C107.247 131.007 106.911 130.736 106.631 130.372C106.351 130.008 106.211 129.523 106.211 128.916C106.211 128.356 106.351 127.866 106.631 127.446C106.911 127.026 107.303 126.704 107.807 126.48C108.311 126.256 108.894 126.144 109.557 126.144C110.5 126.144 111.27 126.382 111.867 126.858C112.474 127.325 112.81 127.969 112.875 128.79H111.111C111.083 128.435 110.915 128.132 110.607 127.88C110.299 127.628 109.893 127.502 109.389 127.502C108.932 127.502 108.558 127.619 108.269 127.852C107.98 128.085 107.835 128.421 107.835 128.86C107.835 129.159 107.924 129.406 108.101 129.602C108.288 129.789 108.521 129.938 108.801 130.05C109.081 130.162 109.464 130.283 109.949 130.414C110.593 130.591 111.116 130.769 111.517 130.946C111.928 131.123 112.273 131.399 112.553 131.772C112.842 132.136 112.987 132.626 112.987 133.242C112.987 133.737 112.852 134.203 112.581 134.642C112.32 135.081 111.932 135.435 111.419 135.706C110.915 135.967 110.318 136.098 109.627 136.098ZM116.732 129.588V133.858C116.732 134.147 116.798 134.357 116.928 134.488C117.068 134.609 117.302 134.67 117.628 134.67H118.608V136H117.348C116.63 136 116.079 135.832 115.696 135.496C115.314 135.16 115.122 134.614 115.122 133.858V129.588H114.212V128.286H115.122V126.368H116.732V128.286H118.608V129.588H116.732ZM127.149 131.954C127.149 132.243 127.131 132.505 127.093 132.738H121.199C121.246 133.354 121.475 133.849 121.885 134.222C122.296 134.595 122.8 134.782 123.397 134.782C124.256 134.782 124.863 134.423 125.217 133.704H126.939C126.706 134.413 126.281 134.997 125.665 135.454C125.059 135.902 124.303 136.126 123.397 136.126C122.66 136.126 121.997 135.963 121.409 135.636C120.831 135.3 120.373 134.833 120.037 134.236C119.711 133.629 119.547 132.929 119.547 132.136C119.547 131.343 119.706 130.647 120.023 130.05C120.35 129.443 120.803 128.977 121.381 128.65C121.969 128.323 122.641 128.16 123.397 128.16C124.125 128.16 124.774 128.319 125.343 128.636C125.913 128.953 126.356 129.401 126.673 129.98C126.991 130.549 127.149 131.207 127.149 131.954ZM125.483 131.45C125.474 130.862 125.264 130.391 124.853 130.036C124.443 129.681 123.934 129.504 123.327 129.504C122.777 129.504 122.305 129.681 121.913 130.036C121.521 130.381 121.288 130.853 121.213 131.45H125.483ZM130.316 129.42C130.587 129.065 130.955 128.767 131.422 128.524C131.889 128.281 132.416 128.16 133.004 128.16C133.676 128.16 134.287 128.328 134.838 128.664C135.398 128.991 135.837 129.453 136.154 130.05C136.471 130.647 136.63 131.333 136.63 132.108C136.63 132.883 136.471 133.578 136.154 134.194C135.837 134.801 135.398 135.277 134.838 135.622C134.287 135.958 133.676 136.126 133.004 136.126C132.416 136.126 131.893 136.009 131.436 135.776C130.979 135.533 130.605 135.235 130.316 134.88V139.668H128.72V128.286H130.316V129.42ZM135.006 132.108C135.006 131.576 134.894 131.119 134.67 130.736C134.455 130.344 134.166 130.05 133.802 129.854C133.447 129.649 133.065 129.546 132.654 129.546C132.253 129.546 131.87 129.649 131.506 129.854C131.151 130.059 130.862 130.358 130.638 130.75C130.423 131.142 130.316 131.604 130.316 132.136C130.316 132.668 130.423 133.135 130.638 133.536C130.862 133.928 131.151 134.227 131.506 134.432C131.87 134.637 132.253 134.74 132.654 134.74C133.065 134.74 133.447 134.637 133.802 134.432C134.166 134.217 134.455 133.909 134.67 133.508C134.894 133.107 135.006 132.64 135.006 132.108ZM148.103 127.026L144.211 136H142.601L146.535 127.194H141.355V125.836H148.103V127.026Z" fill="black"/>
<path d="M168.719 257.308C163.344 269.846 164.374 285.072 168.719 301.688H198.875C202.646 285.053 204.555 269.327 198.875 257.308H168.719Z" fill="#E4E4E4"/>
<path d="M156.556 257.308C146.734 269.395 149.474 284.944 156.556 301.688H168.719C164.332 285.869 163.615 270.908 168.719 257.308H156.556Z" fill="#CACACA"/>
<path d="M193.3 258.337H188.739V262.898H193.3V258.337Z" fill="white"/>
<path d="M185.951 258.337H181.39V262.898H185.951V258.337Z" fill="white"/>
<path d="M178.602 258.337H174.041V262.898H178.602V258.337Z" fill="white"/>
<path d="M193.173 268.726H188.612V273.288H193.173V268.726Z" fill="white"/>
<path d="M185.824 268.726H181.263V273.288H185.824V268.726Z" fill="white"/>
<path d="M178.476 268.726H173.914V273.288H178.476V268.726Z" fill="white"/>
<path d="M193.046 279.116H188.485V283.677H193.046V279.116Z" fill="white"/>
<path d="M185.698 279.116H181.136V283.677H185.698V279.116Z" fill="white"/>
<path d="M178.349 279.116H173.788V283.677H178.349V279.116Z" fill="white"/>
<path d="M192.92 289.506H188.358V294.067H192.92V289.506Z" fill="white"/>
<path d="M185.571 289.506H181.01V294.067H185.571V289.506Z" fill="white"/>
<path d="M178.222 289.506H173.661V294.067H178.222V289.506Z" fill="white"/>
<path d="M192.793 299.895H188.231V301.689H192.793V299.895Z" fill="white"/>
<path d="M185.444 299.895H180.883V301.689H185.444V299.895Z" fill="white"/>
<path d="M178.095 299.895H173.534V301.689H178.095V299.895Z" fill="white"/>
<path d="M144.205 280.881V298.252C144.205 299.03 144.469 299.785 144.954 300.394C145.439 301.003 146.117 301.429 146.875 301.602C147.059 301.644 147.245 301.67 147.433 301.681C147.501 301.687 147.572 301.688 147.642 301.688H160.864C163.639 293.559 168.743 258.671 147.84 261.701L144.205 280.881Z" fill="#E4E4E4"/>
<path d="M154.909 289.506H150.347V294.067H154.909V289.506Z" fill="white"/>
<path d="M147.56 289.506H144.205V294.067H147.56V289.506Z" fill="white"/>
<path d="M154.782 299.895H150.221V301.689H154.782V299.895Z" fill="white"/>
<path d="M144.623 299.895C144.857 300.322 145.179 300.695 145.567 300.99C145.955 301.284 146.401 301.493 146.876 301.602C147.059 301.644 147.245 301.67 147.433 301.681V299.895H144.623Z" fill="white"/>
<path d="M213.061 311.641C219.497 311.641 224.714 310.747 224.714 309.644C224.714 308.54 219.497 307.646 213.061 307.646C206.626 307.646 201.409 308.54 201.409 309.644C201.409 310.747 206.626 311.641 213.061 311.641Z" fill="#FB8C00"/>
<path d="M279.094 310.456H234.481C234.392 310.456 234.308 310.421 234.245 310.359C234.183 310.296 234.148 310.212 234.148 310.123C234.148 310.035 234.183 309.95 234.245 309.888C234.308 309.825 234.392 309.79 234.481 309.79H279.094C279.182 309.79 279.267 309.825 279.329 309.888C279.392 309.95 279.427 310.035 279.427 310.123C279.427 310.212 279.392 310.296 279.329 310.359C279.267 310.421 279.182 310.456 279.094 310.456Z" fill="#3F3D56"/>
<path d="M204.4 222.982C204.401 219.355 205.644 215.838 207.924 213.017C210.204 210.195 213.381 208.241 216.928 207.478C214.615 206.982 212.222 207.01 209.921 207.558C207.621 208.107 205.473 209.163 203.633 210.649C201.794 212.136 200.311 214.015 199.291 216.149C198.272 218.283 197.743 220.618 197.743 222.982C197.743 225.347 198.272 227.682 199.291 229.816C200.311 231.95 201.794 233.829 203.633 235.315C205.473 236.802 207.621 237.858 209.921 238.407C212.222 238.955 214.615 238.982 216.928 238.486C213.381 237.724 210.204 235.769 207.924 232.948C205.644 230.127 204.401 226.61 204.4 222.982Z" fill="#FB8C00"/>
<path d="M213.962 239.238C210.76 239.238 207.629 238.288 204.967 236.51C202.305 234.731 200.229 232.202 199.004 229.244C197.779 226.285 197.458 223.03 198.083 219.89C198.707 216.749 200.249 213.864 202.513 211.6C204.778 209.336 207.662 207.794 210.803 207.169C213.943 206.545 217.199 206.865 220.157 208.091C223.115 209.316 225.644 211.391 227.423 214.053C229.202 216.716 230.151 219.846 230.151 223.048C230.146 227.34 228.439 231.455 225.404 234.491C222.369 237.526 218.254 239.233 213.962 239.238ZM213.962 207.524C210.891 207.524 207.89 208.434 205.337 210.14C202.784 211.846 200.794 214.27 199.619 217.107C198.444 219.944 198.137 223.065 198.736 226.076C199.335 229.088 200.813 231.854 202.984 234.025C205.155 236.196 207.921 237.675 210.933 238.274C213.944 238.873 217.066 238.565 219.902 237.39C222.739 236.215 225.163 234.226 226.869 231.673C228.575 229.12 229.485 226.118 229.485 223.048C229.481 218.932 227.844 214.986 224.934 212.076C222.023 209.166 218.077 207.529 213.962 207.524V207.524Z" fill="#3F3D56"/>
<path d="M187.143 222.983C187.144 214.332 190.308 205.979 196.039 199.499C201.77 193.019 209.673 188.859 218.26 187.801C213.277 187.191 208.222 187.645 203.428 189.133C198.635 190.622 194.212 193.112 190.452 196.437C186.692 199.763 183.682 203.849 181.619 208.425C179.556 213.001 178.488 217.963 178.487 222.983C178.487 238.882 201.869 283.718 210.651 299.997C210.97 300.59 211.443 301.085 212.021 301.43C212.598 301.775 213.259 301.957 213.931 301.957C214.604 301.957 215.264 301.775 215.842 301.43C216.42 301.085 216.893 300.59 217.212 299.997C217.541 299.388 217.892 298.734 218.26 298.048C208.805 280.398 187.143 238.287 187.143 222.983Z" fill="#FB8C00"/>
<path d="M213.961 302.355C213.227 302.361 212.506 302.165 211.876 301.789C211.245 301.412 210.731 300.87 210.388 300.221C200.705 282.272 178.184 238.821 178.184 223.048C178.184 213.559 181.953 204.459 188.663 197.75C195.373 191.04 204.473 187.271 213.962 187.271C223.451 187.271 232.551 191.04 239.26 197.75C245.97 204.459 249.74 213.559 249.74 223.048C249.74 238.823 227.218 282.272 217.535 300.221C217.192 300.87 216.678 301.412 216.047 301.789C215.417 302.165 214.695 302.361 213.961 302.355ZM213.962 187.936C204.653 187.947 195.728 191.65 189.145 198.232C182.563 204.815 178.86 213.739 178.85 223.048C178.85 238.67 201.315 282 210.974 299.905C211.264 300.444 211.696 300.895 212.222 301.209C212.748 301.523 213.349 301.689 213.962 301.689C214.574 301.689 215.175 301.523 215.701 301.209C216.227 300.895 216.659 300.444 216.949 299.905C226.608 282.001 249.074 238.671 249.074 223.048C249.063 213.739 245.36 204.815 238.778 198.232C232.196 191.65 223.271 187.947 213.962 187.936Z" fill="#3F3D56"/>
<rect x="113.5" y="163.5" width="200.793" height="146.704" stroke="#C4C4C4" stroke-dasharray="10 10"/>
<defs>
<filter id="filter0_d_1165_8" x="0.876953" y="0.88501" width="399.384" height="528.651" filterUnits="userSpaceOnUse" color-interpolation-filters="sRGB">
<feFlood flood-opacity="0" result="BackgroundImageFix"/>
<feColorMatrix in="SourceAlpha" type="matrix" values="0 0 0 0 0 0 0 0 0 0 0 0 0 0 0 0 0 0 127 0" result="hardAlpha"/>
<feOffset dx="10" dy="10"/>
<feGaussianBlur stdDeviation="50"/>
<feComposite in2="hardAlpha" operator="out"/>
<feColorMatrix type="matrix" values="0 0 0 0 0.741667 0 0 0 0 0.741667 0 0 0 0 0.741667 0 0 0 0.35 0"/>
<feBlend mode="normal" in2="BackgroundImageFix" result="effect1_dropShadow_1165_8"/>
<feBlend mode="normal" in="SourceGraphic" in2="effect1_dropShadow_1165_8" result="shape"/>
</filter>
</defs>
</svg>
