<svg width="324" height="127" viewBox="0 0 324 127" fill="none" xmlns="http://www.w3.org/2000/svg">
<rect width="324" height="127" rx="16" fill="#F9F9F9"/>
<rect x="0.25" y="0.25" width="323.5" height="126.5" rx="15.75" stroke="#2E2C43" stroke-opacity="0.1" stroke-width="0.5"/>
<path d="M41.084 22.242V23.278H38.424V32H37.15V23.278H34.476V22.242H41.084ZM49.2602 24.328L44.6402 35.612H43.3242L44.8362 31.916L41.7422 24.328H43.1562L45.5642 30.544L47.9442 24.328H49.2602ZM51.8149 25.742C52.0669 25.3033 52.4402 24.9393 52.9349 24.65C53.4389 24.3513 54.0222 24.202 54.6849 24.202C55.3662 24.202 55.9822 24.3653 56.5329 24.692C57.0929 25.0187 57.5316 25.4807 57.8489 26.078C58.1662 26.666 58.3249 27.352 58.3249 28.136C58.3249 28.9107 58.1662 29.6013 57.8489 30.208C57.5316 30.8147 57.0929 31.286 56.5329 31.622C55.9822 31.958 55.3662 32.126 54.6849 32.126C54.0316 32.126 53.4529 31.9813 52.9489 31.692C52.4542 31.3933 52.0762 31.0247 51.8149 30.586V35.64H50.5409V24.328H51.8149V25.742ZM57.0229 28.136C57.0229 27.5573 56.9062 27.0533 56.6729 26.624C56.4396 26.1947 56.1222 25.868 55.7209 25.644C55.3289 25.42 54.8949 25.308 54.4189 25.308C53.9522 25.308 53.5182 25.4247 53.1169 25.658C52.7249 25.882 52.4076 26.2133 52.1649 26.652C51.9316 27.0813 51.8149 27.5807 51.8149 28.15C51.8149 28.7287 51.9316 29.2373 52.1649 29.676C52.4076 30.1053 52.7249 30.4367 53.1169 30.67C53.5182 30.894 53.9522 31.006 54.4189 31.006C54.8949 31.006 55.3289 30.894 55.7209 30.67C56.1222 30.4367 56.4396 30.1053 56.6729 29.676C56.9062 29.2373 57.0229 28.724 57.0229 28.136ZM67.0018 27.87C67.0018 28.1127 66.9878 28.3693 66.9598 28.64H60.8278C60.8745 29.396 61.1312 29.9887 61.5978 30.418C62.0738 30.838 62.6478 31.048 63.3198 31.048C63.8705 31.048 64.3278 30.922 64.6918 30.67C65.0652 30.4087 65.3265 30.0633 65.4758 29.634H66.8478C66.6425 30.3713 66.2318 30.9733 65.6158 31.44C64.9998 31.8973 64.2345 32.126 63.3198 32.126C62.5918 32.126 61.9385 31.9627 61.3598 31.636C60.7905 31.3093 60.3425 30.8473 60.0158 30.25C59.6892 29.6433 59.5258 28.9433 59.5258 28.15C59.5258 27.3567 59.6845 26.6613 60.0018 26.064C60.3192 25.4667 60.7625 25.0093 61.3318 24.692C61.9105 24.3653 62.5732 24.202 63.3198 24.202C64.0478 24.202 64.6918 24.3607 65.2518 24.678C65.8118 24.9953 66.2412 25.434 66.5398 25.994C66.8478 26.5447 67.0018 27.17 67.0018 27.87ZM65.6858 27.604C65.6858 27.1187 65.5785 26.7033 65.3638 26.358C65.1492 26.0033 64.8552 25.7373 64.4818 25.56C64.1178 25.3733 63.7118 25.28 63.2638 25.28C62.6198 25.28 62.0692 25.4853 61.6118 25.896C61.1638 26.3067 60.9072 26.876 60.8418 27.604H65.6858ZM76.2239 24.188C76.8026 24.188 77.3252 24.314 77.7919 24.566C78.2586 24.8087 78.6226 25.1773 78.8839 25.672C79.1546 26.1667 79.2899 26.7687 79.2899 27.478V32H78.0299V27.66C78.0299 26.8947 77.8386 26.3113 77.4559 25.91C77.0732 25.4993 76.5506 25.294 75.8879 25.294C75.2159 25.294 74.6792 25.504 74.2779 25.924C73.8859 26.344 73.6899 26.9553 73.6899 27.758V32H72.4159V21.64H73.6899V25.42C73.9419 25.028 74.2872 24.7247 74.7259 24.51C75.1739 24.2953 75.6732 24.188 76.2239 24.188ZM88.371 27.87C88.371 28.1127 88.357 28.3693 88.329 28.64H82.197C82.2436 29.396 82.5003 29.9887 82.967 30.418C83.443 30.838 84.017 31.048 84.689 31.048C85.2396 31.048 85.697 30.922 86.061 30.67C86.4343 30.4087 86.6956 30.0633 86.845 29.634H88.217C88.0116 30.3713 87.601 30.9733 86.985 31.44C86.369 31.8973 85.6036 32.126 84.689 32.126C83.961 32.126 83.3076 31.9627 82.729 31.636C82.1596 31.3093 81.7116 30.8473 81.385 30.25C81.0583 29.6433 80.895 28.9433 80.895 28.15C80.895 27.3567 81.0536 26.6613 81.371 26.064C81.6883 25.4667 82.1316 25.0093 82.701 24.692C83.2796 24.3653 83.9423 24.202 84.689 24.202C85.417 24.202 86.061 24.3607 86.621 24.678C87.181 24.9953 87.6103 25.434 87.909 25.994C88.217 26.5447 88.371 27.17 88.371 27.87ZM87.055 27.604C87.055 27.1187 86.9476 26.7033 86.733 26.358C86.5183 26.0033 86.2243 25.7373 85.851 25.56C85.487 25.3733 85.081 25.28 84.633 25.28C83.989 25.28 83.4383 25.4853 82.981 25.896C82.533 26.3067 82.2763 26.876 82.211 27.604H87.055ZM91.3266 25.574C91.5506 25.1353 91.8679 24.7947 92.2786 24.552C92.6986 24.3093 93.2073 24.188 93.8046 24.188V25.504H93.4686C92.0406 25.504 91.3266 26.2787 91.3266 27.828V32H90.0526V24.328H91.3266V25.574ZM102.275 27.87C102.275 28.1127 102.261 28.3693 102.233 28.64H96.1013C96.1479 29.396 96.4046 29.9887 96.8713 30.418C97.3473 30.838 97.9213 31.048 98.5933 31.048C99.1439 31.048 99.6013 30.922 99.9653 30.67C100.339 30.4087 100.6 30.0633 100.749 29.634H102.121C101.916 30.3713 101.505 30.9733 100.889 31.44C100.273 31.8973 99.5079 32.126 98.5933 32.126C97.8653 32.126 97.2119 31.9627 96.6333 31.636C96.0639 31.3093 95.6159 30.8473 95.2893 30.25C94.9626 29.6433 94.7993 28.9433 94.7993 28.15C94.7993 27.3567 94.9579 26.6613 95.2753 26.064C95.5926 25.4667 96.0359 25.0093 96.6053 24.692C97.1839 24.3653 97.8466 24.202 98.5933 24.202C99.3213 24.202 99.9653 24.3607 100.525 24.678C101.085 24.9953 101.515 25.434 101.813 25.994C102.121 26.5447 102.275 27.17 102.275 27.87ZM100.959 27.604C100.959 27.1187 100.852 26.7033 100.637 26.358C100.423 26.0033 100.129 25.7373 99.7553 25.56C99.3913 25.3733 98.9853 25.28 98.5373 25.28C97.8933 25.28 97.3426 25.4853 96.8853 25.896C96.4373 26.3067 96.1806 26.876 96.1153 27.604H100.959ZM108.095 32.084C107.853 32.084 107.647 32 107.479 31.832C107.311 31.664 107.227 31.4587 107.227 31.216C107.227 30.9733 107.311 30.768 107.479 30.6C107.647 30.432 107.853 30.348 108.095 30.348C108.329 30.348 108.525 30.432 108.683 30.6C108.851 30.768 108.935 30.9733 108.935 31.216C108.935 31.4587 108.851 31.664 108.683 31.832C108.525 32 108.329 32.084 108.095 32.084ZM111.035 32.084C110.792 32.084 110.587 32 110.419 31.832C110.251 31.664 110.167 31.4587 110.167 31.216C110.167 30.9733 110.251 30.768 110.419 30.6C110.587 30.432 110.792 30.348 111.035 30.348C111.268 30.348 111.464 30.432 111.623 30.6C111.791 30.768 111.875 30.9733 111.875 31.216C111.875 31.4587 111.791 31.664 111.623 31.832C111.464 32 111.268 32.084 111.035 32.084ZM113.974 32.084C113.732 32.084 113.526 32 113.358 31.832C113.19 31.664 113.106 31.4587 113.106 31.216C113.106 30.9733 113.19 30.768 113.358 30.6C113.526 30.432 113.732 30.348 113.974 30.348C114.208 30.348 114.404 30.432 114.562 30.6C114.73 30.768 114.814 30.9733 114.814 31.216C114.814 31.4587 114.73 31.664 114.562 31.832C114.404 32 114.208 32.084 113.974 32.084ZM116.914 32.084C116.671 32.084 116.466 32 116.298 31.832C116.13 31.664 116.046 31.4587 116.046 31.216C116.046 30.9733 116.13 30.768 116.298 30.6C116.466 30.432 116.671 30.348 116.914 30.348C117.147 30.348 117.343 30.432 117.502 30.6C117.67 30.768 117.754 30.9733 117.754 31.216C117.754 31.4587 117.67 31.664 117.502 31.832C117.343 32 117.147 32.084 116.914 32.084ZM119.853 32.084C119.61 32.084 119.405 32 119.237 31.832C119.069 31.664 118.985 31.4587 118.985 31.216C118.985 30.9733 119.069 30.768 119.237 30.6C119.405 30.432 119.61 30.348 119.853 30.348C120.086 30.348 120.282 30.432 120.441 30.6C120.609 30.768 120.693 30.9733 120.693 31.216C120.693 31.4587 120.609 31.664 120.441 31.832C120.282 32 120.086 32.084 119.853 32.084ZM122.793 32.084C122.55 32.084 122.345 32 122.177 31.832C122.009 31.664 121.925 31.4587 121.925 31.216C121.925 30.9733 122.009 30.768 122.177 30.6C122.345 30.432 122.55 30.348 122.793 30.348C123.026 30.348 123.222 30.432 123.381 30.6C123.549 30.768 123.633 30.9733 123.633 31.216C123.633 31.4587 123.549 31.664 123.381 31.832C123.222 32 123.026 32.084 122.793 32.084Z" fill="#DBCDBB"/>
</svg>
