<svg width="106" height="89" viewBox="0 0 106 89" fill="none" xmlns="http://www.w3.org/2000/svg">
<path d="M53 76.9365L53.049 76.8826M4 20.5375C33.4 -1.5125 72.6 -1.5125 102 20.5375M18.7 40.1375C38.3 25.4375 67.7 25.4375 87.3 40.1375M35.85 57.2875C46.875 50.4275 59.125 50.4275 70.15 57.2875" stroke="#FB8C00" stroke-width="7.35" stroke-linecap="round" stroke-linejoin="round"/>
<path d="M89 89C97.8366 89 105 81.8366 105 73C105 64.1634 97.8366 57 89 57C80.1634 57 73 64.1634 73 73C73 81.8366 80.1634 89 89 89Z" fill="#F44336"/>
<path d="M97.5012 78.0895L94.1092 81.4847L80.5332 67.9103L83.9268 64.5151L97.5012 78.0895Z" fill="white"/>
<path d="M83.9128 81.4953L80.5176 78.1033L94.092 64.5273L97.4872 67.9209L83.9128 81.4953Z" fill="white"/>
</svg>
