<svg width="299" height="223" viewBox="0 0 299 223" fill="none" xmlns="http://www.w3.org/2000/svg">
<g filter="url(#filter0_d_183_104)">
<path d="M84.3505 136C76.599 154.08 78.0855 176.037 84.3505 200H127.838C133.276 176.01 136.029 153.332 127.838 136H84.3505Z" fill="#E4E4E4"/>
<path d="M66.8107 136C52.6468 153.431 56.5984 175.853 66.8107 200H84.3506C78.0252 177.188 76.9911 155.613 84.3506 136H66.8107Z" fill="#CACACA"/>
<path d="M119.798 137.484H113.221V144.061H119.798V137.484Z" fill="white"/>
<path d="M109.201 137.484H102.623V144.061H109.201V137.484Z" fill="white"/>
<path d="M98.6036 137.484H92.0259V144.061H98.6036V137.484Z" fill="white"/>
<path d="M119.616 152.466H113.038V159.044H119.616V152.466Z" fill="white"/>
<path d="M109.018 152.466H102.44V159.044H109.018V152.466Z" fill="white"/>
<path d="M98.4205 152.466H91.8428V159.044H98.4205V152.466Z" fill="white"/>
<path d="M119.433 167.449H112.855V174.027H119.433V167.449Z" fill="white"/>
<path d="M108.836 167.449H102.258V174.027H108.836V167.449Z" fill="white"/>
<path d="M98.2379 167.449H91.6602V174.027H98.2379V167.449Z" fill="white"/>
<path d="M119.25 182.432H112.672V189.009H119.25V182.432Z" fill="white"/>
<path d="M108.653 182.432H102.075V189.009H108.653V182.432Z" fill="white"/>
<path d="M98.0553 182.432H91.4775V189.009H98.0553V182.432Z" fill="white"/>
<path d="M119.068 197.414H112.489V200H119.068V197.414Z" fill="white"/>
<path d="M108.47 197.414H101.893V200H108.47V197.414Z" fill="white"/>
<path d="M97.8714 197.414H91.2944V200H97.8714V197.414Z" fill="white"/>
<path d="M49 169.994V195.044C48.9997 196.166 49.3806 197.256 50.0802 198.133C50.7798 199.011 51.7567 199.625 52.8509 199.875C53.1152 199.936 53.3841 199.974 53.6547 199.989C53.753 199.998 53.8557 200 53.9562 200H73.0229C77.026 188.277 84.3857 137.966 54.2423 142.334L49 169.994Z" fill="#E4E4E4"/>
<path d="M64.4357 182.432H57.8579V189.009H64.4357V182.432Z" fill="white"/>
<path d="M53.8382 182.432H49V189.009H53.8382V182.432Z" fill="white"/>
<path d="M64.2532 197.414H57.6763V200H64.2532V197.414Z" fill="white"/>
<path d="M49.603 197.414C49.9404 198.03 50.4041 198.568 50.9639 198.992C51.5237 199.416 52.1668 199.717 52.8511 199.876C53.1154 199.936 53.3843 199.974 53.6549 199.989V197.414H49.603Z" fill="white"/>
<path d="M148.296 214.353C157.577 214.353 165.1 213.063 165.1 211.472C165.1 209.881 157.577 208.591 148.296 208.591C139.016 208.591 131.492 209.881 131.492 211.472C131.492 213.063 139.016 214.353 148.296 214.353Z" fill="#FB8C00"/>
<path d="M243.52 212.643H179.184C179.057 212.643 178.935 212.593 178.845 212.503C178.755 212.413 178.704 212.291 178.704 212.163C178.704 212.036 178.755 211.914 178.845 211.824C178.935 211.734 179.057 211.683 179.184 211.683H243.52C243.647 211.683 243.769 211.734 243.859 211.824C243.949 211.914 244 212.036 244 212.163C244 212.291 243.949 212.413 243.859 212.503C243.769 212.593 243.647 212.643 243.52 212.643Z" fill="#3F3D56"/>
<path d="M135.806 86.5001C135.807 81.2695 137.6 76.1972 140.888 72.1287C144.175 68.0603 148.758 65.2415 153.872 64.1424C150.537 63.4268 147.085 63.4661 143.768 64.2573C140.451 65.0485 137.353 66.5716 134.7 68.7152C132.048 70.8587 129.909 73.5683 128.439 76.6456C126.969 79.7229 126.207 83.0899 126.207 86.5001C126.207 89.9103 126.969 93.2774 128.439 96.3547C129.909 99.432 132.048 102.142 134.7 104.285C137.353 106.429 140.451 107.952 143.768 108.743C147.085 109.534 150.537 109.573 153.872 108.858C148.758 107.759 144.175 104.94 140.888 100.871C137.6 96.803 135.807 91.7307 135.806 86.5001Z" fill="#FB8C00"/>
<path d="M149.594 109.941C144.977 109.941 140.463 108.572 136.623 106.007C132.784 103.441 129.791 99.7951 128.024 95.529C126.257 91.2629 125.795 86.5686 126.696 82.0397C127.596 77.5108 129.82 73.3507 133.085 70.0856C136.35 66.8204 140.51 64.5968 145.039 63.6959C149.568 62.7951 154.262 63.2574 158.529 65.0245C162.795 66.7916 166.441 69.7841 169.006 73.6235C171.572 77.4629 172.941 81.9768 172.941 86.5944C172.934 92.7842 170.472 98.7185 166.095 103.095C161.718 107.472 155.784 109.934 149.594 109.941ZM149.594 64.2076C145.167 64.2075 140.838 65.5204 137.157 67.9802C133.475 70.4401 130.606 73.9364 128.912 78.027C127.217 82.1176 126.774 86.6189 127.637 90.9615C128.501 95.3041 130.633 99.2931 133.764 102.424C136.895 105.555 140.884 107.687 145.226 108.551C149.569 109.415 154.07 108.971 158.161 107.277C162.252 105.583 165.748 102.713 168.208 99.0319C170.668 95.3504 171.981 91.0221 171.981 86.5944C171.974 80.6592 169.613 74.9689 165.417 70.7721C161.22 66.5752 155.53 64.2144 149.594 64.2076V64.2076Z" fill="#3F3D56"/>
<path d="M110.92 86.4998C110.92 74.0244 115.483 61.9799 123.748 52.6352C132.013 43.2905 143.41 37.2906 155.792 35.7657C148.607 34.8849 141.317 35.5396 134.405 37.6865C127.492 39.8333 121.113 43.4234 115.692 48.2193C110.27 53.0152 105.928 58.9075 102.953 65.5067C99.9789 72.1058 98.4393 79.2613 98.4365 86.4998C98.4365 109.428 132.156 174.085 144.82 197.56C145.28 198.415 145.962 199.128 146.795 199.626C147.628 200.124 148.58 200.386 149.551 200.386C150.521 200.386 151.473 200.124 152.306 199.626C153.139 199.128 153.821 198.415 154.281 197.56C154.755 196.682 155.262 195.739 155.792 194.749C142.159 169.297 110.92 108.57 110.92 86.4998Z" fill="#FB8C00"/>
<path d="M149.594 200.961C148.535 200.969 147.495 200.687 146.586 200.144C145.677 199.601 144.935 198.819 144.441 197.883C130.477 171.999 98 109.34 98 86.5943C98 72.9107 103.436 59.7874 113.112 50.1116C122.787 40.4358 135.911 35 149.594 35C163.278 35 176.401 40.4358 186.077 50.1116C195.753 59.7874 201.189 72.9107 201.189 86.5943C201.189 109.342 168.711 171.999 154.747 197.883C154.253 198.819 153.511 199.601 152.602 200.144C151.693 200.687 150.652 200.969 149.594 200.961ZM149.594 35.9602C136.17 35.9754 123.3 41.3149 113.807 50.8073C104.315 60.2998 98.9754 73.17 98.9602 86.5943C98.9602 109.121 131.357 171.607 145.286 197.427C145.705 198.205 146.326 198.855 147.085 199.308C147.843 199.761 148.711 200 149.594 200C150.478 200 151.345 199.761 152.103 199.308C152.862 198.855 153.483 198.205 153.902 197.427C167.831 171.608 200.228 109.123 200.228 86.5943C200.213 73.17 194.874 60.2998 185.381 50.8073C175.889 41.3149 163.019 35.9754 149.594 35.9602Z" fill="#3F3D56"/>
<rect x="4.5" y="0.5" width="290" height="212" stroke="#C4C4C4" stroke-dasharray="10 10"/>
</g>
<defs>
<filter id="filter0_d_183_104" x="0" y="0" width="299" height="222.353" filterUnits="userSpaceOnUse" color-interpolation-filters="sRGB">
<feFlood flood-opacity="0" result="BackgroundImageFix"/>
<feColorMatrix in="SourceAlpha" type="matrix" values="0 0 0 0 0 0 0 0 0 0 0 0 0 0 0 0 0 0 127 0" result="hardAlpha"/>
<feOffset dy="4"/>
<feGaussianBlur stdDeviation="2"/>
<feComposite in2="hardAlpha" operator="out"/>
<feColorMatrix type="matrix" values="0 0 0 0 0 0 0 0 0 0 0 0 0 0 0 0 0 0 0.25 0"/>
<feBlend mode="normal" in2="BackgroundImageFix" result="effect1_dropShadow_183_104"/>
<feBlend mode="normal" in="SourceGraphic" in2="effect1_dropShadow_183_104" result="shape"/>
</filter>
</defs>
</svg>
