<svg width="14" height="13" viewBox="0 0 14 13" fill="none" xmlns="http://www.w3.org/2000/svg">
<path d="M12.5263 1.44444H0.736842V0H12.5263V1.44444ZM8.32632 5.77778C7.73684 6.47111 7.36842 7.35222 7.36842 8.30556C7.36842 9.12889 7.68526 10.01 8.10526 10.8333V11.5556H0.736842V7.22222H0V5.77778L0.736842 2.16667H12.5263L13.0421 4.69444C12.5558 4.46333 12.0253 4.33333 11.4653 4.33333L11.3179 3.61111H1.94526L1.50316 5.77778H8.32632ZM6.63158 7.22222H2.21053V10.1111H6.63158V7.22222ZM14 8.30556C14 10.1833 11.4211 13 11.4211 13C11.4211 13 8.8421 10.1833 8.8421 8.30556C8.8421 6.93333 10.0211 5.77778 11.4211 5.77778C12.8211 5.77778 14 6.93333 14 8.30556ZM12.3053 8.37778C12.3053 7.94444 11.8632 7.51111 11.4211 7.51111C10.9789 7.51111 10.5368 7.87222 10.5368 8.37778C10.5368 8.81111 10.9053 9.24444 11.4211 9.24444C11.9368 9.24444 12.3789 8.81111 12.3053 8.37778Z" fill="#FB8C00"/>
</svg>
