<svg width="384" height="334" viewBox="0 0 384 334" fill="none" xmlns="http://www.w3.org/2000/svg">
<mask id="mask0_282_194" style="mask-type:alpha" maskUnits="userSpaceOnUse" x="0" y="0" width="384" height="334">
<rect y="0.512695" width="383.077" height="332.72" fill="#D9D9D9"/>
</mask>
<g mask="url(#mask0_282_194)">
<path d="M349.701 199.68H216.767V160.492C258.774 132.104 295.992 134.572 344.954 162.797L349.701 199.68Z" fill="#E4E4E4"/>
<path d="M273.954 129.446C306.154 129.446 332.257 104.097 332.257 72.8279C332.257 41.5587 306.154 16.21 273.954 16.21C241.753 16.21 215.65 41.5587 215.65 72.8279C215.65 104.097 241.753 129.446 273.954 129.446Z" fill="#FFB8B8"/>
<path d="M238.237 526.405C228.008 526.528 217.82 525.135 208.024 522.276C199.311 519.724 191.227 515.468 184.272 509.769C177.316 504.07 171.635 497.05 167.578 489.139C166.292 486.758 166.007 483.987 166.783 481.406C173.213 460.094 204.286 349.317 184.46 261.253C181.662 249.02 181.429 236.364 183.776 224.042C186.123 211.719 191.002 199.981 198.122 189.529C205.076 179.159 214.109 170.255 224.683 163.349C235.257 156.442 247.156 151.674 259.668 149.33L259.669 149.328C262.957 148.704 266.263 148.193 269.494 147.806C283.326 146.153 297.363 147.489 310.601 151.718C323.839 155.948 335.95 162.966 346.069 172.272C356.488 181.76 364.619 193.367 369.878 206.264C375.137 219.16 377.396 233.026 376.491 246.868L361.254 484.312C361.149 486.092 360.569 487.815 359.571 489.312C358.573 490.809 357.191 492.027 355.561 492.849C338.013 501.779 285.297 526.405 238.237 526.405Z" fill="#3F3D56"/>
<path d="M339.819 31.1518C333.763 16.371 322.669 4.05463 308.39 -3.74169C294.11 -11.538 277.509 -14.3426 261.358 -11.6872L279.741 2.73821C256.901 3.4851 232.859 1.89704 216.551 17.4438C221.742 17.3039 228.547 28.0876 233.739 27.9477C224.032 28.1342 215.231 34.757 210.943 43.2155C206.973 51.9055 206.044 61.6197 208.299 70.8711C210.216 80.1131 224.84 101.764 228.776 110.382C228.099 87.8603 273.759 34.1395 296.055 39.7459C284.727 43.8273 274.897 51.0747 267.805 60.5739C282.974 53.1402 300.129 50.4145 316.946 52.7661C320.786 53.6212 324.747 53.8365 328.661 53.4029C331.06 52.9421 333.297 51.8918 335.159 50.3522C337.02 48.8126 338.444 46.8351 339.295 44.6087C340.145 42.3824 340.394 39.9815 340.017 37.6353C339.639 35.2891 338.649 33.076 337.14 31.2074L339.819 31.1518Z" fill="#2F2E41"/>
<path d="M234.221 512.147C232.748 512.144 231.291 511.845 229.943 511.27L119.321 464.381C116.971 463.403 115.064 461.634 113.95 459.399C112.837 457.164 112.592 454.614 113.26 452.217L186.492 183.572C187.854 178.574 190.228 173.889 193.477 169.792C196.726 165.696 200.784 162.269 205.413 159.714C210.042 157.159 215.149 155.526 220.436 154.911C225.723 154.296 231.083 154.712 236.202 156.133L265.484 164.248L244.87 502.375C244.764 504.044 244.246 505.663 243.359 507.095C242.473 508.527 241.244 509.731 239.776 510.605C238.107 511.608 236.184 512.142 234.221 512.147Z" fill="#E4E4E4"/>
<path d="M438.958 452.215L434.091 434.396L427.041 408.485L423.646 396.06L416.596 370.219L365.725 183.568C364.368 178.567 361.996 173.879 358.748 169.781C355.5 165.682 351.442 162.255 346.812 159.699C342.182 157.144 337.073 155.513 331.785 154.901C326.497 154.289 321.136 154.709 316.017 156.136L286.747 164.25L301.251 402.077L302.748 426.904L303.697 442.556V442.579L305.215 467.268L307.353 502.376C307.527 505.012 308.723 507.486 310.701 509.299C312.679 511.113 315.29 512.131 318.011 512.15C319.481 512.141 320.935 511.843 322.284 511.274L432.904 464.386C435.255 463.408 437.163 461.637 438.276 459.4C439.388 457.163 439.631 454.611 438.958 452.215Z" fill="#E4E4E4"/>
<path d="M128.124 473.316C131.732 472.402 135.089 470.731 137.959 468.42C140.829 466.11 143.143 463.217 144.737 459.944C146.331 456.671 147.167 453.099 147.185 449.479C147.204 445.858 146.405 442.278 144.845 438.99L201.726 265.581L161.392 257.377L109.241 427.393C103.727 430.304 99.5039 435.079 97.3727 440.812C95.2414 446.545 95.3499 452.839 97.6775 458.499C100.005 464.16 104.39 468.795 110.002 471.526C115.613 474.257 122.061 474.894 128.124 473.316Z" fill="#FFB8B8"/>
<path d="M203.305 180.331C214.887 181.478 221.402 194.124 218.522 209.87L204.704 285.43C203.668 291.094 198.868 295.579 194.878 294.611L148.136 283.264C144.539 282.391 143.215 277.429 145.253 272.464L173.313 204.107C179.407 189.262 192.076 179.218 203.305 180.331Z" fill="#3F3D56"/>
<path d="M273.739 -33.144C293.471 -33.142 312.428 -25.6819 326.596 -12.3436C340.763 0.994746 349.028 19.1641 349.641 38.3169H363.944C365.203 38.317 366.411 38.8027 367.301 39.6673C368.192 40.5319 368.692 41.7046 368.692 42.9273V61.3688C368.692 62.5916 368.192 63.7642 367.301 64.6288C366.411 65.4934 365.203 65.9792 363.944 65.9792H202.524C201.264 65.9792 200.057 65.4934 199.167 64.6288C198.276 63.7642 197.776 62.5916 197.776 61.3688V40.622C197.776 30.9349 199.741 21.3426 203.558 12.3929C207.376 3.44313 212.971 -4.68878 220.025 -11.5386C227.079 -18.3884 235.453 -23.822 244.669 -27.5291C253.885 -31.2361 263.763 -33.1441 273.739 -33.144Z" fill="#F9A826"/>
<path d="M266.758 386.981C268.063 387.127 269.354 387.373 270.619 387.716L359.984 313.295L354.761 285.99L396.167 272.948L410.252 320.415C411.39 324.249 411.216 328.339 409.757 332.07C408.297 335.8 405.631 338.97 402.159 341.104L288.98 410.653C289.06 415.566 287.598 420.387 284.789 424.474C281.979 428.56 277.954 431.719 273.25 433.531C268.546 435.342 263.386 435.72 258.456 434.614C253.526 433.508 249.059 430.97 245.65 427.339C242.241 423.707 240.051 419.154 239.372 414.284C238.693 409.415 239.556 404.46 241.848 400.079C244.139 395.698 247.75 392.098 252.2 389.758C256.649 387.418 261.727 386.45 266.758 386.981Z" fill="#FFB8B8"/>
<path d="M360.217 186.571C372.588 183.208 384.95 192.352 389.092 207.931L408.969 282.689C410.459 288.293 407.565 294.248 403.045 294.879L350.093 302.276C346.018 302.845 342.428 298.787 342.279 293.443L340.223 219.877C339.776 203.901 348.222 189.832 360.217 186.571Z" fill="#3F3D56"/>
</g>
<mask id="path-13-outside-1_282_194" maskUnits="userSpaceOnUse" x="28" y="143" width="138" height="58" fill="black">
<rect fill="white" x="28" y="143" width="138" height="58"/>
<path d="M45.2904 185.47H53.3642V191H38.0645V165.009H45.2904V185.47ZM68.6347 191.258C66.2015 191.258 63.9649 190.693 61.925 189.562C59.885 188.407 58.2629 186.822 57.0586 184.806C55.8789 182.766 55.289 180.468 55.289 177.912C55.289 175.356 55.8789 173.071 57.0586 171.055C58.2629 169.015 59.885 167.43 61.925 166.299C63.9649 165.169 66.2015 164.604 68.6347 164.604C71.0925 164.604 73.3291 165.169 75.3444 166.299C77.3844 167.43 78.9942 169.015 80.174 171.055C81.3537 173.071 81.9435 175.356 81.9435 177.912C81.9435 180.468 81.3537 182.766 80.174 184.806C78.9942 186.822 77.3844 188.407 75.3444 189.562C73.3045 190.693 71.0679 191.258 68.6347 191.258ZM68.6347 184.548C70.478 184.548 71.9281 183.946 72.985 182.742C74.0664 181.538 74.6071 179.928 74.6071 177.912C74.6071 175.848 74.0664 174.226 72.985 173.046C71.9281 171.842 70.478 171.24 68.6347 171.24C66.7668 171.24 65.3044 171.842 64.2476 173.046C63.1907 174.226 62.6623 175.848 62.6623 177.912C62.6623 179.952 63.1907 181.574 64.2476 182.779C65.3044 183.958 66.7668 184.548 68.6347 184.548ZM84.307 177.949C84.307 175.393 84.8355 173.12 85.8923 171.129C86.9737 169.114 88.4975 167.553 90.4638 166.447C92.43 165.316 94.6911 164.751 97.2472 164.751C100.491 164.751 103.22 165.623 105.432 167.369C107.644 169.089 109.069 171.436 109.708 174.41H101.929C101.462 173.427 100.811 172.677 99.9753 172.161C99.1643 171.645 98.218 171.387 97.1366 171.387C95.4653 171.387 94.1258 171.989 93.1182 173.193C92.135 174.373 91.6435 175.958 91.6435 177.949C91.6435 179.965 92.135 181.574 93.1182 182.779C94.1258 183.958 95.4653 184.548 97.1366 184.548C98.218 184.548 99.1643 184.29 99.9753 183.774C100.811 183.258 101.462 182.508 101.929 181.525H109.708C109.069 184.499 107.644 186.859 105.432 188.604C103.22 190.324 100.491 191.184 97.2472 191.184C94.6911 191.184 92.43 190.631 90.4638 189.525C88.4975 188.395 86.9737 186.834 85.8923 184.843C84.8355 182.828 84.307 180.53 84.307 177.949ZM129.572 186.76H120.356L118.955 191H111.36L120.835 165.009H129.167L138.605 191H130.973L129.572 186.76ZM127.766 181.23L124.964 172.825L122.199 181.23H127.766ZM148.186 185.47H156.259V191H140.96V165.009H148.186V185.47Z"/>
</mask>
<path d="M45.2904 185.47H53.3642V191H38.0645V165.009H45.2904V185.47ZM68.6347 191.258C66.2015 191.258 63.9649 190.693 61.925 189.562C59.885 188.407 58.2629 186.822 57.0586 184.806C55.8789 182.766 55.289 180.468 55.289 177.912C55.289 175.356 55.8789 173.071 57.0586 171.055C58.2629 169.015 59.885 167.43 61.925 166.299C63.9649 165.169 66.2015 164.604 68.6347 164.604C71.0925 164.604 73.3291 165.169 75.3444 166.299C77.3844 167.43 78.9942 169.015 80.174 171.055C81.3537 173.071 81.9435 175.356 81.9435 177.912C81.9435 180.468 81.3537 182.766 80.174 184.806C78.9942 186.822 77.3844 188.407 75.3444 189.562C73.3045 190.693 71.0679 191.258 68.6347 191.258ZM68.6347 184.548C70.478 184.548 71.9281 183.946 72.985 182.742C74.0664 181.538 74.6071 179.928 74.6071 177.912C74.6071 175.848 74.0664 174.226 72.985 173.046C71.9281 171.842 70.478 171.24 68.6347 171.24C66.7668 171.24 65.3044 171.842 64.2476 173.046C63.1907 174.226 62.6623 175.848 62.6623 177.912C62.6623 179.952 63.1907 181.574 64.2476 182.779C65.3044 183.958 66.7668 184.548 68.6347 184.548ZM84.307 177.949C84.307 175.393 84.8355 173.12 85.8923 171.129C86.9737 169.114 88.4975 167.553 90.4638 166.447C92.43 165.316 94.6911 164.751 97.2472 164.751C100.491 164.751 103.22 165.623 105.432 167.369C107.644 169.089 109.069 171.436 109.708 174.41H101.929C101.462 173.427 100.811 172.677 99.9753 172.161C99.1643 171.645 98.218 171.387 97.1366 171.387C95.4653 171.387 94.1258 171.989 93.1182 173.193C92.135 174.373 91.6435 175.958 91.6435 177.949C91.6435 179.965 92.135 181.574 93.1182 182.779C94.1258 183.958 95.4653 184.548 97.1366 184.548C98.218 184.548 99.1643 184.29 99.9753 183.774C100.811 183.258 101.462 182.508 101.929 181.525H109.708C109.069 184.499 107.644 186.859 105.432 188.604C103.22 190.324 100.491 191.184 97.2472 191.184C94.6911 191.184 92.43 190.631 90.4638 189.525C88.4975 188.395 86.9737 186.834 85.8923 184.843C84.8355 182.828 84.307 180.53 84.307 177.949ZM129.572 186.76H120.356L118.955 191H111.36L120.835 165.009H129.167L138.605 191H130.973L129.572 186.76ZM127.766 181.23L124.964 172.825L122.199 181.23H127.766ZM148.186 185.47H156.259V191H140.96V165.009H148.186V185.47Z" fill="white"/>
<path d="M45.2904 185.47H36.0737V194.687H45.2904V185.47ZM53.3642 185.47H62.5808V176.253H53.3642V185.47ZM53.3642 191V200.217H62.5808V191H53.3642ZM38.0645 191H28.8479V200.217H38.0645V191ZM38.0645 165.009V155.792H28.8479V165.009H38.0645ZM45.2904 165.009H54.507V155.792H45.2904V165.009ZM45.2904 194.687H53.3642V176.253H45.2904V194.687ZM44.1475 185.47V191H62.5808V185.47H44.1475ZM53.3642 181.783H38.0645V200.217H53.3642V181.783ZM47.2812 191V165.009H28.8479V191H47.2812ZM38.0645 174.226H45.2904V155.792H38.0645V174.226ZM36.0737 165.009V185.47H54.507V165.009H36.0737ZM61.925 189.562L57.3835 197.582L57.4203 197.603L57.4572 197.624L61.925 189.562ZM57.0586 184.806L49.0801 189.42L49.1131 189.478L49.1469 189.534L57.0586 184.806ZM57.0586 171.055L49.1218 166.37L49.1131 166.384L49.1045 166.399L57.0586 171.055ZM75.3444 166.299L70.8352 174.338L70.8559 174.349L70.8767 174.361L75.3444 166.299ZM80.174 171.055L72.1954 175.669L72.2076 175.69L72.2199 175.711L80.174 171.055ZM80.174 184.806L88.1281 189.462L88.1403 189.442L88.1525 189.42L80.174 184.806ZM75.3444 189.562L79.8122 197.624L79.8491 197.603L79.8859 197.582L75.3444 189.562ZM72.985 182.742L66.1273 176.584L66.0922 176.623L66.0575 176.663L72.985 182.742ZM72.985 173.046L66.0575 179.125L66.1234 179.2L66.1909 179.274L72.985 173.046ZM64.2476 173.046L71.1125 179.196L71.1439 179.161L71.1751 179.125L64.2476 173.046ZM64.2476 182.779L57.3201 188.858L57.3512 188.893L57.3827 188.929L64.2476 182.779ZM68.6347 182.041C67.6944 182.041 67.0054 181.84 66.3927 181.501L57.4572 197.624C60.9245 199.545 64.7086 200.475 68.6347 200.475V182.041ZM66.4665 181.542C65.8184 181.175 65.3567 180.725 64.9703 180.079L49.1469 189.534C51.1691 192.918 53.9517 195.639 57.3835 197.582L66.4665 181.542ZM65.0371 180.192C64.7365 179.672 64.5057 178.99 64.5057 177.912H46.0724C46.0724 181.947 47.0213 185.86 49.0801 189.42L65.0371 180.192ZM64.5057 177.912C64.5057 176.833 64.7367 176.183 65.0127 175.711L49.1045 166.399C47.021 169.958 46.0724 173.879 46.0724 177.912H64.5057ZM64.9954 175.741C65.3785 175.092 65.8128 174.682 66.3927 174.361L57.4572 158.238C53.9573 160.178 51.1473 162.939 49.1218 166.37L64.9954 175.741ZM66.3927 174.361C67.0054 174.021 67.6944 173.82 68.6347 173.82V155.387C64.7086 155.387 60.9245 156.316 57.4572 158.238L66.3927 174.361ZM68.6347 173.82C69.6171 173.82 70.2849 174.029 70.8352 174.338L79.8537 158.261C76.3732 156.309 72.5678 155.387 68.6347 155.387V173.82ZM70.8767 174.361C71.4397 174.673 71.8428 175.059 72.1954 175.669L88.1525 166.441C86.1457 162.971 83.3291 160.187 79.8122 158.238L70.8767 174.361ZM72.2199 175.711C72.4959 176.183 72.7269 176.833 72.7269 177.912H91.1602C91.1602 173.879 90.2115 169.958 88.128 166.399L72.2199 175.711ZM72.7269 177.912C72.7269 178.99 72.4961 179.672 72.1954 180.192L88.1525 189.42C90.2113 185.86 91.1602 181.947 91.1602 177.912H72.7269ZM72.2198 180.15C71.8645 180.757 71.4344 181.185 70.8029 181.542L79.8859 197.582C83.3343 195.63 86.1239 192.886 88.1281 189.462L72.2198 180.15ZM70.8767 181.501C70.2641 181.84 69.575 182.041 68.6347 182.041V200.475C72.5608 200.475 76.3449 199.545 79.8122 197.624L70.8767 181.501ZM68.6347 193.765C72.689 193.765 76.8337 192.329 79.9124 188.821L66.0575 176.663C66.4394 176.228 66.9658 175.836 67.5702 175.585C68.1427 175.347 68.5512 175.332 68.6347 175.332V193.765ZM79.8426 188.9C82.7903 185.617 83.8237 181.621 83.8237 177.912H65.3905C65.3905 178.104 65.3643 177.995 65.4646 177.697C65.5743 177.37 65.7873 176.963 66.1273 176.584L79.8426 188.9ZM83.8237 177.912C83.8237 174.232 82.8293 170.146 79.7791 166.818L66.1909 179.274C65.7972 178.844 65.5688 178.395 65.4579 178.062C65.3578 177.762 65.3905 177.672 65.3905 177.912H83.8237ZM79.9124 166.967C76.8337 163.458 72.689 162.023 68.6347 162.023V180.456C68.5512 180.456 68.1427 180.441 67.5702 180.203C66.9658 179.952 66.4394 179.56 66.0575 179.125L79.9124 166.967ZM68.6347 162.023C64.599 162.023 60.4234 163.43 57.3201 166.967L71.1751 179.125C70.7801 179.575 70.2451 179.967 69.6462 180.214C69.0819 180.446 68.6903 180.456 68.6347 180.456V162.023ZM57.3827 166.896C54.3989 170.227 53.4457 174.284 53.4457 177.912H71.879C71.879 177.653 71.9135 177.721 71.822 178.002C71.7204 178.314 71.5034 178.759 71.1125 179.196L57.3827 166.896ZM53.4457 177.912C53.4457 181.56 54.4197 185.553 57.3201 188.858L71.1751 176.7C71.5234 177.096 71.7246 177.505 71.822 177.804C71.9102 178.075 71.879 178.147 71.879 177.912H53.4457ZM57.3827 188.929C60.5042 192.413 64.6614 193.765 68.6347 193.765V175.332C68.6683 175.332 69.0379 175.338 69.5847 175.558C70.167 175.793 70.7046 176.174 71.1125 176.629L57.3827 188.929ZM85.8923 171.129L77.771 166.771L77.7613 166.789L77.7516 166.807L85.8923 171.129ZM90.4638 166.447L94.9823 174.48L95.0203 174.459L95.058 174.437L90.4638 166.447ZM105.432 167.369L99.7232 174.605L99.7481 174.624L99.7731 174.644L105.432 167.369ZM109.708 174.41V183.627H121.116L118.719 172.474L109.708 174.41ZM101.929 174.41L93.6041 178.365L96.1036 183.627H101.929V174.41ZM99.9753 172.161L95.0272 179.937L95.0794 179.97L95.1321 180.003L99.9753 172.161ZM93.1182 173.193L86.0496 167.279L86.0436 167.286L86.0377 167.293L93.1182 173.193ZM93.1182 182.779L85.9784 188.607L86.0433 188.687L86.1101 188.765L93.1182 182.779ZM99.9753 183.774L95.1321 175.933L95.0794 175.965L95.0272 175.998L99.9753 183.774ZM101.929 181.525V172.309H96.1036L93.6041 177.571L101.929 181.525ZM109.708 181.525L118.719 183.462L121.116 172.309H109.708V181.525ZM105.432 188.604L111.09 195.879L111.115 195.859L111.14 195.84L105.432 188.604ZM90.4638 189.525L85.8695 197.515L85.9073 197.537L85.9452 197.558L90.4638 189.525ZM85.8923 184.843L77.7299 189.124L77.7612 189.183L77.7934 189.243L85.8923 184.843ZM93.5237 177.949C93.5237 176.696 93.7726 175.941 94.033 175.45L77.7516 166.807C75.8983 170.298 75.0904 174.091 75.0904 177.949H93.5237ZM94.0136 175.487C94.2796 174.991 94.5639 174.715 94.9823 174.48L85.9452 158.414C82.4312 160.39 79.6678 163.236 77.771 166.771L94.0136 175.487ZM95.058 174.437C95.456 174.208 96.0947 173.968 97.2472 173.968V155.534C93.2876 155.534 89.404 156.425 85.8695 158.457L95.058 174.437ZM97.2472 173.968C98.749 173.968 99.378 174.332 99.7232 174.605L111.14 160.132C107.061 156.915 102.234 155.534 97.2472 155.534V173.968ZM99.7731 174.644C100.124 174.917 100.472 175.296 100.697 176.346L118.719 172.474C117.667 167.576 115.163 163.261 111.09 160.093L99.7731 174.644ZM109.708 165.193H101.929V183.627H109.708V165.193ZM110.254 170.456C109.111 168.048 107.326 165.868 104.819 164.32L95.1321 180.003C94.7497 179.767 94.4107 179.475 94.1332 179.155C93.8603 178.841 93.6954 178.557 93.6041 178.365L110.254 170.456ZM104.924 164.385C102.454 162.814 99.7454 162.17 97.1366 162.17V180.604C96.9411 180.604 96.6258 180.58 96.2323 180.472C95.8314 180.363 95.4177 180.185 95.0272 179.937L104.924 164.385ZM97.1366 162.17C92.937 162.17 88.9331 163.833 86.0496 167.279L100.187 179.108C99.8597 179.499 99.3455 179.936 98.6575 180.245C97.9855 180.547 97.4242 180.604 97.1366 180.604V162.17ZM86.0377 167.293C83.309 170.568 82.4268 174.452 82.4268 177.949H100.86C100.86 177.701 100.892 177.75 100.815 177.997C100.731 178.27 100.546 178.677 100.199 179.094L86.0377 167.293ZM82.4268 177.949C82.4268 181.451 83.2975 185.323 85.9784 188.607L100.258 176.95C100.584 177.349 100.752 177.732 100.827 177.977C100.894 178.196 100.86 178.219 100.86 177.949H82.4268ZM86.1101 188.765C89.0166 192.168 93.0053 193.765 97.1366 193.765V175.332C97.3991 175.332 97.9374 175.382 98.593 175.671C99.267 175.968 99.7856 176.394 100.126 176.793L86.1101 188.765ZM97.1366 193.765C99.7454 193.765 102.454 193.121 104.924 191.55L95.0272 175.998C95.4177 175.75 95.8314 175.572 96.2323 175.463C96.6258 175.356 96.9411 175.332 97.1366 175.332V193.765ZM104.819 191.616C107.326 190.067 109.111 187.887 110.254 185.48L93.6041 177.571C93.6954 177.378 93.8603 177.094 94.1332 176.78C94.4107 176.46 94.7497 176.169 95.1321 175.933L104.819 191.616ZM101.929 190.742H109.708V172.309H101.929V190.742ZM100.697 179.589C100.47 180.645 100.113 181.06 99.7232 181.368L111.14 195.84C115.175 192.657 117.668 188.353 118.719 183.462L100.697 179.589ZM99.7731 181.328C99.4267 181.598 98.7795 181.968 97.2472 181.968V200.401C102.203 200.401 107.013 199.05 111.09 195.879L99.7731 181.328ZM97.2472 181.968C96.06 181.968 95.3937 181.724 94.9823 181.492L85.9452 197.558C89.4662 199.539 93.3223 200.401 97.2472 200.401V181.968ZM95.058 181.535C94.5678 181.254 94.258 180.935 93.9912 180.444L77.7934 189.243C79.6895 192.733 82.4273 195.536 85.8695 197.515L95.058 181.535ZM94.0548 180.563C93.7784 180.036 93.5237 179.241 93.5237 177.949H75.0904C75.0904 181.819 75.8925 185.62 77.7299 189.124L94.0548 180.563ZM129.572 186.76L138.324 183.869L136.234 177.544H129.572V186.76ZM120.356 186.76V177.544H113.694L111.604 183.869L120.356 186.76ZM118.955 191V200.217H125.616L127.706 193.892L118.955 191ZM111.36 191L102.701 187.843L98.1904 200.217H111.36V191ZM120.835 165.009V155.792H114.385L112.176 161.852L120.835 165.009ZM129.167 165.009L137.83 161.863L135.625 155.792H129.167V165.009ZM138.605 191V200.217H151.757L147.268 187.854L138.605 191ZM130.973 191L122.222 193.892L124.312 200.217H130.973V191ZM127.766 181.23V190.447H140.553L136.51 178.316L127.766 181.23ZM124.964 172.825L133.708 169.91L124.906 143.505L116.209 169.945L124.964 172.825ZM122.199 181.23L113.444 178.35L109.465 190.447H122.199V181.23ZM129.572 177.544H120.356V195.977H129.572V177.544ZM111.604 183.869L110.203 188.108L127.706 193.892L129.107 189.652L111.604 183.869ZM118.955 181.783H111.36V200.217H118.955V181.783ZM120.019 194.157L129.494 168.166L112.176 161.852L102.701 187.843L120.019 194.157ZM120.835 174.226H129.167V155.792H120.835V174.226ZM120.504 168.155L129.941 194.146L147.268 187.854L137.83 161.863L120.504 168.155ZM138.605 181.783H130.973V200.217H138.605V181.783ZM139.724 188.108L138.324 183.869L120.821 189.652L122.222 193.892L139.724 188.108ZM136.51 178.316L133.708 169.91L116.22 175.739L119.022 184.145L136.51 178.316ZM116.209 169.945L113.444 178.35L130.954 184.11L133.719 175.705L116.209 169.945ZM122.199 190.447H127.766V172.014H122.199V190.447ZM148.186 185.47H138.969V194.687H148.186V185.47ZM156.259 185.47H165.476V176.253H156.259V185.47ZM156.259 191V200.217H165.476V191H156.259ZM140.96 191H131.743V200.217H140.96V191ZM140.96 165.009V155.792H131.743V165.009H140.96ZM148.186 165.009H157.402V155.792H148.186V165.009ZM148.186 194.687H156.259V176.253H148.186V194.687ZM147.043 185.47V191H165.476V185.47H147.043ZM156.259 181.783H140.96V200.217H156.259V181.783ZM150.176 191V165.009H131.743V191H150.176ZM140.96 174.226H148.186V155.792H140.96V174.226ZM138.969 165.009V185.47H157.402V165.009H138.969Z" fill="#2E2C43" mask="url(#path-13-outside-1_282_194)"/>
<mask id="path-15-outside-2_282_194" maskUnits="userSpaceOnUse" x="30" y="195" width="290" height="60" fill="black">
<rect fill="white" x="30" y="195" width="290" height="60"/>
<path d="M68.4057 213.009V239H61.1799V224.659L56.2766 239H50.2305L45.2904 224.548V239H38.0645V213.009H46.8019L53.3273 229.894L59.7052 213.009H68.4057ZM88.9614 234.76H79.7448L78.3439 239H70.7494L80.2241 213.009H88.5559L97.9938 239H90.3624L88.9614 234.76ZM87.155 229.23L84.3531 220.825L81.5881 229.23H87.155ZM107.575 213.009V239H100.349V213.009H107.575ZM135.764 239H128.538L118.916 224.475V239H111.69V213.009H118.916L128.538 227.719V213.009H135.764V239ZM159.456 213.009V218.76H152.525V239H145.299V218.76H138.442V213.009H159.456ZM169.355 218.797V223.037H177.65V228.53H169.355V233.212H178.756V239H162.129V213.009H178.756V218.797H169.355ZM206.401 239H199.175L189.553 224.475V239H182.327V213.009H189.553L199.175 227.719V213.009H206.401V239ZM226.959 234.76H217.742L216.342 239H208.747L218.222 213.009H226.554L235.991 239H228.36L226.959 234.76ZM225.153 229.23L222.351 220.825L219.586 229.23H225.153ZM262.42 239H255.195L245.572 224.475V239H238.347V213.009H245.572L255.195 227.719V213.009H262.42V239ZM265.652 225.949C265.652 223.393 266.18 221.12 267.237 219.129C268.318 217.114 269.842 215.553 271.808 214.447C273.775 213.316 276.036 212.751 278.592 212.751C281.836 212.751 284.564 213.623 286.776 215.369C288.988 217.089 290.414 219.436 291.053 222.41H283.274C282.807 221.427 282.156 220.677 281.32 220.161C280.509 219.645 279.563 219.387 278.481 219.387C276.81 219.387 275.471 219.989 274.463 221.193C273.48 222.373 272.988 223.958 272.988 225.949C272.988 227.965 273.48 229.574 274.463 230.779C275.471 231.958 276.81 232.548 278.481 232.548C279.563 232.548 280.509 232.29 281.32 231.774C282.156 231.258 282.807 230.508 283.274 229.525H291.053C290.414 232.499 288.988 234.859 286.776 236.604C284.564 238.324 281.836 239.184 278.592 239.184C276.036 239.184 273.775 238.631 271.808 237.525C269.842 236.395 268.318 234.834 267.237 232.843C266.18 230.828 265.652 228.53 265.652 225.949ZM301.7 218.797V223.037H309.995V228.53H301.7V233.212H311.101V239H294.475V213.009H311.101V218.797H301.7Z"/>
</mask>
<path d="M68.4057 213.009V239H61.1799V224.659L56.2766 239H50.2305L45.2904 224.548V239H38.0645V213.009H46.8019L53.3273 229.894L59.7052 213.009H68.4057ZM88.9614 234.76H79.7448L78.3439 239H70.7494L80.2241 213.009H88.5559L97.9938 239H90.3624L88.9614 234.76ZM87.155 229.23L84.3531 220.825L81.5881 229.23H87.155ZM107.575 213.009V239H100.349V213.009H107.575ZM135.764 239H128.538L118.916 224.475V239H111.69V213.009H118.916L128.538 227.719V213.009H135.764V239ZM159.456 213.009V218.76H152.525V239H145.299V218.76H138.442V213.009H159.456ZM169.355 218.797V223.037H177.65V228.53H169.355V233.212H178.756V239H162.129V213.009H178.756V218.797H169.355ZM206.401 239H199.175L189.553 224.475V239H182.327V213.009H189.553L199.175 227.719V213.009H206.401V239ZM226.959 234.76H217.742L216.342 239H208.747L218.222 213.009H226.554L235.991 239H228.36L226.959 234.76ZM225.153 229.23L222.351 220.825L219.586 229.23H225.153ZM262.42 239H255.195L245.572 224.475V239H238.347V213.009H245.572L255.195 227.719V213.009H262.42V239ZM265.652 225.949C265.652 223.393 266.18 221.12 267.237 219.129C268.318 217.114 269.842 215.553 271.808 214.447C273.775 213.316 276.036 212.751 278.592 212.751C281.836 212.751 284.564 213.623 286.776 215.369C288.988 217.089 290.414 219.436 291.053 222.41H283.274C282.807 221.427 282.156 220.677 281.32 220.161C280.509 219.645 279.563 219.387 278.481 219.387C276.81 219.387 275.471 219.989 274.463 221.193C273.48 222.373 272.988 223.958 272.988 225.949C272.988 227.965 273.48 229.574 274.463 230.779C275.471 231.958 276.81 232.548 278.481 232.548C279.563 232.548 280.509 232.29 281.32 231.774C282.156 231.258 282.807 230.508 283.274 229.525H291.053C290.414 232.499 288.988 234.859 286.776 236.604C284.564 238.324 281.836 239.184 278.592 239.184C276.036 239.184 273.775 238.631 271.808 237.525C269.842 236.395 268.318 234.834 267.237 232.843C266.18 230.828 265.652 228.53 265.652 225.949ZM301.7 218.797V223.037H309.995V228.53H301.7V233.212H311.101V239H294.475V213.009H311.101V218.797H301.7Z" fill="white"/>
<path d="M68.4057 213.009H76.4057V205.009H68.4057V213.009ZM68.4057 239V247H76.4057V239H68.4057ZM61.1799 239H53.1799V247H61.1799V239ZM61.1799 224.659H69.1799L53.6101 222.071L61.1799 224.659ZM56.2766 239V247H61.9961L63.8464 241.588L56.2766 239ZM50.2305 239L42.6606 241.588L44.5107 247H50.2305V239ZM45.2904 224.548L52.8603 221.961L37.2904 224.548H45.2904ZM45.2904 239V247H53.2904V239H45.2904ZM38.0645 239H30.0645V247H38.0645V239ZM38.0645 213.009V205.009H30.0645V213.009H38.0645ZM46.8019 213.009L54.264 210.125L52.2868 205.009H46.8019V213.009ZM53.3273 229.894L45.8652 232.778L53.4127 252.308L60.8112 232.721L53.3273 229.894ZM59.7052 213.009V205.009H54.1754L52.2213 210.182L59.7052 213.009ZM60.4057 213.009V239H76.4057V213.009H60.4057ZM68.4057 231H61.1799V247H68.4057V231ZM69.1799 239V224.659H53.1799V239H69.1799ZM53.6101 222.071L48.7068 236.412L63.8464 241.588L68.7497 227.247L53.6101 222.071ZM56.2766 231H50.2305V247H56.2766V231ZM57.8004 236.412L52.8603 221.961L37.7204 227.136L42.6606 241.588L57.8004 236.412ZM37.2904 224.548V239H53.2904V224.548H37.2904ZM45.2904 231H38.0645V247H45.2904V231ZM46.0645 239V213.009H30.0645V239H46.0645ZM38.0645 221.009H46.8019V205.009H38.0645V221.009ZM39.3398 215.893L45.8652 232.778L60.7894 227.01L54.264 210.125L39.3398 215.893ZM60.8112 232.721L67.1891 215.836L52.2213 210.182L45.8434 227.067L60.8112 232.721ZM59.7052 221.009H68.4057V205.009H59.7052V221.009ZM88.9614 234.76L96.5575 232.25L94.7434 226.76H88.9614V234.76ZM79.7448 234.76V226.76H73.9628L72.1488 232.25L79.7448 234.76ZM78.3439 239V247H84.1258L85.9399 241.51L78.3439 239ZM70.7494 239L63.2332 236.26L59.3181 247H70.7494V239ZM80.2241 213.009V205.009H74.6254L72.7079 210.269L80.2241 213.009ZM88.5559 213.009L96.0755 210.279L94.162 205.009H88.5559V213.009ZM97.9938 239V247H109.41L105.513 236.269L97.9938 239ZM90.3624 239L82.7663 241.51L84.5804 247H90.3624V239ZM87.155 229.23V237.23H98.2544L94.7444 226.701L87.155 229.23ZM84.3531 220.825L91.9426 218.295L84.3028 195.376L76.7537 218.325L84.3531 220.825ZM81.5881 229.23L73.9887 226.731L70.5348 237.23H81.5881V229.23ZM88.9614 226.76H79.7448V242.76H88.9614V226.76ZM72.1488 232.25L70.7478 236.49L85.9399 241.51L87.3408 237.27L72.1488 232.25ZM78.3439 231H70.7494V247H78.3439V231ZM78.2655 241.74L87.7402 215.749L72.7079 210.269L63.2332 236.26L78.2655 241.74ZM80.2241 221.009H88.5559V205.009H80.2241V221.009ZM81.0363 215.74L90.4742 241.731L105.513 236.269L96.0755 210.279L81.0363 215.74ZM97.9938 231H90.3624V247H97.9938V231ZM97.9584 236.49L96.5575 232.25L81.3654 237.27L82.7663 241.51L97.9584 236.49ZM94.7444 226.701L91.9426 218.295L76.7637 223.355L79.5655 231.76L94.7444 226.701ZM76.7537 218.325L73.9887 226.731L89.1875 231.73L91.9525 223.325L76.7537 218.325ZM81.5881 237.23H87.155V221.23H81.5881V237.23ZM107.575 213.009H115.575V205.009H107.575V213.009ZM107.575 239V247H115.575V239H107.575ZM100.349 239H92.3489V247H100.349V239ZM100.349 213.009V205.009H92.3489V213.009H100.349ZM99.5748 213.009V239H115.575V213.009H99.5748ZM107.575 231H100.349V247H107.575V231ZM108.349 239V213.009H92.3489V239H108.349ZM100.349 221.009H107.575V205.009H100.349V221.009ZM135.764 239V247H143.764V239H135.764ZM128.538 239L121.868 243.418L124.241 247H128.538V239ZM118.916 224.475L125.585 220.057L110.916 197.912V224.475H118.916ZM118.916 239V247H126.916V239H118.916ZM111.69 239H103.69V247H111.69V239ZM111.69 213.009V205.009H103.69V213.009H111.69ZM118.916 213.009L125.61 208.63L123.242 205.009H118.916V213.009ZM128.538 227.719L121.843 232.098L136.538 254.563V227.719H128.538ZM128.538 213.009V205.009H120.538V213.009H128.538ZM135.764 213.009H143.764V205.009H135.764V213.009ZM135.764 231H128.538V247H135.764V231ZM135.207 234.582L125.585 220.057L112.246 228.893L121.868 243.418L135.207 234.582ZM110.916 224.475V239H126.916V224.475H110.916ZM118.916 231H111.69V247H118.916V231ZM119.69 239V213.009H103.69V239H119.69ZM111.69 221.009H118.916V205.009H111.69V221.009ZM112.221 217.388L121.843 232.098L135.233 223.339L125.61 208.63L112.221 217.388ZM136.538 227.719V213.009H120.538V227.719H136.538ZM128.538 221.009H135.764V205.009H128.538V221.009ZM127.764 213.009V239H143.764V213.009H127.764ZM159.456 213.009H167.456V205.009H159.456V213.009ZM159.456 218.76V226.76H167.456V218.76H159.456ZM152.525 218.76V210.76H144.525V218.76H152.525ZM152.525 239V247H160.525V239H152.525ZM145.299 239H137.299V247H145.299V239ZM145.299 218.76H153.299V210.76H145.299V218.76ZM138.442 218.76H130.442V226.76H138.442V218.76ZM138.442 213.009V205.009H130.442V213.009H138.442ZM151.456 213.009V218.76H167.456V213.009H151.456ZM159.456 210.76H152.525V226.76H159.456V210.76ZM144.525 218.76V239H160.525V218.76H144.525ZM152.525 231H145.299V247H152.525V231ZM153.299 239V218.76H137.299V239H153.299ZM145.299 210.76H138.442V226.76H145.299V210.76ZM146.442 218.76V213.009H130.442V218.76H146.442ZM138.442 221.009H159.456V205.009H138.442V221.009ZM169.355 218.797V210.797H161.355V218.797H169.355ZM169.355 223.037H161.355V231.037H169.355V223.037ZM177.65 223.037H185.65V215.037H177.65V223.037ZM177.65 228.53V236.53H185.65V228.53H177.65ZM169.355 228.53V220.53H161.355V228.53H169.355ZM169.355 233.212H161.355V241.212H169.355V233.212ZM178.756 233.212H186.756V225.212H178.756V233.212ZM178.756 239V247H186.756V239H178.756ZM162.129 239H154.129V247H162.129V239ZM162.129 213.009V205.009H154.129V213.009H162.129ZM178.756 213.009H186.756V205.009H178.756V213.009ZM178.756 218.797V226.797H186.756V218.797H178.756ZM161.355 218.797V223.037H177.355V218.797H161.355ZM169.355 231.037H177.65V215.037H169.355V231.037ZM169.65 223.037V228.53H185.65V223.037H169.65ZM177.65 220.53H169.355V236.53H177.65V220.53ZM161.355 228.53V233.212H177.355V228.53H161.355ZM169.355 241.212H178.756V225.212H169.355V241.212ZM170.756 233.212V239H186.756V233.212H170.756ZM178.756 231H162.129V247H178.756V231ZM170.129 239V213.009H154.129V239H170.129ZM162.129 221.009H178.756V205.009H162.129V221.009ZM170.756 213.009V218.797H186.756V213.009H170.756ZM178.756 210.797H169.355V226.797H178.756V210.797ZM206.401 239V247H214.401V239H206.401ZM199.175 239L192.505 243.418L194.878 247H199.175V239ZM189.553 224.475L196.222 220.057L181.553 197.912V224.475H189.553ZM189.553 239V247H197.553V239H189.553ZM182.327 239H174.327V247H182.327V239ZM182.327 213.009V205.009H174.327V213.009H182.327ZM189.553 213.009L196.247 208.63L193.879 205.009H189.553V213.009ZM199.175 227.719L192.48 232.098L207.175 254.563V227.719H199.175ZM199.175 213.009V205.009H191.175V213.009H199.175ZM206.401 213.009H214.401V205.009H206.401V213.009ZM206.401 231H199.175V247H206.401V231ZM205.844 234.582L196.222 220.057L182.883 228.893L192.505 243.418L205.844 234.582ZM181.553 224.475V239H197.553V224.475H181.553ZM189.553 231H182.327V247H189.553V231ZM190.327 239V213.009H174.327V239H190.327ZM182.327 221.009H189.553V205.009H182.327V221.009ZM182.858 217.388L192.48 232.098L205.87 223.339L196.247 208.63L182.858 217.388ZM207.175 227.719V213.009H191.175V227.719H207.175ZM199.175 221.009H206.401V205.009H199.175V221.009ZM198.401 213.009V239H214.401V213.009H198.401ZM226.959 234.76L234.555 232.25L232.741 226.76H226.959V234.76ZM217.742 234.76V226.76H211.961L210.146 232.25L217.742 234.76ZM216.342 239V247H222.124L223.938 241.51L216.342 239ZM208.747 239L201.231 236.26L197.316 247H208.747V239ZM218.222 213.009V205.009H212.623L210.706 210.269L218.222 213.009ZM226.554 213.009L234.073 210.279L232.16 205.009H226.554V213.009ZM235.991 239V247H247.408L243.511 236.269L235.991 239ZM228.36 239L220.764 241.51L222.578 247H228.36V239ZM225.153 229.23V237.23H236.252L232.742 226.701L225.153 229.23ZM222.351 220.825L229.94 218.295L222.301 195.376L214.751 218.325L222.351 220.825ZM219.586 229.23L211.986 226.731L208.533 237.23H219.586V229.23ZM226.959 226.76H217.742V242.76H226.959V226.76ZM210.146 232.25L208.746 236.49L223.938 241.51L225.339 237.27L210.146 232.25ZM216.342 231H208.747V247H216.342V231ZM216.263 241.74L225.738 215.749L210.706 210.269L201.231 236.26L216.263 241.74ZM218.222 221.009H226.554V205.009H218.222V221.009ZM219.034 215.74L228.472 241.731L243.511 236.269L234.073 210.279L219.034 215.74ZM235.991 231H228.36V247H235.991V231ZM235.956 236.49L234.555 232.25L219.363 237.27L220.764 241.51L235.956 236.49ZM232.742 226.701L229.94 218.295L214.761 223.355L217.563 231.76L232.742 226.701ZM214.751 218.325L211.986 226.731L227.185 231.73L229.95 223.325L214.751 218.325ZM219.586 237.23H225.153V221.23H219.586V237.23ZM262.42 239V247H270.42V239H262.42ZM255.195 239L248.525 243.418L250.898 247H255.195V239ZM245.572 224.475L252.242 220.057L237.572 197.912V224.475H245.572ZM245.572 239V247H253.572V239H245.572ZM238.347 239H230.347V247H238.347V239ZM238.347 213.009V205.009H230.347V213.009H238.347ZM245.572 213.009L252.267 208.63L249.899 205.009H245.572V213.009ZM255.195 227.719L248.5 232.098L263.195 254.563V227.719H255.195ZM255.195 213.009V205.009H247.195V213.009H255.195ZM262.42 213.009H270.42V205.009H262.42V213.009ZM262.42 231H255.195V247H262.42V231ZM261.864 234.582L252.242 220.057L238.903 228.893L248.525 243.418L261.864 234.582ZM237.572 224.475V239H253.572V224.475H237.572ZM245.572 231H238.347V247H245.572V231ZM246.347 239V213.009H230.347V239H246.347ZM238.347 221.009H245.572V205.009H238.347V221.009ZM238.878 217.388L248.5 232.098L261.889 223.339L252.267 208.63L238.878 217.388ZM263.195 227.719V213.009H247.195V227.719H263.195ZM255.195 221.009H262.42V205.009H255.195V221.009ZM254.42 213.009V239H270.42V213.009H254.42ZM267.237 219.129L260.188 215.346L260.179 215.362L260.171 215.378L267.237 219.129ZM271.808 214.447L275.731 221.419L275.764 221.401L275.796 221.382L271.808 214.447ZM286.776 215.369L281.821 221.649L281.843 221.666L281.865 221.683L286.776 215.369ZM291.053 222.41V230.41H300.954L298.874 220.729L291.053 222.41ZM283.274 222.41L276.048 225.842L278.217 230.41H283.274V222.41ZM281.32 220.161L277.025 226.91L277.07 226.939L277.116 226.968L281.32 220.161ZM274.463 221.193L268.327 216.06L268.322 216.066L268.317 216.072L274.463 221.193ZM274.463 230.779L268.266 235.838L268.322 235.907L268.38 235.975L274.463 230.779ZM281.32 231.774L277.116 224.968L277.07 224.996L277.025 225.025L281.32 231.774ZM283.274 229.525V221.525H278.217L276.048 226.093L283.274 229.525ZM291.053 229.525L298.874 231.206L300.954 221.525H291.053V229.525ZM286.776 236.604L291.688 242.918L291.71 242.902L291.731 242.885L286.776 236.604ZM271.808 237.525L267.821 244.461L267.853 244.479L267.886 244.498L271.808 237.525ZM267.237 232.843L260.152 236.559L260.179 236.61L260.207 236.662L267.237 232.843ZM273.652 225.949C273.652 224.524 273.938 223.569 274.303 222.88L260.171 215.378C258.423 218.671 257.652 222.263 257.652 225.949H273.652ZM274.286 222.911C274.66 222.215 275.108 221.77 275.731 221.419L267.886 207.474C264.577 209.336 261.977 212.012 260.188 215.346L274.286 222.911ZM275.796 221.382C276.401 221.034 277.254 220.751 278.592 220.751V204.751C274.818 204.751 271.148 205.598 267.821 207.512L275.796 221.382ZM278.592 220.751C280.324 220.751 281.23 221.183 281.821 221.649L291.731 209.088C287.899 206.064 283.349 204.751 278.592 204.751V220.751ZM281.865 221.683C282.461 222.147 282.951 222.787 283.231 224.091L298.874 220.729C297.876 216.086 295.515 212.031 291.688 209.054L281.865 221.683ZM291.053 214.41H283.274V230.41H291.053V214.41ZM290.5 218.978C289.446 216.758 287.811 214.767 285.524 213.355L277.116 226.968C276.839 226.797 276.594 226.585 276.396 226.357C276.202 226.134 276.096 225.945 276.048 225.842L290.5 218.978ZM285.615 213.412C283.365 211.98 280.889 211.387 278.481 211.387V227.387C278.383 227.387 278.176 227.375 277.897 227.299C277.612 227.221 277.311 227.092 277.025 226.91L285.615 213.412ZM278.481 211.387C274.615 211.387 270.963 212.909 268.327 216.06L280.598 226.327C280.381 226.587 280.012 226.907 279.503 227.135C279.009 227.358 278.621 227.387 278.481 227.387V211.387ZM268.317 216.072C265.819 219.07 264.988 222.651 264.988 225.949H280.988C280.988 225.602 281.032 225.527 280.998 225.637C280.98 225.694 280.944 225.793 280.877 225.919C280.809 226.046 280.72 226.182 280.609 226.315L268.317 216.072ZM264.988 225.949C264.988 229.255 265.809 232.828 268.266 235.838L280.66 225.72C280.763 225.845 280.843 225.971 280.904 226.086C280.963 226.2 280.994 226.287 281.008 226.332C281.034 226.416 280.988 226.316 280.988 225.949H264.988ZM268.38 235.975C271.036 239.084 274.675 240.548 278.481 240.548V224.548C278.599 224.548 278.967 224.573 279.447 224.784C279.944 225.003 280.317 225.315 280.546 225.583L268.38 235.975ZM278.481 240.548C280.889 240.548 283.365 239.955 285.615 238.523L277.025 225.025C277.311 224.843 277.612 224.715 277.897 224.637C278.176 224.561 278.383 224.548 278.481 224.548V240.548ZM285.524 238.581C287.811 237.168 289.446 235.177 290.5 232.958L276.048 226.093C276.096 225.991 276.202 225.801 276.396 225.578C276.594 225.35 276.839 225.139 277.116 224.968L285.524 238.581ZM283.274 237.525H291.053V221.525H283.274V237.525ZM283.231 227.845C282.95 229.154 282.451 229.826 281.821 230.323L291.731 242.885C295.525 239.891 297.878 235.844 298.874 231.206L283.231 227.845ZM281.865 230.289C281.272 230.75 280.35 231.184 278.592 231.184V247.184C283.322 247.184 287.857 245.898 291.688 242.918L281.865 230.289ZM278.592 231.184C277.224 231.184 276.347 230.9 275.731 230.553L267.886 244.498C271.202 246.363 274.848 247.184 278.592 247.184V231.184ZM275.796 230.59C275.111 230.196 274.641 229.714 274.267 229.025L260.207 236.662C261.996 239.954 264.573 242.593 267.821 244.461L275.796 230.59ZM274.322 229.128C273.943 228.405 273.652 227.411 273.652 225.949H257.652C257.652 229.649 258.418 233.251 260.152 236.559L274.322 229.128ZM301.7 218.797V210.797H293.7V218.797H301.7ZM301.7 223.037H293.7V231.037H301.7V223.037ZM309.995 223.037H317.995V215.037H309.995V223.037ZM309.995 228.53V236.53H317.995V228.53H309.995ZM301.7 228.53V220.53H293.7V228.53H301.7ZM301.7 233.212H293.7V241.212H301.7V233.212ZM311.101 233.212H319.101V225.212H311.101V233.212ZM311.101 239V247H319.101V239H311.101ZM294.475 239H286.475V247H294.475V239ZM294.475 213.009V205.009H286.475V213.009H294.475ZM311.101 213.009H319.101V205.009H311.101V213.009ZM311.101 218.797V226.797H319.101V218.797H311.101ZM293.7 218.797V223.037H309.7V218.797H293.7ZM301.7 231.037H309.995V215.037H301.7V231.037ZM301.995 223.037V228.53H317.995V223.037H301.995ZM309.995 220.53H301.7V236.53H309.995V220.53ZM293.7 228.53V233.212H309.7V228.53H293.7ZM301.7 241.212H311.101V225.212H301.7V241.212ZM303.101 233.212V239H319.101V233.212H303.101ZM311.101 231H294.475V247H311.101V231ZM302.475 239V213.009H286.475V239H302.475ZM294.475 221.009H311.101V205.009H294.475V221.009ZM303.101 213.009V218.797H319.101V213.009H303.101ZM311.101 210.797H301.7V226.797H311.101V210.797Z" fill="#2E2C43" mask="url(#path-15-outside-2_282_194)"/>
<mask id="path-17-outside-3_282_194" maskUnits="userSpaceOnUse" x="27" y="248" width="325" height="55" fill="black">
<rect fill="white" x="27" y="248" width="325" height="55"/>
<path d="M46.871 283.258C43.848 283.258 41.3656 282.545 39.424 281.12C37.4824 279.67 36.4378 277.605 36.2903 274.926H43.9954C44.0692 275.836 44.3395 276.499 44.8065 276.917C45.2735 277.335 45.8756 277.544 46.613 277.544C47.2766 277.544 47.8173 277.384 48.2351 277.064C48.6775 276.72 48.8987 276.253 48.8987 275.664C48.8987 274.902 48.5423 274.312 47.8296 273.894C47.1168 273.476 45.9617 273.009 44.3641 272.493C42.6683 271.928 41.2919 271.387 40.2351 270.871C39.2028 270.33 38.2934 269.556 37.5069 268.548C36.745 267.516 36.3641 266.177 36.3641 264.53C36.3641 262.859 36.7819 261.433 37.6175 260.253C38.4532 259.049 39.6083 258.14 41.083 257.525C42.5577 256.911 44.2289 256.604 46.0968 256.604C49.1199 256.604 51.5285 257.316 53.3227 258.742C55.1414 260.143 56.1123 262.121 56.2352 264.677H48.3826C48.358 263.891 48.1122 263.301 47.6452 262.908C47.2028 262.514 46.6253 262.318 45.9125 262.318C45.3718 262.318 44.9294 262.478 44.5853 262.797C44.2412 263.117 44.0692 263.571 44.0692 264.161C44.0692 264.653 44.2535 265.083 44.6222 265.452C45.0154 265.796 45.4947 266.103 46.06 266.373C46.6253 266.619 47.4609 266.938 48.5669 267.332C50.2136 267.897 51.5654 268.462 52.6222 269.028C53.7036 269.568 54.6253 270.342 55.3872 271.35C56.1737 272.333 56.567 273.587 56.567 275.111C56.567 276.659 56.1737 278.048 55.3872 279.276C54.6253 280.505 53.507 281.476 52.0324 282.189C50.5823 282.902 48.8618 283.258 46.871 283.258ZM67.152 262.797V267.037H75.447V272.53H67.152V277.212H76.553V283H59.9261V257.009H76.553V262.797H67.152ZM93.2849 283L88.1236 273.415H87.3494V283H80.1236V257.009H91.5153C93.6044 257.009 95.374 257.378 96.8241 258.115C98.2742 258.828 99.3679 259.823 100.105 261.101C100.843 262.355 101.211 263.768 101.211 265.341C101.211 267.11 100.72 268.671 99.7366 270.023C98.778 271.35 97.3648 272.296 95.4969 272.862L101.359 283H93.2849ZM87.3494 268.475H90.9255C91.9086 268.475 92.6459 268.241 93.1375 267.774C93.629 267.307 93.8748 266.631 93.8748 265.746C93.8748 264.911 93.6167 264.259 93.1006 263.793C92.609 263.301 91.884 263.055 90.9255 263.055H87.3494V268.475ZM129.788 257.009L120.829 283H111.576L102.58 257.009H110.322L116.221 275.774L122.083 257.009H129.788ZM139.265 257.009V283H132.039V257.009H139.265ZM142.495 269.949C142.495 267.393 143.024 265.12 144.08 263.129C145.162 261.114 146.686 259.553 148.652 258.447C150.618 257.316 152.879 256.751 155.435 256.751C158.68 256.751 161.408 257.623 163.62 259.369C165.832 261.089 167.257 263.436 167.896 266.41H160.117C159.65 265.427 158.999 264.677 158.163 264.161C157.352 263.645 156.406 263.387 155.325 263.387C153.653 263.387 152.314 263.989 151.306 265.193C150.323 266.373 149.832 267.958 149.832 269.949C149.832 271.965 150.323 273.574 151.306 274.779C152.314 275.958 153.653 276.548 155.325 276.548C156.406 276.548 157.352 276.29 158.163 275.774C158.999 275.258 159.65 274.508 160.117 273.525H167.896C167.257 276.499 165.832 278.859 163.62 280.604C161.408 282.324 158.68 283.184 155.435 283.184C152.879 283.184 150.618 282.631 148.652 281.525C146.686 280.395 145.162 278.834 144.08 276.843C143.024 274.828 142.495 272.53 142.495 269.949ZM178.544 262.797V267.037H186.839V272.53H178.544V277.212H187.945V283H171.318V257.009H187.945V262.797H178.544ZM201.322 283.258C198.299 283.258 195.816 282.545 193.875 281.12C191.933 279.67 190.889 277.605 190.741 274.926H198.446C198.52 275.836 198.79 276.499 199.257 276.917C199.724 277.335 200.326 277.544 201.064 277.544C201.727 277.544 202.268 277.384 202.686 277.064C203.128 276.72 203.35 276.253 203.35 275.664C203.35 274.902 202.993 274.312 202.28 273.894C201.568 273.476 200.413 273.009 198.815 272.493C197.119 271.928 195.743 271.387 194.686 270.871C193.654 270.33 192.744 269.556 191.958 268.548C191.196 267.516 190.815 266.177 190.815 264.53C190.815 262.859 191.233 261.433 192.068 260.253C192.904 259.049 194.059 258.14 195.534 257.525C197.008 256.911 198.68 256.604 200.548 256.604C203.571 256.604 205.979 257.316 207.774 258.742C209.592 260.143 210.563 262.121 210.686 264.677H202.833C202.809 263.891 202.563 263.301 202.096 262.908C201.654 262.514 201.076 262.318 200.363 262.318C199.823 262.318 199.38 262.478 199.036 262.797C198.692 263.117 198.52 263.571 198.52 264.161C198.52 264.653 198.704 265.083 199.073 265.452C199.466 265.796 199.946 266.103 200.511 266.373C201.076 266.619 201.912 266.938 203.018 267.332C204.664 267.897 206.016 268.462 207.073 269.028C208.154 269.568 209.076 270.342 209.838 271.35C210.625 272.333 211.018 273.587 211.018 275.111C211.018 276.659 210.625 278.048 209.838 279.276C209.076 280.505 207.958 281.476 206.483 282.189C205.033 282.902 203.313 283.258 201.322 283.258ZM222.156 276.806L218.211 287.571H213.64L215.557 276.806H222.156ZM245.546 257.009V262.76H238.615V283H231.389V262.76H224.532V257.009H245.546ZM260.68 283.258C258.247 283.258 256.01 282.693 253.971 281.562C251.931 280.407 250.308 278.822 249.104 276.806C247.924 274.766 247.335 272.468 247.335 269.912C247.335 267.356 247.924 265.071 249.104 263.055C250.308 261.015 251.931 259.43 253.971 258.299C256.01 257.169 258.247 256.604 260.68 256.604C263.138 256.604 265.375 257.169 267.39 258.299C269.43 259.43 271.04 261.015 272.219 263.055C273.399 265.071 273.989 267.356 273.989 269.912C273.989 272.468 273.399 274.766 272.219 276.806C271.04 278.822 269.43 280.407 267.39 281.562C265.35 282.693 263.113 283.258 260.68 283.258ZM260.68 276.548C262.524 276.548 263.974 275.946 265.031 274.742C266.112 273.538 266.653 271.928 266.653 269.912C266.653 267.848 266.112 266.226 265.031 265.046C263.974 263.842 262.524 263.24 260.68 263.24C258.812 263.24 257.35 263.842 256.293 265.046C255.236 266.226 254.708 267.848 254.708 269.912C254.708 271.952 255.236 273.574 256.293 274.779C257.35 275.958 258.812 276.548 260.68 276.548ZM289.698 283.258C287.265 283.258 285.029 282.693 282.989 281.562C280.949 280.407 279.327 278.822 278.122 276.806C276.942 274.766 276.353 272.468 276.353 269.912C276.353 267.356 276.942 265.071 278.122 263.055C279.327 261.015 280.949 259.43 282.989 258.299C285.029 257.169 287.265 256.604 289.698 256.604C292.156 256.604 294.393 257.169 296.408 258.299C298.448 259.43 300.058 261.015 301.238 263.055C302.417 265.071 303.007 267.356 303.007 269.912C303.007 272.468 302.417 274.766 301.238 276.806C300.058 278.822 298.448 280.407 296.408 281.562C294.368 282.693 292.131 283.258 289.698 283.258ZM289.698 276.548C291.542 276.548 292.992 275.946 294.049 274.742C295.13 273.538 295.671 271.928 295.671 269.912C295.671 267.848 295.13 266.226 294.049 265.046C292.992 263.842 291.542 263.24 289.698 263.24C287.83 263.24 286.368 263.842 285.311 265.046C284.254 266.226 283.726 267.848 283.726 269.912C283.726 271.952 284.254 273.574 285.311 274.779C286.368 275.958 287.83 276.548 289.698 276.548ZM313.481 277.47H321.555V283H306.255V257.009H313.481V277.47ZM334.171 283.258C331.148 283.258 328.666 282.545 326.724 281.12C324.783 279.67 323.738 277.605 323.591 274.926H331.296C331.369 275.836 331.64 276.499 332.107 276.917C332.574 277.335 333.176 277.544 333.913 277.544C334.577 277.544 335.117 277.384 335.535 277.064C335.978 276.72 336.199 276.253 336.199 275.664C336.199 274.902 335.842 274.312 335.13 273.894C334.417 273.476 333.262 273.009 331.664 272.493C329.968 271.928 328.592 271.387 327.535 270.871C326.503 270.33 325.594 269.556 324.807 268.548C324.045 267.516 323.664 266.177 323.664 264.53C323.664 262.859 324.082 261.433 324.918 260.253C325.753 259.049 326.908 258.14 328.383 257.525C329.858 256.911 331.529 256.604 333.397 256.604C336.42 256.604 338.829 257.316 340.623 258.742C342.442 260.143 343.412 262.121 343.535 264.677H335.683C335.658 263.891 335.412 263.301 334.945 262.908C334.503 262.514 333.925 262.318 333.213 262.318C332.672 262.318 332.23 262.478 331.885 262.797C331.541 263.117 331.369 263.571 331.369 264.161C331.369 264.653 331.554 265.083 331.922 265.452C332.316 265.796 332.795 266.103 333.36 266.373C333.925 266.619 334.761 266.938 335.867 267.332C337.514 267.897 338.866 268.462 339.922 269.028C341.004 269.568 341.925 270.342 342.687 271.35C343.474 272.333 343.867 273.587 343.867 275.111C343.867 276.659 343.474 278.048 342.687 279.276C341.925 280.505 340.807 281.476 339.333 282.189C337.882 282.902 336.162 283.258 334.171 283.258Z"/>
</mask>
<path d="M46.871 283.258C43.848 283.258 41.3656 282.545 39.424 281.12C37.4824 279.67 36.4378 277.605 36.2903 274.926H43.9954C44.0692 275.836 44.3395 276.499 44.8065 276.917C45.2735 277.335 45.8756 277.544 46.613 277.544C47.2766 277.544 47.8173 277.384 48.2351 277.064C48.6775 276.72 48.8987 276.253 48.8987 275.664C48.8987 274.902 48.5423 274.312 47.8296 273.894C47.1168 273.476 45.9617 273.009 44.3641 272.493C42.6683 271.928 41.2919 271.387 40.2351 270.871C39.2028 270.33 38.2934 269.556 37.5069 268.548C36.745 267.516 36.3641 266.177 36.3641 264.53C36.3641 262.859 36.7819 261.433 37.6175 260.253C38.4532 259.049 39.6083 258.14 41.083 257.525C42.5577 256.911 44.2289 256.604 46.0968 256.604C49.1199 256.604 51.5285 257.316 53.3227 258.742C55.1414 260.143 56.1123 262.121 56.2352 264.677H48.3826C48.358 263.891 48.1122 263.301 47.6452 262.908C47.2028 262.514 46.6253 262.318 45.9125 262.318C45.3718 262.318 44.9294 262.478 44.5853 262.797C44.2412 263.117 44.0692 263.571 44.0692 264.161C44.0692 264.653 44.2535 265.083 44.6222 265.452C45.0154 265.796 45.4947 266.103 46.06 266.373C46.6253 266.619 47.4609 266.938 48.5669 267.332C50.2136 267.897 51.5654 268.462 52.6222 269.028C53.7036 269.568 54.6253 270.342 55.3872 271.35C56.1737 272.333 56.567 273.587 56.567 275.111C56.567 276.659 56.1737 278.048 55.3872 279.276C54.6253 280.505 53.507 281.476 52.0324 282.189C50.5823 282.902 48.8618 283.258 46.871 283.258ZM67.152 262.797V267.037H75.447V272.53H67.152V277.212H76.553V283H59.9261V257.009H76.553V262.797H67.152ZM93.2849 283L88.1236 273.415H87.3494V283H80.1236V257.009H91.5153C93.6044 257.009 95.374 257.378 96.8241 258.115C98.2742 258.828 99.3679 259.823 100.105 261.101C100.843 262.355 101.211 263.768 101.211 265.341C101.211 267.11 100.72 268.671 99.7366 270.023C98.778 271.35 97.3648 272.296 95.4969 272.862L101.359 283H93.2849ZM87.3494 268.475H90.9255C91.9086 268.475 92.6459 268.241 93.1375 267.774C93.629 267.307 93.8748 266.631 93.8748 265.746C93.8748 264.911 93.6167 264.259 93.1006 263.793C92.609 263.301 91.884 263.055 90.9255 263.055H87.3494V268.475ZM129.788 257.009L120.829 283H111.576L102.58 257.009H110.322L116.221 275.774L122.083 257.009H129.788ZM139.265 257.009V283H132.039V257.009H139.265ZM142.495 269.949C142.495 267.393 143.024 265.12 144.08 263.129C145.162 261.114 146.686 259.553 148.652 258.447C150.618 257.316 152.879 256.751 155.435 256.751C158.68 256.751 161.408 257.623 163.62 259.369C165.832 261.089 167.257 263.436 167.896 266.41H160.117C159.65 265.427 158.999 264.677 158.163 264.161C157.352 263.645 156.406 263.387 155.325 263.387C153.653 263.387 152.314 263.989 151.306 265.193C150.323 266.373 149.832 267.958 149.832 269.949C149.832 271.965 150.323 273.574 151.306 274.779C152.314 275.958 153.653 276.548 155.325 276.548C156.406 276.548 157.352 276.29 158.163 275.774C158.999 275.258 159.65 274.508 160.117 273.525H167.896C167.257 276.499 165.832 278.859 163.62 280.604C161.408 282.324 158.68 283.184 155.435 283.184C152.879 283.184 150.618 282.631 148.652 281.525C146.686 280.395 145.162 278.834 144.08 276.843C143.024 274.828 142.495 272.53 142.495 269.949ZM178.544 262.797V267.037H186.839V272.53H178.544V277.212H187.945V283H171.318V257.009H187.945V262.797H178.544ZM201.322 283.258C198.299 283.258 195.816 282.545 193.875 281.12C191.933 279.67 190.889 277.605 190.741 274.926H198.446C198.52 275.836 198.79 276.499 199.257 276.917C199.724 277.335 200.326 277.544 201.064 277.544C201.727 277.544 202.268 277.384 202.686 277.064C203.128 276.72 203.35 276.253 203.35 275.664C203.35 274.902 202.993 274.312 202.28 273.894C201.568 273.476 200.413 273.009 198.815 272.493C197.119 271.928 195.743 271.387 194.686 270.871C193.654 270.33 192.744 269.556 191.958 268.548C191.196 267.516 190.815 266.177 190.815 264.53C190.815 262.859 191.233 261.433 192.068 260.253C192.904 259.049 194.059 258.14 195.534 257.525C197.008 256.911 198.68 256.604 200.548 256.604C203.571 256.604 205.979 257.316 207.774 258.742C209.592 260.143 210.563 262.121 210.686 264.677H202.833C202.809 263.891 202.563 263.301 202.096 262.908C201.654 262.514 201.076 262.318 200.363 262.318C199.823 262.318 199.38 262.478 199.036 262.797C198.692 263.117 198.52 263.571 198.52 264.161C198.52 264.653 198.704 265.083 199.073 265.452C199.466 265.796 199.946 266.103 200.511 266.373C201.076 266.619 201.912 266.938 203.018 267.332C204.664 267.897 206.016 268.462 207.073 269.028C208.154 269.568 209.076 270.342 209.838 271.35C210.625 272.333 211.018 273.587 211.018 275.111C211.018 276.659 210.625 278.048 209.838 279.276C209.076 280.505 207.958 281.476 206.483 282.189C205.033 282.902 203.313 283.258 201.322 283.258ZM222.156 276.806L218.211 287.571H213.64L215.557 276.806H222.156ZM245.546 257.009V262.76H238.615V283H231.389V262.76H224.532V257.009H245.546ZM260.68 283.258C258.247 283.258 256.01 282.693 253.971 281.562C251.931 280.407 250.308 278.822 249.104 276.806C247.924 274.766 247.335 272.468 247.335 269.912C247.335 267.356 247.924 265.071 249.104 263.055C250.308 261.015 251.931 259.43 253.971 258.299C256.01 257.169 258.247 256.604 260.68 256.604C263.138 256.604 265.375 257.169 267.39 258.299C269.43 259.43 271.04 261.015 272.219 263.055C273.399 265.071 273.989 267.356 273.989 269.912C273.989 272.468 273.399 274.766 272.219 276.806C271.04 278.822 269.43 280.407 267.39 281.562C265.35 282.693 263.113 283.258 260.68 283.258ZM260.68 276.548C262.524 276.548 263.974 275.946 265.031 274.742C266.112 273.538 266.653 271.928 266.653 269.912C266.653 267.848 266.112 266.226 265.031 265.046C263.974 263.842 262.524 263.24 260.68 263.24C258.812 263.24 257.35 263.842 256.293 265.046C255.236 266.226 254.708 267.848 254.708 269.912C254.708 271.952 255.236 273.574 256.293 274.779C257.35 275.958 258.812 276.548 260.68 276.548ZM289.698 283.258C287.265 283.258 285.029 282.693 282.989 281.562C280.949 280.407 279.327 278.822 278.122 276.806C276.942 274.766 276.353 272.468 276.353 269.912C276.353 267.356 276.942 265.071 278.122 263.055C279.327 261.015 280.949 259.43 282.989 258.299C285.029 257.169 287.265 256.604 289.698 256.604C292.156 256.604 294.393 257.169 296.408 258.299C298.448 259.43 300.058 261.015 301.238 263.055C302.417 265.071 303.007 267.356 303.007 269.912C303.007 272.468 302.417 274.766 301.238 276.806C300.058 278.822 298.448 280.407 296.408 281.562C294.368 282.693 292.131 283.258 289.698 283.258ZM289.698 276.548C291.542 276.548 292.992 275.946 294.049 274.742C295.13 273.538 295.671 271.928 295.671 269.912C295.671 267.848 295.13 266.226 294.049 265.046C292.992 263.842 291.542 263.24 289.698 263.24C287.83 263.24 286.368 263.842 285.311 265.046C284.254 266.226 283.726 267.848 283.726 269.912C283.726 271.952 284.254 273.574 285.311 274.779C286.368 275.958 287.83 276.548 289.698 276.548ZM313.481 277.47H321.555V283H306.255V257.009H313.481V277.47ZM334.171 283.258C331.148 283.258 328.666 282.545 326.724 281.12C324.783 279.67 323.738 277.605 323.591 274.926H331.296C331.369 275.836 331.64 276.499 332.107 276.917C332.574 277.335 333.176 277.544 333.913 277.544C334.577 277.544 335.117 277.384 335.535 277.064C335.978 276.72 336.199 276.253 336.199 275.664C336.199 274.902 335.842 274.312 335.13 273.894C334.417 273.476 333.262 273.009 331.664 272.493C329.968 271.928 328.592 271.387 327.535 270.871C326.503 270.33 325.594 269.556 324.807 268.548C324.045 267.516 323.664 266.177 323.664 264.53C323.664 262.859 324.082 261.433 324.918 260.253C325.753 259.049 326.908 258.14 328.383 257.525C329.858 256.911 331.529 256.604 333.397 256.604C336.42 256.604 338.829 257.316 340.623 258.742C342.442 260.143 343.412 262.121 343.535 264.677H335.683C335.658 263.891 335.412 263.301 334.945 262.908C334.503 262.514 333.925 262.318 333.213 262.318C332.672 262.318 332.23 262.478 331.885 262.797C331.541 263.117 331.369 263.571 331.369 264.161C331.369 264.653 331.554 265.083 331.922 265.452C332.316 265.796 332.795 266.103 333.36 266.373C333.925 266.619 334.761 266.938 335.867 267.332C337.514 267.897 338.866 268.462 339.922 269.028C341.004 269.568 341.925 270.342 342.687 271.35C343.474 272.333 343.867 273.587 343.867 275.111C343.867 276.659 343.474 278.048 342.687 279.276C341.925 280.505 340.807 281.476 339.333 282.189C337.882 282.902 336.162 283.258 334.171 283.258Z" fill="white"/>
<path d="M39.424 281.12L34.637 287.53L34.6632 287.549L34.6895 287.568L39.424 281.12ZM36.2903 274.926V266.926H27.8379L28.3024 275.366L36.2903 274.926ZM43.9954 274.926L51.9693 274.28L51.3731 266.926H43.9954V274.926ZM44.8065 276.917L39.4722 282.879L39.4722 282.879L44.8065 276.917ZM48.2351 277.064L53.0947 283.419L53.1208 283.399L53.1466 283.379L48.2351 277.064ZM47.8296 273.894L51.8753 266.992L51.8753 266.992L47.8296 273.894ZM44.3641 272.493L41.8343 280.082L41.8694 280.094L41.9047 280.106L44.3641 272.493ZM40.2351 270.871L36.523 277.958L36.623 278.01L36.7244 278.059L40.2351 270.871ZM37.5069 268.548L31.0703 273.299L31.1342 273.386L31.2004 273.47L37.5069 268.548ZM37.6175 260.253L44.1457 264.877L44.1681 264.846L44.1902 264.814L37.6175 260.253ZM41.083 257.525L38.0061 250.141L38.0061 250.141L41.083 257.525ZM53.3227 258.742L48.3461 265.005L48.3932 265.043L48.4409 265.08L53.3227 258.742ZM56.2352 264.677V272.677H64.629L64.2259 264.293L56.2352 264.677ZM48.3826 264.677L40.3865 264.927L40.6287 272.677H48.3826V264.677ZM47.6452 262.908L42.3303 268.887L42.4103 268.958L42.4922 269.027L47.6452 262.908ZM44.5853 262.797L50.0289 268.659L50.0289 268.659L44.5853 262.797ZM44.6222 265.452L38.9653 271.108L39.1537 271.297L39.3541 271.472L44.6222 265.452ZM46.06 266.373L42.6083 273.59L42.7382 273.652L42.8702 273.71L46.06 266.373ZM48.5669 267.332L45.8868 274.869L45.928 274.884L45.9694 274.898L48.5669 267.332ZM52.6222 269.028L48.849 276.082L48.9461 276.134L49.0445 276.183L52.6222 269.028ZM55.3872 271.35L49.006 276.175L49.0719 276.262L49.1403 276.348L55.3872 271.35ZM55.3872 279.276L48.6491 274.964L48.6182 275.012L48.588 275.061L55.3872 279.276ZM52.0324 282.189L48.551 274.986L48.5272 274.998L48.5034 275.009L52.0324 282.189ZM46.871 275.258C45.1118 275.258 44.4111 274.857 44.1584 274.671L34.6895 287.568C38.3201 290.234 42.5841 291.258 46.871 291.258V275.258ZM44.211 274.71C44.1825 274.689 44.1976 274.696 44.2325 274.737C44.2684 274.779 44.3005 274.828 44.3227 274.872C44.3441 274.914 44.3405 274.921 44.3279 274.87C44.3146 274.818 44.2897 274.695 44.2782 274.487L28.3024 275.366C28.5644 280.124 30.5785 284.499 34.637 287.53L44.211 274.71ZM36.2903 282.926H43.9954V266.926H36.2903V282.926ZM36.0216 275.573C36.1861 277.602 36.902 280.579 39.4722 282.879L50.1409 270.955C51.777 272.419 51.9522 274.07 51.9693 274.28L36.0216 275.573ZM39.4722 282.879C41.6591 284.836 44.2757 285.544 46.613 285.544V269.544C46.9995 269.544 47.5676 269.599 48.2305 269.829C48.9127 270.066 49.5711 270.445 50.1409 270.955L39.4722 282.879ZM46.613 285.544C48.567 285.544 50.9517 285.058 53.0947 283.419L43.3755 270.71C44.6828 269.71 45.9862 269.544 46.613 269.544V285.544ZM53.1466 283.379C55.6534 281.43 56.8987 278.572 56.8987 275.664H40.8987C40.8987 274.942 41.0392 274.01 41.5029 273.031C41.9727 272.04 42.6418 271.28 43.3236 270.75L53.1466 283.379ZM56.8987 275.664C56.8987 271.783 54.7866 268.699 51.8753 266.992L43.7838 280.796C43.2183 280.464 42.4196 279.839 41.7841 278.787C41.1302 277.704 40.8987 276.582 40.8987 275.664H56.8987ZM51.8753 266.992C50.3756 266.113 48.53 265.432 46.8236 264.88L41.9047 280.106C42.5794 280.324 43.0786 280.505 43.4303 280.647C43.8085 280.8 43.8864 280.856 43.7838 280.796L51.8753 266.992ZM46.8939 264.904C45.3803 264.399 44.3669 263.986 43.7457 263.682L36.7244 278.059C38.2169 278.788 39.9562 279.456 41.8343 280.082L46.8939 264.904ZM43.9471 263.784C43.9707 263.797 43.978 263.804 43.9648 263.793C43.9499 263.781 43.8969 263.733 43.8135 263.626L31.2004 273.47C32.6191 275.288 34.3874 276.839 36.523 277.958L43.9471 263.784ZM43.9435 263.797C44.1791 264.117 44.2952 264.407 44.3446 264.581C44.3895 264.739 44.3641 264.744 44.3641 264.53H28.3641C28.3641 267.4 29.0376 270.545 31.0703 273.299L43.9435 263.797ZM44.3641 264.53C44.3641 264.362 44.3846 264.355 44.3545 264.457C44.3397 264.508 44.3155 264.575 44.2781 264.653C44.2406 264.731 44.1957 264.807 44.1457 264.877L31.0893 255.629C29.1525 258.363 28.3641 261.469 28.3641 264.53H44.3641ZM44.1902 264.814C44.1749 264.836 44.1538 264.863 44.1278 264.89C44.1017 264.918 44.0775 264.939 44.0591 264.954C44.041 264.968 44.0352 264.971 44.0477 264.963C44.0607 264.956 44.096 264.936 44.1599 264.91L38.0061 250.141C35.2521 251.288 32.83 253.12 31.0448 255.693L44.1902 264.814ZM44.1599 264.91C44.5091 264.764 45.1088 264.604 46.0968 264.604V248.604C43.3491 248.604 40.6062 249.057 38.0061 250.141L44.1599 264.91ZM46.0968 264.604C46.9907 264.604 47.5651 264.71 47.9006 264.809C48.2157 264.903 48.3266 264.99 48.3461 265.005L58.2993 252.478C54.6949 249.614 50.3481 248.604 46.0968 248.604V264.604ZM48.4409 265.08C48.4437 265.082 48.4085 265.055 48.3582 264.994C48.307 264.932 48.2636 264.863 48.2329 264.8C48.203 264.739 48.1997 264.714 48.207 264.744C48.2149 264.777 48.2355 264.877 48.2444 265.061L64.2259 264.293C64.0049 259.695 62.1099 255.412 58.2045 252.404L48.4409 265.08ZM56.2352 256.677H48.3826V272.677H56.2352V256.677ZM56.3787 264.427C56.3049 262.068 55.4745 259.042 52.7983 256.788L42.4922 269.027C41.7039 268.363 41.1393 267.548 40.7952 266.722C40.4688 265.939 40.3978 265.288 40.3865 264.927L56.3787 264.427ZM52.9602 256.928C50.7671 254.979 48.1644 254.318 45.9125 254.318V270.318C45.0862 270.318 43.6386 270.05 42.3303 268.887L52.9602 256.928ZM45.9125 254.318C43.6805 254.318 41.1895 255.033 39.1417 256.935L50.0289 268.659C49.4117 269.233 48.6806 269.677 47.8923 269.962C47.1225 270.24 46.4321 270.318 45.9125 270.318V254.318ZM39.1417 256.935C36.7697 259.137 36.0692 261.955 36.0692 264.161H52.0692C52.0692 264.633 52.0012 265.361 51.6805 266.209C51.3458 267.094 50.7935 267.949 50.0289 268.659L39.1417 256.935ZM36.0692 264.161C36.0692 266.913 37.1974 269.34 38.9653 271.108L50.279 259.795C50.7323 260.248 51.2085 260.88 51.5606 261.701C51.9166 262.532 52.0692 263.379 52.0692 264.161H36.0692ZM39.3541 271.472C40.3917 272.38 41.5121 273.066 42.6083 273.59L49.5116 259.156C49.4773 259.14 49.6392 259.211 49.8902 259.431L39.3541 271.472ZM42.8702 273.71C43.6912 274.067 44.7327 274.459 45.8868 274.869L51.247 259.794C50.1891 259.418 49.5593 259.171 49.2498 259.037L42.8702 273.71ZM45.9694 274.898C47.3752 275.381 48.2968 275.786 48.849 276.082L56.3954 261.973C54.8339 261.138 53.052 260.413 51.1644 259.765L45.9694 274.898ZM49.0445 276.183C49.0377 276.18 49.0266 276.173 49.0132 276.165C48.9997 276.156 48.988 276.147 48.979 276.139C48.9701 276.132 48.9674 276.129 48.9708 276.132C48.9744 276.136 48.9865 276.149 49.006 276.175L61.7685 266.525C60.2982 264.581 58.4325 262.988 56.1999 261.872L49.0445 276.183ZM49.1403 276.348C48.8874 276.032 48.7259 275.7 48.6389 275.422C48.5571 275.162 48.567 275.034 48.567 275.111H64.567C64.567 272.165 63.7799 269.035 61.6342 266.353L49.1403 276.348ZM48.567 275.111C48.567 275.135 48.5662 275.152 48.5655 275.163C48.5647 275.175 48.564 275.18 48.564 275.18C48.564 275.18 48.5645 275.176 48.5663 275.168C48.568 275.159 48.5707 275.148 48.5747 275.134C48.583 275.104 48.5948 275.071 48.6099 275.038C48.6249 275.004 48.6393 274.979 48.6491 274.964L62.1254 283.589C63.7872 280.992 64.567 278.089 64.567 275.111H48.567ZM48.588 275.061C48.6117 275.023 48.639 274.985 48.6677 274.952C48.6963 274.918 48.7198 274.896 48.7326 274.885C48.7451 274.874 48.7415 274.879 48.715 274.896C48.6881 274.914 48.6357 274.945 48.551 274.986L55.5137 289.392C58.1689 288.108 60.5219 286.177 62.1864 283.492L48.588 275.061ZM48.5034 275.009C48.3766 275.072 47.9167 275.258 46.871 275.258V291.258C49.807 291.258 52.788 290.732 55.5613 289.369L48.5034 275.009ZM67.152 262.797V254.797H59.152V262.797H67.152ZM67.152 267.037H59.152V275.037H67.152V267.037ZM75.447 267.037H83.447V259.037H75.447V267.037ZM75.447 272.53V280.53H83.447V272.53H75.447ZM67.152 272.53V264.53H59.152V272.53H67.152ZM67.152 277.212H59.152V285.212H67.152V277.212ZM76.553 277.212H84.553V269.212H76.553V277.212ZM76.553 283V291H84.553V283H76.553ZM59.9261 283H51.9261V291H59.9261V283ZM59.9261 257.009V249.009H51.9261V257.009H59.9261ZM76.553 257.009H84.553V249.009H76.553V257.009ZM76.553 262.797V270.797H84.553V262.797H76.553ZM59.152 262.797V267.037H75.152V262.797H59.152ZM67.152 275.037H75.447V259.037H67.152V275.037ZM67.447 267.037V272.53H83.447V267.037H67.447ZM75.447 264.53H67.152V280.53H75.447V264.53ZM59.152 272.53V277.212H75.152V272.53H59.152ZM67.152 285.212H76.553V269.212H67.152V285.212ZM68.553 277.212V283H84.553V277.212H68.553ZM76.553 275H59.9261V291H76.553V275ZM67.9261 283V257.009H51.9261V283H67.9261ZM59.9261 265.009H76.553V249.009H59.9261V265.009ZM68.553 257.009V262.797H84.553V257.009H68.553ZM76.553 254.797H67.152V270.797H76.553V254.797ZM93.2849 283L86.2412 286.793L88.5066 291H93.2849V283ZM88.1236 273.415L95.1674 269.622L92.902 265.415H88.1236V273.415ZM87.3494 273.415V265.415H79.3494V273.415H87.3494ZM87.3494 283V291H95.3494V283H87.3494ZM80.1236 283H72.1236V291H80.1236V283ZM80.1236 257.009V249.009H72.1236V257.009H80.1236ZM96.8241 258.115L93.1981 265.246L93.2465 265.271L93.2952 265.295L96.8241 258.115ZM100.105 261.101L93.1758 265.099L93.1926 265.128L93.2098 265.157L100.105 261.101ZM99.7366 270.023L93.2667 265.318L93.2589 265.328L93.2511 265.339L99.7366 270.023ZM95.4969 272.862L93.1797 265.205L83.5192 268.128L88.5712 276.866L95.4969 272.862ZM101.359 283V291H115.225L108.284 278.996L101.359 283ZM87.3494 268.475H79.3494V276.475H87.3494V268.475ZM93.1375 267.774L87.6275 261.974L87.6275 261.974L93.1375 267.774ZM93.1006 263.793L87.4437 269.449L87.5851 269.591L87.7333 269.725L93.1006 263.793ZM87.3494 263.055V255.055H79.3494V263.055H87.3494ZM100.329 279.207L95.1674 269.622L81.0798 277.207L86.2412 286.793L100.329 279.207ZM88.1236 265.415H87.3494V281.415H88.1236V265.415ZM79.3494 273.415V283H95.3494V273.415H79.3494ZM87.3494 275H80.1236V291H87.3494V275ZM88.1236 283V257.009H72.1236V283H88.1236ZM80.1236 265.009H91.5153V249.009H80.1236V265.009ZM91.5153 265.009C92.6914 265.009 93.1447 265.219 93.1981 265.246L100.45 250.984C97.6034 249.536 94.5174 249.009 91.5153 249.009V265.009ZM93.2952 265.295C93.4073 265.35 93.4054 265.366 93.3473 265.313C93.3201 265.288 93.2878 265.255 93.2549 265.214C93.222 265.173 93.1955 265.133 93.1758 265.099L107.035 257.103C105.429 254.321 103.086 252.279 100.353 250.935L93.2952 265.295ZM93.2098 265.157C93.2081 265.155 93.2039 265.147 93.1995 265.136C93.1951 265.125 93.1934 265.119 93.1938 265.121C93.1942 265.122 93.1983 265.138 93.2024 265.171C93.2066 265.205 93.2112 265.261 93.2112 265.341H109.211C109.211 262.462 108.52 259.628 107.001 257.045L93.2098 265.157ZM93.2112 265.341C93.2112 265.412 93.2063 265.45 93.2048 265.461C93.2034 265.47 93.2043 265.46 93.2121 265.435C93.22 265.41 93.2312 265.382 93.2445 265.356C93.2577 265.33 93.2673 265.317 93.2667 265.318L106.206 274.728C108.244 271.926 109.211 268.696 109.211 265.341H93.2112ZM93.2511 265.339C93.2954 265.278 93.3454 265.221 93.3965 265.172C93.4473 265.123 93.4874 265.094 93.5068 265.081C93.5463 265.054 93.4657 265.118 93.1797 265.205L97.8142 280.519C101.027 279.546 104.051 277.713 106.222 274.707L93.2511 265.339ZM88.5712 276.866L94.433 287.004L108.284 278.996L102.423 268.857L88.5712 276.866ZM101.359 275H93.2849V291H101.359V275ZM87.3494 276.475H90.9255V260.475H87.3494V276.475ZM90.9255 276.475C93.0422 276.475 96.1159 275.979 98.6475 273.574L87.6275 261.974C89.1759 260.503 90.7749 260.475 90.9255 260.475V276.475ZM98.6474 273.574C101.175 271.173 101.875 268.122 101.875 265.746H85.8748C85.8748 265.14 86.0834 263.441 87.6275 261.974L98.6474 273.574ZM101.875 265.746C101.875 263.143 100.994 260.146 98.4679 257.86L87.7333 269.725C87.0753 269.13 86.5637 268.385 86.2438 267.578C85.937 266.804 85.8748 266.147 85.8748 265.746H101.875ZM98.7574 258.136C96.271 255.649 93.1853 255.055 90.9255 255.055V271.055C90.5827 271.055 88.9471 270.953 87.4437 269.449L98.7574 258.136ZM90.9255 255.055H87.3494V271.055H90.9255V255.055ZM79.3494 263.055V268.475H95.3494V263.055H79.3494ZM129.788 257.009L137.351 259.616L141.007 249.009H129.788V257.009ZM120.829 283V291H126.534L128.392 285.607L120.829 283ZM111.576 283L104.016 285.617L105.879 291H111.576V283ZM102.58 257.009V249.009H91.3458L95.0202 259.626L102.58 257.009ZM110.322 257.009L117.954 254.61L116.193 249.009H110.322V257.009ZM116.221 275.774L108.589 278.173L116.245 302.528L123.857 278.159L116.221 275.774ZM122.083 257.009V249.009H116.2L114.447 254.624L122.083 257.009ZM122.224 254.402L113.266 280.393L128.392 285.607L137.351 259.616L122.224 254.402ZM120.829 275H111.576V291H120.829V275ZM119.136 280.383L110.14 254.393L95.0202 259.626L104.016 285.617L119.136 280.383ZM102.58 265.009H110.322V249.009H102.58V265.009ZM102.69 259.408L108.589 278.173L123.853 273.375L117.954 254.61L102.69 259.408ZM123.857 278.159L129.719 259.394L114.447 254.624L108.585 273.389L123.857 278.159ZM122.083 265.009H129.788V249.009H122.083V265.009ZM139.265 257.009H147.265V249.009H139.265V257.009ZM139.265 283V291H147.265V283H139.265ZM132.039 283H124.039V291H132.039V283ZM132.039 257.009V249.009H124.039V257.009H132.039ZM131.265 257.009V283H147.265V257.009H131.265ZM139.265 275H132.039V291H139.265V275ZM140.039 283V257.009H124.039V283H140.039ZM132.039 265.009H139.265V249.009H132.039V265.009ZM144.08 263.129L137.031 259.346L137.023 259.362L137.014 259.378L144.08 263.129ZM148.652 258.447L152.574 265.419L152.607 265.401L152.64 265.382L148.652 258.447ZM163.62 259.369L158.665 265.649L158.686 265.666L158.708 265.683L163.62 259.369ZM167.896 266.41V274.41H177.798L175.718 264.729L167.896 266.41ZM160.117 266.41L152.891 269.842L155.061 274.41H160.117V266.41ZM158.163 264.161L153.868 270.91L153.914 270.939L153.96 270.968L158.163 264.161ZM151.306 265.193L145.171 260.06L145.166 260.066L145.161 260.072L151.306 265.193ZM151.306 274.779L145.109 279.838L145.165 279.907L145.223 279.975L151.306 274.779ZM158.163 275.774L153.96 268.968L153.914 268.996L153.868 269.025L158.163 275.774ZM160.117 273.525V265.525H155.061L152.891 270.093L160.117 273.525ZM167.896 273.525L175.718 275.206L177.798 265.525H167.896V273.525ZM163.62 280.604L168.531 286.918L168.553 286.902L168.575 286.885L163.62 280.604ZM148.652 281.525L144.664 288.461L144.697 288.479L144.73 288.498L148.652 281.525ZM144.08 276.843L136.995 280.559L137.023 280.61L137.051 280.662L144.08 276.843ZM150.495 269.949C150.495 268.524 150.781 267.569 151.147 266.88L137.014 259.378C135.266 262.671 134.495 266.263 134.495 269.949H150.495ZM151.13 266.911C151.503 266.215 151.951 265.77 152.574 265.419L144.73 251.474C141.42 253.336 138.82 256.012 137.031 259.346L151.13 266.911ZM152.64 265.382C153.245 265.034 154.098 264.751 155.435 264.751V248.751C151.661 248.751 147.992 249.598 144.664 251.512L152.64 265.382ZM155.435 264.751C157.167 264.751 158.073 265.183 158.665 265.649L168.575 253.088C164.742 250.064 160.192 248.751 155.435 248.751V264.751ZM158.708 265.683C159.305 266.147 159.795 266.787 160.075 268.091L175.718 264.729C174.72 260.086 172.359 256.031 168.531 253.054L158.708 265.683ZM167.896 258.41H160.117V274.41H167.896V258.41ZM167.344 262.978C166.289 260.758 164.654 258.767 162.367 257.355L153.96 270.968C153.683 270.797 153.438 270.585 153.24 270.357C153.046 270.134 152.94 269.945 152.891 269.842L167.344 262.978ZM162.458 257.412C160.208 255.98 157.732 255.387 155.325 255.387V271.387C155.226 271.387 155.02 271.375 154.741 271.299C154.455 271.221 154.154 271.092 153.868 270.91L162.458 257.412ZM155.325 255.387C151.459 255.387 147.807 256.909 145.171 260.06L157.442 270.327C157.224 270.587 156.856 270.907 156.347 271.135C155.852 271.358 155.464 271.387 155.325 271.387V255.387ZM145.161 260.072C142.662 263.07 141.832 266.651 141.832 269.949H157.832C157.832 269.602 157.875 269.527 157.841 269.637C157.823 269.694 157.787 269.793 157.72 269.919C157.652 270.046 157.563 270.182 157.452 270.315L145.161 260.072ZM141.832 269.949C141.832 273.255 142.652 276.828 145.109 279.838L157.504 269.72C157.606 269.845 157.687 269.971 157.747 270.086C157.807 270.2 157.838 270.287 157.852 270.332C157.877 270.416 157.832 270.316 157.832 269.949H141.832ZM145.223 279.975C147.879 283.084 151.518 284.548 155.325 284.548V268.548C155.442 268.548 155.81 268.573 156.291 268.784C156.787 269.003 157.16 269.315 157.389 269.583L145.223 279.975ZM155.325 284.548C157.732 284.548 160.208 283.955 162.458 282.523L153.868 269.025C154.154 268.843 154.455 268.715 154.741 268.637C155.02 268.561 155.226 268.548 155.325 268.548V284.548ZM162.367 282.581C164.654 281.168 166.289 279.177 167.344 276.958L152.891 270.093C152.94 269.991 153.046 269.801 153.24 269.578C153.438 269.35 153.683 269.139 153.96 268.968L162.367 282.581ZM160.117 281.525H167.896V265.525H160.117V281.525ZM160.075 271.845C159.793 273.154 159.295 273.826 158.665 274.323L168.575 286.885C172.369 283.891 174.721 279.844 175.718 275.206L160.075 271.845ZM158.708 274.289C158.116 274.75 157.194 275.184 155.435 275.184V291.184C160.166 291.184 164.7 289.898 168.531 286.918L158.708 274.289ZM155.435 275.184C154.067 275.184 153.191 274.9 152.574 274.553L144.73 288.498C148.046 290.363 151.691 291.184 155.435 291.184V275.184ZM152.64 274.59C151.955 274.196 151.485 273.714 151.11 273.025L137.051 280.662C138.839 283.954 141.417 286.593 144.664 288.461L152.64 274.59ZM151.165 273.128C150.786 272.405 150.495 271.411 150.495 269.949H134.495C134.495 273.649 135.261 277.251 136.995 280.559L151.165 273.128ZM178.544 262.797V254.797H170.544V262.797H178.544ZM178.544 267.037H170.544V275.037H178.544V267.037ZM186.839 267.037H194.839V259.037H186.839V267.037ZM186.839 272.53V280.53H194.839V272.53H186.839ZM178.544 272.53V264.53H170.544V272.53H178.544ZM178.544 277.212H170.544V285.212H178.544V277.212ZM187.945 277.212H195.945V269.212H187.945V277.212ZM187.945 283V291H195.945V283H187.945ZM171.318 283H163.318V291H171.318V283ZM171.318 257.009V249.009H163.318V257.009H171.318ZM187.945 257.009H195.945V249.009H187.945V257.009ZM187.945 262.797V270.797H195.945V262.797H187.945ZM170.544 262.797V267.037H186.544V262.797H170.544ZM178.544 275.037H186.839V259.037H178.544V275.037ZM178.839 267.037V272.53H194.839V267.037H178.839ZM186.839 264.53H178.544V280.53H186.839V264.53ZM170.544 272.53V277.212H186.544V272.53H170.544ZM178.544 285.212H187.945V269.212H178.544V285.212ZM179.945 277.212V283H195.945V277.212H179.945ZM187.945 275H171.318V291H187.945V275ZM179.318 283V257.009H163.318V283H179.318ZM171.318 265.009H187.945V249.009H171.318V265.009ZM179.945 257.009V262.797H195.945V257.009H179.945ZM187.945 254.797H178.544V270.797H187.945V254.797ZM193.875 281.12L189.088 287.53L189.114 287.549L189.14 287.568L193.875 281.12ZM190.741 274.926V266.926H182.289L182.753 275.366L190.741 274.926ZM198.446 274.926L206.42 274.28L205.824 266.926H198.446V274.926ZM199.257 276.917L193.923 282.879L193.923 282.879L199.257 276.917ZM202.686 277.064L207.546 283.419L207.572 283.399L207.597 283.379L202.686 277.064ZM202.28 273.894L206.326 266.992L206.326 266.992L202.28 273.894ZM198.815 272.493L196.285 280.082L196.32 280.094L196.356 280.106L198.815 272.493ZM194.686 270.871L190.974 277.958L191.074 278.01L191.175 278.059L194.686 270.871ZM191.958 268.548L185.521 273.299L185.585 273.386L185.651 273.47L191.958 268.548ZM192.068 260.253L198.597 264.877L198.619 264.846L198.641 264.814L192.068 260.253ZM195.534 257.525L192.457 250.141L192.457 250.141L195.534 257.525ZM207.774 258.742L202.797 265.005L202.844 265.043L202.892 265.08L207.774 258.742ZM210.686 264.677V272.677H219.08L218.677 264.293L210.686 264.677ZM202.833 264.677L194.837 264.927L195.079 272.677H202.833V264.677ZM202.096 262.908L196.781 268.887L196.861 268.958L196.943 269.027L202.096 262.908ZM199.036 262.797L204.48 268.659L204.48 268.659L199.036 262.797ZM199.073 265.452L193.416 271.108L193.605 271.297L193.805 271.472L199.073 265.452ZM200.511 266.373L197.059 273.59L197.189 273.652L197.321 273.71L200.511 266.373ZM203.018 267.332L200.338 274.869L200.379 274.884L200.42 274.898L203.018 267.332ZM207.073 269.028L203.3 276.082L203.397 276.134L203.495 276.183L207.073 269.028ZM209.838 271.35L203.457 276.175L203.523 276.262L203.591 276.348L209.838 271.35ZM209.838 279.276L203.1 274.964L203.069 275.012L203.039 275.061L209.838 279.276ZM206.483 282.189L203.002 274.986L202.978 274.998L202.954 275.009L206.483 282.189ZM201.322 275.258C199.563 275.258 198.862 274.857 198.609 274.671L189.14 287.568C192.771 290.234 197.035 291.258 201.322 291.258V275.258ZM198.662 274.71C198.633 274.689 198.648 274.696 198.683 274.737C198.719 274.779 198.751 274.828 198.774 274.872C198.795 274.914 198.791 274.921 198.779 274.87C198.765 274.818 198.741 274.695 198.729 274.487L182.753 275.366C183.015 280.124 185.029 284.499 189.088 287.53L198.662 274.71ZM190.741 282.926H198.446V266.926H190.741V282.926ZM190.472 275.573C190.637 277.602 191.353 280.579 193.923 282.879L204.592 270.955C206.228 272.419 206.403 274.07 206.42 274.28L190.472 275.573ZM193.923 282.879C196.11 284.836 198.727 285.544 201.064 285.544V269.544C201.45 269.544 202.018 269.599 202.681 269.829C203.364 270.066 204.022 270.445 204.592 270.955L193.923 282.879ZM201.064 285.544C203.018 285.544 205.403 285.058 207.546 283.419L197.826 270.71C199.134 269.71 200.437 269.544 201.064 269.544V285.544ZM207.597 283.379C210.104 281.43 211.35 278.572 211.35 275.664H195.35C195.35 274.942 195.49 274.01 195.954 273.031C196.424 272.04 197.093 271.28 197.774 270.75L207.597 283.379ZM211.35 275.664C211.35 271.783 209.237 268.699 206.326 266.992L198.235 280.796C197.669 280.464 196.87 279.839 196.235 278.787C195.581 277.704 195.35 276.582 195.35 275.664H211.35ZM206.326 266.992C204.826 266.113 202.981 265.432 201.274 264.88L196.356 280.106C197.03 280.324 197.529 280.505 197.881 280.647C198.259 280.8 198.337 280.856 198.235 280.796L206.326 266.992ZM201.345 264.904C199.831 264.399 198.818 263.986 198.197 263.682L191.175 278.059C192.668 278.788 194.407 279.456 196.285 280.082L201.345 264.904ZM198.398 263.784C198.422 263.797 198.429 263.804 198.416 263.793C198.401 263.781 198.348 263.733 198.264 263.626L185.651 273.47C187.07 275.288 188.838 276.839 190.974 277.958L198.398 263.784ZM198.394 263.797C198.63 264.117 198.746 264.407 198.795 264.581C198.84 264.739 198.815 264.744 198.815 264.53H182.815C182.815 267.4 183.488 270.545 185.521 273.299L198.394 263.797ZM198.815 264.53C198.815 264.362 198.835 264.355 198.805 264.457C198.791 264.508 198.766 264.575 198.729 264.653C198.691 264.731 198.647 264.807 198.597 264.877L185.54 255.629C183.603 258.363 182.815 261.469 182.815 264.53H198.815ZM198.641 264.814C198.626 264.836 198.605 264.863 198.579 264.89C198.553 264.918 198.528 264.939 198.51 264.954C198.492 264.968 198.486 264.971 198.499 264.963C198.511 264.956 198.547 264.936 198.611 264.91L192.457 250.141C189.703 251.288 187.281 253.12 185.496 255.693L198.641 264.814ZM198.611 264.91C198.96 264.764 199.56 264.604 200.548 264.604V248.604C197.8 248.604 195.057 249.057 192.457 250.141L198.611 264.91ZM200.548 264.604C201.442 264.604 202.016 264.71 202.351 264.809C202.667 264.903 202.777 264.99 202.797 265.005L212.75 252.478C209.146 249.614 204.799 248.604 200.548 248.604V264.604ZM202.892 265.08C202.894 265.082 202.859 265.055 202.809 264.994C202.758 264.932 202.714 264.863 202.684 264.8C202.654 264.739 202.651 264.714 202.658 264.744C202.666 264.777 202.686 264.877 202.695 265.061L218.677 264.293C218.456 259.695 216.561 255.412 212.655 252.404L202.892 265.08ZM210.686 256.677H202.833V272.677H210.686V256.677ZM210.83 264.427C210.756 262.068 209.925 259.042 207.249 256.788L196.943 269.027C196.155 268.363 195.59 267.548 195.246 266.722C194.92 265.939 194.849 265.288 194.837 264.927L210.83 264.427ZM207.411 256.928C205.218 254.979 202.615 254.318 200.363 254.318V270.318C199.537 270.318 198.089 270.05 196.781 268.887L207.411 256.928ZM200.363 254.318C198.131 254.318 195.64 255.033 193.593 256.935L204.48 268.659C203.863 269.233 203.131 269.677 202.343 269.962C201.573 270.24 200.883 270.318 200.363 270.318V254.318ZM193.593 256.935C191.22 259.137 190.52 261.955 190.52 264.161H206.52C206.52 264.633 206.452 265.361 206.131 266.209C205.797 267.094 205.244 267.949 204.48 268.659L193.593 256.935ZM190.52 264.161C190.52 266.913 191.648 269.34 193.416 271.108L204.73 259.795C205.183 260.248 205.659 260.88 206.011 261.701C206.367 262.532 206.52 263.379 206.52 264.161H190.52ZM193.805 271.472C194.843 272.38 195.963 273.066 197.059 273.59L203.962 259.156C203.928 259.14 204.09 259.211 204.341 259.431L193.805 271.472ZM197.321 273.71C198.142 274.067 199.184 274.459 200.338 274.869L205.698 259.794C204.64 259.418 204.01 259.171 203.701 259.037L197.321 273.71ZM200.42 274.898C201.826 275.381 202.748 275.786 203.3 276.082L210.846 261.973C209.285 261.138 207.503 260.413 205.615 259.765L200.42 274.898ZM203.495 276.183C203.489 276.18 203.477 276.173 203.464 276.165C203.451 276.156 203.439 276.147 203.43 276.139C203.421 276.132 203.418 276.129 203.422 276.132C203.425 276.136 203.437 276.149 203.457 276.175L216.219 266.525C214.749 264.581 212.883 262.988 210.651 261.872L203.495 276.183ZM203.591 276.348C203.338 276.032 203.177 275.7 203.09 275.422C203.008 275.162 203.018 275.034 203.018 275.111H219.018C219.018 272.165 218.231 269.035 216.085 266.353L203.591 276.348ZM203.018 275.111C203.018 275.135 203.017 275.152 203.016 275.163C203.016 275.175 203.015 275.18 203.015 275.18C203.015 275.18 203.015 275.176 203.017 275.168C203.019 275.159 203.022 275.148 203.026 275.134C203.034 275.104 203.046 275.071 203.061 275.038C203.076 275.004 203.09 274.979 203.1 274.964L216.576 283.589C218.238 280.992 219.018 278.089 219.018 275.111H203.018ZM203.039 275.061C203.063 275.023 203.09 274.985 203.119 274.952C203.147 274.918 203.171 274.896 203.183 274.885C203.196 274.874 203.192 274.879 203.166 274.896C203.139 274.914 203.087 274.945 203.002 274.986L209.965 289.392C212.62 288.108 214.973 286.177 216.637 283.492L203.039 275.061ZM202.954 275.009C202.827 275.072 202.367 275.258 201.322 275.258V291.258C204.258 291.258 207.239 290.732 210.012 289.369L202.954 275.009ZM222.156 276.806L229.667 279.559L233.608 268.806H222.156V276.806ZM218.211 287.571V295.571H223.8L225.723 290.324L218.211 287.571ZM213.64 287.571L205.764 286.169L204.089 295.571H213.64V287.571ZM215.557 276.806V268.806H208.856L207.681 275.404L215.557 276.806ZM214.644 274.054L210.7 284.819L225.723 290.324L229.667 279.559L214.644 274.054ZM218.211 279.571H213.64V295.571H218.211V279.571ZM221.516 288.974L223.433 278.209L207.681 275.404L205.764 286.169L221.516 288.974ZM215.557 284.806H222.156V268.806H215.557V284.806ZM245.546 257.009H253.546V249.009H245.546V257.009ZM245.546 262.76V270.76H253.546V262.76H245.546ZM238.615 262.76V254.76H230.615V262.76H238.615ZM238.615 283V291H246.615V283H238.615ZM231.389 283H223.389V291H231.389V283ZM231.389 262.76H239.389V254.76H231.389V262.76ZM224.532 262.76H216.532V270.76H224.532V262.76ZM224.532 257.009V249.009H216.532V257.009H224.532ZM237.546 257.009V262.76H253.546V257.009H237.546ZM245.546 254.76H238.615V270.76H245.546V254.76ZM230.615 262.76V283H246.615V262.76H230.615ZM238.615 275H231.389V291H238.615V275ZM239.389 283V262.76H223.389V283H239.389ZM231.389 254.76H224.532V270.76H231.389V254.76ZM232.532 262.76V257.009H216.532V262.76H232.532ZM224.532 265.009H245.546V249.009H224.532V265.009ZM253.971 281.562L250.029 288.524L250.06 288.542L250.093 288.559L253.971 281.562ZM249.104 276.806L242.179 280.811L242.207 280.861L242.237 280.91L249.104 276.806ZM249.104 263.055L242.215 258.988L242.208 259.001L242.2 259.014L249.104 263.055ZM267.39 258.299L263.476 265.277L263.494 265.287L263.512 265.297L267.39 258.299ZM272.219 263.055L265.294 267.06L265.305 267.078L265.315 267.097L272.219 263.055ZM272.219 276.806L279.124 280.848L279.134 280.83L279.145 280.811L272.219 276.806ZM267.39 281.562L271.268 288.559L271.3 288.542L271.332 288.524L267.39 281.562ZM265.031 274.742L259.078 269.397L259.048 269.431L259.018 269.465L265.031 274.742ZM265.031 265.046L259.018 270.323L259.075 270.388L259.133 270.452L265.031 265.046ZM256.293 265.046L262.252 270.384L262.279 270.353L262.306 270.323L256.293 265.046ZM256.293 274.779L250.28 280.055L250.307 280.086L250.334 280.117L256.293 274.779ZM260.68 275.258C259.543 275.258 258.65 275.009 257.849 274.565L250.093 288.559C253.371 290.377 256.951 291.258 260.68 291.258V275.258ZM257.913 274.601C257.081 274.13 256.466 273.53 255.971 272.703L242.237 280.91C244.151 284.114 246.78 286.684 250.029 288.524L257.913 274.601ZM256.029 272.801C255.613 272.081 255.335 271.185 255.335 269.912H239.335C239.335 273.752 240.236 277.452 242.179 280.811L256.029 272.801ZM255.335 269.912C255.335 268.638 255.613 267.772 256.008 267.097L242.2 259.014C240.236 262.369 239.335 266.074 239.335 269.912H255.335ZM255.993 267.122C256.485 266.29 257.076 265.725 257.849 265.297L250.093 251.302C246.785 253.135 244.132 255.741 242.215 258.988L255.993 267.122ZM257.849 265.297C258.65 264.853 259.543 264.604 260.68 264.604V248.604C256.951 248.604 253.371 249.485 250.093 251.302L257.849 265.297ZM260.68 264.604C261.857 264.604 262.732 264.859 263.476 265.277L271.304 251.322C268.017 249.478 264.419 248.604 260.68 248.604V264.604ZM263.512 265.297C264.27 265.717 264.832 266.262 265.294 267.06L279.145 259.05C277.247 255.769 274.59 253.143 271.268 251.302L263.512 265.297ZM265.315 267.097C265.711 267.772 265.989 268.638 265.989 269.912H281.989C281.989 266.074 281.088 262.369 279.124 259.014L265.315 267.097ZM265.989 269.912C265.989 271.185 265.711 272.081 265.294 272.801L279.145 280.811C281.088 277.452 281.989 273.752 281.989 269.912H265.989ZM265.315 272.765C264.851 273.558 264.265 274.138 263.448 274.601L271.332 288.524C274.594 286.676 277.228 284.086 279.124 280.848L265.315 272.765ZM263.512 274.565C262.711 275.009 261.818 275.258 260.68 275.258V291.258C264.409 291.258 267.989 290.377 271.268 288.559L263.512 274.565ZM260.68 284.548C264.443 284.548 268.232 283.223 271.044 280.019L259.018 269.465C259.279 269.167 259.653 268.887 260.082 268.708C260.484 268.542 260.729 268.548 260.68 268.548V284.548ZM270.983 280.087C273.684 277.079 274.653 273.398 274.653 269.912H258.653C258.653 270.211 258.612 270.237 258.663 270.084C258.69 270.006 258.735 269.896 258.809 269.767C258.884 269.638 258.975 269.512 259.078 269.397L270.983 280.087ZM274.653 269.912C274.653 266.445 273.718 262.684 270.928 259.64L259.133 270.452C259.007 270.315 258.901 270.168 258.817 270.022C258.733 269.878 258.684 269.757 258.658 269.677C258.606 269.524 258.653 269.567 258.653 269.912H274.653ZM271.044 259.769C268.232 256.565 264.443 255.24 260.68 255.24V271.24C260.729 271.24 260.484 271.246 260.082 271.079C259.653 270.901 259.279 270.621 259.018 270.323L271.044 259.769ZM260.68 255.24C256.931 255.24 253.113 256.541 250.28 259.769L262.306 270.323C262.033 270.634 261.652 270.914 261.229 271.089C260.835 271.251 260.605 271.24 260.68 271.24V255.24ZM250.334 259.708C247.605 262.755 246.708 266.49 246.708 269.912H262.708C262.708 269.551 262.755 269.489 262.711 269.625C262.687 269.697 262.642 269.812 262.562 269.953C262.482 270.096 262.378 270.243 262.252 270.384L250.334 259.708ZM246.708 269.912C246.708 273.348 247.623 277.028 250.28 280.055L262.306 269.502C262.414 269.625 262.505 269.756 262.577 269.884C262.648 270.011 262.689 270.115 262.711 270.181C262.752 270.309 262.708 270.25 262.708 269.912H246.708ZM250.334 280.117C253.183 283.297 256.985 284.548 260.68 284.548V268.548C260.586 268.548 260.797 268.534 261.175 268.687C261.584 268.852 261.968 269.123 262.252 269.441L250.334 280.117ZM282.989 281.562L279.047 288.524L279.079 288.542L279.111 288.559L282.989 281.562ZM278.122 276.806L271.197 280.811L271.226 280.861L271.255 280.91L278.122 276.806ZM278.122 263.055L271.233 258.988L271.226 259.001L271.218 259.014L278.122 263.055ZM296.408 258.299L292.494 265.277L292.512 265.287L292.53 265.297L296.408 258.299ZM301.238 263.055L294.312 267.06L294.323 267.078L294.333 267.097L301.238 263.055ZM301.238 276.806L308.142 280.848L308.152 280.83L308.163 280.811L301.238 276.806ZM296.408 281.562L300.286 288.559L300.318 288.542L300.35 288.524L296.408 281.562ZM294.049 274.742L288.096 269.397L288.066 269.431L288.036 269.465L294.049 274.742ZM294.049 265.046L288.036 270.323L288.093 270.388L288.151 270.452L294.049 265.046ZM285.311 265.046L291.27 270.384L291.297 270.353L291.324 270.323L285.311 265.046ZM285.311 274.779L279.298 280.055L279.325 280.086L279.352 280.117L285.311 274.779ZM289.698 275.258C288.561 275.258 287.668 275.009 286.867 274.565L279.111 288.559C282.389 290.377 285.969 291.258 289.698 291.258V275.258ZM286.931 274.601C286.099 274.13 285.484 273.53 284.99 272.703L271.255 280.91C273.169 284.114 275.799 286.684 279.047 288.524L286.931 274.601ZM285.048 272.801C284.631 272.081 284.353 271.185 284.353 269.912H268.353C268.353 273.752 269.254 277.452 271.197 280.811L285.048 272.801ZM284.353 269.912C284.353 268.638 284.631 267.772 285.026 267.097L271.218 259.014C269.254 262.369 268.353 266.074 268.353 269.912H284.353ZM285.011 267.122C285.503 266.29 286.094 265.725 286.867 265.297L279.111 251.302C275.803 253.135 273.15 255.741 271.233 258.988L285.011 267.122ZM286.867 265.297C287.668 264.853 288.561 264.604 289.698 264.604V248.604C285.969 248.604 282.389 249.485 279.111 251.302L286.867 265.297ZM289.698 264.604C290.875 264.604 291.75 264.859 292.494 265.277L300.322 251.322C297.035 249.478 293.437 248.604 289.698 248.604V264.604ZM292.53 265.297C293.288 265.717 293.85 266.262 294.312 267.06L308.163 259.05C306.265 255.769 303.608 253.143 300.286 251.302L292.53 265.297ZM294.333 267.097C294.729 267.772 295.007 268.638 295.007 269.912H311.007C311.007 266.074 310.106 262.369 308.142 259.014L294.333 267.097ZM295.007 269.912C295.007 271.185 294.729 272.081 294.312 272.801L308.163 280.811C310.106 277.452 311.007 273.752 311.007 269.912H295.007ZM294.333 272.765C293.869 273.558 293.283 274.138 292.466 274.601L300.35 288.524C303.613 286.676 306.246 284.086 308.142 280.848L294.333 272.765ZM292.53 274.565C291.729 275.009 290.836 275.258 289.698 275.258V291.258C293.427 291.258 297.007 290.377 300.286 288.559L292.53 274.565ZM289.698 284.548C293.461 284.548 297.25 283.223 300.062 280.019L288.036 269.465C288.297 269.167 288.671 268.887 289.1 268.708C289.502 268.542 289.747 268.548 289.698 268.548V284.548ZM300.001 280.087C302.702 277.079 303.671 273.398 303.671 269.912H287.671C287.671 270.211 287.63 270.237 287.682 270.084C287.708 270.006 287.753 269.896 287.827 269.767C287.902 269.638 287.993 269.512 288.096 269.397L300.001 280.087ZM303.671 269.912C303.671 266.445 302.736 262.684 299.946 259.64L288.151 270.452C288.026 270.315 287.919 270.168 287.835 270.022C287.751 269.878 287.702 269.757 287.676 269.677C287.624 269.524 287.671 269.567 287.671 269.912H303.671ZM300.062 259.769C297.25 256.565 293.461 255.24 289.698 255.24V271.24C289.747 271.24 289.502 271.246 289.1 271.079C288.671 270.901 288.297 270.621 288.036 270.323L300.062 259.769ZM289.698 255.24C285.949 255.24 282.131 256.541 279.298 259.769L291.324 270.323C291.051 270.634 290.67 270.914 290.247 271.089C289.853 271.251 289.623 271.24 289.698 271.24V255.24ZM279.352 259.708C276.623 262.755 275.726 266.49 275.726 269.912H291.726C291.726 269.551 291.773 269.489 291.729 269.625C291.705 269.697 291.66 269.812 291.58 269.953C291.5 270.096 291.396 270.243 291.27 270.384L279.352 259.708ZM275.726 269.912C275.726 273.348 276.641 277.028 279.298 280.055L291.324 269.502C291.432 269.625 291.523 269.756 291.595 269.884C291.666 270.011 291.707 270.115 291.729 270.181C291.77 270.309 291.726 270.25 291.726 269.912H275.726ZM279.352 280.117C282.201 283.297 286.003 284.548 289.698 284.548V268.548C289.604 268.548 289.815 268.534 290.193 268.687C290.602 268.852 290.986 269.123 291.27 269.441L279.352 280.117ZM313.481 277.47H305.481V285.47H313.481V277.47ZM321.555 277.47H329.555V269.47H321.555V277.47ZM321.555 283V291H329.555V283H321.555ZM306.255 283H298.255V291H306.255V283ZM306.255 257.009V249.009H298.255V257.009H306.255ZM313.481 257.009H321.481V249.009H313.481V257.009ZM313.481 285.47H321.555V269.47H313.481V285.47ZM313.555 277.47V283H329.555V277.47H313.555ZM321.555 275H306.255V291H321.555V275ZM314.255 283V257.009H298.255V283H314.255ZM306.255 265.009H313.481V249.009H306.255V265.009ZM305.481 257.009V277.47H321.481V257.009H305.481ZM326.724 281.12L321.937 287.53L321.963 287.549L321.99 287.568L326.724 281.12ZM323.591 274.926V266.926H315.138L315.603 275.366L323.591 274.926ZM331.296 274.926L339.269 274.28L338.673 266.926H331.296V274.926ZM332.107 276.917L326.772 282.879L326.772 282.879L332.107 276.917ZM335.535 277.064L340.395 283.419L340.421 283.399L340.447 283.379L335.535 277.064ZM335.13 273.894L339.176 266.992L339.175 266.992L335.13 273.894ZM331.664 272.493L329.134 280.082L329.17 280.094L329.205 280.106L331.664 272.493ZM327.535 270.871L323.823 277.958L323.923 278.01L324.025 278.059L327.535 270.871ZM324.807 268.548L318.371 273.299L318.434 273.386L318.501 273.47L324.807 268.548ZM324.918 260.253L331.446 264.877L331.468 264.846L331.49 264.814L324.918 260.253ZM328.383 257.525L325.306 250.141L325.306 250.141L328.383 257.525ZM340.623 258.742L335.646 265.005L335.693 265.043L335.741 265.08L340.623 258.742ZM343.535 264.677V272.677H351.929L351.526 264.293L343.535 264.677ZM335.683 264.677L327.687 264.927L327.929 272.677H335.683V264.677ZM334.945 262.908L329.63 268.887L329.71 268.958L329.792 269.027L334.945 262.908ZM331.885 262.797L337.329 268.659L337.329 268.659L331.885 262.797ZM331.922 265.452L326.265 271.108L326.454 271.297L326.654 271.472L331.922 265.452ZM333.36 266.373L329.909 273.59L330.038 273.652L330.17 273.71L333.36 266.373ZM335.867 267.332L333.187 274.869L333.228 274.884L333.27 274.898L335.867 267.332ZM339.922 269.028L336.149 276.082L336.246 276.134L336.345 276.183L339.922 269.028ZM342.687 271.35L336.306 276.175L336.372 276.262L336.44 276.348L342.687 271.35ZM342.687 279.276L335.949 274.964L335.918 275.012L335.888 275.061L342.687 279.276ZM339.333 282.189L335.851 274.986L335.827 274.998L335.804 275.009L339.333 282.189ZM334.171 275.258C332.412 275.258 331.711 274.857 331.459 274.671L321.99 287.568C325.62 290.234 329.884 291.258 334.171 291.258V275.258ZM331.511 274.71C331.483 274.689 331.498 274.696 331.533 274.737C331.569 274.779 331.601 274.828 331.623 274.872C331.644 274.914 331.641 274.921 331.628 274.87C331.615 274.818 331.59 274.695 331.578 274.487L315.603 275.366C315.865 280.124 317.879 284.499 321.937 287.53L331.511 274.71ZM323.591 282.926H331.296V266.926H323.591V282.926ZM323.322 275.573C323.486 277.602 324.202 280.579 326.772 282.879L337.441 270.955C339.077 272.419 339.252 274.07 339.269 274.28L323.322 275.573ZM326.772 282.879C328.959 284.836 331.576 285.544 333.913 285.544V269.544C334.3 269.544 334.868 269.599 335.531 269.829C336.213 270.066 336.871 270.445 337.441 270.955L326.772 282.879ZM333.913 285.544C335.867 285.544 338.252 285.058 340.395 283.419L330.676 270.71C331.983 269.71 333.286 269.544 333.913 269.544V285.544ZM340.447 283.379C342.954 281.43 344.199 278.572 344.199 275.664H328.199C328.199 274.942 328.339 274.01 328.803 273.031C329.273 272.04 329.942 271.28 330.624 270.75L340.447 283.379ZM344.199 275.664C344.199 271.783 342.087 268.699 339.176 266.992L331.084 280.796C330.519 280.464 329.72 279.839 329.084 278.787C328.43 277.704 328.199 276.582 328.199 275.664H344.199ZM339.175 266.992C337.676 266.113 335.83 265.432 334.124 264.88L329.205 280.106C329.88 280.324 330.379 280.505 330.73 280.647C331.109 280.8 331.187 280.856 331.084 280.796L339.175 266.992ZM334.194 264.904C332.681 264.399 331.667 263.986 331.046 263.682L324.025 278.059C325.517 278.788 327.256 279.456 329.134 280.082L334.194 264.904ZM331.247 263.784C331.271 263.797 331.278 263.804 331.265 263.793C331.25 263.781 331.197 263.733 331.114 263.626L318.501 273.47C319.919 275.288 321.688 276.839 323.823 277.958L331.247 263.784ZM331.244 263.797C331.479 264.117 331.595 264.407 331.645 264.581C331.69 264.739 331.664 264.744 331.664 264.53H315.664C315.664 267.4 316.338 270.545 318.371 273.299L331.244 263.797ZM331.664 264.53C331.664 264.362 331.685 264.355 331.655 264.457C331.64 264.508 331.616 264.575 331.578 264.653C331.541 264.731 331.496 264.807 331.446 264.877L318.39 255.629C316.453 258.363 315.664 261.469 315.664 264.53H331.664ZM331.49 264.814C331.475 264.836 331.454 264.863 331.428 264.89C331.402 264.918 331.378 264.939 331.359 264.954C331.341 264.968 331.335 264.971 331.348 264.963C331.361 264.956 331.396 264.936 331.46 264.91L325.306 250.141C322.552 251.288 320.13 253.12 318.345 255.693L331.49 264.814ZM331.46 264.91C331.809 264.764 332.409 264.604 333.397 264.604V248.604C330.649 248.604 327.906 249.057 325.306 250.141L331.46 264.91ZM333.397 264.604C334.291 264.604 334.865 264.71 335.201 264.809C335.516 264.903 335.627 264.99 335.646 265.005L345.599 252.478C341.995 249.614 337.648 248.604 333.397 248.604V264.604ZM335.741 265.08C335.744 265.082 335.709 265.055 335.658 264.994C335.607 264.932 335.564 264.863 335.533 264.8C335.503 264.739 335.5 264.714 335.507 264.744C335.515 264.777 335.536 264.877 335.545 265.061L351.526 264.293C351.305 259.695 349.41 255.412 345.505 252.404L335.741 265.08ZM343.535 256.677H335.683V272.677H343.535V256.677ZM343.679 264.427C343.605 262.068 342.775 259.042 340.098 256.788L329.792 269.027C329.004 268.363 328.439 267.548 328.095 266.722C327.769 265.939 327.698 265.288 327.687 264.927L343.679 264.427ZM340.26 256.928C338.067 254.979 335.465 254.318 333.213 254.318V270.318C332.386 270.318 330.939 270.05 329.63 268.887L340.26 256.928ZM333.213 254.318C330.981 254.318 328.49 255.033 326.442 256.935L337.329 268.659C336.712 269.233 335.981 269.677 335.193 269.962C334.423 270.24 333.732 270.318 333.213 270.318V254.318ZM326.442 256.935C324.07 259.137 323.369 261.955 323.369 264.161H339.369C339.369 264.633 339.301 265.361 338.981 266.209C338.646 267.094 338.094 267.949 337.329 268.659L326.442 256.935ZM323.369 264.161C323.369 266.913 324.498 269.34 326.265 271.108L337.579 259.795C338.032 260.248 338.509 260.88 338.861 261.701C339.217 262.532 339.369 263.379 339.369 264.161H323.369ZM326.654 271.472C327.692 272.38 328.812 273.066 329.909 273.59L336.812 259.156C336.777 259.14 336.939 259.211 337.19 259.431L326.654 271.472ZM330.17 273.71C330.991 274.067 332.033 274.459 333.187 274.869L338.547 259.794C337.489 259.418 336.86 259.171 336.55 259.037L330.17 273.71ZM333.27 274.898C334.675 275.381 335.597 275.786 336.149 276.082L343.696 261.973C342.134 261.138 340.352 260.413 338.465 259.765L333.27 274.898ZM336.345 276.183C336.338 276.18 336.327 276.173 336.313 276.165C336.3 276.156 336.288 276.147 336.279 276.139C336.27 276.132 336.268 276.129 336.271 276.132C336.275 276.136 336.287 276.149 336.306 276.175L349.069 266.525C347.598 264.581 345.733 262.988 343.5 261.872L336.345 276.183ZM336.44 276.348C336.188 276.032 336.026 275.7 335.939 275.422C335.857 275.162 335.867 275.034 335.867 275.111H351.867C351.867 272.165 351.08 269.035 348.934 266.353L336.44 276.348ZM335.867 275.111C335.867 275.135 335.866 275.152 335.866 275.163C335.865 275.175 335.864 275.18 335.864 275.18C335.864 275.18 335.865 275.176 335.866 275.168C335.868 275.159 335.871 275.148 335.875 275.134C335.883 275.104 335.895 275.071 335.91 275.038C335.925 275.004 335.939 274.979 335.949 274.964L349.426 283.589C351.087 280.992 351.867 278.089 351.867 275.111H335.867ZM335.888 275.061C335.912 275.023 335.939 274.985 335.968 274.952C335.996 274.918 336.02 274.896 336.033 274.885C336.045 274.874 336.042 274.879 336.015 274.896C335.988 274.914 335.936 274.945 335.851 274.986L342.814 289.392C345.469 288.108 347.822 286.177 349.487 283.492L335.888 275.061ZM335.804 275.009C335.677 275.072 335.217 275.258 334.171 275.258V291.258C337.107 291.258 340.088 290.732 342.861 289.369L335.804 275.009Z" fill="#2E2C43" mask="url(#path-17-outside-3_282_194)"/>
</svg>
