<svg width="389" height="257" viewBox="0 0 389 257" fill="none" xmlns="http://www.w3.org/2000/svg">
<rect x="0.149183" y="0.149183" width="388.702" height="256.702" rx="10.4267" fill="url(#paint0_linear_214_664)" stroke="#FB8C00" stroke-width="0.298365"/>
<path d="M121.82 78.8286C126.216 78.4661 129.54 75.2708 129.245 71.6918C128.949 68.1128 125.147 65.5053 120.751 65.8678C116.356 66.2304 113.032 69.4257 113.327 73.0047C113.622 76.5837 117.425 79.1912 121.82 78.8286Z" fill="#FB8C00"/>
<path d="M93.3135 79.4853C97.6558 80.2572 101.686 78.0167 102.314 74.481C102.943 70.9452 99.932 67.4531 95.5896 66.6812C91.2473 65.9092 87.2175 68.1497 86.589 71.6855C85.9604 75.2212 88.9711 78.7133 93.3135 79.4853Z" fill="#FB8C00"/>
<path d="M138.83 64.842C144.797 64.3499 149.308 60.0127 148.908 55.1547C148.507 50.2966 143.346 46.7573 137.379 47.2495C131.413 47.7416 126.901 52.0787 127.302 56.9368C127.702 61.7948 132.864 65.3341 138.83 64.842Z" fill="#FB8C00"/>
<path d="M76.6113 68.1075C79.3806 67.8791 81.4824 65.9596 81.3059 63.8202C81.1295 61.6808 78.7415 60.1317 75.9723 60.3601C73.2031 60.5885 71.1012 62.508 71.2777 64.6474C71.4542 66.7867 73.8421 68.3359 76.6113 68.1075Z" fill="#FB8C00"/>
<path d="M243.337 83.2977C262.583 80.7758 276.819 68.2992 275.133 55.4305C273.446 42.5618 256.477 34.1741 237.23 36.6961C217.984 39.218 203.748 51.6946 205.434 64.5633C207.12 77.432 224.09 85.8197 243.337 83.2977Z" fill="#FB8C00"/>
<path d="M203.24 72.4147C230.486 68.8447 250.973 53.7428 249 38.6837C247.026 23.6246 223.34 14.3109 196.095 17.8809C168.849 21.4509 148.362 36.5528 150.335 51.6119C152.309 66.671 175.995 75.9847 203.24 72.4147Z" fill="#FB8C00"/>
<path d="M202.264 61.4487C223.26 58.6975 239.147 47.8107 237.748 37.1325C236.349 26.4542 218.193 20.028 197.197 22.7792C176.2 25.5304 160.314 36.4172 161.713 47.0955C163.112 57.7737 181.267 64.1999 202.264 61.4487Z" fill="#FB8C00"/>
<path d="M209.783 101.266C230.53 98.5477 246.026 86.2544 244.395 73.8082C242.764 61.362 224.624 53.4762 203.877 56.1946C183.131 58.9131 167.634 71.2064 169.265 83.6526C170.896 96.0988 189.037 103.985 209.783 101.266Z" fill="#FB8C00"/>
<path d="M180.879 91.4816C200.626 88.8941 215.587 78.806 214.295 68.9491C213.004 59.0923 195.949 53.1992 176.202 55.7867C156.456 58.3741 141.495 68.4622 142.786 78.3191C144.078 88.176 161.133 94.069 180.879 91.4816Z" fill="#FB8C00"/>
<path d="M165.973 55.112C164.586 55.112 163.477 54.8347 162.645 54.28C161.823 53.7253 161.413 52.9147 161.413 51.848C161.413 51.7413 161.423 51.5813 161.445 51.368H165.221C165.189 51.6987 165.237 51.944 165.365 52.104C165.503 52.264 165.727 52.344 166.037 52.344C166.229 52.344 166.389 52.296 166.517 52.2C166.645 52.104 166.709 51.9653 166.709 51.784C166.709 51.528 166.581 51.3147 166.325 51.144C166.079 50.9733 165.679 50.7707 165.125 50.536C164.517 50.28 164.015 50.0347 163.621 49.8C163.237 49.5653 162.901 49.2453 162.613 48.84C162.325 48.4347 162.181 47.928 162.181 47.32C162.181 46.52 162.378 45.832 162.773 45.256C163.178 44.6693 163.738 44.2267 164.453 43.928C165.167 43.6293 165.983 43.48 166.901 43.48C167.722 43.48 168.453 43.608 169.093 43.864C169.743 44.12 170.25 44.4933 170.613 44.984C170.986 45.464 171.173 46.0347 171.173 46.696C171.173 46.7813 171.162 46.9307 171.141 47.144H167.317C167.338 47.016 167.349 46.9307 167.349 46.888C167.349 46.6853 167.29 46.5307 167.173 46.424C167.055 46.3067 166.895 46.248 166.693 46.248C166.511 46.248 166.362 46.3013 166.245 46.408C166.127 46.5147 166.069 46.6533 166.069 46.824C166.069 47.0587 166.191 47.2667 166.437 47.448C166.682 47.6187 167.071 47.832 167.605 48.088C168.213 48.376 168.714 48.648 169.109 48.904C169.514 49.16 169.861 49.5013 170.149 49.928C170.437 50.344 170.581 50.856 170.581 51.464C170.581 52.1573 170.394 52.7813 170.021 53.336C169.658 53.8907 169.13 54.328 168.437 54.648C167.743 54.9573 166.922 55.112 165.973 55.112ZM176.302 47.208C176.601 46.792 176.98 46.4667 177.438 46.232C177.908 45.9867 178.436 45.864 179.022 45.864C179.929 45.864 180.66 46.168 181.214 46.776C181.769 47.384 182.046 48.2267 182.046 49.304C182.046 49.7093 182.009 50.104 181.934 50.488C181.764 51.4373 181.454 52.264 181.006 52.968C180.558 53.6613 180.02 54.1947 179.39 54.568C178.761 54.9307 178.094 55.112 177.39 55.112C176.804 55.112 176.318 54.9947 175.934 54.76C175.561 54.5147 175.3 54.184 175.15 53.768L174.174 59.32H170.622L172.974 45.976H176.526L176.302 47.208ZM178.334 50.488C178.356 50.392 178.366 50.264 178.366 50.104C178.366 49.7413 178.27 49.464 178.078 49.272C177.886 49.0693 177.625 48.968 177.294 48.968C176.91 48.968 176.569 49.1013 176.27 49.368C175.982 49.6347 175.796 50.008 175.71 50.488C175.689 50.584 175.678 50.712 175.678 50.872C175.678 51.2347 175.774 51.5173 175.966 51.72C176.158 51.912 176.42 52.008 176.75 52.008C177.134 52.008 177.47 51.8747 177.758 51.608C178.057 51.3413 178.249 50.968 178.334 50.488ZM182.569 50.488C182.74 49.5387 183.049 48.7173 183.497 48.024C183.945 47.32 184.484 46.7867 185.113 46.424C185.743 46.0507 186.409 45.864 187.113 45.864C187.7 45.864 188.185 45.9867 188.569 46.232C188.953 46.4667 189.22 46.792 189.369 47.208L189.593 45.976H193.129L191.529 55H187.993L188.217 53.768C187.919 54.184 187.535 54.5147 187.065 54.76C186.596 54.9947 186.068 55.112 185.481 55.112C184.575 55.112 183.844 54.808 183.289 54.2C182.735 53.592 182.457 52.7493 182.457 51.672C182.457 51.2667 182.495 50.872 182.569 50.488ZM188.793 50.488C188.815 50.392 188.825 50.264 188.825 50.104C188.825 49.7413 188.729 49.464 188.537 49.272C188.345 49.0693 188.084 48.968 187.753 48.968C187.369 48.968 187.028 49.1013 186.729 49.368C186.441 49.6347 186.255 50.008 186.169 50.488C186.148 50.584 186.137 50.712 186.137 50.872C186.137 51.2347 186.233 51.5173 186.425 51.72C186.617 51.912 186.879 52.008 187.209 52.008C187.593 52.008 187.929 51.8747 188.217 51.608C188.516 51.3413 188.708 50.968 188.793 50.488ZM193.444 50.488C193.615 49.5387 193.924 48.7173 194.372 48.024C194.82 47.32 195.359 46.7867 195.988 46.424C196.618 46.0507 197.284 45.864 197.988 45.864C198.575 45.864 199.055 45.9867 199.428 46.232C199.812 46.4667 200.079 46.792 200.228 47.208L200.948 43.16H204.5L202.404 55H198.852L199.076 53.768C198.778 54.184 198.394 54.5147 197.924 54.76C197.466 54.9947 196.943 55.112 196.356 55.112C195.45 55.112 194.719 54.808 194.164 54.2C193.61 53.592 193.332 52.7493 193.332 51.672C193.332 51.2667 193.37 50.872 193.444 50.488ZM199.668 50.488C199.69 50.392 199.7 50.264 199.7 50.104C199.7 49.7413 199.604 49.464 199.412 49.272C199.22 49.0693 198.959 48.968 198.628 48.968C198.244 48.968 197.903 49.1013 197.604 49.368C197.316 49.6347 197.13 50.008 197.044 50.488C197.023 50.584 197.012 50.712 197.012 50.872C197.012 51.2347 197.108 51.5173 197.3 51.72C197.492 51.912 197.754 52.008 198.084 52.008C198.468 52.008 198.804 51.8747 199.092 51.608C199.391 51.3413 199.583 50.968 199.668 50.488ZM209.743 45.864C210.938 45.864 211.887 46.184 212.591 46.824C213.295 47.4533 213.647 48.3173 213.647 49.416C213.647 49.7253 213.615 50.056 213.551 50.408C213.477 50.76 213.418 50.9947 213.375 51.112H207.679C207.669 51.176 207.663 51.2667 207.663 51.384C207.663 51.9813 207.919 52.28 208.431 52.28C208.826 52.28 209.135 52.104 209.359 51.752H213.119C212.885 52.392 212.517 52.968 212.015 53.48C211.514 53.9813 210.922 54.3813 210.239 54.68C209.567 54.968 208.858 55.112 208.111 55.112C206.917 55.112 205.967 54.7973 205.263 54.168C204.57 53.528 204.223 52.6427 204.223 51.512C204.223 51.1813 204.255 50.84 204.319 50.488C204.49 49.5493 204.831 48.7333 205.343 48.04C205.855 47.336 206.49 46.7973 207.247 46.424C208.015 46.0507 208.847 45.864 209.743 45.864ZM210.079 49.656C210.09 49.6027 210.095 49.5227 210.095 49.416C210.095 49.16 210.015 48.968 209.855 48.84C209.695 48.712 209.493 48.648 209.247 48.648C208.607 48.648 208.175 48.984 207.951 49.656H210.079ZM217.987 55.112C217.197 55.112 216.493 54.9947 215.875 54.76C215.267 54.5253 214.787 54.2 214.435 53.784C214.093 53.3573 213.923 52.872 213.923 52.328C213.923 52.1253 213.933 51.976 213.955 51.88H217.363C217.352 52.1467 217.427 52.344 217.587 52.472C217.757 52.6 217.987 52.664 218.275 52.664C218.456 52.664 218.611 52.6213 218.739 52.536C218.877 52.4507 218.947 52.3493 218.947 52.232C218.947 52.0613 218.84 51.928 218.627 51.832C218.413 51.7253 218.061 51.608 217.571 51.48C216.952 51.3093 216.435 51.1333 216.019 50.952C215.613 50.7707 215.256 50.504 214.947 50.152C214.648 49.7893 214.499 49.32 214.499 48.744C214.499 48.2107 214.659 47.7253 214.979 47.288C215.309 46.84 215.768 46.4933 216.355 46.248C216.952 45.992 217.64 45.864 218.419 45.864C219.272 45.864 220.003 46.008 220.611 46.296C221.229 46.584 221.693 46.9733 222.003 47.464C222.312 47.9547 222.456 48.4987 222.435 49.096H219.283C219.283 48.8507 219.208 48.664 219.059 48.536C218.909 48.3973 218.691 48.328 218.403 48.328C218.221 48.328 218.067 48.3653 217.939 48.44C217.821 48.5147 217.763 48.616 217.763 48.744C217.763 48.904 217.869 49.0373 218.083 49.144C218.296 49.24 218.659 49.368 219.171 49.528C219.8 49.7093 220.317 49.8907 220.723 50.072C221.139 50.2427 221.501 50.504 221.811 50.856C222.12 51.1973 222.275 51.6347 222.275 52.168C222.275 53.096 221.875 53.8213 221.075 54.344C220.285 54.856 219.256 55.112 217.987 55.112ZM239.491 45.912C240.472 45.912 241.224 46.168 241.747 46.68C242.28 47.192 242.547 47.9013 242.547 48.808C242.547 49.1067 242.515 49.4267 242.451 49.768L241.523 55H237.987L238.835 50.216C238.846 50.152 238.851 50.0613 238.851 49.944C238.851 49.6347 238.755 49.4 238.563 49.24C238.382 49.0693 238.126 48.984 237.795 48.984C237.411 48.984 237.086 49.0907 236.819 49.304C236.563 49.5067 236.398 49.7893 236.323 50.152L235.459 55H231.923L232.771 50.216C232.782 50.152 232.787 50.0613 232.787 49.944C232.787 49.6347 232.691 49.4 232.499 49.24C232.318 49.0693 232.062 48.984 231.731 48.984C231.347 48.984 231.022 49.0907 230.755 49.304C230.499 49.5173 230.334 49.8053 230.259 50.168L229.395 55H225.843L227.443 45.976H230.995L230.771 47.192C231.102 46.808 231.507 46.4987 231.987 46.264C232.467 46.0293 233.006 45.912 233.603 45.912C234.254 45.912 234.803 46.056 235.251 46.344C235.71 46.6213 236.04 47.0213 236.243 47.544C236.659 47.064 237.144 46.6747 237.699 46.376C238.264 46.0667 238.862 45.912 239.491 45.912ZM247.654 45.976L248.534 50.552L250.934 45.976H254.854L246.726 59.32H242.838L245.942 54.552L243.702 45.976H247.654ZM176.725 67.672L174.725 79H171.189L172.181 73.368L169.445 79H166.405L165.653 73.32L164.661 79H161.109L163.109 67.672H167.461L168.757 74.488L172.389 67.672H176.725ZM176.648 74.488C176.818 73.5387 177.128 72.7173 177.576 72.024C178.024 71.32 178.562 70.7867 179.192 70.424C179.821 70.0507 180.488 69.864 181.192 69.864C181.778 69.864 182.264 69.9867 182.648 70.232C183.032 70.4667 183.298 70.792 183.448 71.208L183.672 69.976H187.208L185.608 79H182.072L182.296 77.768C181.997 78.184 181.613 78.5147 181.144 78.76C180.674 78.9947 180.146 79.112 179.56 79.112C178.653 79.112 177.922 78.808 177.368 78.2C176.813 77.592 176.536 76.7493 176.536 75.672C176.536 75.2667 176.573 74.872 176.648 74.488ZM182.872 74.488C182.893 74.392 182.904 74.264 182.904 74.104C182.904 73.7413 182.808 73.464 182.616 73.272C182.424 73.0693 182.162 72.968 181.832 72.968C181.448 72.968 181.106 73.1013 180.808 73.368C180.52 73.6347 180.333 74.008 180.248 74.488C180.226 74.584 180.216 74.712 180.216 74.872C180.216 75.2347 180.312 75.5173 180.504 75.72C180.696 75.912 180.957 76.008 181.288 76.008C181.672 76.008 182.008 75.8747 182.296 75.608C182.594 75.3413 182.786 74.968 182.872 74.488ZM191.331 79.112C190.541 79.112 189.837 78.9947 189.219 78.76C188.611 78.5253 188.131 78.2 187.779 77.784C187.437 77.3573 187.267 76.872 187.267 76.328C187.267 76.1253 187.277 75.976 187.299 75.88H190.707C190.696 76.1467 190.771 76.344 190.931 76.472C191.101 76.6 191.331 76.664 191.619 76.664C191.8 76.664 191.955 76.6213 192.083 76.536C192.221 76.4507 192.291 76.3493 192.291 76.232C192.291 76.0613 192.184 75.928 191.971 75.832C191.757 75.7253 191.405 75.608 190.915 75.48C190.296 75.3093 189.779 75.1333 189.363 74.952C188.957 74.7707 188.6 74.504 188.291 74.152C187.992 73.7893 187.843 73.32 187.843 72.744C187.843 72.2107 188.003 71.7253 188.323 71.288C188.653 70.84 189.112 70.4933 189.699 70.248C190.296 69.992 190.984 69.864 191.763 69.864C192.616 69.864 193.347 70.008 193.955 70.296C194.573 70.584 195.037 70.9733 195.347 71.464C195.656 71.9547 195.8 72.4987 195.779 73.096H192.627C192.627 72.8507 192.552 72.664 192.403 72.536C192.253 72.3973 192.035 72.328 191.747 72.328C191.565 72.328 191.411 72.3653 191.283 72.44C191.165 72.5147 191.107 72.616 191.107 72.744C191.107 72.904 191.213 73.0373 191.427 73.144C191.64 73.24 192.003 73.368 192.515 73.528C193.144 73.7093 193.661 73.8907 194.067 74.072C194.483 74.2427 194.845 74.504 195.155 74.856C195.464 75.1973 195.619 75.6347 195.619 76.168C195.619 77.096 195.219 77.8213 194.419 78.344C193.629 78.856 192.6 79.112 191.331 79.112ZM201.22 75.368C201.209 75.4107 201.204 75.464 201.204 75.528C201.204 75.8267 201.396 75.976 201.78 75.976H202.628L202.084 79H200.74C198.639 79 197.588 78.1093 197.588 76.328C197.588 76.008 197.62 75.6667 197.684 75.304L198.1 72.936H196.98L197.508 69.976H198.628L199.012 67.8H202.564L202.18 69.976H203.652L203.124 72.936H201.652L201.22 75.368ZM209.181 69.864C210.376 69.864 211.325 70.184 212.029 70.824C212.733 71.4533 213.085 72.3173 213.085 73.416C213.085 73.7253 213.053 74.056 212.989 74.408C212.914 74.76 212.856 74.9947 212.813 75.112H207.117C207.106 75.176 207.101 75.2667 207.101 75.384C207.101 75.9813 207.357 76.28 207.869 76.28C208.264 76.28 208.573 76.104 208.797 75.752H212.557C212.322 76.392 211.954 76.968 211.453 77.48C210.952 77.9813 210.36 78.3813 209.677 78.68C209.005 78.968 208.296 79.112 207.549 79.112C206.354 79.112 205.405 78.7973 204.701 78.168C204.008 77.528 203.661 76.6427 203.661 75.512C203.661 75.1813 203.693 74.84 203.757 74.488C203.928 73.5493 204.269 72.7333 204.781 72.04C205.293 71.336 205.928 70.7973 206.685 70.424C207.453 70.0507 208.285 69.864 209.181 69.864ZM209.517 73.656C209.528 73.6027 209.533 73.5227 209.533 73.416C209.533 73.16 209.453 72.968 209.293 72.84C209.133 72.712 208.93 72.648 208.685 72.648C208.045 72.648 207.613 72.984 207.389 73.656H209.517ZM218.16 71.64C218.619 71.1173 219.131 70.7013 219.696 70.392C220.272 70.072 220.843 69.912 221.408 69.912L220.752 73.704H219.744C219.072 73.704 218.555 73.8213 218.192 74.056C217.84 74.2907 217.611 74.7067 217.504 75.304L216.848 79H213.296L214.896 69.976H218.448L218.16 71.64ZM230.396 66.92L228.652 74.504H225.612L226.524 66.92H230.396ZM226.316 79.128C225.761 79.128 225.324 78.9947 225.004 78.728C224.694 78.4613 224.54 78.1147 224.54 77.688C224.54 77.3147 224.641 76.968 224.844 76.648C225.057 76.328 225.345 76.0773 225.708 75.896C226.081 75.704 226.492 75.608 226.94 75.608C227.484 75.608 227.91 75.7467 228.22 76.024C228.529 76.2907 228.684 76.6373 228.684 77.064C228.684 77.4373 228.582 77.784 228.38 78.104C228.177 78.4133 227.894 78.664 227.532 78.856C227.169 79.0373 226.764 79.128 226.316 79.128Z" fill="white"/>
<path d="M96.8302 185.43C41.3382 186.964 46.0124 136.716 45.1793 99.4641C58.0424 87.1489 73.7873 96.3815 80.0519 102.537C82.2074 122.987 66.6571 146.388 84.5951 162.711C107.018 183.115 118.355 165.052 135.904 181.47C149.944 194.604 145.533 214.562 126.595 221.083C145.919 210.178 152.205 183.899 96.8302 185.43Z" fill="url(#paint1_linear_214_664)" stroke="#FB8C00"/>
<path d="M84.4459 95.7014L85.4332 100.054L82.7465 108.409L73.0504 117.313C82.0429 118.657 91.227 116.978 99.1626 112.54C99.1626 112.54 104.531 90.6534 84.0505 88.8485C78.2825 92.0004 73.395 94.0998 68.1494 93.6272L68.3628 93.646C63.1153 93.1939 58.6704 90.2721 53.5425 86.1601C33.0616 84.3552 34.5198 106.844 34.5198 106.844C50.6441 118.621 58.4846 115.333 82.7465 108.409L84.3291 102.492L43.0482 101.176L52.2476 100.425" fill="#FB8C00"/>
<path d="M99.136 112.54C99.136 112.54 104.505 90.6534 84.0239 88.8485C78.2559 92.0004 73.3669 94.0979 68.123 93.6255L68.3363 93.6443C63.0889 93.1922 58.6437 90.2721 53.5159 86.1601C33.035 84.3552 34.4932 106.844 34.4932 106.844" fill="#FB8C00"/>
<path d="M84.506 88.8912C79.7731 91.8881 74.3137 93.5404 68.7132 93.6708C90.9446 96.3403 90.1926 104.874 90.8915 111.816L99.618 112.585C99.618 112.585 104.987 90.696 84.506 88.8912Z" fill="#FB8C00"/>
<path d="M99.6174 112.582C99.6174 112.582 78.1954 126.219 63.7791 114.52L82.7457 108.409L85.4324 100.054C85.4324 100.054 101.123 97.1987 99.6174 112.582Z" fill="#FB8C00"/>
<path d="M69.1465 83.5345C79.8348 84.4764 89.4536 74.4099 90.6309 61.0503C91.8082 47.6908 84.0981 36.0972 73.4099 35.1553C62.7217 34.2134 53.1028 44.2799 51.9255 57.6395C50.7482 70.999 58.4583 82.5926 69.1465 83.5345Z" fill="#FB8C00"/>
<path d="M96.0773 34.9977C72.9786 40.0434 52.2117 54.3847 52.2117 54.3847C52.2117 54.3847 46.2562 44.6751 50.0071 35.7401C50.0071 35.7401 55.0399 22.2912 73.471 23.9154C86.6181 25.074 92.7856 31.0699 96.0773 34.9977C105.256 50.8136 90.3873 57.8951 90.3873 57.8951C85.0512 52.9264 79.97 47.6909 75.1631 42.2087" fill="white"/>
<path d="M96.0779 34.9975C105.255 50.8132 90.3879 57.8949 90.3879 57.8949C85.0518 52.9262 79.9706 47.6907 75.1637 42.2085" fill="#F9F9F9"/>
<path d="M71.9304 51.9475C71.0251 51.8677 70.1885 51.4316 69.6048 50.735C69.021 50.0385 68.7379 49.1385 68.8177 48.2332L69.4193 41.4063C69.4991 40.501 69.9352 39.6644 70.6318 39.0807C71.3284 38.4969 72.2283 38.2138 73.1336 38.2936C74.0389 38.3734 74.8755 38.8095 75.4592 39.5061C76.0429 40.2027 76.3261 41.1026 76.2463 42.0079L75.6447 48.8349C75.5649 49.7402 75.1287 50.5767 74.4322 51.1604C73.7356 51.7442 72.8357 52.0273 71.9304 51.9475ZM82.7461 108.408L74.9406 110.87L75.7294 101.918L84.3126 102.674L82.7461 108.408Z" fill="#FCEA2B"/>
<path d="M73.0494 117.314C82.0408 118.658 91.2242 116.98 99.1596 112.544C99.1596 112.544 104.528 90.6568 84.0474 88.8519C78.2795 92.0038 73.3921 94.1015 68.1465 93.6289L68.3599 93.6477C63.1124 93.1956 58.6673 90.2755 53.5394 86.1635C33.0586 84.3586 34.5168 106.847 34.5168 106.847C50.6412 118.622 58.4815 115.337 82.7435 108.41L84.326 102.495L43.0452 101.18" stroke="black" stroke-width="1.13923" stroke-linecap="round" stroke-linejoin="round"/>
<path d="M84.4441 95.7019L85.4314 100.055L82.7447 108.409" stroke="black" stroke-width="1.13923" stroke-linecap="round" stroke-linejoin="round"/>
<path d="M81.723 57.9244C81.6635 58.5995 81.4051 59.2418 80.9806 59.7701C80.556 60.2984 79.9843 60.6889 79.3378 60.8923C78.6913 61.0957 77.9991 61.1028 77.3485 60.9128C76.698 60.7227 76.1184 60.344 75.6831 59.8246C75.2478 59.3051 74.9763 58.6682 74.9029 57.9945C74.8295 57.3207 74.9576 56.6404 75.2709 56.0394C75.5843 55.4384 76.0688 54.9439 76.6632 54.6183C77.2576 54.2926 77.9352 54.1506 78.6103 54.2101C79.5156 54.2899 80.3521 54.726 80.9359 55.4226C81.5196 56.1192 81.8027 57.0191 81.723 57.9244ZM68.069 56.7212C68.0095 57.3963 67.7512 58.0386 67.3266 58.5669C66.9021 59.0952 66.3304 59.4857 65.6839 59.6891C65.0374 59.8925 64.3451 59.8996 63.6946 59.7095C63.044 59.5195 62.4645 59.1408 62.0292 58.6213C61.5938 58.1019 61.3223 57.465 61.249 56.7913C61.1756 56.1175 61.3037 55.4371 61.617 54.8362C61.9303 54.2352 62.4148 53.7406 63.0092 53.415C63.6036 53.0894 64.2812 52.9474 64.9564 53.0069C65.8617 53.0866 66.6982 53.5228 67.282 54.2194C67.8657 54.9159 68.1488 55.8158 68.069 56.7212ZM69.9782 74.0928C67.9306 73.8925 65.9588 73.2132 64.2224 72.1098C63.8353 71.8716 63.5588 71.4893 63.4535 71.0472C63.3483 70.605 63.4231 70.1392 63.6613 69.7521C63.8996 69.3651 64.2818 69.0885 64.7239 68.9833C65.1661 68.8781 65.6319 68.9528 66.019 69.1911C67.2939 70.031 68.7576 70.5409 70.2785 70.6749C71.7994 70.8089 73.3297 70.5629 74.7319 69.9589C75.1549 69.792 75.6268 69.8 76.0439 69.9811C76.461 70.1622 76.789 70.5016 76.9559 70.9246C77.1227 71.3475 77.1147 71.8195 76.9336 72.2366C76.7525 72.6536 76.4132 72.9817 75.9902 73.1485C74.088 73.9304 72.0285 74.2539 69.9782 74.0928Z" fill="black"/>
<path d="M69.1284 44.7403C66.828 45.862 64.6826 46.9801 62.7667 48.0325C57.1103 51.1288 53.3106 53.6492 52.4156 54.2411C52.2871 54.333 52.2143 54.3781 52.2143 54.3781C52.2143 54.3781 46.2588 44.6686 50.0036 35.745C50.0036 35.745 55.0419 22.2914 73.4747 23.9158C86.6166 25.0739 92.7791 31.0694 96.0785 35.0065C104.412 49.3461 92.947 56.4885 90.7415 57.7045C90.5061 57.8386 90.3806 57.8963 90.3806 57.8963C90.3806 57.8963 83.3622 51.4642 76.1343 43.3109" stroke="black" stroke-width="1.13923" stroke-linecap="round" stroke-linejoin="round"/>
<path d="M76.2438 41.4802C82.6431 38.7196 89.2825 36.5526 96.0782 35.0066" stroke="black" stroke-width="1.13923" stroke-linecap="round" stroke-linejoin="round"/>
<path d="M75.6839 102.418L74.9698 110.521M52.3311 54.5461C52.1309 55.581 51.9843 56.6256 51.8919 57.6756C50.7145 71.036 58.4253 82.6289 69.1129 83.5707C79.8005 84.5125 89.4183 74.4467 90.5956 61.0864C90.692 60.0032 90.7304 58.9157 90.7107 57.8285M71.9289 51.9474C71.0236 51.8676 70.1871 51.4314 69.6033 50.7349C69.0196 50.0383 68.7365 49.1384 68.8163 48.2331L69.4179 41.4061C69.4977 40.5008 69.9338 39.6643 70.6304 39.0805C71.3269 38.4968 72.2269 38.2137 73.1322 38.2934C74.0375 38.3732 74.874 38.8094 75.4578 39.5059C76.0415 40.2025 76.3246 41.1024 76.2448 42.0077L75.6432 48.8347C75.5634 49.74 75.1273 50.5765 74.4307 51.1603C73.7342 51.744 72.8343 52.0271 71.9289 51.9474Z" stroke="black" stroke-width="1.13923" stroke-linecap="round" stroke-linejoin="round"/>
<ellipse cx="338" cy="53.0129" rx="16" ry="15.5" fill="#FB8C00"/>
<path d="M345.797 53.7353C346.075 53.4513 346.229 53.0686 346.225 52.6711C346.221 52.2736 346.06 51.8939 345.776 51.6154L340.065 46.0123C339.781 45.7337 339.397 45.5793 338.999 45.5832C338.602 45.5871 338.221 45.749 337.943 46.0331C337.664 46.3173 337.51 46.7005 337.514 47.0984C337.518 47.4963 337.68 47.8764 337.964 48.155L341.09 51.2215L329.555 51.3348C329.158 51.3387 328.778 51.5005 328.499 51.7845C328.221 52.0686 328.066 52.4516 328.07 52.8494C328.074 53.2472 328.236 53.6272 328.52 53.9057C328.804 54.1843 329.187 54.3385 329.585 54.3346L341.119 54.2213L338.054 57.3476C337.916 57.4883 337.807 57.6548 337.734 57.8375C337.66 58.0203 337.623 58.2158 337.625 58.4128C337.627 58.6099 337.668 58.8046 337.745 58.9859C337.822 59.1672 337.934 59.3315 338.075 59.4695C338.216 59.6074 338.382 59.7163 338.565 59.7899C338.748 59.8636 338.943 59.9004 339.14 59.8985C339.337 59.8966 339.532 59.8558 339.713 59.7787C339.894 59.7015 340.059 59.5893 340.197 59.4486L345.797 53.7353Z" fill="white"/>
<path d="M140.712 213.973C141.722 213.582 142.88 213.152 143.178 212.448C147.083 203.087 144.403 192.729 136.642 187.237C133.911 185.322 128.914 183.583 125.257 182.332C124.38 182.039 123.569 181.746 122.857 181.491C111.952 177.544 104.737 171.524 101.428 163.59C99.8723 159.857 99.5413 157.023 99.5579 154.248C99.1442 156.359 98.7305 158.684 98.7305 162.964C98.7305 175.374 104.87 180.886 111.522 184.97C115.163 187.218 118.919 188.058 122.89 188.938C126.779 189.817 130.817 190.716 134.656 193.061C138.512 195.426 140.944 198.475 141.854 202.168C142.715 205.608 142.251 209.595 140.497 214.07C140.58 214.031 140.646 214.012 140.712 213.973Z" fill="url(#paint2_linear_214_664)"/>
<path d="M99.0284 232.91C108.262 231.171 107.468 227.829 108.345 224.721L117.165 221.673C119.184 223.725 121.103 227.985 128.699 223.607C131.032 222.259 138.909 214.383 138.909 214.383L144.85 212.604C144.088 213.425 137.618 223.256 132.108 231.483C125.224 241.783 121.103 243.698 118.075 244.734C113.541 246.297 108.279 245.516 108.279 245.516C108.279 245.516 99.4421 246.649 93.3856 244.03C87.0974 241.314 84.2346 234.454 84.2346 234.454C84.2346 234.454 94.8583 233.379 99.0284 232.91ZM94.3785 240.845C96.6621 241.822 99.4421 242.213 101.891 242.33C100.094 240.775 98.5947 238.79 97.4895 236.506C95.8016 236.682 93.3359 236.956 89.6954 237.327C90.8869 238.675 92.4423 240.024 94.3785 240.845Z" fill="url(#paint3_linear_214_664)"/>
<path d="M89.6954 237.346C90.8869 238.695 92.4423 240.024 94.3785 240.864C96.6621 241.841 99.4421 242.232 101.891 242.35C100.104 240.806 98.3665 238.128 97.4895 236.526C102.454 236.838 108.858 236.252 115.345 234.005C127.524 229.783 137.817 216.552 139.571 214.188L144.85 212.604C144.088 213.425 137.618 223.256 132.108 231.483C127.458 238.421 124.082 241.548 121.434 243.17C127.077 242.955 130.436 247.02 130.436 247.02L108.643 254.564C108.643 254.564 109.619 248.955 114.534 245.535C111.175 245.965 108.279 245.535 108.279 245.535C108.279 245.535 99.4421 246.669 93.3856 244.05C87.0974 241.333 84.2346 234.474 84.2346 234.474L89.6954 237.346Z" fill="url(#paint4_radial_214_664)"/>
<path d="M112.101 216.044L117.512 222.142L108.163 225.386L110.645 216.63L108.725 214.774C108.179 214.246 107.898 213.445 107.964 212.624L108.312 207.895C108.327 207.685 108.394 207.485 108.505 207.32C108.616 207.155 108.766 207.033 108.935 206.968C109.105 206.903 109.287 206.899 109.459 206.956C109.631 207.013 109.784 207.129 109.9 207.289L112.565 210.904C113.077 211.588 113.226 212.565 112.945 213.425L112.101 216.044Z" fill="url(#paint5_radial_214_664)"/>
<path d="M109.288 252.493L128.897 245.692L126.448 244.167L110.711 249.62L109.288 252.493Z" fill="url(#paint6_radial_214_664)"/>
<path d="M201.864 198.624L201.624 199.944H198.144L197.76 202.14H200.424L200.196 203.436H197.52L196.896 207H195.204L196.692 198.624H201.864ZM203.739 199.56C203.475 199.56 203.263 199.484 203.103 199.332C202.943 199.18 202.863 198.988 202.863 198.756C202.863 198.436 202.983 198.164 203.223 197.94C203.471 197.708 203.759 197.592 204.087 197.592C204.343 197.592 204.551 197.668 204.711 197.82C204.871 197.972 204.951 198.164 204.951 198.396C204.951 198.716 204.831 198.992 204.591 199.224C204.351 199.448 204.067 199.56 203.739 199.56ZM204.435 200.352L203.259 207H201.567L202.743 200.352H204.435ZM209.779 200.256C210.467 200.256 211.007 200.444 211.399 200.82C211.799 201.188 211.999 201.716 211.999 202.404C211.999 202.66 211.979 202.892 211.939 203.1L211.243 207H209.575L210.223 203.328C210.247 203.184 210.259 203.044 210.259 202.908C210.259 202.508 210.151 202.204 209.935 201.996C209.727 201.788 209.427 201.684 209.035 201.684C208.587 201.684 208.203 201.82 207.883 202.092C207.571 202.356 207.363 202.74 207.259 203.244L206.599 207H204.907L206.083 200.352H207.775L207.631 201.168C207.903 200.888 208.227 200.668 208.603 200.508C208.979 200.34 209.371 200.256 209.779 200.256ZM213.009 203.652C213.129 202.98 213.365 202.384 213.717 201.864C214.077 201.344 214.513 200.944 215.025 200.664C215.545 200.384 216.089 200.244 216.657 200.244C217.089 200.244 217.485 200.34 217.845 200.532C218.205 200.716 218.473 200.964 218.649 201.276L219.213 198.12H220.905L219.333 207H217.641L217.821 206.016C217.557 206.344 217.217 206.608 216.801 206.808C216.393 207.008 215.941 207.108 215.445 207.108C214.957 207.108 214.521 207 214.137 206.784C213.761 206.56 213.465 206.248 213.249 205.848C213.041 205.44 212.937 204.968 212.937 204.432C212.937 204.184 212.961 203.924 213.009 203.652ZM218.229 203.676C218.261 203.468 218.277 203.316 218.277 203.22C218.277 202.748 218.137 202.38 217.857 202.116C217.585 201.852 217.241 201.72 216.825 201.72C216.513 201.72 216.209 201.796 215.913 201.948C215.625 202.1 215.373 202.324 215.157 202.62C214.941 202.908 214.797 203.252 214.725 203.652C214.701 203.804 214.689 203.948 214.689 204.084C214.689 204.564 214.825 204.944 215.097 205.224C215.369 205.496 215.713 205.632 216.129 205.632C216.441 205.632 216.745 205.556 217.041 205.404C217.337 205.244 217.589 205.016 217.797 204.72C218.013 204.424 218.157 204.076 218.229 203.676ZM226.476 200.352L227.364 204.996L229.944 200.352H231.732L225.888 210.144H224.1L226.116 206.832L224.592 200.352H226.476ZM234.426 207.108C233.858 207.108 233.354 206.992 232.914 206.76C232.482 206.528 232.146 206.2 231.906 205.776C231.666 205.352 231.546 204.864 231.546 204.312C231.546 203.56 231.722 202.876 232.074 202.26C232.434 201.636 232.922 201.144 233.538 200.784C234.162 200.424 234.854 200.244 235.614 200.244C236.182 200.244 236.686 200.364 237.126 200.604C237.574 200.836 237.918 201.164 238.158 201.588C238.406 202.012 238.53 202.5 238.53 203.052C238.53 203.812 238.35 204.5 237.99 205.116C237.63 205.732 237.134 206.22 236.502 206.58C235.878 206.932 235.186 207.108 234.426 207.108ZM234.654 205.668C235.054 205.668 235.418 205.552 235.746 205.32C236.074 205.088 236.33 204.78 236.514 204.396C236.698 204.012 236.79 203.608 236.79 203.184C236.79 202.704 236.654 202.336 236.382 202.08C236.118 201.816 235.782 201.684 235.374 201.684C234.966 201.684 234.602 201.8 234.282 202.032C233.97 202.264 233.726 202.576 233.55 202.968C233.374 203.352 233.286 203.76 233.286 204.192C233.286 204.664 233.41 205.028 233.658 205.284C233.914 205.54 234.246 205.668 234.654 205.668ZM246.554 200.352L245.378 207H243.698L243.842 206.16C243.586 206.448 243.27 206.676 242.894 206.844C242.518 207.004 242.122 207.084 241.706 207.084C241.018 207.084 240.474 206.9 240.074 206.532C239.674 206.156 239.474 205.624 239.474 204.936C239.474 204.68 239.494 204.452 239.534 204.252L240.218 200.352H241.898L241.25 204.012C241.226 204.156 241.214 204.296 241.214 204.432C241.214 204.824 241.322 205.128 241.538 205.344C241.754 205.552 242.058 205.656 242.45 205.656C242.906 205.656 243.294 205.516 243.614 205.236C243.934 204.948 244.138 204.54 244.226 204.012L244.874 200.352H246.554ZM249.7 201.528C249.988 201.128 250.324 200.816 250.708 200.592C251.092 200.368 251.508 200.256 251.956 200.256L251.644 202.02H251.2C250.704 202.02 250.304 202.128 250 202.344C249.704 202.56 249.488 202.928 249.352 203.448L248.728 207H247.036L248.212 200.352H249.904L249.7 201.528ZM257.019 205.716H259.779L259.551 207H255.099L256.587 198.624H258.267L257.019 205.716ZM263.582 207.108C263.014 207.108 262.51 206.992 262.07 206.76C261.638 206.528 261.302 206.2 261.062 205.776C260.822 205.352 260.702 204.864 260.702 204.312C260.702 203.56 260.878 202.876 261.23 202.26C261.59 201.636 262.078 201.144 262.694 200.784C263.318 200.424 264.01 200.244 264.77 200.244C265.338 200.244 265.842 200.364 266.282 200.604C266.73 200.836 267.074 201.164 267.314 201.588C267.562 202.012 267.686 202.5 267.686 203.052C267.686 203.812 267.506 204.5 267.146 205.116C266.786 205.732 266.29 206.22 265.658 206.58C265.034 206.932 264.342 207.108 263.582 207.108ZM263.81 205.668C264.21 205.668 264.574 205.552 264.902 205.32C265.23 205.088 265.486 204.78 265.67 204.396C265.854 204.012 265.946 203.608 265.946 203.184C265.946 202.704 265.81 202.336 265.538 202.08C265.274 201.816 264.938 201.684 264.53 201.684C264.122 201.684 263.758 201.8 263.438 202.032C263.126 202.264 262.882 202.576 262.706 202.968C262.53 203.352 262.442 203.76 262.442 204.192C262.442 204.664 262.566 205.028 262.814 205.284C263.07 205.54 263.402 205.668 263.81 205.668ZM278.663 200.352L275.543 207H273.719L273.335 202.38L271.295 207H269.471L268.703 200.352H270.395L270.683 205.416L272.855 200.352H274.631L274.991 205.404L277.043 200.352H278.663ZM282.488 200.244C283.336 200.244 284.008 200.48 284.504 200.952C285 201.416 285.248 202.044 285.248 202.836C285.248 203.092 285.228 203.32 285.188 203.52C285.14 203.76 285.088 203.968 285.032 204.144H280.172C280.164 204.2 280.16 204.28 280.16 204.384C280.16 204.8 280.28 205.128 280.52 205.368C280.768 205.6 281.092 205.716 281.492 205.716C281.828 205.716 282.116 205.644 282.356 205.5C282.604 205.348 282.804 205.152 282.956 204.912H284.768C284.472 205.552 284.012 206.08 283.388 206.496C282.772 206.904 282.072 207.108 281.288 207.108C280.44 207.108 279.76 206.868 279.248 206.388C278.736 205.908 278.48 205.256 278.48 204.432C278.48 204.192 278.504 203.94 278.552 203.676C278.672 202.988 278.916 202.384 279.284 201.864C279.66 201.344 280.124 200.944 280.676 200.664C281.228 200.384 281.832 200.244 282.488 200.244ZM283.52 203.124C283.536 202.996 283.544 202.904 283.544 202.848C283.544 202.464 283.42 202.164 283.172 201.948C282.924 201.732 282.6 201.624 282.2 201.624C281.776 201.624 281.396 201.76 281.06 202.032C280.724 202.296 280.488 202.66 280.352 203.124H283.52ZM288.394 207.108C287.906 207.108 287.462 207.028 287.062 206.868C286.67 206.7 286.358 206.472 286.126 206.184C285.902 205.888 285.79 205.552 285.79 205.176C285.79 205.12 285.798 205.028 285.814 204.9H287.446C287.422 205.18 287.506 205.408 287.698 205.584C287.89 205.752 288.162 205.836 288.514 205.836C288.834 205.836 289.098 205.78 289.306 205.668C289.522 205.548 289.63 205.376 289.63 205.152C289.63 204.952 289.53 204.792 289.33 204.672C289.138 204.552 288.83 204.416 288.406 204.264C287.982 204.112 287.63 203.964 287.35 203.82C287.07 203.676 286.83 203.476 286.63 203.22C286.43 202.964 286.33 202.64 286.33 202.248C286.33 201.856 286.442 201.508 286.666 201.204C286.898 200.9 287.218 200.664 287.626 200.496C288.034 200.328 288.502 200.244 289.03 200.244C289.534 200.244 289.978 200.328 290.362 200.496C290.746 200.664 291.042 200.9 291.25 201.204C291.466 201.5 291.574 201.84 291.574 202.224C291.574 202.32 291.57 202.392 291.562 202.44H290.002C290.026 202.16 289.946 201.936 289.762 201.768C289.578 201.6 289.31 201.516 288.958 201.516C288.67 201.516 288.434 201.58 288.25 201.708C288.066 201.828 287.974 201.992 287.974 202.2C287.974 202.408 288.078 202.58 288.286 202.716C288.494 202.844 288.814 202.988 289.246 203.148C289.678 203.316 290.022 203.472 290.278 203.616C290.542 203.752 290.77 203.944 290.962 204.192C291.154 204.432 291.25 204.736 291.25 205.104C291.25 205.512 291.126 205.868 290.878 206.172C290.63 206.476 290.29 206.708 289.858 206.868C289.426 207.028 288.938 207.108 288.394 207.108ZM294.657 204.948C294.649 204.996 294.645 205.06 294.645 205.14C294.645 205.3 294.689 205.416 294.777 205.488C294.873 205.552 295.029 205.584 295.245 205.584H296.037L295.785 207H294.717C293.517 207 292.917 206.5 292.917 205.5C292.917 205.308 292.933 205.12 292.965 204.936L293.529 201.732H292.737L292.977 200.352H293.781L294.069 198.708H295.761L295.473 200.352H296.949L296.709 201.732H295.221L294.657 204.948ZM202.332 219.216C202.252 219.664 202.072 220.084 201.792 220.476C201.512 220.868 201.124 221.184 200.628 221.424C200.14 221.664 199.552 221.784 198.864 221.784H197.46L196.896 225H195.204L196.692 216.624H199.776C200.632 216.624 201.28 216.816 201.72 217.2C202.16 217.576 202.38 218.08 202.38 218.712C202.38 218.896 202.364 219.064 202.332 219.216ZM199.032 220.464C199.488 220.464 199.848 220.352 200.112 220.128C200.376 219.904 200.544 219.6 200.616 219.216C200.632 219.144 200.64 219.04 200.64 218.904C200.64 218.272 200.248 217.956 199.464 217.956H198.144L197.7 220.464H199.032ZM205.169 219.528C205.457 219.128 205.793 218.816 206.177 218.592C206.561 218.368 206.977 218.256 207.425 218.256L207.113 220.02H206.669C206.173 220.02 205.773 220.128 205.469 220.344C205.173 220.56 204.957 220.928 204.821 221.448L204.197 225H202.505L203.681 218.352H205.373L205.169 219.528ZM209.528 217.56C209.264 217.56 209.052 217.484 208.892 217.332C208.732 217.18 208.652 216.988 208.652 216.756C208.652 216.436 208.772 216.164 209.012 215.94C209.26 215.708 209.548 215.592 209.876 215.592C210.132 215.592 210.34 215.668 210.5 215.82C210.66 215.972 210.74 216.164 210.74 216.396C210.74 216.716 210.62 216.992 210.38 217.224C210.14 217.448 209.856 217.56 209.528 217.56ZM210.224 218.352L209.048 225H207.356L208.532 218.352H210.224ZM210.864 221.676C210.984 220.988 211.228 220.388 211.596 219.876C211.964 219.356 212.42 218.956 212.964 218.676C213.516 218.388 214.112 218.244 214.752 218.244C215.576 218.244 216.22 218.448 216.684 218.856C217.156 219.264 217.42 219.844 217.476 220.596H215.664C215.616 220.308 215.492 220.084 215.292 219.924C215.092 219.756 214.824 219.672 214.488 219.672C214.008 219.672 213.596 219.848 213.252 220.2C212.916 220.544 212.692 221.036 212.58 221.676C212.54 221.9 212.52 222.092 212.52 222.252C212.52 222.708 212.632 223.06 212.856 223.308C213.08 223.548 213.392 223.668 213.792 223.668C214.464 223.668 214.96 223.364 215.28 222.756H217.092C216.78 223.476 216.312 224.048 215.688 224.472C215.072 224.896 214.36 225.108 213.552 225.108C212.712 225.108 212.04 224.872 211.536 224.4C211.04 223.92 210.792 223.272 210.792 222.456C210.792 222.208 210.816 221.948 210.864 221.676ZM222.019 218.244C222.867 218.244 223.539 218.48 224.035 218.952C224.531 219.416 224.779 220.044 224.779 220.836C224.779 221.092 224.759 221.32 224.719 221.52C224.671 221.76 224.619 221.968 224.563 222.144H219.703C219.695 222.2 219.691 222.28 219.691 222.384C219.691 222.8 219.811 223.128 220.051 223.368C220.299 223.6 220.623 223.716 221.023 223.716C221.359 223.716 221.647 223.644 221.887 223.5C222.135 223.348 222.335 223.152 222.487 222.912H224.299C224.003 223.552 223.543 224.08 222.919 224.496C222.303 224.904 221.603 225.108 220.819 225.108C219.971 225.108 219.291 224.868 218.779 224.388C218.267 223.908 218.011 223.256 218.011 222.432C218.011 222.192 218.035 221.94 218.083 221.676C218.203 220.988 218.447 220.384 218.815 219.864C219.191 219.344 219.655 218.944 220.207 218.664C220.759 218.384 221.363 218.244 222.019 218.244ZM223.051 221.124C223.067 220.996 223.075 220.904 223.075 220.848C223.075 220.464 222.951 220.164 222.703 219.948C222.455 219.732 222.131 219.624 221.731 219.624C221.307 219.624 220.927 219.76 220.591 220.032C220.255 220.296 220.019 220.66 219.883 221.124H223.051ZM232.948 216.624C233.724 216.624 234.392 216.76 234.952 217.032C235.52 217.296 235.952 217.676 236.248 218.172C236.552 218.668 236.704 219.256 236.704 219.936C236.704 220.24 236.676 220.536 236.62 220.824C236.476 221.664 236.164 222.4 235.684 223.032C235.212 223.656 234.612 224.14 233.884 224.484C233.156 224.828 232.348 225 231.46 225H228.532L230.02 216.624H232.948ZM231.652 223.632C232.532 223.632 233.252 223.384 233.812 222.888C234.38 222.392 234.744 221.704 234.904 220.824C234.944 220.56 234.964 220.332 234.964 220.14C234.964 219.468 234.764 218.948 234.364 218.58C233.972 218.212 233.396 218.028 232.636 218.028H231.46L230.476 223.632H231.652ZM241.238 218.244C242.086 218.244 242.758 218.48 243.254 218.952C243.75 219.416 243.998 220.044 243.998 220.836C243.998 221.092 243.978 221.32 243.938 221.52C243.89 221.76 243.838 221.968 243.782 222.144H238.922C238.914 222.2 238.91 222.28 238.91 222.384C238.91 222.8 239.03 223.128 239.27 223.368C239.518 223.6 239.842 223.716 240.242 223.716C240.578 223.716 240.866 223.644 241.106 223.5C241.354 223.348 241.554 223.152 241.706 222.912H243.518C243.222 223.552 242.762 224.08 242.138 224.496C241.522 224.904 240.822 225.108 240.038 225.108C239.19 225.108 238.51 224.868 237.998 224.388C237.486 223.908 237.23 223.256 237.23 222.432C237.23 222.192 237.254 221.94 237.302 221.676C237.422 220.988 237.666 220.384 238.034 219.864C238.41 219.344 238.874 218.944 239.426 218.664C239.978 218.384 240.582 218.244 241.238 218.244ZM242.27 221.124C242.286 220.996 242.294 220.904 242.294 220.848C242.294 220.464 242.17 220.164 241.922 219.948C241.674 219.732 241.35 219.624 240.95 219.624C240.526 219.624 240.146 219.76 239.81 220.032C239.474 220.296 239.238 220.66 239.102 221.124H242.27ZM244.708 221.652C244.828 220.98 245.064 220.384 245.416 219.864C245.776 219.344 246.212 218.944 246.724 218.664C247.236 218.384 247.776 218.244 248.344 218.244C248.84 218.244 249.256 218.344 249.592 218.544C249.936 218.744 250.188 218.996 250.348 219.3L250.516 218.352H252.208L251.032 225H249.34L249.52 224.028C249.256 224.34 248.912 224.6 248.488 224.808C248.072 225.008 247.616 225.108 247.12 225.108C246.632 225.108 246.2 225 245.824 224.784C245.448 224.56 245.156 224.248 244.948 223.848C244.74 223.44 244.636 222.968 244.636 222.432C244.636 222.184 244.66 221.924 244.708 221.652ZM249.928 221.676C249.96 221.468 249.976 221.316 249.976 221.22C249.976 220.748 249.836 220.38 249.556 220.116C249.284 219.852 248.94 219.72 248.524 219.72C248.212 219.72 247.908 219.796 247.612 219.948C247.324 220.1 247.072 220.324 246.856 220.62C246.64 220.908 246.496 221.252 246.424 221.652C246.4 221.804 246.388 221.948 246.388 222.084C246.388 222.564 246.524 222.944 246.796 223.224C247.068 223.496 247.412 223.632 247.828 223.632C248.14 223.632 248.444 223.556 248.74 223.404C249.036 223.244 249.288 223.016 249.496 222.72C249.712 222.424 249.856 222.076 249.928 221.676ZM255.937 216.12L254.365 225H252.673L254.245 216.12H255.937Z" fill="#2E2C43"/>
<path d="M169 227C160.729 227 154 220.271 154 212C154 203.729 160.729 197 169 197C177.271 197 184 203.729 184 212C184 220.271 177.271 227 169 227ZM169 199.143C161.907 199.143 156.143 204.907 156.143 212C156.143 219.093 161.907 224.857 169 224.857C176.093 224.857 181.857 219.093 181.857 212C181.857 204.907 176.093 199.143 169 199.143Z" fill="#FB8C00"/>
<path d="M165.786 214.143H163.643C163.043 214.143 162.571 213.671 162.571 213.071C162.571 212.471 163.043 212 163.643 212H165.786C167.564 212 169 210.564 169 208.785C169 207.007 167.564 205.571 165.786 205.571H163.643C163.043 205.571 162.571 205.1 162.571 204.5C162.571 203.9 163.043 203.428 163.643 203.428H165.786C167.206 203.428 168.569 203.993 169.574 204.997C170.578 206.002 171.143 207.365 171.143 208.785C171.143 210.206 170.578 211.569 169.574 212.573C168.569 213.578 167.206 214.143 165.786 214.143Z" fill="#FB8C00"/>
<path d="M174.357 209.857H163.643C163.043 209.857 162.571 209.385 162.571 208.785C162.571 208.185 163.043 207.714 163.643 207.714H174.357C174.957 207.714 175.428 208.185 175.428 208.785C175.428 209.385 174.957 209.857 174.357 209.857ZM174.357 205.571H163.643C163.043 205.571 162.571 205.1 162.571 204.5C162.571 203.9 163.043 203.428 163.643 203.428H174.357C174.957 203.428 175.428 203.9 175.428 204.5C175.428 205.1 174.957 205.571 174.357 205.571ZM167.928 220.571C167.586 220.571 167.243 220.4 167.028 220.1L162.743 213.671C162.595 213.435 162.545 213.151 162.604 212.879C162.662 212.607 162.825 212.368 163.057 212.214C163.289 212.061 163.572 212.004 163.846 212.056C164.119 212.108 164.362 212.264 164.521 212.493L168.807 218.921C169.128 219.414 169 220.078 168.507 220.4C168.314 220.528 168.121 220.571 167.907 220.571H167.928Z" fill="#FB8C00"/>
<path d="M161.172 149.098C160.528 149.098 159.949 148.986 159.436 148.762C158.932 148.529 158.535 148.211 158.246 147.81C157.957 147.399 157.807 146.928 157.798 146.396H159.156C159.203 146.853 159.389 147.241 159.716 147.558C160.052 147.866 160.537 148.02 161.172 148.02C161.779 148.02 162.255 147.871 162.6 147.572C162.955 147.264 163.132 146.872 163.132 146.396C163.132 146.023 163.029 145.719 162.824 145.486C162.619 145.253 162.362 145.075 162.054 144.954C161.746 144.833 161.331 144.702 160.808 144.562C160.164 144.394 159.646 144.226 159.254 144.058C158.871 143.89 158.54 143.629 158.26 143.274C157.989 142.91 157.854 142.425 157.854 141.818C157.854 141.286 157.989 140.815 158.26 140.404C158.531 139.993 158.909 139.676 159.394 139.452C159.889 139.228 160.453 139.116 161.088 139.116C162.003 139.116 162.749 139.345 163.328 139.802C163.916 140.259 164.247 140.866 164.322 141.622H162.922C162.875 141.249 162.679 140.922 162.334 140.642C161.989 140.353 161.531 140.208 160.962 140.208C160.43 140.208 159.996 140.348 159.66 140.628C159.324 140.899 159.156 141.281 159.156 141.776C159.156 142.131 159.254 142.42 159.45 142.644C159.655 142.868 159.903 143.041 160.192 143.162C160.491 143.274 160.906 143.405 161.438 143.554C162.082 143.731 162.6 143.909 162.992 144.086C163.384 144.254 163.72 144.52 164 144.884C164.28 145.239 164.42 145.724 164.42 146.34C164.42 146.816 164.294 147.264 164.042 147.684C163.79 148.104 163.417 148.445 162.922 148.706C162.427 148.967 161.844 149.098 161.172 149.098ZM173.295 144.87C173.295 145.113 173.281 145.369 173.253 145.64H167.121C167.167 146.396 167.424 146.989 167.891 147.418C168.367 147.838 168.941 148.048 169.613 148.048C170.163 148.048 170.621 147.922 170.985 147.67C171.358 147.409 171.619 147.063 171.769 146.634H173.141C172.935 147.371 172.525 147.973 171.909 148.44C171.293 148.897 170.527 149.126 169.613 149.126C168.885 149.126 168.231 148.963 167.653 148.636C167.083 148.309 166.635 147.847 166.309 147.25C165.982 146.643 165.819 145.943 165.819 145.15C165.819 144.357 165.977 143.661 166.295 143.064C166.612 142.467 167.055 142.009 167.625 141.692C168.203 141.365 168.866 141.202 169.613 141.202C170.341 141.202 170.985 141.361 171.545 141.678C172.105 141.995 172.534 142.434 172.833 142.994C173.141 143.545 173.295 144.17 173.295 144.87ZM171.979 144.604C171.979 144.119 171.871 143.703 171.657 143.358C171.442 143.003 171.148 142.737 170.775 142.56C170.411 142.373 170.005 142.28 169.557 142.28C168.913 142.28 168.362 142.485 167.905 142.896C167.457 143.307 167.2 143.876 167.135 144.604H171.979ZM174.5 145.136C174.5 144.352 174.659 143.666 174.976 143.078C175.294 142.481 175.728 142.019 176.278 141.692C176.838 141.365 177.459 141.202 178.14 141.202C178.812 141.202 179.396 141.347 179.89 141.636C180.385 141.925 180.754 142.289 180.996 142.728V141.328H182.284V149H180.996V147.572C180.744 148.02 180.366 148.393 179.862 148.692C179.368 148.981 178.789 149.126 178.126 149.126C177.445 149.126 176.829 148.958 176.278 148.622C175.728 148.286 175.294 147.815 174.976 147.208C174.659 146.601 174.5 145.911 174.5 145.136ZM180.996 145.15C180.996 144.571 180.88 144.067 180.646 143.638C180.413 143.209 180.096 142.882 179.694 142.658C179.302 142.425 178.868 142.308 178.392 142.308C177.916 142.308 177.482 142.42 177.09 142.644C176.698 142.868 176.386 143.195 176.152 143.624C175.919 144.053 175.802 144.557 175.802 145.136C175.802 145.724 175.919 146.237 176.152 146.676C176.386 147.105 176.698 147.437 177.09 147.67C177.482 147.894 177.916 148.006 178.392 148.006C178.868 148.006 179.302 147.894 179.694 147.67C180.096 147.437 180.413 147.105 180.646 146.676C180.88 146.237 180.996 145.729 180.996 145.15ZM185.711 142.574C185.935 142.135 186.253 141.795 186.663 141.552C187.083 141.309 187.592 141.188 188.189 141.188V142.504H187.853C186.425 142.504 185.711 143.279 185.711 144.828V149H184.437V141.328H185.711V142.574ZM189.184 145.15C189.184 144.357 189.343 143.666 189.66 143.078C189.977 142.481 190.416 142.019 190.976 141.692C191.545 141.365 192.194 141.202 192.922 141.202C193.865 141.202 194.639 141.431 195.246 141.888C195.862 142.345 196.268 142.98 196.464 143.792H195.092C194.961 143.325 194.705 142.957 194.322 142.686C193.949 142.415 193.482 142.28 192.922 142.28C192.194 142.28 191.606 142.532 191.158 143.036C190.71 143.531 190.486 144.235 190.486 145.15C190.486 146.074 190.71 146.788 191.158 147.292C191.606 147.796 192.194 148.048 192.922 148.048C193.482 148.048 193.949 147.917 194.322 147.656C194.695 147.395 194.952 147.021 195.092 146.536H196.464C196.259 147.32 195.848 147.95 195.232 148.426C194.616 148.893 193.846 149.126 192.922 149.126C192.194 149.126 191.545 148.963 190.976 148.636C190.416 148.309 189.977 147.847 189.66 147.25C189.343 146.653 189.184 145.953 189.184 145.15ZM201.972 141.188C202.551 141.188 203.073 141.314 203.54 141.566C204.007 141.809 204.371 142.177 204.632 142.672C204.903 143.167 205.038 143.769 205.038 144.478V149H203.778V144.66C203.778 143.895 203.587 143.311 203.204 142.91C202.821 142.499 202.299 142.294 201.636 142.294C200.964 142.294 200.427 142.504 200.026 142.924C199.634 143.344 199.438 143.955 199.438 144.758V149H198.164V138.64H199.438V142.42C199.69 142.028 200.035 141.725 200.474 141.51C200.922 141.295 201.421 141.188 201.972 141.188ZM210.375 145.136C210.375 144.352 210.534 143.666 210.851 143.078C211.169 142.481 211.603 142.019 212.153 141.692C212.713 141.365 213.334 141.202 214.015 141.202C214.687 141.202 215.271 141.347 215.765 141.636C216.26 141.925 216.629 142.289 216.871 142.728V141.328H218.159V149H216.871V147.572C216.619 148.02 216.241 148.393 215.737 148.692C215.243 148.981 214.664 149.126 214.001 149.126C213.32 149.126 212.704 148.958 212.153 148.622C211.603 148.286 211.169 147.815 210.851 147.208C210.534 146.601 210.375 145.911 210.375 145.136ZM216.871 145.15C216.871 144.571 216.755 144.067 216.521 143.638C216.288 143.209 215.971 142.882 215.569 142.658C215.177 142.425 214.743 142.308 214.267 142.308C213.791 142.308 213.357 142.42 212.965 142.644C212.573 142.868 212.261 143.195 212.027 143.624C211.794 144.053 211.677 144.557 211.677 145.136C211.677 145.724 211.794 146.237 212.027 146.676C212.261 147.105 212.573 147.437 212.965 147.67C213.357 147.894 213.791 148.006 214.267 148.006C214.743 148.006 215.177 147.894 215.569 147.67C215.971 147.437 216.288 147.105 216.521 146.676C216.755 146.237 216.871 145.729 216.871 145.15ZM224.05 141.188C224.984 141.188 225.74 141.473 226.318 142.042C226.897 142.602 227.186 143.414 227.186 144.478V149H225.926V144.66C225.926 143.895 225.735 143.311 225.352 142.91C224.97 142.499 224.447 142.294 223.784 142.294C223.112 142.294 222.576 142.504 222.174 142.924C221.782 143.344 221.586 143.955 221.586 144.758V149H220.312V141.328H221.586V142.42C221.838 142.028 222.179 141.725 222.608 141.51C223.047 141.295 223.528 141.188 224.05 141.188ZM235.875 141.328L231.255 152.612H229.939L231.451 148.916L228.357 141.328H229.771L232.179 147.544L234.559 141.328H235.875ZM242.163 142.742C242.415 142.303 242.788 141.939 243.283 141.65C243.787 141.351 244.37 141.202 245.033 141.202C245.714 141.202 246.33 141.365 246.881 141.692C247.441 142.019 247.879 142.481 248.197 143.078C248.514 143.666 248.673 144.352 248.673 145.136C248.673 145.911 248.514 146.601 248.197 147.208C247.879 147.815 247.441 148.286 246.881 148.622C246.33 148.958 245.714 149.126 245.033 149.126C244.379 149.126 243.801 148.981 243.297 148.692C242.802 148.393 242.424 148.025 242.163 147.586V152.64H240.889V141.328H242.163V142.742ZM247.371 145.136C247.371 144.557 247.254 144.053 247.021 143.624C246.787 143.195 246.47 142.868 246.069 142.644C245.677 142.42 245.243 142.308 244.767 142.308C244.3 142.308 243.866 142.425 243.465 142.658C243.073 142.882 242.755 143.213 242.513 143.652C242.279 144.081 242.163 144.581 242.163 145.15C242.163 145.729 242.279 146.237 242.513 146.676C242.755 147.105 243.073 147.437 243.465 147.67C243.866 147.894 244.3 148.006 244.767 148.006C245.243 148.006 245.677 147.894 246.069 147.67C246.47 147.437 246.787 147.105 247.021 146.676C247.254 146.237 247.371 145.724 247.371 145.136ZM251.623 142.574C251.847 142.135 252.165 141.795 252.575 141.552C252.995 141.309 253.504 141.188 254.101 141.188V142.504H253.765C252.337 142.504 251.623 143.279 251.623 144.828V149H250.349V141.328H251.623V142.574ZM258.918 149.126C258.199 149.126 257.546 148.963 256.958 148.636C256.379 148.309 255.922 147.847 255.586 147.25C255.259 146.643 255.096 145.943 255.096 145.15C255.096 144.366 255.264 143.675 255.6 143.078C255.945 142.471 256.412 142.009 257 141.692C257.588 141.365 258.246 141.202 258.974 141.202C259.702 141.202 260.36 141.365 260.948 141.692C261.536 142.009 261.998 142.467 262.334 143.064C262.679 143.661 262.852 144.357 262.852 145.15C262.852 145.943 262.675 146.643 262.32 147.25C261.975 147.847 261.503 148.309 260.906 148.636C260.309 148.963 259.646 149.126 258.918 149.126ZM258.918 148.006C259.375 148.006 259.805 147.899 260.206 147.684C260.607 147.469 260.929 147.147 261.172 146.718C261.424 146.289 261.55 145.766 261.55 145.15C261.55 144.534 261.429 144.011 261.186 143.582C260.943 143.153 260.626 142.835 260.234 142.63C259.842 142.415 259.417 142.308 258.96 142.308C258.493 142.308 258.064 142.415 257.672 142.63C257.289 142.835 256.981 143.153 256.748 143.582C256.515 144.011 256.398 144.534 256.398 145.15C256.398 145.775 256.51 146.303 256.734 146.732C256.967 147.161 257.275 147.483 257.658 147.698C258.041 147.903 258.461 148.006 258.918 148.006ZM264.051 145.136C264.051 144.352 264.21 143.666 264.527 143.078C264.845 142.481 265.279 142.019 265.829 141.692C266.389 141.365 267.015 141.202 267.705 141.202C268.303 141.202 268.858 141.342 269.371 141.622C269.885 141.893 270.277 142.252 270.547 142.7V138.64H271.835V149H270.547V147.558C270.295 148.015 269.922 148.393 269.427 148.692C268.933 148.981 268.354 149.126 267.691 149.126C267.01 149.126 266.389 148.958 265.829 148.622C265.279 148.286 264.845 147.815 264.527 147.208C264.21 146.601 264.051 145.911 264.051 145.136ZM270.547 145.15C270.547 144.571 270.431 144.067 270.197 143.638C269.964 143.209 269.647 142.882 269.245 142.658C268.853 142.425 268.419 142.308 267.943 142.308C267.467 142.308 267.033 142.42 266.641 142.644C266.249 142.868 265.937 143.195 265.703 143.624C265.47 144.053 265.353 144.557 265.353 145.136C265.353 145.724 265.47 146.237 265.703 146.676C265.937 147.105 266.249 147.437 266.641 147.67C267.033 147.894 267.467 148.006 267.943 148.006C268.419 148.006 268.853 147.894 269.245 147.67C269.647 147.437 269.964 147.105 270.197 146.676C270.431 146.237 270.547 145.729 270.547 145.15ZM280.792 141.328V149H279.518V147.866C279.275 148.258 278.935 148.566 278.496 148.79C278.067 149.005 277.591 149.112 277.068 149.112C276.471 149.112 275.934 148.991 275.458 148.748C274.982 148.496 274.604 148.123 274.324 147.628C274.053 147.133 273.918 146.531 273.918 145.822V141.328H275.178V145.654C275.178 146.41 275.369 146.993 275.752 147.404C276.135 147.805 276.657 148.006 277.32 148.006C278.001 148.006 278.538 147.796 278.93 147.376C279.322 146.956 279.518 146.345 279.518 145.542V141.328H280.792ZM282.467 145.15C282.467 144.357 282.626 143.666 282.943 143.078C283.261 142.481 283.699 142.019 284.259 141.692C284.829 141.365 285.477 141.202 286.205 141.202C287.148 141.202 287.923 141.431 288.529 141.888C289.145 142.345 289.551 142.98 289.747 143.792H288.375C288.245 143.325 287.988 142.957 287.605 142.686C287.232 142.415 286.765 142.28 286.205 142.28C285.477 142.28 284.889 142.532 284.441 143.036C283.993 143.531 283.769 144.235 283.769 145.15C283.769 146.074 283.993 146.788 284.441 147.292C284.889 147.796 285.477 148.048 286.205 148.048C286.765 148.048 287.232 147.917 287.605 147.656C287.979 147.395 288.235 147.021 288.375 146.536H289.747C289.542 147.32 289.131 147.95 288.515 148.426C287.899 148.893 287.129 149.126 286.205 149.126C285.477 149.126 284.829 148.963 284.259 148.636C283.699 148.309 283.261 147.847 282.943 147.25C282.626 146.653 282.467 145.953 282.467 145.15ZM293.001 142.378V146.9C293.001 147.273 293.08 147.539 293.239 147.698C293.398 147.847 293.673 147.922 294.065 147.922H295.003V149H293.855C293.146 149 292.614 148.837 292.259 148.51C291.904 148.183 291.727 147.647 291.727 146.9V142.378H290.733V141.328H291.727V139.396H293.001V141.328H295.003V142.378H293.001ZM301.307 135.812L297.471 151.38H296.211L300.033 135.812H301.307ZM305.921 149.126C305.333 149.126 304.806 149.028 304.339 148.832C303.872 148.627 303.504 148.347 303.233 147.992C302.962 147.628 302.813 147.213 302.785 146.746H304.101C304.138 147.129 304.316 147.441 304.633 147.684C304.96 147.927 305.384 148.048 305.907 148.048C306.392 148.048 306.775 147.941 307.055 147.726C307.335 147.511 307.475 147.241 307.475 146.914C307.475 146.578 307.326 146.331 307.027 146.172C306.728 146.004 306.266 145.841 305.641 145.682C305.072 145.533 304.605 145.383 304.241 145.234C303.886 145.075 303.578 144.847 303.317 144.548C303.065 144.24 302.939 143.839 302.939 143.344C302.939 142.952 303.056 142.593 303.289 142.266C303.522 141.939 303.854 141.683 304.283 141.496C304.712 141.3 305.202 141.202 305.753 141.202C306.602 141.202 307.288 141.417 307.811 141.846C308.334 142.275 308.614 142.863 308.651 143.61H307.377C307.349 143.209 307.186 142.887 306.887 142.644C306.598 142.401 306.206 142.28 305.711 142.28C305.254 142.28 304.89 142.378 304.619 142.574C304.348 142.77 304.213 143.027 304.213 143.344C304.213 143.596 304.292 143.806 304.451 143.974C304.619 144.133 304.824 144.263 305.067 144.366C305.319 144.459 305.664 144.567 306.103 144.688C306.654 144.837 307.102 144.987 307.447 145.136C307.792 145.276 308.086 145.491 308.329 145.78C308.581 146.069 308.712 146.447 308.721 146.914C308.721 147.334 308.604 147.712 308.371 148.048C308.138 148.384 307.806 148.65 307.377 148.846C306.957 149.033 306.472 149.126 305.921 149.126ZM317.519 144.87C317.519 145.113 317.505 145.369 317.477 145.64H311.345C311.392 146.396 311.649 146.989 312.115 147.418C312.591 147.838 313.165 148.048 313.837 148.048C314.388 148.048 314.845 147.922 315.209 147.67C315.583 147.409 315.844 147.063 315.993 146.634H317.365C317.16 147.371 316.749 147.973 316.133 148.44C315.517 148.897 314.752 149.126 313.837 149.126C313.109 149.126 312.456 148.963 311.877 148.636C311.308 148.309 310.86 147.847 310.533 147.25C310.207 146.643 310.043 145.943 310.043 145.15C310.043 144.357 310.202 143.661 310.519 143.064C310.837 142.467 311.28 142.009 311.849 141.692C312.428 141.365 313.091 141.202 313.837 141.202C314.565 141.202 315.209 141.361 315.769 141.678C316.329 141.995 316.759 142.434 317.057 142.994C317.365 143.545 317.519 144.17 317.519 144.87ZM316.203 144.604C316.203 144.119 316.096 143.703 315.881 143.358C315.667 143.003 315.373 142.737 314.999 142.56C314.635 142.373 314.229 142.28 313.781 142.28C313.137 142.28 312.587 142.485 312.129 142.896C311.681 143.307 311.425 143.876 311.359 144.604H316.203ZM320.475 142.574C320.699 142.135 321.016 141.795 321.427 141.552C321.847 141.309 322.356 141.188 322.953 141.188V142.504H322.617C321.189 142.504 320.475 143.279 320.475 144.828V149H319.201V141.328H320.475V142.574ZM327.28 147.824L329.66 141.328H331.018L328.008 149H326.524L323.514 141.328H324.886L327.28 147.824ZM332.929 140.082C332.687 140.082 332.481 139.998 332.313 139.83C332.145 139.662 332.061 139.457 332.061 139.214C332.061 138.971 332.145 138.766 332.313 138.598C332.481 138.43 332.687 138.346 332.929 138.346C333.163 138.346 333.359 138.43 333.517 138.598C333.685 138.766 333.769 138.971 333.769 139.214C333.769 139.457 333.685 139.662 333.517 139.83C333.359 139.998 333.163 140.082 332.929 140.082ZM333.545 141.328V149H332.271V141.328H333.545ZM335.241 145.15C335.241 144.357 335.399 143.666 335.717 143.078C336.034 142.481 336.473 142.019 337.033 141.692C337.602 141.365 338.251 141.202 338.979 141.202C339.921 141.202 340.696 141.431 341.303 141.888C341.919 142.345 342.325 142.98 342.521 143.792H341.149C341.018 143.325 340.761 142.957 340.379 142.686C340.005 142.415 339.539 142.28 338.979 142.28C338.251 142.28 337.663 142.532 337.215 143.036C336.767 143.531 336.543 144.235 336.543 145.15C336.543 146.074 336.767 146.788 337.215 147.292C337.663 147.796 338.251 148.048 338.979 148.048C339.539 148.048 340.005 147.917 340.379 147.656C340.752 147.395 341.009 147.021 341.149 146.536H342.521C342.315 147.32 341.905 147.95 341.289 148.426C340.673 148.893 339.903 149.126 338.979 149.126C338.251 149.126 337.602 148.963 337.033 148.636C336.473 148.309 336.034 147.847 335.717 147.25C335.399 146.653 335.241 145.953 335.241 145.15ZM351.221 144.87C351.221 145.113 351.207 145.369 351.179 145.64H345.047C345.093 146.396 345.35 146.989 345.817 147.418C346.293 147.838 346.867 148.048 347.539 148.048C348.089 148.048 348.547 147.922 348.911 147.67C349.284 147.409 349.545 147.063 349.695 146.634H351.067C350.861 147.371 350.451 147.973 349.835 148.44C349.219 148.897 348.453 149.126 347.539 149.126C346.811 149.126 346.157 148.963 345.579 148.636C345.009 148.309 344.561 147.847 344.235 147.25C343.908 146.643 343.745 145.943 343.745 145.15C343.745 144.357 343.903 143.661 344.221 143.064C344.538 142.467 344.981 142.009 345.551 141.692C346.129 141.365 346.792 141.202 347.539 141.202C348.267 141.202 348.911 141.361 349.471 141.678C350.031 141.995 350.46 142.434 350.759 142.994C351.067 143.545 351.221 144.17 351.221 144.87ZM349.905 144.604C349.905 144.119 349.797 143.703 349.583 143.358C349.368 143.003 349.074 142.737 348.701 142.56C348.337 142.373 347.931 142.28 347.483 142.28C346.839 142.28 346.288 142.485 345.831 142.896C345.383 143.307 345.126 143.876 345.061 144.604H349.905ZM168.298 162.328L165.904 170H164.588L162.74 163.91L160.892 170H159.576L157.168 162.328H158.47L160.234 168.768L162.138 162.328H163.44L165.302 168.782L167.038 162.328H168.298ZM170.22 161.082C169.978 161.082 169.772 160.998 169.604 160.83C169.436 160.662 169.352 160.457 169.352 160.214C169.352 159.971 169.436 159.766 169.604 159.598C169.772 159.43 169.978 159.346 170.22 159.346C170.454 159.346 170.65 159.43 170.808 159.598C170.976 159.766 171.06 159.971 171.06 160.214C171.06 160.457 170.976 160.662 170.808 160.83C170.65 160.998 170.454 161.082 170.22 161.082ZM170.836 162.328V170H169.562V162.328H170.836ZM174.562 163.378V167.9C174.562 168.273 174.641 168.539 174.8 168.698C174.958 168.847 175.234 168.922 175.626 168.922H176.564V170H175.416C174.706 170 174.174 169.837 173.82 169.51C173.465 169.183 173.288 168.647 173.288 167.9V163.378H172.294V162.328H173.288V160.396H174.562V162.328H176.564V163.378H174.562ZM181.915 162.188C182.494 162.188 183.017 162.314 183.483 162.566C183.95 162.809 184.314 163.177 184.575 163.672C184.846 164.167 184.981 164.769 184.981 165.478V170H183.721V165.66C183.721 164.895 183.53 164.311 183.147 163.91C182.765 163.499 182.242 163.294 181.579 163.294C180.907 163.294 180.371 163.504 179.969 163.924C179.577 164.344 179.381 164.955 179.381 165.758V170H178.107V159.64H179.381V163.42C179.633 163.028 179.979 162.725 180.417 162.51C180.865 162.295 181.365 162.188 181.915 162.188ZM192.069 159.64V170H190.795V159.64H192.069ZM197.586 170.126C196.867 170.126 196.214 169.963 195.626 169.636C195.047 169.309 194.59 168.847 194.254 168.25C193.927 167.643 193.764 166.943 193.764 166.15C193.764 165.366 193.932 164.675 194.268 164.078C194.613 163.471 195.08 163.009 195.668 162.692C196.256 162.365 196.914 162.202 197.642 162.202C198.37 162.202 199.028 162.365 199.616 162.692C200.204 163.009 200.666 163.467 201.002 164.064C201.347 164.661 201.52 165.357 201.52 166.15C201.52 166.943 201.343 167.643 200.988 168.25C200.643 168.847 200.171 169.309 199.574 169.636C198.977 169.963 198.314 170.126 197.586 170.126ZM197.586 169.006C198.043 169.006 198.473 168.899 198.874 168.684C199.275 168.469 199.597 168.147 199.84 167.718C200.092 167.289 200.218 166.766 200.218 166.15C200.218 165.534 200.097 165.011 199.854 164.582C199.611 164.153 199.294 163.835 198.902 163.63C198.51 163.415 198.085 163.308 197.628 163.308C197.161 163.308 196.732 163.415 196.34 163.63C195.957 163.835 195.649 164.153 195.416 164.582C195.183 165.011 195.066 165.534 195.066 166.15C195.066 166.775 195.178 167.303 195.402 167.732C195.635 168.161 195.943 168.483 196.326 168.698C196.709 168.903 197.129 169.006 197.586 169.006ZM213.415 162.328L211.021 170H209.705L207.857 163.91L206.009 170H204.693L202.285 162.328H203.587L205.351 168.768L207.255 162.328H208.557L210.419 168.782L212.155 162.328H213.415ZM221.68 165.87C221.68 166.113 221.666 166.369 221.638 166.64H215.506C215.552 167.396 215.809 167.989 216.276 168.418C216.752 168.838 217.326 169.048 217.998 169.048C218.548 169.048 219.006 168.922 219.37 168.67C219.743 168.409 220.004 168.063 220.154 167.634H221.526C221.32 168.371 220.91 168.973 220.294 169.44C219.678 169.897 218.912 170.126 217.998 170.126C217.27 170.126 216.616 169.963 216.038 169.636C215.468 169.309 215.02 168.847 214.694 168.25C214.367 167.643 214.204 166.943 214.204 166.15C214.204 165.357 214.362 164.661 214.68 164.064C214.997 163.467 215.44 163.009 216.01 162.692C216.588 162.365 217.251 162.202 217.998 162.202C218.726 162.202 219.37 162.361 219.93 162.678C220.49 162.995 220.919 163.434 221.218 163.994C221.526 164.545 221.68 165.17 221.68 165.87ZM220.364 165.604C220.364 165.119 220.256 164.703 220.042 164.358C219.827 164.003 219.533 163.737 219.16 163.56C218.796 163.373 218.39 163.28 217.942 163.28C217.298 163.28 216.747 163.485 216.29 163.896C215.842 164.307 215.585 164.876 215.52 165.604H220.364ZM226.077 170.126C225.489 170.126 224.962 170.028 224.495 169.832C224.029 169.627 223.66 169.347 223.389 168.992C223.119 168.628 222.969 168.213 222.941 167.746H224.257C224.295 168.129 224.472 168.441 224.789 168.684C225.116 168.927 225.541 169.048 226.063 169.048C226.549 169.048 226.931 168.941 227.211 168.726C227.491 168.511 227.631 168.241 227.631 167.914C227.631 167.578 227.482 167.331 227.183 167.172C226.885 167.004 226.423 166.841 225.797 166.682C225.228 166.533 224.761 166.383 224.397 166.234C224.043 166.075 223.735 165.847 223.473 165.548C223.221 165.24 223.095 164.839 223.095 164.344C223.095 163.952 223.212 163.593 223.445 163.266C223.679 162.939 224.01 162.683 224.439 162.496C224.869 162.3 225.359 162.202 225.909 162.202C226.759 162.202 227.445 162.417 227.967 162.846C228.49 163.275 228.77 163.863 228.807 164.61H227.533C227.505 164.209 227.342 163.887 227.043 163.644C226.754 163.401 226.362 163.28 225.867 163.28C225.41 163.28 225.046 163.378 224.775 163.574C224.505 163.77 224.369 164.027 224.369 164.344C224.369 164.596 224.449 164.806 224.607 164.974C224.775 165.133 224.981 165.263 225.223 165.366C225.475 165.459 225.821 165.567 226.259 165.688C226.81 165.837 227.258 165.987 227.603 166.136C227.949 166.276 228.243 166.491 228.485 166.78C228.737 167.069 228.868 167.447 228.877 167.914C228.877 168.334 228.761 168.712 228.527 169.048C228.294 169.384 227.963 169.65 227.533 169.846C227.113 170.033 226.628 170.126 226.077 170.126ZM232.23 163.378V167.9C232.23 168.273 232.309 168.539 232.468 168.698C232.626 168.847 232.902 168.922 233.294 168.922H234.232V170H233.084C232.374 170 231.842 169.837 231.488 169.51C231.133 169.183 230.956 168.647 230.956 167.9V163.378H229.962V162.328H230.956V160.396H232.23V162.328H234.232V163.378H232.23ZM240.782 163.742C241.034 163.303 241.407 162.939 241.902 162.65C242.406 162.351 242.989 162.202 243.652 162.202C244.333 162.202 244.949 162.365 245.5 162.692C246.06 163.019 246.498 163.481 246.816 164.078C247.133 164.666 247.292 165.352 247.292 166.136C247.292 166.911 247.133 167.601 246.816 168.208C246.498 168.815 246.06 169.286 245.5 169.622C244.949 169.958 244.333 170.126 243.652 170.126C242.998 170.126 242.42 169.981 241.916 169.692C241.421 169.393 241.043 169.025 240.782 168.586V173.64H239.508V162.328H240.782V163.742ZM245.99 166.136C245.99 165.557 245.873 165.053 245.64 164.624C245.406 164.195 245.089 163.868 244.688 163.644C244.296 163.42 243.862 163.308 243.386 163.308C242.919 163.308 242.485 163.425 242.084 163.658C241.692 163.882 241.374 164.213 241.132 164.652C240.898 165.081 240.782 165.581 240.782 166.15C240.782 166.729 240.898 167.237 241.132 167.676C241.374 168.105 241.692 168.437 242.084 168.67C242.485 168.894 242.919 169.006 243.386 169.006C243.862 169.006 244.296 168.894 244.688 168.67C245.089 168.437 245.406 168.105 245.64 167.676C245.873 167.237 245.99 166.724 245.99 166.136ZM250.243 163.574C250.467 163.135 250.784 162.795 251.195 162.552C251.615 162.309 252.123 162.188 252.721 162.188V163.504H252.385C250.957 163.504 250.243 164.279 250.243 165.828V170H248.969V162.328H250.243V163.574ZM254.849 161.082C254.607 161.082 254.401 160.998 254.233 160.83C254.065 160.662 253.981 160.457 253.981 160.214C253.981 159.971 254.065 159.766 254.233 159.598C254.401 159.43 254.607 159.346 254.849 159.346C255.083 159.346 255.279 159.43 255.437 159.598C255.605 159.766 255.689 159.971 255.689 160.214C255.689 160.457 255.605 160.662 255.437 160.83C255.279 160.998 255.083 161.082 254.849 161.082ZM255.465 162.328V170H254.191V162.328H255.465ZM257.161 166.15C257.161 165.357 257.319 164.666 257.637 164.078C257.954 163.481 258.393 163.019 258.953 162.692C259.522 162.365 260.171 162.202 260.899 162.202C261.841 162.202 262.616 162.431 263.223 162.888C263.839 163.345 264.245 163.98 264.441 164.792H263.069C262.938 164.325 262.681 163.957 262.299 163.686C261.925 163.415 261.459 163.28 260.899 163.28C260.171 163.28 259.583 163.532 259.135 164.036C258.687 164.531 258.463 165.235 258.463 166.15C258.463 167.074 258.687 167.788 259.135 168.292C259.583 168.796 260.171 169.048 260.899 169.048C261.459 169.048 261.925 168.917 262.299 168.656C262.672 168.395 262.929 168.021 263.069 167.536H264.441C264.235 168.32 263.825 168.95 263.209 169.426C262.593 169.893 261.823 170.126 260.899 170.126C260.171 170.126 259.522 169.963 258.953 169.636C258.393 169.309 257.954 168.847 257.637 168.25C257.319 167.653 257.161 166.953 257.161 166.15ZM273.141 165.87C273.141 166.113 273.127 166.369 273.099 166.64H266.967C267.013 167.396 267.27 167.989 267.737 168.418C268.213 168.838 268.787 169.048 269.459 169.048C270.009 169.048 270.467 168.922 270.831 168.67C271.204 168.409 271.465 168.063 271.615 167.634H272.987C272.781 168.371 272.371 168.973 271.755 169.44C271.139 169.897 270.373 170.126 269.459 170.126C268.731 170.126 268.077 169.963 267.499 169.636C266.929 169.309 266.481 168.847 266.155 168.25C265.828 167.643 265.665 166.943 265.665 166.15C265.665 165.357 265.823 164.661 266.141 164.064C266.458 163.467 266.901 163.009 267.471 162.692C268.049 162.365 268.712 162.202 269.459 162.202C270.187 162.202 270.831 162.361 271.391 162.678C271.951 162.995 272.38 163.434 272.679 163.994C272.987 164.545 273.141 165.17 273.141 165.87ZM271.825 165.604C271.825 165.119 271.717 164.703 271.503 164.358C271.288 164.003 270.994 163.737 270.621 163.56C270.257 163.373 269.851 163.28 269.403 163.28C268.759 163.28 268.208 163.485 267.751 163.896C267.303 164.307 267.046 164.876 266.981 165.604H271.825ZM287.781 162.188C288.378 162.188 288.91 162.314 289.377 162.566C289.843 162.809 290.212 163.177 290.483 163.672C290.753 164.167 290.889 164.769 290.889 165.478V170H289.629V165.66C289.629 164.895 289.437 164.311 289.055 163.91C288.681 163.499 288.173 163.294 287.529 163.294C286.866 163.294 286.339 163.509 285.947 163.938C285.555 164.358 285.359 164.969 285.359 165.772V170H284.099V165.66C284.099 164.895 283.907 164.311 283.525 163.91C283.151 163.499 282.643 163.294 281.999 163.294C281.336 163.294 280.809 163.509 280.417 163.938C280.025 164.358 279.829 164.969 279.829 165.772V170H278.555V162.328H279.829V163.434C280.081 163.033 280.417 162.725 280.837 162.51C281.266 162.295 281.737 162.188 282.251 162.188C282.895 162.188 283.464 162.333 283.959 162.622C284.453 162.911 284.822 163.336 285.065 163.896C285.279 163.355 285.634 162.935 286.129 162.636C286.623 162.337 287.174 162.188 287.781 162.188ZM292.502 166.136C292.502 165.352 292.661 164.666 292.978 164.078C293.296 163.481 293.73 163.019 294.28 162.692C294.84 162.365 295.461 162.202 296.142 162.202C296.814 162.202 297.398 162.347 297.892 162.636C298.387 162.925 298.756 163.289 298.998 163.728V162.328H300.286V170H298.998V168.572C298.746 169.02 298.368 169.393 297.864 169.692C297.37 169.981 296.791 170.126 296.128 170.126C295.447 170.126 294.831 169.958 294.28 169.622C293.73 169.286 293.296 168.815 292.978 168.208C292.661 167.601 292.502 166.911 292.502 166.136ZM298.998 166.15C298.998 165.571 298.882 165.067 298.648 164.638C298.415 164.209 298.098 163.882 297.696 163.658C297.304 163.425 296.87 163.308 296.394 163.308C295.918 163.308 295.484 163.42 295.092 163.644C294.7 163.868 294.388 164.195 294.154 164.624C293.921 165.053 293.804 165.557 293.804 166.136C293.804 166.724 293.921 167.237 294.154 167.676C294.388 168.105 294.7 168.437 295.092 168.67C295.484 168.894 295.918 169.006 296.394 169.006C296.87 169.006 297.304 168.894 297.696 168.67C298.098 168.437 298.415 168.105 298.648 167.676C298.882 167.237 298.998 166.729 298.998 166.15ZM303.993 163.378V167.9C303.993 168.273 304.073 168.539 304.231 168.698C304.39 168.847 304.665 168.922 305.057 168.922H305.995V170H304.847C304.138 170 303.606 169.837 303.251 169.51C302.897 169.183 302.719 168.647 302.719 167.9V163.378H301.725V162.328H302.719V160.396H303.993V162.328H305.995V163.378H303.993ZM307.063 166.15C307.063 165.357 307.222 164.666 307.539 164.078C307.856 163.481 308.295 163.019 308.855 162.692C309.424 162.365 310.073 162.202 310.801 162.202C311.744 162.202 312.518 162.431 313.125 162.888C313.741 163.345 314.147 163.98 314.343 164.792H312.971C312.84 164.325 312.584 163.957 312.201 163.686C311.828 163.415 311.361 163.28 310.801 163.28C310.073 163.28 309.485 163.532 309.037 164.036C308.589 164.531 308.365 165.235 308.365 166.15C308.365 167.074 308.589 167.788 309.037 168.292C309.485 168.796 310.073 169.048 310.801 169.048C311.361 169.048 311.828 168.917 312.201 168.656C312.574 168.395 312.831 168.021 312.971 167.536H314.343C314.138 168.32 313.727 168.95 313.111 169.426C312.495 169.893 311.725 170.126 310.801 170.126C310.073 170.126 309.424 169.963 308.855 169.636C308.295 169.309 307.856 168.847 307.539 168.25C307.222 167.653 307.063 166.953 307.063 166.15ZM319.851 162.188C320.43 162.188 320.952 162.314 321.419 162.566C321.886 162.809 322.25 163.177 322.511 163.672C322.782 164.167 322.917 164.769 322.917 165.478V170H321.657V165.66C321.657 164.895 321.466 164.311 321.083 163.91C320.7 163.499 320.178 163.294 319.515 163.294C318.843 163.294 318.306 163.504 317.905 163.924C317.513 164.344 317.317 164.955 317.317 165.758V170H316.043V159.64H317.317V163.42C317.569 163.028 317.914 162.725 318.353 162.51C318.801 162.295 319.3 162.188 319.851 162.188Z" fill="#2E2C43"/>
<path d="M163.32 129.112C162.253 129.112 161.272 128.861 160.376 128.36C159.491 127.859 158.787 127.165 158.264 126.28C157.741 125.395 157.48 124.397 157.48 123.288C157.48 122.179 157.741 121.181 158.264 120.296C158.787 119.411 159.491 118.723 160.376 118.232C161.272 117.731 162.253 117.48 163.32 117.48C164.387 117.48 165.363 117.731 166.248 118.232C167.133 118.723 167.832 119.411 168.344 120.296C168.867 121.181 169.128 122.179 169.128 123.288C169.128 124.397 168.867 125.395 168.344 126.28C167.832 127.165 167.128 127.859 166.232 128.36C165.347 128.861 164.376 129.112 163.32 129.112ZM163.32 125.8C164.024 125.8 164.568 125.576 164.952 125.128C165.336 124.669 165.528 124.056 165.528 123.288C165.528 122.509 165.336 121.896 164.952 121.448C164.568 120.989 164.024 120.76 163.32 120.76C162.605 120.76 162.056 120.989 161.672 121.448C161.288 121.896 161.096 122.509 161.096 123.288C161.096 124.056 161.288 124.669 161.672 125.128C162.056 125.576 162.605 125.8 163.32 125.8ZM173.961 121.64C174.324 121.117 174.767 120.701 175.289 120.392C175.812 120.072 176.356 119.912 176.921 119.912V123.704H175.913C175.241 123.704 174.745 123.821 174.425 124.056C174.116 124.291 173.961 124.707 173.961 125.304V129H170.409V119.976H173.961V121.64ZM177.398 124.488C177.398 123.539 177.558 122.717 177.878 122.024C178.209 121.32 178.657 120.787 179.222 120.424C179.787 120.051 180.422 119.864 181.126 119.864C181.713 119.864 182.214 119.987 182.63 120.232C183.057 120.467 183.382 120.792 183.606 121.208V117.16H187.158V129H183.606V127.768C183.382 128.184 183.057 128.515 182.63 128.76C182.214 128.995 181.713 129.112 181.126 129.112C180.422 129.112 179.787 128.931 179.222 128.568C178.657 128.195 178.209 127.661 177.878 126.968C177.558 126.264 177.398 125.437 177.398 124.488ZM183.622 124.488C183.622 124.008 183.499 123.635 183.254 123.368C183.009 123.101 182.694 122.968 182.31 122.968C181.926 122.968 181.611 123.101 181.366 123.368C181.121 123.635 180.998 124.008 180.998 124.488C180.998 124.968 181.121 125.341 181.366 125.608C181.611 125.875 181.926 126.008 182.31 126.008C182.694 126.008 183.009 125.875 183.254 125.608C183.499 125.341 183.622 124.968 183.622 124.488ZM197.489 124.408C197.489 124.653 197.473 124.888 197.441 125.112H191.729C191.782 125.891 192.108 126.28 192.705 126.28C193.089 126.28 193.366 126.104 193.537 125.752H197.297C197.169 126.392 196.897 126.968 196.481 127.48C196.076 127.981 195.558 128.381 194.929 128.68C194.31 128.968 193.628 129.112 192.881 129.112C191.985 129.112 191.185 128.925 190.481 128.552C189.788 128.179 189.244 127.645 188.849 126.952C188.465 126.248 188.273 125.427 188.273 124.488C188.273 123.549 188.465 122.733 188.849 122.04C189.244 121.336 189.788 120.797 190.481 120.424C191.185 120.051 191.985 119.864 192.881 119.864C193.777 119.864 194.572 120.051 195.265 120.424C195.969 120.787 196.513 121.309 196.897 121.992C197.292 122.675 197.489 123.48 197.489 124.408ZM193.889 123.56C193.889 123.261 193.793 123.037 193.601 122.888C193.409 122.728 193.169 122.648 192.881 122.648C192.252 122.648 191.884 122.952 191.777 123.56H193.889ZM202.165 121.64C202.527 121.117 202.97 120.701 203.493 120.392C204.015 120.072 204.559 119.912 205.125 119.912V123.704H204.117C203.445 123.704 202.949 123.821 202.629 124.056C202.319 124.291 202.165 124.707 202.165 125.304V129H198.613V119.976H202.165V121.64ZM215.744 121.544C215.605 121.32 215.408 121.149 215.152 121.032C214.896 120.904 214.587 120.84 214.224 120.84C213.541 120.84 213.013 121.064 212.64 121.512C212.267 121.949 212.08 122.552 212.08 123.32C212.08 124.205 212.288 124.867 212.704 125.304C213.12 125.741 213.76 125.96 214.624 125.96C215.445 125.96 216.107 125.629 216.608 124.968H213.776V122.456H219.552V126.008C219.061 126.851 218.384 127.576 217.52 128.184C216.656 128.781 215.563 129.08 214.24 129.08C213.067 129.08 212.043 128.84 211.168 128.36C210.304 127.869 209.637 127.187 209.168 126.312C208.709 125.437 208.48 124.44 208.48 123.32C208.48 122.2 208.709 121.203 209.168 120.328C209.637 119.453 210.304 118.776 211.168 118.296C212.032 117.805 213.045 117.56 214.208 117.56C215.691 117.56 216.896 117.917 217.824 118.632C218.763 119.347 219.317 120.317 219.488 121.544H215.744ZM229.567 124.408C229.567 124.653 229.551 124.888 229.519 125.112H223.807C223.861 125.891 224.186 126.28 224.783 126.28C225.167 126.28 225.445 126.104 225.615 125.752H229.375C229.247 126.392 228.975 126.968 228.559 127.48C228.154 127.981 227.637 128.381 227.007 128.68C226.389 128.968 225.706 129.112 224.959 129.112C224.063 129.112 223.263 128.925 222.559 128.552C221.866 128.179 221.322 127.645 220.927 126.952C220.543 126.248 220.351 125.427 220.351 124.488C220.351 123.549 220.543 122.733 220.927 122.04C221.322 121.336 221.866 120.797 222.559 120.424C223.263 120.051 224.063 119.864 224.959 119.864C225.855 119.864 226.65 120.051 227.343 120.424C228.047 120.787 228.591 121.309 228.975 121.992C229.37 122.675 229.567 123.48 229.567 124.408ZM225.967 123.56C225.967 123.261 225.871 123.037 225.679 122.888C225.487 122.728 225.247 122.648 224.959 122.648C224.33 122.648 223.962 122.952 223.855 123.56H225.967ZM237.011 119.912C238.045 119.912 238.851 120.259 239.427 120.952C240.013 121.645 240.307 122.584 240.307 123.768V129H236.771V124.216C236.771 123.789 236.653 123.453 236.419 123.208C236.195 122.952 235.891 122.824 235.507 122.824C235.112 122.824 234.803 122.952 234.579 123.208C234.355 123.453 234.243 123.789 234.243 124.216V129H230.691V119.976H234.243V121.352C234.52 120.925 234.888 120.579 235.347 120.312C235.816 120.045 236.371 119.912 237.011 119.912ZM243.639 119.256C243.02 119.256 242.524 119.091 242.151 118.76C241.778 118.429 241.591 118.013 241.591 117.512C241.591 117 241.778 116.579 242.151 116.248C242.524 115.907 243.02 115.736 243.639 115.736C244.247 115.736 244.738 115.907 245.111 116.248C245.484 116.579 245.671 117 245.671 117.512C245.671 118.013 245.484 118.429 245.111 118.76C244.738 119.091 244.247 119.256 243.639 119.256ZM245.399 119.976V129H241.847V119.976H245.399ZM255.739 124.408C255.739 124.653 255.723 124.888 255.691 125.112H249.979C250.032 125.891 250.358 126.28 250.955 126.28C251.339 126.28 251.616 126.104 251.787 125.752H255.547C255.419 126.392 255.147 126.968 254.731 127.48C254.326 127.981 253.808 128.381 253.179 128.68C252.56 128.968 251.878 129.112 251.131 129.112C250.235 129.112 249.435 128.925 248.731 128.552C248.038 128.179 247.494 127.645 247.099 126.952C246.715 126.248 246.523 125.427 246.523 124.488C246.523 123.549 246.715 122.733 247.099 122.04C247.494 121.336 248.038 120.797 248.731 120.424C249.435 120.051 250.235 119.864 251.131 119.864C252.027 119.864 252.822 120.051 253.515 120.424C254.219 120.787 254.763 121.309 255.147 121.992C255.542 122.675 255.739 123.48 255.739 124.408ZM252.139 123.56C252.139 123.261 252.043 123.037 251.851 122.888C251.659 122.728 251.419 122.648 251.131 122.648C250.502 122.648 250.134 122.952 250.027 123.56H252.139ZM264.365 116.92L263.949 124.504H260.909L260.493 116.92H264.365ZM262.429 129.128C261.811 129.128 261.315 128.963 260.941 128.632C260.568 128.301 260.381 127.885 260.381 127.384C260.381 126.872 260.568 126.451 260.941 126.12C261.315 125.779 261.811 125.608 262.429 125.608C263.037 125.608 263.528 125.779 263.901 126.12C264.275 126.451 264.461 126.872 264.461 127.384C264.461 127.885 264.275 128.301 263.901 128.632C263.528 128.963 263.037 129.128 262.429 129.128Z" fill="#2E2C43"/>
<defs>
<linearGradient id="paint0_linear_214_664" x1="274.5" y1="233.834" x2="277.978" y2="266.107" gradientUnits="userSpaceOnUse">
<stop stop-color="white"/>
<stop offset="1" stop-color="#FB8C00"/>
</linearGradient>
<linearGradient id="paint1_linear_214_664" x1="99.3268" y1="96.81" x2="88.6699" y2="217.741" gradientUnits="userSpaceOnUse">
<stop stop-color="#FB8C00"/>
<stop offset="1" stop-color="#E76063"/>
</linearGradient>
<linearGradient id="paint2_linear_214_664" x1="144.955" y1="184.163" x2="98.7305" y2="184.163" gradientUnits="userSpaceOnUse">
<stop stop-color="#FFD54F"/>
<stop offset="0.095" stop-color="#FEC846"/>
<stop offset="0.271" stop-color="#FAA630"/>
<stop offset="0.385" stop-color="#F78C1F"/>
<stop offset="0.689" stop-color="#F37F21"/>
<stop offset="1" stop-color="#ED6D23"/>
</linearGradient>
<linearGradient id="paint3_linear_214_664" x1="115.82" y1="227.968" x2="124.667" y2="250.01" gradientUnits="userSpaceOnUse">
<stop stop-color="#EA6100"/>
<stop offset="1" stop-color="#ED6D23"/>
</linearGradient>
<radialGradient id="paint4_radial_214_664" cx="0" cy="0" r="1" gradientUnits="userSpaceOnUse" gradientTransform="translate(109.99 234.36) rotate(-164.228) scale(14.5483 15.7295)">
<stop offset="0.272" stop-color="#FEBC12"/>
<stop offset="0.5" stop-color="#FEA709"/>
<stop offset="0.809" stop-color="#FF9000"/>
</radialGradient>
<radialGradient id="paint5_radial_214_664" cx="0" cy="0" r="1" gradientUnits="userSpaceOnUse" gradientTransform="translate(109.262 209.846) rotate(160.91) scale(6.3436 7.2651)">
<stop stop-color="#FEBC12"/>
<stop offset="1" stop-color="#FF8F00"/>
</radialGradient>
<radialGradient id="paint6_radial_214_664" cx="0" cy="0" r="1" gradientUnits="userSpaceOnUse" gradientTransform="translate(118.812 248.005) rotate(160.91) scale(7.37034 8.44097)">
<stop stop-color="#FEF59F"/>
<stop offset="0.904" stop-color="#FAC537"/>
<stop offset="1" stop-color="#F9BF2C"/>
</radialGradient>
</defs>
</svg>
