<svg width="389" height="346" viewBox="0 0 389 346" fill="none" xmlns="http://www.w3.org/2000/svg">
<mask id="mask0_1220_1016" style="mask-type:alpha" maskUnits="userSpaceOnUse" x="-4" y="0" width="393" height="346">
<rect x="-4" width="393" height="346" fill="#D9D9D9"/>
</mask>
<g mask="url(#mask0_1220_1016)">
<path d="M371.88 86.8398H360.687V473H371.88V86.8398Z" fill="#F2F2F2"/>
<path d="M417.527 117.155H315.04C313.916 117.155 312.804 116.916 311.779 116.453C310.755 115.991 309.84 115.316 309.096 114.473C308.352 113.631 307.796 112.639 307.464 111.565C307.132 110.491 307.033 109.358 307.173 108.243L320.231 3.77445C320.473 1.85802 321.406 0.0956142 322.854 -1.18279C324.302 -2.46119 326.167 -3.16792 328.098 -3.17065H404.468C406.4 -3.16792 408.264 -2.46119 409.712 -1.18279C411.16 0.0956142 412.093 1.85802 412.335 3.77445L425.394 108.243C425.533 109.358 425.434 110.491 425.102 111.565C424.771 112.639 424.214 113.631 423.47 114.473C422.726 115.316 421.812 115.991 420.787 116.453C419.762 116.916 418.651 117.155 417.527 117.155Z" fill="#FCEA2B"/>
<path d="M391.468 157.729C395.074 157.729 397.997 154.806 397.997 151.2C397.997 147.594 395.074 144.67 391.468 144.67C387.862 144.67 384.938 147.594 384.938 151.2C384.938 154.806 387.862 157.729 391.468 157.729Z" fill="#F2F2F2"/>
<path d="M57.2036 263.232H-44.0467C-48.7587 263.227 -53.2762 261.353 -56.6081 258.021C-59.9399 254.689 -61.8141 250.171 -61.8195 245.459V176.523C-61.8141 171.811 -59.9399 167.294 -56.6081 163.962C-53.2762 160.63 -48.7587 158.756 -44.0467 158.75H57.2036C61.9156 158.756 66.433 160.63 69.7649 163.962C73.0968 167.294 74.971 171.811 74.9763 176.523V245.459C74.971 250.171 73.0968 254.689 69.7649 258.021C66.433 261.353 61.9156 263.227 57.2036 263.232Z" fill="#FB8C00"/>
<path d="M193.459 263.77H92.2083C87.4963 263.764 82.9789 261.89 79.647 258.558C76.3151 255.226 74.4409 250.709 74.4356 245.997V177.061C74.4409 172.349 76.3151 167.831 79.647 164.499C82.9789 161.167 87.4963 159.293 92.2083 159.288H193.459C198.171 159.293 202.688 161.167 206.02 164.499C209.352 167.831 211.226 172.349 211.231 177.061V245.997C211.226 250.709 209.352 255.227 206.02 258.558C202.688 261.89 198.171 263.764 193.459 263.77Z" fill="#FB8C00"/>
<path d="M232.236 258.923H-213.697V352.095H232.236V258.923Z" fill="#FEB150"/>
<path d="M230.084 352.633H210.695V220.146H247.856V329.862C247.856 342.418 239.884 352.633 230.084 352.633Z" fill="#FEB150"/>
<path d="M75.5116 278.85H-61.2841V249.767C-15.6854 223.611 29.9132 223.611 75.5116 249.767V278.85Z" fill="#FFC882"/>
<path d="M211.771 279.388H74.9757V250.306C120.574 224.149 166.173 224.149 211.771 250.306V279.388Z" fill="#FFC882"/>
<path d="M241.39 258.923C258.939 258.923 273.165 244.697 273.165 227.147C273.165 209.598 258.939 195.372 241.39 195.372C223.84 195.372 209.614 209.598 209.614 227.147C209.614 244.697 223.84 258.923 241.39 258.923Z" fill="#FFC882"/>
<path d="M147.789 164.897C147.863 165.408 147.896 165.924 147.889 166.44L185.977 192.691L196.134 187.883L205.394 202.263L188.24 212.523C186.854 213.352 185.237 213.709 183.631 213.541C182.025 213.372 180.517 212.687 179.334 211.589L140.76 175.787C138.846 176.326 136.814 176.269 134.933 175.624C133.052 174.98 131.412 173.778 130.231 172.178C129.05 170.578 128.384 168.657 128.321 166.67C128.259 164.683 128.803 162.723 129.881 161.053C130.959 159.382 132.521 158.079 134.357 157.318C136.194 156.556 138.219 156.372 140.163 156.789C142.107 157.207 143.878 158.206 145.24 159.654C146.602 161.103 147.491 162.931 147.789 164.897Z" fill="#FFB8B8"/>
<path d="M186.714 190.432C186.881 189.853 187.172 189.316 187.566 188.859C187.959 188.402 188.447 188.036 188.996 187.785L208.147 179.009C210.734 177.326 213.882 176.736 216.902 177.37C219.922 178.004 222.568 179.81 224.259 182.391C225.95 184.973 226.548 188.119 225.922 191.141C225.297 194.163 223.499 196.814 220.922 198.512L205.089 212.512C204.637 212.912 204.105 213.209 203.527 213.384C202.95 213.559 202.342 213.608 201.744 213.527C201.147 213.446 200.573 213.237 200.064 212.914C199.554 212.591 199.12 212.163 198.791 211.657L187.227 193.89C186.898 193.384 186.682 192.814 186.593 192.217C186.504 191.62 186.545 191.011 186.714 190.432Z" fill="#F9A826"/>
<path d="M147.309 166.608L147.117 166.622L146.595 159.397C146.428 157.088 144.934 155.314 143.258 155.436L132.153 156.239C130.477 156.36 127.394 158.465 127.561 160.775L127.695 162.635L130.429 200.408C130.596 202.717 133.95 204.356 135.626 204.235L146.731 203.431C148.407 203.31 149.63 201.34 149.463 199.031L147.49 171.764L147.681 171.75L147.309 166.608Z" fill="#3F3D56"/>
<path d="M145.954 159.473L148.818 199.048C148.943 200.773 148.029 202.244 146.778 202.335L135.619 203.142C134.368 203.233 133.252 201.908 133.127 200.184L130.264 160.609C130.139 158.884 131.052 157.413 132.304 157.322L133.657 157.224C133.564 157.576 133.584 157.949 133.715 158.289C133.847 158.629 134.083 158.918 134.389 159.116C134.517 159.177 134.66 159.205 134.802 159.196L141.164 158.735C141.759 158.692 142.193 157.992 142.133 157.172C142.119 156.983 142.079 156.797 142.013 156.619L143.463 156.515C144.714 156.424 145.829 157.749 145.954 159.473Z" fill="white"/>
<path d="M-10.5912 250.856L-14.2719 240.03L25.7377 220.681L31.1701 236.661L-10.5912 250.856Z" fill="#FFB8B8"/>
<path d="M148.199 258.583C139.618 259.065 131.061 257.273 123.394 253.39L76.3474 221.384L21.4127 241.726C19.9545 242.222 18.3624 242.146 16.9579 241.514C15.5533 240.882 14.441 239.74 13.8455 238.32L11.153 231.843C10.539 230.387 10.5213 228.747 11.1038 227.278C11.6863 225.808 12.8224 224.626 14.2677 223.985L66.7509 200.416C73.0523 197.597 80.1204 196.986 86.8122 198.681L159.672 217.248L178.931 240.119L178.717 240.414C169.262 253.458 158.048 257.87 148.199 258.583Z" fill="#2F2E41"/>
<path d="M207.704 163.013C220.356 163.013 230.613 152.756 230.613 140.103C230.613 127.451 220.356 117.194 207.704 117.194C195.051 117.194 184.794 127.451 184.794 140.103C184.794 152.756 195.051 163.013 207.704 163.013Z" fill="#FFB8B8"/>
<path d="M184.186 250.317L147.315 222.878L172.461 205.007C171.741 202.692 168.551 189.458 186.001 180.437C191.524 177.582 195.504 175.124 197.829 173.132C201.128 170.286 205.354 168.745 209.71 168.798C212.456 168.842 215.155 169.524 217.592 170.791C220.029 172.057 222.137 173.874 223.751 176.096C225.365 178.319 226.439 180.887 226.888 183.596C227.338 186.305 227.151 189.082 226.342 191.707C222.703 203.535 216.908 219.207 209.958 226.702C202.097 235.17 193.572 242.997 184.465 250.108L184.186 250.317Z" fill="#EDEDED"/>
<path d="M-4.74683 260.451L-8.42749 249.623L31.5821 230.275L37.0144 246.254L-4.74683 260.451Z" fill="#FFB8B8"/>
<path d="M154.044 268.177C145.463 268.659 136.907 266.867 129.24 262.984L82.193 230.978L27.2583 251.32C25.8001 251.816 24.208 251.74 22.8034 251.108C21.3989 250.476 20.2865 249.334 19.691 247.914L16.9986 241.438C16.3846 239.981 16.3669 238.341 16.9494 236.872C17.5319 235.402 18.668 234.22 20.1133 233.579L72.5965 210.01C78.8978 207.191 85.9659 206.58 92.6578 208.275L165.517 226.842L184.776 249.713L184.562 250.008C175.108 263.052 163.894 267.464 154.044 268.177Z" fill="#2F2E41"/>
<path d="M143.47 192.379C143.755 192.809 144.006 193.261 144.22 193.731L189.88 201.147L197.001 192.453L211.526 201.484L200.417 218.1C199.519 219.442 198.211 220.457 196.687 220.993C195.164 221.528 193.508 221.555 191.968 221.069L141.78 205.23C140.281 206.536 138.42 207.355 136.444 207.578C134.469 207.8 132.472 207.416 130.72 206.476C128.967 205.536 127.543 204.085 126.636 202.316C125.728 200.547 125.381 198.543 125.64 196.572C125.899 194.601 126.753 192.755 128.086 191.28C129.42 189.806 131.171 188.772 133.107 188.317C135.042 187.862 137.07 188.007 138.921 188.732C140.773 189.458 142.359 190.73 143.47 192.379Z" fill="#FFB8B8"/>
<path d="M189.578 198.79C189.481 198.195 189.514 197.586 189.674 197.004C189.835 196.423 190.119 195.883 190.507 195.421L204.057 179.291C205.674 176.662 208.266 174.781 211.267 174.061C214.268 173.341 217.432 173.84 220.065 175.449C222.699 177.058 224.587 179.645 225.315 182.644C226.044 185.643 225.553 188.808 223.952 191.446L215.638 210.877C215.4 211.431 215.046 211.928 214.6 212.333C214.153 212.739 213.624 213.043 213.049 213.226C212.474 213.408 211.867 213.465 211.268 213.392C210.67 213.318 210.094 213.117 209.58 212.801L191.522 201.695C191.008 201.379 190.569 200.956 190.233 200.455C189.897 199.954 189.674 199.386 189.578 198.79Z" fill="#F9F9F9"/>
<path d="M201.579 165.333C208.236 156.769 211.928 146.272 212.097 135.425C208.963 137.754 205.417 139.467 201.645 140.474C197.642 141.54 193.241 141.755 189.471 140.037C184.165 137.62 181.026 131.456 181.629 125.657C182.231 119.857 186.239 114.676 191.457 112.076C196.799 109.578 202.892 109.209 208.496 111.044C211.461 108.519 215.091 106.903 218.951 106.387C222.811 105.872 226.738 106.481 230.261 108.14C238.37 112.12 242.855 121.336 243.633 130.336C244.41 139.336 242.098 148.284 239.806 157.021L239.547 158.008C238.833 160.729 236.759 165.948 236.759 165.948C236.759 165.948 224.711 163.57 219.925 162.046C212.988 164.553 201.579 165.333 201.579 165.333Z" fill="#2F2E41"/>
<path d="M144.153 167.529L134.337 168.239C134.09 168.257 133.847 168.176 133.659 168.014C133.472 167.853 133.357 167.623 133.339 167.376C133.321 167.13 133.402 166.886 133.564 166.699C133.726 166.512 133.956 166.396 134.202 166.379L144.018 165.668C144.141 165.659 144.264 165.674 144.38 165.713C144.497 165.751 144.604 165.812 144.697 165.892C144.79 165.973 144.866 166.07 144.921 166.18C144.976 166.289 145.009 166.409 145.018 166.531C145.027 166.654 145.012 166.776 144.973 166.893C144.934 167.009 144.873 167.117 144.793 167.21C144.712 167.302 144.614 167.378 144.505 167.433C144.395 167.488 144.275 167.52 144.153 167.529Z" fill="#3F3D56"/>
<path d="M144.486 172.18L134.67 172.89C134.547 172.899 134.424 172.884 134.308 172.846C134.191 172.807 134.084 172.746 133.991 172.666C133.898 172.586 133.822 172.488 133.767 172.379C133.712 172.269 133.679 172.15 133.67 172.027C133.661 171.905 133.676 171.782 133.715 171.666C133.754 171.549 133.815 171.442 133.895 171.349C133.976 171.256 134.074 171.18 134.183 171.126C134.293 171.071 134.413 171.038 134.535 171.03L144.351 170.319C144.598 170.301 144.841 170.382 145.029 170.544C145.216 170.706 145.331 170.936 145.349 171.182C145.366 171.429 145.286 171.673 145.124 171.86C144.962 172.047 144.732 172.162 144.486 172.18Z" fill="#3F3D56"/>
<path d="M144.823 176.832L135.007 177.543C134.76 177.56 134.517 177.479 134.33 177.317C134.144 177.155 134.029 176.926 134.011 176.679C133.993 176.433 134.074 176.19 134.235 176.003C134.397 175.816 134.626 175.7 134.872 175.682L144.688 174.972C144.935 174.954 145.179 175.035 145.366 175.197C145.553 175.358 145.668 175.588 145.686 175.835C145.704 176.081 145.623 176.325 145.461 176.512C145.299 176.699 145.069 176.814 144.823 176.832Z" fill="#3F3D56"/>
<path d="M33.448 49.9498H-60.7601C-62.9858 49.9472 -65.1196 49.062 -66.6933 47.4882C-68.2671 45.9144 -69.1524 43.7807 -69.1549 41.555V-39.5946C-69.1524 -41.8202 -68.2671 -43.954 -66.6933 -45.5278C-65.1196 -47.1016 -62.9858 -47.9868 -60.7601 -47.9894H33.448C35.6737 -47.9868 37.8075 -47.1016 39.3812 -45.5278C40.955 -43.954 41.8403 -41.8202 41.8428 -39.5946V41.555C41.8403 43.7807 40.955 45.9144 39.3812 47.4882C37.8075 49.062 35.6737 49.9472 33.448 49.9498ZM-60.7601 -46.1239C-62.4912 -46.1219 -64.1508 -45.4334 -65.3749 -44.2093C-66.5989 -42.9853 -67.2875 -41.3257 -67.2894 -39.5946V41.555C-67.2875 43.2861 -66.5989 44.9457 -65.3749 46.1698C-64.1508 47.3938 -62.4912 48.0823 -60.7601 48.0843H33.448C35.1791 48.0823 36.8387 47.3938 38.0628 46.1698C39.2868 44.9457 39.9754 43.2861 39.9773 41.555V-39.5946C39.9754 -41.3257 39.2868 -42.9853 38.0628 -44.2093C36.8387 -45.4334 35.1791 -46.1219 33.448 -46.1239H-60.7601Z" fill="#F2F2F2"/>
<path d="M19.6728 37.3581H-46.9875C-49.0895 37.3557 -51.1048 36.5197 -52.5911 35.0333C-54.0775 33.547 -54.9135 31.5317 -54.9159 29.4297V-27.4683C-54.9135 -29.5703 -54.0775 -31.5856 -52.5911 -33.0719C-51.1048 -34.5583 -49.0895 -35.3944 -46.9875 -35.3967H19.6728C21.7748 -35.3944 23.79 -34.5583 25.2764 -33.0719C26.7627 -31.5856 27.5988 -29.5703 27.6012 -27.4683V29.4297C27.5988 31.5317 26.7627 33.547 25.2764 35.0333C23.79 36.5197 21.7748 37.3557 19.6728 37.3581Z" fill="#E6E6E6"/>
<path d="M5.46356 21.0347H-16.9225C-18.159 21.0333 -19.3445 20.5415 -20.2188 19.6672C-21.0931 18.7929 -21.5849 17.6074 -21.5863 16.371V13.0995L-20.7195 13.038C-18.0491 12.8537 -15.4499 12.0952 -13.0995 10.8144C-10.749 9.53363 -8.70266 7.76068 -7.10009 5.61666C-5.49753 3.47264 -4.3765 1.00805 -3.81359 -1.60885C-3.25068 -4.22575 -3.25912 -6.93332 -3.83836 -9.54665L-4.08589 -10.6789H5.46356C6.70003 -10.6775 7.88543 -10.1856 8.75974 -9.31133C9.63406 -8.43701 10.1259 -7.25159 10.1273 -6.01512V16.371C10.1259 17.6074 9.63406 18.7929 8.75974 19.6672C7.88542 20.5415 6.70004 21.0333 5.46356 21.0347ZM-19.7208 14.8188V16.371C-19.72 17.1129 -19.4249 17.8241 -18.9003 18.3487C-18.3757 18.8733 -17.6644 19.1684 -16.9225 19.1692H5.46356C6.20545 19.1684 6.91669 18.8733 7.44128 18.3487C7.96588 17.8241 8.261 17.1129 8.26183 16.371V-6.01512C8.261 -6.75701 7.96588 -7.46827 7.44128 -7.99287C6.91669 -8.51747 6.20545 -8.81256 5.46356 -8.81339H-1.80001C-1.62311 -7.73414 -1.53351 -6.64239 -1.53209 -5.54875C-1.54927 -0.517078 -3.40953 4.33389 -6.76107 8.08692C-10.1126 11.8399 -14.7231 14.2349 -19.7208 14.8188Z" fill="white"/>
</g>
<rect x="39" y="30" width="93" height="48.9474" rx="3.8516" fill="#FB8C00"/>
<path d="M50.6548 61.3234C50.9506 59.6143 51.5751 58.0942 52.5282 56.7631C53.4978 55.4155 54.6892 54.372 56.1025 53.6325C57.5158 52.8765 59.0194 52.4986 60.6135 52.4986C62.4705 52.4986 63.9906 52.9669 65.1738 53.9036C66.3734 54.8239 67.1458 56.1057 67.4909 57.7491H66.2091C65.9297 56.4508 65.2806 55.4155 64.2617 54.6431C63.2593 53.8708 61.9857 53.4846 60.4409 53.4846C59.077 53.4846 57.7869 53.805 56.5709 54.4459C55.3548 55.0868 54.3195 55.9989 53.4649 57.1821C52.6268 58.3653 52.0681 59.7457 51.7887 61.3234C51.6901 61.915 51.6408 62.4901 51.6408 63.0489C51.6408 64.2978 51.8955 65.3824 52.405 66.3027C52.9144 67.2065 53.6211 67.905 54.5249 68.398C55.4452 68.891 56.4969 69.1375 57.6801 69.1375C58.9948 69.1375 60.2355 68.8417 61.4023 68.2501C62.5855 67.6585 63.588 66.8204 64.4096 65.7357C65.2477 64.6347 65.8311 63.3447 66.1598 61.8657H58.4443L58.6168 60.9536H67.4663L67.3184 61.6931C66.9897 63.3036 66.3488 64.7497 65.3956 66.0315C64.4589 67.2969 63.3004 68.2994 61.92 69.0389C60.5395 69.7619 59.0687 70.1235 57.5076 70.1235C56.1107 70.1235 54.8782 69.8359 53.81 69.2607C52.7583 68.6855 51.9366 67.8721 51.345 66.8204C50.7698 65.7522 50.4823 64.5279 50.4823 63.1475C50.4823 62.523 50.5398 61.915 50.6548 61.3234ZM77.4276 56.3933C78.5615 56.3933 79.5229 56.6152 80.3117 57.0589C81.117 57.4861 81.7168 58.0695 82.1112 58.809C82.522 59.5321 82.7274 60.3456 82.7274 61.2494C82.7274 61.6438 82.6946 62.0053 82.6288 62.334C82.5302 62.9256 82.4316 63.3693 82.333 63.6651H70.7721C70.7063 64.191 70.6735 64.569 70.6735 64.799C70.6735 66.2123 71.1007 67.2969 71.9553 68.0529C72.8098 68.8088 73.8862 69.1868 75.1845 69.1868C76.4827 69.1868 77.6331 68.8663 78.6355 68.2254C79.6544 67.5681 80.3774 66.6807 80.8047 65.5632H81.9633C81.4374 66.9272 80.5582 68.0364 79.3257 68.891C78.1096 69.7291 76.6717 70.1481 75.0119 70.1481C73.3686 70.1481 72.0457 69.6716 71.0432 68.7184C70.0572 67.7653 69.5642 66.467 69.5642 64.8237C69.5642 64.3142 69.6135 63.7884 69.7121 63.2461C69.9586 61.8492 70.4516 60.6331 71.1911 59.5978C71.9306 58.5625 72.8345 57.7737 73.9027 57.2314C74.9873 56.6727 76.1623 56.3933 77.4276 56.3933ZM81.4456 62.8024C81.5607 62.3258 81.6182 61.841 81.6182 61.348C81.6182 60.0498 81.1991 59.0555 80.361 58.3653C79.5393 57.6751 78.4958 57.33 77.2304 57.33C76.2937 57.33 75.3899 57.5354 74.5189 57.9463C73.6479 58.3571 72.892 58.9734 72.2511 59.795C71.6102 60.6167 71.1665 61.6192 70.92 62.8024H81.4456ZM93.0805 56.2947C94.4445 56.2947 95.5373 56.6645 96.359 57.404C97.1807 58.127 97.5915 59.2034 97.5915 60.6331C97.5915 61.0768 97.5422 61.5699 97.4436 62.1122L96.0632 69.9509H94.9786L96.359 62.1861C96.4412 61.6602 96.4823 61.2248 96.4823 60.8796C96.4823 59.6964 96.1536 58.8008 95.4962 58.1928C94.8389 57.5683 93.9186 57.2561 92.7354 57.2561C91.355 57.2561 90.1636 57.6833 89.1611 58.5379C88.1587 59.3924 87.4685 60.6496 87.0905 62.3094L85.7348 69.9509H84.6255L87.0166 56.5659H88.1258L87.6328 59.376C88.1916 58.3735 88.9475 57.6094 89.9006 57.0835C90.8702 56.5576 91.9302 56.2947 93.0805 56.2947ZM103.435 53.5832C103.205 53.5832 103.016 53.5174 102.868 53.386C102.72 53.2381 102.646 53.0491 102.646 52.819C102.646 52.4904 102.761 52.2192 102.991 52.0056C103.221 51.7755 103.484 51.6605 103.78 51.6605C104.01 51.6605 104.199 51.7344 104.347 51.8823C104.511 52.0302 104.593 52.2192 104.593 52.4493C104.593 52.7779 104.47 53.0491 104.224 53.2627C103.994 53.4764 103.731 53.5832 103.435 53.5832ZM103.484 56.5659L101.093 69.9509H99.9837L102.375 56.5659H103.484ZM113.368 56.3933C114.502 56.3933 115.463 56.6152 116.252 57.0589C117.057 57.4861 117.657 58.0695 118.051 58.809C118.462 59.5321 118.668 60.3456 118.668 61.2494C118.668 61.6438 118.635 62.0053 118.569 62.334C118.47 62.9256 118.372 63.3693 118.273 63.6651H106.712C106.647 64.191 106.614 64.569 106.614 64.799C106.614 66.2123 107.041 67.2969 107.895 68.0529C108.75 68.8088 109.826 69.1868 111.125 69.1868C112.423 69.1868 113.573 68.8663 114.576 68.2254C115.595 67.5681 116.318 66.6807 116.745 65.5632H117.903C117.378 66.9272 116.498 68.0364 115.266 68.891C114.05 69.7291 112.612 70.1481 110.952 70.1481C109.309 70.1481 107.986 69.6716 106.983 68.7184C105.997 67.7653 105.504 66.467 105.504 64.8237C105.504 64.3142 105.554 63.7884 105.652 63.2461C105.899 61.8492 106.392 60.6331 107.131 59.5978C107.871 58.5625 108.775 57.7737 109.843 57.2314C110.927 56.6727 112.102 56.3933 113.368 56.3933ZM117.386 62.8024C117.501 62.3258 117.558 61.841 117.558 61.348C117.558 60.0498 117.139 59.0555 116.301 58.3653C115.48 57.6751 114.436 57.33 113.171 57.33C112.234 57.33 111.33 57.5354 110.459 57.9463C109.588 58.3571 108.832 58.9734 108.191 59.795C107.55 60.6167 107.107 61.6192 106.86 62.8024H117.386Z" fill="white"/>
<path fill-rule="evenodd" clip-rule="evenodd" d="M55.187 38.3489C54.6783 38.3949 54.4591 38.4658 53.5878 38.8673C53.0538 39.1133 52.0024 40.065 52.0024 40.3023C52.0024 40.3991 51.9439 40.4784 51.8724 40.4784C51.8009 40.4784 51.7424 40.589 51.7424 40.7241C51.7424 40.8593 51.69 40.9699 51.6261 40.9699C51.4949 40.9699 51.3393 41.7656 51.3257 42.506C51.3137 43.1589 51.4884 44.0421 51.6296 44.0421C51.6916 44.0421 51.7424 44.1527 51.7424 44.2879C51.7424 44.4231 51.8009 44.5337 51.8724 44.5337C51.9439 44.5337 52.0024 44.6034 52.0024 44.6885C52.0024 44.9015 53.0299 45.8855 53.2522 45.8855C53.3512 45.8855 53.4322 45.9368 53.4322 45.9995C53.4322 46.0623 53.7603 46.2297 54.1612 46.3715C55.2912 46.7711 58.0367 46.6874 58.5602 46.2374C58.6282 46.1791 58.7639 46.1313 58.8619 46.1313C59.099 46.1313 59.4116 45.8262 59.4116 45.5948C59.4116 45.3407 57.9711 42.6904 57.8329 42.6904C57.7718 42.6904 57.7218 42.7457 57.7218 42.8132C57.7218 42.8854 57.2715 42.9361 56.6308 42.9361C55.489 42.9361 55.382 42.8834 55.382 42.3214C55.382 42.0168 55.9718 41.9051 57.0206 42.0113C57.8867 42.099 58.2417 41.9625 58.2417 41.542C58.2417 41.4413 58.2855 41.3407 58.3392 41.3181C58.4939 41.2531 59.4116 39.4923 59.4116 39.2605C59.4116 39.054 58.6162 38.635 58.224 38.635C58.1194 38.635 57.9781 38.5862 57.9103 38.5265C57.766 38.3998 55.9424 38.2809 55.187 38.3489ZM69.3695 38.5837C69.2292 38.9293 69.2806 46.1297 69.4251 46.3851C69.5472 46.6006 69.7111 46.6228 71.1799 46.6228H72.8002V42.506V38.3892H71.1243C69.716 38.3892 69.4358 38.4203 69.3695 38.5837ZM77.3993 38.6732C77.2477 38.8212 76.9593 39.0528 76.7583 39.188C76.5574 39.3232 76.2719 39.5459 76.124 39.6829C75.9759 39.8199 75.6491 40.0514 75.3977 40.1974C75.1463 40.3436 74.7998 40.6047 74.6277 40.778C74.4556 40.9511 74.2659 41.0928 74.2063 41.0928C74.0395 41.0928 73.3202 41.7771 73.3202 41.9356C73.3202 42.02 73.5534 42.0759 73.9051 42.0759H74.49V43.2332C74.49 44.4682 74.7612 45.3512 75.2635 45.7518C75.398 45.8591 75.6153 46.0307 75.7465 46.1331C76.4337 46.6696 78.1006 46.7656 79.0721 46.3246L79.5595 46.1032V44.8956C79.5595 44.223 79.5019 43.6543 79.4295 43.612C79.358 43.5702 79.2995 43.5882 79.2995 43.6518C79.2995 43.7967 78.7068 43.9104 78.3766 43.8288C78.1641 43.7762 78.1297 43.6496 78.1297 42.9218V42.0759H78.6886C78.996 42.0759 79.3177 42.0096 79.4035 41.9284C79.4908 41.846 79.5595 41.4505 79.5595 41.0314C79.5595 40.6122 79.4908 40.2167 79.4035 40.1343C79.3177 40.0532 78.996 39.9868 78.6886 39.9868H78.1297V39.188C78.1297 38.5064 78.0963 38.3904 77.9022 38.3967C77.777 38.4009 77.5507 38.5253 77.3993 38.6732ZM96.7178 40.2272V42.0651L97.6602 42.1012L98.6026 42.1374L98.6253 44.165C98.6379 45.2802 98.6525 46.291 98.6578 46.4111C98.6668 46.6115 98.8209 46.6267 100.52 46.5954L102.372 46.5614L102.408 44.3186L102.443 42.0759H103.415H104.387V40.2326V38.3892H100.552H96.7178V40.2272ZM60.1404 40.1812C59.9815 40.5729 60.0541 45.0163 60.224 45.2956C60.4789 45.7145 61.1311 46.3007 61.53 46.4692C62.3464 46.8141 63.6319 46.5762 64.2536 45.9651C64.593 45.6315 64.6111 45.6272 64.6111 45.8806C64.6111 46.0273 64.6716 46.2544 64.7456 46.3851C64.8671 46.5997 65.0308 46.6228 66.4309 46.6228C67.831 46.6228 67.9946 46.5997 68.1162 46.3851C68.198 46.2405 68.2507 45.01 68.2507 43.2426C68.2507 40.8891 68.2155 40.3046 68.0649 40.1624C67.9246 40.0297 67.4972 39.9868 66.3126 39.9868C64.4477 39.9868 64.6226 39.7451 64.5775 42.3831L64.5461 44.2265L64.1048 44.2663C63.8393 44.2903 63.6199 44.2413 63.5543 44.1434C63.4942 44.0539 63.4443 43.1484 63.4431 42.1312C63.4418 40.8588 63.3926 40.2358 63.2852 40.1343C63.1825 40.0372 62.6325 39.9868 61.6743 39.9868C60.4675 39.9868 60.2058 40.02 60.1404 40.1812ZM80.353 40.1557C80.1773 40.3558 80.2186 44.5761 80.4022 45.1988C80.8386 46.678 83.3073 47.1238 84.551 45.9481C84.7304 45.7784 84.9091 45.6397 84.9481 45.6397C84.9871 45.6397 85.019 45.8609 85.019 46.1313V46.6228H86.5031C87.3195 46.6228 88.0799 46.5893 88.193 46.5482C88.373 46.483 88.3986 46.0874 88.3986 43.3777C88.3986 41.1336 88.3557 40.2412 88.2426 40.1343C88.0275 39.9309 85.1301 39.9309 84.915 40.1343C84.8064 40.2369 84.759 40.8908 84.759 42.2848V44.2879H84.3598C83.6527 44.2879 83.5994 44.135 83.56 41.9957L83.5241 40.0482L82.016 40.0138C80.8308 39.9867 80.4746 40.017 80.353 40.1557ZM89.7288 40.0894C89.6012 40.166 89.5719 40.9075 89.5988 43.3749L89.6335 46.5614H91.3233H93.0131L93.095 44.9024C93.1401 43.9899 93.2201 43.1189 93.2727 42.9669C93.3913 42.6242 93.7388 42.6094 93.988 42.9361C94.1382 43.1331 94.3246 43.1819 94.9267 43.1819C95.3408 43.1819 95.6779 43.1267 95.6779 43.059C95.6779 42.9914 95.7441 42.9361 95.8251 42.9361C96.0705 42.9361 96.4472 42.4382 96.5345 41.9986C96.7055 41.1368 96.4224 40.5844 95.5822 40.1404C94.9703 39.8172 93.99 40.0632 93.4885 40.666C93.2188 40.9902 93.0781 40.9484 93.0781 40.5439C93.0781 40.0616 92.8419 39.9867 91.3298 39.9886C90.5397 39.9898 89.8194 40.0351 89.7288 40.0894ZM106.792 40.1097C106.649 40.1678 106.386 40.2198 106.207 40.2252C106.028 40.2306 105.619 40.3595 105.297 40.5115L104.712 40.7879L104.674 41.7391C104.653 42.2623 104.682 42.6895 104.739 42.6885C104.796 42.6875 105.076 42.6069 105.362 42.5096C106.138 42.2453 107.413 42.2655 107.681 42.5465C107.8 42.6701 107.897 42.8083 107.897 42.8537C107.897 42.899 107.521 42.9361 107.062 42.9361C106.095 42.9361 105.189 43.25 104.887 43.6897C104.777 43.8497 104.616 44.1844 104.529 44.4335C104.304 45.0847 104.721 45.9872 105.42 46.3584C105.994 46.6637 107.004 46.707 107.5 46.4473C107.77 46.306 107.862 46.3074 108.101 46.4558C108.315 46.5882 108.761 46.6224 109.928 46.5961L111.471 46.5614L111.507 44.354C111.547 41.8606 111.454 41.4536 110.689 40.7916C110.446 40.5815 109.921 40.3143 109.522 40.1981C108.763 39.9771 107.24 39.9278 106.792 40.1097ZM112.732 40.1343C112.617 40.2427 112.576 41.2982 112.576 44.1181C112.576 46.2281 112.612 48.0419 112.655 48.1488C112.721 48.3122 113.002 48.3433 114.41 48.3433H116.086V47.347C116.086 46.4449 116.107 46.3595 116.313 46.4434C116.438 46.4943 116.892 46.5604 117.321 46.5901C118.641 46.6818 119.94 45.9366 120.45 44.7952C120.812 43.9847 120.666 41.8316 120.211 41.2771C119.788 40.7614 119.579 40.5967 118.982 40.3114C118.168 39.9216 117.444 39.8949 116.716 40.2277C116.192 40.4668 116.188 40.4668 116.122 40.2277C116.061 40.0051 115.935 39.9868 114.472 39.9868C113.413 39.9868 112.836 40.0357 112.732 40.1343ZM117.07 42.866C117.172 42.9624 117.256 43.2666 117.256 43.5419V44.0421H116.671H116.086V43.5454C116.086 42.7903 116.608 42.4295 117.07 42.866ZM107.872 44.6259C107.911 45.1467 107.91 45.1481 107.463 45.1481C107.088 45.1481 107.001 45.0957 106.929 44.8262C106.827 44.441 107.174 44.0371 107.572 44.0773C107.779 44.0983 107.84 44.209 107.872 44.6259Z" fill="white"/>
</svg>
