<svg width="11" height="18" viewBox="0 0 11 18" fill="none" xmlns="http://www.w3.org/2000/svg">
<path d="M1.8 0.8H9C9.55229 0.8 10 1.24772 10 1.8V16.2C10 16.7523 9.55229 17.2 9 17.2H1.8C1.24772 17.2 0.8 16.7523 0.8 16.2V1.8C0.8 1.24772 1.24772 0.8 1.8 0.8Z" stroke="#2E2C43" stroke-width="1.6" stroke-linecap="round" stroke-linejoin="round"/>
<mask id="path-2-inside-1_76_1939" fill="white">
<path d="M5.35498 14.4H5.44498H5.35498Z"/>
</mask>
<path d="M5.35498 12.8C4.47132 12.8 3.75498 13.5164 3.75498 14.4C3.75498 15.2837 4.47132 16 5.35498 16V12.8ZM5.44498 16C6.32864 16 7.04498 15.2837 7.04498 14.4C7.04498 13.5164 6.32864 12.8 5.44498 12.8V16ZM5.35498 16H5.44498V12.8H5.35498V16Z" fill="#2E2C43" mask="url(#path-2-inside-1_76_1939)"/>
</svg>
