<svg width="389" height="345" viewBox="0 0 389 345" fill="none" xmlns="http://www.w3.org/2000/svg">
<mask id="mask0_1220_1016" style="mask-type:alpha" maskUnits="userSpaceOnUse" x="0" y="-1" width="389" height="346">
<rect y="-1" width="389" height="346" fill="#D9D9D9"/>
</mask>
<g mask="url(#mask0_1220_1016)">
<path d="M372.054 85.8398H360.975V472H372.054V85.8398Z" fill="#F2F2F2"/>
<path d="M417.236 116.155H315.793C314.68 116.155 313.58 115.916 312.565 115.453C311.551 114.991 310.646 114.316 309.909 113.473C309.173 112.631 308.622 111.639 308.294 110.565C307.966 109.491 307.867 108.358 308.005 107.243L320.931 2.77445C321.171 0.858023 322.094 -0.904386 323.527 -2.18279C324.961 -3.46119 326.806 -4.16792 328.718 -4.17065H404.311C406.223 -4.16792 408.068 -3.46119 409.501 -2.18279C410.935 -0.904386 411.858 0.858022 412.098 2.77445L425.023 107.243C425.161 108.358 425.063 109.491 424.735 110.565C424.407 111.639 423.856 112.631 423.12 113.473C422.383 114.316 421.478 114.991 420.463 115.453C419.449 115.916 418.349 116.155 417.236 116.155Z" fill="#FCEA2B"/>
<path d="M391.443 156.729C395.012 156.729 397.905 153.806 397.905 150.2C397.905 146.594 395.012 143.67 391.443 143.67C387.873 143.67 384.98 146.594 384.98 150.2C384.98 153.806 387.873 156.729 391.443 156.729Z" fill="#F2F2F2"/>
<path d="M60.5807 262.232H-39.6391C-44.3032 262.227 -48.7746 260.353 -52.0726 257.021C-55.3706 253.689 -57.2257 249.171 -57.231 244.459V175.523C-57.2257 170.811 -55.3706 166.294 -52.0726 162.962C-48.7746 159.63 -44.3032 157.756 -39.6391 157.75H60.5807C65.2447 157.756 69.7162 159.63 73.0141 162.962C76.3121 166.294 78.1672 170.811 78.1725 175.523V244.459C78.1672 249.171 76.3121 253.689 73.0141 257.021C69.7162 260.353 65.2447 262.227 60.5807 262.232Z" fill="#FB8C00"/>
<path d="M195.449 262.77H95.2291C90.5651 262.764 86.0936 260.89 82.7956 257.558C79.4977 254.226 77.6425 249.709 77.6373 244.997V176.061C77.6425 171.349 79.4977 166.831 82.7956 163.499C86.0936 160.167 90.5651 158.293 95.2291 158.288H195.449C200.113 158.293 204.584 160.167 207.882 163.499C211.18 166.831 213.035 171.349 213.041 176.061V244.997C213.035 249.709 211.18 254.227 207.882 257.558C204.584 260.89 200.113 262.764 195.449 262.77Z" fill="#FB8C00"/>
<path d="M233.831 257.923H-207.562V351.095H233.831V257.923Z" fill="#FEB150"/>
<path d="M231.701 351.633H212.51V219.146H249.293V328.862C249.293 341.418 241.401 351.633 231.701 351.633Z" fill="#FEB150"/>
<path d="M78.7023 277.85H-56.701V248.767C-11.5664 222.611 33.568 222.611 78.7023 248.767V277.85Z" fill="#FFC882"/>
<path d="M213.575 278.388H78.1719V249.306C123.306 223.149 168.441 223.149 213.575 249.306V278.388Z" fill="#FFC882"/>
<path d="M242.892 257.923C260.262 257.923 274.344 243.697 274.344 226.147C274.344 208.598 260.262 194.372 242.892 194.372C225.522 194.372 211.44 208.598 211.44 226.147C211.44 243.697 225.522 257.923 242.892 257.923Z" fill="#FFC882"/>
<path d="M150.244 163.897C150.317 164.408 150.35 164.924 150.343 165.44L188.043 191.691L198.097 186.883L207.263 201.263L190.284 211.523C188.912 212.352 187.311 212.709 185.721 212.541C184.132 212.372 182.639 211.687 181.468 210.589L143.287 174.787C141.392 175.326 139.381 175.269 137.519 174.624C135.657 173.98 134.034 172.778 132.865 171.178C131.696 169.578 131.037 167.657 130.975 165.67C130.913 163.683 131.451 161.723 132.519 160.053C133.586 158.382 135.131 157.079 136.949 156.318C138.767 155.556 140.772 155.372 142.696 155.789C144.62 156.207 146.373 157.206 147.721 158.654C149.07 160.103 149.949 161.931 150.244 163.897Z" fill="#FFB8B8"/>
<path d="M188.772 189.432C188.938 188.853 189.226 188.316 189.616 187.859C190.006 187.402 190.488 187.036 191.031 186.785L209.988 178.009C212.548 176.326 215.664 175.736 218.654 176.37C221.643 177.004 224.262 178.81 225.935 181.391C227.609 183.973 228.201 187.119 227.582 190.141C226.963 193.163 225.183 195.814 222.633 197.512L206.961 211.512C206.514 211.912 205.987 212.209 205.415 212.384C204.844 212.559 204.242 212.608 203.65 212.527C203.059 212.446 202.491 212.237 201.987 211.914C201.482 211.591 201.053 211.163 200.727 210.657L189.281 192.89C188.955 192.384 188.741 191.814 188.653 191.217C188.565 190.62 188.606 190.011 188.772 189.432Z" fill="#F9A826"/>
<path d="M149.769 165.608L149.579 165.622L149.062 158.397C148.897 156.088 147.418 154.314 145.76 154.436L134.767 155.239C133.108 155.36 130.056 157.465 130.222 159.775L130.355 161.635L133.06 199.408C133.226 201.717 136.546 203.356 138.204 203.235L149.197 202.431C150.856 202.31 152.066 200.34 151.901 198.031L149.948 170.764L150.137 170.75L149.769 165.608Z" fill="#3F3D56"/>
<path d="M148.428 158.473L151.262 198.048C151.386 199.773 150.482 201.244 149.243 201.335L138.198 202.142C136.959 202.233 135.855 200.908 135.732 199.184L132.897 159.609C132.774 157.884 133.678 156.413 134.916 156.322L136.256 156.224C136.163 156.576 136.184 156.949 136.314 157.289C136.444 157.629 136.677 157.918 136.98 158.116C137.107 158.177 137.248 158.205 137.389 158.196L143.687 157.735C144.275 157.692 144.705 156.992 144.646 156.172C144.632 155.983 144.592 155.797 144.527 155.619L145.962 155.515C147.2 155.424 148.304 156.749 148.428 158.473Z" fill="white"/>
<path d="M-6.5241 249.856L-10.1673 239.03L29.435 219.681L34.8121 235.661L-6.5241 249.856Z" fill="#FFB8B8"/>
<path d="M150.649 257.583C142.156 258.065 133.687 256.273 126.098 252.39L79.5296 220.384L25.1541 240.726C23.7107 241.222 22.1348 241.146 20.7445 240.514C19.3543 239.882 18.2533 238.74 17.6638 237.32L14.9988 230.843C14.391 229.387 14.3735 227.747 14.9501 226.278C15.5267 224.808 16.6512 223.626 18.0818 222.985L70.0308 199.416C76.268 196.597 83.2642 195.986 89.8879 197.681L162.006 216.248L181.069 239.119L180.857 239.414C171.499 252.458 160.399 256.87 150.649 257.583Z" fill="#2F2E41"/>
<path d="M209.549 162.013C222.073 162.013 232.225 151.756 232.225 139.103C232.225 126.451 222.073 116.194 209.549 116.194C197.025 116.194 186.873 126.451 186.873 139.103C186.873 151.756 197.025 162.013 209.549 162.013Z" fill="#FFB8B8"/>
<path d="M186.271 249.317L149.775 221.878L174.665 204.007C173.953 201.692 170.795 188.458 188.067 179.437C193.534 176.582 197.473 174.124 199.775 172.132C203.04 169.286 207.223 167.745 211.535 167.798C214.253 167.842 216.924 168.524 219.336 169.791C221.748 171.057 223.836 172.874 225.433 175.096C227.03 177.319 228.093 179.887 228.538 182.596C228.984 185.305 228.798 188.082 227.998 190.707C224.396 202.535 218.659 218.207 211.781 225.702C204 234.17 195.562 241.997 186.547 249.108L186.271 249.317Z" fill="#EDEDED"/>
<path d="M-0.739248 259.451L-4.38245 248.623L35.2199 229.275L40.597 245.254L-0.739248 259.451Z" fill="#FFB8B8"/>
<path d="M-10.2011 265.78L-21.9479 230.869L-21.5108 230.719C-19.7446 230.113 -17.8774 229.863 -16.0158 229.986C-14.1542 230.108 -12.3347 230.6 -10.6612 231.432C-8.98769 232.265 -7.49292 233.423 -6.26226 234.839C-5.03159 236.256 -4.08909 237.903 -3.48864 239.688L3.68601 261.01L-10.2011 265.78Z" fill="#2F2E41"/>
<path d="M156.436 267.177C147.942 267.659 139.473 265.867 131.884 261.984L85.3157 229.978L30.9402 250.32C29.4968 250.816 27.9209 250.74 26.5306 250.108C25.1404 249.476 24.0393 248.334 23.4499 246.914L20.7849 240.438C20.1771 238.981 20.1596 237.341 20.7362 235.872C21.3127 234.402 22.4373 233.22 23.8678 232.579L75.8169 209.01C82.0541 206.191 89.0502 205.58 95.6739 207.275L167.792 225.842L186.855 248.713L186.643 249.008C177.285 262.052 166.185 266.464 156.436 267.177Z" fill="#2F2E41"/>
<path d="M145.969 191.379C146.251 191.809 146.5 192.261 146.712 192.731L191.907 200.147L198.955 191.453L213.333 200.484L202.336 217.1C201.448 218.442 200.153 219.457 198.645 219.993C197.137 220.528 195.498 220.555 193.973 220.069L144.297 204.23C142.813 205.536 140.971 206.355 139.015 206.578C137.059 206.8 135.083 206.416 133.348 205.476C131.614 204.536 130.204 203.085 129.306 201.316C128.408 199.547 128.064 197.543 128.321 195.572C128.577 193.601 129.422 191.755 130.742 190.28C132.062 188.806 133.795 187.772 135.711 187.317C137.627 186.862 139.634 187.007 141.467 187.732C143.299 188.458 144.869 189.73 145.969 191.379Z" fill="#FFB8B8"/>
<path d="M191.608 197.79C191.512 197.195 191.545 196.586 191.703 196.004C191.862 195.423 192.143 194.883 192.527 194.421L205.94 178.291C207.539 175.662 210.106 173.781 213.076 173.061C216.046 172.341 219.178 172.84 221.785 174.449C224.391 176.058 226.26 178.645 226.981 181.644C227.702 184.643 227.217 187.808 225.632 190.446L217.402 209.877C217.167 210.431 216.817 210.928 216.375 211.333C215.933 211.739 215.409 212.043 214.84 212.226C214.271 212.408 213.67 212.465 213.077 212.392C212.485 212.318 211.915 212.117 211.406 211.801L193.532 200.695C193.024 200.379 192.588 199.956 192.256 199.455C191.924 198.954 191.703 198.386 191.608 197.79Z" fill="#F9F9F9"/>
<path d="M203.487 164.333C210.076 155.769 213.73 145.272 213.898 134.425C210.796 136.754 207.285 138.467 203.551 139.474C199.589 140.54 195.233 140.755 191.502 139.037C186.25 136.62 183.143 130.456 183.739 124.657C184.335 118.857 188.303 113.676 193.468 111.076C198.755 108.578 204.786 108.209 210.333 110.044C213.268 107.519 216.861 105.903 220.682 105.387C224.502 104.872 228.389 105.481 231.877 107.14C239.903 111.12 244.342 120.336 245.112 129.336C245.882 138.336 243.593 147.284 241.324 156.021L241.068 157.008C240.362 159.729 238.308 164.948 238.308 164.948C238.308 164.948 226.383 162.57 221.646 161.046C214.779 163.553 203.487 164.333 203.487 164.333Z" fill="#2F2E41"/>
<path d="M146.645 166.529L136.929 167.239C136.685 167.257 136.444 167.176 136.258 167.014C136.073 166.853 135.959 166.623 135.941 166.376C135.924 166.13 136.004 165.886 136.164 165.699C136.324 165.512 136.552 165.396 136.796 165.379L146.512 164.668C146.633 164.659 146.755 164.674 146.87 164.713C146.985 164.751 147.092 164.812 147.184 164.892C147.276 164.973 147.351 165.07 147.406 165.18C147.46 165.289 147.493 165.409 147.501 165.531C147.51 165.654 147.495 165.776 147.457 165.893C147.418 166.009 147.358 166.117 147.278 166.21C147.199 166.302 147.102 166.378 146.993 166.433C146.885 166.488 146.766 166.52 146.645 166.529Z" fill="#3F3D56"/>
<path d="M146.974 171.18L137.258 171.89C137.137 171.899 137.015 171.884 136.9 171.846C136.785 171.807 136.678 171.746 136.586 171.666C136.494 171.586 136.419 171.488 136.365 171.379C136.31 171.269 136.277 171.15 136.269 171.027C136.26 170.905 136.275 170.782 136.313 170.666C136.352 170.549 136.412 170.442 136.492 170.349C136.571 170.256 136.668 170.18 136.777 170.126C136.886 170.071 137.004 170.038 137.125 170.03L146.841 169.319C147.085 169.301 147.327 169.382 147.512 169.544C147.697 169.706 147.811 169.936 147.829 170.182C147.846 170.429 147.766 170.673 147.606 170.86C147.446 171.047 147.219 171.162 146.974 171.18Z" fill="#3F3D56"/>
<path d="M147.308 175.832L137.592 176.543C137.348 176.56 137.107 176.479 136.922 176.317C136.738 176.155 136.624 175.926 136.606 175.679C136.589 175.433 136.668 175.19 136.828 175.003C136.988 174.816 137.215 174.7 137.458 174.682L147.175 173.972C147.419 173.954 147.66 174.035 147.845 174.197C148.031 174.358 148.144 174.588 148.162 174.835C148.18 175.081 148.1 175.325 147.94 175.512C147.779 175.699 147.552 175.814 147.308 175.832Z" fill="#3F3D56"/>
<path d="M37.0669 48.9498H-56.1824C-58.3854 48.9472 -60.4975 48.062 -62.0552 46.4882C-63.613 44.9144 -64.4892 42.7807 -64.4918 40.555V-40.5946C-64.4892 -42.8202 -63.613 -44.954 -62.0552 -46.5278C-60.4975 -48.1016 -58.3854 -48.9868 -56.1824 -48.9894H37.0669C39.2699 -48.9868 41.382 -48.1016 42.9397 -46.5278C44.4975 -44.954 45.3737 -42.8202 45.3762 -40.5946V40.555C45.3737 42.7807 44.4975 44.9144 42.9397 46.4882C41.382 48.062 39.2699 48.9472 37.0669 48.9498ZM-56.1824 -47.1239C-57.8959 -47.1219 -59.5386 -46.4334 -60.7502 -45.2093C-61.9618 -43.9853 -62.6433 -42.3257 -62.6452 -40.5946V40.555C-62.6433 42.2861 -61.9618 43.9457 -60.7502 45.1698C-59.5386 46.3938 -57.8959 47.0823 -56.1824 47.0843H37.0669C38.7803 47.0823 40.4231 46.3938 41.6347 45.1698C42.8463 43.9457 43.5278 42.2861 43.5297 40.555V-40.5946C43.5278 -42.3257 42.8463 -43.9853 41.6347 -45.2093C40.4231 -46.4334 38.7803 -47.1219 37.0669 -47.1239H-56.1824Z" fill="#F2F2F2"/>
<path d="M23.4318 36.3581H-42.55C-44.6306 36.3557 -46.6254 35.5197 -48.0966 34.0333C-49.5678 32.547 -50.3954 30.5317 -50.3977 28.4297V-28.4683C-50.3954 -30.5703 -49.5678 -32.5856 -48.0966 -34.0719C-46.6254 -35.5583 -44.6306 -36.3944 -42.55 -36.3967H23.4318C25.5124 -36.3944 27.5071 -35.5583 28.9783 -34.0719C30.4496 -32.5856 31.2772 -30.5703 31.2795 -28.4683V28.4297C31.2772 30.5317 30.4496 32.547 28.9783 34.0333C27.5071 35.5197 25.5124 36.3557 23.4318 36.3581Z" fill="#E6E6E6"/>
<path d="M1.52024 -6.54919C1.51771 -7.96088 1.3643 -9.36817 1.06267 -10.7466H-12.7903C-13.7697 -10.7466 -14.7091 -10.3535 -15.4017 -9.65377C-16.0942 -8.95407 -16.4833 -8.00509 -16.4833 -7.01557V12.968C-11.5958 12.6175 -7.0213 10.4093 -3.68076 6.78793C-0.340227 3.16655 1.51819 -1.59901 1.52024 -6.54919Z" fill="#F9A826"/>
<path d="M-17.8649 13.9715C-21.6959 13.9729 -25.4492 12.8797 -28.6915 10.8181C-31.9338 8.75643 -34.5328 5.81046 -36.1886 2.32023C-37.8444 -1.16999 -38.4895 -5.06214 -38.0493 -8.90692C-37.6091 -12.7517 -36.1016 -16.3923 -33.7009 -19.4085C-31.3001 -22.4247 -28.104 -24.6934 -24.4815 -25.9528C-20.859 -27.2123 -16.9578 -27.411 -13.2282 -26.5261C-9.49868 -25.6412 -6.09286 -23.7088 -3.40398 -20.9518C-0.715103 -18.1949 1.14722 -14.726 1.96799 -10.9455L2.21289 -9.81368H-12.7869C-13.5213 -9.81285 -14.2253 -9.51776 -14.7446 -8.99317C-15.2638 -8.46857 -15.5559 -7.75731 -15.5567 -7.01542V13.8372L-16.5751 13.9101C-17.0025 13.9415 -17.4298 13.9715 -17.8649 13.9715ZM-17.8649 -25.2041C-22.7621 -25.2041 -27.4589 -23.2387 -30.9218 -19.7402C-34.3847 -16.2417 -36.3301 -11.4967 -36.3301 -6.54904C-36.3301 -1.60141 -34.3847 3.14357 -30.9218 6.64208C-27.4589 10.1406 -22.7621 12.106 -17.8649 12.106C-17.71 12.106 -17.5563 12.1015 -17.4032 12.0942V-7.01542C-17.4018 -8.25189 -16.915 -9.43731 -16.0496 -10.3116C-15.1842 -11.1859 -14.0108 -11.6778 -12.7869 -11.6792H-0.118362C-1.23671 -15.5658 -3.56914 -18.9829 -6.76748 -21.4204C-9.96583 -23.8579 -13.8586 -25.1852 -17.8649 -25.2041Z" fill="white"/>
<path d="M9.3672 20.0347H-12.791C-14.0149 20.0333 -15.1883 19.5415 -16.0537 18.6672C-16.9192 17.7929 -17.4059 16.6074 -17.4073 15.371V12.0995L-16.5493 12.038C-13.9061 11.8537 -11.3334 11.0952 -9.00688 9.81441C-6.68036 8.53363 -4.65484 6.76068 -3.06858 4.61666C-1.48233 2.47264 -0.372709 0.00804901 0.184469 -2.60885C0.74165 -5.22575 0.733295 -7.93332 0.159956 -10.5467L-0.0850582 -11.6789H9.3672C10.5911 -11.6775 11.7644 -11.1856 12.6298 -10.3113C13.4953 -9.43701 13.9821 -8.25159 13.9835 -7.01512V15.371C13.9821 16.6074 13.4953 17.7929 12.6298 18.6672C11.7644 19.5415 10.5911 20.0333 9.3672 20.0347ZM-15.5608 13.8188V15.371C-15.56 16.1129 -15.2679 16.8241 -14.7487 17.3487C-14.2294 17.8733 -13.5254 18.1684 -12.791 18.1692H9.3672C10.1015 18.1684 10.8055 17.8733 11.3248 17.3487C11.844 16.8241 12.1362 16.1129 12.137 15.371V-7.01512C12.1362 -7.75701 11.844 -8.46827 11.3248 -8.99287C10.8055 -9.51747 10.1015 -9.81256 9.3672 -9.81339H2.17756C2.35266 -8.73414 2.44134 -7.64239 2.44275 -6.54875C2.42575 -1.51708 0.584415 3.33389 -2.73301 7.08692C-6.05043 10.8399 -10.614 13.2349 -15.5608 13.8188Z" fill="white"/>
</g>
<rect x="42.5623" y="29" width="92.0534" height="48.9474" rx="3.8516" fill="#FB8C00"/>
<path d="M55.2771 60.3724C55.5729 58.6633 56.1973 57.1432 57.1505 55.8121C58.1201 54.4646 59.3115 53.4211 60.7248 52.6816C62.138 51.9256 63.6417 51.5476 65.2357 51.5476C67.0927 51.5476 68.6128 52.016 69.796 52.9527C70.9957 53.873 71.7681 55.1548 72.1132 56.7981H70.8313C70.552 55.4999 69.9029 54.4646 68.884 53.6922C67.8815 52.9198 66.6079 52.5337 65.0632 52.5337C63.6992 52.5337 62.4092 52.8541 61.1931 53.495C59.977 54.1359 58.9417 55.048 58.0872 56.2312C57.2491 57.4144 56.6903 58.7948 56.411 60.3724C56.3124 60.964 56.2631 61.5392 56.2631 62.0979C56.2631 63.3469 56.5178 64.4315 57.0272 65.3518C57.5367 66.2556 58.2433 66.954 59.1471 67.447C60.0674 67.94 61.1192 68.1865 62.3024 68.1865C63.6171 68.1865 64.8578 67.8907 66.0246 67.2991C67.2078 66.7075 68.2102 65.8694 69.0319 64.7848C69.87 63.6838 70.4534 62.3937 70.782 60.9147H63.0665L63.2391 60.0027H72.0885L71.9406 60.7422C71.6119 62.3527 70.971 63.7988 70.0179 65.0806C69.0812 66.346 67.9226 67.3484 66.5422 68.0879C65.1618 68.811 63.691 69.1726 62.1298 69.1726C60.733 69.1726 59.5005 68.885 58.4323 68.3098C57.3805 67.7346 56.5589 66.9212 55.9673 65.8694C55.3921 64.8012 55.1045 63.577 55.1045 62.1965C55.1045 61.5721 55.162 60.964 55.2771 60.3724ZM82.0499 55.4424C83.1838 55.4424 84.1452 55.6642 84.934 56.1079C85.7392 56.5352 86.339 57.1186 86.7334 57.8581C87.1443 58.5812 87.3497 59.3946 87.3497 60.2985C87.3497 60.6929 87.3168 61.0544 87.2511 61.3831C87.1525 61.9747 87.0539 62.4184 86.9553 62.7142H75.3943C75.3286 63.2401 75.2957 63.618 75.2957 63.8481C75.2957 65.2614 75.723 66.346 76.5775 67.1019C77.4321 67.8579 78.5085 68.2358 79.8067 68.2358C81.105 68.2358 82.2553 67.9154 83.2578 67.2745C84.2766 66.6171 84.9997 65.7297 85.427 64.6123H86.5855C86.0597 65.9762 85.1805 67.0855 83.948 67.94C82.7319 68.7781 81.294 69.1972 79.6342 69.1972C77.9908 69.1972 76.6679 68.7206 75.6655 67.7675C74.6795 66.8143 74.1865 65.5161 74.1865 63.8728C74.1865 63.3633 74.2358 62.8374 74.3344 62.2951C74.5809 60.8983 75.0739 59.6822 75.8134 58.6469C76.5529 57.6116 77.4567 56.8228 78.5249 56.2805C79.6095 55.7217 80.7845 55.4424 82.0499 55.4424ZM86.0679 61.8514C86.1829 61.3749 86.2404 60.8901 86.2404 60.3971C86.2404 59.0988 85.8214 58.1046 84.9833 57.4144C84.1616 56.7242 83.1181 56.3791 81.8527 56.3791C80.916 56.3791 80.0121 56.5845 79.1412 56.9953C78.2702 57.4062 77.5143 58.0224 76.8733 58.8441C76.2324 59.6658 75.7887 60.6682 75.5422 61.8514H86.0679ZM97.7028 55.3438C99.0668 55.3438 100.16 55.7135 100.981 56.453C101.803 57.1761 102.214 58.2525 102.214 59.6822C102.214 60.1259 102.164 60.6189 102.066 61.1612L100.685 69H99.6008L100.981 61.2352C101.063 60.7093 101.105 60.2738 101.105 59.9287C101.105 58.7455 100.776 57.8499 100.118 57.2418C99.4612 56.6174 98.5409 56.3051 97.3577 56.3051C95.9773 56.3051 94.7858 56.7324 93.7834 57.5869C92.781 58.4415 92.0907 59.6987 91.7128 61.3584L90.357 69H89.2478L91.6388 55.6149H92.7481L92.2551 58.4251C92.8138 57.4226 93.5698 56.6585 94.5229 56.1326C95.4925 55.6067 96.5524 55.3438 97.7028 55.3438ZM108.057 52.6323C107.827 52.6323 107.638 52.5665 107.49 52.4351C107.342 52.2872 107.268 52.0982 107.268 51.8681C107.268 51.5394 107.383 51.2683 107.613 51.0546C107.843 50.8246 108.106 50.7095 108.402 50.7095C108.632 50.7095 108.821 50.7835 108.969 50.9314C109.133 51.0793 109.216 51.2683 109.216 51.4983C109.216 51.827 109.092 52.0982 108.846 52.3118C108.616 52.5254 108.353 52.6323 108.057 52.6323ZM108.106 55.6149L105.715 69H104.606L106.997 55.6149H108.106ZM117.99 55.4424C119.124 55.4424 120.085 55.6642 120.874 56.1079C121.679 56.5352 122.279 57.1186 122.674 57.8581C123.084 58.5812 123.29 59.3946 123.29 60.2985C123.29 60.6929 123.257 61.0544 123.191 61.3831C123.093 61.9747 122.994 62.4184 122.895 62.7142H111.335C111.269 63.2401 111.236 63.618 111.236 63.8481C111.236 65.2614 111.663 66.346 112.518 67.1019C113.372 67.8579 114.449 68.2358 115.747 68.2358C117.045 68.2358 118.196 67.9154 119.198 67.2745C120.217 66.6171 120.94 65.7297 121.367 64.6123H122.526C122 65.9762 121.121 67.0855 119.888 67.94C118.672 68.7781 117.234 69.1972 115.574 69.1972C113.931 69.1972 112.608 68.7206 111.606 67.7675C110.62 66.8143 110.127 65.5161 110.127 63.8728C110.127 63.3633 110.176 62.8374 110.275 62.2951C110.521 60.8983 111.014 59.6822 111.754 58.6469C112.493 57.6116 113.397 56.8228 114.465 56.2805C115.55 55.7217 116.725 55.4424 117.99 55.4424ZM122.008 61.8514C122.123 61.3749 122.181 60.8901 122.181 60.3971C122.181 59.0988 121.762 58.1046 120.923 57.4144C120.102 56.7242 119.058 56.3791 117.793 56.3791C116.856 56.3791 115.952 56.5845 115.081 56.9953C114.21 57.4062 113.454 58.0224 112.814 58.8441C112.173 59.6658 111.729 60.6682 111.482 61.8514H122.008Z" fill="white"/>
<path fill-rule="evenodd" clip-rule="evenodd" d="M58.5846 37.3489C58.081 37.3949 57.8641 37.4658 57.0017 37.8673C56.4731 38.1133 55.4324 39.065 55.4324 39.3023C55.4324 39.3991 55.3745 39.4784 55.3037 39.4784C55.2329 39.4784 55.175 39.589 55.175 39.7241C55.175 39.8593 55.1232 39.9699 55.0599 39.9699C54.9301 39.9699 54.776 40.7656 54.7625 41.506C54.7507 42.1589 54.9236 43.0421 55.0634 43.0421C55.1247 43.0421 55.175 43.1527 55.175 43.2879C55.175 43.4231 55.2329 43.5337 55.3037 43.5337C55.3745 43.5337 55.4324 43.6034 55.4324 43.6885C55.4324 43.9015 56.4494 44.8855 56.6695 44.8855C56.7675 44.8855 56.8477 44.9368 56.8477 44.9995C56.8477 45.0623 57.1724 45.2297 57.5692 45.3715C58.6877 45.7711 61.4053 45.6874 61.9234 45.2374C61.9907 45.1791 62.1251 45.1313 62.2221 45.1313C62.4567 45.1313 62.7662 44.8262 62.7662 44.5948C62.7662 44.3407 61.3403 41.6904 61.2036 41.6904C61.1431 41.6904 61.0936 41.7457 61.0936 41.8132C61.0936 41.8854 60.6479 41.9361 60.0137 41.9361C58.8835 41.9361 58.7776 41.8834 58.7776 41.3214C58.7776 41.0168 59.3614 40.9051 60.3995 41.0113C61.2568 41.099 61.6082 40.9625 61.6082 40.542C61.6082 40.4413 61.6516 40.3407 61.7047 40.3181C61.8578 40.2531 62.7662 38.4923 62.7662 38.2605C62.7662 38.054 61.9789 37.635 61.5907 37.635C61.4871 37.635 61.3473 37.5862 61.2801 37.5265C61.1373 37.3998 59.3323 37.2809 58.5846 37.3489ZM72.6227 37.5837C72.4839 37.9293 72.5347 45.1297 72.6778 45.3851C72.7986 45.6006 72.9608 45.6228 74.4147 45.6228H76.0185V41.506V37.3892H74.3597C72.9657 37.3892 72.6883 37.4203 72.6227 37.5837ZM80.5708 37.6732C80.4208 37.8212 80.1353 38.0528 79.9363 38.188C79.7374 38.3232 79.4549 38.5459 79.3085 38.6829C79.1619 38.8199 78.8385 39.0514 78.5896 39.1974C78.3408 39.3436 77.9978 39.6047 77.8274 39.778C77.6571 39.9511 77.4693 40.0928 77.4103 40.0928C77.2452 40.0928 76.5332 40.7771 76.5332 40.9356C76.5332 41.02 76.764 41.0759 77.1122 41.0759H77.6912V42.2332C77.6912 43.4682 77.9596 44.3512 78.4567 44.7518C78.5899 44.8591 78.805 45.0307 78.9348 45.1331C79.6151 45.6696 81.2649 45.7656 82.2265 45.3246L82.709 45.1032V43.8956C82.709 43.223 82.652 42.6543 82.5804 42.612C82.5096 42.5702 82.4517 42.5882 82.4517 42.6518C82.4517 42.7967 81.865 42.9104 81.5382 42.8288C81.3278 42.7762 81.2937 42.6496 81.2937 41.9218V41.0759H81.847C82.1513 41.0759 82.4697 41.0096 82.5546 40.9284C82.641 40.846 82.709 40.4505 82.709 40.0314C82.709 39.6122 82.641 39.2167 82.5546 39.1343C82.4697 39.0532 82.1513 38.9868 81.847 38.9868H81.2937V38.188C81.2937 37.5064 81.2607 37.3904 81.0686 37.3967C80.9447 37.4009 80.7207 37.5253 80.5708 37.6732ZM99.6926 39.2272V41.0651L100.625 41.1012L101.558 41.1374L101.581 43.165C101.593 44.2802 101.608 45.291 101.613 45.4111C101.622 45.6115 101.774 45.6267 103.456 45.5954L105.289 45.5614L105.325 43.3186L105.36 41.0759H106.322H107.284V39.2326V37.3892H103.488H99.6926V39.2272ZM63.4876 39.1812C63.3302 39.5729 63.4022 44.0163 63.5703 44.2956C63.8226 44.7145 64.4681 45.3007 64.863 45.4692C65.6712 45.8141 66.9435 45.5762 67.5589 44.9651C67.8948 44.6315 67.9127 44.6272 67.9127 44.8806C67.9127 45.0273 67.9727 45.2544 68.0459 45.3851C68.1662 45.5997 68.3282 45.6228 69.714 45.6228C71.0999 45.6228 71.2618 45.5997 71.3821 45.3851C71.4632 45.2405 71.5153 44.01 71.5153 42.2426C71.5153 39.8891 71.4804 39.3046 71.3314 39.1624C71.1925 39.0297 70.7694 38.9868 69.5969 38.9868C67.751 38.9868 67.9242 38.7451 67.8795 41.3831L67.8484 43.2265L67.4116 43.2663C67.1489 43.2903 66.9317 43.2413 66.8667 43.1434C66.8073 43.0539 66.7578 42.1484 66.7567 41.1312C66.7554 39.8588 66.7066 39.2358 66.6004 39.1343C66.4987 39.0372 65.9543 38.9868 65.0058 38.9868C63.8113 38.9868 63.5523 39.02 63.4876 39.1812ZM83.4944 39.1557C83.3206 39.3558 83.3614 43.5761 83.5432 44.1988C83.9751 45.678 86.4187 46.1238 87.6497 44.9481C87.8273 44.7784 88.0042 44.6397 88.0428 44.6397C88.0814 44.6397 88.1129 44.8609 88.1129 45.1313V45.6228H89.582C90.39 45.6228 91.1427 45.5893 91.2546 45.5482C91.4328 45.483 91.4582 45.0874 91.4582 42.3777C91.4582 40.1336 91.4157 39.2412 91.3038 39.1343C91.0908 38.9309 88.2229 38.9309 88.01 39.1343C87.9025 39.2369 87.8556 39.8908 87.8556 41.2848V43.2879H87.4605C86.7605 43.2879 86.7078 43.135 86.6688 40.9957L86.6333 39.0482L85.1405 39.0138C83.9674 38.9867 83.6148 39.017 83.4944 39.1557ZM92.7748 39.0894C92.6486 39.166 92.6195 39.9075 92.6461 42.3749L92.6805 45.5614H94.3531H96.0257L96.1068 43.9024C96.1514 42.9899 96.2305 42.1189 96.2827 41.9669C96.4 41.6242 96.744 41.6094 96.9907 41.9361C97.1393 42.1331 97.3238 42.1819 97.9198 42.1819C98.3297 42.1819 98.6633 42.1267 98.6633 42.059C98.6633 41.9914 98.7289 41.9361 98.8091 41.9361C99.052 41.9361 99.4249 41.4382 99.5112 40.9986C99.6805 40.1368 99.4003 39.5844 98.5686 39.1404C97.963 38.8172 96.9926 39.0632 96.4962 39.666C96.2293 39.9902 96.09 39.9484 96.09 39.5439C96.09 39.0616 95.8563 38.9867 94.3595 38.9886C93.5775 38.9898 92.8645 39.0351 92.7748 39.0894ZM109.664 39.1097C109.523 39.1678 109.262 39.2198 109.085 39.2252C108.908 39.2306 108.503 39.3595 108.184 39.5115L107.605 39.7879L107.568 40.7391C107.547 41.2623 107.576 41.6895 107.632 41.6885C107.688 41.6875 107.966 41.6069 108.249 41.5096C109.017 41.2453 110.279 41.2655 110.545 41.5465C110.662 41.6701 110.758 41.8083 110.758 41.8537C110.758 41.899 110.386 41.9361 109.932 41.9361C108.975 41.9361 108.078 42.25 107.778 42.6897C107.669 42.8497 107.51 43.1844 107.425 43.4335C107.201 44.0847 107.614 44.9872 108.306 45.3584C108.875 45.6637 109.875 45.707 110.365 45.4473C110.632 45.306 110.723 45.3074 110.96 45.4558C111.172 45.5882 111.613 45.6224 112.768 45.5961L114.296 45.5614L114.331 43.354C114.371 40.8606 114.279 40.4536 113.522 39.7916C113.282 39.5815 112.762 39.3143 112.367 39.1981C111.615 38.9771 110.107 38.9278 109.664 39.1097ZM115.544 39.1343C115.43 39.2427 115.39 40.2982 115.39 43.1181C115.39 45.2281 115.425 47.0419 115.468 47.1488C115.533 47.3122 115.811 47.3433 117.205 47.3433H118.864V46.347C118.864 45.4449 118.885 45.3595 119.089 45.4434C119.212 45.4943 119.661 45.5604 120.086 45.5901C121.392 45.6818 122.678 44.9366 123.183 43.7952C123.542 42.9847 123.397 40.8316 122.947 40.2771C122.528 39.7614 122.321 39.5967 121.731 39.3114C120.924 38.9216 120.208 38.8949 119.487 39.2277C118.969 39.4668 118.965 39.4668 118.899 39.2277C118.839 39.0051 118.715 38.9868 117.266 38.9868C116.218 38.9868 115.647 39.0357 115.544 39.1343ZM119.838 41.866C119.939 41.9624 120.021 42.2666 120.021 42.5419V43.0421H119.442H118.864V42.5454C118.864 41.7903 119.381 41.4295 119.838 41.866ZM110.733 43.6259C110.772 44.1467 110.771 44.1481 110.329 44.1481C109.957 44.1481 109.871 44.0957 109.8 43.8262C109.699 43.441 110.042 43.0371 110.436 43.0773C110.641 43.0983 110.701 43.209 110.733 43.6259Z" fill="white"/>
</svg>
