<svg width="37" height="64" viewBox="0 0 37 64" fill="none" xmlns="http://www.w3.org/2000/svg">
<path d="M36 4.1C36 2.1 33.9 0 31.7 0H4.3C2.1 0 0 2.1 0 4.1V59.8C0 61.9 2.1 63.9 4.3 63.9H31.8C33.9 63.9 36.1 61.8 36.1 59.8V4.1H36Z" fill="#5C6D6D"/>
<path d="M35 59C35 61 33 63 31 63H5C3 63 1 61 1 59V5C1 3 3 1 5 1H31C33 1 35 3 35 5V59Z" fill="#F2F2F2"/>
<path d="M29.5 5.5C30.0523 5.5 30.5 5.05228 30.5 4.5C30.5 3.94772 30.0523 3.5 29.5 3.5C28.9477 3.5 28.5 3.94772 28.5 4.5C28.5 5.05228 28.9477 5.5 29.5 5.5Z" fill="#94989B"/>
<path d="M21 4.5C21 4.8 20.9 5 20.7 5H15.3C15.1 5 15 4.8 15 4.5C15 4.3 15.1 4 15.3 4H20.7C20.9 4 21 4.3 21 4.5Z" fill="#94989B"/>
<path d="M3 8H33V56H3V8Z" fill="#3E4347"/>
<path d="M21.7999 60.1999C21.7999 60.5999 21.5 60.9999 21 60.9999H15C14.6 60.9999 14.2 60.6999 14.2 60.1999V58.6999C14.2 58.2999 14.5 57.8999 15 57.8999H21C21.4 57.8999 21.7999 58.1999 21.7999 58.6999V60.1999Z" fill="#94989B"/>
<path d="M10.0001 14.7001C10.0001 15.2001 9.6001 15.5001 9.2001 15.5001H5.9001C5.4001 15.5001 5.1001 15.1001 5.1001 14.7001V11.4001C5.1001 10.9001 5.5001 10.6001 5.9001 10.6001H9.2001C9.7001 10.6001 10.0001 11.0001 10.0001 11.4001V14.7001Z" fill="#42ADE2"/>
<path d="M17.0001 14.7001C17.0001 15.2001 16.6001 15.5001 16.2001 15.5001H12.9001C12.4001 15.5001 12.1001 15.1001 12.1001 14.7001V11.4001C12.1001 10.9001 12.5001 10.6001 12.9001 10.6001H16.2001C16.7001 10.6001 17.0001 11.0001 17.0001 11.4001V14.7001Z" fill="#C7E755"/>
<path d="M24.0001 14.7001C24.0001 15.2001 23.6001 15.5001 23.2001 15.5001H19.9001C19.4001 15.5001 19.1001 15.1001 19.1001 14.7001V11.4001C19.1001 10.9001 19.5001 10.6001 19.9001 10.6001H23.2001C23.7001 10.6001 24.0001 11.0001 24.0001 11.4001V14.7001Z" fill="#F2B200"/>
<path d="M31.0001 14.7001C31.0001 15.2001 30.6001 15.5001 30.2001 15.5001H26.9001C26.4001 15.5001 26.1001 15.1001 26.1001 14.7001V11.4001C26.1001 10.9001 26.5001 10.6001 26.9001 10.6001H30.2001C30.7001 10.6001 31.0001 11.0001 31.0001 11.4001V14.7001Z" fill="#42ADE2"/>
<path d="M10.0001 53.2001C10.0001 53.7001 9.6001 54.0001 9.2001 54.0001H5.9001C5.4001 54.0001 5.1001 53.6001 5.1001 53.2001V49.9001C5.1001 49.4001 5.5001 49.1001 5.9001 49.1001H9.2001C9.7001 49.1001 10.0001 49.5001 10.0001 49.9001V53.2001Z" fill="#C7E755"/>
<path d="M17.0001 53.2001C17.0001 53.7001 16.6001 54.0001 16.2001 54.0001H12.9001C12.4001 54.0001 12.1001 53.6001 12.1001 53.2001V49.9001C12.1001 49.4001 12.5001 49.1001 12.9001 49.1001H16.2001C16.7001 49.1001 17.0001 49.5001 17.0001 49.9001V53.2001Z" fill="#FF435E"/>
<path d="M24.0001 53.2001C24.0001 53.7001 23.6001 54.0001 23.2001 54.0001H19.9001C19.4001 54.0001 19.1001 53.6001 19.1001 53.2001V49.9001C19.1001 49.4001 19.5001 49.1001 19.9001 49.1001H23.2001C23.7001 49.1001 24.0001 49.5001 24.0001 49.9001V53.2001Z" fill="#42ADE2"/>
<path d="M31.0001 53.2001C31.0001 53.7001 30.6001 54.0001 30.2001 54.0001H26.9001C26.4001 54.0001 26.1001 53.6001 26.1001 53.2001V49.9001C26.1001 49.4001 26.5001 49.1001 26.9001 49.1001H30.2001C30.7001 49.1001 31.0001 49.5001 31.0001 49.9001V53.2001Z" fill="#C28FEF"/>
<path d="M10.0001 33.9001C10.0001 34.4001 9.6001 34.7001 9.2001 34.7001H5.9001C5.4001 34.7001 5.1001 34.3001 5.1001 33.9001V30.6C5.1001 30.1 5.5001 29.8 5.9001 29.8H9.2001C9.7001 29.8 10.0001 30.2 10.0001 30.6V33.9001Z" fill="#C7E755"/>
<path d="M17.0001 33.9001C17.0001 34.4001 16.6001 34.7001 16.2001 34.7001H12.9001C12.4001 34.7001 12.1001 34.3001 12.1001 33.9001V30.6C12.1001 30.1 12.5001 29.8 12.9001 29.8H16.2001C16.7001 29.8 17.0001 30.2 17.0001 30.6V33.9001Z" fill="#C28FEF"/>
<path d="M24.0001 33.9001C24.0001 34.4001 23.6001 34.7001 23.2001 34.7001H19.9001C19.4001 34.7001 19.1001 34.3001 19.1001 33.9001V30.6C19.1001 30.1 19.5001 29.8 19.9001 29.8H23.2001C23.7001 29.8 24.0001 30.2 24.0001 30.6V33.9001Z" fill="#42ADE2"/>
<path d="M10.0001 27.4999C10.0001 27.9999 9.6001 28.2999 9.2001 28.2999H5.9001C5.4001 28.2999 5.1001 27.8999 5.1001 27.4999V24.1999C5.1001 23.6999 5.5001 23.3999 5.9001 23.3999H9.2001C9.7001 23.3999 10.0001 23.7999 10.0001 24.1999V27.4999Z" fill="#FF435E"/>
<path d="M17.0001 27.4999C17.0001 27.9999 16.6001 28.2999 16.2001 28.2999H12.9001C12.4001 28.2999 12.1001 27.8999 12.1001 27.4999V24.1999C12.1001 23.6999 12.5001 23.3999 12.9001 23.3999H16.2001C16.7001 23.3999 17.0001 23.7999 17.0001 24.1999V27.4999Z" fill="#F2B200"/>
<path d="M24.0001 27.4999C24.0001 27.9999 23.6001 28.2999 23.2001 28.2999H19.9001C19.4001 28.2999 19.1001 27.8999 19.1001 27.4999V24.1999C19.1001 23.6999 19.5001 23.3999 19.9001 23.3999H23.2001C23.7001 23.3999 24.0001 23.7999 24.0001 24.1999V27.4999Z" fill="#C7E755"/>
<path d="M31.0001 27.4999C31.0001 27.9999 30.6001 28.2999 30.2001 28.2999H26.9001C26.4001 28.2999 26.1001 27.8999 26.1001 27.4999V24.1999C26.1001 23.6999 26.5001 23.3999 26.9001 23.3999H30.2001C30.7001 23.3999 31.0001 23.7999 31.0001 24.1999V27.4999Z" fill="#F2B200"/>
<path d="M10.0001 21.1C10.0001 21.6 9.6001 21.9 9.2001 21.9H5.9001C5.4001 21.9 5.1001 21.5 5.1001 21.1V17.8C5.1001 17.3 5.5001 17 5.9001 17H9.2001C9.7001 17 10.0001 17.4 10.0001 17.8V21.1Z" fill="#C28FEF"/>
<path d="M17.0001 21.1C17.0001 21.6 16.6001 21.9 16.2001 21.9H12.9001C12.4001 21.9 12.1001 21.5 12.1001 21.1V17.8C12.1001 17.3 12.5001 17 12.9001 17H16.2001C16.7001 17 17.0001 17.4 17.0001 17.8V21.1Z" fill="#42ADE2"/>
<path d="M24.0001 21.1C24.0001 21.6 23.6001 21.9 23.2001 21.9H19.9001C19.4001 21.9 19.1001 21.5 19.1001 21.1V17.8C19.1001 17.3 19.5001 17 19.9001 17H23.2001C23.7001 17 24.0001 17.4 24.0001 17.8V21.1Z" fill="#FF435E"/>
<path d="M31.0001 21.1C31.0001 21.6 30.6001 21.9 30.2001 21.9H26.9001C26.4001 21.9 26.1001 21.5 26.1001 21.1V17.8C26.1001 17.3 26.5001 17 26.9001 17H30.2001C30.7001 17 31.0001 17.4 31.0001 17.8V21.1Z" fill="#C28FEF"/>
</svg>
