<svg width="387" height="346" viewBox="0 0 387 346" fill="none" xmlns="http://www.w3.org/2000/svg">
<mask id="mask0_1228_1711" style="mask-type:alpha" maskUnits="userSpaceOnUse" x="-6" y="0" width="393" height="346">
<rect x="-6" width="393" height="346" fill="#2E2C43"/>
</mask>
<g mask="url(#mask0_1228_1711)">
<ellipse cx="279.052" cy="66.2371" rx="69.5489" ry="66.2371" fill="#FFC882"/>
<path d="M238.123 79.0508H322.371V121.175H238.123V79.0508Z" fill="#CFD8DC"/>
<path d="M238.123 121.173H322.371V130.042H238.123V121.173Z" fill="#B0BEC5"/>
<path d="M286.899 90.1356H313.504V130.043H286.899V90.1356Z" fill="#455A64"/>
<path d="M246.992 90.1356H278.031V114.523H246.992V90.1356Z" fill="#E3F2FD"/>
<path d="M249.209 92.3522H275.813V112.306H249.209V92.3522Z" fill="#1E88E5"/>
<path d="M307.96 111.197C307.295 111.197 306.851 111.64 306.851 112.305V116.74C306.851 117.405 307.295 117.848 307.96 117.848C308.625 117.848 309.068 117.405 309.068 116.74V112.305C309.068 111.64 308.625 111.197 307.96 111.197Z" fill="#90A4AE"/>
<path d="M280.249 85.7015C283.923 85.7015 286.901 82.7236 286.901 79.0503C286.901 75.3769 283.923 72.399 280.249 72.399C276.576 72.399 273.598 75.3769 273.598 79.0503C273.598 82.7236 276.576 85.7015 280.249 85.7015Z" fill="#558B2F"/>
<path d="M306.852 85.7015C310.525 85.7015 313.503 82.7236 313.503 79.0503C313.503 75.3769 310.525 72.399 306.852 72.399C303.179 72.399 300.201 75.3769 300.201 79.0503C300.201 82.7236 303.179 85.7015 306.852 85.7015Z" fill="#558B2F"/>
<path d="M253.643 85.7015C257.317 85.7015 260.295 82.7236 260.295 79.0503C260.295 75.3769 257.317 72.399 253.643 72.399C249.97 72.399 246.992 75.3769 246.992 79.0503C246.992 82.7236 249.97 85.7015 253.643 85.7015Z" fill="#558B2F"/>
<path d="M315.721 50.2284H244.774C242.336 50.2284 240.34 52.2238 240.34 54.6625V61.3137H320.155V54.6625C320.155 52.2238 318.16 50.2284 315.721 50.2284ZM273.596 61.3137H286.899V79.0503H273.596V61.3137ZM309.07 61.3137H297.984L300.201 79.0503H313.504L309.07 61.3137ZM251.426 61.3137H262.511L260.294 79.0503H246.992L251.426 61.3137Z" fill="#FB8C00"/>
<path d="M293.551 85.7016C297.224 85.7016 300.202 82.7237 300.202 79.0504C300.202 75.377 297.224 72.3992 293.551 72.3992C289.877 72.3992 286.9 75.377 286.9 79.0504C286.9 82.7237 289.877 85.7016 293.551 85.7016Z" fill="#FFA000"/>
<path d="M326.805 79.0504C326.805 82.8194 323.922 85.7016 320.153 85.7016C316.384 85.7016 313.502 82.8194 313.502 79.0504C313.502 75.2814 316.384 72.3992 320.153 72.3992L326.805 79.0504Z" fill="#FFA000"/>
<path d="M266.945 85.7016C270.618 85.7016 273.596 82.7237 273.596 79.0504C273.596 75.377 270.618 72.3992 266.945 72.3992C263.272 72.3992 260.294 75.377 260.294 79.0504C260.294 82.7237 263.272 85.7016 266.945 85.7016Z" fill="#FFA000"/>
<path d="M233.688 79.0504C233.688 82.8194 236.57 85.7016 240.339 85.7016C244.108 85.7016 246.99 82.8194 246.99 79.0504C246.99 75.2814 244.108 72.3992 240.339 72.3992L233.688 79.0504Z" fill="#FFA000"/>
<path d="M297.983 61.3132H286.897V79.0498H300.2L297.983 61.3132ZM320.153 61.3132H309.068L313.502 79.0498H326.804L320.153 61.3132ZM262.509 61.3132H273.595V79.0498H260.292L262.509 61.3132ZM240.339 61.3132H251.424L246.99 79.0498H233.688L240.339 61.3132Z" fill="#FFC107"/>
<ellipse cx="282.711" cy="132.378" rx="66.0325" ry="2.46223" fill="#D9D9D9"/>
<path d="M264.575 139.545H186.358V185.857H264.575V139.545Z" fill="#2F2E41"/>
<path d="M108.868 147.014H68.5409V132.952C68.5409 127.604 70.6652 122.475 74.4466 118.694C78.228 114.912 83.3567 112.788 88.7044 112.788C94.0521 112.788 99.1808 114.912 102.962 118.694C106.744 122.475 108.868 127.604 108.868 132.952V147.014ZM69.4337 146.121H107.975V132.952C107.975 127.841 105.945 122.939 102.331 119.325C98.7169 115.711 93.8153 113.681 88.7044 113.681C83.5935 113.681 78.6919 115.711 75.078 119.325C71.464 122.939 69.4337 127.841 69.4337 132.952V146.121Z" fill="#3F3D56"/>
<path d="M128.808 145.081V139.585L26.2516 142.333L23.0056 281.537L38.1838 300.287L128.808 145.081Z" fill="#3F3D56"/>
<path d="M146.963 143.144L35.804 145.673L38.1845 300.285L145.458 288.722L146.963 143.144Z" fill="#F9A826"/>
<path d="M158.103 339.343C158.103 339.343 139.668 379.043 156.322 458.953C172.977 538.863 173.114 626.592 173.114 626.592L198.58 627.007L212.885 438.134L220.375 624.34H245.464L267.575 441.078C267.575 441.078 282.125 359.245 249.678 344.594L158.103 339.343Z" fill="#2F2E41"/>
<path d="M246.345 199.238L190.587 194.098C173.102 206.842 163.288 229.733 165.303 253.35C168.034 285.372 167.11 329.441 145.191 348.586C145.191 348.586 204.933 395.737 258.003 351.004C258.003 351.004 239.856 302.389 252.315 282.974C264.774 263.56 269.269 209.015 246.345 199.238Z" fill="#E4E4E4"/>
<path d="M80.4376 120.114C80.2666 121.721 80.4501 123.347 80.9751 124.875C81.5002 126.404 82.3541 127.799 83.4766 128.962C84.599 130.125 85.9628 131.028 87.4719 131.606C88.981 132.185 90.5987 132.426 92.211 132.312L165.83 201.017L179.025 180.918L102.511 119.703C102.14 117.007 100.793 114.541 98.7249 112.772C96.6572 111.003 94.0123 110.054 91.2915 110.105C88.5707 110.155 85.9631 111.202 83.9626 113.047C81.9622 114.892 80.7079 117.406 80.4376 120.114Z" fill="#FFB6B6"/>
<path d="M152.084 190.402L169.549 172.462C170.046 171.951 170.647 171.554 171.311 171.297C171.976 171.039 172.688 170.928 173.399 170.971C174.11 171.014 174.803 171.21 175.432 171.544C176.061 171.879 176.61 172.346 177.042 172.912L192.183 192.757C194.78 195.315 196.257 198.797 196.29 202.442C196.323 206.086 194.91 209.595 192.36 212.199C189.81 214.803 186.331 216.29 182.687 216.333C179.043 216.377 175.53 214.973 172.919 212.431L152.736 197.88C152.158 197.463 151.677 196.927 151.325 196.307C150.974 195.688 150.76 195 150.698 194.29C150.636 193.58 150.728 192.866 150.967 192.195C151.206 191.524 151.587 190.912 152.084 190.402Z" fill="#E4E4E4"/>
<path d="M353.945 287.423C354.026 285.808 353.753 284.196 353.144 282.699C352.535 281.202 351.605 279.856 350.419 278.758C349.234 277.659 347.822 276.833 346.283 276.339C344.744 275.845 343.116 275.694 341.512 275.898L264.189 211.389L252.132 232.191L331.929 289.059C332.449 291.73 333.931 294.118 336.094 295.769C338.257 297.421 340.95 298.222 343.664 298.02C346.378 297.818 348.923 296.628 350.818 294.675C352.713 292.722 353.826 290.141 353.945 287.423Z" fill="#FFB6B6"/>
<path d="M278.506 221.224L262.065 240.106C261.597 240.644 261.019 241.074 260.37 241.367C259.721 241.661 259.016 241.812 258.304 241.808C257.591 241.805 256.888 241.648 256.242 241.349C255.595 241.049 255.021 240.614 254.558 240.073L238.338 221.1C235.603 218.691 233.934 215.295 233.698 211.658C233.463 208.021 234.679 204.438 237.08 201.697C239.482 198.955 242.873 197.277 246.509 197.031C250.146 196.786 253.731 197.992 256.48 200.386L277.439 213.793C278.039 214.177 278.55 214.686 278.935 215.285C279.321 215.884 279.573 216.559 279.674 217.264C279.775 217.969 279.723 218.688 279.522 219.371C279.32 220.055 278.974 220.686 278.506 221.224Z" fill="#E4E4E4"/>
<path d="M361.803 314.703H331.256V304.051C331.256 300 332.865 296.116 335.729 293.251C338.594 290.387 342.479 288.778 346.529 288.778C350.58 288.778 354.465 290.387 357.329 293.251C360.193 296.116 361.803 300 361.803 304.051L361.803 314.703ZM331.932 314.027H361.126V304.051C361.126 300.18 359.588 296.467 356.851 293.73C354.113 290.992 350.401 289.454 346.529 289.454C342.658 289.454 338.945 290.992 336.208 293.73C333.47 296.467 331.932 300.18 331.932 304.051V314.027Z" fill="#3F3D56"/>
<path d="M376.905 313.236V309.073L299.222 311.155L296.763 416.598L308.26 430.8L376.905 313.236Z" fill="#3F3D56"/>
<path d="M390.657 311.769L306.457 313.685L308.26 430.799L389.518 422.041L390.657 311.769Z" fill="#F9A826"/>
<path d="M222.379 184.829C240.568 184.829 255.312 170.084 255.312 151.896C255.312 133.707 240.568 118.962 222.379 118.962C204.19 118.962 189.446 133.707 189.446 151.896C189.446 170.084 204.19 184.829 222.379 184.829Z" fill="#FFB6B6"/>
<path d="M207.214 137.219C218.607 148.384 238.433 149.454 250.961 139.58C254.438 151.573 254.819 164.252 252.067 176.432C249.316 188.612 243.522 199.896 235.227 209.23C242.196 211.748 250.219 210.091 256.448 206.078C262.677 202.064 267.291 195.936 270.772 189.395C279.39 173.201 281.547 153.428 275.45 136.127C269.354 118.826 254.747 104.48 237.001 99.8347C219.255 95.1893 198.908 100.927 187.052 114.925C174.654 129.562 172.646 151.009 178.079 169.405C183.511 187.802 195.428 203.6 208.52 217.619C202.231 201.448 198.061 184.532 196.113 167.291C195.447 161.386 195.058 155.3 196.726 149.597C198.394 143.894 202.5 138.582 208.222 136.979" fill="#2F2E41"/>
</g>
<rect x="89" y="33" width="93" height="48.9474" rx="3.8516" fill="#FB8C00"/>
<path d="M100.655 64.3234C100.951 62.6143 101.575 61.0942 102.528 59.7631C103.498 58.4155 104.689 57.372 106.102 56.6325C107.516 55.8765 109.019 55.4986 110.613 55.4986C112.47 55.4986 113.991 55.9669 115.174 56.9036C116.373 57.8239 117.146 59.1057 117.491 60.7491H116.209C115.93 59.4508 115.281 58.4155 114.262 57.6431C113.259 56.8708 111.986 56.4846 110.441 56.4846C109.077 56.4846 107.787 56.805 106.571 57.4459C105.355 58.0868 104.319 58.9989 103.465 60.1821C102.627 61.3653 102.068 62.7457 101.789 64.3234C101.69 64.915 101.641 65.4901 101.641 66.0489C101.641 67.2978 101.896 68.3824 102.405 69.3027C102.914 70.2065 103.621 70.905 104.525 71.398C105.445 71.891 106.497 72.1375 107.68 72.1375C108.995 72.1375 110.236 71.8417 111.402 71.2501C112.585 70.6585 113.588 69.8204 114.41 68.7357C115.248 67.6347 115.831 66.3447 116.16 64.8657H108.444L108.617 63.9536H117.466L117.318 64.6931C116.99 66.3036 116.349 67.7497 115.396 69.0315C114.459 70.2969 113.3 71.2994 111.92 72.0389C110.54 72.7619 109.069 73.1235 107.508 73.1235C106.111 73.1235 104.878 72.8359 103.81 72.2607C102.758 71.6855 101.937 70.8721 101.345 69.8204C100.77 68.7522 100.482 67.5279 100.482 66.1475C100.482 65.523 100.54 64.915 100.655 64.3234ZM127.428 59.3933C128.562 59.3933 129.523 59.6152 130.312 60.0589C131.117 60.4861 131.717 61.0695 132.111 61.809C132.522 62.5321 132.727 63.3456 132.727 64.2494C132.727 64.6438 132.695 65.0053 132.629 65.334C132.53 65.9256 132.432 66.3693 132.333 66.6651H120.772C120.706 67.191 120.673 67.569 120.673 67.799C120.673 69.2123 121.101 70.2969 121.955 71.0529C122.81 71.8088 123.886 72.1868 125.184 72.1868C126.483 72.1868 127.633 71.8663 128.635 71.2254C129.654 70.5681 130.377 69.6807 130.805 68.5632H131.963C131.437 69.9272 130.558 71.0364 129.326 71.891C128.11 72.7291 126.672 73.1481 125.012 73.1481C123.369 73.1481 122.046 72.6716 121.043 71.7184C120.057 70.7653 119.564 69.467 119.564 67.8237C119.564 67.3142 119.614 66.7884 119.712 66.2461C119.959 64.8492 120.452 63.6331 121.191 62.5978C121.931 61.5625 122.834 60.7737 123.903 60.2314C124.987 59.6727 126.162 59.3933 127.428 59.3933ZM131.446 65.8024C131.561 65.3258 131.618 64.841 131.618 64.348C131.618 63.0498 131.199 62.0555 130.361 61.3653C129.539 60.6751 128.496 60.33 127.23 60.33C126.294 60.33 125.39 60.5354 124.519 60.9463C123.648 61.3571 122.892 61.9734 122.251 62.795C121.61 63.6167 121.166 64.6192 120.92 65.8024H131.446ZM143.081 59.2947C144.444 59.2947 145.537 59.6645 146.359 60.404C147.181 61.127 147.591 62.2034 147.591 63.6331C147.591 64.0768 147.542 64.5699 147.444 65.1122L146.063 72.9509H144.979L146.359 65.1861C146.441 64.6602 146.482 64.2248 146.482 63.8796C146.482 62.6964 146.154 61.8008 145.496 61.1928C144.839 60.5683 143.919 60.2561 142.735 60.2561C141.355 60.2561 140.164 60.6833 139.161 61.5379C138.159 62.3924 137.468 63.6496 137.091 65.3094L135.735 72.9509H134.625L137.017 59.5659H138.126L137.633 62.376C138.192 61.3735 138.947 60.6094 139.901 60.0835C140.87 59.5576 141.93 59.2947 143.081 59.2947ZM153.435 56.5832C153.205 56.5832 153.016 56.5174 152.868 56.386C152.72 56.2381 152.646 56.0491 152.646 55.819C152.646 55.4904 152.761 55.2192 152.991 55.0056C153.221 54.7755 153.484 54.6605 153.78 54.6605C154.01 54.6605 154.199 54.7344 154.347 54.8823C154.511 55.0302 154.593 55.2192 154.593 55.4493C154.593 55.7779 154.47 56.0491 154.224 56.2627C153.993 56.4764 153.731 56.5832 153.435 56.5832ZM153.484 59.5659L151.093 72.9509H149.984L152.375 59.5659H153.484ZM163.368 59.3933C164.502 59.3933 165.463 59.6152 166.252 60.0589C167.057 60.4861 167.657 61.0695 168.051 61.809C168.462 62.5321 168.668 63.3456 168.668 64.2494C168.668 64.6438 168.635 65.0053 168.569 65.334C168.47 65.9256 168.372 66.3693 168.273 66.6651H156.712C156.647 67.191 156.614 67.569 156.614 67.799C156.614 69.2123 157.041 70.2969 157.895 71.0529C158.75 71.8088 159.826 72.1868 161.125 72.1868C162.423 72.1868 163.573 71.8663 164.576 71.2254C165.595 70.5681 166.318 69.6807 166.745 68.5632H167.903C167.378 69.9272 166.498 71.0364 165.266 71.891C164.05 72.7291 162.612 73.1481 160.952 73.1481C159.309 73.1481 157.986 72.6716 156.983 71.7184C155.997 70.7653 155.504 69.467 155.504 67.8237C155.504 67.3142 155.554 66.7884 155.652 66.2461C155.899 64.8492 156.392 63.6331 157.131 62.5978C157.871 61.5625 158.775 60.7737 159.843 60.2314C160.927 59.6727 162.102 59.3933 163.368 59.3933ZM167.386 65.8024C167.501 65.3258 167.558 64.841 167.558 64.348C167.558 63.0498 167.139 62.0555 166.301 61.3653C165.48 60.6751 164.436 60.33 163.171 60.33C162.234 60.33 161.33 60.5354 160.459 60.9463C159.588 61.3571 158.832 61.9734 158.191 62.795C157.55 63.6167 157.107 64.6192 156.86 65.8024H167.386Z" fill="white"/>
<path fill-rule="evenodd" clip-rule="evenodd" d="M105.187 41.3489C104.678 41.3949 104.459 41.4658 103.588 41.8673C103.054 42.1133 102.002 43.065 102.002 43.3023C102.002 43.3991 101.944 43.4784 101.872 43.4784C101.801 43.4784 101.742 43.589 101.742 43.7241C101.742 43.8593 101.69 43.9699 101.626 43.9699C101.495 43.9699 101.339 44.7656 101.326 45.506C101.314 46.1589 101.488 47.0421 101.63 47.0421C101.692 47.0421 101.742 47.1527 101.742 47.2879C101.742 47.4231 101.801 47.5337 101.872 47.5337C101.944 47.5337 102.002 47.6034 102.002 47.6885C102.002 47.9015 103.03 48.8855 103.252 48.8855C103.351 48.8855 103.432 48.9368 103.432 48.9995C103.432 49.0623 103.76 49.2297 104.161 49.3715C105.291 49.7711 108.037 49.6874 108.56 49.2374C108.628 49.1791 108.764 49.1313 108.862 49.1313C109.099 49.1313 109.412 48.8262 109.412 48.5948C109.412 48.3407 107.971 45.6904 107.833 45.6904C107.772 45.6904 107.722 45.7457 107.722 45.8132C107.722 45.8854 107.272 45.9361 106.631 45.9361C105.489 45.9361 105.382 45.8834 105.382 45.3214C105.382 45.0168 105.972 44.9051 107.021 45.0113C107.887 45.099 108.242 44.9625 108.242 44.542C108.242 44.4413 108.286 44.3407 108.339 44.3181C108.494 44.2531 109.412 42.4923 109.412 42.2605C109.412 42.054 108.616 41.635 108.224 41.635C108.119 41.635 107.978 41.5862 107.91 41.5265C107.766 41.3998 105.942 41.2809 105.187 41.3489ZM119.369 41.5837C119.229 41.9293 119.281 49.1297 119.425 49.3851C119.547 49.6006 119.711 49.6228 121.18 49.6228H122.8V45.506V41.3892H121.124C119.716 41.3892 119.436 41.4203 119.369 41.5837ZM127.399 41.6732C127.248 41.8212 126.959 42.0528 126.758 42.188C126.557 42.3232 126.272 42.5459 126.124 42.6829C125.976 42.8199 125.649 43.0514 125.398 43.1974C125.146 43.3436 124.8 43.6047 124.628 43.778C124.456 43.9511 124.266 44.0928 124.206 44.0928C124.04 44.0928 123.32 44.7771 123.32 44.9356C123.32 45.02 123.553 45.0759 123.905 45.0759H124.49V46.2332C124.49 47.4682 124.761 48.3512 125.263 48.7518C125.398 48.8591 125.615 49.0307 125.747 49.1331C126.434 49.6696 128.101 49.7656 129.072 49.3246L129.56 49.1032V47.8956C129.56 47.223 129.502 46.6543 129.43 46.612C129.358 46.5702 129.3 46.5882 129.3 46.6518C129.3 46.7967 128.707 46.9104 128.377 46.8288C128.164 46.7762 128.13 46.6496 128.13 45.9218V45.0759H128.689C128.996 45.0759 129.318 45.0096 129.404 44.9284C129.491 44.846 129.56 44.4505 129.56 44.0314C129.56 43.6122 129.491 43.2167 129.404 43.1343C129.318 43.0532 128.996 42.9868 128.689 42.9868H128.13V42.188C128.13 41.5064 128.096 41.3904 127.902 41.3967C127.777 41.4009 127.551 41.5253 127.399 41.6732ZM146.718 43.2272V45.0651L147.66 45.1012L148.603 45.1374L148.625 47.165C148.638 48.2802 148.652 49.291 148.658 49.4111C148.667 49.6115 148.821 49.6267 150.52 49.5954L152.372 49.5614L152.408 47.3186L152.443 45.0759H153.415H154.387V43.2326V41.3892H150.552H146.718V43.2272ZM110.14 43.1812C109.981 43.5729 110.054 48.0163 110.224 48.2956C110.479 48.7145 111.131 49.3007 111.53 49.4692C112.346 49.8141 113.632 49.5762 114.254 48.9651C114.593 48.6315 114.611 48.6272 114.611 48.8806C114.611 49.0273 114.672 49.2544 114.746 49.3851C114.867 49.5997 115.031 49.6228 116.431 49.6228C117.831 49.6228 117.995 49.5997 118.116 49.3851C118.198 49.2405 118.251 48.01 118.251 46.2426C118.251 43.8891 118.215 43.3046 118.065 43.1624C117.925 43.0297 117.497 42.9868 116.313 42.9868C114.448 42.9868 114.623 42.7451 114.578 45.3831L114.546 47.2265L114.105 47.2663C113.839 47.2903 113.62 47.2413 113.554 47.1434C113.494 47.0539 113.444 46.1484 113.443 45.1312C113.442 43.8588 113.393 43.2358 113.285 43.1343C113.183 43.0372 112.633 42.9868 111.674 42.9868C110.467 42.9868 110.206 43.02 110.14 43.1812ZM130.353 43.1557C130.177 43.3558 130.219 47.5761 130.402 48.1988C130.839 49.678 133.307 50.1238 134.551 48.9481C134.73 48.7784 134.909 48.6397 134.948 48.6397C134.987 48.6397 135.019 48.8609 135.019 49.1313V49.6228H136.503C137.319 49.6228 138.08 49.5893 138.193 49.5482C138.373 49.483 138.399 49.0874 138.399 46.3777C138.399 44.1336 138.356 43.2412 138.243 43.1343C138.028 42.9309 135.13 42.9309 134.915 43.1343C134.806 43.2369 134.759 43.8908 134.759 45.2848V47.2879H134.36C133.653 47.2879 133.599 47.135 133.56 44.9957L133.524 43.0482L132.016 43.0138C130.831 42.9867 130.475 43.017 130.353 43.1557ZM139.729 43.0894C139.601 43.166 139.572 43.9075 139.599 46.3749L139.633 49.5614H141.323H143.013L143.095 47.9024C143.14 46.9899 143.22 46.1189 143.273 45.9669C143.391 45.6242 143.739 45.6094 143.988 45.9361C144.138 46.1331 144.325 46.1819 144.927 46.1819C145.341 46.1819 145.678 46.1267 145.678 46.059C145.678 45.9914 145.744 45.9361 145.825 45.9361C146.071 45.9361 146.447 45.4382 146.534 44.9986C146.706 44.1368 146.422 43.5844 145.582 43.1404C144.97 42.8172 143.99 43.0632 143.489 43.666C143.219 43.9902 143.078 43.9484 143.078 43.5439C143.078 43.0616 142.842 42.9867 141.33 42.9886C140.54 42.9898 139.819 43.0351 139.729 43.0894ZM156.792 43.1097C156.649 43.1678 156.386 43.2198 156.207 43.2252C156.028 43.2306 155.619 43.3595 155.297 43.5115L154.712 43.7879L154.674 44.7391C154.653 45.2623 154.682 45.6895 154.739 45.6885C154.796 45.6875 155.076 45.6069 155.362 45.5096C156.138 45.2453 157.413 45.2655 157.681 45.5465C157.8 45.6701 157.897 45.8083 157.897 45.8537C157.897 45.899 157.521 45.9361 157.062 45.9361C156.095 45.9361 155.189 46.25 154.887 46.6897C154.777 46.8497 154.616 47.1844 154.529 47.4335C154.304 48.0847 154.721 48.9872 155.42 49.3584C155.994 49.6637 157.004 49.707 157.5 49.4473C157.77 49.306 157.862 49.3074 158.101 49.4558C158.315 49.5882 158.761 49.6224 159.928 49.5961L161.471 49.5614L161.507 47.354C161.547 44.8606 161.454 44.4536 160.689 43.7916C160.446 43.5815 159.921 43.3143 159.522 43.1981C158.763 42.9771 157.24 42.9278 156.792 43.1097ZM162.732 43.1343C162.617 43.2427 162.576 44.2982 162.576 47.1181C162.576 49.2281 162.612 51.0419 162.655 51.1488C162.721 51.3122 163.002 51.3433 164.41 51.3433H166.086V50.347C166.086 49.4449 166.107 49.3595 166.313 49.4434C166.438 49.4943 166.892 49.5604 167.321 49.5901C168.641 49.6818 169.94 48.9366 170.45 47.7952C170.812 46.9847 170.666 44.8316 170.211 44.2771C169.788 43.7614 169.579 43.5967 168.982 43.3114C168.168 42.9216 167.444 42.8949 166.716 43.2277C166.192 43.4668 166.188 43.4668 166.122 43.2277C166.061 43.0051 165.935 42.9868 164.472 42.9868C163.413 42.9868 162.836 43.0357 162.732 43.1343ZM167.07 45.866C167.172 45.9624 167.256 46.2666 167.256 46.5419V47.0421H166.671H166.086V46.5454C166.086 45.7903 166.608 45.4295 167.07 45.866ZM157.872 47.6259C157.911 48.1467 157.91 48.1481 157.463 48.1481C157.088 48.1481 157.001 48.0957 156.929 47.8262C156.827 47.441 157.174 47.0371 157.572 47.0773C157.779 47.0983 157.84 47.209 157.872 47.6259Z" fill="white"/>
</svg>
