<svg width="392" height="354" viewBox="0 0 392 354" fill="none" xmlns="http://www.w3.org/2000/svg">
<mask id="mask0_1455_2934" style="mask-type:alpha" maskUnits="userSpaceOnUse" x="0" y="0" width="388" height="346">
<rect width="388" height="346" fill="#2E2C43"/>
</mask>
<g mask="url(#mask0_1455_2934)">
<ellipse cx="280.052" cy="66.2371" rx="69.5489" ry="66.2371" fill="#FFC882"/>
<path d="M239.123 79.0508H323.371V121.175H239.123V79.0508Z" fill="#CFD8DC"/>
<path d="M239.123 121.173H323.371V130.042H239.123V121.173Z" fill="#B0BEC5"/>
<path d="M287.899 90.1356H314.504V130.043H287.899V90.1356Z" fill="#455A64"/>
<path d="M247.992 90.1356H279.031V114.523H247.992V90.1356Z" fill="#E3F2FD"/>
<path d="M250.209 92.3521H276.813V112.306H250.209V92.3521Z" fill="#1E88E5"/>
<path d="M308.96 111.197C308.295 111.197 307.851 111.64 307.851 112.305V116.74C307.851 117.405 308.295 117.848 308.96 117.848C309.625 117.848 310.068 117.405 310.068 116.74V112.305C310.068 111.64 309.625 111.197 308.96 111.197Z" fill="#90A4AE"/>
<path d="M281.249 85.7015C284.923 85.7015 287.901 82.7237 287.901 79.0503C287.901 75.377 284.923 72.3991 281.249 72.3991C277.576 72.3991 274.598 75.377 274.598 79.0503C274.598 82.7237 277.576 85.7015 281.249 85.7015Z" fill="#558B2F"/>
<path d="M307.852 85.7015C311.525 85.7015 314.503 82.7237 314.503 79.0503C314.503 75.377 311.525 72.3991 307.852 72.3991C304.179 72.3991 301.201 75.377 301.201 79.0503C301.201 82.7237 304.179 85.7015 307.852 85.7015Z" fill="#558B2F"/>
<path d="M254.643 85.7015C258.317 85.7015 261.295 82.7236 261.295 79.0503C261.295 75.3769 258.317 72.399 254.643 72.399C250.97 72.399 247.992 75.3769 247.992 79.0503C247.992 82.7236 250.97 85.7015 254.643 85.7015Z" fill="#558B2F"/>
<path d="M316.721 50.2284H245.774C243.336 50.2284 241.34 52.2238 241.34 54.6625V61.3137H321.155V54.6625C321.155 52.2238 319.16 50.2284 316.721 50.2284ZM274.596 61.3137H287.899V79.0503H274.596V61.3137ZM310.07 61.3137H298.984L301.201 79.0503H314.504L310.07 61.3137ZM252.426 61.3137H263.511L261.294 79.0503H247.992L252.426 61.3137Z" fill="#FB8C00"/>
<path d="M294.551 85.7015C298.224 85.7015 301.202 82.7237 301.202 79.0503C301.202 75.377 298.224 72.3991 294.551 72.3991C290.877 72.3991 287.9 75.377 287.9 79.0503C287.9 82.7237 290.877 85.7015 294.551 85.7015Z" fill="#FFA000"/>
<path d="M327.805 79.0503C327.805 82.8193 324.922 85.7015 321.153 85.7015C317.384 85.7015 314.502 82.8193 314.502 79.0503C314.502 75.2813 317.384 72.3991 321.153 72.3991L327.805 79.0503Z" fill="#FFA000"/>
<path d="M267.945 85.7015C271.618 85.7015 274.596 82.7237 274.596 79.0503C274.596 75.377 271.618 72.3991 267.945 72.3991C264.272 72.3991 261.294 75.377 261.294 79.0503C261.294 82.7237 264.272 85.7015 267.945 85.7015Z" fill="#FFA000"/>
<path d="M234.688 79.0503C234.688 82.8193 237.57 85.7015 241.339 85.7015C245.108 85.7015 247.99 82.8193 247.99 79.0503C247.99 75.2813 245.108 72.3991 241.339 72.3991L234.688 79.0503Z" fill="#FFA000"/>
<path d="M298.983 61.3132H287.897V79.0497H301.2L298.983 61.3132ZM321.153 61.3132H310.068L314.502 79.0497H327.804L321.153 61.3132ZM263.509 61.3132H274.595V79.0497H261.292L263.509 61.3132ZM241.339 61.3132H252.424L247.99 79.0497H234.688L241.339 61.3132Z" fill="#FFC107"/>
<ellipse cx="283.711" cy="132.378" rx="66.0325" ry="2.46223" fill="#D9D9D9"/>
<path d="M265.575 139.545H187.358V185.857H265.575V139.545Z" fill="#2F2E41"/>
<path d="M109.868 147.014H69.5409V132.952C69.5409 127.604 71.6652 122.475 75.4466 118.694C79.228 114.913 84.3567 112.788 89.7044 112.788C95.0521 112.788 100.181 114.913 103.962 118.694C107.744 122.475 109.868 127.604 109.868 132.952V147.014ZM70.4337 146.121H108.975V132.952C108.975 127.841 106.945 122.939 103.331 119.325C99.7169 115.711 94.8153 113.681 89.7044 113.681C84.5935 113.681 79.6919 115.711 76.078 119.325C72.464 122.939 70.4337 127.841 70.4337 132.952V146.121Z" fill="#3F3D56"/>
<path d="M129.808 145.081V139.585L27.2516 142.333L24.0056 281.538L39.1838 300.287L129.808 145.081Z" fill="#3F3D56"/>
<path d="M147.963 143.144L36.804 145.673L39.1845 300.285L146.458 288.722L147.963 143.144Z" fill="#F9A826"/>
<path d="M159.103 339.343C159.103 339.343 140.668 379.043 157.322 458.953C173.977 538.863 174.114 626.592 174.114 626.592L199.58 627.007L213.885 438.135L221.375 624.34H246.464L268.575 441.078C268.575 441.078 283.125 359.246 250.678 344.594L159.103 339.343Z" fill="#2F2E41"/>
<path d="M247.345 199.238L191.587 194.098C174.102 206.843 164.288 229.733 166.303 253.351C169.034 285.373 168.11 329.441 146.191 348.586C146.191 348.586 205.933 395.738 259.003 351.004C259.003 351.004 240.856 302.389 253.315 282.975C265.774 263.56 270.269 209.015 247.345 199.238Z" fill="#E4E4E4"/>
<path d="M81.4376 120.114C81.2666 121.722 81.4501 123.347 81.9751 124.875C82.5002 126.404 83.3541 127.799 84.4766 128.962C85.599 130.125 86.9628 131.028 88.4719 131.606C89.981 132.185 91.5987 132.426 93.211 132.312L166.83 201.017L180.025 180.918L103.511 119.703C103.14 117.007 101.793 114.541 99.7249 112.772C97.6572 111.003 95.0123 110.054 92.2915 110.105C89.5707 110.155 86.9631 111.202 84.9626 113.047C82.9622 114.892 81.7079 117.406 81.4376 120.114Z" fill="#FFB6B6"/>
<path d="M153.084 190.402L170.549 172.462C171.046 171.951 171.647 171.554 172.311 171.297C172.976 171.039 173.688 170.929 174.399 170.971C175.11 171.014 175.803 171.21 176.432 171.545C177.061 171.88 177.61 172.346 178.042 172.912L193.183 192.757C195.78 195.315 197.257 198.797 197.29 202.442C197.323 206.086 195.91 209.595 193.36 212.199C190.81 214.803 187.331 216.29 183.687 216.333C180.043 216.377 176.53 214.973 173.919 212.431L153.736 197.88C153.158 197.463 152.677 196.927 152.325 196.307C151.974 195.688 151.76 195 151.698 194.29C151.636 193.581 151.728 192.866 151.967 192.195C152.206 191.524 152.587 190.912 153.084 190.402Z" fill="#E4E4E4"/>
<path d="M354.945 287.423C355.026 285.808 354.753 284.196 354.144 282.699C353.535 281.202 352.605 279.856 351.419 278.758C350.234 277.659 348.822 276.833 347.283 276.339C345.744 275.845 344.116 275.694 342.512 275.898L265.189 211.389L253.132 232.191L332.929 289.059C333.449 291.73 334.931 294.118 337.094 295.769C339.257 297.421 341.95 298.222 344.664 298.02C347.378 297.818 349.923 296.628 351.818 294.675C353.713 292.722 354.826 290.141 354.945 287.423Z" fill="#FFB6B6"/>
<path d="M279.506 221.224L263.065 240.106C262.597 240.644 262.019 241.074 261.37 241.368C260.721 241.661 260.016 241.812 259.304 241.808C258.591 241.805 257.888 241.648 257.242 241.349C256.595 241.049 256.021 240.614 255.558 240.073L239.338 221.1C236.603 218.691 234.934 215.295 234.698 211.658C234.463 208.021 235.679 204.438 238.08 201.697C240.482 198.955 243.873 197.277 247.509 197.031C251.146 196.786 254.731 197.992 257.48 200.386L278.439 213.793C279.039 214.177 279.55 214.686 279.935 215.285C280.321 215.884 280.573 216.559 280.674 217.264C280.775 217.969 280.723 218.688 280.522 219.371C280.32 220.055 279.974 220.686 279.506 221.224Z" fill="#E4E4E4"/>
<path d="M362.803 314.703H332.256V304.051C332.256 300 333.865 296.116 336.729 293.251C339.594 290.387 343.479 288.778 347.529 288.778C351.58 288.778 355.465 290.387 358.329 293.251C361.193 296.116 362.803 300 362.803 304.051L362.803 314.703ZM332.932 314.027H362.126V304.051C362.126 300.18 360.588 296.467 357.851 293.73C355.113 290.992 351.401 289.454 347.529 289.454C343.658 289.454 339.945 290.992 337.208 293.73C334.47 296.467 332.932 300.18 332.932 304.051V314.027Z" fill="#3F3D56"/>
<path d="M377.905 313.236V309.073L300.222 311.155L297.763 416.598L309.26 430.8L377.905 313.236Z" fill="#3F3D56"/>
<path d="M391.657 311.769L307.457 313.685L309.26 430.799L390.518 422.041L391.657 311.769Z" fill="#F9A826"/>
<path d="M223.379 184.829C241.568 184.829 256.312 170.084 256.312 151.896C256.312 133.707 241.568 118.962 223.379 118.962C205.19 118.962 190.446 133.707 190.446 151.896C190.446 170.084 205.19 184.829 223.379 184.829Z" fill="#FFB6B6"/>
<path d="M208.214 137.219C219.607 148.384 239.433 149.454 251.961 139.58C255.438 151.573 255.819 164.252 253.067 176.432C250.316 188.612 244.522 199.896 236.227 209.23C243.196 211.748 251.219 210.091 257.448 206.078C263.677 202.064 268.291 195.936 271.772 189.395C280.39 173.201 282.547 153.428 276.45 136.127C270.354 118.826 255.747 104.48 238.001 99.8347C220.255 95.1893 199.908 100.928 188.052 114.925C175.654 129.562 173.646 151.009 179.079 169.405C184.511 187.802 196.428 203.6 209.52 217.619C203.231 201.448 199.061 184.532 197.113 167.291C196.447 161.387 196.058 155.3 197.726 149.597C199.394 143.894 203.5 138.582 209.222 136.979" fill="#2F2E41"/>
</g>
</svg>
