<svg width="222" height="377" viewBox="0 0 222 377" fill="none" xmlns="http://www.w3.org/2000/svg">
<path d="M106.936 350.712C107.48 350.28 107.728 350.08 107.68 350.112C109.248 348.816 110.48 347.752 111.376 346.92C112.288 346.088 113.056 345.216 113.68 344.304C114.304 343.392 114.616 342.504 114.616 341.64C114.616 340.984 114.464 340.472 114.16 340.104C113.856 339.736 113.4 339.552 112.792 339.552C112.184 339.552 111.704 339.784 111.352 340.248C111.016 340.696 110.848 341.336 110.848 342.168H106.888C106.92 340.808 107.208 339.672 107.752 338.76C108.312 337.848 109.04 337.176 109.936 336.744C110.848 336.312 111.856 336.096 112.96 336.096C114.864 336.096 116.296 336.584 117.256 337.56C118.232 338.536 118.72 339.808 118.72 341.376C118.72 343.088 118.136 344.68 116.968 346.152C115.8 347.608 114.312 349.032 112.504 350.424H118.984V353.76H106.936V350.712ZM120.791 345C120.791 342.248 121.319 340.08 122.375 338.496C123.447 336.912 125.167 336.12 127.535 336.12C129.903 336.12 131.615 336.912 132.671 338.496C133.743 340.08 134.279 342.248 134.279 345C134.279 347.784 133.743 349.968 132.671 351.552C131.615 353.136 129.903 353.928 127.535 353.928C125.167 353.928 123.447 353.136 122.375 351.552C121.319 349.968 120.791 347.784 120.791 345ZM130.247 345C130.247 343.384 130.071 342.144 129.719 341.28C129.367 340.4 128.639 339.96 127.535 339.96C126.431 339.96 125.703 340.4 125.351 341.28C124.999 342.144 124.823 343.384 124.823 345C124.823 346.088 124.887 346.992 125.015 347.712C125.143 348.416 125.399 348.992 125.783 349.44C126.183 349.872 126.767 350.088 127.535 350.088C128.303 350.088 128.879 349.872 129.263 349.44C129.663 348.992 129.927 348.416 130.055 347.712C130.183 346.992 130.247 346.088 130.247 345Z" fill="#558B2F"/>
<path d="M100.176 284.88V281.568L107.76 270.72H112.344V281.328H114.312V284.88H112.344V288H108.24V284.88H100.176ZM108.528 275.232L104.496 281.328H108.528V275.232ZM116.322 279C116.322 276.248 116.85 274.08 117.906 272.496C118.978 270.912 120.698 270.12 123.066 270.12C125.434 270.12 127.146 270.912 128.202 272.496C129.274 274.08 129.81 276.248 129.81 279C129.81 281.784 129.274 283.968 128.202 285.552C127.146 287.136 125.434 287.928 123.066 287.928C120.698 287.928 118.978 287.136 117.906 285.552C116.85 283.968 116.322 281.784 116.322 279ZM125.778 279C125.778 277.384 125.602 276.144 125.25 275.28C124.898 274.4 124.17 273.96 123.066 273.96C121.962 273.96 121.234 274.4 120.882 275.28C120.53 276.144 120.354 277.384 120.354 279C120.354 280.088 120.418 280.992 120.546 281.712C120.674 282.416 120.93 282.992 121.314 283.44C121.714 283.872 122.298 284.088 123.066 284.088C123.834 284.088 124.41 283.872 124.794 283.44C125.194 282.992 125.458 282.416 125.586 281.712C125.714 280.992 125.778 280.088 125.778 279Z" fill="#558B2F"/>
<path d="M58.7591 256L56.4231 251.76H55.7671V256H53.0311V244.768H57.6231C58.5084 244.768 59.2604 244.923 59.8791 245.232C60.5084 245.541 60.9777 245.968 61.2871 246.512C61.5964 247.045 61.7511 247.643 61.7511 248.304C61.7511 249.051 61.5377 249.717 61.1111 250.304C60.6951 250.891 60.0764 251.307 59.2551 251.552L61.8471 256H58.7591ZM55.7671 249.824H57.4631C57.9644 249.824 58.3377 249.701 58.5831 249.456C58.8391 249.211 58.9671 248.864 58.9671 248.416C58.9671 247.989 58.8391 247.653 58.5831 247.408C58.3377 247.163 57.9644 247.04 57.4631 247.04H55.7671V249.824ZM71.8846 251.392C71.8846 251.648 71.8686 251.915 71.8366 252.192H65.6446C65.6872 252.747 65.8632 253.173 66.1726 253.472C66.4926 253.76 66.8819 253.904 67.3406 253.904C68.0232 253.904 68.4979 253.616 68.7646 253.04H71.6766C71.5272 253.627 71.2552 254.155 70.8606 254.624C70.4766 255.093 69.9912 255.461 69.4046 255.728C68.8179 255.995 68.1619 256.128 67.4366 256.128C66.5619 256.128 65.7832 255.941 65.1006 255.568C64.4179 255.195 63.8846 254.661 63.5006 253.968C63.1166 253.275 62.9246 252.464 62.9246 251.536C62.9246 250.608 63.1112 249.797 63.4846 249.104C63.8686 248.411 64.4019 247.877 65.0846 247.504C65.7672 247.131 66.5512 246.944 67.4366 246.944C68.3006 246.944 69.0686 247.125 69.7406 247.488C70.4126 247.851 70.9352 248.368 71.3086 249.04C71.6926 249.712 71.8846 250.496 71.8846 251.392ZM69.0846 250.672C69.0846 250.203 68.9246 249.829 68.6046 249.552C68.2846 249.275 67.8846 249.136 67.4046 249.136C66.9459 249.136 66.5566 249.269 66.2366 249.536C65.9272 249.803 65.7352 250.181 65.6606 250.672H69.0846ZM72.7839 251.552C72.7839 250.667 72.9653 249.877 73.3279 249.184C73.7013 248.491 74.1973 247.952 74.8159 247.568C75.4453 247.173 76.1279 246.976 76.8639 246.976C77.4293 246.976 77.9359 247.077 78.3839 247.28C78.8319 247.472 79.1946 247.744 79.4719 248.096V247.072H82.2079V260.256H79.4719V254.88C79.1626 255.253 78.7839 255.552 78.3359 255.776C77.8986 256 77.3973 256.112 76.8319 256.112C76.1066 256.112 75.4346 255.92 74.8159 255.536C74.1973 255.152 73.7013 254.613 73.3279 253.92C72.9653 253.227 72.7839 252.437 72.7839 251.552ZM79.4719 251.536C79.4719 251.056 79.3759 250.656 79.1839 250.336C79.0026 250.005 78.7626 249.76 78.4639 249.6C78.1653 249.429 77.8506 249.344 77.5199 249.344C77.1999 249.344 76.8906 249.429 76.5919 249.6C76.2933 249.76 76.0479 250.005 75.8559 250.336C75.6639 250.667 75.5679 251.072 75.5679 251.552C75.5679 252.032 75.6639 252.437 75.8559 252.768C76.0479 253.088 76.2933 253.333 76.5919 253.504C76.8906 253.664 77.1999 253.744 77.5199 253.744C77.8399 253.744 78.1493 253.664 78.4479 253.504C78.7573 253.333 79.0026 253.083 79.1839 252.752C79.3759 252.421 79.4719 252.016 79.4719 251.536ZM93.0033 247.072V256H90.2673V254.784C89.99 255.179 89.6113 255.499 89.1313 255.744C88.662 255.979 88.1393 256.096 87.5633 256.096C86.8806 256.096 86.278 255.947 85.7553 255.648C85.2326 255.339 84.8273 254.896 84.5393 254.32C84.2513 253.744 84.1073 253.067 84.1073 252.288V247.072H86.8273V251.92C86.8273 252.517 86.982 252.981 87.2913 253.312C87.6006 253.643 88.0166 253.808 88.5393 253.808C89.0726 253.808 89.494 253.643 89.8033 253.312C90.1126 252.981 90.2673 252.517 90.2673 251.92V247.072H93.0033ZM103.385 251.392C103.385 251.648 103.369 251.915 103.337 252.192H97.1446C97.1872 252.747 97.3632 253.173 97.6726 253.472C97.9926 253.76 98.3819 253.904 98.8406 253.904C99.5232 253.904 99.9979 253.616 100.265 253.04H103.177C103.027 253.627 102.755 254.155 102.361 254.624C101.977 255.093 101.491 255.461 100.905 255.728C100.318 255.995 99.6619 256.128 98.9366 256.128C98.0619 256.128 97.2832 255.941 96.6006 255.568C95.9179 255.195 95.3846 254.661 95.0006 253.968C94.6166 253.275 94.4246 252.464 94.4246 251.536C94.4246 250.608 94.6112 249.797 94.9846 249.104C95.3686 248.411 95.9019 247.877 96.5846 247.504C97.2672 247.131 98.0512 246.944 98.9366 246.944C99.8006 246.944 100.569 247.125 101.241 247.488C101.913 247.851 102.435 248.368 102.809 249.04C103.193 249.712 103.385 250.496 103.385 251.392ZM100.585 250.672C100.585 250.203 100.425 249.829 100.105 249.552C99.7846 249.275 99.3846 249.136 98.9046 249.136C98.4459 249.136 98.0566 249.269 97.7366 249.536C97.4272 249.803 97.2352 250.181 97.1606 250.672H100.585ZM108.46 256.128C107.681 256.128 106.988 255.995 106.38 255.728C105.772 255.461 105.292 255.099 104.94 254.64C104.588 254.171 104.391 253.648 104.348 253.072H107.052C107.084 253.381 107.228 253.632 107.484 253.824C107.74 254.016 108.055 254.112 108.428 254.112C108.769 254.112 109.031 254.048 109.212 253.92C109.404 253.781 109.5 253.605 109.5 253.392C109.5 253.136 109.367 252.949 109.1 252.832C108.833 252.704 108.401 252.565 107.804 252.416C107.164 252.267 106.631 252.112 106.204 251.952C105.777 251.781 105.409 251.52 105.1 251.168C104.791 250.805 104.636 250.32 104.636 249.712C104.636 249.2 104.775 248.736 105.052 248.32C105.34 247.893 105.756 247.557 106.3 247.312C106.855 247.067 107.511 246.944 108.268 246.944C109.388 246.944 110.268 247.221 110.908 247.776C111.559 248.331 111.932 249.067 112.028 249.984H109.5C109.457 249.675 109.319 249.429 109.084 249.248C108.86 249.067 108.561 248.976 108.188 248.976C107.868 248.976 107.623 249.04 107.452 249.168C107.281 249.285 107.196 249.451 107.196 249.664C107.196 249.92 107.329 250.112 107.596 250.24C107.873 250.368 108.3 250.496 108.876 250.624C109.537 250.795 110.076 250.965 110.492 251.136C110.908 251.296 111.271 251.563 111.58 251.936C111.9 252.299 112.065 252.789 112.076 253.408C112.076 253.931 111.927 254.4 111.628 254.816C111.34 255.221 110.919 255.541 110.364 255.776C109.82 256.011 109.185 256.128 108.46 256.128ZM118.726 253.68V256H117.334C116.342 256 115.568 255.76 115.014 255.28C114.459 254.789 114.182 253.995 114.182 252.896V249.344H113.094V247.072H114.182V244.896H116.918V247.072H118.71V249.344H116.918V252.928C116.918 253.195 116.982 253.387 117.11 253.504C117.238 253.621 117.451 253.68 117.75 253.68H118.726ZM123.176 250.368C123.176 249.259 123.416 248.272 123.896 247.408C124.376 246.533 125.043 245.856 125.896 245.376C126.76 244.885 127.736 244.64 128.824 244.64C130.158 244.64 131.299 244.992 132.248 245.696C133.198 246.4 133.832 247.36 134.152 248.576H131.144C130.92 248.107 130.6 247.749 130.184 247.504C129.779 247.259 129.315 247.136 128.792 247.136C127.95 247.136 127.267 247.429 126.744 248.016C126.222 248.603 125.96 249.387 125.96 250.368C125.96 251.349 126.222 252.133 126.744 252.72C127.267 253.307 127.95 253.6 128.792 253.6C129.315 253.6 129.779 253.477 130.184 253.232C130.6 252.987 130.92 252.629 131.144 252.16H134.152C133.832 253.376 133.198 254.336 132.248 255.04C131.299 255.733 130.158 256.08 128.824 256.08C127.736 256.08 126.76 255.84 125.896 255.36C125.043 254.869 124.376 254.192 123.896 253.328C123.416 252.464 123.176 251.477 123.176 250.368ZM141.316 246.976C142.34 246.976 143.161 247.317 143.78 248C144.399 248.672 144.708 249.6 144.708 250.784V256H141.988V251.152C141.988 250.555 141.833 250.091 141.524 249.76C141.215 249.429 140.799 249.264 140.276 249.264C139.753 249.264 139.337 249.429 139.028 249.76C138.719 250.091 138.564 250.555 138.564 251.152V256H135.828V244.16H138.564V248.272C138.841 247.877 139.22 247.563 139.7 247.328C140.18 247.093 140.719 246.976 141.316 246.976ZM146.065 251.52C146.065 250.603 146.236 249.797 146.577 249.104C146.929 248.411 147.404 247.877 148.001 247.504C148.599 247.131 149.265 246.944 150.001 246.944C150.631 246.944 151.18 247.072 151.649 247.328C152.129 247.584 152.497 247.92 152.753 248.336V247.072H155.489V256H152.753V254.736C152.487 255.152 152.113 255.488 151.633 255.744C151.164 256 150.615 256.128 149.985 256.128C149.26 256.128 148.599 255.941 148.001 255.568C147.404 255.184 146.929 254.645 146.577 253.952C146.236 253.248 146.065 252.437 146.065 251.52ZM152.753 251.536C152.753 250.853 152.561 250.315 152.177 249.92C151.804 249.525 151.345 249.328 150.801 249.328C150.257 249.328 149.793 249.525 149.409 249.92C149.036 250.304 148.849 250.837 148.849 251.52C148.849 252.203 149.036 252.747 149.409 253.152C149.793 253.547 150.257 253.744 150.801 253.744C151.345 253.744 151.804 253.547 152.177 253.152C152.561 252.757 152.753 252.219 152.753 251.536ZM160.205 248.56C160.525 248.069 160.925 247.685 161.405 247.408C161.885 247.12 162.418 246.976 163.005 246.976V249.872H162.253C161.57 249.872 161.058 250.021 160.717 250.32C160.375 250.608 160.205 251.12 160.205 251.856V256H157.469V247.072H160.205V248.56ZM167.704 246.944C168.334 246.944 168.883 247.072 169.352 247.328C169.832 247.584 170.2 247.92 170.456 248.336V247.072H173.192V255.984C173.192 256.805 173.027 257.547 172.696 258.208C172.376 258.88 171.88 259.413 171.208 259.808C170.547 260.203 169.72 260.4 168.728 260.4C167.406 260.4 166.334 260.085 165.512 259.456C164.691 258.837 164.222 257.995 164.104 256.928H166.808C166.894 257.269 167.096 257.536 167.416 257.728C167.736 257.931 168.131 258.032 168.6 258.032C169.166 258.032 169.614 257.867 169.944 257.536C170.286 257.216 170.456 256.699 170.456 255.984V254.72C170.19 255.136 169.822 255.477 169.352 255.744C168.883 256 168.334 256.128 167.704 256.128C166.968 256.128 166.302 255.941 165.704 255.568C165.107 255.184 164.632 254.645 164.28 253.952C163.939 253.248 163.768 252.437 163.768 251.52C163.768 250.603 163.939 249.797 164.28 249.104C164.632 248.411 165.107 247.877 165.704 247.504C166.302 247.131 166.968 246.944 167.704 246.944ZM170.456 251.536C170.456 250.853 170.264 250.315 169.88 249.92C169.507 249.525 169.048 249.328 168.504 249.328C167.96 249.328 167.496 249.525 167.112 249.92C166.739 250.304 166.552 250.837 166.552 251.52C166.552 252.203 166.739 252.747 167.112 253.152C167.496 253.547 167.96 253.744 168.504 253.744C169.048 253.744 169.507 253.547 169.88 253.152C170.264 252.757 170.456 252.219 170.456 251.536ZM183.588 251.392C183.588 251.648 183.572 251.915 183.54 252.192H177.348C177.39 252.747 177.566 253.173 177.876 253.472C178.196 253.76 178.585 253.904 179.044 253.904C179.726 253.904 180.201 253.616 180.468 253.04H183.38C183.23 253.627 182.958 254.155 182.564 254.624C182.18 255.093 181.694 255.461 181.108 255.728C180.521 255.995 179.865 256.128 179.14 256.128C178.265 256.128 177.486 255.941 176.804 255.568C176.121 255.195 175.588 254.661 175.204 253.968C174.82 253.275 174.628 252.464 174.628 251.536C174.628 250.608 174.814 249.797 175.188 249.104C175.572 248.411 176.105 247.877 176.788 247.504C177.47 247.131 178.254 246.944 179.14 246.944C180.004 246.944 180.772 247.125 181.444 247.488C182.116 247.851 182.638 248.368 183.012 249.04C183.396 249.712 183.588 250.496 183.588 251.392ZM180.788 250.672C180.788 250.203 180.628 249.829 180.308 249.552C179.988 249.275 179.588 249.136 179.108 249.136C178.649 249.136 178.26 249.269 177.94 249.536C177.63 249.803 177.438 250.181 177.364 250.672H180.788ZM188.663 256.128C187.884 256.128 187.191 255.995 186.583 255.728C185.975 255.461 185.495 255.099 185.143 254.64C184.791 254.171 184.594 253.648 184.551 253.072H187.255C187.287 253.381 187.431 253.632 187.687 253.824C187.943 254.016 188.258 254.112 188.631 254.112C188.972 254.112 189.234 254.048 189.415 253.92C189.607 253.781 189.703 253.605 189.703 253.392C189.703 253.136 189.57 252.949 189.303 252.832C189.036 252.704 188.604 252.565 188.007 252.416C187.367 252.267 186.834 252.112 186.407 251.952C185.98 251.781 185.612 251.52 185.303 251.168C184.994 250.805 184.839 250.32 184.839 249.712C184.839 249.2 184.978 248.736 185.255 248.32C185.543 247.893 185.959 247.557 186.503 247.312C187.058 247.067 187.714 246.944 188.471 246.944C189.591 246.944 190.471 247.221 191.111 247.776C191.762 248.331 192.135 249.067 192.231 249.984H189.703C189.66 249.675 189.522 249.429 189.287 249.248C189.063 249.067 188.764 248.976 188.391 248.976C188.071 248.976 187.826 249.04 187.655 249.168C187.484 249.285 187.399 249.451 187.399 249.664C187.399 249.92 187.532 250.112 187.799 250.24C188.076 250.368 188.503 250.496 189.079 250.624C189.74 250.795 190.279 250.965 190.695 251.136C191.111 251.296 191.474 251.563 191.783 251.936C192.103 252.299 192.268 252.789 192.279 253.408C192.279 253.931 192.13 254.4 191.831 254.816C191.543 255.221 191.122 255.541 190.567 255.776C190.023 256.011 189.388 256.128 188.663 256.128Z" fill="#2E2C43"/>
<path d="M111 0C119.635 0.000524833 127.973 3.14578 134.457 8.84772L136.167 10.4574L143.916 18.2061C146.042 20.3188 148.819 21.6525 151.798 21.9916L153.297 22.0804H164.398C173.47 22.0799 182.199 25.5504 188.794 31.7801C195.389 38.0098 199.351 46.5266 199.867 55.5841L199.923 57.6045V68.7058C199.923 71.7032 200.944 74.6228 202.787 76.9541L203.786 78.0642L211.524 85.8129C217.937 92.19 221.677 100.773 221.98 109.812C222.283 118.852 219.127 127.666 213.156 134.459L211.546 136.168L203.797 143.917C201.684 146.044 200.351 148.821 200.011 151.799L199.923 153.298V164.399C199.923 173.471 196.453 182.2 190.223 188.795C183.993 195.39 175.476 199.351 166.418 199.867L164.398 199.923H153.297C150.303 199.924 147.398 200.933 145.048 202.787L143.938 203.786L136.189 211.524C129.812 217.937 121.229 221.677 112.189 221.98C103.15 222.283 94.3353 219.127 87.5426 213.156L85.833 211.546L78.0842 203.797C75.9576 201.685 73.1806 200.351 70.2022 200.012L68.7035 199.923H57.602C48.5297 199.923 39.801 196.453 33.2058 190.223C26.6107 183.994 22.6489 175.477 22.1329 166.419L22.0774 164.399V153.298C22.0764 150.304 21.0674 147.399 19.2132 145.049L18.2141 143.939L10.4764 136.191C4.06285 129.813 0.323228 121.23 0.0199909 112.191C-0.283246 103.152 2.87274 94.3373 8.84445 87.5447L10.4542 85.8351L18.203 78.0864C20.3157 75.9598 21.6495 73.1829 21.9886 70.2045L22.0774 68.7058V57.6045L22.1329 55.5841C22.6286 46.8745 26.3118 38.6519 32.4804 32.4833C38.6491 26.3148 46.8719 22.6316 55.5816 22.136L57.602 22.0804H68.7035C71.6966 22.0795 74.6022 21.0705 76.9518 19.2163L78.062 18.2172L85.8108 10.4796C89.1117 7.15909 93.0364 4.52383 97.3593 2.72536C101.682 0.926884 106.318 0.000678023 111 0ZM152.042 80.8395C149.96 78.7584 147.137 77.5892 144.193 77.5892C141.25 77.5892 138.426 78.7584 136.345 80.8395L99.7875 117.385L85.4333 103.042L84.3898 102.121C82.1585 100.395 79.3542 99.5841 76.5463 99.8516C73.7385 100.119 71.1378 101.445 69.2724 103.561C67.407 105.676 66.4168 108.423 66.5028 111.242C66.5889 114.061 67.7449 116.742 69.7359 118.739L91.9388 140.942L92.9823 141.863C95.1183 143.52 97.7854 144.341 100.483 144.171C103.181 144.001 105.725 142.853 107.636 140.942L152.042 96.5367L152.963 95.4932C154.62 93.3573 155.441 90.6902 155.271 87.9923C155.102 85.2944 153.953 82.7511 152.042 80.8395Z" fill="#70B241"/>
<ellipse cx="110.146" cy="111" rx="74.2846" ry="71.7231" fill="#70B241"/>
<path d="M82.8572 88.3096H68.0003V92.613C68.6492 92.0324 69.486 91.5713 70.5106 91.2297C71.5694 90.8882 72.7477 90.7174 74.0456 90.7174C76.368 90.7174 78.3319 91.2639 79.9371 92.3568C81.5423 93.4497 82.7377 94.9184 83.5232 96.7627C84.3088 98.5728 84.7016 100.588 84.7016 102.808C84.7016 106.906 83.5403 110.1 81.2179 112.388C78.9296 114.642 75.7703 115.769 71.7402 115.769C68.8029 115.769 66.2585 115.257 64.1068 114.232C61.9892 113.208 60.3669 111.79 59.2399 109.98C58.1469 108.17 57.6346 106.104 57.7029 103.781H68.7688C68.7688 104.328 68.9566 104.84 69.3323 105.318C69.708 105.796 70.3228 106.035 71.1766 106.035C72.0305 106.035 72.6623 105.728 73.0722 105.113C73.482 104.499 73.6869 103.662 73.6869 102.603C73.6869 101.613 73.4479 100.861 72.9697 100.349C72.5257 99.8365 71.8768 99.5804 71.0229 99.5804C70.3057 99.5804 69.7592 99.7511 69.3836 100.093C69.0079 100.434 68.82 100.827 68.82 101.271H57.7542V78.3196H82.8572V88.3096ZM88.3982 96.5065C88.3982 90.5979 89.6448 85.953 92.138 82.5718C94.6654 79.1905 98.5419 77.4999 103.767 77.4999C108.959 77.4999 112.818 79.2076 115.346 82.623C117.873 86.0042 119.137 90.6321 119.137 96.5065C119.137 102.415 117.873 107.077 115.346 110.493C112.818 113.874 108.959 115.564 103.767 115.564C98.5419 115.564 94.6654 113.874 92.138 110.493C89.6448 107.077 88.3982 102.415 88.3982 96.5065ZM107.917 96.5065C107.917 93.7742 107.644 91.725 107.097 90.3588C106.551 88.9585 105.441 88.2584 103.767 88.2584C102.06 88.2584 100.933 88.9585 100.386 90.3588C99.8397 91.725 99.5665 93.7742 99.5665 96.5065C99.5665 99.273 99.8397 101.356 100.386 102.757C100.933 104.123 102.06 104.806 103.767 104.806C105.441 104.806 106.551 104.123 107.097 102.757C107.644 101.356 107.917 99.273 107.917 96.5065ZM130.46 88.1047C130.46 85.0991 131.314 82.8108 133.022 81.2397C134.729 79.6345 136.967 78.8319 139.733 78.8319C142.465 78.8319 144.668 79.6345 146.342 81.2397C148.049 82.8108 148.903 85.0991 148.903 88.1047C148.903 91.1102 148.049 93.3985 146.342 94.9696C144.668 96.5407 142.465 97.3262 139.733 97.3262C136.967 97.3262 134.729 96.5407 133.022 94.9696C131.314 93.3985 130.46 91.1102 130.46 88.1047ZM168.422 79.3442L149.313 115.769H138.452L157.561 79.3442H168.422ZM139.631 85.4407C138.469 85.4407 137.889 86.3287 137.889 88.1047C137.889 89.8465 138.469 90.7174 139.631 90.7174C140.245 90.7174 140.706 90.4954 141.014 90.0514C141.355 89.6074 141.526 88.9585 141.526 88.1047C141.526 87.2167 141.355 86.5507 141.014 86.1067C140.706 85.6627 140.245 85.4407 139.631 85.4407ZM157.971 107.009C157.971 104.003 158.825 101.715 160.533 100.144C162.24 98.5387 164.46 97.7361 167.193 97.7361C169.959 97.7361 172.179 98.5387 173.853 100.144C175.526 101.715 176.363 104.003 176.363 107.009C176.363 110.014 175.526 112.32 173.853 113.925C172.179 115.496 169.959 116.282 167.193 116.282C164.46 116.282 162.24 115.496 160.533 113.925C158.825 112.32 157.971 110.014 157.971 107.009ZM167.141 104.345C165.946 104.345 165.348 105.233 165.348 107.009C165.348 108.785 165.946 109.673 167.141 109.673C167.722 109.673 168.166 109.451 168.473 109.007C168.815 108.563 168.986 107.897 168.986 107.009C168.986 106.155 168.815 105.506 168.473 105.062C168.166 104.584 167.722 104.345 167.141 104.345Z" fill="white"/>
<path d="M63.4835 131.11C65.3791 131.11 67.0355 131.495 68.4529 132.263C69.8874 133.032 70.9889 134.099 71.7573 135.465C72.5258 136.831 72.91 138.385 72.91 140.127C72.91 141.852 72.5258 143.406 71.7573 144.789C70.9889 146.172 69.8874 147.265 68.4529 148.068C67.0355 148.853 65.3791 149.246 63.4835 149.246H55.927V131.11H63.4835ZM62.9712 144.174C64.252 144.174 65.2681 143.824 66.0195 143.124C66.7709 142.424 67.1465 141.425 67.1465 140.127C67.1465 138.829 66.7709 137.83 66.0195 137.13C65.2681 136.43 64.252 136.08 62.9712 136.08H61.6136V144.174H62.9712ZM77.8324 133.646C76.8419 133.646 76.0478 133.382 75.4501 132.852C74.8524 132.323 74.5536 131.657 74.5536 130.854C74.5536 130.035 74.8524 129.36 75.4501 128.831C76.0478 128.284 76.8419 128.011 77.8324 128.011C78.8057 128.011 79.5913 128.284 80.189 128.831C80.7867 129.36 81.0855 130.035 81.0855 130.854C81.0855 131.657 80.7867 132.323 80.189 132.852C79.5913 133.382 78.8057 133.646 77.8324 133.646ZM80.6501 134.799V149.246H74.9634V134.799H80.6501ZM89.6479 149.425C88.2817 149.425 87.0692 149.203 86.0105 148.759C84.9688 148.315 84.1406 147.701 83.5258 146.915C82.911 146.13 82.5609 145.242 82.4756 144.251H87.9316C87.9999 144.678 88.1792 144.994 88.4696 145.199C88.7769 145.404 89.1612 145.506 89.6222 145.506C89.9126 145.506 90.1431 145.446 90.3139 145.327C90.4846 145.19 90.57 145.028 90.57 144.84C90.57 144.516 90.3907 144.285 90.0321 144.149C89.6735 144.012 89.0672 143.858 88.2134 143.688C87.1717 143.483 86.3093 143.261 85.6262 143.022C84.9602 142.782 84.3711 142.373 83.8588 141.792C83.3636 141.211 83.1159 140.409 83.1159 139.384C83.1159 138.496 83.3465 137.694 83.8076 136.976C84.2857 136.242 84.9859 135.67 85.908 135.26C86.8302 134.833 87.9487 134.62 89.2636 134.62C91.2104 134.62 92.7302 135.098 93.8232 136.054C94.9332 137.01 95.5992 138.257 95.8212 139.794H90.7749C90.6896 139.401 90.5102 139.102 90.237 138.897C89.9638 138.675 89.5966 138.564 89.1356 138.564C88.8452 138.564 88.6232 138.624 88.4696 138.744C88.3159 138.846 88.239 139.008 88.239 139.23C88.239 139.521 88.4183 139.743 88.7769 139.896C89.1356 140.033 89.7076 140.178 90.4932 140.332C91.5349 140.537 92.4143 140.767 93.1316 141.024C93.8488 141.28 94.4721 141.724 95.0015 142.356C95.5309 142.97 95.7956 143.824 95.7956 144.917C95.7956 145.771 95.5479 146.539 95.0527 147.222C94.5575 147.906 93.8402 148.443 92.901 148.836C91.9789 149.229 90.8945 149.425 89.6479 149.425ZM97.2838 142.023C97.2838 140.52 97.5912 139.213 98.206 138.103C98.8378 136.976 99.7088 136.114 100.819 135.516C101.946 134.919 103.227 134.62 104.661 134.62C106.54 134.62 108.119 135.149 109.4 136.208C110.698 137.267 111.517 138.735 111.859 140.614H105.839C105.617 139.862 105.182 139.487 104.533 139.487C104.072 139.487 103.705 139.7 103.432 140.127C103.175 140.554 103.047 141.186 103.047 142.023C103.047 142.859 103.175 143.491 103.432 143.918C103.705 144.345 104.072 144.558 104.533 144.558C105.182 144.558 105.617 144.183 105.839 143.431H111.859C111.517 145.31 110.698 146.778 109.4 147.837C108.119 148.896 106.54 149.425 104.661 149.425C103.227 149.425 101.946 149.127 100.819 148.529C99.7088 147.931 98.8378 147.077 98.206 145.967C97.5912 144.84 97.2838 143.525 97.2838 142.023ZM120.527 149.425C119.075 149.425 117.769 149.127 116.607 148.529C115.446 147.931 114.533 147.077 113.867 145.967C113.218 144.84 112.893 143.525 112.893 142.023C112.893 140.52 113.218 139.213 113.867 138.103C114.533 136.976 115.446 136.114 116.607 135.516C117.769 134.919 119.075 134.62 120.527 134.62C121.978 134.62 123.285 134.919 124.446 135.516C125.607 136.114 126.512 136.976 127.161 138.103C127.827 139.213 128.16 140.52 128.16 142.023C128.16 143.525 127.827 144.84 127.161 145.967C126.512 147.077 125.607 147.931 124.446 148.529C123.285 149.127 121.978 149.425 120.527 149.425ZM120.527 144.507C121.056 144.507 121.5 144.302 121.859 143.892C122.217 143.466 122.397 142.842 122.397 142.023C122.397 141.203 122.217 140.588 121.859 140.178C121.5 139.751 121.056 139.538 120.527 139.538C119.997 139.538 119.553 139.751 119.195 140.178C118.836 140.588 118.657 141.203 118.657 142.023C118.657 142.842 118.827 143.466 119.169 143.892C119.528 144.302 119.98 144.507 120.527 144.507ZM145.239 134.799V149.246H139.552V147.043C139.108 147.726 138.511 148.281 137.759 148.708C137.025 149.135 136.145 149.349 135.121 149.349C133.464 149.349 132.166 148.794 131.227 147.684C130.305 146.574 129.844 145.071 129.844 143.175V134.799H135.505V142.458C135.505 143.141 135.684 143.688 136.043 144.097C136.419 144.49 136.914 144.687 137.529 144.687C138.16 144.687 138.656 144.49 139.014 144.097C139.373 143.688 139.552 143.141 139.552 142.458V134.799H145.239ZM157.925 134.697C159.582 134.697 160.871 135.252 161.793 136.362C162.732 137.472 163.202 138.974 163.202 140.87V149.246H157.541V141.587C157.541 140.904 157.353 140.366 156.977 139.973C156.619 139.563 156.132 139.359 155.517 139.359C154.886 139.359 154.39 139.563 154.032 139.973C153.673 140.366 153.494 140.904 153.494 141.587V149.246H147.807V134.799H153.494V137.002C153.938 136.319 154.527 135.764 155.261 135.337C156.013 134.91 156.901 134.697 157.925 134.697ZM174.659 144.405V149.246H172.507C168.545 149.246 166.564 147.274 166.564 143.329V139.538H164.771V134.799H166.564V131.315H172.251V134.799H174.608V139.538H172.251V143.431C172.251 143.773 172.328 144.021 172.482 144.174C172.652 144.328 172.926 144.405 173.301 144.405H174.659Z" fill="white"/>
<path d="M137 266.071C137 265.479 137.479 265 138.071 265H140.749C143.411 265 145.57 267.159 145.57 269.821C145.57 271.789 144.392 273.48 142.701 274.23L144.422 278.528C144.643 279.077 144.375 279.7 143.826 279.921C143.277 280.142 142.654 279.874 142.433 279.325L140.559 274.641H139.143V278.926C139.143 279.519 138.664 279.998 138.071 279.998C137.479 279.998 137 279.519 137 278.926V273.57V266.071ZM139.143 272.499H140.749C142.229 272.499 143.428 271.3 143.428 269.821C143.428 268.341 142.229 267.143 140.749 267.143H139.143V272.499ZM147.729 273.048C147.699 273.249 147.729 273.339 147.743 273.376C147.756 273.413 147.79 273.463 147.883 273.54C148.124 273.731 148.509 273.875 149.152 274.102L149.196 274.119C149.731 274.307 150.491 274.574 151.06 275.06C151.378 275.331 151.66 275.682 151.834 276.141C152.004 276.6 152.038 277.095 151.961 277.614C151.82 278.555 151.275 279.264 150.495 279.653C149.755 280.021 148.884 280.071 148.044 279.921H148.037C147.726 279.86 147.351 279.73 147.056 279.619C146.856 279.542 146.635 279.455 146.464 279.388C146.38 279.355 146.31 279.328 146.253 279.305C145.701 279.09 145.429 278.468 145.644 277.919C145.858 277.37 146.477 277.095 147.03 277.309C147.117 277.343 147.204 277.376 147.294 277.413C147.455 277.477 147.622 277.544 147.81 277.614C148.104 277.725 148.322 277.795 148.436 277.815C148.961 277.909 149.33 277.842 149.537 277.738C149.704 277.654 149.805 277.537 149.842 277.303C149.875 277.072 149.848 276.951 149.825 276.891C149.805 276.834 149.765 276.77 149.674 276.693C149.443 276.499 149.065 276.345 148.439 276.124L148.339 276.088C147.82 275.907 147.1 275.652 146.554 275.22C146.236 274.969 145.942 274.631 145.761 274.183C145.577 273.734 145.54 273.245 145.614 272.736C145.895 270.825 147.857 270.125 149.527 270.43C149.758 270.473 150.441 270.624 150.712 270.711C151.278 270.885 151.593 271.488 151.418 272.054C151.244 272.619 150.642 272.934 150.076 272.76C149.919 272.713 149.33 272.576 149.142 272.542C148.653 272.452 148.278 272.529 148.051 272.649C147.84 272.76 147.753 272.904 147.733 273.051L147.729 273.048Z" fill="#70B241"/>
<path d="M142 333.071C142 332.479 142.479 332 143.071 332H145.749C148.411 332 150.57 334.159 150.57 336.821C150.57 338.789 149.392 340.48 147.701 341.23L149.422 345.528C149.643 346.077 149.375 346.7 148.826 346.921C148.277 347.142 147.654 346.874 147.433 346.325L145.559 341.641H144.143V345.926C144.143 346.519 143.664 346.998 143.071 346.998C142.479 346.998 142 346.519 142 345.926V340.57V333.071ZM144.143 339.499H145.749C147.229 339.499 148.428 338.3 148.428 336.821C148.428 335.341 147.229 334.143 145.749 334.143H144.143V339.499ZM152.729 340.048C152.699 340.249 152.729 340.339 152.743 340.376C152.756 340.413 152.79 340.463 152.883 340.54C153.124 340.731 153.509 340.875 154.152 341.102L154.196 341.119C154.731 341.307 155.491 341.574 156.06 342.06C156.378 342.331 156.66 342.682 156.834 343.141C157.004 343.6 157.038 344.095 156.961 344.614C156.82 345.555 156.275 346.264 155.495 346.653C154.755 347.021 153.884 347.071 153.044 346.921H153.037C152.726 346.86 152.351 346.73 152.056 346.619C151.856 346.542 151.635 346.455 151.464 346.388C151.38 346.355 151.31 346.328 151.253 346.305C150.701 346.09 150.429 345.468 150.644 344.919C150.858 344.37 151.477 344.095 152.03 344.309C152.117 344.343 152.204 344.376 152.294 344.413C152.455 344.477 152.622 344.544 152.81 344.614C153.104 344.725 153.322 344.795 153.436 344.815C153.961 344.909 154.33 344.842 154.537 344.738C154.704 344.654 154.805 344.537 154.842 344.303C154.875 344.072 154.848 343.951 154.825 343.891C154.805 343.834 154.765 343.77 154.674 343.693C154.443 343.499 154.065 343.345 153.439 343.124L153.339 343.088C152.82 342.907 152.1 342.652 151.554 342.22C151.236 341.969 150.942 341.631 150.761 341.183C150.577 340.734 150.54 340.245 150.614 339.736C150.895 337.825 152.857 337.125 154.527 337.43C154.758 337.473 155.441 337.624 155.712 337.711C156.278 337.885 156.593 338.488 156.418 339.054C156.244 339.619 155.642 339.934 155.076 339.76C154.919 339.713 154.33 339.576 154.142 339.542C153.653 339.452 153.278 339.529 153.051 339.649C152.84 339.76 152.753 339.904 152.733 340.051L152.729 340.048Z" fill="#70B241"/>
<path d="M73.3043 318.016H69.1123L68.4403 320H65.5763L69.6403 308.768H72.8083L76.8723 320H73.9763L73.3043 318.016ZM72.6003 315.904L71.2083 311.792L69.8323 315.904H72.6003ZM82.5892 313.344H81.1172V320H78.3812V313.344H77.3892V311.072H78.3812V310.816C78.3812 309.717 78.6959 308.885 79.3252 308.32C79.9545 307.744 80.8772 307.456 82.0932 307.456C82.2959 307.456 82.4452 307.461 82.5412 307.472V309.792C82.0185 309.76 81.6505 309.835 81.4372 310.016C81.2239 310.197 81.1172 310.523 81.1172 310.992V311.072H82.5892V313.344ZM88.8508 317.68V320H87.4588C86.4668 320 85.6935 319.76 85.1388 319.28C84.5841 318.789 84.3068 317.995 84.3068 316.896V313.344H83.2188V311.072H84.3068V308.896H87.0428V311.072H88.8348V313.344H87.0428V316.928C87.0428 317.195 87.1068 317.387 87.2348 317.504C87.3628 317.621 87.5761 317.68 87.8748 317.68H88.8508ZM98.7908 315.392C98.7908 315.648 98.7748 315.915 98.7428 316.192H92.5508C92.5935 316.747 92.7695 317.173 93.0788 317.472C93.3988 317.76 93.7881 317.904 94.2468 317.904C94.9295 317.904 95.4041 317.616 95.6708 317.04H98.5828C98.4335 317.627 98.1615 318.155 97.7668 318.624C97.3828 319.093 96.8975 319.461 96.3108 319.728C95.7241 319.995 95.0681 320.128 94.3428 320.128C93.4681 320.128 92.6895 319.941 92.0068 319.568C91.3241 319.195 90.7908 318.661 90.4068 317.968C90.0228 317.275 89.8308 316.464 89.8308 315.536C89.8308 314.608 90.0175 313.797 90.3908 313.104C90.7748 312.411 91.3081 311.877 91.9908 311.504C92.6735 311.131 93.4575 310.944 94.3428 310.944C95.2068 310.944 95.9748 311.125 96.6468 311.488C97.3188 311.851 97.8415 312.368 98.2148 313.04C98.5988 313.712 98.7908 314.496 98.7908 315.392ZM95.9908 314.672C95.9908 314.203 95.8308 313.829 95.5108 313.552C95.1908 313.275 94.7908 313.136 94.3108 313.136C93.8521 313.136 93.4628 313.269 93.1428 313.536C92.8335 313.803 92.6415 314.181 92.5668 314.672H95.9908ZM102.97 312.56C103.29 312.069 103.69 311.685 104.17 311.408C104.65 311.12 105.184 310.976 105.77 310.976V313.872H105.018C104.336 313.872 103.824 314.021 103.482 314.32C103.141 314.608 102.97 315.12 102.97 315.856V320H100.234V311.072H102.97V312.56ZM114.677 308.768C115.861 308.768 116.895 309.003 117.781 309.472C118.666 309.941 119.349 310.603 119.829 311.456C120.319 312.299 120.565 313.275 120.565 314.384C120.565 315.483 120.319 316.459 119.829 317.312C119.349 318.165 118.661 318.827 117.765 319.296C116.879 319.765 115.85 320 114.677 320H110.469V308.768H114.677ZM114.501 317.632C115.535 317.632 116.341 317.349 116.917 316.784C117.493 316.219 117.781 315.419 117.781 314.384C117.781 313.349 117.493 312.544 116.917 311.968C116.341 311.392 115.535 311.104 114.501 311.104H113.205V317.632H114.501ZM123.47 310.144C122.99 310.144 122.595 310.005 122.286 309.728C121.987 309.44 121.838 309.088 121.838 308.672C121.838 308.245 121.987 307.893 122.286 307.616C122.595 307.328 122.99 307.184 123.47 307.184C123.939 307.184 124.323 307.328 124.622 307.616C124.931 307.893 125.086 308.245 125.086 308.672C125.086 309.088 124.931 309.44 124.622 309.728C124.323 310.005 123.939 310.144 123.47 310.144ZM124.83 311.072V320H122.094V311.072H124.83ZM130.444 320.128C129.666 320.128 128.972 319.995 128.364 319.728C127.756 319.461 127.276 319.099 126.924 318.64C126.572 318.171 126.375 317.648 126.332 317.072H129.036C129.068 317.381 129.212 317.632 129.468 317.824C129.724 318.016 130.039 318.112 130.412 318.112C130.754 318.112 131.015 318.048 131.196 317.92C131.388 317.781 131.484 317.605 131.484 317.392C131.484 317.136 131.351 316.949 131.084 316.832C130.818 316.704 130.386 316.565 129.788 316.416C129.148 316.267 128.615 316.112 128.188 315.952C127.762 315.781 127.394 315.52 127.084 315.168C126.775 314.805 126.62 314.32 126.62 313.712C126.62 313.2 126.759 312.736 127.036 312.32C127.324 311.893 127.74 311.557 128.284 311.312C128.839 311.067 129.495 310.944 130.252 310.944C131.372 310.944 132.252 311.221 132.892 311.776C133.543 312.331 133.916 313.067 134.012 313.984H131.484C131.442 313.675 131.303 313.429 131.068 313.248C130.844 313.067 130.546 312.976 130.172 312.976C129.852 312.976 129.607 313.04 129.436 313.168C129.266 313.285 129.18 313.451 129.18 313.664C129.18 313.92 129.314 314.112 129.58 314.24C129.858 314.368 130.284 314.496 130.86 314.624C131.522 314.795 132.06 314.965 132.476 315.136C132.892 315.296 133.255 315.563 133.564 315.936C133.884 316.299 134.05 316.789 134.06 317.408C134.06 317.931 133.911 318.4 133.612 318.816C133.324 319.221 132.903 319.541 132.348 319.776C131.804 320.011 131.17 320.128 130.444 320.128ZM135.19 315.536C135.19 314.608 135.377 313.797 135.75 313.104C136.134 312.411 136.662 311.877 137.334 311.504C138.017 311.131 138.796 310.944 139.67 310.944C140.79 310.944 141.724 311.237 142.47 311.824C143.228 312.411 143.724 313.237 143.958 314.304H141.046C140.801 313.621 140.326 313.28 139.622 313.28C139.121 313.28 138.721 313.477 138.422 313.872C138.124 314.256 137.974 314.811 137.974 315.536C137.974 316.261 138.124 316.821 138.422 317.216C138.721 317.6 139.121 317.792 139.622 317.792C140.326 317.792 140.801 317.451 141.046 316.768H143.958C143.724 317.813 143.228 318.635 142.47 319.232C141.713 319.829 140.78 320.128 139.67 320.128C138.796 320.128 138.017 319.941 137.334 319.568C136.662 319.195 136.134 318.661 135.75 317.968C135.377 317.275 135.19 316.464 135.19 315.536ZM149.486 320.128C148.611 320.128 147.822 319.941 147.118 319.568C146.424 319.195 145.875 318.661 145.47 317.968C145.075 317.275 144.878 316.464 144.878 315.536C144.878 314.619 145.08 313.813 145.486 313.12C145.891 312.416 146.446 311.877 147.15 311.504C147.854 311.131 148.643 310.944 149.518 310.944C150.392 310.944 151.182 311.131 151.886 311.504C152.59 311.877 153.144 312.416 153.55 313.12C153.955 313.813 154.158 314.619 154.158 315.536C154.158 316.453 153.95 317.264 153.534 317.968C153.128 318.661 152.568 319.195 151.854 319.568C151.15 319.941 150.36 320.128 149.486 320.128ZM149.486 317.76C150.008 317.76 150.451 317.568 150.814 317.184C151.187 316.8 151.374 316.251 151.374 315.536C151.374 314.821 151.192 314.272 150.83 313.888C150.478 313.504 150.04 313.312 149.518 313.312C148.984 313.312 148.542 313.504 148.19 313.888C147.838 314.261 147.662 314.811 147.662 315.536C147.662 316.251 147.832 316.8 148.174 317.184C148.526 317.568 148.963 317.76 149.486 317.76ZM164.425 311.072V320H161.689V318.784C161.412 319.179 161.033 319.499 160.553 319.744C160.084 319.979 159.561 320.096 158.985 320.096C158.303 320.096 157.7 319.947 157.177 319.648C156.655 319.339 156.249 318.896 155.961 318.32C155.673 317.744 155.529 317.067 155.529 316.288V311.072H158.249V315.92C158.249 316.517 158.404 316.981 158.713 317.312C159.023 317.643 159.439 317.808 159.961 317.808C160.495 317.808 160.916 317.643 161.225 317.312C161.535 316.981 161.689 316.517 161.689 315.92V311.072H164.425ZM171.83 310.976C172.876 310.976 173.708 311.317 174.326 312C174.956 312.672 175.27 313.6 175.27 314.784V320H172.55V315.152C172.55 314.555 172.396 314.091 172.086 313.76C171.777 313.429 171.361 313.264 170.838 313.264C170.316 313.264 169.9 313.429 169.59 313.76C169.281 314.091 169.126 314.555 169.126 315.152V320H166.39V311.072H169.126V312.256C169.404 311.861 169.777 311.552 170.246 311.328C170.716 311.093 171.244 310.976 171.83 310.976ZM182.148 317.68V320H180.756C179.764 320 178.99 319.76 178.436 319.28C177.881 318.789 177.604 317.995 177.604 316.896V313.344H176.516V311.072H177.604V308.896H180.34V311.072H182.132V313.344H180.34V316.928C180.34 317.195 180.404 317.387 180.532 317.504C180.66 317.621 180.873 317.68 181.172 317.68H182.148Z" fill="#2E2C43"/>
<path d="M92 330C92.7001 330 93.3762 330.255 93.9019 330.717L94.0406 330.848L94.6688 331.476C94.8413 331.647 95.0664 331.756 95.3079 331.783L95.4294 331.79H96.3296C97.0652 331.79 97.7729 332.072 98.3076 332.577C98.8424 333.082 99.1636 333.772 99.2054 334.507L99.2099 334.671V335.571C99.2099 335.814 99.2928 336.05 99.4422 336.24L99.5232 336.33L100.151 336.958C100.671 337.475 100.974 338.171 100.998 338.904C101.023 339.637 100.767 340.351 100.283 340.902L100.152 341.041L99.5241 341.669C99.3528 341.841 99.2446 342.067 99.2171 342.308L99.2099 342.43V343.33C99.21 344.065 98.9286 344.773 98.4235 345.308C97.9184 345.842 97.2278 346.164 96.4934 346.205L96.3296 346.21H95.4294C95.1868 346.21 94.9512 346.292 94.7607 346.442L94.6706 346.523L94.0424 347.151C93.5253 347.671 92.8294 347.974 92.0964 347.998C91.3635 348.023 90.6488 347.767 90.0981 347.283L89.9594 347.152L89.3312 346.524C89.1587 346.353 88.9336 346.245 88.6921 346.217L88.5706 346.21H87.6704C86.9348 346.21 86.2271 345.929 85.6924 345.424C85.1576 344.918 84.8364 344.228 84.7946 343.493L84.7901 343.33V342.43C84.79 342.187 84.7082 341.951 84.5578 341.761L84.4768 341.671L83.8494 341.042C83.3294 340.525 83.0262 339.829 83.0016 339.097C82.977 338.364 83.2329 337.649 83.7171 337.098L83.8476 336.96L84.4759 336.331C84.6472 336.159 84.7554 335.934 84.7829 335.692L84.7901 335.571V334.671L84.7946 334.507C84.8348 333.801 85.1334 333.134 85.6335 332.634C86.1337 332.134 86.8004 331.835 87.5066 331.795L87.6704 331.79H88.5706C88.8132 331.79 89.0488 331.708 89.2393 331.558L89.3294 331.477L89.9576 330.85C90.2253 330.58 90.5435 330.367 90.894 330.221C91.2445 330.075 91.6204 330 92 330ZM95.3277 336.555C95.1589 336.386 94.93 336.291 94.6914 336.291C94.4527 336.291 94.2238 336.386 94.055 336.555L91.0909 339.518L89.927 338.355L89.8424 338.28C89.6615 338.14 89.4341 338.074 89.2065 338.096C88.9788 338.118 88.7679 338.225 88.6167 338.397C88.4654 338.568 88.3851 338.791 88.3921 339.02C88.3991 339.248 88.4928 339.466 88.6543 339.628L90.4545 341.428L90.5391 341.502C90.7123 341.637 90.9285 341.703 91.1473 341.69C91.3661 341.676 91.5723 341.583 91.7273 341.428L95.3277 337.827L95.4024 337.743C95.5368 337.57 95.6033 337.353 95.5896 337.135C95.5758 336.916 95.4827 336.71 95.3277 336.555Z" fill="#70B241"/>
</svg>
