<svg width="324" height="104" viewBox="0 0 324 104" fill="none" xmlns="http://www.w3.org/2000/svg">
<rect x="0.25" y="0.25" width="323.5" height="103.5" rx="15.75" fill="#FFC6C6" stroke="#E76063" stroke-width="0.5"/>
<path d="M35.602 30.098C35.602 30.91 35.322 31.5867 34.762 32.128C34.2113 32.66 33.3667 32.926 32.228 32.926H30.352V37H29.078V27.242H32.228C33.3293 27.242 34.1647 27.508 34.734 28.04C35.3127 28.572 35.602 29.258 35.602 30.098ZM32.228 31.876C32.9373 31.876 33.46 31.722 33.796 31.414C34.132 31.106 34.3 30.6673 34.3 30.098C34.3 28.894 33.6093 28.292 32.228 28.292H30.352V31.876H32.228ZM38.4594 26.64V37H37.1854V26.64H38.4594ZM47.6307 32.87C47.6307 33.1127 47.6167 33.3693 47.5887 33.64H41.4567C41.5034 34.396 41.7601 34.9887 42.2267 35.418C42.7027 35.838 43.2767 36.048 43.9487 36.048C44.4994 36.048 44.9567 35.922 45.3207 35.67C45.6941 35.4087 45.9554 35.0633 46.1047 34.634H47.4767C47.2714 35.3713 46.8607 35.9733 46.2447 36.44C45.6287 36.8973 44.8634 37.126 43.9487 37.126C43.2207 37.126 42.5674 36.9627 41.9887 36.636C41.4194 36.3093 40.9714 35.8473 40.6447 35.25C40.3181 34.6433 40.1547 33.9433 40.1547 33.15C40.1547 32.3567 40.3134 31.6613 40.6307 31.064C40.9481 30.4667 41.3914 30.0093 41.9607 29.692C42.5394 29.3653 43.2021 29.202 43.9487 29.202C44.6767 29.202 45.3207 29.3607 45.8807 29.678C46.4407 29.9953 46.8701 30.434 47.1687 30.994C47.4767 31.5447 47.6307 32.17 47.6307 32.87ZM46.3147 32.604C46.3147 32.1187 46.2074 31.7033 45.9927 31.358C45.7781 31.0033 45.4841 30.7373 45.1107 30.56C44.7467 30.3733 44.3407 30.28 43.8927 30.28C43.2487 30.28 42.6981 30.4853 42.2407 30.896C41.7927 31.3067 41.5361 31.876 41.4707 32.604H46.3147ZM48.8364 33.136C48.8364 32.352 48.995 31.666 49.3124 31.078C49.6297 30.4807 50.0637 30.0187 50.6144 29.692C51.1744 29.3653 51.795 29.202 52.4764 29.202C53.1484 29.202 53.7317 29.3467 54.2264 29.636C54.721 29.9253 55.0897 30.2893 55.3324 30.728V29.328H56.6204V37H55.3324V35.572C55.0804 36.02 54.7024 36.3933 54.1984 36.692C53.7037 36.9813 53.125 37.126 52.4624 37.126C51.781 37.126 51.165 36.958 50.6144 36.622C50.0637 36.286 49.6297 35.8147 49.3124 35.208C48.995 34.6013 48.8364 33.9107 48.8364 33.136ZM55.3324 33.15C55.3324 32.5713 55.2157 32.0673 54.9824 31.638C54.749 31.2087 54.4317 30.882 54.0304 30.658C53.6384 30.4247 53.2044 30.308 52.7284 30.308C52.2524 30.308 51.8184 30.42 51.4264 30.644C51.0344 30.868 50.7217 31.1947 50.4884 31.624C50.255 32.0533 50.1384 32.5573 50.1384 33.136C50.1384 33.724 50.255 34.2373 50.4884 34.676C50.7217 35.1053 51.0344 35.4367 51.4264 35.67C51.8184 35.894 52.2524 36.006 52.7284 36.006C53.2044 36.006 53.6384 35.894 54.0304 35.67C54.4317 35.4367 54.749 35.1053 54.9824 34.676C55.2157 34.2373 55.3324 33.7287 55.3324 33.15ZM61.4893 37.126C60.9013 37.126 60.374 37.028 59.9073 36.832C59.4406 36.6267 59.072 36.3467 58.8013 35.992C58.5306 35.628 58.3813 35.2127 58.3533 34.746H59.6693C59.7066 35.1287 59.884 35.4413 60.2013 35.684C60.528 35.9267 60.9526 36.048 61.4753 36.048C61.9606 36.048 62.3433 35.9407 62.6233 35.726C62.9033 35.5113 63.0433 35.2407 63.0433 34.914C63.0433 34.578 62.894 34.3307 62.5953 34.172C62.2966 34.004 61.8346 33.8407 61.2093 33.682C60.64 33.5327 60.1733 33.3833 59.8093 33.234C59.4546 33.0753 59.1466 32.8467 58.8853 32.548C58.6333 32.24 58.5073 31.8387 58.5073 31.344C58.5073 30.952 58.624 30.5927 58.8573 30.266C59.0906 29.9393 59.422 29.6827 59.8513 29.496C60.2806 29.3 60.7706 29.202 61.3213 29.202C62.1706 29.202 62.8566 29.4167 63.3793 29.846C63.902 30.2753 64.182 30.8633 64.2193 31.61H62.9453C62.9173 31.2087 62.754 30.8867 62.4553 30.644C62.166 30.4013 61.774 30.28 61.2793 30.28C60.822 30.28 60.458 30.378 60.1873 30.574C59.9166 30.77 59.7813 31.0267 59.7813 31.344C59.7813 31.596 59.8606 31.806 60.0193 31.974C60.1873 32.1327 60.3926 32.2633 60.6353 32.366C60.8873 32.4593 61.2326 32.5667 61.6713 32.688C62.222 32.8373 62.67 32.9867 63.0153 33.136C63.3606 33.276 63.6546 33.4907 63.8973 33.78C64.1493 34.0693 64.28 34.4473 64.2893 34.914C64.2893 35.334 64.1726 35.712 63.9393 36.048C63.706 36.384 63.3746 36.65 62.9453 36.846C62.5253 37.0327 62.04 37.126 61.4893 37.126ZM73.0878 32.87C73.0878 33.1127 73.0738 33.3693 73.0458 33.64H66.9138C66.9604 34.396 67.2171 34.9887 67.6838 35.418C68.1598 35.838 68.7338 36.048 69.4058 36.048C69.9564 36.048 70.4138 35.922 70.7778 35.67C71.1511 35.4087 71.4124 35.0633 71.5618 34.634H72.9338C72.7284 35.3713 72.3178 35.9733 71.7018 36.44C71.0858 36.8973 70.3204 37.126 69.4058 37.126C68.6778 37.126 68.0244 36.9627 67.4458 36.636C66.8764 36.3093 66.4284 35.8473 66.1018 35.25C65.7751 34.6433 65.6118 33.9433 65.6118 33.15C65.6118 32.3567 65.7704 31.6613 66.0878 31.064C66.4051 30.4667 66.8484 30.0093 67.4178 29.692C67.9964 29.3653 68.6591 29.202 69.4058 29.202C70.1338 29.202 70.7778 29.3607 71.3378 29.678C71.8978 29.9953 72.3271 30.434 72.6258 30.994C72.9338 31.5447 73.0878 32.17 73.0878 32.87ZM71.7718 32.604C71.7718 32.1187 71.6644 31.7033 71.4498 31.358C71.2351 31.0033 70.9411 30.7373 70.5678 30.56C70.2038 30.3733 69.7978 30.28 69.3498 30.28C68.7058 30.28 68.1551 30.4853 67.6978 30.896C67.2498 31.3067 66.9931 31.876 66.9278 32.604H71.7718ZM79.1598 28.082C78.9172 28.082 78.7118 27.998 78.5438 27.83C78.3758 27.662 78.2918 27.4567 78.2918 27.214C78.2918 26.9713 78.3758 26.766 78.5438 26.598C78.7118 26.43 78.9172 26.346 79.1598 26.346C79.3932 26.346 79.5892 26.43 79.7478 26.598C79.9158 26.766 79.9998 26.9713 79.9998 27.214C79.9998 27.4567 79.9158 27.662 79.7478 27.83C79.5892 27.998 79.3932 28.082 79.1598 28.082ZM79.7758 29.328V37H78.5018V29.328H79.7758ZM85.6851 29.188C86.6185 29.188 87.3745 29.4727 87.9531 30.042C88.5318 30.602 88.8211 31.414 88.8211 32.478V37H87.5611V32.66C87.5611 31.8947 87.3698 31.3113 86.9871 30.91C86.6045 30.4993 86.0818 30.294 85.4191 30.294C84.7471 30.294 84.2105 30.504 83.8091 30.924C83.4171 31.344 83.2211 31.9553 83.2211 32.758V37H81.9471V29.328H83.2211V30.42C83.4731 30.028 83.8138 29.7247 84.2431 29.51C84.6818 29.2953 85.1625 29.188 85.6851 29.188ZM94.0242 30.378H92.4142V37H91.1402V30.378H90.1462V29.328H91.1402V28.782C91.1402 27.9233 91.3596 27.298 91.7982 26.906C92.2462 26.5047 92.9602 26.304 93.9402 26.304V27.368C93.3802 27.368 92.9836 27.48 92.7502 27.704C92.5262 27.9187 92.4142 28.278 92.4142 28.782V29.328H94.0242V30.378ZM98.8556 37.126C98.137 37.126 97.4836 36.9627 96.8956 36.636C96.317 36.3093 95.8596 35.8473 95.5236 35.25C95.197 34.6433 95.0336 33.9433 95.0336 33.15C95.0336 32.366 95.2016 31.6753 95.5376 31.078C95.883 30.4713 96.3496 30.0093 96.9376 29.692C97.5256 29.3653 98.1836 29.202 98.9116 29.202C99.6396 29.202 100.298 29.3653 100.886 29.692C101.474 30.0093 101.936 30.4667 102.272 31.064C102.617 31.6613 102.79 32.3567 102.79 33.15C102.79 33.9433 102.612 34.6433 102.258 35.25C101.912 35.8473 101.441 36.3093 100.844 36.636C100.246 36.9627 99.5836 37.126 98.8556 37.126ZM98.8556 36.006C99.313 36.006 99.7423 35.8987 100.144 35.684C100.545 35.4693 100.867 35.1473 101.11 34.718C101.362 34.2887 101.488 33.766 101.488 33.15C101.488 32.534 101.366 32.0113 101.124 31.582C100.881 31.1527 100.564 30.8353 100.172 30.63C99.7796 30.4153 99.355 30.308 98.8976 30.308C98.431 30.308 98.0016 30.4153 97.6096 30.63C97.227 30.8353 96.919 31.1527 96.6856 31.582C96.4523 32.0113 96.3356 32.534 96.3356 33.15C96.3356 33.7753 96.4476 34.3027 96.6716 34.732C96.905 35.1613 97.213 35.4833 97.5956 35.698C97.9783 35.9033 98.3983 36.006 98.8556 36.006ZM105.739 30.574C105.963 30.1353 106.28 29.7947 106.691 29.552C107.111 29.3093 107.619 29.188 108.217 29.188V30.504H107.881C106.453 30.504 105.739 31.2787 105.739 32.828V37H104.465V29.328H105.739V30.574ZM118.913 29.188C119.511 29.188 120.043 29.314 120.509 29.566C120.976 29.8087 121.345 30.1773 121.615 30.672C121.886 31.1667 122.021 31.7687 122.021 32.478V37H120.761V32.66C120.761 31.8947 120.57 31.3113 120.187 30.91C119.814 30.4993 119.305 30.294 118.661 30.294C117.999 30.294 117.471 30.5087 117.079 30.938C116.687 31.358 116.491 31.9693 116.491 32.772V37H115.231V32.66C115.231 31.8947 115.04 31.3113 114.657 30.91C114.284 30.4993 113.775 30.294 113.131 30.294C112.469 30.294 111.941 30.5087 111.549 30.938C111.157 31.358 110.961 31.9693 110.961 32.772V37H109.687V29.328H110.961V30.434C111.213 30.0327 111.549 29.7247 111.969 29.51C112.399 29.2953 112.87 29.188 113.383 29.188C114.027 29.188 114.597 29.3327 115.091 29.622C115.586 29.9113 115.955 30.336 116.197 30.896C116.412 30.3547 116.767 29.9347 117.261 29.636C117.756 29.3373 118.307 29.188 118.913 29.188ZM130.7 35.824L133.08 29.328H134.438L131.428 37H129.944L126.934 29.328H128.306L130.7 35.824ZM142.691 32.87C142.691 33.1127 142.677 33.3693 142.649 33.64H136.517C136.564 34.396 136.821 34.9887 137.287 35.418C137.763 35.838 138.337 36.048 139.009 36.048C139.56 36.048 140.017 35.922 140.381 35.67C140.755 35.4087 141.016 35.0633 141.165 34.634H142.537C142.332 35.3713 141.921 35.9733 141.305 36.44C140.689 36.8973 139.924 37.126 139.009 37.126C138.281 37.126 137.628 36.9627 137.049 36.636C136.48 36.3093 136.032 35.8473 135.705 35.25C135.379 34.6433 135.215 33.9433 135.215 33.15C135.215 32.3567 135.374 31.6613 135.691 31.064C136.009 30.4667 136.452 30.0093 137.021 29.692C137.6 29.3653 138.263 29.202 139.009 29.202C139.737 29.202 140.381 29.3607 140.941 29.678C141.501 29.9953 141.931 30.434 142.229 30.994C142.537 31.5447 142.691 32.17 142.691 32.87ZM141.375 32.604C141.375 32.1187 141.268 31.7033 141.053 31.358C140.839 31.0033 140.545 30.7373 140.171 30.56C139.807 30.3733 139.401 30.28 138.953 30.28C138.309 30.28 137.759 30.4853 137.301 30.896C136.853 31.3067 136.597 31.876 136.531 32.604H141.375ZM148.111 29.188C149.044 29.188 149.8 29.4727 150.379 30.042C150.958 30.602 151.247 31.414 151.247 32.478V37H149.987V32.66C149.987 31.8947 149.796 31.3113 149.413 30.91C149.03 30.4993 148.508 30.294 147.845 30.294C147.173 30.294 146.636 30.504 146.235 30.924C145.843 31.344 145.647 31.9553 145.647 32.758V37H144.373V29.328H145.647V30.42C145.899 30.028 146.24 29.7247 146.669 29.51C147.108 29.2953 147.588 29.188 148.111 29.188ZM152.852 33.136C152.852 32.352 153.011 31.666 153.328 31.078C153.645 30.4807 154.079 30.0187 154.63 29.692C155.19 29.3653 155.815 29.202 156.506 29.202C157.103 29.202 157.659 29.342 158.172 29.622C158.685 29.8927 159.077 30.252 159.348 30.7V26.64H160.636V37H159.348V35.558C159.096 36.0153 158.723 36.3933 158.228 36.692C157.733 36.9813 157.155 37.126 156.492 37.126C155.811 37.126 155.19 36.958 154.63 36.622C154.079 36.286 153.645 35.8147 153.328 35.208C153.011 34.6013 152.852 33.9107 152.852 33.136ZM159.348 33.15C159.348 32.5713 159.231 32.0673 158.998 31.638C158.765 31.2087 158.447 30.882 158.046 30.658C157.654 30.4247 157.22 30.308 156.744 30.308C156.268 30.308 155.834 30.42 155.442 30.644C155.05 30.868 154.737 31.1947 154.504 31.624C154.271 32.0533 154.154 32.5573 154.154 33.136C154.154 33.724 154.271 34.2373 154.504 34.676C154.737 35.1053 155.05 35.4367 155.442 35.67C155.834 35.894 156.268 36.006 156.744 36.006C157.22 36.006 157.654 35.894 158.046 35.67C158.447 35.4367 158.765 35.1053 158.998 34.676C159.231 34.2373 159.348 33.7287 159.348 33.15ZM166.135 37.126C165.416 37.126 164.763 36.9627 164.175 36.636C163.596 36.3093 163.139 35.8473 162.803 35.25C162.476 34.6433 162.313 33.9433 162.313 33.15C162.313 32.366 162.481 31.6753 162.817 31.078C163.162 30.4713 163.629 30.0093 164.217 29.692C164.805 29.3653 165.463 29.202 166.191 29.202C166.919 29.202 167.577 29.3653 168.165 29.692C168.753 30.0093 169.215 30.4667 169.551 31.064C169.896 31.6613 170.069 32.3567 170.069 33.15C170.069 33.9433 169.892 34.6433 169.537 35.25C169.192 35.8473 168.72 36.3093 168.123 36.636C167.526 36.9627 166.863 37.126 166.135 37.126ZM166.135 36.006C166.592 36.006 167.022 35.8987 167.423 35.684C167.824 35.4693 168.146 35.1473 168.389 34.718C168.641 34.2887 168.767 33.766 168.767 33.15C168.767 32.534 168.646 32.0113 168.403 31.582C168.16 31.1527 167.843 30.8353 167.451 30.63C167.059 30.4153 166.634 30.308 166.177 30.308C165.71 30.308 165.281 30.4153 164.889 30.63C164.506 30.8353 164.198 31.1527 163.965 31.582C163.732 32.0113 163.615 32.534 163.615 33.15C163.615 33.7753 163.727 34.3027 163.951 34.732C164.184 35.1613 164.492 35.4833 164.875 35.698C165.258 35.9033 165.678 36.006 166.135 36.006ZM173.018 30.574C173.242 30.1353 173.559 29.7947 173.97 29.552C174.39 29.3093 174.899 29.188 175.496 29.188V30.504H175.16C173.732 30.504 173.018 31.2787 173.018 32.828V37H171.744V29.328H173.018V30.574ZM179.683 37.126C179.095 37.126 178.567 37.028 178.101 36.832C177.634 36.6267 177.265 36.3467 176.995 35.992C176.724 35.628 176.575 35.2127 176.547 34.746H177.863C177.9 35.1287 178.077 35.4413 178.395 35.684C178.721 35.9267 179.146 36.048 179.669 36.048C180.154 36.048 180.537 35.9407 180.817 35.726C181.097 35.5113 181.237 35.2407 181.237 34.914C181.237 34.578 181.087 34.3307 180.789 34.172C180.49 34.004 180.028 33.8407 179.403 33.682C178.833 33.5327 178.367 33.3833 178.003 33.234C177.648 33.0753 177.34 32.8467 177.079 32.548C176.827 32.24 176.701 31.8387 176.701 31.344C176.701 30.952 176.817 30.5927 177.051 30.266C177.284 29.9393 177.615 29.6827 178.045 29.496C178.474 29.3 178.964 29.202 179.515 29.202C180.364 29.202 181.05 29.4167 181.573 29.846C182.095 30.2753 182.375 30.8633 182.413 31.61H181.139C181.111 31.2087 180.947 30.8867 180.649 30.644C180.359 30.4013 179.967 30.28 179.473 30.28C179.015 30.28 178.651 30.378 178.381 30.574C178.11 30.77 177.975 31.0267 177.975 31.344C177.975 31.596 178.054 31.806 178.213 31.974C178.381 32.1327 178.586 32.2633 178.829 32.366C179.081 32.4593 179.426 32.5667 179.865 32.688C180.415 32.8373 180.863 32.9867 181.209 33.136C181.554 33.276 181.848 33.4907 182.091 33.78C182.343 34.0693 182.473 34.4473 182.483 34.914C182.483 35.334 182.366 35.712 182.133 36.048C181.899 36.384 181.568 36.65 181.139 36.846C180.719 37.0327 180.233 37.126 179.683 37.126ZM187.538 33.136C187.538 32.352 187.696 31.666 188.014 31.078C188.331 30.4807 188.765 30.0187 189.316 29.692C189.876 29.3653 190.496 29.202 191.178 29.202C191.85 29.202 192.433 29.3467 192.928 29.636C193.422 29.9253 193.791 30.2893 194.034 30.728V29.328H195.322V37H194.034V35.572C193.782 36.02 193.404 36.3933 192.9 36.692C192.405 36.9813 191.826 37.126 191.164 37.126C190.482 37.126 189.866 36.958 189.316 36.622C188.765 36.286 188.331 35.8147 188.014 35.208C187.696 34.6013 187.538 33.9107 187.538 33.136ZM194.034 33.15C194.034 32.5713 193.917 32.0673 193.684 31.638C193.45 31.2087 193.133 30.882 192.732 30.658C192.34 30.4247 191.906 30.308 191.43 30.308C190.954 30.308 190.52 30.42 190.128 30.644C189.736 30.868 189.423 31.1947 189.19 31.624C188.956 32.0533 188.84 32.5573 188.84 33.136C188.84 33.724 188.956 34.2373 189.19 34.676C189.423 35.1053 189.736 35.4367 190.128 35.67C190.52 35.894 190.954 36.006 191.43 36.006C191.906 36.006 192.34 35.894 192.732 35.67C193.133 35.4367 193.45 35.1053 193.684 34.676C193.917 34.2373 194.034 33.7287 194.034 33.15ZM198.748 30.756C199.01 30.2987 199.392 29.9253 199.896 29.636C200.4 29.3467 200.974 29.202 201.618 29.202C202.309 29.202 202.93 29.3653 203.48 29.692C204.031 30.0187 204.465 30.4807 204.782 31.078C205.1 31.666 205.258 32.352 205.258 33.136C205.258 33.9107 205.1 34.6013 204.782 35.208C204.465 35.8147 204.026 36.286 203.466 36.622C202.916 36.958 202.3 37.126 201.618 37.126C200.956 37.126 200.372 36.9813 199.868 36.692C199.374 36.4027 199 36.034 198.748 35.586V37H197.474V26.64H198.748V30.756ZM203.956 33.136C203.956 32.5573 203.84 32.0533 203.606 31.624C203.373 31.1947 203.056 30.868 202.654 30.644C202.262 30.42 201.828 30.308 201.352 30.308C200.886 30.308 200.452 30.4247 200.05 30.658C199.658 30.882 199.341 31.2133 199.098 31.652C198.865 32.0813 198.748 32.5807 198.748 33.15C198.748 33.7287 198.865 34.2373 199.098 34.676C199.341 35.1053 199.658 35.4367 200.05 35.67C200.452 35.894 200.886 36.006 201.352 36.006C201.828 36.006 202.262 35.894 202.654 35.67C203.056 35.4367 203.373 35.1053 203.606 34.676C203.84 34.2373 203.956 33.724 203.956 33.136ZM210.281 37.126C209.563 37.126 208.909 36.9627 208.321 36.636C207.743 36.3093 207.285 35.8473 206.949 35.25C206.623 34.6433 206.459 33.9433 206.459 33.15C206.459 32.366 206.627 31.6753 206.963 31.078C207.309 30.4713 207.775 30.0093 208.363 29.692C208.951 29.3653 209.609 29.202 210.337 29.202C211.065 29.202 211.723 29.3653 212.311 29.692C212.899 30.0093 213.361 30.4667 213.697 31.064C214.043 31.6613 214.215 32.3567 214.215 33.15C214.215 33.9433 214.038 34.6433 213.683 35.25C213.338 35.8473 212.867 36.3093 212.269 36.636C211.672 36.9627 211.009 37.126 210.281 37.126ZM210.281 36.006C210.739 36.006 211.168 35.8987 211.569 35.684C211.971 35.4693 212.293 35.1473 212.535 34.718C212.787 34.2887 212.913 33.766 212.913 33.15C212.913 32.534 212.792 32.0113 212.549 31.582C212.307 31.1527 211.989 30.8353 211.597 30.63C211.205 30.4153 210.781 30.308 210.323 30.308C209.857 30.308 209.427 30.4153 209.035 30.63C208.653 30.8353 208.345 31.1527 208.111 31.582C207.878 32.0113 207.761 32.534 207.761 33.15C207.761 33.7753 207.873 34.3027 208.097 34.732C208.331 35.1613 208.639 35.4833 209.021 35.698C209.404 35.9033 209.824 36.006 210.281 36.006ZM222.695 29.328V37H221.421V35.866C221.178 36.258 220.837 36.566 220.399 36.79C219.969 37.0047 219.493 37.112 218.971 37.112C218.373 37.112 217.837 36.9907 217.361 36.748C216.885 36.496 216.507 36.1227 216.227 35.628C215.956 35.1333 215.821 34.5313 215.821 33.822V29.328H217.081V33.654C217.081 34.41 217.272 34.9933 217.655 35.404C218.037 35.8053 218.56 36.006 219.223 36.006C219.904 36.006 220.441 35.796 220.833 35.376C221.225 34.956 221.421 34.3447 221.421 33.542V29.328H222.695ZM226.4 30.378V34.9C226.4 35.2733 226.479 35.5393 226.638 35.698C226.796 35.8473 227.072 35.922 227.464 35.922H228.402V37H227.254C226.544 37 226.012 36.8367 225.658 36.51C225.303 36.1833 225.126 35.6467 225.126 34.9V30.378H224.132V29.328H225.126V27.396H226.4V29.328H228.402V30.378H226.4ZM235.232 30.378V34.9C235.232 35.2733 235.311 35.5393 235.47 35.698C235.628 35.8473 235.904 35.922 236.296 35.922H237.234V37H236.086C235.376 37 234.844 36.8367 234.49 36.51C234.135 36.1833 233.958 35.6467 233.958 34.9V30.378H232.964V29.328H233.958V27.396H235.232V29.328H237.234V30.378H235.232ZM242.585 29.188C243.164 29.188 243.687 29.314 244.153 29.566C244.62 29.8087 244.984 30.1773 245.245 30.672C245.516 31.1667 245.651 31.7687 245.651 32.478V37H244.391V32.66C244.391 31.8947 244.2 31.3113 243.817 30.91C243.435 30.4993 242.912 30.294 242.249 30.294C241.577 30.294 241.041 30.504 240.639 30.924C240.247 31.344 240.051 31.9553 240.051 32.758V37H238.777V26.64H240.051V30.42C240.303 30.028 240.649 29.7247 241.087 29.51C241.535 29.2953 242.035 29.188 242.585 29.188ZM254.732 32.87C254.732 33.1127 254.718 33.3693 254.69 33.64H248.558C248.605 34.396 248.862 34.9887 249.328 35.418C249.804 35.838 250.378 36.048 251.05 36.048C251.601 36.048 252.058 35.922 252.422 35.67C252.796 35.4087 253.057 35.0633 253.206 34.634H254.578C254.373 35.3713 253.962 35.9733 253.346 36.44C252.73 36.8973 251.965 37.126 251.05 37.126C250.322 37.126 249.669 36.9627 249.09 36.636C248.521 36.3093 248.073 35.8473 247.746 35.25C247.42 34.6433 247.256 33.9433 247.256 33.15C247.256 32.3567 247.415 31.6613 247.732 31.064C248.05 30.4667 248.493 30.0093 249.062 29.692C249.641 29.3653 250.304 29.202 251.05 29.202C251.778 29.202 252.422 29.3607 252.982 29.678C253.542 29.9953 253.972 30.434 254.27 30.994C254.578 31.5447 254.732 32.17 254.732 32.87ZM253.416 32.604C253.416 32.1187 253.309 31.7033 253.094 31.358C252.88 31.0033 252.586 30.7373 252.212 30.56C251.848 30.3733 251.442 30.28 250.994 30.28C250.35 30.28 249.8 30.4853 249.342 30.896C248.894 31.3067 248.638 31.876 248.572 32.604H253.416ZM261.42 30.742C261.672 30.3033 262.046 29.9393 262.54 29.65C263.044 29.3513 263.628 29.202 264.29 29.202C264.972 29.202 265.588 29.3653 266.138 29.692C266.698 30.0187 267.137 30.4807 267.454 31.078C267.772 31.666 267.93 32.352 267.93 33.136C267.93 33.9107 267.772 34.6013 267.454 35.208C267.137 35.8147 266.698 36.286 266.138 36.622C265.588 36.958 264.972 37.126 264.29 37.126C263.637 37.126 263.058 36.9813 262.554 36.692C262.06 36.3933 261.682 36.0247 261.42 35.586V40.64H260.146V29.328H261.42V30.742ZM266.628 33.136C266.628 32.5573 266.512 32.0533 266.278 31.624C266.045 31.1947 265.728 30.868 265.326 30.644C264.934 30.42 264.5 30.308 264.024 30.308C263.558 30.308 263.124 30.4247 262.722 30.658C262.33 30.882 262.013 31.2133 261.77 31.652C261.537 32.0813 261.42 32.5807 261.42 33.15C261.42 33.7287 261.537 34.2373 261.77 34.676C262.013 35.1053 262.33 35.4367 262.722 35.67C263.124 35.894 263.558 36.006 264.024 36.006C264.5 36.006 264.934 35.894 265.326 35.67C265.728 35.4367 266.045 35.1053 266.278 34.676C266.512 34.2373 266.628 33.724 266.628 33.136ZM270.881 30.574C271.105 30.1353 271.423 29.7947 271.833 29.552C272.253 29.3093 272.762 29.188 273.359 29.188V30.504H273.023C271.595 30.504 270.881 31.2787 270.881 32.828V37H269.607V29.328H270.881V30.574ZM275.488 28.082C275.245 28.082 275.04 27.998 274.872 27.83C274.704 27.662 274.62 27.4567 274.62 27.214C274.62 26.9713 274.704 26.766 274.872 26.598C275.04 26.43 275.245 26.346 275.488 26.346C275.721 26.346 275.917 26.43 276.076 26.598C276.244 26.766 276.328 26.9713 276.328 27.214C276.328 27.4567 276.244 27.662 276.076 27.83C275.917 27.998 275.721 28.082 275.488 28.082ZM276.104 29.328V37H274.83V29.328H276.104ZM277.799 33.15C277.799 32.3567 277.958 31.666 278.275 31.078C278.593 30.4807 279.031 30.0187 279.591 29.692C280.161 29.3653 280.809 29.202 281.537 29.202C282.48 29.202 283.255 29.4307 283.861 29.888C284.477 30.3453 284.883 30.98 285.079 31.792H283.707C283.577 31.3253 283.32 30.9567 282.937 30.686C282.564 30.4153 282.097 30.28 281.537 30.28C280.809 30.28 280.221 30.532 279.773 31.036C279.325 31.5307 279.101 32.2353 279.101 33.15C279.101 34.074 279.325 34.788 279.773 35.292C280.221 35.796 280.809 36.048 281.537 36.048C282.097 36.048 282.564 35.9173 282.937 35.656C283.311 35.3947 283.567 35.0213 283.707 34.536H285.079C284.874 35.32 284.463 35.95 283.847 36.426C283.231 36.8927 282.461 37.126 281.537 37.126C280.809 37.126 280.161 36.9627 279.591 36.636C279.031 36.3093 278.593 35.8473 278.275 35.25C277.958 34.6527 277.799 33.9527 277.799 33.15ZM293.779 32.87C293.779 33.1127 293.765 33.3693 293.737 33.64H287.605C287.652 34.396 287.909 34.9887 288.375 35.418C288.851 35.838 289.425 36.048 290.097 36.048C290.648 36.048 291.105 35.922 291.469 35.67C291.843 35.4087 292.104 35.0633 292.253 34.634H293.625C293.42 35.3713 293.009 35.9733 292.393 36.44C291.777 36.8973 291.012 37.126 290.097 37.126C289.369 37.126 288.716 36.9627 288.137 36.636C287.568 36.3093 287.12 35.8473 286.793 35.25C286.467 34.6433 286.303 33.9433 286.303 33.15C286.303 32.3567 286.462 31.6613 286.779 31.064C287.097 30.4667 287.54 30.0093 288.109 29.692C288.688 29.3653 289.351 29.202 290.097 29.202C290.825 29.202 291.469 29.3607 292.029 29.678C292.589 29.9953 293.019 30.434 293.317 30.994C293.625 31.5447 293.779 32.17 293.779 32.87ZM292.463 32.604C292.463 32.1187 292.356 31.7033 292.141 31.358C291.927 31.0033 291.633 30.7373 291.259 30.56C290.895 30.3733 290.489 30.28 290.041 30.28C289.397 30.28 288.847 30.4853 288.389 30.896C287.941 31.3067 287.685 31.876 287.619 32.604H292.463ZM30.632 51.378V55.9C30.632 56.2733 30.7113 56.5393 30.87 56.698C31.0287 56.8473 31.304 56.922 31.696 56.922H32.634V58H31.486C30.7767 58 30.2447 57.8367 29.89 57.51C29.5353 57.1833 29.358 56.6467 29.358 55.9V51.378H28.364V50.328H29.358V48.396H30.632V50.328H32.634V51.378H30.632ZM37.9856 50.188C38.5643 50.188 39.0869 50.314 39.5536 50.566C40.0203 50.8087 40.3843 51.1773 40.6456 51.672C40.9163 52.1667 41.0516 52.7687 41.0516 53.478V58H39.7916V53.66C39.7916 52.8947 39.6003 52.3113 39.2176 51.91C38.8349 51.4993 38.3123 51.294 37.6496 51.294C36.9776 51.294 36.4409 51.504 36.0396 51.924C35.6476 52.344 35.4516 52.9553 35.4516 53.758V58H34.1776V47.64H35.4516V51.42C35.7036 51.028 36.0489 50.7247 36.4876 50.51C36.9356 50.2953 37.4349 50.188 37.9856 50.188ZM42.6567 54.136C42.6567 53.352 42.8154 52.666 43.1327 52.078C43.45 51.4807 43.884 51.0187 44.4347 50.692C44.9947 50.3653 45.6154 50.202 46.2967 50.202C46.9687 50.202 47.552 50.3467 48.0467 50.636C48.5414 50.9253 48.91 51.2893 49.1527 51.728V50.328H50.4407V58H49.1527V56.572C48.9007 57.02 48.5227 57.3933 48.0187 57.692C47.524 57.9813 46.9454 58.126 46.2827 58.126C45.6014 58.126 44.9854 57.958 44.4347 57.622C43.884 57.286 43.45 56.8147 43.1327 56.208C42.8154 55.6013 42.6567 54.9107 42.6567 54.136ZM49.1527 54.15C49.1527 53.5713 49.036 53.0673 48.8027 52.638C48.5694 52.2087 48.252 51.882 47.8507 51.658C47.4587 51.4247 47.0247 51.308 46.5487 51.308C46.0727 51.308 45.6387 51.42 45.2467 51.644C44.8547 51.868 44.542 52.1947 44.3087 52.624C44.0754 53.0533 43.9587 53.5573 43.9587 54.136C43.9587 54.724 44.0754 55.2373 44.3087 55.676C44.542 56.1053 44.8547 56.4367 45.2467 56.67C45.6387 56.894 46.0727 57.006 46.5487 57.006C47.0247 57.006 47.4587 56.894 47.8507 56.67C48.252 56.4367 48.5694 56.1053 48.8027 55.676C49.036 55.2373 49.1527 54.7287 49.1527 54.15ZM54.1476 51.378V55.9C54.1476 56.2733 54.227 56.5393 54.3856 56.698C54.5443 56.8473 54.8196 56.922 55.2116 56.922H56.1496V58H55.0016C54.2923 58 53.7603 57.8367 53.4056 57.51C53.051 57.1833 52.8736 56.6467 52.8736 55.9V51.378H51.8796V50.328H52.8736V48.396H54.1476V50.328H56.1496V51.378H54.1476ZM68.0337 50.328L63.4137 61.612H62.0977L63.6097 57.916L60.5157 50.328H61.9297L64.3377 56.544L66.7177 50.328H68.0337ZM72.6603 58.126C71.9417 58.126 71.2883 57.9627 70.7003 57.636C70.1217 57.3093 69.6643 56.8473 69.3283 56.25C69.0017 55.6433 68.8383 54.9433 68.8383 54.15C68.8383 53.366 69.0063 52.6753 69.3423 52.078C69.6877 51.4713 70.1543 51.0093 70.7423 50.692C71.3303 50.3653 71.9883 50.202 72.7163 50.202C73.4443 50.202 74.1023 50.3653 74.6903 50.692C75.2783 51.0093 75.7403 51.4667 76.0763 52.064C76.4217 52.6613 76.5943 53.3567 76.5943 54.15C76.5943 54.9433 76.417 55.6433 76.0623 56.25C75.717 56.8473 75.2457 57.3093 74.6483 57.636C74.051 57.9627 73.3883 58.126 72.6603 58.126ZM72.6603 57.006C73.1177 57.006 73.547 56.8987 73.9483 56.684C74.3497 56.4693 74.6717 56.1473 74.9143 55.718C75.1663 55.2887 75.2923 54.766 75.2923 54.15C75.2923 53.534 75.171 53.0113 74.9283 52.582C74.6857 52.1527 74.3683 51.8353 73.9763 51.63C73.5843 51.4153 73.1597 51.308 72.7023 51.308C72.2357 51.308 71.8063 51.4153 71.4143 51.63C71.0317 51.8353 70.7237 52.1527 70.4903 52.582C70.257 53.0113 70.1403 53.534 70.1403 54.15C70.1403 54.7753 70.2523 55.3027 70.4763 55.732C70.7097 56.1613 71.0177 56.4833 71.4003 56.698C71.783 56.9033 72.203 57.006 72.6603 57.006ZM85.0734 50.328V58H83.7994V56.866C83.5567 57.258 83.2161 57.566 82.7774 57.79C82.3481 58.0047 81.8721 58.112 81.3494 58.112C80.7521 58.112 80.2154 57.9907 79.7394 57.748C79.2634 57.496 78.8854 57.1227 78.6054 56.628C78.3347 56.1333 78.1994 55.5313 78.1994 54.822V50.328H79.4594V54.654C79.4594 55.41 79.6507 55.9933 80.0334 56.404C80.4161 56.8053 80.9387 57.006 81.6014 57.006C82.2827 57.006 82.8194 56.796 83.2114 56.376C83.6034 55.956 83.7994 55.3447 83.7994 54.542V50.328H85.0734ZM92.2309 51.756C92.4922 51.2987 92.8749 50.9253 93.3789 50.636C93.8829 50.3467 94.4569 50.202 95.1009 50.202C95.7916 50.202 96.4122 50.3653 96.9629 50.692C97.5136 51.0187 97.9476 51.4807 98.2649 52.078C98.5822 52.666 98.7409 53.352 98.7409 54.136C98.7409 54.9107 98.5822 55.6013 98.2649 56.208C97.9476 56.8147 97.5089 57.286 96.9489 57.622C96.3982 57.958 95.7822 58.126 95.1009 58.126C94.4382 58.126 93.8549 57.9813 93.3509 57.692C92.8562 57.4027 92.4829 57.034 92.2309 56.586V58H90.9569V47.64H92.2309V51.756ZM97.4389 54.136C97.4389 53.5573 97.3222 53.0533 97.0889 52.624C96.8556 52.1947 96.5382 51.868 96.1369 51.644C95.7449 51.42 95.3109 51.308 94.8349 51.308C94.3682 51.308 93.9342 51.4247 93.5329 51.658C93.1409 51.882 92.8236 52.2133 92.5809 52.652C92.3476 53.0813 92.2309 53.5807 92.2309 54.15C92.2309 54.7287 92.3476 55.2373 92.5809 55.676C92.8236 56.1053 93.1409 56.4367 93.5329 56.67C93.9342 56.894 94.3682 57.006 94.8349 57.006C95.3109 57.006 95.7449 56.894 96.1369 56.67C96.5382 56.4367 96.8556 56.1053 97.0889 55.676C97.3222 55.2373 97.4389 54.724 97.4389 54.136ZM107.418 53.87C107.418 54.1127 107.404 54.3693 107.376 54.64H101.244C101.291 55.396 101.547 55.9887 102.014 56.418C102.49 56.838 103.064 57.048 103.736 57.048C104.287 57.048 104.744 56.922 105.108 56.67C105.481 56.4087 105.743 56.0633 105.892 55.634H107.264C107.059 56.3713 106.648 56.9733 106.032 57.44C105.416 57.8973 104.651 58.126 103.736 58.126C103.008 58.126 102.355 57.9627 101.776 57.636C101.207 57.3093 100.759 56.8473 100.432 56.25C100.105 55.6433 99.9418 54.9433 99.9418 54.15C99.9418 53.3567 100.101 52.6613 100.418 52.064C100.735 51.4667 101.179 51.0093 101.748 50.692C102.327 50.3653 102.989 50.202 103.736 50.202C104.464 50.202 105.108 50.3607 105.668 50.678C106.228 50.9953 106.657 51.434 106.956 51.994C107.264 52.5447 107.418 53.17 107.418 53.87ZM106.102 53.604C106.102 53.1187 105.995 52.7033 105.78 52.358C105.565 52.0033 105.271 51.7373 104.898 51.56C104.534 51.3733 104.128 51.28 103.68 51.28C103.036 51.28 102.485 51.4853 102.028 51.896C101.58 52.3067 101.323 52.876 101.258 53.604H106.102ZM110.373 47.64V58H109.099V47.64H110.373ZM113.203 49.082C112.96 49.082 112.755 48.998 112.587 48.83C112.419 48.662 112.335 48.4567 112.335 48.214C112.335 47.9713 112.419 47.766 112.587 47.598C112.755 47.43 112.96 47.346 113.203 47.346C113.436 47.346 113.632 47.43 113.791 47.598C113.959 47.766 114.043 47.9713 114.043 48.214C114.043 48.4567 113.959 48.662 113.791 48.83C113.632 48.998 113.436 49.082 113.203 49.082ZM113.819 50.328V58H112.545V50.328H113.819ZM122.99 53.87C122.99 54.1127 122.976 54.3693 122.948 54.64H116.816C116.863 55.396 117.119 55.9887 117.586 56.418C118.062 56.838 118.636 57.048 119.308 57.048C119.859 57.048 120.316 56.922 120.68 56.67C121.053 56.4087 121.315 56.0633 121.464 55.634H122.836C122.631 56.3713 122.22 56.9733 121.604 57.44C120.988 57.8973 120.223 58.126 119.308 58.126C118.58 58.126 117.927 57.9627 117.348 57.636C116.779 57.3093 116.331 56.8473 116.004 56.25C115.677 55.6433 115.514 54.9433 115.514 54.15C115.514 53.3567 115.673 52.6613 115.99 52.064C116.307 51.4667 116.751 51.0093 117.32 50.692C117.899 50.3653 118.561 50.202 119.308 50.202C120.036 50.202 120.68 50.3607 121.24 50.678C121.8 50.9953 122.229 51.434 122.528 51.994C122.836 52.5447 122.99 53.17 122.99 53.87ZM121.674 53.604C121.674 53.1187 121.567 52.7033 121.352 52.358C121.137 52.0033 120.843 51.7373 120.47 51.56C120.106 51.3733 119.7 51.28 119.252 51.28C118.608 51.28 118.057 51.4853 117.6 51.896C117.152 52.3067 116.895 52.876 116.83 53.604H121.674ZM127.528 56.824L129.908 50.328H131.266L128.256 58H126.772L123.762 50.328H125.134L127.528 56.824ZM139.519 53.87C139.519 54.1127 139.505 54.3693 139.477 54.64H133.345C133.392 55.396 133.649 55.9887 134.115 56.418C134.591 56.838 135.165 57.048 135.837 57.048C136.388 57.048 136.845 56.922 137.209 56.67C137.583 56.4087 137.844 56.0633 137.993 55.634H139.365C139.16 56.3713 138.749 56.9733 138.133 57.44C137.517 57.8973 136.752 58.126 135.837 58.126C135.109 58.126 134.456 57.9627 133.877 57.636C133.308 57.3093 132.86 56.8473 132.533 56.25C132.207 55.6433 132.043 54.9433 132.043 54.15C132.043 53.3567 132.202 52.6613 132.519 52.064C132.837 51.4667 133.28 51.0093 133.849 50.692C134.428 50.3653 135.091 50.202 135.837 50.202C136.565 50.202 137.209 50.3607 137.769 50.678C138.329 50.9953 138.759 51.434 139.057 51.994C139.365 52.5447 139.519 53.17 139.519 53.87ZM138.203 53.604C138.203 53.1187 138.096 52.7033 137.881 52.358C137.667 52.0033 137.373 51.7373 136.999 51.56C136.635 51.3733 136.229 51.28 135.781 51.28C135.137 51.28 134.587 51.4853 134.129 51.896C133.681 52.3067 133.425 52.876 133.359 53.604H138.203ZM145.591 49.082C145.349 49.082 145.143 48.998 144.975 48.83C144.807 48.662 144.723 48.4567 144.723 48.214C144.723 47.9713 144.807 47.766 144.975 47.598C145.143 47.43 145.349 47.346 145.591 47.346C145.825 47.346 146.021 47.43 146.179 47.598C146.347 47.766 146.431 47.9713 146.431 48.214C146.431 48.4567 146.347 48.662 146.179 48.83C146.021 48.998 145.825 49.082 145.591 49.082ZM146.207 50.328V58H144.933V50.328H146.207ZM151.095 58.126C150.507 58.126 149.979 58.028 149.513 57.832C149.046 57.6267 148.677 57.3467 148.407 56.992C148.136 56.628 147.987 56.2127 147.959 55.746H149.275C149.312 56.1287 149.489 56.4413 149.807 56.684C150.133 56.9267 150.558 57.048 151.081 57.048C151.566 57.048 151.949 56.9407 152.229 56.726C152.509 56.5113 152.649 56.2407 152.649 55.914C152.649 55.578 152.499 55.3307 152.201 55.172C151.902 55.004 151.44 54.8407 150.815 54.682C150.245 54.5327 149.779 54.3833 149.415 54.234C149.06 54.0753 148.752 53.8467 148.491 53.548C148.239 53.24 148.113 52.8387 148.113 52.344C148.113 51.952 148.229 51.5927 148.463 51.266C148.696 50.9393 149.027 50.6827 149.457 50.496C149.886 50.3 150.376 50.202 150.927 50.202C151.776 50.202 152.462 50.4167 152.985 50.846C153.507 51.2753 153.787 51.8633 153.825 52.61H152.551C152.523 52.2087 152.359 51.8867 152.061 51.644C151.771 51.4013 151.379 51.28 150.885 51.28C150.427 51.28 150.063 51.378 149.793 51.574C149.522 51.77 149.387 52.0267 149.387 52.344C149.387 52.596 149.466 52.806 149.625 52.974C149.793 53.1327 149.998 53.2633 150.241 53.366C150.493 53.4593 150.838 53.5667 151.277 53.688C151.827 53.8373 152.275 53.9867 152.621 54.136C152.966 54.276 153.26 54.4907 153.503 54.78C153.755 55.0693 153.885 55.4473 153.895 55.914C153.895 56.334 153.778 56.712 153.545 57.048C153.311 57.384 152.98 57.65 152.551 57.846C152.131 58.0327 151.645 58.126 151.095 58.126ZM158.95 54.136C158.95 53.352 159.108 52.666 159.426 52.078C159.743 51.4807 160.177 51.0187 160.728 50.692C161.288 50.3653 161.908 50.202 162.59 50.202C163.262 50.202 163.845 50.3467 164.34 50.636C164.834 50.9253 165.203 51.2893 165.446 51.728V50.328H166.734V58H165.446V56.572C165.194 57.02 164.816 57.3933 164.312 57.692C163.817 57.9813 163.238 58.126 162.576 58.126C161.894 58.126 161.278 57.958 160.728 57.622C160.177 57.286 159.743 56.8147 159.426 56.208C159.108 55.6013 158.95 54.9107 158.95 54.136ZM165.446 54.15C165.446 53.5713 165.329 53.0673 165.096 52.638C164.862 52.2087 164.545 51.882 164.144 51.658C163.752 51.4247 163.318 51.308 162.842 51.308C162.366 51.308 161.932 51.42 161.54 51.644C161.148 51.868 160.835 52.1947 160.602 52.624C160.368 53.0533 160.252 53.5573 160.252 54.136C160.252 54.724 160.368 55.2373 160.602 55.676C160.835 56.1053 161.148 56.4367 161.54 56.67C161.932 56.894 162.366 57.006 162.842 57.006C163.318 57.006 163.752 56.894 164.144 56.67C164.545 56.4367 164.862 56.1053 165.096 55.676C165.329 55.2373 165.446 54.7287 165.446 54.15ZM170.161 51.742C170.413 51.3033 170.786 50.9393 171.281 50.65C171.785 50.3513 172.368 50.202 173.031 50.202C173.712 50.202 174.328 50.3653 174.879 50.692C175.439 51.0187 175.877 51.4807 176.195 52.078C176.512 52.666 176.671 53.352 176.671 54.136C176.671 54.9107 176.512 55.6013 176.195 56.208C175.877 56.8147 175.439 57.286 174.879 57.622C174.328 57.958 173.712 58.126 173.031 58.126C172.377 58.126 171.799 57.9813 171.295 57.692C170.8 57.3933 170.422 57.0247 170.161 56.586V61.64H168.887V50.328H170.161V51.742ZM175.369 54.136C175.369 53.5573 175.252 53.0533 175.019 52.624C174.785 52.1947 174.468 51.868 174.067 51.644C173.675 51.42 173.241 51.308 172.765 51.308C172.298 51.308 171.864 51.4247 171.463 51.658C171.071 51.882 170.753 52.2133 170.511 52.652C170.277 53.0813 170.161 53.5807 170.161 54.15C170.161 54.7287 170.277 55.2373 170.511 55.676C170.753 56.1053 171.071 56.4367 171.463 56.67C171.864 56.894 172.298 57.006 172.765 57.006C173.241 57.006 173.675 56.894 174.067 56.67C174.468 56.4367 174.785 56.1053 175.019 55.676C175.252 55.2373 175.369 54.724 175.369 54.136ZM179.622 51.742C179.874 51.3033 180.247 50.9393 180.742 50.65C181.246 50.3513 181.829 50.202 182.492 50.202C183.173 50.202 183.789 50.3653 184.34 50.692C184.9 51.0187 185.338 51.4807 185.656 52.078C185.973 52.666 186.132 53.352 186.132 54.136C186.132 54.9107 185.973 55.6013 185.656 56.208C185.338 56.8147 184.9 57.286 184.34 57.622C183.789 57.958 183.173 58.126 182.492 58.126C181.838 58.126 181.26 57.9813 180.756 57.692C180.261 57.3933 179.883 57.0247 179.622 56.586V61.64H178.348V50.328H179.622V51.742ZM184.83 54.136C184.83 53.5573 184.713 53.0533 184.48 52.624C184.246 52.1947 183.929 51.868 183.528 51.644C183.136 51.42 182.702 51.308 182.226 51.308C181.759 51.308 181.325 51.4247 180.924 51.658C180.532 51.882 180.214 52.2133 179.972 52.652C179.738 53.0813 179.622 53.5807 179.622 54.15C179.622 54.7287 179.738 55.2373 179.972 55.676C180.214 56.1053 180.532 56.4367 180.924 56.67C181.325 56.894 181.759 57.006 182.226 57.006C182.702 57.006 183.136 56.894 183.528 56.67C183.929 56.4367 184.246 56.1053 184.48 55.676C184.713 55.2373 184.83 54.724 184.83 54.136ZM189.082 51.574C189.306 51.1353 189.624 50.7947 190.034 50.552C190.454 50.3093 190.963 50.188 191.56 50.188V51.504H191.224C189.796 51.504 189.082 52.2787 189.082 53.828V58H187.808V50.328H189.082V51.574ZM196.377 58.126C195.658 58.126 195.005 57.9627 194.417 57.636C193.838 57.3093 193.381 56.8473 193.045 56.25C192.718 55.6433 192.555 54.9433 192.555 54.15C192.555 53.366 192.723 52.6753 193.059 52.078C193.404 51.4713 193.871 51.0093 194.459 50.692C195.047 50.3653 195.705 50.202 196.433 50.202C197.161 50.202 197.819 50.3653 198.407 50.692C198.995 51.0093 199.457 51.4667 199.793 52.064C200.138 52.6613 200.311 53.3567 200.311 54.15C200.311 54.9433 200.134 55.6433 199.779 56.25C199.434 56.8473 198.962 57.3093 198.365 57.636C197.768 57.9627 197.105 58.126 196.377 58.126ZM196.377 57.006C196.834 57.006 197.264 56.8987 197.665 56.684C198.066 56.4693 198.388 56.1473 198.631 55.718C198.883 55.2887 199.009 54.766 199.009 54.15C199.009 53.534 198.888 53.0113 198.645 52.582C198.402 52.1527 198.085 51.8353 197.693 51.63C197.301 51.4153 196.876 51.308 196.419 51.308C195.952 51.308 195.523 51.4153 195.131 51.63C194.748 51.8353 194.44 52.1527 194.207 52.582C193.974 53.0113 193.857 53.534 193.857 54.15C193.857 54.7753 193.969 55.3027 194.193 55.732C194.426 56.1613 194.734 56.4833 195.117 56.698C195.5 56.9033 195.92 57.006 196.377 57.006ZM203.26 51.742C203.512 51.3033 203.886 50.9393 204.38 50.65C204.884 50.3513 205.468 50.202 206.13 50.202C206.812 50.202 207.428 50.3653 207.978 50.692C208.538 51.0187 208.977 51.4807 209.294 52.078C209.612 52.666 209.77 53.352 209.77 54.136C209.77 54.9107 209.612 55.6013 209.294 56.208C208.977 56.8147 208.538 57.286 207.978 57.622C207.428 57.958 206.812 58.126 206.13 58.126C205.477 58.126 204.898 57.9813 204.394 57.692C203.9 57.3933 203.522 57.0247 203.26 56.586V61.64H201.986V50.328H203.26V51.742ZM208.468 54.136C208.468 53.5573 208.352 53.0533 208.118 52.624C207.885 52.1947 207.568 51.868 207.166 51.644C206.774 51.42 206.34 51.308 205.864 51.308C205.398 51.308 204.964 51.4247 204.562 51.658C204.17 51.882 203.853 52.2133 203.61 52.652C203.377 53.0813 203.26 53.5807 203.26 54.15C203.26 54.7287 203.377 55.2373 203.61 55.676C203.853 56.1053 204.17 56.4367 204.562 56.67C204.964 56.894 205.398 57.006 205.864 57.006C206.34 57.006 206.774 56.894 207.166 56.67C207.568 56.4367 207.885 56.1053 208.118 55.676C208.352 55.2373 208.468 54.724 208.468 54.136ZM212.721 51.574C212.945 51.1353 213.262 50.7947 213.673 50.552C214.093 50.3093 214.602 50.188 215.199 50.188V51.504H214.863C213.435 51.504 212.721 52.2787 212.721 53.828V58H211.447V50.328H212.721V51.574ZM217.328 49.082C217.085 49.082 216.88 48.998 216.712 48.83C216.544 48.662 216.46 48.4567 216.46 48.214C216.46 47.9713 216.544 47.766 216.712 47.598C216.88 47.43 217.085 47.346 217.328 47.346C217.561 47.346 217.757 47.43 217.916 47.598C218.084 47.766 218.168 47.9713 218.168 48.214C218.168 48.4567 218.084 48.662 217.916 48.83C217.757 48.998 217.561 49.082 217.328 49.082ZM217.944 50.328V58H216.67V50.328H217.944ZM219.639 54.136C219.639 53.352 219.798 52.666 220.115 52.078C220.432 51.4807 220.866 51.0187 221.417 50.692C221.977 50.3653 222.598 50.202 223.279 50.202C223.951 50.202 224.534 50.3467 225.029 50.636C225.524 50.9253 225.892 51.2893 226.135 51.728V50.328H227.423V58H226.135V56.572C225.883 57.02 225.505 57.3933 225.001 57.692C224.506 57.9813 223.928 58.126 223.265 58.126C222.584 58.126 221.968 57.958 221.417 57.622C220.866 57.286 220.432 56.8147 220.115 56.208C219.798 55.6013 219.639 54.9107 219.639 54.136ZM226.135 54.15C226.135 53.5713 226.018 53.0673 225.785 52.638C225.552 52.2087 225.234 51.882 224.833 51.658C224.441 51.4247 224.007 51.308 223.531 51.308C223.055 51.308 222.621 51.42 222.229 51.644C221.837 51.868 221.524 52.1947 221.291 52.624C221.058 53.0533 220.941 53.5573 220.941 54.136C220.941 54.724 221.058 55.2373 221.291 55.676C221.524 56.1053 221.837 56.4367 222.229 56.67C222.621 56.894 223.055 57.006 223.531 57.006C224.007 57.006 224.441 56.894 224.833 56.67C225.234 56.4367 225.552 56.1053 225.785 55.676C226.018 55.2373 226.135 54.7287 226.135 54.15ZM231.13 51.378V55.9C231.13 56.2733 231.209 56.5393 231.368 56.698C231.527 56.8473 231.802 56.922 232.194 56.922H233.132V58H231.984C231.275 58 230.743 57.8367 230.388 57.51C230.033 57.1833 229.856 56.6467 229.856 55.9V51.378H228.862V50.328H229.856V48.396H231.13V50.328H233.132V51.378H231.13ZM241.676 53.87C241.676 54.1127 241.662 54.3693 241.634 54.64H235.502C235.548 55.396 235.805 55.9887 236.272 56.418C236.748 56.838 237.322 57.048 237.994 57.048C238.544 57.048 239.002 56.922 239.366 56.67C239.739 56.4087 240 56.0633 240.15 55.634H241.522C241.316 56.3713 240.906 56.9733 240.29 57.44C239.674 57.8973 238.908 58.126 237.994 58.126C237.266 58.126 236.612 57.9627 236.034 57.636C235.464 57.3093 235.016 56.8473 234.69 56.25C234.363 55.6433 234.2 54.9433 234.2 54.15C234.2 53.3567 234.358 52.6613 234.676 52.064C234.993 51.4667 235.436 51.0093 236.006 50.692C236.584 50.3653 237.247 50.202 237.994 50.202C238.722 50.202 239.366 50.3607 239.926 50.678C240.486 50.9953 240.915 51.434 241.214 51.994C241.522 52.5447 241.676 53.17 241.676 53.87ZM240.36 53.604C240.36 53.1187 240.252 52.7033 240.038 52.358C239.823 52.0033 239.529 51.7373 239.156 51.56C238.792 51.3733 238.386 51.28 237.938 51.28C237.294 51.28 236.743 51.4853 236.286 51.896C235.838 52.3067 235.581 52.876 235.516 53.604H240.36ZM250.212 51.378H248.602V58H247.328V51.378H246.334V50.328H247.328V49.782C247.328 48.9233 247.547 48.298 247.986 47.906C248.434 47.5047 249.148 47.304 250.128 47.304V48.368C249.568 48.368 249.171 48.48 248.938 48.704C248.714 48.9187 248.602 49.278 248.602 49.782V50.328H250.212V51.378ZM255.043 58.126C254.324 58.126 253.671 57.9627 253.083 57.636C252.504 57.3093 252.047 56.8473 251.711 56.25C251.384 55.6433 251.221 54.9433 251.221 54.15C251.221 53.366 251.389 52.6753 251.725 52.078C252.07 51.4713 252.537 51.0093 253.125 50.692C253.713 50.3653 254.371 50.202 255.099 50.202C255.827 50.202 256.485 50.3653 257.073 50.692C257.661 51.0093 258.123 51.4667 258.459 52.064C258.804 52.6613 258.977 53.3567 258.977 54.15C258.977 54.9433 258.8 55.6433 258.445 56.25C258.1 56.8473 257.628 57.3093 257.031 57.636C256.434 57.9627 255.771 58.126 255.043 58.126ZM255.043 57.006C255.5 57.006 255.93 56.8987 256.331 56.684C256.732 56.4693 257.054 56.1473 257.297 55.718C257.549 55.2887 257.675 54.766 257.675 54.15C257.675 53.534 257.554 53.0113 257.311 52.582C257.068 52.1527 256.751 51.8353 256.359 51.63C255.967 51.4153 255.542 51.308 255.085 51.308C254.618 51.308 254.189 51.4153 253.797 51.63C253.414 51.8353 253.106 52.1527 252.873 52.582C252.64 53.0113 252.523 53.534 252.523 54.15C252.523 54.7753 252.635 55.3027 252.859 55.732C253.092 56.1613 253.4 56.4833 253.783 56.698C254.166 56.9033 254.586 57.006 255.043 57.006ZM261.926 51.574C262.15 51.1353 262.468 50.7947 262.878 50.552C263.298 50.3093 263.807 50.188 264.404 50.188V51.504H264.068C262.64 51.504 261.926 52.2787 261.926 53.828V58H260.652V50.328H261.926V51.574ZM271.161 51.378V55.9C271.161 56.2733 271.241 56.5393 271.399 56.698C271.558 56.8473 271.833 56.922 272.225 56.922H273.163V58H272.015C271.306 58 270.774 57.8367 270.419 57.51C270.065 57.1833 269.887 56.6467 269.887 55.9V51.378H268.893V50.328H269.887V48.396H271.161V50.328H273.163V51.378H271.161ZM278.515 50.188C279.094 50.188 279.616 50.314 280.083 50.566C280.55 50.8087 280.914 51.1773 281.175 51.672C281.446 52.1667 281.581 52.7687 281.581 53.478V58H280.321V53.66C280.321 52.8947 280.13 52.3113 279.747 51.91C279.364 51.4993 278.842 51.294 278.179 51.294C277.507 51.294 276.97 51.504 276.569 51.924C276.177 52.344 275.981 52.9553 275.981 53.758V58H274.707V47.64H275.981V51.42C276.233 51.028 276.578 50.7247 277.017 50.51C277.465 50.2953 277.964 50.188 278.515 50.188ZM284.32 49.082C284.077 49.082 283.872 48.998 283.704 48.83C283.536 48.662 283.452 48.4567 283.452 48.214C283.452 47.9713 283.536 47.766 283.704 47.598C283.872 47.43 284.077 47.346 284.32 47.346C284.553 47.346 284.749 47.43 284.908 47.598C285.076 47.766 285.16 47.9713 285.16 48.214C285.16 48.4567 285.076 48.662 284.908 48.83C284.749 48.998 284.553 49.082 284.32 49.082ZM284.936 50.328V58H283.662V50.328H284.936ZM289.823 58.126C289.235 58.126 288.708 58.028 288.241 57.832C287.775 57.6267 287.406 57.3467 287.135 56.992C286.865 56.628 286.715 56.2127 286.687 55.746H288.003C288.041 56.1287 288.218 56.4413 288.535 56.684C288.862 56.9267 289.287 57.048 289.809 57.048C290.295 57.048 290.677 56.9407 290.957 56.726C291.237 56.5113 291.377 56.2407 291.377 55.914C291.377 55.578 291.228 55.3307 290.929 55.172C290.631 55.004 290.169 54.8407 289.543 54.682C288.974 54.5327 288.507 54.3833 288.143 54.234C287.789 54.0753 287.481 53.8467 287.219 53.548C286.967 53.24 286.841 52.8387 286.841 52.344C286.841 51.952 286.958 51.5927 287.191 51.266C287.425 50.9393 287.756 50.6827 288.185 50.496C288.615 50.3 289.105 50.202 289.655 50.202C290.505 50.202 291.191 50.4167 291.713 50.846C292.236 51.2753 292.516 51.8633 292.553 52.61H291.279C291.251 52.2087 291.088 51.8867 290.789 51.644C290.5 51.4013 290.108 51.28 289.613 51.28C289.156 51.28 288.792 51.378 288.521 51.574C288.251 51.77 288.115 52.0267 288.115 52.344C288.115 52.596 288.195 52.806 288.353 52.974C288.521 53.1327 288.727 53.2633 288.969 53.366C289.221 53.4593 289.567 53.5667 290.005 53.688C290.556 53.8373 291.004 53.9867 291.349 54.136C291.695 54.276 291.989 54.4907 292.231 54.78C292.483 55.0693 292.614 55.4473 292.623 55.914C292.623 56.334 292.507 56.712 292.273 57.048C292.04 57.384 291.709 57.65 291.279 57.846C290.859 58.0327 290.374 58.126 289.823 58.126ZM32.424 79.126C31.7053 79.126 31.052 78.9627 30.464 78.636C29.8853 78.3093 29.428 77.8473 29.092 77.25C28.7653 76.6433 28.602 75.9433 28.602 75.15C28.602 74.366 28.77 73.6753 29.106 73.078C29.4513 72.4713 29.918 72.0093 30.506 71.692C31.094 71.3653 31.752 71.202 32.48 71.202C33.208 71.202 33.866 71.3653 34.454 71.692C35.042 72.0093 35.504 72.4667 35.84 73.064C36.1853 73.6613 36.358 74.3567 36.358 75.15C36.358 75.9433 36.1807 76.6433 35.826 77.25C35.4807 77.8473 35.0093 78.3093 34.412 78.636C33.8147 78.9627 33.152 79.126 32.424 79.126ZM32.424 78.006C32.8813 78.006 33.3107 77.8987 33.712 77.684C34.1133 77.4693 34.4353 77.1473 34.678 76.718C34.93 76.2887 35.056 75.766 35.056 75.15C35.056 74.534 34.9347 74.0113 34.692 73.582C34.4493 73.1527 34.132 72.8353 33.74 72.63C33.348 72.4153 32.9233 72.308 32.466 72.308C31.9993 72.308 31.57 72.4153 31.178 72.63C30.7953 72.8353 30.4873 73.1527 30.254 73.582C30.0207 74.0113 29.904 74.534 29.904 75.15C29.904 75.7753 30.016 76.3027 30.24 76.732C30.4733 77.1613 30.7813 77.4833 31.164 77.698C31.5467 77.9033 31.9667 78.006 32.424 78.006ZM39.3071 72.574C39.5311 72.1353 39.8484 71.7947 40.2591 71.552C40.6791 71.3093 41.1877 71.188 41.7851 71.188V72.504H41.4491C40.0211 72.504 39.3071 73.2787 39.3071 74.828V79H38.0331V71.328H39.3071V72.574ZM42.7797 75.136C42.7797 74.352 42.9384 73.666 43.2557 73.078C43.5731 72.4807 44.0071 72.0187 44.5577 71.692C45.1177 71.3653 45.7431 71.202 46.4337 71.202C47.0311 71.202 47.5864 71.342 48.0997 71.622C48.6131 71.8927 49.0051 72.252 49.2757 72.7V68.64H50.5637V79H49.2757V77.558C49.0237 78.0153 48.6504 78.3933 48.1557 78.692C47.6611 78.9813 47.0824 79.126 46.4197 79.126C45.7384 79.126 45.1177 78.958 44.5577 78.622C44.0071 78.286 43.5731 77.8147 43.2557 77.208C42.9384 76.6013 42.7797 75.9107 42.7797 75.136ZM49.2757 75.15C49.2757 74.5713 49.1591 74.0673 48.9257 73.638C48.6924 73.2087 48.3751 72.882 47.9737 72.658C47.5817 72.4247 47.1477 72.308 46.6717 72.308C46.1957 72.308 45.7617 72.42 45.3697 72.644C44.9777 72.868 44.6651 73.1947 44.4317 73.624C44.1984 74.0533 44.0817 74.5573 44.0817 75.136C44.0817 75.724 44.1984 76.2373 44.4317 76.676C44.6651 77.1053 44.9777 77.4367 45.3697 77.67C45.7617 77.894 46.1957 78.006 46.6717 78.006C47.1477 78.006 47.5817 77.894 47.9737 77.67C48.3751 77.4367 48.6924 77.1053 48.9257 76.676C49.1591 76.2373 49.2757 75.7287 49.2757 75.15ZM59.7167 74.87C59.7167 75.1127 59.7027 75.3693 59.6747 75.64H53.5427C53.5893 76.396 53.846 76.9887 54.3127 77.418C54.7887 77.838 55.3627 78.048 56.0347 78.048C56.5853 78.048 57.0427 77.922 57.4067 77.67C57.78 77.4087 58.0413 77.0633 58.1907 76.634H59.5627C59.3573 77.3713 58.9467 77.9733 58.3307 78.44C57.7147 78.8973 56.9493 79.126 56.0347 79.126C55.3067 79.126 54.6533 78.9627 54.0747 78.636C53.5053 78.3093 53.0573 77.8473 52.7307 77.25C52.404 76.6433 52.2407 75.9433 52.2407 75.15C52.2407 74.3567 52.3993 73.6613 52.7167 73.064C53.034 72.4667 53.4773 72.0093 54.0467 71.692C54.6253 71.3653 55.288 71.202 56.0347 71.202C56.7627 71.202 57.4067 71.3607 57.9667 71.678C58.5267 71.9953 58.956 72.434 59.2547 72.994C59.5627 73.5447 59.7167 74.17 59.7167 74.87ZM58.4007 74.604C58.4007 74.1187 58.2933 73.7033 58.0787 73.358C57.864 73.0033 57.57 72.7373 57.1967 72.56C56.8327 72.3733 56.4267 72.28 55.9787 72.28C55.3347 72.28 54.784 72.4853 54.3267 72.896C53.8787 73.3067 53.622 73.876 53.5567 74.604H58.4007ZM62.6723 72.574C62.8963 72.1353 63.2136 71.7947 63.6243 71.552C64.0443 71.3093 64.553 71.188 65.1503 71.188V72.504H64.8143C63.3863 72.504 62.6723 73.2787 62.6723 74.828V79H61.3983V71.328H62.6723V72.574ZM67.027 79.084C66.7843 79.084 66.579 79 66.411 78.832C66.243 78.664 66.159 78.4587 66.159 78.216C66.159 77.9733 66.243 77.768 66.411 77.6C66.579 77.432 66.7843 77.348 67.027 77.348C67.2603 77.348 67.4563 77.432 67.615 77.6C67.783 77.768 67.867 77.9733 67.867 78.216C67.867 78.4587 67.783 78.664 67.615 78.832C67.4563 79 67.2603 79.084 67.027 79.084ZM79.2988 69.242V70.278H76.6388V79H75.3648V70.278H72.6908V69.242H79.2988ZM87.8671 74.87C87.8671 75.1127 87.8531 75.3693 87.8251 75.64H81.6931C81.7397 76.396 81.9964 76.9887 82.4631 77.418C82.9391 77.838 83.5131 78.048 84.1851 78.048C84.7357 78.048 85.1931 77.922 85.5571 77.67C85.9304 77.4087 86.1917 77.0633 86.3411 76.634H87.7131C87.5077 77.3713 87.0971 77.9733 86.4811 78.44C85.8651 78.8973 85.0997 79.126 84.1851 79.126C83.4571 79.126 82.8037 78.9627 82.2251 78.636C81.6557 78.3093 81.2077 77.8473 80.8811 77.25C80.5544 76.6433 80.3911 75.9433 80.3911 75.15C80.3911 74.3567 80.5497 73.6613 80.8671 73.064C81.1844 72.4667 81.6277 72.0093 82.1971 71.692C82.7757 71.3653 83.4384 71.202 84.1851 71.202C84.9131 71.202 85.5571 71.3607 86.1171 71.678C86.6771 71.9953 87.1064 72.434 87.4051 72.994C87.7131 73.5447 87.8671 74.17 87.8671 74.87ZM86.5511 74.604C86.5511 74.1187 86.4437 73.7033 86.2291 73.358C86.0144 73.0033 85.7204 72.7373 85.3471 72.56C84.9831 72.3733 84.5771 72.28 84.1291 72.28C83.4851 72.28 82.9344 72.4853 82.4771 72.896C82.0291 73.3067 81.7724 73.876 81.7071 74.604H86.5511ZM90.8227 68.64V79H89.5487V68.64H90.8227ZM94.268 68.64V79H92.994V68.64H94.268ZM106.78 71.328L102.16 82.612H100.844L102.356 78.916L99.2618 71.328H100.676L103.084 77.544L105.464 71.328H106.78ZM111.406 79.126C110.688 79.126 110.034 78.9627 109.446 78.636C108.868 78.3093 108.41 77.8473 108.074 77.25C107.748 76.6433 107.584 75.9433 107.584 75.15C107.584 74.366 107.752 73.6753 108.088 73.078C108.434 72.4713 108.9 72.0093 109.488 71.692C110.076 71.3653 110.734 71.202 111.462 71.202C112.19 71.202 112.848 71.3653 113.436 71.692C114.024 72.0093 114.486 72.4667 114.822 73.064C115.168 73.6613 115.34 74.3567 115.34 75.15C115.34 75.9433 115.163 76.6433 114.808 77.25C114.463 77.8473 113.992 78.3093 113.394 78.636C112.797 78.9627 112.134 79.126 111.406 79.126ZM111.406 78.006C111.864 78.006 112.293 77.8987 112.694 77.684C113.096 77.4693 113.418 77.1473 113.66 76.718C113.912 76.2887 114.038 75.766 114.038 75.15C114.038 74.534 113.917 74.0113 113.674 73.582C113.432 73.1527 113.114 72.8353 112.722 72.63C112.33 72.4153 111.906 72.308 111.448 72.308C110.982 72.308 110.552 72.4153 110.16 72.63C109.778 72.8353 109.47 73.1527 109.236 73.582C109.003 74.0113 108.886 74.534 108.886 75.15C108.886 75.7753 108.998 76.3027 109.222 76.732C109.456 77.1613 109.764 77.4833 110.146 77.698C110.529 77.9033 110.949 78.006 111.406 78.006ZM123.82 71.328V79H122.546V77.866C122.303 78.258 121.962 78.566 121.524 78.79C121.094 79.0047 120.618 79.112 120.096 79.112C119.498 79.112 118.962 78.9907 118.486 78.748C118.01 78.496 117.632 78.1227 117.352 77.628C117.081 77.1333 116.946 76.5313 116.946 75.822V71.328H118.206V75.654C118.206 76.41 118.397 76.9933 118.78 77.404C119.162 77.8053 119.685 78.006 120.348 78.006C121.029 78.006 121.566 77.796 121.958 77.376C122.35 76.956 122.546 76.3447 122.546 75.542V71.328H123.82ZM127.245 72.574C127.469 72.1353 127.786 71.7947 128.197 71.552C128.617 71.3093 129.125 71.188 129.723 71.188V72.504H129.387C127.959 72.504 127.245 73.2787 127.245 74.828V79H125.971V71.328H127.245V72.574ZM141.926 74.87C141.926 75.1127 141.912 75.3693 141.884 75.64H135.752C135.798 76.396 136.055 76.9887 136.522 77.418C136.998 77.838 137.572 78.048 138.244 78.048C138.794 78.048 139.252 77.922 139.616 77.67C139.989 77.4087 140.25 77.0633 140.4 76.634H141.772C141.566 77.3713 141.156 77.9733 140.54 78.44C139.924 78.8973 139.158 79.126 138.244 79.126C137.516 79.126 136.862 78.9627 136.284 78.636C135.714 78.3093 135.266 77.8473 134.94 77.25C134.613 76.6433 134.45 75.9433 134.45 75.15C134.45 74.3567 134.608 73.6613 134.926 73.064C135.243 72.4667 135.686 72.0093 136.256 71.692C136.834 71.3653 137.497 71.202 138.244 71.202C138.972 71.202 139.616 71.3607 140.176 71.678C140.736 71.9953 141.165 72.434 141.464 72.994C141.772 73.5447 141.926 74.17 141.926 74.87ZM140.61 74.604C140.61 74.1187 140.502 73.7033 140.288 73.358C140.073 73.0033 139.779 72.7373 139.406 72.56C139.042 72.3733 138.636 72.28 138.188 72.28C137.544 72.28 136.993 72.4853 136.536 72.896C136.088 73.3067 135.831 73.876 135.766 74.604H140.61ZM147.611 79L145.791 76.144L144.041 79H142.711L145.189 75.192L142.711 71.328H144.153L145.973 74.17L147.709 71.328H149.039L146.575 75.122L149.053 79H147.611ZM151.581 72.742C151.833 72.3033 152.206 71.9393 152.701 71.65C153.205 71.3513 153.788 71.202 154.451 71.202C155.132 71.202 155.748 71.3653 156.299 71.692C156.859 72.0187 157.297 72.4807 157.615 73.078C157.932 73.666 158.091 74.352 158.091 75.136C158.091 75.9107 157.932 76.6013 157.615 77.208C157.297 77.8147 156.859 78.286 156.299 78.622C155.748 78.958 155.132 79.126 154.451 79.126C153.797 79.126 153.219 78.9813 152.715 78.692C152.22 78.3933 151.842 78.0247 151.581 77.586V82.64H150.307V71.328H151.581V72.742ZM156.789 75.136C156.789 74.5573 156.672 74.0533 156.439 73.624C156.205 73.1947 155.888 72.868 155.487 72.644C155.095 72.42 154.661 72.308 154.185 72.308C153.718 72.308 153.284 72.4247 152.883 72.658C152.491 72.882 152.173 73.2133 151.931 73.652C151.697 74.0813 151.581 74.5807 151.581 75.15C151.581 75.7287 151.697 76.2373 151.931 76.676C152.173 77.1053 152.491 77.4367 152.883 77.67C153.284 77.894 153.718 78.006 154.185 78.006C154.661 78.006 155.095 77.894 155.487 77.67C155.888 77.4367 156.205 77.1053 156.439 76.676C156.672 76.2373 156.789 75.724 156.789 75.136ZM166.767 74.87C166.767 75.1127 166.753 75.3693 166.725 75.64H160.593C160.64 76.396 160.897 76.9887 161.363 77.418C161.839 77.838 162.413 78.048 163.085 78.048C163.636 78.048 164.093 77.922 164.457 77.67C164.831 77.4087 165.092 77.0633 165.241 76.634H166.613C166.408 77.3713 165.997 77.9733 165.381 78.44C164.765 78.8973 164 79.126 163.085 79.126C162.357 79.126 161.704 78.9627 161.125 78.636C160.556 78.3093 160.108 77.8473 159.781 77.25C159.455 76.6433 159.291 75.9433 159.291 75.15C159.291 74.3567 159.45 73.6613 159.767 73.064C160.085 72.4667 160.528 72.0093 161.097 71.692C161.676 71.3653 162.339 71.202 163.085 71.202C163.813 71.202 164.457 71.3607 165.017 71.678C165.577 71.9953 166.007 72.434 166.305 72.994C166.613 73.5447 166.767 74.17 166.767 74.87ZM165.451 74.604C165.451 74.1187 165.344 73.7033 165.129 73.358C164.915 73.0033 164.621 72.7373 164.247 72.56C163.883 72.3733 163.477 72.28 163.029 72.28C162.385 72.28 161.835 72.4853 161.377 72.896C160.929 73.3067 160.673 73.876 160.607 74.604H165.451ZM167.973 75.15C167.973 74.3567 168.132 73.666 168.449 73.078C168.766 72.4807 169.205 72.0187 169.765 71.692C170.334 71.3653 170.983 71.202 171.711 71.202C172.654 71.202 173.428 71.4307 174.035 71.888C174.651 72.3453 175.057 72.98 175.253 73.792H173.881C173.75 73.3253 173.494 72.9567 173.111 72.686C172.738 72.4153 172.271 72.28 171.711 72.28C170.983 72.28 170.395 72.532 169.947 73.036C169.499 73.5307 169.275 74.2353 169.275 75.15C169.275 76.074 169.499 76.788 169.947 77.292C170.395 77.796 170.983 78.048 171.711 78.048C172.271 78.048 172.738 77.9173 173.111 77.656C173.484 77.3947 173.741 77.0213 173.881 76.536H175.253C175.048 77.32 174.637 77.95 174.021 78.426C173.405 78.8927 172.635 79.126 171.711 79.126C170.983 79.126 170.334 78.9627 169.765 78.636C169.205 78.3093 168.766 77.8473 168.449 77.25C168.132 76.6527 167.973 75.9527 167.973 75.15ZM178.507 72.378V76.9C178.507 77.2733 178.586 77.5393 178.745 77.698C178.904 77.8473 179.179 77.922 179.571 77.922H180.509V79H179.361C178.652 79 178.12 78.8367 177.765 78.51C177.41 78.1833 177.233 77.6467 177.233 76.9V72.378H176.239V71.328H177.233V69.396H178.507V71.328H180.509V72.378H178.507ZM189.053 74.87C189.053 75.1127 189.039 75.3693 189.011 75.64H182.879C182.925 76.396 183.182 76.9887 183.649 77.418C184.125 77.838 184.699 78.048 185.371 78.048C185.921 78.048 186.379 77.922 186.743 77.67C187.116 77.4087 187.377 77.0633 187.527 76.634H188.899C188.693 77.3713 188.283 77.9733 187.667 78.44C187.051 78.8973 186.285 79.126 185.371 79.126C184.643 79.126 183.989 78.9627 183.411 78.636C182.841 78.3093 182.393 77.8473 182.067 77.25C181.74 76.6433 181.577 75.9433 181.577 75.15C181.577 74.3567 181.735 73.6613 182.053 73.064C182.37 72.4667 182.813 72.0093 183.383 71.692C183.961 71.3653 184.624 71.202 185.371 71.202C186.099 71.202 186.743 71.3607 187.303 71.678C187.863 71.9953 188.292 72.434 188.591 72.994C188.899 73.5447 189.053 74.17 189.053 74.87ZM187.737 74.604C187.737 74.1187 187.629 73.7033 187.415 73.358C187.2 73.0033 186.906 72.7373 186.533 72.56C186.169 72.3733 185.763 72.28 185.315 72.28C184.671 72.28 184.12 72.4853 183.663 72.896C183.215 73.3067 182.958 73.876 182.893 74.604H187.737ZM190.258 75.136C190.258 74.352 190.417 73.666 190.734 73.078C191.052 72.4807 191.486 72.0187 192.036 71.692C192.596 71.3653 193.222 71.202 193.912 71.202C194.51 71.202 195.065 71.342 195.578 71.622C196.092 71.8927 196.484 72.252 196.754 72.7V68.64H198.042V79H196.754V77.558C196.502 78.0153 196.129 78.3933 195.634 78.692C195.14 78.9813 194.561 79.126 193.898 79.126C193.217 79.126 192.596 78.958 192.036 78.622C191.486 78.286 191.052 77.8147 190.734 77.208C190.417 76.6013 190.258 75.9107 190.258 75.136ZM196.754 75.15C196.754 74.5713 196.638 74.0673 196.404 73.638C196.171 73.2087 195.854 72.882 195.452 72.658C195.06 72.4247 194.626 72.308 194.15 72.308C193.674 72.308 193.24 72.42 192.848 72.644C192.456 72.868 192.144 73.1947 191.91 73.624C191.677 74.0533 191.56 74.5573 191.56 75.136C191.56 75.724 191.677 76.2373 191.91 76.676C192.144 77.1053 192.456 77.4367 192.848 77.67C193.24 77.894 193.674 78.006 194.15 78.006C194.626 78.006 195.06 77.894 195.452 77.67C195.854 77.4367 196.171 77.1053 196.404 76.676C196.638 76.2373 196.754 75.7287 196.754 75.15ZM205.202 72.742C205.454 72.3033 205.827 71.9393 206.322 71.65C206.826 71.3513 207.409 71.202 208.072 71.202C208.753 71.202 209.369 71.3653 209.92 71.692C210.48 72.0187 210.918 72.4807 211.236 73.078C211.553 73.666 211.712 74.352 211.712 75.136C211.712 75.9107 211.553 76.6013 211.236 77.208C210.918 77.8147 210.48 78.286 209.92 78.622C209.369 78.958 208.753 79.126 208.072 79.126C207.418 79.126 206.84 78.9813 206.336 78.692C205.841 78.3933 205.463 78.0247 205.202 77.586V82.64H203.928V71.328H205.202V72.742ZM210.41 75.136C210.41 74.5573 210.293 74.0533 210.06 73.624C209.826 73.1947 209.509 72.868 209.108 72.644C208.716 72.42 208.282 72.308 207.806 72.308C207.339 72.308 206.905 72.4247 206.504 72.658C206.112 72.882 205.794 73.2133 205.552 73.652C205.318 74.0813 205.202 74.5807 205.202 75.15C205.202 75.7287 205.318 76.2373 205.552 76.676C205.794 77.1053 206.112 77.4367 206.504 77.67C206.905 77.894 207.339 78.006 207.806 78.006C208.282 78.006 208.716 77.894 209.108 77.67C209.509 77.4367 209.826 77.1053 210.06 76.676C210.293 76.2373 210.41 75.724 210.41 75.136ZM214.663 72.574C214.887 72.1353 215.204 71.7947 215.615 71.552C216.035 71.3093 216.543 71.188 217.141 71.188V72.504H216.805C215.377 72.504 214.663 73.2787 214.663 74.828V79H213.389V71.328H214.663V72.574ZM219.269 70.082C219.027 70.082 218.821 69.998 218.653 69.83C218.485 69.662 218.401 69.4567 218.401 69.214C218.401 68.9713 218.485 68.766 218.653 68.598C218.821 68.43 219.027 68.346 219.269 68.346C219.503 68.346 219.699 68.43 219.857 68.598C220.025 68.766 220.109 68.9713 220.109 69.214C220.109 69.4567 220.025 69.662 219.857 69.83C219.699 69.998 219.503 70.082 219.269 70.082ZM219.885 71.328V79H218.611V71.328H219.885ZM221.581 75.15C221.581 74.3567 221.739 73.666 222.057 73.078C222.374 72.4807 222.813 72.0187 223.373 71.692C223.942 71.3653 224.591 71.202 225.319 71.202C226.261 71.202 227.036 71.4307 227.643 71.888C228.259 72.3453 228.665 72.98 228.861 73.792H227.489C227.358 73.3253 227.101 72.9567 226.719 72.686C226.345 72.4153 225.879 72.28 225.319 72.28C224.591 72.28 224.003 72.532 223.555 73.036C223.107 73.5307 222.883 74.2353 222.883 75.15C222.883 76.074 223.107 76.788 223.555 77.292C224.003 77.796 224.591 78.048 225.319 78.048C225.879 78.048 226.345 77.9173 226.719 77.656C227.092 77.3947 227.349 77.0213 227.489 76.536H228.861C228.655 77.32 228.245 77.95 227.629 78.426C227.013 78.8927 226.243 79.126 225.319 79.126C224.591 79.126 223.942 78.9627 223.373 78.636C222.813 78.3093 222.374 77.8473 222.057 77.25C221.739 76.6527 221.581 75.9527 221.581 75.15ZM237.56 74.87C237.56 75.1127 237.546 75.3693 237.518 75.64H231.386C231.433 76.396 231.69 76.9887 232.156 77.418C232.632 77.838 233.206 78.048 233.878 78.048C234.429 78.048 234.886 77.922 235.25 77.67C235.624 77.4087 235.885 77.0633 236.034 76.634H237.406C237.201 77.3713 236.79 77.9733 236.174 78.44C235.558 78.8973 234.793 79.126 233.878 79.126C233.15 79.126 232.497 78.9627 231.918 78.636C231.349 78.3093 230.901 77.8473 230.574 77.25C230.248 76.6433 230.084 75.9433 230.084 75.15C230.084 74.3567 230.243 73.6613 230.56 73.064C230.878 72.4667 231.321 72.0093 231.89 71.692C232.469 71.3653 233.132 71.202 233.878 71.202C234.606 71.202 235.25 71.3607 235.81 71.678C236.37 71.9953 236.8 72.434 237.098 72.994C237.406 73.5447 237.56 74.17 237.56 74.87ZM236.244 74.604C236.244 74.1187 236.137 73.7033 235.922 73.358C235.708 73.0033 235.414 72.7373 235.04 72.56C234.676 72.3733 234.27 72.28 233.822 72.28C233.178 72.28 232.628 72.4853 232.17 72.896C231.722 73.3067 231.466 73.876 231.4 74.604H236.244ZM239.648 79.084C239.405 79.084 239.2 79 239.032 78.832C238.864 78.664 238.78 78.4587 238.78 78.216C238.78 77.9733 238.864 77.768 239.032 77.6C239.2 77.432 239.405 77.348 239.648 77.348C239.881 77.348 240.077 77.432 240.236 77.6C240.404 77.768 240.488 77.9733 240.488 78.216C240.488 78.4587 240.404 78.664 240.236 78.832C240.077 79 239.881 79.084 239.648 79.084Z" fill="#E04122"/>
</svg>
