<svg width="132" height="132" viewBox="0 0 132 132" fill="none" xmlns="http://www.w3.org/2000/svg">
<circle cx="66" cy="66" r="66" fill="white"/>
<path d="M92.1892 111.364L93.1875 110.786V109.632V93.125C93.1875 87.9699 91.1396 83.0259 87.4944 79.3806C83.8491 75.7354 78.9051 73.6875 73.75 73.6875H58.25C53.0949 73.6875 48.1508 75.7354 44.5056 79.3806C40.8604 83.0259 38.8125 87.9699 38.8125 93.125V109.632V110.786L39.8108 111.364C47.7696 115.969 56.8048 118.388 66 118.375C75.1952 118.388 84.2304 115.969 92.1892 111.364ZM100.812 100.387V105.458L104.274 101.752C111.242 94.2931 115.878 84.9608 117.613 74.9024C119.348 64.844 118.106 54.4978 114.04 45.1356C109.974 35.7735 103.261 27.8034 94.7262 22.2052C86.1915 16.607 76.207 13.6245 66 13.6245C55.793 13.6245 45.8085 16.607 37.2738 22.2052C28.739 27.8034 22.026 35.7735 17.96 45.1356C13.894 54.4978 12.6522 64.844 14.3872 74.9024C16.1222 84.9608 20.7584 94.2931 27.726 101.752L31.1875 105.458V100.387V93.125C31.1874 87.5454 32.911 82.102 36.1225 77.5393C39.3339 72.9766 43.8765 69.5174 49.1288 67.6347L51.8828 66.6476L49.9633 64.4398C47.2886 61.3632 45.5552 57.5822 44.9701 53.5477C44.3849 49.5132 44.9726 45.3956 46.663 41.6859C48.3535 37.9762 51.0754 34.831 54.504 32.6256C57.9326 30.4201 61.9233 29.2475 66 29.2475C70.0767 29.2475 74.0674 30.4201 77.496 32.6256C80.9246 34.831 83.6465 37.9762 85.337 41.6859C87.0274 45.3956 87.6151 49.5132 87.0299 53.5477C86.4448 57.5822 84.7114 61.3632 82.0367 64.4398L80.1172 66.6476L82.8712 67.6347C88.1235 69.5174 92.6661 72.9766 95.8775 77.5393C99.089 82.102 100.813 87.5454 100.812 93.125V100.387ZM108.426 108.426C97.1742 119.679 81.913 126 66 126C50.087 126 34.8258 119.679 23.5736 108.426C12.3214 97.1742 6 81.913 6 66C6 50.087 12.3214 34.8258 23.5736 23.5736C34.8258 12.3214 50.087 6 66 6C81.913 6 97.1742 12.3214 108.426 23.5736C119.679 34.8258 126 50.087 126 66C126 81.913 119.679 97.1742 108.426 108.426ZM75.6343 60.1343C78.1895 57.5792 79.625 54.1136 79.625 50.5C79.625 46.8864 78.1895 43.4208 75.6343 40.8657C73.0791 38.3105 69.6136 36.875 66 36.875C62.3864 36.875 58.9209 38.3105 56.3657 40.8657C53.8105 43.4209 52.375 46.8864 52.375 50.5C52.375 54.1136 53.8105 57.5791 56.3657 60.1343C58.9209 62.6895 62.3864 64.125 66 64.125C69.6136 64.125 73.0791 62.6895 75.6343 60.1343Z" fill="#263238" stroke="white" stroke-width="4"/>
</svg>
