<svg width="29" height="29" viewBox="0 0 29 29" fill="none" xmlns="http://www.w3.org/2000/svg">
<path d="M14.5 1C7.04395 1 1 7.04395 1 14.5C1 21.9561 7.04395 28 14.5 28C21.9561 28 28 21.9561 28 14.5C28 7.04395 21.9561 1 14.5 1Z" stroke="white" stroke-width="2" stroke-linecap="round" stroke-linejoin="round"/>
<path d="M4.0658 23.0672C4.0658 23.0672 7.07495 19.2251 14.4999 19.2251C21.9249 19.2251 24.9354 23.0672 24.9354 23.0672M14.4999 14.5001C15.5741 14.5001 16.6042 14.0735 17.3637 13.3139C18.1233 12.5544 18.5499 11.5243 18.5499 10.4501C18.5499 9.37602 18.1233 8.34589 17.3637 7.58636C16.6042 6.82684 15.5741 6.40015 14.4999 6.40015C13.4258 6.40015 12.3957 6.82684 11.6362 7.58636C10.8766 8.34589 10.4499 9.37602 10.4499 10.4501C10.4499 11.5243 10.8766 12.5544 11.6362 13.3139C12.3957 14.0735 13.4258 14.5001 14.4999 14.5001V14.5001Z" stroke="white" stroke-width="2" stroke-linecap="round" stroke-linejoin="round"/>
</svg>
