<svg width="386" height="346" viewBox="0 0 386 346" fill="none" xmlns="http://www.w3.org/2000/svg">
<rect x="37" y="31" width="93" height="48.9474" rx="3.8516" fill="#FB8C00"/>
<path d="M48.6548 62.3234C48.9506 60.6143 49.5751 59.0942 50.5282 57.7631C51.4978 56.4155 52.6892 55.372 54.1025 54.6325C55.5158 53.8765 57.0194 53.4986 58.6135 53.4986C60.4705 53.4986 61.9906 53.9669 63.1738 54.9036C64.3734 55.8239 65.1458 57.1057 65.4909 58.7491H64.2091C63.9297 57.4508 63.2806 56.4155 62.2617 55.6431C61.2593 54.8708 59.9857 54.4846 58.4409 54.4846C57.0769 54.4846 55.7869 54.805 54.5708 55.4459C53.3548 56.0868 52.3195 56.9989 51.4649 58.1821C50.6268 59.3653 50.0681 60.7457 49.7887 62.3234C49.6901 62.915 49.6408 63.4901 49.6408 64.0489C49.6408 65.2978 49.8955 66.3824 50.405 67.3027C50.9144 68.2065 51.621 68.905 52.5249 69.398C53.4452 69.891 54.4969 70.1375 55.6801 70.1375C56.9948 70.1375 58.2355 69.8417 59.4023 69.2501C60.5855 68.6585 61.5879 67.8204 62.4096 66.7357C63.2477 65.6347 63.8311 64.3447 64.1598 62.8657H56.4443L56.6168 61.9536H65.4662L65.3183 62.6931C64.9897 64.3036 64.3488 65.7497 63.3956 67.0315C62.4589 68.2969 61.3004 69.2994 59.9199 70.0389C58.5395 70.7619 57.0687 71.1235 55.5076 71.1235C54.1107 71.1235 52.8782 70.8359 51.81 70.2607C50.7583 69.6855 49.9366 68.8721 49.345 67.8204C48.7698 66.7522 48.4822 65.5279 48.4822 64.1475C48.4822 63.523 48.5398 62.915 48.6548 62.3234ZM75.4276 57.3933C76.5615 57.3933 77.5229 57.6152 78.3117 58.0589C79.1169 58.4861 79.7168 59.0695 80.1112 59.809C80.522 60.5321 80.7274 61.3456 80.7274 62.2494C80.7274 62.6438 80.6946 63.0053 80.6288 63.334C80.5302 63.9256 80.4316 64.3693 80.333 64.6651H68.7721C68.7063 65.191 68.6735 65.569 68.6735 65.799C68.6735 67.2123 69.1007 68.2969 69.9553 69.0529C70.8098 69.8088 71.8862 70.1868 73.1845 70.1868C74.4827 70.1868 75.633 69.8663 76.6355 69.2254C77.6544 68.5681 78.3774 67.6807 78.8047 66.5632H79.9633C79.4374 67.9272 78.5582 69.0364 77.3257 69.891C76.1096 70.7291 74.6717 71.1481 73.0119 71.1481C71.3686 71.1481 70.0457 70.6716 69.0432 69.7184C68.0572 68.7653 67.5642 67.467 67.5642 65.8237C67.5642 65.3142 67.6135 64.7884 67.7121 64.2461C67.9586 62.8492 68.4516 61.6331 69.1911 60.5978C69.9306 59.5625 70.8345 58.7737 71.9026 58.2314C72.9873 57.6727 74.1622 57.3933 75.4276 57.3933ZM79.4456 63.8024C79.5606 63.3258 79.6182 62.841 79.6182 62.348C79.6182 61.0498 79.1991 60.0555 78.361 59.3653C77.5393 58.6751 76.4958 58.33 75.2304 58.33C74.2937 58.33 73.3899 58.5354 72.5189 58.9463C71.6479 59.3571 70.892 59.9734 70.2511 60.795C69.6102 61.6167 69.1665 62.6192 68.92 63.8024H79.4456ZM91.0805 57.2947C92.4445 57.2947 93.5373 57.6645 94.359 58.404C95.1807 59.127 95.5915 60.2034 95.5915 61.6331C95.5915 62.0768 95.5422 62.5699 95.4436 63.1122L94.0632 70.9509H92.9786L94.359 63.1861C94.4412 62.6602 94.4822 62.2248 94.4822 61.8796C94.4822 60.6964 94.1536 59.8008 93.4962 59.1928C92.8389 58.5683 91.9186 58.2561 90.7354 58.2561C89.355 58.2561 88.1636 58.6833 87.1611 59.5379C86.1587 60.3924 85.4685 61.6496 85.0905 63.3094L83.7347 70.9509H82.6255L85.0166 57.5659H86.1258L85.6328 60.376C86.1915 59.3735 86.9475 58.6094 87.9006 58.0835C88.8702 57.5576 89.9302 57.2947 91.0805 57.2947ZM101.435 54.5832C101.205 54.5832 101.016 54.5174 100.868 54.386C100.72 54.2381 100.646 54.0491 100.646 53.819C100.646 53.4904 100.761 53.2192 100.991 53.0056C101.221 52.7755 101.484 52.6605 101.78 52.6605C102.01 52.6605 102.199 52.7344 102.347 52.8823C102.511 53.0302 102.593 53.2192 102.593 53.4493C102.593 53.7779 102.47 54.0491 102.224 54.2627C101.993 54.4764 101.731 54.5832 101.435 54.5832ZM101.484 57.5659L99.093 70.9509H97.9837L100.375 57.5659H101.484ZM111.368 57.3933C112.502 57.3933 113.463 57.6152 114.252 58.0589C115.057 58.4861 115.657 59.0695 116.051 59.809C116.462 60.5321 116.668 61.3456 116.668 62.2494C116.668 62.6438 116.635 63.0053 116.569 63.334C116.47 63.9256 116.372 64.3693 116.273 64.6651H104.712C104.647 65.191 104.614 65.569 104.614 65.799C104.614 67.2123 105.041 68.2969 105.895 69.0529C106.75 69.8088 107.826 70.1868 109.125 70.1868C110.423 70.1868 111.573 69.8663 112.576 69.2254C113.595 68.5681 114.318 67.6807 114.745 66.5632H115.903C115.378 67.9272 114.498 69.0364 113.266 69.891C112.05 70.7291 110.612 71.1481 108.952 71.1481C107.309 71.1481 105.986 70.6716 104.983 69.7184C103.997 68.7653 103.504 67.467 103.504 65.8237C103.504 65.3142 103.554 64.7884 103.652 64.2461C103.899 62.8492 104.392 61.6331 105.131 60.5978C105.871 59.5625 106.775 58.7737 107.843 58.2314C108.927 57.6727 110.102 57.3933 111.368 57.3933ZM115.386 63.8024C115.501 63.3258 115.558 62.841 115.558 62.348C115.558 61.0498 115.139 60.0555 114.301 59.3653C113.48 58.6751 112.436 58.33 111.171 58.33C110.234 58.33 109.33 58.5354 108.459 58.9463C107.588 59.3571 106.832 59.9734 106.191 60.795C105.55 61.6167 105.107 62.6192 104.86 63.8024H115.386Z" fill="white"/>
<path fill-rule="evenodd" clip-rule="evenodd" d="M53.1871 39.3489C52.6783 39.3949 52.4591 39.4658 51.5878 39.8673C51.0538 40.1133 50.0024 41.065 50.0024 41.3023C50.0024 41.3991 49.9439 41.4784 49.8724 41.4784C49.8009 41.4784 49.7424 41.589 49.7424 41.7241C49.7424 41.8593 49.69 41.9699 49.6261 41.9699C49.4949 41.9699 49.3393 42.7656 49.3257 43.506C49.3137 44.1589 49.4884 45.0421 49.6296 45.0421C49.6916 45.0421 49.7424 45.1527 49.7424 45.2879C49.7424 45.4231 49.8009 45.5337 49.8724 45.5337C49.9439 45.5337 50.0024 45.6034 50.0024 45.6885C50.0024 45.9015 51.0299 46.8855 51.2522 46.8855C51.3513 46.8855 51.4322 46.9368 51.4322 46.9995C51.4322 47.0623 51.7603 47.2297 52.1612 47.3715C53.2912 47.7711 56.0367 47.6874 56.5602 47.2374C56.6282 47.1791 56.7639 47.1313 56.8619 47.1313C57.099 47.1313 57.4116 46.8262 57.4116 46.5948C57.4116 46.3407 55.9711 43.6904 55.8329 43.6904C55.7718 43.6904 55.7218 43.7457 55.7218 43.8132C55.7218 43.8854 55.2715 43.9361 54.6308 43.9361C53.489 43.9361 53.382 43.8834 53.382 43.3214C53.382 43.0168 53.9718 42.9051 55.0206 43.0113C55.8867 43.099 56.2417 42.9625 56.2417 42.542C56.2417 42.4413 56.2855 42.3407 56.3392 42.3181C56.4939 42.2531 57.4116 40.4923 57.4116 40.2605C57.4116 40.054 56.6162 39.635 56.2241 39.635C56.1194 39.635 55.9781 39.5862 55.9103 39.5265C55.766 39.3998 53.9424 39.2809 53.1871 39.3489ZM67.3695 39.5837C67.2292 39.9293 67.2806 47.1297 67.4251 47.3851C67.5472 47.6006 67.7111 47.6228 69.18 47.6228H70.8002V43.506V39.3892H69.1243C67.716 39.3892 67.4358 39.4203 67.3695 39.5837ZM75.3993 39.6732C75.2477 39.8212 74.9593 40.0528 74.7583 40.188C74.5574 40.3232 74.2719 40.5459 74.124 40.6829C73.9759 40.8199 73.6491 41.0514 73.3978 41.1974C73.1464 41.3436 72.7998 41.6047 72.6277 41.778C72.4556 41.9511 72.266 42.0928 72.2063 42.0928C72.0395 42.0928 71.3202 42.7771 71.3202 42.9356C71.3202 43.02 71.5534 43.0759 71.9051 43.0759H72.4901V44.2332C72.4901 45.4682 72.7612 46.3512 73.2635 46.7518C73.398 46.8591 73.6154 47.0307 73.7465 47.1331C74.4338 47.6696 76.1006 47.7656 77.0721 47.3246L77.5595 47.1032V45.8956C77.5595 45.223 77.502 44.6543 77.4295 44.612C77.3581 44.5702 77.2996 44.5882 77.2996 44.6518C77.2996 44.7967 76.7068 44.9104 76.3767 44.8288C76.1641 44.7762 76.1297 44.6496 76.1297 43.9218V43.0759H76.6886C76.996 43.0759 77.3178 43.0096 77.4036 42.9284C77.4908 42.846 77.5595 42.4505 77.5595 42.0314C77.5595 41.6122 77.4908 41.2167 77.4036 41.1343C77.3178 41.0532 76.996 40.9868 76.6886 40.9868H76.1297V40.188C76.1297 39.5064 76.0963 39.3904 75.9022 39.3967C75.777 39.4009 75.5507 39.5253 75.3993 39.6732ZM94.7178 41.2272V43.0651L95.6602 43.1012L96.6026 43.1374L96.6253 45.165C96.6379 46.2802 96.6525 47.291 96.6578 47.4111C96.6668 47.6115 96.8209 47.6267 98.5199 47.5954L100.372 47.5614L100.408 45.3186L100.443 43.0759H101.415H102.387V41.2326V39.3892H98.5524H94.7178V41.2272ZM58.1405 41.1812C57.9815 41.5729 58.0541 46.0163 58.224 46.2956C58.4789 46.7145 59.1311 47.3007 59.53 47.4692C60.3465 47.8141 61.6319 47.5762 62.2536 46.9651C62.593 46.6315 62.6111 46.6272 62.6111 46.8806C62.6111 47.0273 62.6717 47.2544 62.7456 47.3851C62.8672 47.5997 63.0308 47.6228 64.4309 47.6228C65.831 47.6228 65.9946 47.5997 66.1162 47.3851C66.1981 47.2405 66.2507 46.01 66.2507 44.2426C66.2507 41.8891 66.2155 41.3046 66.065 41.1624C65.9246 41.0297 65.4972 40.9868 64.3126 40.9868C62.4477 40.9868 62.6226 40.7451 62.5775 43.3831L62.5461 45.2265L62.1048 45.2663C61.8393 45.2903 61.6199 45.2413 61.5543 45.1434C61.4942 45.0539 61.4443 44.1484 61.4432 43.1312C61.4419 41.8588 61.3926 41.2358 61.2852 41.1343C61.1825 41.0372 60.6326 40.9868 59.6743 40.9868C58.4675 40.9868 58.2058 41.02 58.1405 41.1812ZM78.353 41.1557C78.1774 41.3558 78.2186 45.5761 78.4022 46.1988C78.8386 47.678 81.3073 48.1238 82.551 46.9481C82.7304 46.7784 82.9091 46.6397 82.9481 46.6397C82.9871 46.6397 83.019 46.8609 83.019 47.1313V47.6228H84.5032C85.3195 47.6228 86.0799 47.5893 86.193 47.5482C86.373 47.483 86.3986 47.0874 86.3986 44.3777C86.3986 42.1336 86.3557 41.2412 86.2426 41.1343C86.0275 40.9309 83.1301 40.9309 82.915 41.1343C82.8064 41.2369 82.759 41.8908 82.759 43.2848V45.2879H82.3598C81.6527 45.2879 81.5994 45.135 81.56 42.9957L81.5241 41.0482L80.016 41.0138C78.8308 40.9867 78.4746 41.017 78.353 41.1557ZM87.7288 41.0894C87.6013 41.166 87.5719 41.9075 87.5988 44.3749L87.6335 47.5614H89.3233H91.0131L91.095 45.9024C91.1401 44.9899 91.2201 44.1189 91.2727 43.9669C91.3913 43.6242 91.7389 43.6094 91.988 43.9361C92.1382 44.1331 92.3246 44.1819 92.9267 44.1819C93.3408 44.1819 93.6779 44.1267 93.6779 44.059C93.6779 43.9914 93.7442 43.9361 93.8251 43.9361C94.0706 43.9361 94.4473 43.4382 94.5345 42.9986C94.7055 42.1368 94.4224 41.5844 93.5822 41.1404C92.9704 40.8172 91.99 41.0632 91.4885 41.666C91.2188 41.9902 91.0781 41.9484 91.0781 41.5439C91.0781 41.0616 90.842 40.9867 89.3298 40.9886C88.5398 40.9898 87.8194 41.0351 87.7288 41.0894ZM104.792 41.1097C104.649 41.1678 104.386 41.2198 104.207 41.2252C104.028 41.2306 103.619 41.3595 103.297 41.5115L102.712 41.7879L102.674 42.7391C102.653 43.2623 102.682 43.6895 102.739 43.6885C102.796 43.6875 103.076 43.6069 103.362 43.5096C104.138 43.2453 105.413 43.2655 105.681 43.5465C105.8 43.6701 105.897 43.8083 105.897 43.8537C105.897 43.899 105.521 43.9361 105.062 43.9361C104.095 43.9361 103.189 44.25 102.887 44.6897C102.777 44.8497 102.616 45.1844 102.529 45.4335C102.304 46.0847 102.721 46.9872 103.42 47.3584C103.994 47.6637 105.004 47.707 105.5 47.4473C105.77 47.306 105.862 47.3074 106.101 47.4558C106.315 47.5882 106.761 47.6224 107.928 47.5961L109.471 47.5614L109.507 45.354C109.547 42.8606 109.454 42.4536 108.689 41.7916C108.446 41.5815 107.921 41.3143 107.522 41.1981C106.763 40.9771 105.24 40.9278 104.792 41.1097ZM110.732 41.1343C110.617 41.2427 110.576 42.2982 110.576 45.1181C110.576 47.2281 110.612 49.0419 110.655 49.1488C110.721 49.3122 111.002 49.3433 112.41 49.3433H114.086V48.347C114.086 47.4449 114.107 47.3595 114.313 47.4434C114.438 47.4943 114.892 47.5604 115.321 47.5901C116.641 47.6818 117.94 46.9366 118.45 45.7952C118.812 44.9847 118.666 42.8316 118.211 42.2771C117.788 41.7614 117.579 41.5967 116.982 41.3114C116.168 40.9216 115.444 40.8949 114.716 41.2277C114.192 41.4668 114.188 41.4668 114.122 41.2277C114.061 41.0051 113.935 40.9868 112.472 40.9868C111.413 40.9868 110.836 41.0357 110.732 41.1343ZM115.07 43.866C115.172 43.9624 115.256 44.2666 115.256 44.5419V45.0421H114.671H114.086V44.5454C114.086 43.7903 114.608 43.4295 115.07 43.866ZM105.872 45.6259C105.911 46.1467 105.91 46.1481 105.463 46.1481C105.088 46.1481 105.001 46.0957 104.929 45.8262C104.827 45.441 105.174 45.0371 105.572 45.0773C105.779 45.0983 105.84 45.209 105.872 45.6259Z" fill="white"/>
<mask id="mask0_1224_1581" style="mask-type:alpha" maskUnits="userSpaceOnUse" x="0" y="0" width="388" height="346">
<rect x="0.270813" width="386.847" height="346" fill="#D9D9D9"/>
</mask>
<g mask="url(#mask0_1224_1581)">
<path d="M353.414 207.117H219.171V166.365C261.591 136.844 299.176 139.41 348.62 168.762L353.414 207.117Z" fill="#E4E4E4"/>
<path d="M276.921 134.079C309.438 134.079 335.798 107.719 335.798 75.2015C335.798 42.6843 309.438 16.3239 276.921 16.3239C244.404 16.3239 218.043 42.6843 218.043 75.2015C218.043 107.719 244.404 134.079 276.921 134.079Z" fill="#FFB8B8"/>
<path d="M240.852 546.881C230.523 547.009 220.235 545.561 210.342 542.588C201.543 539.934 193.38 535.508 186.356 529.582C179.332 523.656 173.595 516.355 169.498 508.128C168.2 505.653 167.912 502.77 168.695 500.087C175.188 477.924 206.567 362.725 186.546 271.147C183.72 258.426 183.486 245.265 185.856 232.45C188.226 219.636 193.153 207.43 200.343 196.56C207.365 185.776 216.487 176.517 227.165 169.335C237.844 162.153 249.859 157.195 262.495 154.757L262.495 154.754C265.816 154.106 269.155 153.575 272.418 153.172C286.385 151.453 300.561 152.842 313.929 157.24C327.297 161.639 339.528 168.937 349.746 178.614C360.268 188.481 368.478 200.552 373.789 213.963C379.1 227.374 381.381 241.793 380.468 256.188L365.08 503.109C364.974 504.96 364.388 506.752 363.381 508.308C362.373 509.864 360.977 511.132 359.332 511.986C341.61 521.273 288.376 546.881 240.852 546.881Z" fill="#3F3D56"/>
<path d="M343.435 31.8619C337.319 16.4912 326.116 3.68322 311.696 -4.42427C297.276 -12.5318 280.512 -15.4483 264.201 -12.6869L282.765 2.31426C259.7 3.09095 235.421 1.43951 218.953 17.6068C224.196 17.4613 231.067 28.6754 236.31 28.5299C226.508 28.7238 217.62 35.6109 213.29 44.4071C209.28 53.4439 208.342 63.5458 210.62 73.1665C212.556 82.7773 227.324 105.293 231.299 114.255C230.615 90.8337 276.724 34.9688 299.24 40.799C287.8 45.0433 277.874 52.5799 270.712 62.4583C286.03 54.7279 303.354 51.8934 320.336 54.3389C324.214 55.228 328.214 55.452 332.166 55.0011C334.589 54.5219 336.848 53.4296 338.728 51.8286C340.608 50.2275 342.046 48.1711 342.905 45.8559C343.764 43.5407 344.015 41.044 343.634 38.6041C343.253 36.1643 342.253 33.8629 340.729 31.9197L343.435 31.8619Z" fill="#2F2E41"/>
<path d="M236.797 532.054C235.309 532.051 233.839 531.741 232.477 531.142L120.766 482.383C118.393 481.365 116.467 479.525 115.343 477.201C114.218 474.877 113.971 472.225 114.646 469.733L188.599 190.366C189.974 185.168 192.372 180.296 195.652 176.036C198.933 171.776 203.031 168.213 207.705 165.556C212.38 162.898 217.537 161.2 222.876 160.561C228.215 159.921 233.628 160.353 238.798 161.831L268.368 170.271L247.551 521.893C247.444 523.628 246.921 525.311 246.025 526.801C245.13 528.291 243.889 529.543 242.407 530.451C240.721 531.494 238.779 532.05 236.797 532.054Z" fill="#E4E4E4"/>
<path d="M443.549 469.73L438.634 451.2L431.515 424.255L428.087 411.334L420.967 384.462L369.595 190.361C368.225 185.16 365.829 180.286 362.55 176.023C359.27 171.761 355.172 168.197 350.496 165.54C345.821 162.883 340.661 161.186 335.321 160.55C329.981 159.913 324.567 160.35 319.398 161.834L289.84 170.272L304.487 417.591L305.998 443.409L306.957 459.686V459.71L308.49 485.384L310.648 521.893C310.824 524.634 312.033 527.207 314.03 529.093C316.027 530.979 318.664 532.038 321.411 532.057C322.897 532.048 324.365 531.738 325.727 531.146L437.435 482.387C439.81 481.37 441.737 479.528 442.86 477.202C443.984 474.876 444.228 472.222 443.549 469.73Z" fill="#E4E4E4"/>
<path d="M129.656 491.674C133.299 490.723 136.689 488.985 139.587 486.583C142.486 484.18 144.822 481.171 146.432 477.768C148.042 474.365 148.886 470.65 148.905 466.885C148.924 463.12 148.117 459.397 146.541 455.978L203.983 275.647L163.251 267.117L110.587 443.917C105.018 446.945 100.754 451.911 98.6018 457.873C96.4496 463.835 96.5592 470.379 98.9097 476.266C101.26 482.152 105.688 486.972 111.355 489.812C117.022 492.652 123.534 493.314 129.656 491.674Z" fill="#FFB8B8"/>
<path d="M205.577 186.994C217.273 188.187 223.852 201.338 220.944 217.712L206.989 296.289C205.943 302.179 201.096 306.843 197.067 305.835L149.865 294.036C146.233 293.128 144.895 287.968 146.953 282.805L175.29 211.72C181.444 196.282 194.238 185.838 205.577 186.994Z" fill="#3F3D56"/>
<path d="M276.704 -35C296.63 -34.9979 315.774 -27.2401 330.081 -13.3694C344.388 0.501335 352.734 19.3958 353.353 39.3131H367.797C369.069 39.3131 370.288 39.8183 371.187 40.7174C372.086 41.6165 372.591 42.836 372.591 44.1075V63.2851C372.591 64.5566 372.086 65.776 371.187 66.6752C370.288 67.5743 369.069 68.0794 367.797 68.0795H204.788C203.516 68.0794 202.297 67.5743 201.398 66.6752C200.498 65.776 199.993 64.5566 199.993 63.2851V41.7102C199.993 31.6364 201.977 21.6613 205.833 12.3544C209.688 3.04744 215.338 -5.40903 222.461 -12.5322C229.584 -19.6554 238.041 -25.3059 247.348 -29.1609C256.655 -33.016 266.63 -35.0001 276.704 -35Z" fill="#F9A826"/>
<path d="M269.654 401.893C270.972 402.045 272.276 402.301 273.553 402.658L363.798 325.267L358.523 296.871L400.337 283.309L414.56 332.67C415.71 336.658 415.534 340.911 414.06 344.79C412.587 348.67 409.894 351.967 406.388 354.186L292.095 426.51C292.176 431.619 290.7 436.632 287.862 440.882C285.025 445.132 280.961 448.417 276.211 450.301C271.46 452.184 266.249 452.577 261.27 451.427C256.292 450.277 251.781 447.638 248.338 443.862C244.896 440.085 242.685 435.35 241.999 430.286C241.313 425.223 242.185 420.07 244.499 415.514C246.813 410.958 250.459 407.215 254.953 404.781C259.446 402.348 264.574 401.341 269.654 401.893Z" fill="#FFB8B8"/>
<path d="M364.033 193.485C376.526 189.987 389.01 199.496 393.193 215.697L413.265 293.438C414.77 299.266 411.848 305.459 407.283 306.116L353.809 313.807C349.695 314.399 346.069 310.179 345.918 304.622L343.842 228.12C343.391 211.506 351.92 196.875 364.033 193.485Z" fill="#3F3D56"/>
</g>
</svg>
