<svg width="26" height="26" viewBox="0 0 26 26" fill="none" xmlns="http://www.w3.org/2000/svg">
<path d="M8.32077 15.5915H8.27077H8.22077V15.5901C8.01148 15.5779 7.81322 15.4893 7.66417 15.3403C7.51511 15.1912 7.42657 14.993 7.41436 14.7837H7.41291V14.7337V14.6837L7.41291 10.6944M8.32077 15.5915L7.41291 10.6944M8.32077 15.5915H14.6837H14.7337H14.7837V15.5901C14.993 15.5779 15.1912 15.4893 15.3403 15.3403C15.4893 15.1912 15.5779 14.993 15.5901 14.7837M8.32077 15.5915L15.5901 14.7837M7.41291 10.6944L7.41291 10.6944C7.41291 10.6944 7.41291 10.6944 7.41291 10.6944ZM7.41428 10.6444C7.41339 10.6601 7.41293 10.6759 7.41291 10.6917M7.41428 10.6444L7.41291 10.6917M7.41428 10.6444C7.4197 10.5487 7.4411 10.4546 7.47771 10.3658C7.51433 10.277 7.56556 10.1951 7.62916 10.1235L7.62809 10.1224L7.6634 10.0871L7.66345 10.087L7.66359 10.0869L7.69876 10.0516L7.6988 10.0517L10.8949 6.85563C10.8954 6.85512 10.8959 6.8546 10.8964 6.85409L10.9303 6.82023L10.9312 6.82122C11.0028 6.7574 11.0847 6.70595 11.1734 6.66911C11.2777 6.62586 11.3894 6.6036 11.5022 6.6036C11.6151 6.6036 11.7268 6.62586 11.831 6.66911C11.9198 6.70595 12.0016 6.7574 12.0732 6.82122L12.0742 6.82023L12.1083 6.8543M7.41428 10.6444H7.41291V10.6917M7.41291 10.6917L12.1083 6.8543M15.5901 14.7837H15.5915V14.7337V14.6837V10.6944C15.5915 10.6934 15.5915 10.6924 15.5915 10.6914V10.6444H15.5902C15.5847 10.5487 15.5633 10.4546 15.5267 10.3658C15.4901 10.277 15.4389 10.1951 15.3753 10.1235L15.3764 10.1224L15.341 10.0871L15.341 10.087L15.3407 10.0867L15.3057 10.0516L15.3056 10.0517L12.1096 6.85563L15.5901 14.7837ZM12.1083 6.8543C12.1086 6.85467 12.109 6.85504 12.1094 6.85541C12.1094 6.85547 12.1095 6.85553 12.1095 6.85558L12.1083 6.8543ZM13.8758 13.8758H9.12863V11.0511L11.5022 8.67755L13.8758 11.0511V13.8758ZM25.0354 23.8914L25.0707 23.8561L25.0354 23.8207L19.5464 18.3317C21.1488 16.4444 22.0425 14.0452 22.0543 11.5522H22.0544V11.5022V11.4522H22.0543C22.0412 8.67165 20.9309 6.00781 18.9638 4.04067C16.9966 2.07354 14.3328 0.963276 11.5522 0.950118V0.95H11.5022H11.4522V0.950118C8.67165 0.963276 6.00781 2.07354 4.04067 4.04067C2.07354 6.00781 0.963276 8.67165 0.950118 11.4522H0.95V11.5022V11.5522H0.950118C0.963276 14.3328 2.07354 16.9966 4.04067 18.9638C6.00781 20.9309 8.67165 22.0412 11.4522 22.0543V22.0544H11.5022H11.5522V22.0543C14.0452 22.0425 16.4444 21.1488 18.3317 19.5464L23.8207 25.0354L23.8561 25.0707L23.8914 25.0354L25.0354 23.8914ZM2.66573 11.5022C2.66573 9.15864 3.59671 6.91104 5.25388 5.25388C6.91104 3.59671 9.15864 2.66573 11.5022 2.66573C13.8458 2.66573 16.0934 3.59671 17.7506 5.25388C19.4077 6.91104 20.3387 9.15864 20.3387 11.5022C20.3387 13.8458 19.4077 16.0934 17.7506 17.7506C16.0934 19.4077 13.8458 20.3387 11.5022 20.3387C9.15864 20.3387 6.91104 19.4077 5.25388 17.7506C3.59671 16.0934 2.66573 13.8458 2.66573 11.5022Z" fill="#FB8C00" stroke="#FB8C00" stroke-width="0.1"/>
</svg>
