<svg width="24" height="24" viewBox="0 0 24 24" fill="none" xmlns="http://www.w3.org/2000/svg">
<path fill-rule="evenodd" clip-rule="evenodd" d="M8.38803 0.134093C6.30105 0.586658 4.11053 1.84271 2.72937 3.37889C1.00978 5.29136 0.186795 7.27178 0.0234477 9.89082C-0.170184 12.9906 0.834505 15.6159 3.07253 17.8594C6.75551 21.5513 12.3782 22.026 16.6216 19.0032L17.2841 18.5314L20.0349 21.2657L22.7859 24L23.3914 23.3752L23.9971 22.7504L21.2686 20.0269L18.5402 17.3033L19.0692 16.5309C19.9075 15.3068 20.3871 14.2533 20.689 12.9725C21.9254 7.72907 19.0804 2.4255 14.0435 0.584197C12.6103 0.0600855 9.77128 -0.165723 8.38803 0.134093ZM14.161 2.44177C15.8833 3.27043 16.9188 4.14395 17.8605 5.56278C20.2293 9.13144 19.6603 14.0803 16.552 16.9456C12.1948 20.9619 5.11825 19.6881 2.54028 14.4233C1.90998 13.136 1.6785 12.0745 1.67547 10.4587C1.6696 7.1107 3.39563 4.21966 6.33588 2.6532C7.89742 1.82113 8.63542 1.668 10.8486 1.71684C12.5908 1.75526 12.8544 1.81299 14.161 2.44177ZM8.23415 7.49834L6.40061 9.36463V11.5803C6.40061 12.7989 6.48881 13.9607 6.59651 14.1621C6.77992 14.5045 7.0275 14.5281 10.4389 14.5281C13.0227 14.5281 14.1516 14.4619 14.3124 14.301C14.465 14.1484 14.5396 13.2929 14.5396 11.6948V9.31579L12.6907 7.47393C11.56 6.34753 10.6915 5.63206 10.4548 5.63206C10.2151 5.63206 9.37001 6.34242 8.23415 7.49834ZM11.7536 8.80796L12.8361 9.9018V11.3632V12.8246H10.4701H8.10411V11.3632V9.9018L9.1866 8.80796C9.78188 8.20643 10.3596 7.71412 10.4701 7.71412C10.5806 7.71412 11.1583 8.20643 11.7536 8.80796Z" fill="#FB8C00"/>
</svg>
