<svg width="169" height="206" viewBox="0 0 169 206" fill="none" xmlns="http://www.w3.org/2000/svg">
<g clip-path="url(#clip0_3804_292)">
<rect width="169" height="206" fill="white"/>
<rect x="3.55385" y="3.55385" width="165.046" height="201.6" rx="17.1692" fill="#FFF4E6" stroke="#FB8C00" stroke-width="1.10769"/>
<g filter="url(#filter0_d_3804_292)">
<path fill-rule="evenodd" clip-rule="evenodd" d="M100.396 101.328V108.12C100.396 125.196 100.396 133.736 104.591 139.039C105.688 140.42 107.002 141.495 108.448 142.195V148.874C108.448 150.749 109.651 152.27 111.132 152.27H114.711C115.423 152.27 116.105 151.912 116.609 151.275C117.112 150.638 117.395 149.775 117.395 148.874V144.133C120.598 144.346 124.416 144.346 129.025 144.346C133.635 144.346 137.453 144.346 140.656 144.133V148.874C140.656 150.749 141.858 152.27 143.34 152.27H146.918C147.63 152.27 148.313 151.912 148.816 151.275C149.32 150.638 149.602 149.775 149.602 148.874V142.195C151.048 141.495 152.362 140.42 153.46 139.039C157.654 133.736 157.654 125.196 157.654 108.12V101.328H100.396ZM146.918 109.252C147.63 109.252 148.313 109.61 148.816 110.247C149.32 110.884 149.602 111.747 149.602 112.648V121.705C149.602 122.605 149.32 123.469 148.816 124.106C148.313 124.743 147.63 125.101 146.918 125.101C146.207 125.101 145.524 124.743 145.021 124.106C144.517 123.469 144.234 122.605 144.234 121.705V112.648C144.234 111.747 144.517 110.884 145.021 110.247C145.524 109.61 146.207 109.252 146.918 109.252Z" fill="#F9AD4F"/>
<path d="M100.396 94.507C100.396 77.3597 100.396 68.7838 104.591 63.4591C108.785 58.1344 115.53 58.1299 129.025 58.1299C142.52 58.1299 149.27 58.1299 153.46 63.4591C157.651 68.7884 157.654 77.3597 157.654 94.507V101.328H100.396V94.507Z" fill="white"/>
<path d="M149.648 80.7984C149.648 79.8986 149.362 79.0356 148.853 78.3993C148.344 77.763 147.654 77.4055 146.934 77.4055C146.215 77.4055 145.524 77.763 145.016 78.3993C144.507 79.0356 144.221 79.8986 144.221 80.7984V89.8461C144.221 90.746 144.507 91.6089 145.016 92.2452C145.524 92.8815 146.215 93.239 146.934 93.239C147.654 93.239 148.344 92.8815 148.853 92.2452C149.362 91.6089 149.648 90.746 149.648 89.8461V80.7984Z" fill="#FB8C00"/>
</g>
<path d="M124.699 153.386H69.1727C68.7625 153.386 68.3691 153.218 68.079 152.919C67.7889 152.62 67.626 152.215 67.626 151.793V73.8018C67.626 73.3794 67.7889 72.9742 68.079 72.6755C68.3691 72.3768 68.7625 72.209 69.1727 72.209H124.702C125.112 72.209 125.505 72.3768 125.795 72.6755C126.085 72.9742 126.248 73.3794 126.248 73.8018V151.791C126.248 152.214 126.085 152.619 125.795 152.918C125.505 153.216 125.112 153.384 124.702 153.384" fill="#FFB9B9"/>
<path d="M97.0061 143.819C107.27 143.819 115.59 135.253 115.59 124.685C115.59 114.118 107.27 105.552 97.0061 105.552C86.7423 105.552 78.4219 114.118 78.4219 124.685C78.4219 135.253 86.7423 143.819 97.0061 143.819Z" fill="white"/>
<path d="M78.4219 124.686C78.4219 135.252 86.743 143.819 97.0061 143.819C107.269 143.819 115.59 135.252 115.59 124.686" fill="#92D3F5"/>
<path d="M71.5459 85.1352C71.5459 82.4121 73.7534 80.2046 76.4766 80.2046H93.2508C95.974 80.2046 98.1815 82.4121 98.1815 85.1352V90.9881C98.1815 93.7112 95.974 95.9188 93.2508 95.9188H76.4765C73.7534 95.9188 71.5459 93.7112 71.5459 90.9881V85.1352Z" fill="#FFE9CE"/>
<path d="M97.0052 135.8C102.967 135.8 107.8 130.824 107.8 124.685C107.8 118.547 102.967 113.571 97.0052 113.571C91.0432 113.571 86.21 118.547 86.21 124.685C86.21 130.824 91.0432 135.8 97.0052 135.8Z" fill="#FCEA2B"/>
<path d="M86.21 124.686C86.21 127.633 87.3473 130.46 89.3718 132.545C91.3963 134.629 94.1421 135.8 97.0052 135.8C99.8683 135.8 102.614 134.629 104.639 132.545C106.663 130.46 107.8 127.633 107.8 124.686" fill="#61B2E4"/>
<path d="M99.822 84.5197H108.357M99.822 89.4744H108.357M82.7522 86.997H87.6293M75.4365 82.0535H94.9449V94.3783H75.4365V82.0535Z" stroke="#FB8C00" stroke-width="0.258517" stroke-miterlimit="10" stroke-linecap="round" stroke-linejoin="round"/>
<path d="M117.093 89.6547C118.829 89.6547 120.236 88.2374 120.236 86.4892C120.236 84.741 118.829 83.3237 117.093 83.3237C115.357 83.3237 113.95 84.741 113.95 86.4892C113.95 88.2374 115.357 89.6547 117.093 89.6547Z" fill="#FB8C00"/>
<g filter="url(#filter1_d_3804_292)">
<rect x="9.64648" y="107.904" width="75.1228" height="43.2384" rx="5.91028" fill="white"/>
<rect x="9.66204" y="107.92" width="75.0917" height="43.2073" rx="5.89473" stroke="#FB8C00" stroke-width="0.0311067"/>
</g>
<rect x="16.8781" y="115.914" width="42.8984" height="30.018" rx="3.18844" fill="#FFBB00" stroke="#FB8C00" stroke-width="0.777668"/>
<rect x="68.1242" y="115.914" width="9.99575" height="8.55435" rx="3.18844" fill="#FFCA08" stroke="#FB8C00" stroke-width="0.777668"/>
<rect x="69.1437" y="129.757" width="1.84289" height="2.333" rx="0.921447" fill="#FFCA08" stroke="#FB8C00" stroke-width="0.777668"/>
<rect x="72.4923" y="129.757" width="1.84289" height="2.333" rx="0.921447" fill="#FFCA08" stroke="#FB8C00" stroke-width="0.777668"/>
<rect x="75.841" y="129.757" width="1.84289" height="2.333" rx="0.921447" fill="#FFCA08" stroke="#FB8C00" stroke-width="0.777668"/>
<rect x="69.1437" y="140.955" width="1.84289" height="2.333" rx="0.921447" fill="#FFB8B8" stroke="#E76063" stroke-width="0.777668"/>
<rect x="72.4923" y="140.955" width="1.84289" height="2.333" rx="0.921447" fill="#FFB8B8" stroke="#E76063" stroke-width="0.777668"/>
<rect x="75.841" y="140.955" width="1.84289" height="2.333" rx="0.921447" fill="#FFCA08" stroke="#FB8C00" stroke-width="0.777668"/>
<rect x="69.1437" y="137.378" width="1.84289" height="2.333" rx="0.921447" fill="#FFB8B8" stroke="#E76063" stroke-width="0.777668"/>
<rect x="72.4923" y="137.378" width="1.84289" height="2.333" rx="0.921447" fill="#FFB8B8" stroke="#E76063" stroke-width="0.777668"/>
<rect x="75.841" y="137.378" width="1.84289" height="2.333" rx="0.921447" fill="#FFB8B8" stroke="#E76063" stroke-width="0.777668"/>
<rect x="69.1437" y="133.645" width="1.84289" height="2.333" rx="0.921447" fill="#FFB8B8" stroke="#E76063" stroke-width="0.777668"/>
<rect x="72.4923" y="133.645" width="1.84289" height="2.333" rx="0.921447" fill="#FFB8B8" stroke="#E76063" stroke-width="0.777668"/>
<rect x="75.841" y="133.645" width="1.84289" height="2.333" rx="0.921447" fill="#FFB8B8" stroke="#E76063" stroke-width="0.777668"/>
<rect x="63.6603" y="115.505" width="0.582347" height="30.5244" rx="0.291174" fill="#FFCA08" stroke="#FB8C00" stroke-width="0.582347"/>
<rect x="104.908" y="18.2615" width="50.5484" height="21.438" rx="3.38493" fill="white"/>
<path d="M121.099 53.5514C120.947 53.2989 120.947 53.2711 121.202 52.6802C121.509 51.965 121.653 51.1871 121.623 50.4058C121.593 49.6246 121.389 48.8609 121.028 48.173C120.32 46.8102 120.144 45.2205 120.537 43.7289C120.898 42.3982 121.396 41.8655 121.848 42.325C122.069 42.5775 122.064 42.6255 121.622 43.8703C121.432 44.5028 121.366 45.1677 121.428 45.8266C121.49 46.4854 121.679 47.1251 121.983 47.7084C122.411 48.552 122.646 49.4848 122.671 50.4359C122.696 51.3871 122.51 52.3317 122.128 53.1979C121.882 53.665 121.826 53.7407 121.558 53.7711C121.467 53.7968 121.37 53.788 121.285 53.7463C121.2 53.7046 121.132 53.6327 121.094 53.5438L121.099 53.5514ZM126.057 53.6524C125.839 53.4251 125.883 53.1928 126.175 52.458C126.364 51.9641 126.462 51.4384 126.465 50.9076C126.536 49.9412 126.328 48.9746 125.866 48.1301C125.423 47.2636 125.207 46.2932 125.24 45.3147C125.24 43.941 125.763 42.325 126.239 42.1988C126.307 42.1707 126.381 42.1597 126.455 42.1667C126.528 42.1738 126.599 42.1987 126.661 42.2393C126.724 42.28 126.776 42.3353 126.813 42.4007C126.851 42.466 126.872 42.5396 126.877 42.6154C126.83 42.9309 126.742 43.2384 126.614 43.5295C126.381 44.1089 126.292 44.7388 126.354 45.3626C126.269 46.0216 126.38 46.6917 126.673 47.2842C127.233 48.2026 127.528 49.2655 127.525 50.3496C127.631 51.3472 127.445 52.3546 126.992 53.2433C126.776 53.6625 126.685 53.7483 126.435 53.7811C126.363 53.7954 126.289 53.7921 126.219 53.7715C126.148 53.7509 126.084 53.7135 126.03 53.6625L126.057 53.6524ZM130.929 53.6524C130.762 53.4731 130.814 53.2004 131.175 52.2207C131.351 51.7325 131.435 51.2138 131.42 50.693C131.439 49.8122 131.233 48.9417 130.824 48.168C130.615 47.7067 130.44 47.2297 130.301 46.7413C130.108 45.8167 130.108 44.8606 130.301 43.936C130.428 43.3189 130.679 42.7359 131.037 42.224C131.153 42.1547 131.291 42.1346 131.421 42.1681C131.551 42.2016 131.664 42.2859 131.734 42.4033C131.884 42.6406 131.879 42.6836 131.577 43.4588C131.303 44.1271 131.177 44.85 131.209 45.5747C131.241 46.2994 131.429 47.0077 131.761 47.6478C132.246 48.5622 132.491 49.591 132.471 50.6324C132.507 51.2591 132.424 51.8871 132.225 52.4808C131.918 53.4428 131.675 53.7938 131.31 53.7938C131.238 53.7999 131.166 53.7897 131.098 53.7639C131.031 53.7382 130.97 53.6975 130.919 53.6448L130.929 53.6524ZM102.166 39.0854C102.052 38.9692 101.968 38.8261 101.92 38.6687C101.879 35.6488 101.871 32.6288 101.896 29.6089L101.92 20.7712L102.239 20.1147C102.585 19.3565 103.2 18.763 103.957 18.4557C104.48 18.2588 104.596 18.2588 126.435 18.2588C148.275 18.2588 148.395 18.2588 148.918 18.4557C149.674 18.7611 150.288 19.3517 150.636 20.1071L150.948 20.7636L150.972 29.6089C150.972 34.4671 150.972 38.5526 150.943 38.6687C150.895 38.8261 150.811 38.9692 150.697 39.0854C150.506 39.2823 150.275 39.2823 126.43 39.2823C102.585 39.2823 102.357 39.247 102.166 39.05V39.0854ZM104.289 35.2978C104.318 33.0253 104.335 32.8864 104.549 32.4344C104.712 32.1151 104.952 31.8439 105.246 31.6466L105.698 31.331H147.229L147.676 31.6466C147.96 31.8494 148.192 32.1218 148.348 32.4395C148.564 32.8864 148.581 33.0253 148.594 35.3054L148.628 37.6916H149.384V29.4624C149.384 20.5692 149.384 20.8394 148.878 20.3546L148.648 20.1273L148.589 20.8141C148.595 21.2409 148.479 21.6601 148.255 22.0193C148.031 22.3786 147.709 22.662 147.33 22.8342C147.016 22.9705 144.76 22.9882 126.447 22.9882C108.135 22.9882 105.889 23.0286 105.565 22.8973C105.185 22.728 104.863 22.4447 104.641 22.0844C104.42 21.724 104.309 21.3034 104.323 20.8773L104.267 20.198L104.021 20.4253C103.498 20.9025 103.511 20.645 103.511 29.5154V37.7496H104.264L104.289 35.2978ZM123.743 30.0659C123.665 30.0249 123.598 29.9641 123.55 29.8894C123.501 29.8146 123.472 29.7284 123.464 29.6387C123.457 29.5491 123.472 29.4589 123.508 29.3769C123.543 29.2948 123.599 29.2234 123.669 29.1695C123.853 29.0332 124.253 29.0079 126.43 29.0079C129.299 29.0079 129.444 29.0382 129.388 29.6367C129.336 30.1543 129.155 30.1896 126.442 30.1896C125.545 30.2457 124.644 30.206 123.755 30.071L123.743 30.0659ZM142.305 29.8563C142.264 29.7923 142.237 29.7193 142.227 29.6429C142.217 29.5665 142.224 29.4888 142.248 29.4157C142.271 29.3426 142.311 29.276 142.364 29.2211C142.416 29.1661 142.48 29.1243 142.551 29.0988C142.988 28.8615 143.457 29.6038 143.098 29.97C143.038 30.0176 142.97 30.0523 142.897 30.0722C142.824 30.092 142.747 30.0965 142.673 30.0855C142.598 30.0744 142.526 30.0479 142.461 30.0077C142.396 29.9675 142.34 29.9143 142.296 29.8513L142.305 29.8563ZM144.804 29.874C144.73 29.7778 144.693 29.6571 144.699 29.5345C144.705 29.4119 144.754 29.2958 144.838 29.2079C144.921 29.12 145.032 29.0664 145.151 29.057C145.27 29.0476 145.389 29.0831 145.484 29.1569C145.552 29.1954 145.611 29.2496 145.656 29.3154C145.701 29.3812 145.73 29.4568 145.742 29.5362C145.753 29.6156 145.747 29.6967 145.723 29.7731C145.699 29.8495 145.658 29.9192 145.604 29.9766C145.549 30.0341 145.482 30.0778 145.409 30.1044C145.335 30.1309 145.257 30.1395 145.179 30.1296C145.102 30.1197 145.028 30.0914 144.962 30.0471C144.897 30.0027 144.843 29.9435 144.804 29.874ZM147.438 37.2497V36.8078H105.425V37.6916H147.438V37.2497ZM147.438 35.1791V34.6362H105.425V35.722H147.438V35.1791ZM147.438 33.2273C147.414 33.0649 147.351 32.9111 147.256 32.7791C147.161 32.6471 147.037 32.5409 146.893 32.4698C146.743 32.394 141.157 32.3587 126.43 32.3587C111.704 32.3587 106.127 32.394 105.97 32.4698C105.829 32.5443 105.706 32.6514 105.611 32.7828C105.517 32.9142 105.453 33.0663 105.425 33.2273V33.4495H147.438V33.2273ZM147.148 21.6121C147.408 21.3444 147.438 21.2737 147.438 20.5793V19.8218H105.42V20.5793C105.42 21.2712 105.437 21.3368 105.698 21.6121L105.987 21.905H146.846L147.148 21.6121Z" fill="#F9A826"/>
<rect x="3" y="147" width="166.154" height="59.8154" rx="17.7231" fill="#FB8C00"/>
<rect x="3" y="148.108" width="166.154" height="25.4769" fill="#FB8C00"/>
<path d="M12.0639 161.256V164.518H15.6199V165.568H12.0639V168.928H16.0399V169.978H10.7899V160.206H16.0399V161.256H12.0639ZM19.2416 159.618V169.978H17.9676V159.618H19.2416ZM28.413 165.848C28.413 166.09 28.399 166.347 28.371 166.618H22.239C22.2856 167.374 22.5423 167.966 23.009 168.396C23.485 168.816 24.059 169.026 24.731 169.026C25.2816 169.026 25.739 168.9 26.103 168.648C26.4763 168.386 26.7376 168.041 26.887 167.612H28.259C28.0536 168.349 27.643 168.951 27.027 169.418C26.411 169.875 25.6456 170.104 24.731 170.104C24.003 170.104 23.3496 169.94 22.771 169.614C22.2016 169.287 21.7536 168.825 21.427 168.228C21.1003 167.621 20.937 166.921 20.937 166.128C20.937 165.334 21.0956 164.639 21.413 164.042C21.7303 163.444 22.1736 162.987 22.743 162.67C23.3216 162.343 23.9843 162.18 24.731 162.18C25.459 162.18 26.103 162.338 26.663 162.656C27.223 162.973 27.6523 163.412 27.951 163.972C28.259 164.522 28.413 165.148 28.413 165.848ZM27.097 165.582C27.097 165.096 26.9896 164.681 26.775 164.336C26.5603 163.981 26.2663 163.715 25.893 163.538C25.529 163.351 25.123 163.258 24.675 163.258C24.031 163.258 23.4803 163.463 23.023 163.874C22.575 164.284 22.3183 164.854 22.253 165.582H27.097ZM29.6186 166.128C29.6186 165.334 29.7773 164.644 30.0946 164.056C30.4119 163.458 30.8506 162.996 31.4106 162.67C31.9799 162.343 32.6286 162.18 33.3566 162.18C34.2993 162.18 35.0739 162.408 35.6806 162.866C36.2966 163.323 36.7026 163.958 36.8986 164.77H35.5266C35.3959 164.303 35.1393 163.934 34.7566 163.664C34.3833 163.393 33.9166 163.258 33.3566 163.258C32.6286 163.258 32.0406 163.51 31.5926 164.014C31.1446 164.508 30.9206 165.213 30.9206 166.128C30.9206 167.052 31.1446 167.766 31.5926 168.27C32.0406 168.774 32.6286 169.026 33.3566 169.026C33.9166 169.026 34.3833 168.895 34.7566 168.634C35.1299 168.372 35.3866 167.999 35.5266 167.514H36.8986C36.6933 168.298 36.2826 168.928 35.6666 169.404C35.0506 169.87 34.2806 170.104 33.3566 170.104C32.6286 170.104 31.9799 169.94 31.4106 169.614C30.8506 169.287 30.4119 168.825 30.0946 168.228C29.7773 167.63 29.6186 166.93 29.6186 166.128ZM40.1525 163.356V167.878C40.1525 168.251 40.2318 168.517 40.3905 168.676C40.5492 168.825 40.8245 168.9 41.2165 168.9H42.1545V169.978H41.0065C40.2972 169.978 39.7652 169.814 39.4105 169.488C39.0558 169.161 38.8785 168.624 38.8785 167.878V163.356H37.8845V162.306H38.8785V160.374H40.1525V162.306H42.1545V163.356H40.1525ZM44.9721 163.552C45.1961 163.113 45.5135 162.772 45.9241 162.53C46.3441 162.287 46.8528 162.166 47.4501 162.166V163.482H47.1141C45.6861 163.482 44.9721 164.256 44.9721 165.806V169.978H43.6981V162.306H44.9721V163.552ZM49.5788 161.06C49.3361 161.06 49.1308 160.976 48.9628 160.808C48.7948 160.64 48.7108 160.434 48.7108 160.192C48.7108 159.949 48.7948 159.744 48.9628 159.576C49.1308 159.408 49.3361 159.324 49.5788 159.324C49.8121 159.324 50.0081 159.408 50.1668 159.576C50.3348 159.744 50.4188 159.949 50.4188 160.192C50.4188 160.434 50.3348 160.64 50.1668 160.808C50.0081 160.976 49.8121 161.06 49.5788 161.06ZM50.1948 162.306V169.978H48.9208V162.306H50.1948ZM51.8901 166.128C51.8901 165.334 52.0488 164.644 52.3661 164.056C52.6834 163.458 53.1221 162.996 53.6821 162.67C54.2514 162.343 54.9001 162.18 55.6281 162.18C56.5708 162.18 57.3454 162.408 57.9521 162.866C58.5681 163.323 58.9741 163.958 59.1701 164.77H57.7981C57.6674 164.303 57.4108 163.934 57.0281 163.664C56.6548 163.393 56.1881 163.258 55.6281 163.258C54.9001 163.258 54.3121 163.51 53.8641 164.014C53.4161 164.508 53.1921 165.213 53.1921 166.128C53.1921 167.052 53.4161 167.766 53.8641 168.27C54.3121 168.774 54.9001 169.026 55.6281 169.026C56.1881 169.026 56.6548 168.895 57.0281 168.634C57.4014 168.372 57.6581 167.999 57.7981 167.514H59.1701C58.9648 168.298 58.5541 168.928 57.9381 169.404C57.3221 169.87 56.5521 170.104 55.6281 170.104C54.9001 170.104 54.2514 169.94 53.6821 169.614C53.1221 169.287 52.6834 168.825 52.3661 168.228C52.0488 167.63 51.8901 166.93 51.8901 166.128ZM60.394 166.114C60.394 165.33 60.5527 164.644 60.87 164.056C61.1873 163.458 61.6213 162.996 62.172 162.67C62.732 162.343 63.3527 162.18 64.034 162.18C64.706 162.18 65.2893 162.324 65.784 162.614C66.2787 162.903 66.6473 163.267 66.89 163.706V162.306H68.178V169.978H66.89V168.55C66.638 168.998 66.26 169.371 65.756 169.67C65.2613 169.959 64.6827 170.104 64.02 170.104C63.3387 170.104 62.7227 169.936 62.172 169.6C61.6213 169.264 61.1873 168.792 60.87 168.186C60.5527 167.579 60.394 166.888 60.394 166.114ZM66.89 166.128C66.89 165.549 66.7733 165.045 66.54 164.616C66.3067 164.186 65.9893 163.86 65.588 163.636C65.196 163.402 64.762 163.286 64.286 163.286C63.81 163.286 63.376 163.398 62.984 163.622C62.592 163.846 62.2793 164.172 62.046 164.602C61.8127 165.031 61.696 165.535 61.696 166.114C61.696 166.702 61.8127 167.215 62.046 167.654C62.2793 168.083 62.592 168.414 62.984 168.648C63.376 168.872 63.81 168.984 64.286 168.984C64.762 168.984 65.196 168.872 65.588 168.648C65.9893 168.414 66.3067 168.083 66.54 167.654C66.7733 167.215 66.89 166.706 66.89 166.128ZM71.6049 159.618V169.978H70.3309V159.618H71.6049ZM80.6027 170.076C79.9587 170.076 79.38 169.964 78.8667 169.74C78.3627 169.506 77.966 169.189 77.6767 168.788C77.3873 168.377 77.238 167.906 77.2287 167.374H78.5867C78.6333 167.831 78.82 168.218 79.1467 168.536C79.4827 168.844 79.968 168.998 80.6027 168.998C81.2093 168.998 81.6853 168.848 82.0307 168.55C82.3853 168.242 82.5627 167.85 82.5627 167.374C82.5627 167 82.46 166.697 82.2547 166.464C82.0493 166.23 81.7927 166.053 81.4847 165.932C81.1767 165.81 80.7613 165.68 80.2387 165.54C79.5947 165.372 79.0767 165.204 78.6847 165.036C78.302 164.868 77.9707 164.606 77.6907 164.252C77.42 163.888 77.2847 163.402 77.2847 162.796C77.2847 162.264 77.42 161.792 77.6907 161.382C77.9613 160.971 78.3393 160.654 78.8247 160.43C79.3193 160.206 79.884 160.094 80.5187 160.094C81.4333 160.094 82.18 160.322 82.7587 160.78C83.3467 161.237 83.678 161.844 83.7527 162.6H82.3527C82.306 162.226 82.11 161.9 81.7647 161.62C81.4193 161.33 80.962 161.186 80.3927 161.186C79.8607 161.186 79.4267 161.326 79.0907 161.606C78.7547 161.876 78.5867 162.259 78.5867 162.754C78.5867 163.108 78.6847 163.398 78.8807 163.622C79.086 163.846 79.3333 164.018 79.6227 164.14C79.9213 164.252 80.3367 164.382 80.8687 164.532C81.5127 164.709 82.0307 164.886 82.4227 165.064C82.8147 165.232 83.1507 165.498 83.4307 165.862C83.7107 166.216 83.8507 166.702 83.8507 167.318C83.8507 167.794 83.7247 168.242 83.4727 168.662C83.2207 169.082 82.8473 169.422 82.3527 169.684C81.858 169.945 81.2747 170.076 80.6027 170.076ZM92.7255 165.848C92.7255 166.09 92.7115 166.347 92.6835 166.618H86.5515C86.5981 167.374 86.8548 167.966 87.3215 168.396C87.7975 168.816 88.3715 169.026 89.0435 169.026C89.5941 169.026 90.0515 168.9 90.4155 168.648C90.7888 168.386 91.0501 168.041 91.1995 167.612H92.5715C92.3661 168.349 91.9555 168.951 91.3395 169.418C90.7235 169.875 89.9581 170.104 89.0435 170.104C88.3155 170.104 87.6621 169.94 87.0835 169.614C86.5141 169.287 86.0661 168.825 85.7395 168.228C85.4128 167.621 85.2495 166.921 85.2495 166.128C85.2495 165.334 85.4081 164.639 85.7255 164.042C86.0428 163.444 86.4861 162.987 87.0555 162.67C87.6341 162.343 88.2968 162.18 89.0435 162.18C89.7715 162.18 90.4155 162.338 90.9755 162.656C91.5355 162.973 91.9648 163.412 92.2635 163.972C92.5715 164.522 92.7255 165.148 92.7255 165.848ZM91.4095 165.582C91.4095 165.096 91.3021 164.681 91.0875 164.336C90.8728 163.981 90.5788 163.715 90.2055 163.538C89.8415 163.351 89.4355 163.258 88.9875 163.258C88.3435 163.258 87.7928 163.463 87.3355 163.874C86.8875 164.284 86.6308 164.854 86.5655 165.582H91.4095ZM95.6811 163.552C95.9051 163.113 96.2224 162.772 96.6331 162.53C97.0531 162.287 97.5618 162.166 98.1591 162.166V163.482H97.8231C96.3951 163.482 95.6811 164.256 95.6811 165.806V169.978H94.4071V162.306H95.6811V163.552ZM102.486 168.802L104.866 162.306H106.224L103.214 169.978H101.73L98.7198 162.306H100.092L102.486 168.802ZM108.135 161.06C107.893 161.06 107.687 160.976 107.519 160.808C107.351 160.64 107.267 160.434 107.267 160.192C107.267 159.949 107.351 159.744 107.519 159.576C107.687 159.408 107.893 159.324 108.135 159.324C108.369 159.324 108.565 159.408 108.723 159.576C108.891 159.744 108.975 159.949 108.975 160.192C108.975 160.434 108.891 160.64 108.723 160.808C108.565 160.976 108.369 161.06 108.135 161.06ZM108.751 162.306V169.978H107.477V162.306H108.751ZM110.447 166.128C110.447 165.334 110.605 164.644 110.923 164.056C111.24 163.458 111.679 162.996 112.239 162.67C112.808 162.343 113.457 162.18 114.185 162.18C115.127 162.18 115.902 162.408 116.509 162.866C117.125 163.323 117.531 163.958 117.727 164.77H116.355C116.224 164.303 115.967 163.934 115.585 163.664C115.211 163.393 114.745 163.258 114.185 163.258C113.457 163.258 112.869 163.51 112.421 164.014C111.973 164.508 111.749 165.213 111.749 166.128C111.749 167.052 111.973 167.766 112.421 168.27C112.869 168.774 113.457 169.026 114.185 169.026C114.745 169.026 115.211 168.895 115.585 168.634C115.958 168.372 116.215 167.999 116.355 167.514H117.727C117.521 168.298 117.111 168.928 116.495 169.404C115.879 169.87 115.109 170.104 114.185 170.104C113.457 170.104 112.808 169.94 112.239 169.614C111.679 169.287 111.24 168.825 110.923 168.228C110.605 167.63 110.447 166.93 110.447 166.128ZM126.427 165.848C126.427 166.09 126.413 166.347 126.385 166.618H120.253C120.299 167.374 120.556 167.966 121.023 168.396C121.499 168.816 122.073 169.026 122.745 169.026C123.295 169.026 123.753 168.9 124.117 168.648C124.49 168.386 124.751 168.041 124.901 167.612H126.273C126.067 168.349 125.657 168.951 125.041 169.418C124.425 169.875 123.659 170.104 122.745 170.104C122.017 170.104 121.363 169.94 120.785 169.614C120.215 169.287 119.767 168.825 119.441 168.228C119.114 167.621 118.951 166.921 118.951 166.128C118.951 165.334 119.109 164.639 119.427 164.042C119.744 163.444 120.187 162.987 120.757 162.67C121.335 162.343 121.998 162.18 122.745 162.18C123.473 162.18 124.117 162.338 124.677 162.656C125.237 162.973 125.666 163.412 125.965 163.972C126.273 164.522 126.427 165.148 126.427 165.848ZM125.111 165.582C125.111 165.096 125.003 164.681 124.789 164.336C124.574 163.981 124.28 163.715 123.907 163.538C123.543 163.351 123.137 163.258 122.689 163.258C122.045 163.258 121.494 163.463 121.037 163.874C120.589 164.284 120.332 164.854 120.267 165.582H125.111ZM130.824 170.104C130.236 170.104 129.709 170.006 129.242 169.81C128.776 169.604 128.407 169.324 128.136 168.97C127.866 168.606 127.716 168.19 127.688 167.724H129.004C129.042 168.106 129.219 168.419 129.536 168.662C129.863 168.904 130.288 169.026 130.81 169.026C131.296 169.026 131.678 168.918 131.958 168.704C132.238 168.489 132.378 168.218 132.378 167.892C132.378 167.556 132.229 167.308 131.93 167.15C131.632 166.982 131.17 166.818 130.544 166.66C129.975 166.51 129.508 166.361 129.144 166.212C128.79 166.053 128.482 165.824 128.22 165.526C127.968 165.218 127.842 164.816 127.842 164.322C127.842 163.93 127.959 163.57 128.192 163.244C128.426 162.917 128.757 162.66 129.186 162.474C129.616 162.278 130.106 162.18 130.656 162.18C131.506 162.18 132.192 162.394 132.714 162.824C133.237 163.253 133.517 163.841 133.554 164.588H132.28C132.252 164.186 132.089 163.864 131.79 163.622C131.501 163.379 131.109 163.258 130.614 163.258C130.157 163.258 129.793 163.356 129.522 163.552C129.252 163.748 129.116 164.004 129.116 164.322C129.116 164.574 129.196 164.784 129.354 164.952C129.522 165.11 129.728 165.241 129.97 165.344C130.222 165.437 130.568 165.544 131.006 165.666C131.557 165.815 132.005 165.964 132.35 166.114C132.696 166.254 132.99 166.468 133.232 166.758C133.484 167.047 133.615 167.425 133.624 167.892C133.624 168.312 133.508 168.69 133.274 169.026C133.041 169.362 132.71 169.628 132.28 169.824C131.86 170.01 131.375 170.104 130.824 170.104ZM146.645 169.978L145.371 168.69C144.895 169.184 144.386 169.553 143.845 169.796C143.304 170.029 142.692 170.146 142.011 170.146C141.339 170.146 140.742 170.024 140.219 169.782C139.706 169.539 139.304 169.194 139.015 168.746C138.735 168.298 138.595 167.775 138.595 167.178C138.595 166.496 138.786 165.899 139.169 165.386C139.561 164.863 140.135 164.452 140.891 164.154C140.592 163.799 140.378 163.472 140.247 163.174C140.116 162.875 140.051 162.548 140.051 162.194C140.051 161.783 140.154 161.414 140.359 161.088C140.574 160.752 140.877 160.49 141.269 160.304C141.661 160.117 142.114 160.024 142.627 160.024C143.131 160.024 143.57 160.122 143.943 160.318C144.316 160.514 144.596 160.789 144.783 161.144C144.97 161.489 145.054 161.876 145.035 162.306H143.761C143.77 161.923 143.663 161.624 143.439 161.41C143.215 161.186 142.926 161.074 142.571 161.074C142.198 161.074 141.894 161.181 141.661 161.396C141.437 161.601 141.325 161.867 141.325 162.194C141.325 162.474 141.4 162.744 141.549 163.006C141.708 163.267 141.969 163.589 142.333 163.972L145.245 166.898L145.497 166.506L146.449 164.91H147.821L146.673 166.898C146.514 167.178 146.328 167.472 146.113 167.78L148.311 169.978H146.645ZM142.011 169.054C142.515 169.054 142.968 168.956 143.369 168.76C143.78 168.564 144.167 168.26 144.531 167.85L141.661 164.966C140.466 165.423 139.869 166.146 139.869 167.136C139.869 167.686 140.065 168.144 140.457 168.508C140.858 168.872 141.376 169.054 142.011 169.054ZM15.9279 190.978L13.6039 186.988H12.0639V190.978H10.7899V181.22H13.9399C14.6772 181.22 15.2979 181.346 15.8019 181.598C16.3152 181.85 16.6979 182.19 16.9499 182.62C17.2019 183.049 17.3279 183.539 17.3279 184.09C17.3279 184.762 17.1319 185.354 16.7399 185.868C16.3572 186.381 15.7786 186.722 15.0039 186.89L17.4539 190.978H15.9279ZM12.0639 185.966H13.9399C14.6306 185.966 15.1486 185.798 15.4939 185.462C15.8392 185.116 16.0119 184.659 16.0119 184.09C16.0119 183.511 15.8392 183.063 15.4939 182.746C15.1579 182.428 14.6399 182.27 13.9399 182.27H12.0639V185.966ZM26.3075 186.848C26.3075 187.09 26.2935 187.347 26.2655 187.618H20.1335C20.1802 188.374 20.4368 188.966 20.9035 189.396C21.3795 189.816 21.9535 190.026 22.6255 190.026C23.1762 190.026 23.6335 189.9 23.9975 189.648C24.3708 189.386 24.6322 189.041 24.7815 188.612H26.1535C25.9482 189.349 25.5375 189.951 24.9215 190.418C24.3055 190.875 23.5402 191.104 22.6255 191.104C21.8975 191.104 21.2442 190.94 20.6655 190.614C20.0962 190.287 19.6482 189.825 19.3215 189.228C18.9948 188.621 18.8315 187.921 18.8315 187.128C18.8315 186.334 18.9902 185.639 19.3075 185.042C19.6248 184.444 20.0682 183.987 20.6375 183.67C21.2162 183.343 21.8788 183.18 22.6255 183.18C23.3535 183.18 23.9975 183.338 24.5575 183.656C25.1175 183.973 25.5468 184.412 25.8455 184.972C26.1535 185.522 26.3075 186.148 26.3075 186.848ZM24.9915 186.582C24.9915 186.096 24.8842 185.681 24.6695 185.336C24.4548 184.981 24.1608 184.715 23.7875 184.538C23.4235 184.351 23.0175 184.258 22.5695 184.258C21.9255 184.258 21.3748 184.463 20.9175 184.874C20.4695 185.284 20.2128 185.854 20.1475 186.582H24.9915ZM29.2631 184.72C29.5151 184.281 29.8885 183.917 30.3831 183.628C30.8871 183.329 31.4705 183.18 32.1331 183.18C32.8145 183.18 33.4305 183.343 33.9811 183.67C34.5411 183.996 34.9798 184.458 35.2971 185.056C35.6145 185.644 35.7731 186.33 35.7731 187.114C35.7731 187.888 35.6145 188.579 35.2971 189.186C34.9798 189.792 34.5411 190.264 33.9811 190.6C33.4305 190.936 32.8145 191.104 32.1331 191.104C31.4798 191.104 30.9011 190.959 30.3971 190.67C29.9025 190.371 29.5245 190.002 29.2631 189.564V194.618H27.9891V183.306H29.2631V184.72ZM34.4711 187.114C34.4711 186.535 34.3545 186.031 34.1211 185.602C33.8878 185.172 33.5705 184.846 33.1691 184.622C32.7771 184.398 32.3431 184.286 31.8671 184.286C31.4005 184.286 30.9665 184.402 30.5651 184.636C30.1731 184.86 29.8558 185.191 29.6131 185.63C29.3798 186.059 29.2631 186.558 29.2631 187.128C29.2631 187.706 29.3798 188.215 29.6131 188.654C29.8558 189.083 30.1731 189.414 30.5651 189.648C30.9665 189.872 31.4005 189.984 31.8671 189.984C32.3431 189.984 32.7771 189.872 33.1691 189.648C33.5705 189.414 33.8878 189.083 34.1211 188.654C34.3545 188.215 34.4711 187.702 34.4711 187.114ZM36.9741 187.114C36.9741 186.33 37.1327 185.644 37.4501 185.056C37.7674 184.458 38.2014 183.996 38.7521 183.67C39.3121 183.343 39.9327 183.18 40.6141 183.18C41.2861 183.18 41.8694 183.324 42.3641 183.614C42.8587 183.903 43.2274 184.267 43.4701 184.706V183.306H44.7581V190.978H43.4701V189.55C43.2181 189.998 42.8401 190.371 42.3361 190.67C41.8414 190.959 41.2627 191.104 40.6001 191.104C39.9187 191.104 39.3027 190.936 38.7521 190.6C38.2014 190.264 37.7674 189.792 37.4501 189.186C37.1327 188.579 36.9741 187.888 36.9741 187.114ZM43.4701 187.128C43.4701 186.549 43.3534 186.045 43.1201 185.616C42.8867 185.186 42.5694 184.86 42.1681 184.636C41.7761 184.402 41.3421 184.286 40.8661 184.286C40.3901 184.286 39.9561 184.398 39.5641 184.622C39.1721 184.846 38.8594 185.172 38.6261 185.602C38.3927 186.031 38.2761 186.535 38.2761 187.114C38.2761 187.702 38.3927 188.215 38.6261 188.654C38.8594 189.083 39.1721 189.414 39.5641 189.648C39.9561 189.872 40.3901 189.984 40.8661 189.984C41.3421 189.984 41.7761 189.872 42.1681 189.648C42.5694 189.414 42.8867 189.083 43.1201 188.654C43.3534 188.215 43.4701 187.706 43.4701 187.128ZM47.569 182.06C47.3263 182.06 47.121 181.976 46.953 181.808C46.785 181.64 46.701 181.434 46.701 181.192C46.701 180.949 46.785 180.744 46.953 180.576C47.121 180.408 47.3263 180.324 47.569 180.324C47.8023 180.324 47.9983 180.408 48.157 180.576C48.325 180.744 48.409 180.949 48.409 181.192C48.409 181.434 48.325 181.64 48.157 181.808C47.9983 181.976 47.8023 182.06 47.569 182.06ZM48.185 183.306V190.978H46.911V183.306H48.185ZM51.6303 184.552C51.8543 184.113 52.1717 183.772 52.5823 183.53C53.0023 183.287 53.511 183.166 54.1083 183.166V184.482H53.7723C52.3443 184.482 51.6303 185.256 51.6303 186.806V190.978H50.3563V183.306H51.6303V184.552ZM64.6314 185.308V186.386H59.0454V185.308H64.6314ZM72.0288 182.256V185.518H75.5848V186.568H72.0288V189.928H76.0048V190.978H70.7548V181.206H76.0048V182.256H72.0288ZM79.2065 180.618V190.978H77.9325V180.618H79.2065ZM88.3778 186.848C88.3778 187.09 88.3638 187.347 88.3358 187.618H82.2038C82.2505 188.374 82.5071 188.966 82.9738 189.396C83.4498 189.816 84.0238 190.026 84.6958 190.026C85.2465 190.026 85.7038 189.9 86.0678 189.648C86.4411 189.386 86.7025 189.041 86.8518 188.612H88.2238C88.0185 189.349 87.6078 189.951 86.9918 190.418C86.3758 190.875 85.6105 191.104 84.6958 191.104C83.9678 191.104 83.3145 190.94 82.7358 190.614C82.1665 190.287 81.7185 189.825 81.3918 189.228C81.0651 188.621 80.9018 187.921 80.9018 187.128C80.9018 186.334 81.0605 185.639 81.3778 185.042C81.6951 184.444 82.1385 183.987 82.7078 183.67C83.2865 183.343 83.9491 183.18 84.6958 183.18C85.4238 183.18 86.0678 183.338 86.6278 183.656C87.1878 183.973 87.6171 184.412 87.9158 184.972C88.2238 185.522 88.3778 186.148 88.3778 186.848ZM87.0618 186.582C87.0618 186.096 86.9545 185.681 86.7398 185.336C86.5251 184.981 86.2311 184.715 85.8578 184.538C85.4938 184.351 85.0878 184.258 84.6398 184.258C83.9958 184.258 83.4451 184.463 82.9878 184.874C82.5398 185.284 82.2831 185.854 82.2178 186.582H87.0618ZM89.5834 187.128C89.5834 186.334 89.7421 185.644 90.0594 185.056C90.3768 184.458 90.8154 183.996 91.3754 183.67C91.9448 183.343 92.5934 183.18 93.3214 183.18C94.2641 183.18 95.0388 183.408 95.6454 183.866C96.2614 184.323 96.6674 184.958 96.8634 185.77H95.4914C95.3608 185.303 95.1041 184.934 94.7214 184.664C94.3481 184.393 93.8814 184.258 93.3214 184.258C92.5934 184.258 92.0054 184.51 91.5574 185.014C91.1094 185.508 90.8854 186.213 90.8854 187.128C90.8854 188.052 91.1094 188.766 91.5574 189.27C92.0054 189.774 92.5934 190.026 93.3214 190.026C93.8814 190.026 94.3481 189.895 94.7214 189.634C95.0948 189.372 95.3514 188.999 95.4914 188.514H96.8634C96.6581 189.298 96.2474 189.928 95.6314 190.404C95.0154 190.87 94.2454 191.104 93.3214 191.104C92.5934 191.104 91.9448 190.94 91.3754 190.614C90.8154 190.287 90.3768 189.825 90.0594 189.228C89.7421 188.63 89.5834 187.93 89.5834 187.128ZM100.117 184.356V188.878C100.117 189.251 100.197 189.517 100.355 189.676C100.514 189.825 100.789 189.9 101.181 189.9H102.119V190.978H100.971C100.262 190.978 99.73 190.814 99.3754 190.488C99.0207 190.161 98.8434 189.624 98.8434 188.878V184.356H97.8494V183.306H98.8434V181.374H100.117V183.306H102.119V184.356H100.117ZM104.937 184.552C105.161 184.113 105.478 183.772 105.889 183.53C106.309 183.287 106.818 183.166 107.415 183.166V184.482H107.079C105.651 184.482 104.937 185.256 104.937 186.806V190.978H103.663V183.306H104.937V184.552ZM109.544 182.06C109.301 182.06 109.096 181.976 108.928 181.808C108.76 181.64 108.676 181.434 108.676 181.192C108.676 180.949 108.76 180.744 108.928 180.576C109.096 180.408 109.301 180.324 109.544 180.324C109.777 180.324 109.973 180.408 110.132 180.576C110.3 180.744 110.384 180.949 110.384 181.192C110.384 181.434 110.3 181.64 110.132 181.808C109.973 181.976 109.777 182.06 109.544 182.06ZM110.16 183.306V190.978H108.886V183.306H110.16ZM111.855 187.128C111.855 186.334 112.014 185.644 112.331 185.056C112.648 184.458 113.087 183.996 113.647 183.67C114.216 183.343 114.865 183.18 115.593 183.18C116.536 183.18 117.31 183.408 117.917 183.866C118.533 184.323 118.939 184.958 119.135 185.77H117.763C117.632 185.303 117.376 184.934 116.993 184.664C116.62 184.393 116.153 184.258 115.593 184.258C114.865 184.258 114.277 184.51 113.829 185.014C113.381 185.508 113.157 186.213 113.157 187.128C113.157 188.052 113.381 188.766 113.829 189.27C114.277 189.774 114.865 190.026 115.593 190.026C116.153 190.026 116.62 189.895 116.993 189.634C117.366 189.372 117.623 188.999 117.763 188.514H119.135C118.93 189.298 118.519 189.928 117.903 190.404C117.287 190.87 116.517 191.104 115.593 191.104C114.865 191.104 114.216 190.94 113.647 190.614C113.087 190.287 112.648 189.825 112.331 189.228C112.014 188.63 111.855 187.93 111.855 187.128ZM121.493 182.06C121.25 182.06 121.045 181.976 120.877 181.808C120.709 181.64 120.625 181.434 120.625 181.192C120.625 180.949 120.709 180.744 120.877 180.576C121.045 180.408 121.25 180.324 121.493 180.324C121.726 180.324 121.922 180.408 122.081 180.576C122.249 180.744 122.333 180.949 122.333 181.192C122.333 181.434 122.249 181.64 122.081 181.808C121.922 181.976 121.726 182.06 121.493 182.06ZM122.109 183.306V190.978H120.835V183.306H122.109ZM123.804 187.114C123.804 186.33 123.963 185.644 124.28 185.056C124.597 184.458 125.031 183.996 125.582 183.67C126.142 183.343 126.763 183.18 127.444 183.18C128.116 183.18 128.699 183.324 129.194 183.614C129.689 183.903 130.057 184.267 130.3 184.706V183.306H131.588V190.978H130.3V189.55C130.048 189.998 129.67 190.371 129.166 190.67C128.671 190.959 128.093 191.104 127.43 191.104C126.749 191.104 126.133 190.936 125.582 190.6C125.031 190.264 124.597 189.792 124.28 189.186C123.963 188.579 123.804 187.888 123.804 187.114ZM130.3 187.128C130.3 186.549 130.183 186.045 129.95 185.616C129.717 185.186 129.399 184.86 128.998 184.636C128.606 184.402 128.172 184.286 127.696 184.286C127.22 184.286 126.786 184.398 126.394 184.622C126.002 184.846 125.689 185.172 125.456 185.602C125.223 186.031 125.106 186.535 125.106 187.114C125.106 187.702 125.223 188.215 125.456 188.654C125.689 189.083 126.002 189.414 126.394 189.648C126.786 189.872 127.22 189.984 127.696 189.984C128.172 189.984 128.606 189.872 128.998 189.648C129.399 189.414 129.717 189.083 129.95 188.654C130.183 188.215 130.3 187.706 130.3 187.128ZM137.479 183.166C138.412 183.166 139.168 183.45 139.747 184.02C140.326 184.58 140.615 185.392 140.615 186.456V190.978H139.355V186.638C139.355 185.872 139.164 185.289 138.781 184.888C138.398 184.477 137.876 184.272 137.213 184.272C136.541 184.272 136.004 184.482 135.603 184.902C135.211 185.322 135.015 185.933 135.015 186.736V190.978H133.741V183.306H135.015V184.398C135.267 184.006 135.608 183.702 136.037 183.488C136.476 183.273 136.956 183.166 137.479 183.166Z" fill="white"/>
<path d="M39.1102 17.2202C39.3568 17.6596 39.5797 18.0795 39.7788 18.4798C39.978 18.8801 40.1582 19.2854 40.3194 19.6955C40.4807 20.1056 40.5945 20.5303 40.6608 20.9697C40.7272 21.4091 40.7699 21.8973 40.7889 22.4343C40.7889 23.2057 40.694 23.9478 40.5044 24.6606C40.3147 25.3733 40.0396 26.0471 39.6793 26.6817C39.3189 27.3164 38.8874 27.8876 38.3847 28.3954C37.8821 28.9031 37.3272 29.3425 36.7203 29.7135C36.1133 30.0846 35.4637 30.3677 34.7713 30.563C34.079 30.7583 33.3535 30.8608 32.5948 30.8706C32.3766 30.8706 32.1585 30.8608 31.9404 30.8413C31.7223 30.8218 31.4994 30.7925 31.2718 30.7534L19.8057 42.5583C19.3505 43.027 18.8336 43.3834 18.2551 43.6275C17.6766 43.8716 17.0649 43.9937 16.42 43.9937C15.7656 43.9937 15.1491 43.8667 14.5706 43.6129C13.9921 43.359 13.4894 43.0075 13.0627 42.5583C12.6359 42.1092 12.2945 41.5868 12.0384 40.9912C11.7823 40.3956 11.6543 39.7609 11.6543 39.0872C11.6543 38.433 11.7728 37.8081 12.0099 37.2124C12.247 36.6168 12.5932 36.0798 13.0484 35.6013L24.5145 23.7964C24.4765 23.5718 24.4481 23.3473 24.4291 23.1227C24.4102 22.8981 24.4007 22.6687 24.4007 22.4343C24.4007 21.6629 24.4955 20.9209 24.6852 20.2081C24.8749 19.4953 25.1499 18.8216 25.5103 18.1869C25.8707 17.5522 26.3022 16.981 26.8048 16.4733C27.3075 15.9655 27.8623 15.5261 28.4693 15.1551C29.0762 14.7841 29.7259 14.5009 30.4182 14.3056C31.1105 14.1103 31.8361 14.0078 32.5948 13.998C33.1069 13.998 33.5764 14.0371 34.0031 14.1152C34.4299 14.1933 34.8472 14.3154 35.255 14.4814C35.6628 14.6474 36.0564 14.828 36.4358 15.0233C36.8151 15.2186 37.2229 15.4529 37.6592 15.7263L32.0542 21.497L33.5052 22.9909L39.1102 17.2202ZM32.5948 28.9959C33.4768 28.9959 34.3019 28.825 35.0701 28.4832C35.8383 28.1415 36.5116 27.6728 37.0902 27.0772C37.6687 26.4816 38.1239 25.7883 38.4558 24.9974C38.7878 24.2065 38.9585 23.3522 38.968 22.4343C38.968 21.7215 38.8542 21.0332 38.6265 20.3692L33.5052 25.6272L29.4935 21.497L34.6006 16.2243C33.9557 15.9899 33.2871 15.8728 32.5948 15.8728C31.7128 15.8728 30.8877 16.0436 30.1195 16.3854C29.3513 16.7271 28.6779 17.1958 28.0994 17.7914C27.5209 18.3871 27.0657 19.0803 26.7337 19.8712C26.4018 20.6621 26.2311 21.5165 26.2216 22.4343C26.2216 22.7761 26.25 23.108 26.3069 23.4303C26.3638 23.7525 26.4302 24.0747 26.5061 24.3969L14.343 36.9342C14.068 37.2173 13.8546 37.5444 13.7028 37.9155C13.5511 38.2865 13.4752 38.6771 13.4752 39.0872C13.4752 39.4973 13.5511 39.8878 13.7028 40.2589C13.8546 40.6299 14.068 40.9521 14.343 41.2255C14.618 41.4989 14.931 41.7137 15.2819 41.87C15.6328 42.0262 16.0122 42.1092 16.42 42.119C16.8183 42.119 17.1976 42.0408 17.558 41.8846C17.9184 41.7284 18.2361 41.5087 18.5112 41.2255L30.6885 28.7029C31.0015 28.7811 31.3144 28.8494 31.6274 28.908C31.9404 28.9666 32.2628 28.9959 32.5948 28.9959Z" fill="#FB8C00"/>
</g>
<defs>
<filter id="filter0_d_3804_292" x="63.3156" y="24.7571" width="131.42" height="168.302" filterUnits="userSpaceOnUse" color-interpolation-filters="sRGB">
<feFlood flood-opacity="0" result="BackgroundImageFix"/>
<feColorMatrix in="SourceAlpha" type="matrix" values="0 0 0 0 0 0 0 0 0 0 0 0 0 0 0 0 0 0 127 0" result="hardAlpha"/>
<feOffset dy="3.70809"/>
<feGaussianBlur stdDeviation="18.5404"/>
<feComposite in2="hardAlpha" operator="out"/>
<feColorMatrix type="matrix" values="0 0 0 0 0.976471 0 0 0 0 0.658824 0 0 0 0 0.14902 0 0 0 0.15 0"/>
<feBlend mode="normal" in2="BackgroundImageFix" result="effect1_dropShadow_3804_292"/>
<feBlend mode="normal" in="SourceGraphic" in2="effect1_dropShadow_3804_292" result="shape"/>
</filter>
<filter id="filter1_d_3804_292" x="-2.95175" y="99.9718" width="100.32" height="68.4347" filterUnits="userSpaceOnUse" color-interpolation-filters="sRGB">
<feFlood flood-opacity="0" result="BackgroundImageFix"/>
<feColorMatrix in="SourceAlpha" type="matrix" values="0 0 0 0 0 0 0 0 0 0 0 0 0 0 0 0 0 0 127 0" result="hardAlpha"/>
<feOffset dy="4.66601"/>
<feGaussianBlur stdDeviation="6.29912"/>
<feComposite in2="hardAlpha" operator="out"/>
<feColorMatrix type="matrix" values="0 0 0 0 0 0 0 0 0 0 0 0 0 0 0 0 0 0 0.1 0"/>
<feBlend mode="normal" in2="BackgroundImageFix" result="effect1_dropShadow_3804_292"/>
<feBlend mode="normal" in="SourceGraphic" in2="effect1_dropShadow_3804_292" result="shape"/>
</filter>
<clipPath id="clip0_3804_292">
<rect width="169" height="206" fill="white"/>
</clipPath>
</defs>
</svg>
