<svg width="167" height="198" viewBox="0 0 167 198" fill="none" xmlns="http://www.w3.org/2000/svg">
<g clip-path="url(#clip0_3809_262)">
<rect width="167" height="198" rx="17.72" fill="white"/>
<rect x="0.444471" y="0.553846" width="165.046" height="201.6" rx="17.1692" fill="#F3F2FF" stroke="#413AFF" stroke-width="1.10769"/>
<mask id="mask0_3809_262" style="mask-type:alpha" maskUnits="userSpaceOnUse" x="2" y="0" width="164" height="146">
<rect x="2" width="163.236" height="146" fill="#FFC5C5"/>
</mask>
<g mask="url(#mask0_3809_262)">
<path d="M151.015 87.3961H94.3691V70.2C112.269 57.7431 128.129 58.8259 148.992 71.2115L151.015 87.3961Z" fill="#E4E4E4"/>
<path d="M118.737 56.5768C132.458 56.5768 143.581 45.4536 143.581 31.7325C143.581 18.0114 132.458 6.88818 118.737 6.88818C105.016 6.88818 93.8926 18.0114 93.8926 31.7325C93.8926 45.4536 105.016 56.5768 118.737 56.5768Z" fill="#FFB8B8"/>
<path d="M103.517 230.765C99.1584 230.819 94.8171 230.208 90.6426 228.953C86.9299 227.834 83.4855 225.966 80.5216 223.465C77.5576 220.965 75.1368 217.884 73.408 214.413C72.8602 213.368 72.7388 212.152 73.0692 211.019C75.8092 201.668 89.05 153.058 80.6019 114.415C79.4094 109.047 79.3103 103.493 80.3104 98.086C81.3106 92.6787 83.3896 87.5282 86.4233 82.9418C89.3865 78.3913 93.2358 74.4842 97.7416 71.4536C102.247 68.4229 107.317 66.3309 112.649 65.3022L112.65 65.3011C114.051 65.0275 115.46 64.8033 116.837 64.6334C122.73 63.9079 128.712 64.4941 134.353 66.3501C139.994 68.206 145.155 71.2858 149.466 75.3691C153.906 79.5325 157.371 84.626 159.612 90.285C161.853 95.9439 162.815 102.028 162.43 108.103L155.937 212.295C155.892 213.076 155.645 213.832 155.22 214.488C154.794 215.145 154.206 215.68 153.511 216.04C146.034 219.959 123.57 230.765 103.517 230.765Z" fill="#3F3D56"/>
<path d="M146.804 13.4448C144.223 6.95891 139.496 1.55438 133.411 -1.8667C127.326 -5.28778 120.252 -6.51843 113.37 -5.35324L121.203 0.976731C111.47 1.30447 101.226 0.607616 94.2766 7.42964C96.4888 7.36827 99.3884 12.1002 101.601 12.0388C97.4646 12.1206 93.714 15.0268 91.8871 18.7384C90.1951 22.5517 89.7993 26.8143 90.7603 30.8739C91.5772 34.9294 97.8088 44.4301 99.4861 48.2117C99.1977 38.3289 118.654 14.7558 128.155 17.2159C123.328 19.0069 119.139 22.1871 116.117 26.3554C122.581 23.0935 129.891 21.8974 137.057 22.9293C138.693 23.3045 140.381 23.399 142.049 23.2087C143.071 23.0065 144.024 22.5456 144.818 21.8701C145.611 21.1945 146.218 20.3267 146.58 19.3498C146.943 18.3729 147.048 17.3193 146.888 16.2898C146.727 15.2603 146.305 14.2891 145.662 13.4692L146.804 13.4448Z" fill="#2F2E41"/>
<path d="M101.806 224.509C101.179 224.507 100.558 224.376 99.9834 224.124L52.8453 203.549C51.844 203.12 51.0314 202.343 50.5569 201.362C50.0824 200.382 49.9779 199.263 50.2627 198.211L81.4683 80.3279C82.0485 78.1344 83.0603 76.0787 84.4447 74.2811C85.829 72.4834 87.5581 70.98 89.5306 69.8588C91.5031 68.7376 93.6794 68.021 95.9322 67.7512C98.185 67.4814 100.469 67.6636 102.651 68.2873L115.128 71.8484L106.344 220.221C106.299 220.953 106.078 221.663 105.7 222.292C105.323 222.92 104.799 223.449 104.173 223.832C103.462 224.272 102.643 224.507 101.806 224.509Z" fill="#E4E4E4"/>
<path d="M189.047 198.21L186.973 190.391L183.969 179.021L182.523 173.569L179.519 162.23L157.841 80.3256C157.263 78.1312 156.252 76.0744 154.868 74.2758C153.484 72.4773 151.755 70.9733 149.782 69.8521C147.809 68.7308 145.632 68.015 143.379 67.7464C141.125 67.4779 138.841 67.6621 136.66 68.2883L124.188 71.849L130.368 176.209L131.005 187.103L131.41 193.971V193.982L132.057 204.815L132.968 220.221C133.042 221.377 133.552 222.463 134.395 223.259C135.237 224.055 136.35 224.502 137.509 224.51C138.136 224.506 138.756 224.375 139.33 224.125L186.467 203.551C187.469 203.121 188.282 202.344 188.757 201.363C189.231 200.381 189.334 199.261 189.047 198.21Z" fill="#E4E4E4"/>
<path d="M56.5957 207.469C58.1328 207.068 59.5633 206.335 60.7864 205.321C62.0094 204.307 62.9953 203.037 63.6746 201.601C64.3539 200.165 64.71 198.598 64.718 197.009C64.7259 195.421 64.3854 193.85 63.7205 192.407L87.9588 116.313L70.7715 112.714L48.5492 187.318C46.1994 188.595 44.4 190.691 43.4919 193.206C42.5837 195.722 42.6299 198.484 43.6218 200.967C44.6136 203.451 46.4821 205.485 48.8733 206.684C51.2645 207.882 54.0122 208.161 56.5957 207.469Z" fill="#FFB8B8"/>
<path d="M88.6324 78.905C93.5677 79.4085 96.3437 84.9576 95.1166 91.867L89.2283 125.023C88.7869 127.509 86.7415 129.477 85.0413 129.052L65.1237 124.073C63.5911 123.69 63.0266 121.513 63.8951 119.334L75.8522 89.3383C78.4489 82.8241 83.8475 78.4169 88.6324 78.905Z" fill="#3F3D56"/>
<path d="M118.644 -14.7688C127.053 -14.7679 135.131 -11.4944 141.168 -5.64143C147.205 0.211532 150.727 8.18435 150.988 16.5888H157.083C157.619 16.5888 158.134 16.8019 158.513 17.1813C158.893 17.5607 159.106 18.0753 159.106 18.6118V26.7041C159.106 27.2406 158.893 27.7552 158.513 28.1346C158.134 28.514 157.619 28.7271 157.083 28.7272H88.2985C87.7619 28.7271 87.2474 28.514 86.868 28.1346C86.4886 27.7552 86.2754 27.2406 86.2754 26.7041V17.6002C86.2754 13.3495 87.1126 9.1403 88.7393 5.2131C90.366 1.2859 92.7503 -2.28244 95.7561 -5.28819C98.7618 -8.29393 102.33 -10.6782 106.257 -12.3049C110.185 -13.9316 114.394 -14.7688 118.644 -14.7688Z" fill="#F9A826"/>
<path d="M115.67 169.585C116.226 169.649 116.776 169.757 117.315 169.908L155.395 137.251L153.17 125.269L170.813 119.546L176.815 140.375C177.3 142.058 177.226 143.852 176.604 145.489C175.983 147.126 174.846 148.518 173.367 149.454L125.139 179.972C125.173 182.128 124.551 184.244 123.353 186.037C122.156 187.83 120.441 189.216 118.437 190.011C116.432 190.806 114.233 190.972 112.132 190.486C110.031 190.001 108.128 188.888 106.675 187.294C105.223 185.701 104.29 183.703 104 181.566C103.711 179.429 104.079 177.255 105.055 175.332C106.032 173.41 107.57 171.83 109.467 170.804C111.363 169.777 113.526 169.352 115.67 169.585Z" fill="#FFB8B8"/>
<path d="M155.495 81.6438C160.766 80.168 166.034 84.1806 167.799 91.0166L176.269 123.821C176.904 126.28 175.671 128.893 173.745 129.17L151.181 132.416C149.444 132.665 147.915 130.885 147.851 128.54L146.975 96.2587C146.785 89.2482 150.384 83.0746 155.495 81.6438Z" fill="#3F3D56"/>
</g>
<path d="M24.2697 92.4267L18.542 95.7336M75.8195 62.6644L70.0918 65.9714" stroke="#E27022" stroke-width="0.5" stroke-miterlimit="10" stroke-linecap="round" stroke-linejoin="round"/>
<path d="M24.2295 92.3579L70.0515 65.9025L72.7368 70.5535L26.9147 97.0088L24.2295 92.3579Z" fill="#D22F27"/>
<path d="M21.624 87.8445L67.4461 61.3891L70.0916 65.9713L24.2696 92.4267L21.624 87.8445Z" fill="#EA5A47"/>
<path d="M24.2698 92.4267L18.542 95.7336M75.8196 62.6644L70.0918 65.9713M21.6242 87.8444L67.4463 61.3891L72.7374 70.5535L26.9153 97.0089L21.6242 87.8444Z" stroke="black" stroke-width="0.5" stroke-miterlimit="10" stroke-linecap="round" stroke-linejoin="round"/>
<path d="M23.8185 94.291L19.2363 96.9365C18.9173 97.1207 18.5381 97.1706 18.1823 97.0753C17.8265 96.98 17.5232 96.7472 17.339 96.4282C17.1548 96.1092 17.1049 95.73 17.2002 95.3742C17.2956 95.0184 17.5284 94.7151 17.8474 94.5309L22.4296 91.8854M70.5427 64.1072L75.1249 61.4617C75.4439 61.2775 75.823 61.2276 76.1788 61.3229C76.5346 61.4183 76.838 61.651 77.0222 61.9701C77.2064 62.2891 77.2563 62.6682 77.1609 63.024C77.0656 63.3798 76.8328 63.6832 76.5138 63.8673L71.9316 66.5129" fill="#E27022"/>
<path d="M44.2715 17.2227C44.5254 17.6621 44.7549 18.082 44.96 18.4824C45.165 18.8828 45.3506 19.2881 45.5166 19.6982C45.6826 20.1084 45.7998 20.5332 45.8682 20.9727C45.9365 21.4121 45.9805 21.9004 46 22.4375C46 23.209 45.9023 23.9512 45.707 24.6641C45.5117 25.377 45.2285 26.0508 44.8574 26.6855C44.4863 27.3203 44.042 27.8916 43.5244 28.3994C43.0068 28.9072 42.4355 29.3467 41.8105 29.7178C41.1855 30.0889 40.5166 30.3721 39.8037 30.5674C39.0908 30.7627 38.3438 30.8652 37.5625 30.875C37.3379 30.875 37.1133 30.8652 36.8887 30.8457C36.6641 30.8262 36.4346 30.7969 36.2002 30.7578L24.3936 42.5645C23.9248 43.0332 23.3926 43.3896 22.7969 43.6338C22.2012 43.8779 21.5713 44 20.9072 44C20.2334 44 19.5986 43.873 19.0029 43.6191C18.4072 43.3652 17.8896 43.0137 17.4502 42.5645C17.0107 42.1152 16.6592 41.5928 16.3955 40.9971C16.1318 40.4014 16 39.7666 16 39.0928C16 38.4385 16.1221 37.8135 16.3662 37.2178C16.6104 36.6221 16.9668 36.085 17.4355 35.6064L29.2422 23.7998C29.2031 23.5752 29.1738 23.3506 29.1543 23.126C29.1348 22.9014 29.125 22.6719 29.125 22.4375C29.125 21.666 29.2227 20.9238 29.418 20.2109C29.6133 19.498 29.8965 18.8242 30.2676 18.1895C30.6387 17.5547 31.083 16.9834 31.6006 16.4756C32.1182 15.9678 32.6895 15.5283 33.3145 15.1572C33.9395 14.7861 34.6084 14.5029 35.3213 14.3076C36.0342 14.1123 36.7812 14.0098 37.5625 14C38.0898 14 38.5732 14.0391 39.0127 14.1172C39.4521 14.1953 39.8818 14.3174 40.3018 14.4834C40.7217 14.6494 41.127 14.8301 41.5176 15.0254C41.9082 15.2207 42.3281 15.4551 42.7773 15.7285L37.0059 21.5L38.5 22.9941L44.2715 17.2227ZM37.5625 29C38.4707 29 39.3203 28.8291 40.1113 28.4873C40.9023 28.1455 41.5957 27.6768 42.1914 27.0811C42.7871 26.4854 43.2559 25.792 43.5977 25.001C43.9395 24.21 44.1152 23.3555 44.125 22.4375C44.125 21.7246 44.0078 21.0361 43.7734 20.3721L38.5 25.6309L34.3691 21.5L39.6279 16.2266C38.9639 15.9922 38.2754 15.875 37.5625 15.875C36.6543 15.875 35.8047 16.0459 35.0137 16.3877C34.2227 16.7295 33.5293 17.1982 32.9336 17.7939C32.3379 18.3896 31.8691 19.083 31.5273 19.874C31.1855 20.665 31.0098 21.5195 31 22.4375C31 22.7793 31.0293 23.1113 31.0879 23.4336C31.1465 23.7559 31.2148 24.0781 31.293 24.4004L18.7686 36.9395C18.4854 37.2227 18.2656 37.5498 18.1094 37.9209C17.9531 38.292 17.875 38.6826 17.875 39.0928C17.875 39.5029 17.9531 39.8936 18.1094 40.2646C18.2656 40.6357 18.4854 40.958 18.7686 41.2314C19.0518 41.5049 19.374 41.7197 19.7354 41.876C20.0967 42.0322 20.4873 42.1152 20.9072 42.125C21.3174 42.125 21.708 42.0469 22.0791 41.8906C22.4502 41.7344 22.7773 41.5146 23.0605 41.2314L35.5996 28.707C35.9219 28.7852 36.2441 28.8535 36.5664 28.9121C36.8887 28.9707 37.2207 29 37.5625 29Z" fill="#413AFF"/>
<rect y="138" width="166.154" height="59.8154" rx="17.7231" fill="#413AFF"/>
<rect y="139.108" width="166.154" height="25.4769" fill="#413AFF"/>
<path d="M23.352 151.278V154.54H26.908V155.59H23.352V158.95H27.328V160H22.078V150.228H27.328V151.278H23.352ZM30.5297 149.64V160H29.2557V149.64H30.5297ZM39.701 155.87C39.701 156.113 39.687 156.369 39.659 156.64H33.527C33.5737 157.396 33.8304 157.989 34.297 158.418C34.773 158.838 35.347 159.048 36.019 159.048C36.5697 159.048 37.027 158.922 37.391 158.67C37.7644 158.409 38.0257 158.063 38.175 157.634H39.547C39.3417 158.371 38.931 158.973 38.315 159.44C37.699 159.897 36.9337 160.126 36.019 160.126C35.291 160.126 34.6377 159.963 34.059 159.636C33.4897 159.309 33.0417 158.847 32.715 158.25C32.3884 157.643 32.225 156.943 32.225 156.15C32.225 155.357 32.3837 154.661 32.701 154.064C33.0184 153.467 33.4617 153.009 34.031 152.692C34.6097 152.365 35.2724 152.202 36.019 152.202C36.747 152.202 37.391 152.361 37.951 152.678C38.511 152.995 38.9404 153.434 39.239 153.994C39.547 154.545 39.701 155.17 39.701 155.87ZM38.385 155.604C38.385 155.119 38.2777 154.703 38.063 154.358C37.8484 154.003 37.5544 153.737 37.181 153.56C36.817 153.373 36.411 153.28 35.963 153.28C35.319 153.28 34.7684 153.485 34.311 153.896C33.863 154.307 33.6064 154.876 33.541 155.604H38.385ZM40.9067 156.15C40.9067 155.357 41.0654 154.666 41.3827 154.078C41.7 153.481 42.1387 153.019 42.6987 152.692C43.268 152.365 43.9167 152.202 44.6447 152.202C45.5874 152.202 46.362 152.431 46.9687 152.888C47.5847 153.345 47.9907 153.98 48.1867 154.792H46.8147C46.684 154.325 46.4274 153.957 46.0447 153.686C45.6714 153.415 45.2047 153.28 44.6447 153.28C43.9167 153.28 43.3287 153.532 42.8807 154.036C42.4327 154.531 42.2087 155.235 42.2087 156.15C42.2087 157.074 42.4327 157.788 42.8807 158.292C43.3287 158.796 43.9167 159.048 44.6447 159.048C45.2047 159.048 45.6714 158.917 46.0447 158.656C46.418 158.395 46.6747 158.021 46.8147 157.536H48.1867C47.9814 158.32 47.5707 158.95 46.9547 159.426C46.3387 159.893 45.5687 160.126 44.6447 160.126C43.9167 160.126 43.268 159.963 42.6987 159.636C42.1387 159.309 41.7 158.847 41.3827 158.25C41.0654 157.653 40.9067 156.953 40.9067 156.15ZM51.4406 153.378V157.9C51.4406 158.273 51.5199 158.539 51.6786 158.698C51.8373 158.847 52.1126 158.922 52.5046 158.922H53.4426V160H52.2946C51.5853 160 51.0533 159.837 50.6986 159.51C50.3439 159.183 50.1666 158.647 50.1666 157.9V153.378H49.1726V152.328H50.1666V150.396H51.4406V152.328H53.4426V153.378H51.4406ZM56.2602 153.574C56.4842 153.135 56.8015 152.795 57.2122 152.552C57.6322 152.309 58.1409 152.188 58.7382 152.188V153.504H58.4022C56.9742 153.504 56.2602 154.279 56.2602 155.828V160H54.9862V152.328H56.2602V153.574ZM60.8669 151.082C60.6242 151.082 60.4189 150.998 60.2509 150.83C60.0829 150.662 59.9989 150.457 59.9989 150.214C59.9989 149.971 60.0829 149.766 60.2509 149.598C60.4189 149.43 60.6242 149.346 60.8669 149.346C61.1002 149.346 61.2962 149.43 61.4549 149.598C61.6229 149.766 61.7069 149.971 61.7069 150.214C61.7069 150.457 61.6229 150.662 61.4549 150.83C61.2962 150.998 61.1002 151.082 60.8669 151.082ZM61.4829 152.328V160H60.2089V152.328H61.4829ZM63.1782 156.15C63.1782 155.357 63.3368 154.666 63.6542 154.078C63.9715 153.481 64.4102 153.019 64.9702 152.692C65.5395 152.365 66.1882 152.202 66.9162 152.202C67.8588 152.202 68.6335 152.431 69.2402 152.888C69.8562 153.345 70.2622 153.98 70.4582 154.792H69.0862C68.9555 154.325 68.6988 153.957 68.3162 153.686C67.9428 153.415 67.4762 153.28 66.9162 153.28C66.1882 153.28 65.6002 153.532 65.1522 154.036C64.7042 154.531 64.4802 155.235 64.4802 156.15C64.4802 157.074 64.7042 157.788 65.1522 158.292C65.6002 158.796 66.1882 159.048 66.9162 159.048C67.4762 159.048 67.9428 158.917 68.3162 158.656C68.6895 158.395 68.9462 158.021 69.0862 157.536H70.4582C70.2528 158.32 69.8422 158.95 69.2262 159.426C68.6102 159.893 67.8402 160.126 66.9162 160.126C66.1882 160.126 65.5395 159.963 64.9702 159.636C64.4102 159.309 63.9715 158.847 63.6542 158.25C63.3368 157.653 63.1782 156.953 63.1782 156.15ZM72.8161 151.082C72.5734 151.082 72.3681 150.998 72.2001 150.83C72.0321 150.662 71.9481 150.457 71.9481 150.214C71.9481 149.971 72.0321 149.766 72.2001 149.598C72.3681 149.43 72.5734 149.346 72.8161 149.346C73.0494 149.346 73.2454 149.43 73.4041 149.598C73.5721 149.766 73.6561 149.971 73.6561 150.214C73.6561 150.457 73.5721 150.662 73.4041 150.83C73.2454 150.998 73.0494 151.082 72.8161 151.082ZM73.4321 152.328V160H72.1581V152.328H73.4321ZM75.1274 156.136C75.1274 155.352 75.2861 154.666 75.6034 154.078C75.9207 153.481 76.3547 153.019 76.9054 152.692C77.4654 152.365 78.0861 152.202 78.7674 152.202C79.4394 152.202 80.0227 152.347 80.5174 152.636C81.0121 152.925 81.3807 153.289 81.6234 153.728V152.328H82.9114V160H81.6234V158.572C81.3714 159.02 80.9934 159.393 80.4894 159.692C79.9947 159.981 79.4161 160.126 78.7534 160.126C78.0721 160.126 77.4561 159.958 76.9054 159.622C76.3547 159.286 75.9207 158.815 75.6034 158.208C75.2861 157.601 75.1274 156.911 75.1274 156.136ZM81.6234 156.15C81.6234 155.571 81.5067 155.067 81.2734 154.638C81.0401 154.209 80.7227 153.882 80.3214 153.658C79.9294 153.425 79.4954 153.308 79.0194 153.308C78.5434 153.308 78.1094 153.42 77.7174 153.644C77.3254 153.868 77.0127 154.195 76.7794 154.624C76.5461 155.053 76.4294 155.557 76.4294 156.136C76.4294 156.724 76.5461 157.237 76.7794 157.676C77.0127 158.105 77.3254 158.437 77.7174 158.67C78.1094 158.894 78.5434 159.006 79.0194 159.006C79.4954 159.006 79.9294 158.894 80.3214 158.67C80.7227 158.437 81.0401 158.105 81.2734 157.676C81.5067 157.237 81.6234 156.729 81.6234 156.15ZM88.8023 152.188C89.7357 152.188 90.4917 152.473 91.0703 153.042C91.649 153.602 91.9383 154.414 91.9383 155.478V160H90.6783V155.66C90.6783 154.895 90.487 154.311 90.1043 153.91C89.7217 153.499 89.199 153.294 88.5363 153.294C87.8643 153.294 87.3277 153.504 86.9263 153.924C86.5343 154.344 86.3383 154.955 86.3383 155.758V160H85.0643V152.328H86.3383V153.42C86.5903 153.028 86.931 152.725 87.3603 152.51C87.799 152.295 88.2797 152.188 88.8023 152.188ZM103.072 154.33V155.408H97.4858V154.33H103.072ZM25.172 181.098C24.528 181.098 23.9493 180.986 23.436 180.762C22.932 180.529 22.5353 180.211 22.246 179.81C21.9567 179.399 21.8073 178.928 21.798 178.396H23.156C23.2027 178.853 23.3893 179.241 23.716 179.558C24.052 179.866 24.5373 180.02 25.172 180.02C25.7787 180.02 26.2547 179.871 26.6 179.572C26.9547 179.264 27.132 178.872 27.132 178.396C27.132 178.023 27.0293 177.719 26.824 177.486C26.6187 177.253 26.362 177.075 26.054 176.954C25.746 176.833 25.3307 176.702 24.808 176.562C24.164 176.394 23.646 176.226 23.254 176.058C22.8713 175.89 22.54 175.629 22.26 175.274C21.9893 174.91 21.854 174.425 21.854 173.818C21.854 173.286 21.9893 172.815 22.26 172.404C22.5307 171.993 22.9087 171.676 23.394 171.452C23.8887 171.228 24.4533 171.116 25.088 171.116C26.0027 171.116 26.7493 171.345 27.328 171.802C27.916 172.259 28.2473 172.866 28.322 173.622H26.922C26.8753 173.249 26.6793 172.922 26.334 172.642C25.9887 172.353 25.5313 172.208 24.962 172.208C24.43 172.208 23.996 172.348 23.66 172.628C23.324 172.899 23.156 173.281 23.156 173.776C23.156 174.131 23.254 174.42 23.45 174.644C23.6553 174.868 23.9027 175.041 24.192 175.162C24.4907 175.274 24.906 175.405 25.438 175.554C26.082 175.731 26.6 175.909 26.992 176.086C27.384 176.254 27.72 176.52 28 176.884C28.28 177.239 28.42 177.724 28.42 178.34C28.42 178.816 28.294 179.264 28.042 179.684C27.79 180.104 27.4167 180.445 26.922 180.706C26.4273 180.967 25.844 181.098 25.172 181.098ZM37.2948 176.87C37.2948 177.113 37.2808 177.369 37.2528 177.64H31.1208C31.1675 178.396 31.4241 178.989 31.8908 179.418C32.3668 179.838 32.9408 180.048 33.6128 180.048C34.1635 180.048 34.6208 179.922 34.9848 179.67C35.3581 179.409 35.6195 179.063 35.7688 178.634H37.1408C36.9355 179.371 36.5248 179.973 35.9088 180.44C35.2928 180.897 34.5275 181.126 33.6128 181.126C32.8848 181.126 32.2315 180.963 31.6528 180.636C31.0835 180.309 30.6355 179.847 30.3088 179.25C29.9821 178.643 29.8188 177.943 29.8188 177.15C29.8188 176.357 29.9775 175.661 30.2948 175.064C30.6121 174.467 31.0555 174.009 31.6248 173.692C32.2035 173.365 32.8661 173.202 33.6128 173.202C34.3408 173.202 34.9848 173.361 35.5448 173.678C36.1048 173.995 36.5341 174.434 36.8328 174.994C37.1408 175.545 37.2948 176.17 37.2948 176.87ZM35.9788 176.604C35.9788 176.119 35.8715 175.703 35.6568 175.358C35.4421 175.003 35.1481 174.737 34.7748 174.56C34.4108 174.373 34.0048 174.28 33.5568 174.28C32.9128 174.28 32.3621 174.485 31.9048 174.896C31.4568 175.307 31.2001 175.876 31.1348 176.604H35.9788ZM40.2504 174.574C40.4744 174.135 40.7918 173.795 41.2024 173.552C41.6224 173.309 42.1311 173.188 42.7284 173.188V174.504H42.3924C40.9644 174.504 40.2504 175.279 40.2504 176.828V181H38.9764V173.328H40.2504V174.574ZM47.0551 179.824L49.4351 173.328H50.7931L47.7831 181H46.2991L43.2891 173.328H44.6611L47.0551 179.824ZM52.7048 172.082C52.4621 172.082 52.2568 171.998 52.0888 171.83C51.9208 171.662 51.8368 171.457 51.8368 171.214C51.8368 170.971 51.9208 170.766 52.0888 170.598C52.2568 170.43 52.4621 170.346 52.7048 170.346C52.9381 170.346 53.1341 170.43 53.2928 170.598C53.4608 170.766 53.5448 170.971 53.5448 171.214C53.5448 171.457 53.4608 171.662 53.2928 171.83C53.1341 171.998 52.9381 172.082 52.7048 172.082ZM53.3208 173.328V181H52.0468V173.328H53.3208ZM55.0161 177.15C55.0161 176.357 55.1747 175.666 55.4921 175.078C55.8094 174.481 56.2481 174.019 56.8081 173.692C57.3774 173.365 58.0261 173.202 58.7541 173.202C59.6967 173.202 60.4714 173.431 61.0781 173.888C61.6941 174.345 62.1001 174.98 62.2961 175.792H60.9241C60.7934 175.325 60.5367 174.957 60.1541 174.686C59.7807 174.415 59.3141 174.28 58.7541 174.28C58.0261 174.28 57.4381 174.532 56.9901 175.036C56.5421 175.531 56.3181 176.235 56.3181 177.15C56.3181 178.074 56.5421 178.788 56.9901 179.292C57.4381 179.796 58.0261 180.048 58.7541 180.048C59.3141 180.048 59.7807 179.917 60.1541 179.656C60.5274 179.395 60.7841 179.021 60.9241 178.536H62.2961C62.0907 179.32 61.6801 179.95 61.0641 180.426C60.4481 180.893 59.6781 181.126 58.7541 181.126C58.0261 181.126 57.3774 180.963 56.8081 180.636C56.2481 180.309 55.8094 179.847 55.4921 179.25C55.1747 178.653 55.0161 177.953 55.0161 177.15ZM70.996 176.87C70.996 177.113 70.982 177.369 70.954 177.64H64.822C64.8686 178.396 65.1253 178.989 65.592 179.418C66.068 179.838 66.642 180.048 67.314 180.048C67.8646 180.048 68.322 179.922 68.686 179.67C69.0593 179.409 69.3206 179.063 69.47 178.634H70.842C70.6366 179.371 70.226 179.973 69.61 180.44C68.994 180.897 68.2286 181.126 67.314 181.126C66.586 181.126 65.9326 180.963 65.354 180.636C64.7846 180.309 64.3366 179.847 64.01 179.25C63.6833 178.643 63.52 177.943 63.52 177.15C63.52 176.357 63.6786 175.661 63.996 175.064C64.3133 174.467 64.7566 174.009 65.326 173.692C65.9046 173.365 66.5673 173.202 67.314 173.202C68.042 173.202 68.686 173.361 69.246 173.678C69.806 173.995 70.2353 174.434 70.534 174.994C70.842 175.545 70.996 176.17 70.996 176.87ZM69.68 176.604C69.68 176.119 69.5726 175.703 69.358 175.358C69.1433 175.003 68.8493 174.737 68.476 174.56C68.112 174.373 67.706 174.28 67.258 174.28C66.614 174.28 66.0633 174.485 65.606 174.896C65.158 175.307 64.9013 175.876 64.836 176.604H69.68ZM83.9 181L82.626 179.712C82.15 180.207 81.6414 180.575 81.1 180.818C80.5587 181.051 79.9474 181.168 79.266 181.168C78.594 181.168 77.9967 181.047 77.474 180.804C76.9607 180.561 76.5594 180.216 76.27 179.768C75.99 179.32 75.85 178.797 75.85 178.2C75.85 177.519 76.0414 176.921 76.424 176.408C76.816 175.885 77.39 175.475 78.146 175.176C77.8474 174.821 77.6327 174.495 77.502 174.196C77.3714 173.897 77.306 173.571 77.306 173.216C77.306 172.805 77.4087 172.437 77.614 172.11C77.8287 171.774 78.132 171.513 78.524 171.326C78.916 171.139 79.3687 171.046 79.882 171.046C80.386 171.046 80.8247 171.144 81.198 171.34C81.5714 171.536 81.8514 171.811 82.038 172.166C82.2247 172.511 82.3087 172.899 82.29 173.328H81.016C81.0254 172.945 80.918 172.647 80.694 172.432C80.47 172.208 80.1807 172.096 79.826 172.096C79.4527 172.096 79.1494 172.203 78.916 172.418C78.692 172.623 78.58 172.889 78.58 173.216C78.58 173.496 78.6547 173.767 78.804 174.028C78.9627 174.289 79.224 174.611 79.588 174.994L82.5 177.92L82.752 177.528L83.704 175.932H85.076L83.928 177.92C83.7694 178.2 83.5827 178.494 83.368 178.802L85.566 181H83.9ZM79.266 180.076C79.77 180.076 80.2227 179.978 80.624 179.782C81.0347 179.586 81.422 179.283 81.786 178.872L78.916 175.988C77.7214 176.445 77.124 177.169 77.124 178.158C77.124 178.709 77.32 179.166 77.712 179.53C78.1134 179.894 78.6314 180.076 79.266 180.076ZM95.6301 181L93.3061 177.01H91.7661V181H90.4921V171.242H93.6421C94.3794 171.242 95.0001 171.368 95.5041 171.62C96.0174 171.872 96.4001 172.213 96.6521 172.642C96.9041 173.071 97.0301 173.561 97.0301 174.112C97.0301 174.784 96.8341 175.377 96.4421 175.89C96.0594 176.403 95.4807 176.744 94.7061 176.912L97.1561 181H95.6301ZM91.7661 175.988H93.6421C94.3327 175.988 94.8507 175.82 95.1961 175.484C95.5414 175.139 95.7141 174.681 95.7141 174.112C95.7141 173.533 95.5414 173.085 95.1961 172.768C94.8601 172.451 94.3421 172.292 93.6421 172.292H91.7661V175.988ZM106.01 176.87C106.01 177.113 105.996 177.369 105.968 177.64H99.8356C99.8823 178.396 100.139 178.989 100.606 179.418C101.082 179.838 101.656 180.048 102.328 180.048C102.878 180.048 103.336 179.922 103.7 179.67C104.073 179.409 104.334 179.063 104.484 178.634H105.856C105.65 179.371 105.24 179.973 104.624 180.44C104.008 180.897 103.242 181.126 102.328 181.126C101.6 181.126 100.946 180.963 100.368 180.636C99.7983 180.309 99.3503 179.847 99.0236 179.25C98.697 178.643 98.5336 177.943 98.5336 177.15C98.5336 176.357 98.6923 175.661 99.0096 175.064C99.327 174.467 99.7703 174.009 100.34 173.692C100.918 173.365 101.581 173.202 102.328 173.202C103.056 173.202 103.7 173.361 104.26 173.678C104.82 173.995 105.249 174.434 105.548 174.994C105.856 175.545 106.01 176.17 106.01 176.87ZM104.694 176.604C104.694 176.119 104.586 175.703 104.372 175.358C104.157 175.003 103.863 174.737 103.49 174.56C103.126 174.373 102.72 174.28 102.272 174.28C101.628 174.28 101.077 174.485 100.62 174.896C100.172 175.307 99.915 175.876 99.8496 176.604H104.694ZM108.965 174.742C109.217 174.303 109.591 173.939 110.085 173.65C110.589 173.351 111.173 173.202 111.835 173.202C112.517 173.202 113.133 173.365 113.683 173.692C114.243 174.019 114.682 174.481 114.999 175.078C115.317 175.666 115.475 176.352 115.475 177.136C115.475 177.911 115.317 178.601 114.999 179.208C114.682 179.815 114.243 180.286 113.683 180.622C113.133 180.958 112.517 181.126 111.835 181.126C111.182 181.126 110.603 180.981 110.099 180.692C109.605 180.393 109.227 180.025 108.965 179.586V184.64H107.691V173.328H108.965V174.742ZM114.173 177.136C114.173 176.557 114.057 176.053 113.823 175.624C113.59 175.195 113.273 174.868 112.871 174.644C112.479 174.42 112.045 174.308 111.569 174.308C111.103 174.308 110.669 174.425 110.267 174.658C109.875 174.882 109.558 175.213 109.315 175.652C109.082 176.081 108.965 176.581 108.965 177.15C108.965 177.729 109.082 178.237 109.315 178.676C109.558 179.105 109.875 179.437 110.267 179.67C110.669 179.894 111.103 180.006 111.569 180.006C112.045 180.006 112.479 179.894 112.871 179.67C113.273 179.437 113.59 179.105 113.823 178.676C114.057 178.237 114.173 177.724 114.173 177.136ZM116.676 177.136C116.676 176.352 116.835 175.666 117.152 175.078C117.47 174.481 117.904 174.019 118.454 173.692C119.014 173.365 119.635 173.202 120.316 173.202C120.988 173.202 121.572 173.347 122.066 173.636C122.561 173.925 122.93 174.289 123.172 174.728V173.328H124.46V181H123.172V179.572C122.92 180.02 122.542 180.393 122.038 180.692C121.544 180.981 120.965 181.126 120.302 181.126C119.621 181.126 119.005 180.958 118.454 180.622C117.904 180.286 117.47 179.815 117.152 179.208C116.835 178.601 116.676 177.911 116.676 177.136ZM123.172 177.15C123.172 176.571 123.056 176.067 122.822 175.638C122.589 175.209 122.272 174.882 121.87 174.658C121.478 174.425 121.044 174.308 120.568 174.308C120.092 174.308 119.658 174.42 119.266 174.644C118.874 174.868 118.562 175.195 118.328 175.624C118.095 176.053 117.978 176.557 117.978 177.136C117.978 177.724 118.095 178.237 118.328 178.676C118.562 179.105 118.874 179.437 119.266 179.67C119.658 179.894 120.092 180.006 120.568 180.006C121.044 180.006 121.478 179.894 121.87 179.67C122.272 179.437 122.589 179.105 122.822 178.676C123.056 178.237 123.172 177.729 123.172 177.15ZM127.271 172.082C127.028 172.082 126.823 171.998 126.655 171.83C126.487 171.662 126.403 171.457 126.403 171.214C126.403 170.971 126.487 170.766 126.655 170.598C126.823 170.43 127.028 170.346 127.271 170.346C127.504 170.346 127.7 170.43 127.859 170.598C128.027 170.766 128.111 170.971 128.111 171.214C128.111 171.457 128.027 171.662 127.859 171.83C127.7 171.998 127.504 172.082 127.271 172.082ZM127.887 173.328V181H126.613V173.328H127.887ZM131.332 174.574C131.556 174.135 131.874 173.795 132.284 173.552C132.704 173.309 133.213 173.188 133.81 173.188V174.504H133.474C132.046 174.504 131.332 175.279 131.332 176.828V181H130.058V173.328H131.332V174.574Z" fill="white"/>
</g>
<defs>
<clipPath id="clip0_3809_262">
<rect width="167" height="198" rx="17.72" fill="white"/>
</clipPath>
</defs>
</svg>
