<svg width="196" height="125" viewBox="0 0 196 125" fill="none" xmlns="http://www.w3.org/2000/svg">
<path d="M31.6816 42.5798H156.146V104.812H31.6816V42.5798Z" fill="#CFD8DC"/>
<path d="M31.6816 104.812H156.146V117.914H31.6816V104.812Z" fill="#B0BEC5"/>
<path d="M103.74 58.9568H143.045V117.914H103.74V58.9568Z" fill="#455A64"/>
<path d="M44.7832 58.9568H90.6386V94.986H44.7832V58.9568Z" fill="#E3F2FD"/>
<path d="M48.0596 62.2324H87.3642V91.7109H48.0596V62.2324Z" fill="#FFDD55"/>
<path d="M134.857 90.073C133.874 90.073 133.219 90.7281 133.219 91.7107V98.2615C133.219 99.2441 133.874 99.8991 134.857 99.8991C135.84 99.8991 136.495 99.2441 136.495 98.2615V91.7107C136.495 90.7281 135.84 90.073 134.857 90.073Z" fill="#90A4AE"/>
<path d="M93.9155 52.406C99.3423 52.406 103.742 48.0066 103.742 42.5798C103.742 37.153 99.3423 32.7537 93.9155 32.7537C88.4887 32.7537 84.0894 37.153 84.0894 42.5798C84.0894 48.0066 88.4887 52.406 93.9155 52.406Z" fill="#558B2F"/>
<path d="M133.22 52.406C138.647 52.406 143.046 48.0066 143.046 42.5798C143.046 37.153 138.647 32.7537 133.22 32.7537C127.793 32.7537 123.394 37.153 123.394 42.5798C123.394 48.0066 127.793 52.406 133.22 52.406Z" fill="#558B2F"/>
<path d="M54.6103 52.406C60.0372 52.406 64.4365 48.0066 64.4365 42.5798C64.4365 37.153 60.0372 32.7537 54.6103 32.7537C49.1835 32.7537 44.7842 37.153 44.7842 42.5798C44.7842 48.0066 49.1835 52.406 54.6103 52.406Z" fill="#558B2F"/>
<path d="M146.32 0H41.5078C37.9049 0 34.957 2.94784 34.957 6.55077V16.3769H152.871V6.55077C152.871 2.94784 149.923 0 146.32 0ZM84.0878 16.3769H103.74V42.58H84.0878V16.3769ZM136.494 16.3769H120.117L123.392 42.58H143.045L136.494 16.3769ZM51.334 16.3769H67.7109L64.4355 42.58H44.7832L51.334 16.3769Z" fill="#FB8C00"/>
<path d="M113.566 52.406C118.993 52.406 123.393 48.0066 123.393 42.5798C123.393 37.153 118.993 32.7537 113.566 32.7537C108.14 32.7537 103.74 37.153 103.74 42.5798C103.74 48.0066 108.14 52.406 113.566 52.406Z" fill="#FFA000"/>
<path d="M162.697 42.5798C162.697 48.148 158.439 52.406 152.871 52.406C147.303 52.406 143.045 48.148 143.045 42.5798C143.045 37.0117 147.303 32.7537 152.871 32.7537L162.697 42.5798Z" fill="#FFA000"/>
<path d="M74.2622 52.406C79.689 52.406 84.0883 48.0066 84.0883 42.5798C84.0883 37.153 79.689 32.7537 74.2622 32.7537C68.8354 32.7537 64.436 37.153 64.436 42.5798C64.436 48.0066 68.8354 52.406 74.2622 52.406Z" fill="#FFA000"/>
<path d="M25.1309 42.5798C25.1309 48.148 29.3889 52.406 34.957 52.406C40.5252 52.406 44.7832 48.148 44.7832 42.5798C44.7832 37.0117 40.5252 32.7537 34.957 32.7537L25.1309 42.5798Z" fill="#FFA000"/>
<path d="M120.117 16.377H103.741V42.58H123.393L120.117 16.377ZM152.871 16.377H136.494L143.045 42.58H162.697L152.871 16.377ZM67.7113 16.377H84.0882V42.58H64.436L67.7113 16.377ZM34.9575 16.377H51.3344L44.7836 42.58H25.1313L34.9575 16.377Z" fill="#FFC107"/>
<ellipse cx="97.5529" cy="121.362" rx="97.5529" ry="3.63756" fill="#D9D9D9"/>
</svg>
