<svg width="13" height="13" viewBox="0 0 13 13" fill="none" xmlns="http://www.w3.org/2000/svg">
<path d="M1.54721 6.08245C1.54878 6.28135 1.62929 6.47149 1.77105 6.61103C1.9128 6.75057 2.10418 6.82809 2.30309 6.82652L8.24291 6.77979L6.28847 8.76523C6.15711 8.90844 6.08647 9.09705 6.09143 9.29131C6.09638 9.48558 6.17655 9.67034 6.31504 9.80667C6.45353 9.943 6.63953 10.0202 6.83385 10.0221C7.02817 10.024 7.21565 9.95045 7.35677 9.81685L10.5811 6.54138C10.7204 6.39966 10.7978 6.20842 10.7963 6.00967C10.7947 5.81093 10.7143 5.62093 10.5728 5.48141L7.29729 2.25709C7.22805 2.18394 7.14479 2.12549 7.05247 2.08523C6.96015 2.04496 6.86067 2.0237 6.75996 2.02271C6.65924 2.02173 6.55936 2.04104 6.46627 2.0795C6.37318 2.11795 6.2888 2.17476 6.21814 2.24654C6.14748 2.31831 6.09201 2.40359 6.05502 2.49727C6.01804 2.59095 6.0003 2.69112 6.00287 2.79181C6.00544 2.8925 6.02826 2.99163 6.06998 3.08331C6.11169 3.17498 6.17144 3.25731 6.24567 3.32539L8.23111 5.27983L2.29129 5.32657C1.8773 5.32982 1.54396 5.66846 1.54721 6.08245Z" fill="#FB8C00"/>
</svg>
