<svg width="101" height="61" viewBox="0 0 101 61" fill="none" xmlns="http://www.w3.org/2000/svg">
<path d="M50.5789 0C39.7951 0 31.0891 8.6074 31.0891 19.2864C31.0891 25.3352 33.1932 28.178 35.5078 31.8632C37.0596 34.3111 38.6641 37.154 39.5846 41.2339H61.4154C62.3359 37.0487 63.9404 34.1795 65.4922 31.7052C67.8331 27.9938 69.9109 25.2036 69.9109 19.2864C69.9109 8.6074 61.2839 0 50.5789 0ZM13.2036 2.02682L4.47135 4.0668L25.8286 14.6615L13.2036 2.02682ZM87.7964 2.02682L75.1714 14.6615L96.5286 4.0668L87.7964 2.02682ZM38.5326 15.596L50.5 21.5711L62.4674 15.596L56.9966 37.4435L52.4201 36.2853L55.3659 24.4403L50.5 26.8883L45.6341 24.4403L48.5799 36.2853L44.0034 37.4435L38.5326 15.596ZM0 20.026V28.4676L25.25 24.2297L0 20.026ZM101 20.026L75.75 24.2297L101 28.4413V20.026ZM71.0682 32.7318L81.5628 49.3938L87.9016 45.3665L71.0682 32.7318ZM29.9318 32.7581L13.0984 45.3928L19.4372 49.4202L29.9318 32.7581ZM39.9792 45.0243V49.2359H61.0208V45.0243H39.9792Z" fill="#F9A826"/>
<rect x="39" y="54" width="26" height="7" fill="#6B4B46"/>
</svg>
