<svg width="79" height="79" viewBox="0 0 79 79" fill="none" xmlns="http://www.w3.org/2000/svg">
<path d="M49.375 32.9168C51.3281 32.9168 53.2373 32.3376 54.8613 31.2525C56.4852 30.1674 57.7509 28.6252 58.4983 26.8208C59.2457 25.0163 59.4413 23.0308 59.0603 21.1152C58.6792 19.1997 57.7387 17.4401 56.3577 16.0591C54.9766 14.678 53.2171 13.7375 51.3015 13.3565C49.386 12.9755 47.4004 13.171 45.596 13.9184C43.7916 14.6659 42.2493 15.9316 41.1642 17.5555C40.0792 19.1794 39.5 21.0887 39.5 23.0418C39.5 25.6608 40.5404 28.1725 42.3923 30.0244C44.2442 31.8764 46.756 32.9168 49.375 32.9168ZM49.375 19.7501C50.026 19.7501 50.6624 19.9431 51.2038 20.3048C51.7451 20.6665 52.167 21.1806 52.4161 21.7821C52.6652 22.3836 52.7304 23.0454 52.6034 23.6839C52.4764 24.3224 52.1629 24.909 51.7026 25.3693C51.2422 25.8297 50.6557 26.1432 50.0172 26.2702C49.3787 26.3972 48.7168 26.332 48.1153 26.0829C47.5139 25.8337 46.9998 25.4118 46.6381 24.8705C46.2764 24.3292 46.0833 23.6928 46.0833 23.0418C46.0833 22.1687 46.4301 21.3315 47.0474 20.7142C47.6647 20.0969 48.502 19.7501 49.375 19.7501Z" fill="black" fill-opacity="0.21"/>
<path d="M72.4167 0H6.58333C4.83732 0 3.16283 0.693599 1.92821 1.92821C0.693599 3.16283 0 4.83732 0 6.58333V72.4167C0 74.1627 0.693599 75.8372 1.92821 77.0718C3.16283 78.3064 4.83732 79 6.58333 79H72.4167C74.1627 79 75.8372 78.3064 77.0718 77.0718C78.3064 75.8372 79 74.1627 79 72.4167V6.58333C79 4.83732 78.3064 3.16283 77.0718 1.92821C75.8372 0.693599 74.1627 0 72.4167 0ZM72.4167 72.4167H6.58333V52.6667L23.0417 36.2083L41.4421 54.6088C42.6756 55.8349 44.3441 56.5231 46.0833 56.5231C47.8226 56.5231 49.4911 55.8349 50.7246 54.6088L55.9583 49.375L72.4167 65.8333V72.4167ZM72.4167 56.5179L60.5996 44.7008C59.3661 43.4747 57.6976 42.7864 55.9583 42.7864C54.2191 42.7864 52.5506 43.4747 51.3171 44.7008L46.0833 49.9346L27.6829 31.5342C26.4494 30.308 24.7809 29.6198 23.0417 29.6198C21.3024 29.6198 19.6339 30.308 18.4004 31.5342L6.58333 43.3512V6.58333H72.4167V56.5179Z" fill="black" fill-opacity="0.21"/>
</svg>
