<svg width="397" height="801" viewBox="0 0 397 801" fill="none" xmlns="http://www.w3.org/2000/svg">
<g filter="url(#filter0_d_1430_3)">
<rect width="389" height="793" transform="translate(4)" fill="white"/>
<path d="M232.982 386.158L235.908 395.263L231.745 413.601L212.724 434.431C232.171 435.607 251.458 430.297 267.561 419.331C267.561 419.331 274.903 371.606 230.849 371.606C219.13 379.418 209.093 384.818 197.808 384.796H198.267C186.982 384.818 176.944 379.418 165.226 371.606C121.172 371.606 128.514 419.331 128.514 419.331C165.145 441.436 181.262 432.944 231.745 413.601L234.01 400.674L145.651 405.63L165.145 402.297" fill="#FB8C00"/>
<path d="M267.506 419.335C267.506 419.335 274.848 371.609 230.794 371.609C219.075 379.422 209.035 384.818 197.753 384.796H198.212C186.927 384.818 176.889 379.422 165.171 371.609C121.116 371.609 128.459 419.335 128.459 419.335" fill="#FB8C00"/>
<path d="M231.829 371.609C222.291 378.896 210.949 383.45 199.019 384.782C246.973 386.298 246.973 404.654 249.77 419.339H268.541C268.541 419.339 275.884 371.609 231.829 371.609Z" fill="#FFC882"/>
<path d="M268.541 419.335C268.541 419.335 225.382 452.471 192.411 430.213L231.745 413.6L235.908 395.263C235.908 395.263 268.861 386.217 268.541 419.335Z" fill="#FFC882"/>
<path d="M198.039 363.066C221.03 363.066 239.667 339.771 239.667 311.034C239.667 282.298 221.03 259.002 198.039 259.002C175.049 259.002 156.411 282.298 156.411 311.034C156.411 339.771 175.049 363.066 198.039 363.066Z" fill="#FB8C00"/>
<path d="M246.393 254.402C198.039 269.517 156.411 304.033 156.411 304.033C156.411 304.033 141.873 284.429 148.199 264.652C148.199 264.652 156.411 235 196.057 235C224.336 235 238.628 246.638 246.393 254.402C268.96 286.434 238.555 304.345 238.555 304.345C226.231 294.744 214.4 284.525 203.109 273.728" fill="white"/>
<path d="M246.393 254.402C268.956 286.434 238.555 304.345 238.555 304.345C226.231 294.744 214.4 284.525 203.109 273.728" fill="#D0CFCE"/>
<path d="M198.039 295.123C196.092 295.123 194.224 294.35 192.847 292.973C191.47 291.596 190.697 289.728 190.697 287.781V273.096C190.697 271.149 191.47 269.281 192.847 267.904C194.224 266.527 196.092 265.754 198.039 265.754C199.987 265.754 201.854 266.527 203.231 267.904C204.608 269.281 205.382 271.149 205.382 273.096V287.781C205.382 289.728 204.608 291.596 203.231 292.973C201.854 294.35 199.987 295.123 198.039 295.123ZM231.745 413.601L215.547 420.323V401.067H234.01L231.745 413.601Z" fill="#FCEA2B"/>
<path d="M212.724 434.431C232.169 435.609 251.454 430.301 267.557 419.339C267.557 419.339 274.9 371.613 230.845 371.613C219.127 379.425 209.09 384.822 197.804 384.8H198.263C186.978 384.822 176.941 379.425 165.222 371.613C121.168 371.613 128.51 419.339 128.51 419.339C165.142 441.439 181.258 432.951 231.741 413.604L234.006 400.682L145.647 405.638" stroke="black" stroke-width="2" stroke-linecap="round" stroke-linejoin="round"/>
<path d="M232.982 386.158L235.908 395.263L231.745 413.601" stroke="black" stroke-width="2" stroke-linecap="round" stroke-linejoin="round"/>
<path d="M220.066 306.038C220.066 307.49 219.636 308.91 218.829 310.117C218.022 311.325 216.875 312.266 215.534 312.821C214.192 313.377 212.716 313.522 211.292 313.239C209.867 312.956 208.559 312.257 207.532 311.23C206.505 310.203 205.806 308.895 205.523 307.47C205.239 306.046 205.385 304.57 205.941 303.228C206.496 301.886 207.437 300.74 208.645 299.933C209.852 299.126 211.272 298.695 212.724 298.695C214.671 298.695 216.539 299.469 217.916 300.846C219.293 302.223 220.066 304.091 220.066 306.038ZM190.697 306.038C190.697 307.49 190.266 308.91 189.459 310.117C188.653 311.325 187.506 312.266 186.164 312.821C184.823 313.377 183.346 313.522 181.922 313.239C180.498 312.956 179.189 312.257 178.163 311.23C177.136 310.203 176.436 308.895 176.153 307.47C175.87 306.046 176.015 304.57 176.571 303.228C177.127 301.886 178.068 300.74 179.275 299.933C180.483 299.126 181.902 298.695 183.354 298.695C185.302 298.695 187.169 299.469 188.546 300.846C189.923 302.223 190.697 304.091 190.697 306.038ZM198.039 342.757C193.631 342.715 189.295 341.636 185.381 339.607C184.51 339.172 183.848 338.408 183.54 337.484C183.232 336.56 183.304 335.552 183.74 334.681C184.176 333.81 184.939 333.147 185.863 332.84C186.787 332.532 187.796 332.604 188.667 333.04C191.546 334.593 194.766 335.406 198.037 335.406C201.309 335.406 204.529 334.593 207.408 333.04C208.28 332.604 209.288 332.532 210.213 332.84C211.137 333.148 211.901 333.811 212.337 334.682C212.772 335.554 212.844 336.563 212.536 337.487C212.228 338.411 211.565 339.175 210.694 339.611C206.781 341.638 202.446 342.715 198.039 342.757Z" fill="black"/>
<path d="M190.704 280.266C186.005 283.093 181.636 285.883 177.745 288.489C166.254 296.162 158.618 302.256 156.819 303.688C156.562 303.909 156.415 304.019 156.415 304.019C156.415 304.019 141.877 284.414 148.192 264.663C148.192 264.663 156.415 235 196.064 235C224.332 235 238.613 246.638 246.396 254.421C266.882 283.46 243.753 300.861 239.274 303.872C238.797 304.202 238.54 304.349 238.54 304.349C238.54 304.349 222.35 291.94 205.389 275.897" stroke="black" stroke-width="2" stroke-linecap="round" stroke-linejoin="round"/>
<path d="M205.279 271.969C218.419 264.873 232.182 258.999 246.396 254.421" stroke="black" stroke-width="2" stroke-linecap="round" stroke-linejoin="round"/>
<path d="M215.547 402.143V419.574M156.698 304.357C156.465 306.603 156.349 308.86 156.349 311.119C156.349 339.857 174.988 363.151 197.977 363.151C220.966 363.151 239.601 339.857 239.601 311.119C239.603 308.789 239.48 306.46 239.234 304.144M198.039 295.123C196.092 295.123 194.224 294.35 192.847 292.973C191.47 291.596 190.697 289.728 190.697 287.781V273.096C190.697 271.149 191.47 269.281 192.847 267.904C194.224 266.527 196.092 265.754 198.039 265.754C199.987 265.754 201.854 266.527 203.231 267.904C204.608 269.281 205.382 271.149 205.382 273.096V287.781C205.382 289.728 204.608 291.596 203.231 292.973C201.854 294.35 199.987 295.123 198.039 295.123Z" stroke="black" stroke-width="2" stroke-linecap="round" stroke-linejoin="round"/>
<path d="M134.527 697.52H129.663L128.767 700H127.231L131.263 688.912H132.943L136.959 700H135.423L134.527 697.52ZM134.111 696.336L132.095 690.704L130.079 696.336H134.111ZM140.172 688.16V700H138.716V688.16H140.172ZM144.11 688.16V700H142.654V688.16H144.11ZM152.313 692.656C152.569 692.155 152.932 691.765 153.401 691.488C153.881 691.211 154.462 691.072 155.145 691.072V692.576H154.761C153.129 692.576 152.313 693.461 152.313 695.232V700H150.857V691.232H152.313V692.656ZM157.578 689.808C157.3 689.808 157.066 689.712 156.874 689.52C156.682 689.328 156.586 689.093 156.586 688.816C156.586 688.539 156.682 688.304 156.874 688.112C157.066 687.92 157.3 687.824 157.578 687.824C157.844 687.824 158.068 687.92 158.25 688.112C158.442 688.304 158.538 688.539 158.538 688.816C158.538 689.093 158.442 689.328 158.25 689.52C158.068 689.712 157.844 689.808 157.578 689.808ZM158.282 691.232V700H156.826V691.232H158.282ZM164.379 691.088C165.137 691.088 165.798 691.253 166.363 691.584C166.939 691.915 167.366 692.331 167.643 692.832V691.232H169.115V700.192C169.115 700.992 168.945 701.701 168.603 702.32C168.262 702.949 167.771 703.44 167.131 703.792C166.502 704.144 165.766 704.32 164.923 704.32C163.771 704.32 162.811 704.048 162.043 703.504C161.275 702.96 160.822 702.219 160.683 701.28H162.123C162.283 701.813 162.614 702.24 163.115 702.56C163.617 702.891 164.219 703.056 164.923 703.056C165.723 703.056 166.374 702.805 166.875 702.304C167.387 701.803 167.643 701.099 167.643 700.192V698.352C167.355 698.864 166.929 699.291 166.363 699.632C165.798 699.973 165.137 700.144 164.379 700.144C163.601 700.144 162.891 699.952 162.251 699.568C161.622 699.184 161.126 698.645 160.763 697.952C160.401 697.259 160.219 696.469 160.219 695.584C160.219 694.688 160.401 693.904 160.763 693.232C161.126 692.549 161.622 692.021 162.251 691.648C162.891 691.275 163.601 691.088 164.379 691.088ZM167.643 695.6C167.643 694.939 167.51 694.363 167.243 693.872C166.977 693.381 166.614 693.008 166.155 692.752C165.707 692.485 165.211 692.352 164.667 692.352C164.123 692.352 163.627 692.48 163.179 692.736C162.731 692.992 162.374 693.365 162.107 693.856C161.841 694.347 161.707 694.923 161.707 695.584C161.707 696.256 161.841 696.843 162.107 697.344C162.374 697.835 162.731 698.213 163.179 698.48C163.627 698.736 164.123 698.864 164.667 698.864C165.211 698.864 165.707 698.736 166.155 698.48C166.614 698.213 166.977 697.835 167.243 697.344C167.51 696.843 167.643 696.261 167.643 695.6ZM175.928 691.072C176.589 691.072 177.186 691.216 177.72 691.504C178.253 691.781 178.669 692.203 178.968 692.768C179.277 693.333 179.432 694.021 179.432 694.832V700H177.992V695.04C177.992 694.165 177.773 693.499 177.336 693.04C176.898 692.571 176.301 692.336 175.544 692.336C174.776 692.336 174.162 692.576 173.704 693.056C173.256 693.536 173.032 694.235 173.032 695.152V700H171.576V688.16H173.032V692.48C173.32 692.032 173.714 691.685 174.216 691.44C174.728 691.195 175.298 691.072 175.928 691.072ZM183.586 692.432V697.6C183.586 698.027 183.677 698.331 183.858 698.512C184.039 698.683 184.354 698.768 184.802 698.768H185.874V700H184.562C183.751 700 183.143 699.813 182.738 699.44C182.333 699.067 182.13 698.453 182.13 697.6V692.432H180.994V691.232H182.13V689.024H183.586V691.232H185.874V692.432H183.586ZM193.36 692.656C193.616 692.155 193.979 691.765 194.448 691.488C194.928 691.211 195.509 691.072 196.192 691.072V692.576H195.808C194.176 692.576 193.36 693.461 193.36 695.232V700H191.904V691.232H193.36V692.656ZM205.873 695.28C205.873 695.557 205.857 695.851 205.825 696.16H198.817C198.87 697.024 199.163 697.701 199.697 698.192C200.241 698.672 200.897 698.912 201.665 698.912C202.294 698.912 202.817 698.768 203.233 698.48C203.659 698.181 203.958 697.787 204.129 697.296H205.697C205.462 698.139 204.993 698.827 204.289 699.36C203.585 699.883 202.71 700.144 201.665 700.144C200.833 700.144 200.086 699.957 199.425 699.584C198.774 699.211 198.262 698.683 197.889 698C197.515 697.307 197.329 696.507 197.329 695.6C197.329 694.693 197.51 693.899 197.873 693.216C198.235 692.533 198.742 692.011 199.393 691.648C200.054 691.275 200.811 691.088 201.665 691.088C202.497 691.088 203.233 691.269 203.873 691.632C204.513 691.995 205.003 692.496 205.345 693.136C205.697 693.765 205.873 694.48 205.873 695.28ZM204.369 694.976C204.369 694.421 204.246 693.947 204.001 693.552C203.755 693.147 203.419 692.843 202.993 692.64C202.577 692.427 202.113 692.32 201.601 692.32C200.865 692.32 200.235 692.555 199.713 693.024C199.201 693.493 198.907 694.144 198.833 694.976H204.369ZM210.899 700.144C210.227 700.144 209.624 700.032 209.091 699.808C208.557 699.573 208.136 699.253 207.827 698.848C207.517 698.432 207.347 697.957 207.315 697.424H208.819C208.861 697.861 209.064 698.219 209.427 698.496C209.8 698.773 210.285 698.912 210.883 698.912C211.437 698.912 211.875 698.789 212.195 698.544C212.515 698.299 212.675 697.989 212.675 697.616C212.675 697.232 212.504 696.949 212.163 696.768C211.821 696.576 211.293 696.389 210.579 696.208C209.928 696.037 209.395 695.867 208.979 695.696C208.573 695.515 208.221 695.253 207.923 694.912C207.635 694.56 207.491 694.101 207.491 693.536C207.491 693.088 207.624 692.677 207.891 692.304C208.157 691.931 208.536 691.637 209.027 691.424C209.517 691.2 210.077 691.088 210.707 691.088C211.677 691.088 212.461 691.333 213.059 691.824C213.656 692.315 213.976 692.987 214.019 693.84H212.563C212.531 693.381 212.344 693.013 212.003 692.736C211.672 692.459 211.224 692.32 210.659 692.32C210.136 692.32 209.72 692.432 209.411 692.656C209.101 692.88 208.947 693.173 208.947 693.536C208.947 693.824 209.037 694.064 209.219 694.256C209.411 694.437 209.645 694.587 209.923 694.704C210.211 694.811 210.605 694.933 211.107 695.072C211.736 695.243 212.248 695.413 212.643 695.584C213.037 695.744 213.373 695.989 213.651 696.32C213.939 696.651 214.088 697.083 214.099 697.616C214.099 698.096 213.965 698.528 213.699 698.912C213.432 699.296 213.053 699.6 212.563 699.824C212.083 700.037 211.528 700.144 210.899 700.144ZM224.154 695.28C224.154 695.557 224.138 695.851 224.106 696.16H217.098C217.151 697.024 217.445 697.701 217.978 698.192C218.522 698.672 219.178 698.912 219.946 698.912C220.575 698.912 221.098 698.768 221.514 698.48C221.941 698.181 222.239 697.787 222.41 697.296H223.978C223.743 698.139 223.274 698.827 222.57 699.36C221.866 699.883 220.991 700.144 219.946 700.144C219.114 700.144 218.367 699.957 217.706 699.584C217.055 699.211 216.543 698.683 216.17 698C215.797 697.307 215.61 696.507 215.61 695.6C215.61 694.693 215.791 693.899 216.154 693.216C216.517 692.533 217.023 692.011 217.674 691.648C218.335 691.275 219.093 691.088 219.946 691.088C220.778 691.088 221.514 691.269 222.154 691.632C222.794 691.995 223.285 692.496 223.626 693.136C223.978 693.765 224.154 694.48 224.154 695.28ZM222.65 694.976C222.65 694.421 222.527 693.947 222.282 693.552C222.037 693.147 221.701 692.843 221.274 692.64C220.858 692.427 220.394 692.32 219.882 692.32C219.146 692.32 218.517 692.555 217.994 693.024C217.482 693.493 217.189 694.144 217.114 694.976H222.65ZM227.532 692.656C227.788 692.155 228.15 691.765 228.62 691.488C229.1 691.211 229.681 691.072 230.364 691.072V692.576H229.98C228.348 692.576 227.532 693.461 227.532 695.232V700H226.076V691.232H227.532V692.656ZM235.309 698.656L238.029 691.232H239.581L236.141 700H234.445L231.005 691.232H232.573L235.309 698.656ZM249.013 695.28C249.013 695.557 248.997 695.851 248.965 696.16H241.957C242.011 697.024 242.304 697.701 242.837 698.192C243.381 698.672 244.037 698.912 244.805 698.912C245.435 698.912 245.957 698.768 246.373 698.48C246.8 698.181 247.099 697.787 247.269 697.296H248.837C248.603 698.139 248.133 698.827 247.429 699.36C246.725 699.883 245.851 700.144 244.805 700.144C243.973 700.144 243.227 699.957 242.565 699.584C241.915 699.211 241.403 698.683 241.029 698C240.656 697.307 240.469 696.507 240.469 695.6C240.469 694.693 240.651 693.899 241.013 693.216C241.376 692.533 241.883 692.011 242.533 691.648C243.195 691.275 243.952 691.088 244.805 691.088C245.637 691.088 246.373 691.269 247.013 691.632C247.653 691.995 248.144 692.496 248.485 693.136C248.837 693.765 249.013 694.48 249.013 695.28ZM247.509 694.976C247.509 694.421 247.387 693.947 247.141 693.552C246.896 693.147 246.56 692.843 246.133 692.64C245.717 692.427 245.253 692.32 244.741 692.32C244.005 692.32 243.376 692.555 242.853 693.024C242.341 693.493 242.048 694.144 241.973 694.976H247.509ZM256.977 692.432V697.6C256.977 698.027 257.067 698.331 257.249 698.512C257.43 698.683 257.745 698.768 258.193 698.768H259.265V700H257.953C257.142 700 256.534 699.813 256.129 699.44C255.723 699.067 255.521 698.453 255.521 697.6V692.432H254.385V691.232H255.521V689.024H256.977V691.232H259.265V692.432H256.977ZM264.853 700.144C264.032 700.144 263.285 699.957 262.613 699.584C261.952 699.211 261.429 698.683 261.045 698C260.672 697.307 260.485 696.507 260.485 695.6C260.485 694.704 260.677 693.915 261.061 693.232C261.456 692.539 261.989 692.011 262.661 691.648C263.333 691.275 264.085 691.088 264.917 691.088C265.749 691.088 266.501 691.275 267.173 691.648C267.845 692.011 268.373 692.533 268.757 693.216C269.152 693.899 269.349 694.693 269.349 695.6C269.349 696.507 269.146 697.307 268.741 698C268.346 698.683 267.808 699.211 267.125 699.584C266.442 699.957 265.685 700.144 264.853 700.144ZM264.853 698.864C265.376 698.864 265.866 698.741 266.325 698.496C266.784 698.251 267.152 697.883 267.429 697.392C267.717 696.901 267.861 696.304 267.861 695.6C267.861 694.896 267.722 694.299 267.445 693.808C267.168 693.317 266.805 692.955 266.357 692.72C265.909 692.475 265.424 692.352 264.901 692.352C264.368 692.352 263.877 692.475 263.429 692.72C262.992 692.955 262.64 693.317 262.373 693.808C262.106 694.299 261.973 694.896 261.973 695.6C261.973 696.315 262.101 696.917 262.357 697.408C262.624 697.899 262.976 698.267 263.413 698.512C263.85 698.747 264.33 698.864 264.853 698.864ZM69.0827 718.368C69.0827 717.259 69.3227 716.272 69.8027 715.408C70.2827 714.533 70.9494 713.856 71.8027 713.376C72.6667 712.885 73.6427 712.64 74.7307 712.64C76.064 712.64 77.2054 712.992 78.1547 713.696C79.104 714.4 79.7387 715.36 80.0587 716.576H77.0507C76.8267 716.107 76.5067 715.749 76.0907 715.504C75.6854 715.259 75.2214 715.136 74.6987 715.136C73.856 715.136 73.1734 715.429 72.6507 716.016C72.128 716.603 71.8667 717.387 71.8667 718.368C71.8667 719.349 72.128 720.133 72.6507 720.72C73.1734 721.307 73.856 721.6 74.6987 721.6C75.2214 721.6 75.6854 721.477 76.0907 721.232C76.5067 720.987 76.8267 720.629 77.0507 720.16H80.0587C79.7387 721.376 79.104 722.336 78.1547 723.04C77.2054 723.733 76.064 724.08 74.7307 724.08C73.6427 724.08 72.6667 723.84 71.8027 723.36C70.9494 722.869 70.2827 722.192 69.8027 721.328C69.3227 720.464 69.0827 719.477 69.0827 718.368ZM90.5502 715.072V724H87.8142V722.784C87.5369 723.179 87.1582 723.499 86.6782 723.744C86.2089 723.979 85.6862 724.096 85.1102 724.096C84.4275 724.096 83.8249 723.947 83.3022 723.648C82.7795 723.339 82.3742 722.896 82.0862 722.32C81.7982 721.744 81.6542 721.067 81.6542 720.288V715.072H84.3742V719.92C84.3742 720.517 84.5289 720.981 84.8382 721.312C85.1475 721.643 85.5635 721.808 86.0862 721.808C86.6195 721.808 87.0409 721.643 87.3502 721.312C87.6595 720.981 87.8142 720.517 87.8142 719.92V715.072H90.5502ZM95.2514 712.16V724H92.5154V712.16H95.2514ZM102.21 721.68V724H100.818C99.8262 724 99.0529 723.76 98.4982 723.28C97.9435 722.789 97.6662 721.995 97.6662 720.896V717.344H96.5782V715.072H97.6662V712.896H100.402V715.072H102.194V717.344H100.402V720.928C100.402 721.195 100.466 721.387 100.594 721.504C100.722 721.621 100.936 721.68 101.234 721.68H102.21ZM112.55 715.072V724H109.814V722.784C109.537 723.179 109.158 723.499 108.678 723.744C108.209 723.979 107.686 724.096 107.11 724.096C106.428 724.096 105.825 723.947 105.302 723.648C104.78 723.339 104.374 722.896 104.086 722.32C103.798 721.744 103.654 721.067 103.654 720.288V715.072H106.374V719.92C106.374 720.517 106.529 720.981 106.838 721.312C107.148 721.643 107.564 721.808 108.086 721.808C108.62 721.808 109.041 721.643 109.35 721.312C109.66 720.981 109.814 720.517 109.814 719.92V715.072H112.55ZM117.251 716.56C117.571 716.069 117.971 715.685 118.451 715.408C118.931 715.12 119.465 714.976 120.051 714.976V717.872H119.299C118.617 717.872 118.105 718.021 117.763 718.32C117.422 718.608 117.251 719.12 117.251 719.856V724H114.515V715.072H117.251V716.56ZM126.335 721.68V724H124.943C123.951 724 123.178 723.76 122.623 723.28C122.069 722.789 121.791 721.995 121.791 720.896V717.344H120.703V715.072H121.791V712.896H124.527V715.072H126.319V717.344H124.527V720.928C124.527 721.195 124.591 721.387 124.719 721.504C124.847 721.621 125.061 721.68 125.359 721.68H126.335ZM127.315 719.52C127.315 718.603 127.486 717.797 127.827 717.104C128.179 716.411 128.654 715.877 129.251 715.504C129.849 715.131 130.515 714.944 131.251 714.944C131.881 714.944 132.43 715.072 132.899 715.328C133.379 715.584 133.747 715.92 134.003 716.336V715.072H136.739V724H134.003V722.736C133.737 723.152 133.363 723.488 132.883 723.744C132.414 724 131.865 724.128 131.235 724.128C130.51 724.128 129.849 723.941 129.251 723.568C128.654 723.184 128.179 722.645 127.827 721.952C127.486 721.248 127.315 720.437 127.315 719.52ZM134.003 719.536C134.003 718.853 133.811 718.315 133.427 717.92C133.054 717.525 132.595 717.328 132.051 717.328C131.507 717.328 131.043 717.525 130.659 717.92C130.286 718.304 130.099 718.837 130.099 719.52C130.099 720.203 130.286 720.747 130.659 721.152C131.043 721.547 131.507 721.744 132.051 721.744C132.595 721.744 133.054 721.547 133.427 721.152C133.811 720.757 134.003 720.219 134.003 719.536ZM141.455 716.336C141.721 715.92 142.089 715.584 142.559 715.328C143.028 715.072 143.577 714.944 144.207 714.944C144.943 714.944 145.609 715.131 146.207 715.504C146.804 715.877 147.273 716.411 147.615 717.104C147.967 717.797 148.143 718.603 148.143 719.52C148.143 720.437 147.967 721.248 147.615 721.952C147.273 722.645 146.804 723.184 146.207 723.568C145.609 723.941 144.943 724.128 144.207 724.128C143.588 724.128 143.039 724 142.559 723.744C142.089 723.488 141.721 723.157 141.455 722.752V728.256H138.719V715.072H141.455V716.336ZM145.359 719.52C145.359 718.837 145.167 718.304 144.783 717.92C144.409 717.525 143.945 717.328 143.391 717.328C142.847 717.328 142.383 717.525 141.999 717.92C141.625 718.315 141.439 718.853 141.439 719.536C141.439 720.219 141.625 720.757 141.999 721.152C142.383 721.547 142.847 721.744 143.391 721.744C143.935 721.744 144.399 721.547 144.783 721.152C145.167 720.747 145.359 720.203 145.359 719.52ZM161.049 712.768V714.96H158.073V724H155.337V714.96H152.361V712.768H161.049ZM166.486 724.128C165.611 724.128 164.822 723.941 164.118 723.568C163.424 723.195 162.875 722.661 162.47 721.968C162.075 721.275 161.878 720.464 161.878 719.536C161.878 718.619 162.08 717.813 162.486 717.12C162.891 716.416 163.446 715.877 164.15 715.504C164.854 715.131 165.643 714.944 166.518 714.944C167.392 714.944 168.182 715.131 168.886 715.504C169.59 715.877 170.144 716.416 170.55 717.12C170.955 717.813 171.158 718.619 171.158 719.536C171.158 720.453 170.95 721.264 170.534 721.968C170.128 722.661 169.568 723.195 168.854 723.568C168.15 723.941 167.36 724.128 166.486 724.128ZM166.486 721.76C167.008 721.76 167.451 721.568 167.814 721.184C168.187 720.8 168.374 720.251 168.374 719.536C168.374 718.821 168.192 718.272 167.83 717.888C167.478 717.504 167.04 717.312 166.518 717.312C165.984 717.312 165.542 717.504 165.19 717.888C164.838 718.261 164.662 718.811 164.662 719.536C164.662 720.251 164.832 720.8 165.174 721.184C165.526 721.568 165.963 721.76 166.486 721.76ZM181.425 715.072V724H178.689V722.784C178.412 723.179 178.033 723.499 177.553 723.744C177.084 723.979 176.561 724.096 175.985 724.096C175.303 724.096 174.7 723.947 174.177 723.648C173.655 723.339 173.249 722.896 172.961 722.32C172.673 721.744 172.529 721.067 172.529 720.288V715.072H175.249V719.92C175.249 720.517 175.404 720.981 175.713 721.312C176.023 721.643 176.439 721.808 176.961 721.808C177.495 721.808 177.916 721.643 178.225 721.312C178.535 720.981 178.689 720.517 178.689 719.92V715.072H181.425ZM186.126 716.56C186.446 716.069 186.846 715.685 187.326 715.408C187.806 715.12 188.34 714.976 188.926 714.976V717.872H188.174C187.492 717.872 186.98 718.021 186.638 718.32C186.297 718.608 186.126 719.12 186.126 719.856V724H183.39V715.072H186.126V716.56ZM191.61 714.144C191.13 714.144 190.736 714.005 190.426 713.728C190.128 713.44 189.978 713.088 189.978 712.672C189.978 712.245 190.128 711.893 190.426 711.616C190.736 711.328 191.13 711.184 191.61 711.184C192.08 711.184 192.464 711.328 192.762 711.616C193.072 711.893 193.226 712.245 193.226 712.672C193.226 713.088 193.072 713.44 192.762 713.728C192.464 714.005 192.08 714.144 191.61 714.144ZM192.97 715.072V724H190.234V715.072H192.97ZM198.585 724.128C197.806 724.128 197.113 723.995 196.505 723.728C195.897 723.461 195.417 723.099 195.065 722.64C194.713 722.171 194.516 721.648 194.473 721.072H197.177C197.209 721.381 197.353 721.632 197.609 721.824C197.865 722.016 198.18 722.112 198.553 722.112C198.894 722.112 199.156 722.048 199.337 721.92C199.529 721.781 199.625 721.605 199.625 721.392C199.625 721.136 199.492 720.949 199.225 720.832C198.958 720.704 198.526 720.565 197.929 720.416C197.289 720.267 196.756 720.112 196.329 719.952C195.902 719.781 195.534 719.52 195.225 719.168C194.916 718.805 194.761 718.32 194.761 717.712C194.761 717.2 194.9 716.736 195.177 716.32C195.465 715.893 195.881 715.557 196.425 715.312C196.98 715.067 197.636 714.944 198.393 714.944C199.513 714.944 200.393 715.221 201.033 715.776C201.684 716.331 202.057 717.067 202.153 717.984H199.625C199.582 717.675 199.444 717.429 199.209 717.248C198.985 717.067 198.686 716.976 198.313 716.976C197.993 716.976 197.748 717.04 197.577 717.168C197.406 717.285 197.321 717.451 197.321 717.664C197.321 717.92 197.454 718.112 197.721 718.24C197.998 718.368 198.425 718.496 199.001 718.624C199.662 718.795 200.201 718.965 200.617 719.136C201.033 719.296 201.396 719.563 201.705 719.936C202.025 720.299 202.19 720.789 202.201 721.408C202.201 721.931 202.052 722.4 201.753 722.816C201.465 723.221 201.044 723.541 200.489 723.776C199.945 724.011 199.31 724.128 198.585 724.128ZM215.267 714.976C216.376 714.976 217.256 715.312 217.907 715.984C218.568 716.656 218.899 717.589 218.899 718.784V724H216.179V719.152C216.179 718.576 216.024 718.133 215.715 717.824C215.416 717.504 215 717.344 214.467 717.344C213.933 717.344 213.512 717.504 213.203 717.824C212.904 718.133 212.755 718.576 212.755 719.152V724H210.035V719.152C210.035 718.576 209.88 718.133 209.571 717.824C209.272 717.504 208.856 717.344 208.323 717.344C207.789 717.344 207.368 717.504 207.059 717.824C206.76 718.133 206.611 718.576 206.611 719.152V724H203.875V715.072H206.611V716.192C206.888 715.819 207.251 715.525 207.699 715.312C208.147 715.088 208.653 714.976 209.219 714.976C209.891 714.976 210.488 715.12 211.011 715.408C211.544 715.696 211.96 716.107 212.259 716.64C212.568 716.149 212.989 715.749 213.523 715.44C214.056 715.131 214.637 714.976 215.267 714.976ZM226.939 712.768V724H224.203V712.768H226.939ZM234.362 714.976C235.407 714.976 236.239 715.317 236.858 716C237.487 716.672 237.802 717.6 237.802 718.784V724H235.082V719.152C235.082 718.555 234.927 718.091 234.618 717.76C234.308 717.429 233.892 717.264 233.37 717.264C232.847 717.264 232.431 717.429 232.122 717.76C231.812 718.091 231.658 718.555 231.658 719.152V724H228.922V715.072H231.658V716.256C231.935 715.861 232.308 715.552 232.778 715.328C233.247 715.093 233.775 714.976 234.362 714.976ZM239.159 719.52C239.159 718.603 239.33 717.797 239.671 717.104C240.023 716.411 240.498 715.877 241.095 715.504C241.692 715.131 242.359 714.944 243.095 714.944C243.682 714.944 244.215 715.067 244.695 715.312C245.186 715.557 245.57 715.888 245.847 716.304V712.16H248.583V724H245.847V722.72C245.591 723.147 245.223 723.488 244.743 723.744C244.274 724 243.724 724.128 243.095 724.128C242.359 724.128 241.692 723.941 241.095 723.568C240.498 723.184 240.023 722.645 239.671 721.952C239.33 721.248 239.159 720.437 239.159 719.52ZM245.847 719.536C245.847 718.853 245.655 718.315 245.271 717.92C244.898 717.525 244.439 717.328 243.895 717.328C243.351 717.328 242.887 717.525 242.503 717.92C242.13 718.304 241.943 718.837 241.943 719.52C241.943 720.203 242.13 720.747 242.503 721.152C242.887 721.547 243.351 721.744 243.895 721.744C244.439 721.744 244.898 721.547 245.271 721.152C245.655 720.757 245.847 720.219 245.847 719.536ZM251.938 714.144C251.458 714.144 251.064 714.005 250.754 713.728C250.456 713.44 250.306 713.088 250.306 712.672C250.306 712.245 250.456 711.893 250.754 711.616C251.064 711.328 251.458 711.184 251.938 711.184C252.408 711.184 252.792 711.328 253.09 711.616C253.4 711.893 253.554 712.245 253.554 712.672C253.554 713.088 253.4 713.44 253.09 713.728C252.792 714.005 252.408 714.144 251.938 714.144ZM253.298 715.072V724H250.562V715.072H253.298ZM254.737 719.52C254.737 718.603 254.908 717.797 255.249 717.104C255.601 716.411 256.076 715.877 256.673 715.504C257.27 715.131 257.937 714.944 258.673 714.944C259.302 714.944 259.852 715.072 260.321 715.328C260.801 715.584 261.169 715.92 261.425 716.336V715.072H264.161V724H261.425V722.736C261.158 723.152 260.785 723.488 260.305 723.744C259.836 724 259.286 724.128 258.657 724.128C257.932 724.128 257.27 723.941 256.673 723.568C256.076 723.184 255.601 722.645 255.249 721.952C254.908 721.248 254.737 720.437 254.737 719.52ZM261.425 719.536C261.425 718.853 261.233 718.315 260.849 717.92C260.476 717.525 260.017 717.328 259.473 717.328C258.929 717.328 258.465 717.525 258.081 717.92C257.708 718.304 257.521 718.837 257.521 719.52C257.521 720.203 257.708 720.747 258.081 721.152C258.465 721.547 258.929 721.744 259.473 721.744C260.017 721.744 260.476 721.547 260.849 721.152C261.233 720.757 261.425 720.219 261.425 719.536ZM278.091 716.384C278.091 717.035 277.942 717.632 277.643 718.176C277.344 718.709 276.886 719.141 276.267 719.472C275.648 719.803 274.88 719.968 273.963 719.968H272.267V724H269.531V712.768H273.963C274.859 712.768 275.616 712.923 276.235 713.232C276.854 713.541 277.318 713.968 277.627 714.512C277.936 715.056 278.091 715.68 278.091 716.384ZM273.755 717.792C274.278 717.792 274.667 717.669 274.923 717.424C275.179 717.179 275.307 716.832 275.307 716.384C275.307 715.936 275.179 715.589 274.923 715.344C274.667 715.099 274.278 714.976 273.755 714.976H272.267V717.792H273.755ZM283.531 721.44L285.467 715.072H288.379L285.211 724H281.835L278.667 715.072H281.595L283.531 721.44ZM294.507 721.68V724H293.115C292.123 724 291.35 723.76 290.795 723.28C290.24 722.789 289.963 721.995 289.963 720.896V717.344H288.875V715.072H289.963V712.896H292.699V715.072H294.491V717.344H292.699V720.928C292.699 721.195 292.763 721.387 292.891 721.504C293.019 721.621 293.232 721.68 293.531 721.68H294.507ZM297.311 724.128C296.831 724.128 296.436 723.989 296.127 723.712C295.828 723.424 295.679 723.072 295.679 722.656C295.679 722.229 295.828 721.872 296.127 721.584C296.436 721.296 296.831 721.152 297.311 721.152C297.78 721.152 298.164 721.296 298.463 721.584C298.772 721.872 298.927 722.229 298.927 722.656C298.927 723.072 298.772 723.424 298.463 723.712C298.164 723.989 297.78 724.128 297.311 724.128ZM306.673 721.888H310.257V724H303.937V712.768H306.673V721.888ZM316.538 721.68V724H315.146C314.154 724 313.381 723.76 312.826 723.28C312.272 722.789 311.994 721.995 311.994 720.896V717.344H310.906V715.072H311.994V712.896H314.73V715.072H316.522V717.344H314.73V720.928C314.73 721.195 314.794 721.387 314.922 721.504C315.05 721.621 315.264 721.68 315.562 721.68H316.538ZM317.518 719.52C317.518 718.603 317.689 717.797 318.03 717.104C318.382 716.411 318.857 715.877 319.454 715.504C320.052 715.131 320.718 714.944 321.454 714.944C322.041 714.944 322.574 715.067 323.054 715.312C323.545 715.557 323.929 715.888 324.206 716.304V712.16H326.942V724H324.206V722.72C323.95 723.147 323.582 723.488 323.102 723.744C322.633 724 322.084 724.128 321.454 724.128C320.718 724.128 320.052 723.941 319.454 723.568C318.857 723.184 318.382 722.645 318.03 721.952C317.689 721.248 317.518 720.437 317.518 719.52ZM324.206 719.536C324.206 718.853 324.014 718.315 323.63 717.92C323.257 717.525 322.798 717.328 322.254 717.328C321.71 717.328 321.246 717.525 320.862 717.92C320.489 718.304 320.302 718.837 320.302 719.52C320.302 720.203 320.489 720.747 320.862 721.152C321.246 721.547 321.71 721.744 322.254 721.744C322.798 721.744 323.257 721.547 323.63 721.152C324.014 720.757 324.206 720.219 324.206 719.536ZM330.202 724.128C329.722 724.128 329.327 723.989 329.018 723.712C328.719 723.424 328.57 723.072 328.57 722.656C328.57 722.229 328.719 721.872 329.018 721.584C329.327 721.296 329.722 721.152 330.202 721.152C330.671 721.152 331.055 721.296 331.354 721.584C331.663 721.872 331.818 722.229 331.818 722.656C331.818 723.072 331.663 723.424 331.354 723.712C331.055 723.989 330.671 724.128 330.202 724.128Z" fill="#2E2C43"/>
<rect x="99" y="464" width="190" height="100" rx="7.86885" fill="#FB8C00"/>
<path d="M122.784 528.833C123.388 525.341 124.664 522.236 126.611 519.516C128.592 516.763 131.026 514.631 133.914 513.12C136.801 511.576 139.873 510.804 143.13 510.804C146.924 510.804 150.029 511.76 152.446 513.674C154.897 515.554 156.475 518.173 157.18 521.53H154.562C153.991 518.878 152.665 516.763 150.583 515.185C148.535 513.607 145.933 512.818 142.777 512.818C139.991 512.818 137.355 513.473 134.871 514.782C132.386 516.092 130.271 517.955 128.525 520.372C126.813 522.789 125.671 525.61 125.101 528.833C124.899 530.041 124.798 531.216 124.798 532.358C124.798 534.91 125.319 537.125 126.36 539.006C127.4 540.852 128.844 542.279 130.691 543.286C132.571 544.293 134.719 544.797 137.137 544.797C139.823 544.797 142.357 544.193 144.741 542.984C147.159 541.775 149.207 540.063 150.885 537.847C152.597 535.598 153.789 532.962 154.461 529.941H138.698L139.05 528.077H157.13L156.828 529.588C156.156 532.878 154.847 535.833 152.9 538.452C150.986 541.037 148.619 543.085 145.799 544.596C142.979 546.073 139.974 546.812 136.784 546.812C133.93 546.812 131.412 546.224 129.23 545.049C127.081 543.874 125.403 542.212 124.194 540.063C123.019 537.881 122.431 535.38 122.431 532.559C122.431 531.284 122.549 530.041 122.784 528.833ZM177.481 518.761C179.798 518.761 181.762 519.214 183.373 520.12C185.018 520.993 186.244 522.185 187.05 523.696C187.889 525.173 188.309 526.835 188.309 528.682C188.309 529.487 188.242 530.226 188.107 530.898C187.906 532.106 187.704 533.013 187.503 533.617H163.884C163.749 534.691 163.682 535.464 163.682 535.934C163.682 538.821 164.555 541.037 166.301 542.581C168.047 544.126 170.246 544.898 172.898 544.898C175.551 544.898 177.901 544.243 179.949 542.934C182.03 541.591 183.508 539.778 184.381 537.495H186.748C185.673 540.281 183.877 542.548 181.359 544.293C178.874 546.006 175.937 546.862 172.546 546.862C169.188 546.862 166.486 545.888 164.438 543.941C162.423 541.994 161.416 539.341 161.416 535.984C161.416 534.943 161.517 533.869 161.718 532.761C162.222 529.907 163.229 527.423 164.74 525.308C166.251 523.192 168.097 521.581 170.28 520.473C172.495 519.331 174.896 518.761 177.481 518.761ZM185.69 531.854C185.925 530.881 186.042 529.89 186.042 528.883C186.042 526.231 185.186 524.2 183.474 522.789C181.795 521.379 179.663 520.674 177.078 520.674C175.165 520.674 173.318 521.094 171.539 521.933C169.759 522.773 168.215 524.032 166.905 525.71C165.596 527.389 164.69 529.437 164.186 531.854H185.69ZM209.46 518.559C212.247 518.559 214.479 519.315 216.158 520.825C217.837 522.303 218.676 524.502 218.676 527.423C218.676 528.329 218.575 529.336 218.374 530.444L215.554 546.459H213.338L216.158 530.595C216.326 529.521 216.41 528.631 216.41 527.926C216.41 525.509 215.738 523.679 214.396 522.437C213.053 521.161 211.172 520.523 208.755 520.523C205.935 520.523 203.501 521.396 201.453 523.142C199.405 524.888 197.995 527.456 197.223 530.847L194.453 546.459H192.186L197.071 519.113H199.338L198.33 524.854C199.472 522.806 201.016 521.245 202.964 520.171C204.944 519.096 207.11 518.559 209.46 518.559ZM230.614 513.02C230.144 513.02 229.758 512.885 229.456 512.617C229.154 512.314 229.002 511.928 229.002 511.458C229.002 510.787 229.237 510.233 229.708 509.796C230.178 509.326 230.715 509.091 231.319 509.091C231.789 509.091 232.175 509.242 232.477 509.545C232.813 509.847 232.981 510.233 232.981 510.703C232.981 511.374 232.729 511.928 232.226 512.365C231.756 512.801 231.218 513.02 230.614 513.02ZM230.715 519.113L225.83 546.459H223.564L228.448 519.113H230.715ZM250.907 518.761C253.224 518.761 255.188 519.214 256.8 520.12C258.445 520.993 259.67 522.185 260.476 523.696C261.315 525.173 261.735 526.835 261.735 528.682C261.735 529.487 261.668 530.226 261.533 530.898C261.332 532.106 261.131 533.013 260.929 533.617H237.31C237.176 534.691 237.109 535.464 237.109 535.934C237.109 538.821 237.981 541.037 239.727 542.581C241.473 544.126 243.672 544.898 246.325 544.898C248.977 544.898 251.327 544.243 253.375 542.934C255.457 541.591 256.934 539.778 257.807 537.495H260.174C259.099 540.281 257.303 542.548 254.785 544.293C252.301 546.006 249.363 546.862 245.972 546.862C242.615 546.862 239.912 545.888 237.864 543.941C235.85 541.994 234.842 539.341 234.842 535.984C234.842 534.943 234.943 533.869 235.144 532.761C235.648 529.907 236.655 527.423 238.166 525.308C239.677 523.192 241.524 521.581 243.706 520.473C245.922 519.331 248.322 518.761 250.907 518.761ZM259.116 531.854C259.351 530.881 259.469 529.89 259.469 528.883C259.469 526.231 258.613 524.2 256.9 522.789C255.222 521.379 253.09 520.674 250.504 520.674C248.591 520.674 246.744 521.094 244.965 521.933C243.185 522.773 241.641 524.032 240.332 525.71C239.022 527.389 238.116 529.437 237.612 531.854H259.116Z" fill="white"/>
<path fill-rule="evenodd" clip-rule="evenodd" d="M132.07 481.057C131.031 481.151 130.583 481.296 128.803 482.116C127.712 482.619 125.564 484.563 125.564 485.048C125.564 485.245 125.445 485.407 125.298 485.407C125.152 485.407 125.033 485.633 125.033 485.909C125.033 486.186 124.926 486.412 124.795 486.412C124.527 486.412 124.209 488.037 124.181 489.55C124.157 490.884 124.514 492.688 124.802 492.688C124.929 492.688 125.033 492.914 125.033 493.19C125.033 493.466 125.152 493.692 125.298 493.692C125.445 493.692 125.564 493.835 125.564 494.009C125.564 494.444 127.663 496.454 128.117 496.454C128.32 496.454 128.485 496.559 128.485 496.687C128.485 496.815 129.156 497.157 129.975 497.447C132.283 498.264 137.892 498.093 138.962 497.173C139.101 497.054 139.378 496.956 139.578 496.956C140.062 496.956 140.701 496.333 140.701 495.86C140.701 495.341 137.758 489.926 137.476 489.926C137.351 489.926 137.249 490.039 137.249 490.178C137.249 490.325 136.329 490.429 135.02 490.429C132.687 490.429 132.469 490.321 132.469 489.173C132.469 488.55 133.674 488.322 135.816 488.539C137.586 488.718 138.311 488.439 138.311 487.58C138.311 487.375 138.401 487.169 138.51 487.123C138.826 486.99 140.701 483.393 140.701 482.919C140.701 482.497 139.076 481.641 138.275 481.641C138.061 481.641 137.773 481.542 137.634 481.42C137.339 481.161 133.614 480.918 132.07 481.057ZM161.045 481.536C160.759 482.243 160.864 496.953 161.159 497.475C161.408 497.915 161.743 497.96 164.744 497.96H168.054V489.55V481.139H164.63C161.753 481.139 161.181 481.203 161.045 481.536ZM177.45 481.719C177.141 482.022 176.551 482.495 176.141 482.771C175.73 483.047 175.147 483.502 174.845 483.782C174.542 484.062 173.875 484.535 173.361 484.833C172.847 485.132 172.139 485.665 171.788 486.019C171.436 486.373 171.049 486.663 170.927 486.663C170.586 486.663 169.117 488.061 169.117 488.384C169.117 488.557 169.593 488.671 170.312 488.671H171.507V491.035C171.507 493.559 172.061 495.362 173.087 496.181C173.362 496.4 173.806 496.751 174.074 496.96C175.478 498.056 178.883 498.252 180.868 497.351L181.864 496.899V494.432C181.864 493.058 181.746 491.896 181.598 491.809C181.452 491.724 181.332 491.761 181.332 491.891C181.332 492.187 180.121 492.419 179.447 492.252C179.013 492.145 178.942 491.886 178.942 490.399V488.671H180.084C180.712 488.671 181.37 488.536 181.545 488.37C181.723 488.201 181.864 487.393 181.864 486.537C181.864 485.681 181.723 484.873 181.545 484.704C181.37 484.539 180.712 484.403 180.084 484.403H178.942V482.771C178.942 481.379 178.874 481.141 178.478 481.155C178.222 481.163 177.76 481.417 177.45 481.719ZM216.918 484.894V488.649L218.843 488.723L220.769 488.797L220.815 492.939C220.841 495.218 220.871 497.283 220.882 497.528C220.9 497.937 221.215 497.969 224.686 497.904L228.47 497.835L228.543 493.253L228.615 488.671H230.601H232.586V484.905V481.139H224.752H216.918V484.894ZM142.19 484.8C141.865 485.6 142.014 494.678 142.361 495.249C142.882 496.105 144.214 497.302 145.029 497.647C146.697 498.351 149.323 497.865 150.593 496.617C151.287 495.935 151.324 495.926 151.324 496.444C151.324 496.744 151.447 497.208 151.599 497.475C151.847 497.913 152.181 497.96 155.042 497.96C157.902 497.96 158.236 497.913 158.485 497.475C158.652 497.179 158.76 494.666 158.76 491.055C158.76 486.246 158.688 485.052 158.38 484.762C158.093 484.491 157.22 484.403 154.8 484.403C150.99 484.403 151.347 483.909 151.255 489.299L151.191 493.065L150.289 493.146C149.747 493.195 149.299 493.095 149.165 492.895C149.042 492.712 148.94 490.862 148.938 488.784C148.935 486.185 148.834 484.912 148.615 484.704C148.405 484.506 147.282 484.403 145.324 484.403C142.858 484.403 142.324 484.471 142.19 484.8ZM183.485 484.748C183.126 485.157 183.21 493.779 183.585 495.051C184.477 498.073 189.52 498.984 192.061 496.582C192.428 496.235 192.793 495.952 192.873 495.952C192.952 495.952 193.017 496.404 193.017 496.956V497.96H196.049C197.717 497.96 199.271 497.892 199.502 497.808C199.87 497.675 199.922 496.867 199.922 491.331C199.922 486.746 199.834 484.923 199.603 484.704C199.164 484.289 193.244 484.289 192.805 484.704C192.583 484.914 192.486 486.25 192.486 489.098V493.19H191.671C190.226 493.19 190.117 492.878 190.037 488.507L189.963 484.529L186.882 484.458C184.461 484.403 183.733 484.465 183.485 484.748ZM202.639 484.613C202.379 484.769 202.319 486.284 202.374 491.325L202.445 497.835H205.897H209.349L209.517 494.446C209.609 492.581 209.772 490.802 209.88 490.491C210.122 489.791 210.832 489.761 211.341 490.429C211.648 490.831 212.029 490.931 213.259 490.931C214.105 490.931 214.794 490.818 214.794 490.68C214.794 490.542 214.929 490.429 215.094 490.429C215.596 490.429 216.365 489.411 216.544 488.513C216.893 486.753 216.315 485.624 214.598 484.717C213.348 484.057 211.345 484.559 210.321 485.791C209.77 486.453 209.482 486.368 209.482 485.541C209.482 484.556 209 484.403 205.91 484.407C204.296 484.409 202.825 484.502 202.639 484.613ZM237.499 484.654C237.207 484.773 236.669 484.879 236.304 484.89C235.939 484.901 235.103 485.165 234.445 485.475L233.25 486.04L233.173 487.983C233.13 489.052 233.19 489.925 233.305 489.923C233.421 489.921 233.994 489.756 234.578 489.557C236.163 489.017 238.768 489.059 239.317 489.632C239.559 489.885 239.757 490.167 239.757 490.26C239.757 490.353 238.99 490.429 238.052 490.429C236.077 490.429 234.225 491.07 233.607 491.968C233.382 492.295 233.054 492.979 232.877 493.488C232.416 494.818 233.269 496.662 234.696 497.42C235.87 498.044 237.934 498.132 238.947 497.602C239.498 497.313 239.685 497.316 240.175 497.619C240.611 497.89 241.522 497.96 243.906 497.906L247.06 497.835L247.132 493.325C247.214 488.231 247.024 487.4 245.462 486.047C244.966 485.618 243.893 485.072 243.077 484.835C241.527 484.383 238.414 484.283 237.499 484.654ZM249.636 484.704C249.401 484.926 249.317 487.082 249.317 492.843C249.317 497.154 249.389 500.86 249.478 501.078C249.613 501.412 250.186 501.475 253.063 501.475H256.487V499.44C256.487 497.597 256.531 497.422 256.952 497.594C257.207 497.698 258.134 497.833 259.01 497.894C261.707 498.081 264.361 496.559 265.403 494.227C266.144 492.571 265.845 488.172 264.916 487.039C264.051 485.986 263.623 485.649 262.405 485.066C260.741 484.27 259.263 484.215 257.775 484.895C256.705 485.384 256.696 485.384 256.561 484.895C256.436 484.44 256.18 484.403 253.19 484.403C251.027 484.403 249.849 484.503 249.636 484.704ZM258.498 490.285C258.706 490.482 258.877 491.104 258.877 491.666V492.688H257.682H256.487V491.673C256.487 490.131 257.555 489.393 258.498 490.285ZM239.705 493.881C239.787 494.945 239.784 494.948 238.871 494.948C238.104 494.948 237.927 494.841 237.78 494.29C237.572 493.503 238.279 492.678 239.093 492.76C239.516 492.803 239.64 493.029 239.705 493.881Z" fill="white"/>
<path d="M122.072 622.074H117.824L117.194 624H113L117.662 611.256H122.27L126.914 624H122.702L122.072 622.074ZM121.1 619.068L119.948 615.522L118.796 619.068H121.1ZM139.412 617.466C140.18 617.646 140.774 618.018 141.194 618.582C141.626 619.134 141.842 619.776 141.842 620.508C141.842 621.624 141.47 622.488 140.726 623.1C139.994 623.7 138.938 624 137.558 624H130.88V611.256H137.378C138.674 611.256 139.694 611.538 140.438 612.102C141.182 612.666 141.554 613.488 141.554 614.568C141.554 615.312 141.356 615.942 140.96 616.458C140.576 616.962 140.06 617.298 139.412 617.466ZM134.876 616.224H136.424C136.784 616.224 137.048 616.152 137.216 616.008C137.396 615.864 137.486 615.642 137.486 615.342C137.486 615.03 137.396 614.802 137.216 614.658C137.048 614.502 136.784 614.424 136.424 614.424H134.876V616.224ZM136.694 620.796C137.054 620.796 137.318 620.73 137.486 620.598C137.666 620.454 137.756 620.226 137.756 619.914C137.756 619.302 137.402 618.996 136.694 618.996H134.876V620.796H136.694ZM142.645 618.924C142.645 617.856 142.825 616.932 143.185 616.152C143.557 615.36 144.061 614.76 144.697 614.352C145.333 613.932 146.047 613.722 146.839 613.722C147.499 613.722 148.069 613.86 148.549 614.136C149.029 614.4 149.395 614.766 149.647 615.234V613.848H153.625V624H149.647V622.614C149.395 623.082 149.029 623.454 148.549 623.73C148.069 623.994 147.499 624.126 146.839 624.126C146.047 624.126 145.333 623.922 144.697 623.514C144.061 623.094 143.557 622.494 143.185 621.714C142.825 620.922 142.645 619.992 142.645 618.924ZM149.647 618.924C149.647 618.384 149.509 617.964 149.233 617.664C148.957 617.364 148.603 617.214 148.171 617.214C147.739 617.214 147.385 617.364 147.109 617.664C146.833 617.964 146.695 618.384 146.695 618.924C146.695 619.464 146.833 619.884 147.109 620.184C147.385 620.484 147.739 620.634 148.171 620.634C148.603 620.634 148.957 620.484 149.233 620.184C149.509 619.884 149.647 619.464 149.647 618.924ZM159.416 615.72C159.824 615.132 160.322 614.664 160.91 614.316C161.498 613.956 162.11 613.776 162.746 613.776V618.042H161.612C160.856 618.042 160.298 618.174 159.938 618.438C159.59 618.702 159.416 619.17 159.416 619.842V624H155.42V613.848H159.416V615.72ZM167.476 613.722C168.136 613.722 168.706 613.86 169.186 614.136C169.666 614.4 170.032 614.766 170.284 615.234V613.848H174.262V623.82C174.262 624.768 174.088 625.632 173.74 626.412C173.392 627.192 172.828 627.816 172.048 628.284C171.28 628.752 170.29 628.986 169.078 628.986C167.446 628.986 166.15 628.602 165.19 627.834C164.242 627.078 163.702 626.046 163.57 624.738H167.494C167.602 625.266 168.034 625.53 168.79 625.53C169.258 625.53 169.624 625.41 169.888 625.17C170.152 624.93 170.284 624.48 170.284 623.82V622.614C170.032 623.082 169.666 623.454 169.186 623.73C168.706 623.994 168.136 624.126 167.476 624.126C166.684 624.126 165.97 623.922 165.334 623.514C164.698 623.094 164.194 622.494 163.822 621.714C163.462 620.922 163.282 619.992 163.282 618.924C163.282 617.856 163.462 616.932 163.822 616.152C164.194 615.36 164.698 614.76 165.334 614.352C165.97 613.932 166.684 613.722 167.476 613.722ZM170.284 618.924C170.284 618.384 170.146 617.964 169.87 617.664C169.594 617.364 169.24 617.214 168.808 617.214C168.376 617.214 168.022 617.364 167.746 617.664C167.47 617.964 167.332 618.384 167.332 618.924C167.332 619.464 167.47 619.884 167.746 620.184C168.022 620.484 168.376 620.634 168.808 620.634C169.24 620.634 169.594 620.484 169.87 620.184C170.146 619.884 170.284 619.464 170.284 618.924ZM175.516 618.924C175.516 617.856 175.696 616.932 176.056 616.152C176.428 615.36 176.932 614.76 177.568 614.352C178.204 613.932 178.918 613.722 179.71 613.722C180.37 613.722 180.94 613.86 181.42 614.136C181.9 614.4 182.266 614.766 182.518 615.234V613.848H186.496V624H182.518V622.614C182.266 623.082 181.9 623.454 181.42 623.73C180.94 623.994 180.37 624.126 179.71 624.126C178.918 624.126 178.204 623.922 177.568 623.514C176.932 623.094 176.428 622.494 176.056 621.714C175.696 620.922 175.516 619.992 175.516 618.924ZM182.518 618.924C182.518 618.384 182.38 617.964 182.104 617.664C181.828 617.364 181.474 617.214 181.042 617.214C180.61 617.214 180.256 617.364 179.98 617.664C179.704 617.964 179.566 618.384 179.566 618.924C179.566 619.464 179.704 619.884 179.98 620.184C180.256 620.484 180.61 620.634 181.042 620.634C181.474 620.634 181.828 620.484 182.104 620.184C182.38 619.884 182.518 619.464 182.518 618.924ZM190.307 613.038C189.611 613.038 189.053 612.852 188.633 612.48C188.213 612.108 188.003 611.64 188.003 611.076C188.003 610.5 188.213 610.026 188.633 609.654C189.053 609.27 189.611 609.078 190.307 609.078C190.991 609.078 191.543 609.27 191.963 609.654C192.383 610.026 192.593 610.5 192.593 611.076C192.593 611.64 192.383 612.108 191.963 612.48C191.543 612.852 190.991 613.038 190.307 613.038ZM192.287 613.848V624H188.291V613.848H192.287ZM201.201 613.776C202.365 613.776 203.271 614.166 203.919 614.946C204.579 615.726 204.909 616.782 204.909 618.114V624H200.931V618.618C200.931 618.138 200.799 617.76 200.535 617.484C200.283 617.196 199.941 617.052 199.509 617.052C199.065 617.052 198.717 617.196 198.465 617.484C198.213 617.76 198.087 618.138 198.087 618.618V624H194.091V613.848H198.087V615.396C198.399 614.916 198.813 614.526 199.329 614.226C199.857 613.926 200.481 613.776 201.201 613.776ZM208.658 613.038C207.962 613.038 207.404 612.852 206.984 612.48C206.564 612.108 206.354 611.64 206.354 611.076C206.354 610.5 206.564 610.026 206.984 609.654C207.404 609.27 207.962 609.078 208.658 609.078C209.342 609.078 209.894 609.27 210.314 609.654C210.734 610.026 210.944 610.5 210.944 611.076C210.944 611.64 210.734 612.108 210.314 612.48C209.894 612.852 209.342 613.038 208.658 613.038ZM210.638 613.848V624H206.642V613.848H210.638ZM219.553 613.776C220.717 613.776 221.623 614.166 222.271 614.946C222.931 615.726 223.261 616.782 223.261 618.114V624H219.283V618.618C219.283 618.138 219.151 617.76 218.887 617.484C218.635 617.196 218.293 617.052 217.861 617.052C217.417 617.052 217.069 617.196 216.817 617.484C216.565 617.76 216.439 618.138 216.439 618.618V624H212.443V613.848H216.439V615.396C216.751 614.916 217.165 614.526 217.681 614.226C218.209 613.926 218.833 613.776 219.553 613.776ZM228.648 613.722C229.308 613.722 229.878 613.86 230.358 614.136C230.838 614.4 231.204 614.766 231.456 615.234V613.848H235.434V623.82C235.434 624.768 235.26 625.632 234.912 626.412C234.564 627.192 234 627.816 233.22 628.284C232.452 628.752 231.462 628.986 230.25 628.986C228.618 628.986 227.322 628.602 226.362 627.834C225.414 627.078 224.874 626.046 224.742 624.738H228.666C228.774 625.266 229.206 625.53 229.962 625.53C230.43 625.53 230.796 625.41 231.06 625.17C231.324 624.93 231.456 624.48 231.456 623.82V622.614C231.204 623.082 230.838 623.454 230.358 623.73C229.878 623.994 229.308 624.126 228.648 624.126C227.856 624.126 227.142 623.922 226.506 623.514C225.87 623.094 225.366 622.494 224.994 621.714C224.634 620.922 224.454 619.992 224.454 618.924C224.454 617.856 224.634 616.932 224.994 616.152C225.366 615.36 225.87 614.76 226.506 614.352C227.142 613.932 227.856 613.722 228.648 613.722ZM231.456 618.924C231.456 618.384 231.318 617.964 231.042 617.664C230.766 617.364 230.412 617.214 229.98 617.214C229.548 617.214 229.194 617.364 228.918 617.664C228.642 617.964 228.504 618.384 228.504 618.924C228.504 619.464 228.642 619.884 228.918 620.184C229.194 620.484 229.548 620.634 229.98 620.634C230.412 620.634 230.766 620.484 231.042 620.184C231.318 619.884 231.456 619.464 231.456 618.924ZM248.459 622.074H244.211L243.581 624H239.387L244.049 611.256H248.657L253.301 624H249.089L248.459 622.074ZM247.487 619.068L246.335 615.522L245.183 619.068H247.487ZM258.205 615.234C258.457 614.766 258.817 614.4 259.285 614.136C259.765 613.86 260.335 613.722 260.995 613.722C261.787 613.722 262.501 613.932 263.137 614.352C263.773 614.76 264.271 615.36 264.631 616.152C265.003 616.932 265.189 617.856 265.189 618.924C265.189 619.992 265.003 620.922 264.631 621.714C264.271 622.494 263.773 623.094 263.137 623.514C262.501 623.922 261.787 624.126 260.995 624.126C260.335 624.126 259.765 623.994 259.285 623.73C258.817 623.454 258.457 623.082 258.205 622.614V628.86H254.209V613.848H258.205V615.234ZM261.139 618.924C261.139 618.384 261.001 617.964 260.725 617.664C260.449 617.364 260.095 617.214 259.663 617.214C259.231 617.214 258.877 617.364 258.601 617.664C258.325 617.964 258.187 618.384 258.187 618.924C258.187 619.464 258.325 619.884 258.601 620.184C258.877 620.484 259.231 620.634 259.663 620.634C260.095 620.634 260.449 620.484 260.725 620.184C261.001 619.884 261.139 619.464 261.139 618.924ZM270.439 615.234C270.691 614.766 271.051 614.4 271.519 614.136C271.999 613.86 272.569 613.722 273.229 613.722C274.021 613.722 274.735 613.932 275.371 614.352C276.007 614.76 276.505 615.36 276.865 616.152C277.237 616.932 277.423 617.856 277.423 618.924C277.423 619.992 277.237 620.922 276.865 621.714C276.505 622.494 276.007 623.094 275.371 623.514C274.735 623.922 274.021 624.126 273.229 624.126C272.569 624.126 271.999 623.994 271.519 623.73C271.051 623.454 270.691 623.082 270.439 622.614V628.86H266.443V613.848H270.439V615.234ZM273.373 618.924C273.373 618.384 273.235 617.964 272.959 617.664C272.683 617.364 272.329 617.214 271.897 617.214C271.465 617.214 271.111 617.364 270.835 617.664C270.559 617.964 270.421 618.384 270.421 618.924C270.421 619.464 270.559 619.884 270.835 620.184C271.111 620.484 271.465 620.634 271.897 620.634C272.329 620.634 272.683 620.484 272.959 620.184C273.235 619.884 273.373 619.464 273.373 618.924ZM284.059 610.41L283.591 618.942H280.171L279.703 610.41H284.059ZM281.881 624.144C281.185 624.144 280.627 623.958 280.207 623.586C279.787 623.214 279.577 622.746 279.577 622.182C279.577 621.606 279.787 621.132 280.207 620.76C280.627 620.376 281.185 620.184 281.881 620.184C282.565 620.184 283.117 620.376 283.537 620.76C283.957 621.132 284.167 621.606 284.167 622.182C284.167 622.746 283.957 623.214 283.537 623.586C283.117 623.958 282.565 624.144 281.881 624.144Z" fill="#2E2C43"/>
</g>
<defs>
<filter id="filter0_d_1430_3" x="0" y="0" width="397" height="801" filterUnits="userSpaceOnUse" color-interpolation-filters="sRGB">
<feFlood flood-opacity="0" result="BackgroundImageFix"/>
<feColorMatrix in="SourceAlpha" type="matrix" values="0 0 0 0 0 0 0 0 0 0 0 0 0 0 0 0 0 0 127 0" result="hardAlpha"/>
<feOffset dy="4"/>
<feGaussianBlur stdDeviation="2"/>
<feComposite in2="hardAlpha" operator="out"/>
<feColorMatrix type="matrix" values="0 0 0 0 0 0 0 0 0 0 0 0 0 0 0 0 0 0 0.25 0"/>
<feBlend mode="normal" in2="BackgroundImageFix" result="effect1_dropShadow_1430_3"/>
<feBlend mode="normal" in="SourceGraphic" in2="effect1_dropShadow_1430_3" result="shape"/>
</filter>
</defs>
</svg>
