<svg width="22" height="22" viewBox="0 0 22 22" fill="none" xmlns="http://www.w3.org/2000/svg">
<path d="M1 21H3.22222M3.22222 21H18.7778M3.22222 21V8.03111M21 21H18.7778M18.7778 21V8.03111M3.22222 8.03111C3.18068 8.00725 3.13992 7.98205 3.1 7.95556L2.5 7.55556C2.07584 7.27263 1.76187 6.85246 1.61075 6.36552C1.45962 5.87857 1.48055 5.35446 1.67 4.88111L2.66333 2.39667C2.82832 1.98434 3.11307 1.63091 3.48085 1.38196C3.84862 1.13301 4.28256 0.99997 4.72667 1H17.2733C17.7174 0.99997 18.1514 1.13301 18.5192 1.38196C18.8869 1.63091 19.1717 1.98434 19.3367 2.39667L20.33 4.88111C20.5195 5.35446 20.5404 5.87857 20.3893 6.36552C20.2381 6.85246 19.9242 7.27263 19.5 7.55556L18.9 7.95556C18.8601 7.98205 18.8193 8.00725 18.7778 8.03111M3.22222 8.03111C3.58116 8.23842 3.99093 8.34121 4.40523 8.32786C4.81952 8.31451 5.22182 8.18555 5.56667 7.95556L7.66667 6.55556L9.76667 7.95556C10.1318 8.1992 10.561 8.32922 11 8.32922C11.439 8.32922 11.8682 8.1992 12.2333 7.95556L14.3333 6.55556L16.4333 7.95556C16.7782 8.18555 17.1805 8.31451 17.5948 8.32786C18.0091 8.34121 18.4188 8.23842 18.7778 8.03111" stroke="#FB8C00" stroke-width="2" stroke-linecap="round" stroke-linejoin="round"/>
<path d="M13.2223 20.9999V15.4444C13.2223 14.855 12.9881 14.2898 12.5714 13.873C12.1547 13.4563 11.5894 13.2222 11.0001 13.2222C10.4107 13.2222 9.84545 13.4563 9.42871 13.873C9.01196 14.2898 8.77783 14.855 8.77783 15.4444V20.9999" stroke="#FB8C00" stroke-width="2"/>
</svg>
