<svg width="52" height="51" viewBox="0 0 52 51" fill="none" xmlns="http://www.w3.org/2000/svg">
<ellipse cx="26" cy="25.5" rx="26" ry="25.5" fill="#F2F2F2"/>
<path d="M8.7616 20.45H42.2313V37.1848H8.7616V20.45Z" fill="#CFD8DC"/>
<path d="M8.7616 37.1851H42.2313V40.7082H8.7616V37.1851Z" fill="#B0BEC5"/>
<path d="M28.1388 24.854H38.7082V40.7081H28.1388V24.854Z" fill="#455A64"/>
<path d="M12.2848 24.854H24.6157V34.5426H12.2848V24.854Z" fill="#E3F2FD"/>
<path d="M13.1658 25.7349H23.7351V33.6619H13.1658V25.7349Z" fill="#FFDD55"/>
<path d="M36.5066 33.2214C36.2423 33.2214 36.0662 33.3976 36.0662 33.6618V35.4234C36.0662 35.6876 36.2423 35.8638 36.5066 35.8638C36.7708 35.8638 36.9469 35.6876 36.9469 35.4234V33.6618C36.9469 33.3976 36.7708 33.2214 36.5066 33.2214Z" fill="#90A4AE"/>
<path d="M25.4963 23.0925C26.9557 23.0925 28.1387 21.9095 28.1387 20.4502C28.1387 18.9909 26.9557 17.8079 25.4963 17.8079C24.037 17.8079 22.854 18.9909 22.854 20.4502C22.854 21.9095 24.037 23.0925 25.4963 23.0925Z" fill="#558B2F"/>
<path d="M36.0658 23.0925C37.5251 23.0925 38.7081 21.9095 38.7081 20.4502C38.7081 18.9909 37.5251 17.8079 36.0658 17.8079C34.6065 17.8079 33.4235 18.9909 33.4235 20.4502C33.4235 21.9095 34.6065 23.0925 36.0658 23.0925Z" fill="#558B2F"/>
<path d="M14.9273 23.0925C16.3866 23.0925 17.5696 21.9095 17.5696 20.4502C17.5696 18.9909 16.3866 17.8079 14.9273 17.8079C13.4679 17.8079 12.2849 18.9909 12.2849 20.4502C12.2849 21.9095 13.4679 23.0925 14.9273 23.0925Z" fill="#558B2F"/>
<path d="M39.589 9H11.404C10.4352 9 9.64246 9.7927 9.64246 10.7616V13.4039H41.3506V10.7616C41.3506 9.7927 40.5579 9 39.589 9ZM22.8542 13.4039H28.1389V20.4502H22.8542V13.4039ZM36.9467 13.4039H32.5428L33.4236 20.4502H38.7082L36.9467 13.4039ZM14.0464 13.4039H18.4503L17.5695 20.4502H12.2848L14.0464 13.4039Z" fill="#FB8C00"/>
<path d="M30.7809 23.0925C32.2402 23.0925 33.4232 21.9095 33.4232 20.4502C33.4232 18.9909 32.2402 17.8079 30.7809 17.8079C29.3216 17.8079 28.1385 18.9909 28.1385 20.4502C28.1385 21.9095 29.3216 23.0925 30.7809 23.0925Z" fill="#FFA000"/>
<path d="M43.9927 20.4502C43.9927 21.9475 42.8477 23.0925 41.3504 23.0925C39.853 23.0925 38.708 21.9475 38.708 20.4502C38.708 18.9529 39.853 17.8079 41.3504 17.8079L43.9927 20.4502Z" fill="#FFA000"/>
<path d="M20.2114 23.0925C21.6708 23.0925 22.8538 21.9095 22.8538 20.4502C22.8538 18.9909 21.6708 17.8079 20.2114 17.8079C18.7521 17.8079 17.5691 18.9909 17.5691 20.4502C17.5691 21.9095 18.7521 23.0925 20.2114 23.0925Z" fill="#FFA000"/>
<path d="M7 20.4502C7 21.9475 8.14502 23.0925 9.64234 23.0925C11.1397 23.0925 12.2847 21.9475 12.2847 20.4502C12.2847 18.9529 11.1397 17.8079 9.64234 17.8079L7 20.4502Z" fill="#FFA000"/>
<path d="M32.5427 13.4038H28.1388V20.4501H33.4234L32.5427 13.4038ZM41.3505 13.4038H36.9466L38.7081 20.4501H43.9928L41.3505 13.4038ZM18.4502 13.4038H22.8541V20.4501H17.5694L18.4502 13.4038ZM9.64234 13.4038H14.0463L12.2847 20.4501H7L9.64234 13.4038Z" fill="#FFC107"/>
</svg>
