<svg width="74" height="74" viewBox="0 0 74 74" fill="none" xmlns="http://www.w3.org/2000/svg">
<circle opacity="0.66" cx="37" cy="37" r="37" fill="#FB8C00"/>
<path d="M38.0898 49.7303C37.8447 49.9053 37.551 49.9993 37.2498 49.9993C36.9486 49.9993 36.655 49.9053 36.4098 49.7303C29.1662 44.5673 21.4786 33.9471 29.2502 26.273C31.383 24.1732 34.2568 22.9974 37.2498 23C40.2498 23 43.1284 24.1775 45.2494 26.2715C53.021 33.9456 45.3334 44.5643 38.0898 49.7303Z" stroke="black" stroke-width="1.5" stroke-linecap="round" stroke-linejoin="round"/>
<path d="M37.2498 36.5001C38.0455 36.5001 38.8085 36.184 39.3711 35.6214C39.9338 35.0588 40.2498 34.2957 40.2498 33.5C40.2498 32.7044 39.9338 31.9413 39.3711 31.3787C38.8085 30.8161 38.0455 30.5 37.2498 30.5C36.4541 30.5 35.6911 30.8161 35.1284 31.3787C34.5658 31.9413 34.2498 32.7044 34.2498 33.5C34.2498 34.2957 34.5658 35.0588 35.1284 35.6214C35.6911 36.184 36.4541 36.5001 37.2498 36.5001Z" stroke="black" stroke-width="1.5" stroke-linecap="round" stroke-linejoin="round"/>
</svg>
