<svg width="140" height="140" viewBox="0 0 140 140" fill="none" xmlns="http://www.w3.org/2000/svg">
<path d="M70 0C75.4452 0.000330975 80.7039 1.98382 84.7929 5.57964L85.8711 6.59476L90.7577 11.4813C92.0988 12.8137 93.8501 13.6547 95.7284 13.8686L96.6735 13.9246H103.674C109.396 13.9243 114.9 16.1128 119.059 20.0415C123.218 23.9701 125.717 29.3411 126.042 35.053L126.077 36.3272V43.328C126.077 45.2182 126.721 47.0594 127.884 48.5296L128.514 49.2297L133.393 54.1162C137.438 58.1378 139.796 63.5507 139.987 69.2511C140.179 74.9515 138.188 80.5102 134.422 84.7938L133.407 85.8719L128.521 90.7585C127.188 92.0995 126.347 93.8508 126.133 95.729L126.077 96.6741V103.675C126.078 109.396 123.889 114.901 119.96 119.06C116.032 123.219 110.661 125.717 104.949 126.043L103.674 126.078H96.6735C94.7859 126.078 92.9535 126.714 91.4718 127.884L90.7717 128.514L85.8851 133.393C81.8634 137.438 76.4505 139.796 70.75 139.987C65.0495 140.179 59.4907 138.188 55.2071 134.423L54.1289 133.407L49.2423 128.521C47.9012 127.188 46.1499 126.347 44.2716 126.134L43.3265 126.078H36.3256C30.6043 126.078 25.0997 123.889 20.9406 119.961C16.7815 116.032 14.2831 110.661 13.9577 104.949L13.9227 103.675V96.6741C13.922 94.7866 13.2858 92.9543 12.1164 91.4725L11.4864 90.7725L6.60671 85.8859C2.56216 81.8643 0.203837 76.4515 0.0126069 70.7511C-0.178624 65.0507 1.81164 59.492 5.57758 55.2084L6.59271 54.1302L11.4794 49.2437C12.8117 47.9026 13.6528 46.1514 13.8667 44.2731L13.9227 43.328V36.3272L13.9577 35.053C14.2703 29.5605 16.593 24.3751 20.4831 20.485C24.3733 16.5949 29.5588 14.2722 35.0514 13.9596L36.3256 13.9246H43.3265C45.2141 13.924 47.0464 13.2877 48.5282 12.1184L49.2283 11.4883L54.1149 6.60876C56.1965 4.51474 58.6716 2.85287 61.3977 1.71869C64.1239 0.584521 67.0473 0.000427582 70 0ZM95.8824 50.9799C94.5695 49.6674 92.7891 48.9301 90.9327 48.9301C89.0763 48.9301 87.296 49.6674 85.9831 50.9799L62.9291 74.0265L53.8769 64.9815L53.2188 64.4004C51.8117 63.3124 50.0432 62.8008 48.2725 62.9695C46.5018 63.1381 44.8617 63.9745 43.6853 65.3086C42.5089 66.6427 41.8844 68.3746 41.9387 70.1524C41.993 71.9303 42.722 73.6208 43.9776 74.8806L57.9794 88.8822L58.6375 89.4633C59.9845 90.5082 61.6665 91.0257 63.3679 90.9187C65.0693 90.8117 66.6732 90.0876 67.8787 88.8822L95.8824 60.879L96.4635 60.2209C97.5083 58.874 98.0258 57.192 97.9189 55.4906C97.8119 53.7893 97.0878 52.1854 95.8824 50.9799Z" fill="#70B241"/>
<ellipse cx="69.4614" cy="70.0001" rx="46.8462" ry="45.2308" fill="#70B241"/>
<path d="M96.5149 57.8283L63.9333 90.41L49 75.4767L52.8283 71.6484L63.9333 82.7262L92.6866 54L96.5149 57.8283Z" fill="white"/>
</svg>
