<svg width="24" height="24" viewBox="0 0 24 24" fill="none" xmlns="http://www.w3.org/2000/svg">
<path fill-rule="evenodd" clip-rule="evenodd" d="M12.8633 0.351347C12.6382 0.12638 12.3331 0 12.0149 0C11.6967 0 11.3915 0.12638 11.1665 0.351347L2.76638 8.75144L0.36635 11.1515C0.251736 11.2622 0.160317 11.3946 0.0974253 11.541C0.0345338 11.6874 0.0014299 11.8449 4.53085e-05 12.0042C-0.00133929 12.1635 0.0290231 12.3215 0.0893608 12.469C0.149699 12.6165 0.238803 12.7505 0.351476 12.8632C0.464148 12.9758 0.598132 13.0649 0.745609 13.1253C0.893086 13.1856 1.0511 13.216 1.21044 13.2146C1.36978 13.2132 1.52724 13.1801 1.67365 13.1172C1.82006 13.0543 1.95247 12.9629 2.06317 12.8483L2.41477 12.4967V20.4C2.41477 21.3548 2.79406 22.2704 3.4692 22.9456C4.14434 23.6207 5.06002 24 6.01481 24H18.0149C18.9697 24 19.8854 23.6207 20.5606 22.9456C21.2357 22.2704 21.615 21.3548 21.615 20.4V12.4967L21.9666 12.8483C22.1929 13.0669 22.496 13.1878 22.8107 13.1851C23.1253 13.1824 23.4263 13.0562 23.6488 12.8337C23.8713 12.6112 23.9975 12.3102 24.0002 11.9956C24.0029 11.6809 23.882 11.3778 23.6634 11.1515L12.8633 0.351347Z" fill="#FB8C00"/>
</svg>
