<svg width="21" height="26" viewBox="0 0 21 26" fill="none" xmlns="http://www.w3.org/2000/svg">
<path d="M6.22662 10.3333V5C6.22662 3.93913 6.64805 2.92172 7.3982 2.17157C8.14834 1.42143 9.16576 1 10.2266 1C11.2875 1 12.3049 1.42143 13.0551 2.17157C13.8052 2.92172 14.2266 3.93913 14.2266 5V10.3333M18.2266 7.66667L19.4493 23.564C19.4634 23.7472 19.4396 23.9313 19.3792 24.1049C19.3188 24.2784 19.2232 24.4376 19.0984 24.5724C18.9735 24.7073 18.8222 24.8149 18.6538 24.8884C18.4855 24.962 18.3037 25 18.12 25H2.33329C2.14955 25 1.96779 24.962 1.79942 24.8884C1.63105 24.8149 1.47971 24.7073 1.35488 24.5724C1.23006 24.4376 1.13446 24.2784 1.07407 24.1049C1.01368 23.9313 0.98981 23.7472 1.00396 23.564L2.22663 7.66667H18.2266Z" stroke="#2E2C43" stroke-width="2" stroke-linecap="round" stroke-linejoin="round"/>
</svg>
