<svg width="19" height="24" viewBox="0 0 19 24" fill="none" xmlns="http://www.w3.org/2000/svg">
<path fill-rule="evenodd" clip-rule="evenodd" d="M11.9038 6H7.10383V9.6C7.10383 9.91826 6.9774 10.2235 6.75236 10.4485C6.52732 10.6736 6.22209 10.8 5.90383 10.8C5.58557 10.8 5.28035 10.6736 5.05531 10.4485C4.83026 10.2235 4.70383 9.91826 4.70383 9.6V6H2.30383C2.00157 6.00001 1.71045 6.11408 1.48865 6.31942C1.26685 6.52476 1.13071 6.80624 1.10743 7.1076L0.00703319 21.4164C-0.01826 21.7461 0.0248344 22.0774 0.133613 22.3896C0.242392 22.7018 0.41451 22.9882 0.639171 23.2308C0.863832 23.4734 1.13619 23.6669 1.43917 23.7993C1.74215 23.9316 2.0692 24 2.39983 24H16.6078C16.9385 24 17.2655 23.9316 17.5685 23.7993C17.8715 23.6669 18.1438 23.4734 18.3685 23.2308C18.5932 22.9882 18.7653 22.7018 18.8741 22.3896C18.9828 22.0774 19.0259 21.7461 19.0006 21.4164L17.9002 7.1076C17.877 6.80624 17.7408 6.52476 17.519 6.31942C17.2972 6.11408 17.0061 6.00001 16.7038 6H14.3038V9.6C14.3038 9.91826 14.1774 10.2235 13.9524 10.4485C13.7273 10.6736 13.4221 10.8 13.1038 10.8C12.7856 10.8 12.4803 10.6736 12.2553 10.4485C12.0303 10.2235 11.9038 9.91826 11.9038 9.6V6ZM9.50383 2.4C8.86731 2.4 8.25686 2.65286 7.80678 3.10294C7.35669 3.55303 7.10383 4.16348 7.10383 4.8V6H4.70383V4.8C4.70383 3.52696 5.20955 2.30606 6.10972 1.40589C7.00989 0.505713 8.23079 0 9.50383 0C10.7769 0 11.9978 0.505713 12.8979 1.40589C13.7981 2.30606 14.3038 3.52696 14.3038 4.8V6H11.9038V4.8C11.9038 4.16348 11.651 3.55303 11.2009 3.10294C10.7508 2.65286 10.1404 2.4 9.50383 2.4Z" fill="#FB8C00"/>
</svg>
