<svg width="24" height="24" viewBox="0 0 24 24" fill="none" xmlns="http://www.w3.org/2000/svg">
<path fill-rule="evenodd" clip-rule="evenodd" d="M0 10.3987C0.000213312 8.72229 0.405666 7.07081 1.18181 5.58492C1.95796 4.09903 3.0818 2.82279 4.45757 1.86492C5.83335 0.90706 7.42028 0.295965 9.08318 0.0837056C10.7461 -0.128554 12.4356 0.0643122 14.0079 0.645873C15.5802 1.22743 16.9886 2.18045 18.1131 3.42373C19.2376 4.667 20.0449 6.16369 20.4662 7.78627C20.8875 9.40885 20.9103 11.1092 20.5327 12.7425C20.1552 14.3758 19.3883 15.8937 18.2976 17.1667L23.7664 22.6323L22.6352 23.7635L17.1664 18.2963C15.6561 19.5902 13.8065 20.4239 11.8369 20.6987C9.86718 20.9735 7.86002 20.6777 6.0533 19.8465C4.24658 19.0153 2.71607 17.6835 1.64319 16.009C0.570308 14.3345 4.53414e-05 12.3874 0 10.3987ZM14.1664 9.03228L10.9664 5.83228C10.8921 5.75778 10.8038 5.69867 10.7066 5.65834C10.6094 5.61801 10.5052 5.59725 10.4 5.59725C10.2948 5.59725 10.1906 5.61801 10.0934 5.65834C9.99619 5.69867 9.90791 5.75778 9.8336 5.83228L6.6336 9.03228C6.55936 9.10671 6.50051 9.19504 6.46043 9.29223C6.42035 9.38942 6.39981 9.49355 6.4 9.59868V13.5987C6.4 13.8109 6.48429 14.0143 6.63432 14.1644C6.78434 14.3144 6.98783 14.3987 7.2 14.3987H13.6C13.8122 14.3987 14.0157 14.3144 14.1657 14.1644C14.3157 14.0143 14.4 13.8109 14.4 13.5987V9.59868C14.4002 9.49355 14.3797 9.38942 14.3396 9.29223C14.2995 9.19504 14.2406 9.10671 14.1664 9.03228Z" fill="#FB8C00"/>
</svg>
