<svg width="20" height="28" viewBox="0 0 20 28" fill="none" xmlns="http://www.w3.org/2000/svg">
<path d="M14.9693 21.1142L15.3586 22.3258L14.8046 24.7659L12.2736 27.5378C14.8613 27.6943 17.4278 26.9876 19.5706 25.5285C19.5706 25.5285 20.5477 19.1777 14.6854 19.1777C13.1261 20.2173 11.7904 20.9359 10.2887 20.933H10.3498C8.84809 20.9359 7.51247 20.2173 5.95311 19.1777C0.0908593 19.1777 1.0679 25.5285 1.0679 25.5285C5.94236 28.4699 8.08697 27.3399 14.8046 24.7659L15.106 23.0458L3.34832 23.7053L5.94236 23.2618" fill="#FB8C00"/>
<path d="M19.5638 25.529C19.5638 25.529 20.5408 19.1782 14.6786 19.1782C13.1192 20.2178 11.7831 20.9359 10.2819 20.933H10.343C8.84125 20.9359 7.50563 20.2178 5.94627 19.1782C0.0840234 19.1782 1.06107 25.529 1.06107 25.529" fill="#FB8C00"/>
<path d="M14.8151 19.1782C13.5459 20.1479 12.0366 20.7538 10.4492 20.931C16.8303 21.1328 16.8303 23.5754 17.2025 25.5295H19.7003C19.7003 25.5295 20.6774 19.1782 14.8151 19.1782Z" fill="#FB8C00"/>
<path d="M19.7017 25.529C19.7017 25.529 13.9587 29.9384 9.57129 26.9765L14.8053 24.7659L15.3593 22.3258C15.3593 22.3258 19.7442 21.1221 19.7017 25.529Z" fill="#FB8C00"/>
<path d="M10.3186 18.0415C13.3779 18.0415 15.858 14.9416 15.858 11.1177C15.858 7.29374 13.3779 4.19385 10.3186 4.19385C7.25934 4.19385 4.7793 7.29374 4.7793 11.1177C4.7793 14.9416 7.25934 18.0415 10.3186 18.0415Z" fill="#FB8C00"/>
<path d="M16.7542 3.58183C10.3199 5.59307 4.78057 10.1861 4.78057 10.1861C4.78057 10.1861 2.84602 7.57745 3.68775 4.94578C3.68775 4.94578 4.78057 1 10.0561 1C13.8192 1 15.721 2.54861 16.7542 3.58183C19.7572 7.84418 15.7112 10.2277 15.7112 10.2277C14.0713 8.95 12.4971 7.59017 10.9946 6.15341" fill="white"/>
<path d="M16.7538 3.58179C19.7563 7.84413 15.7108 10.2276 15.7108 10.2276C14.0709 8.94995 12.4966 7.59012 10.9941 6.15336" fill="#F9F9F9"/>
<path d="M10.3188 9.0007C10.0597 9.0007 9.8112 8.89776 9.62797 8.71453C9.44473 8.5313 9.3418 8.28278 9.3418 8.02365V6.06957C9.3418 5.81044 9.44473 5.56193 9.62797 5.3787C9.8112 5.19547 10.0597 5.09253 10.3188 5.09253C10.578 5.09253 10.8265 5.19547 11.0097 5.3787C11.1929 5.56193 11.2959 5.81044 11.2959 6.06957V8.02365C11.2959 8.28278 11.1929 8.5313 11.0097 8.71453C10.8265 8.89776 10.578 9.0007 10.3188 9.0007ZM14.8039 24.7662L12.6486 25.6607V23.0984H15.1054L14.8039 24.7662Z" fill="#FCEA2B"/>
<path d="M12.2731 27.538C14.8605 27.6948 17.4268 26.9884 19.5697 25.5297C19.5697 25.5297 20.5467 19.179 14.6844 19.179C13.1251 20.2185 11.7895 20.9367 10.2878 20.9337H10.3488C8.84711 20.9367 7.51149 20.2185 5.95213 19.179C0.0898827 19.179 1.06692 25.5297 1.06692 25.5297C5.94139 28.4706 8.08599 27.3412 14.8036 24.7667L15.1051 23.0471L3.34734 23.7066" stroke="black" stroke-width="0.464646" stroke-linecap="round" stroke-linejoin="round"/>
<path d="M14.9713 21.1145L15.3606 22.326L14.8066 24.7662" stroke="black" stroke-width="0.464646" stroke-linecap="round" stroke-linejoin="round"/>
<path d="M13.2499 10.4531C13.2499 10.6464 13.1926 10.8353 13.0853 10.9959C12.9779 11.1566 12.8253 11.2818 12.6468 11.3558C12.4683 11.4297 12.2718 11.4491 12.0823 11.4114C11.8928 11.3737 11.7187 11.2806 11.582 11.144C11.4454 11.0073 11.3523 10.8333 11.3146 10.6437C11.2769 10.4542 11.2963 10.2577 11.3702 10.0792C11.4442 9.90069 11.5694 9.74809 11.7301 9.64073C11.8908 9.53338 12.0797 9.47607 12.2729 9.47607C12.532 9.47607 12.7805 9.57901 12.9638 9.76224C13.147 9.94547 13.2499 10.194 13.2499 10.4531ZM9.34178 10.4531C9.34178 10.6464 9.28448 10.8353 9.17712 10.9959C9.06976 11.1566 8.91717 11.2818 8.73864 11.3558C8.5601 11.4297 8.36365 11.4491 8.17413 11.4114C7.9846 11.3737 7.81051 11.2806 7.67386 11.144C7.53722 11.0073 7.44417 10.8333 7.40647 10.6437C7.36877 10.4542 7.38812 10.2577 7.46207 10.0792C7.53602 9.90069 7.66125 9.74809 7.82192 9.64073C7.9826 9.53338 8.1715 9.47607 8.36474 9.47607C8.62387 9.47607 8.87238 9.57901 9.05561 9.76224C9.23884 9.94547 9.34178 10.194 9.34178 10.4531ZM10.3188 15.3393C9.73224 15.3337 9.15522 15.1901 8.6344 14.9201C8.51851 14.8622 8.43039 14.7605 8.38944 14.6376C8.34849 14.5146 8.35805 14.3805 8.41603 14.2646C8.47401 14.1487 8.57566 14.0605 8.6986 14.0196C8.82155 13.9786 8.95573 13.9882 9.07163 14.0462C9.45477 14.2528 9.88326 14.361 10.3186 14.361C10.7539 14.361 11.1824 14.2528 11.5655 14.0462C11.6815 13.9882 11.8157 13.9787 11.9387 14.0197C12.0617 14.0607 12.1634 14.1488 12.2214 14.2648C12.2793 14.3808 12.2889 14.515 12.2479 14.638C12.2069 14.761 12.1187 14.8627 12.0028 14.9206C11.482 15.1903 10.9052 15.3337 10.3188 15.3393Z" fill="black"/>
<path d="M9.34416 7.02346C8.71886 7.39962 8.13752 7.7709 7.61969 8.11775C6.09061 9.13876 5.07449 9.9497 4.83512 10.1402C4.80092 10.1695 4.78138 10.1842 4.78138 10.1842C4.78138 10.1842 2.84684 7.57549 3.68709 4.94725C3.68709 4.94725 4.78138 1 10.0574 1C13.819 1 15.7194 2.54861 16.755 3.58428C19.481 7.44848 16.4033 9.76406 15.8073 10.1647C15.7438 10.2086 15.7096 10.2282 15.7096 10.2282C15.7096 10.2282 13.5552 8.57696 11.2982 6.44212" stroke="black" stroke-width="0.464646" stroke-linecap="round" stroke-linejoin="round"/>
<path d="M11.2832 5.91936C13.0317 4.97511 14.8632 4.19345 16.7546 3.58423" stroke="black" stroke-width="0.464646" stroke-linecap="round" stroke-linejoin="round"/>
<path d="M12.6499 23.2416V25.5611M4.81887 10.2293C4.78791 10.5283 4.77242 10.8286 4.77246 11.1292C4.77246 14.9533 7.25268 18.053 10.3118 18.053C13.3709 18.053 15.8506 14.9533 15.8506 11.1292C15.8509 10.8191 15.8346 10.5093 15.8018 10.201M10.3201 9.0007C10.061 9.0007 9.81246 8.89776 9.62923 8.71453C9.446 8.5313 9.34306 8.28278 9.34306 8.02365V6.06957C9.34306 5.81044 9.446 5.56193 9.62923 5.3787C9.81246 5.19547 10.061 5.09253 10.3201 5.09253C10.5792 5.09253 10.8277 5.19547 11.011 5.3787C11.1942 5.56193 11.2971 5.81044 11.2971 6.06957V8.02365C11.2971 8.28278 11.1942 8.5313 11.011 8.71453C10.8277 8.89776 10.5792 9.0007 10.3201 9.0007Z" stroke="black" stroke-width="0.464646" stroke-linecap="round" stroke-linejoin="round"/>
</svg>
