<svg width="24" height="23" viewBox="0 0 24 23" fill="none" xmlns="http://www.w3.org/2000/svg">
<path d="M22.0785 6.44116H18.0445C18.0894 6.40321 18.1354 6.36641 18.1791 6.32616C18.5283 6.01589 18.8098 5.63689 19.0059 5.21287C19.202 4.78885 19.3084 4.32894 19.3187 3.86189C19.3338 3.35095 19.2443 2.84231 19.0557 2.36721C18.8671 1.8921 18.5834 1.46055 18.222 1.09905C17.8606 0.737549 17.4292 0.453726 16.9541 0.265006C16.4791 0.0762868 15.9705 -0.0133478 15.4595 0.00160545C14.9923 0.0116694 14.5321 0.118075 14.1079 0.314162C13.6837 0.510248 13.3045 0.791794 12.9941 1.14118C12.5647 1.63904 12.2155 2.20081 11.9592 2.80626C11.7028 2.20081 11.3537 1.63904 10.9242 1.14118C10.6138 0.791794 10.2346 0.510248 9.81042 0.314162C9.38619 0.118075 8.92605 0.0116694 8.45881 0.00160545C7.94787 -0.0133478 7.43926 0.0762868 6.96421 0.265006C6.48916 0.453726 6.05769 0.737549 5.6963 1.09905C5.33491 1.46055 5.05121 1.8921 4.86263 2.36721C4.67406 2.84231 4.58457 3.35095 4.59968 3.86189C4.6099 4.32894 4.71638 4.78885 4.91246 5.21287C5.10854 5.63689 5.39001 6.01589 5.73925 6.32616C5.78295 6.36411 5.82894 6.40091 5.87379 6.44116H1.83987C1.35191 6.44116 0.883929 6.635 0.538886 6.98004C0.193843 7.32508 0 7.79306 0 8.28103V11.9608C0 12.4487 0.193843 12.9167 0.538886 13.2618C0.883929 13.6068 1.35191 13.8006 1.83987 13.8006V21.1601C1.83987 21.6481 2.03371 22.1161 2.37876 22.4611C2.7238 22.8062 3.19178 23 3.67974 23H20.2386C20.7266 23 21.1945 22.8062 21.5396 22.4611C21.8846 22.1161 22.0785 21.6481 22.0785 21.1601V13.8006C22.5664 13.8006 23.0344 13.6068 23.3794 13.2618C23.7245 12.9167 23.9183 12.4487 23.9183 11.9608V8.28103C23.9183 7.79306 23.7245 7.32508 23.3794 6.98004C23.0344 6.635 22.5664 6.44116 22.0785 6.44116ZM14.374 2.36009C14.5197 2.19929 14.697 2.07033 14.8949 1.98129C15.0928 1.89224 15.3069 1.84504 15.5239 1.84263H15.5803C15.8346 1.84422 16.086 1.89655 16.3199 1.99657C16.5537 2.09658 16.7652 2.24227 16.9421 2.42508C17.1189 2.60789 17.2574 2.82416 17.3496 3.0612C17.4417 3.29825 17.4857 3.5513 17.4788 3.80554C17.4764 4.02252 17.4292 4.23665 17.3401 4.43453C17.2511 4.63241 17.1221 4.80976 16.9613 4.95546C15.87 5.92139 14.0589 6.26177 12.9366 6.38136C13.0746 5.1636 13.4541 3.39387 14.374 2.36009ZM7.00416 2.40149C7.36057 2.04512 7.84326 1.84386 8.34727 1.84148H8.40361C8.62059 1.84389 8.83473 1.89109 9.03261 1.98014C9.23048 2.06918 9.40783 2.19815 9.55353 2.35894C10.5183 3.44906 10.8587 5.25674 10.9783 6.37446C9.86056 6.25947 8.05289 5.91449 6.96276 4.94971C6.80197 4.80401 6.67301 4.62666 6.58396 4.42878C6.49492 4.23091 6.44771 4.01677 6.4453 3.79979C6.43817 3.54133 6.48362 3.28411 6.5789 3.04375C6.67417 2.80338 6.81729 2.58487 6.99956 2.40149H7.00416ZM1.83987 8.28103H11.0392V11.9608H1.83987V8.28103ZM3.67974 13.8006H11.0392V21.1601H3.67974V13.8006ZM20.2386 21.1601H12.8791V13.8006H20.2386V21.1601ZM22.0785 11.9608H12.8791V8.28103H22.0785V11.9608Z" fill="#2E2C43"/>
</svg>
