<svg width="24" height="24" viewBox="0 0 24 24" fill="none" xmlns="http://www.w3.org/2000/svg">
<path d="M22.1538 6.48116H18.1062C18.1512 6.44298 18.1973 6.40595 18.2412 6.36546C18.5916 6.05326 18.874 5.6719 19.0708 5.24525C19.2675 4.8186 19.3744 4.35582 19.3846 3.88587C19.3998 3.37176 19.31 2.85997 19.1208 2.38191C18.9315 1.90385 18.6469 1.46962 18.2843 1.10588C17.9216 0.74213 17.4887 0.456544 17.012 0.266652C16.5353 0.0767606 16.025 -0.0134307 15.5123 0.00161542C15.0435 0.0117419 14.5818 0.118808 14.1561 0.316113C13.7304 0.513417 13.3499 0.796712 13.0385 1.14826C12.6076 1.64922 12.2572 2.21448 12 2.82369C11.7428 2.21448 11.3924 1.64922 10.9615 1.14826C10.6501 0.796712 10.2696 0.513417 9.84392 0.316113C9.41824 0.118808 8.95653 0.0117419 8.48769 0.00161542C7.975 -0.0134307 7.46466 0.0767606 6.98799 0.266652C6.51131 0.456544 6.07838 0.74213 5.71575 1.10588C5.35312 1.46962 5.06846 1.90385 4.87924 2.38191C4.69002 2.85997 4.60023 3.37176 4.61538 3.88587C4.62564 4.35582 4.73249 4.8186 4.92924 5.24525C5.12599 5.6719 5.40841 6.05326 5.75885 6.36546C5.80269 6.40364 5.84885 6.44067 5.89385 6.48116H1.84615C1.35652 6.48116 0.886947 6.67621 0.540726 7.0234C0.194505 7.37058 0 7.84147 0 8.33246V12.0351C0 12.5261 0.194505 12.9969 0.540726 13.3441C0.886947 13.6913 1.35652 13.8864 1.84615 13.8864V21.2916C1.84615 21.7826 2.04066 22.2534 2.38688 22.6006C2.7331 22.9478 3.20268 23.1429 3.69231 23.1429H10.6154C10.7378 23.1429 10.8552 23.0941 10.9417 23.0073C11.0283 22.9205 11.0769 22.8028 11.0769 22.68V12.0351H1.84615V8.33246H11.0769V12.0351H12.9231V8.33246H22.1538V12.0351H12.9231V22.68C12.9231 22.8028 12.9717 22.9205 13.0583 23.0073C13.1448 23.0941 13.2622 23.1429 13.3846 23.1429H20.3077C20.7973 23.1429 21.2669 22.9478 21.6131 22.6006C21.9593 22.2534 22.1538 21.7826 22.1538 21.2916V13.8864C22.6435 13.8864 23.1131 13.6913 23.4593 13.3441C23.8055 12.9969 24 12.5261 24 12.0351V8.33246C24 7.84147 23.8055 7.37058 23.4593 7.0234C23.1131 6.67621 22.6435 6.48116 22.1538 6.48116ZM6.98192 4.97698C6.82058 4.83038 6.69117 4.65193 6.60183 4.45282C6.51248 4.25371 6.46511 4.03824 6.46269 3.81992C6.45686 3.5641 6.502 3.30968 6.59546 3.07157C6.68893 2.83346 6.82885 2.61646 7.00702 2.43327C7.18518 2.25008 7.39802 2.10439 7.63305 2.00473C7.86809 1.90508 8.12059 1.85346 8.37577 1.85291H8.43231C8.65002 1.85534 8.86489 1.90284 9.06345 1.99244C9.262 2.08203 9.43995 2.2118 9.58615 2.37359C10.5542 3.47049 10.8958 5.28939 11.0158 6.41405C9.88962 6.29488 8.07692 5.95239 6.98192 4.97698ZM17.0204 4.97698C15.9254 5.94891 14.1081 6.29141 12.9819 6.41174C13.1192 5.19567 13.5 3.41495 14.4231 2.37475C14.5693 2.21296 14.7472 2.08319 14.9458 1.99359C15.1443 1.904 15.3592 1.8565 15.5769 1.85407H15.6335C15.8887 1.85567 16.141 1.90833 16.3756 2.00897C16.6102 2.10961 16.8225 2.25619 16.9999 2.44014C17.1773 2.62409 17.3163 2.8417 17.4088 3.08022C17.5013 3.31873 17.5454 3.57336 17.5385 3.82918C17.5346 4.04602 17.4865 4.25977 17.397 4.4572C17.3075 4.65462 17.1785 4.83154 17.0181 4.97698H17.0204Z" fill="#FB8C00"/>
</svg>
