<svg width="14" height="14" viewBox="0 0 14 14" fill="none" xmlns="http://www.w3.org/2000/svg">
<path d="M7.24165 0.074707C3.50622 0.074707 0.477417 3.10351 0.477417 6.83894C0.477417 10.5744 3.50622 13.6032 7.24165 13.6032C10.9771 13.6032 14.0059 10.5744 14.0059 6.83894C14.0059 3.10351 10.9771 0.074707 7.24165 0.074707ZM7.24165 12.4557C4.14037 12.4557 1.62492 9.94022 1.62492 6.83894C1.62492 3.73766 4.14037 1.22221 7.24165 1.22221C10.3429 1.22221 12.8584 3.73766 12.8584 6.83894C12.8584 9.94022 10.3429 12.4557 7.24165 12.4557Z" fill="#001B33"/>
<path d="M9.87939 8.75035L7.72631 7.19367V3.45673C7.72631 3.39029 7.67196 3.33594 7.60552 3.33594H6.87927C6.81284 3.33594 6.75848 3.39029 6.75848 3.45673V7.61492C6.75848 7.65418 6.7766 7.69042 6.80831 7.71306L9.30564 9.53397C9.36 9.57323 9.43549 9.56115 9.47475 9.5083L9.90657 8.91945C9.94583 8.86359 9.93375 8.78809 9.87939 8.75035Z" fill="#001B33"/>
</svg>
