<svg width="75" height="79" viewBox="0 0 75 79" fill="none" xmlns="http://www.w3.org/2000/svg">
<path d="M37.464 78.9989C36.2404 78.9949 35.0221 78.8372 33.8378 78.5297L33.6043 78.4651L33.3878 78.3566C25.5588 74.4298 18.9539 69.2432 13.7566 62.9406C9.45428 57.6928 6.10001 51.7345 3.84459 45.3336C1.14747 37.6701 -0.150108 29.5838 0.0137975 21.4609C0.0171048 21.2904 0.0199038 21.1587 0.0199038 21.068C0.0199038 17.1194 2.21089 13.6548 5.60169 12.2414C8.19685 11.1597 31.7596 1.47808 33.4621 0.77855C36.6683 -0.828547 40.0887 0.512828 40.6361 0.747398C41.8639 1.24956 63.6462 10.162 68.3533 12.4042C73.2045 14.7152 74.4988 18.8667 74.4988 20.9553C74.4988 30.4114 72.8617 39.2489 69.633 47.2223C67.0254 53.6762 63.3297 59.6344 58.7068 64.8373C49.7874 74.8784 40.8657 78.438 40.7796 78.4694C39.7134 78.8364 38.5915 79.0156 37.464 78.9989ZM35.3659 73.8C36.1394 73.9735 37.9202 74.2337 39.081 73.8101C40.5555 73.2722 48.0228 69.3985 55.0008 61.543C64.642 50.6894 69.5339 37.0454 69.5411 20.9902C69.5239 20.6649 69.293 18.345 66.2218 16.8821C61.6059 14.6832 38.9651 5.42207 38.7369 5.32873L38.6744 5.3022C38.1999 5.1033 36.6899 4.68435 35.649 5.23L35.4406 5.32719C35.1882 5.43088 10.1761 15.7076 7.50855 16.8195C5.64252 17.5973 4.97766 19.5241 4.97766 21.0681C4.97766 21.1809 4.97474 21.345 4.97061 21.5571C4.75742 32.5427 7.29863 59.5749 35.3659 73.8Z" fill="#3F3D56"/>
<path d="M34.4989 3.03324C34.4989 3.03324 9.25942 13.4032 6.55518 14.5304C3.85095 15.6575 2.49884 18.3627 2.49884 21.068C2.49884 23.7732 0.470671 59.0725 34.4989 76.1396C34.4989 76.1396 37.5873 76.9945 39.9304 76.1396C42.2735 75.2848 72.02 60.857 72.02 20.9552C72.02 20.9552 72.02 16.8974 67.2876 14.6431C62.5552 12.3887 39.6749 3.03324 39.6749 3.03324C39.6749 3.03324 36.8651 1.79335 34.4989 3.03324Z" fill="#F9A826"/>
<path opacity="0.1" d="M37.2031 11.1489V66.469C37.2031 66.469 11.7383 54.2068 11.9636 21.9698L37.2031 11.1489Z" fill="black"/>
<path d="M37.5349 50.9082L29.4231 40.4743L34.1405 36.8041L37.9814 41.7442L50.9567 28.042L55.2957 32.1545L37.5349 50.9082Z" fill="white"/>
</svg>
