<svg width="164" height="63" viewBox="0 0 164 63" fill="none" xmlns="http://www.w3.org/2000/svg">
<rect x="0.5" y="0.5" width="163" height="62" rx="23.5" stroke="#FB8C00"/>
<path d="M29.1939 25.672V32.056C29.1939 32.5787 29.3059 32.9947 29.5299 33.304C29.7645 33.6027 30.1379 33.752 30.6499 33.752C31.1619 33.752 31.5405 33.6027 31.7859 33.304C32.0312 32.9947 32.1539 32.5787 32.1539 32.056V25.672H35.6899V32.056C35.6899 33.1333 35.4659 34.056 35.0179 34.824C34.5699 35.5813 33.9565 36.152 33.1779 36.536C32.3992 36.92 31.5299 37.112 30.5699 37.112C29.6099 37.112 28.7565 36.92 28.0099 36.536C27.2739 36.152 26.6979 35.5813 26.2819 34.824C25.8659 34.0667 25.6579 33.144 25.6579 32.056V25.672H29.1939ZM40.7739 29.208C40.9979 28.792 41.3179 28.4667 41.7339 28.232C42.1605 27.9867 42.6672 27.864 43.2539 27.864C43.9579 27.864 44.5925 28.0507 45.1579 28.424C45.7232 28.7867 46.1659 29.32 46.4859 30.024C46.8165 30.7173 46.9819 31.5387 46.9819 32.488C46.9819 33.4373 46.8165 34.264 46.4859 34.968C46.1659 35.6613 45.7232 36.1947 45.1579 36.568C44.5925 36.9307 43.9579 37.112 43.2539 37.112C42.6672 37.112 42.1605 36.9947 41.7339 36.76C41.3179 36.5147 40.9979 36.184 40.7739 35.768V41.32H37.2219V27.976H40.7739V29.208ZM43.3819 32.488C43.3819 32.008 43.2592 31.6347 43.0139 31.368C42.7685 31.1013 42.4539 30.968 42.0699 30.968C41.6859 30.968 41.3712 31.1013 41.1259 31.368C40.8805 31.6347 40.7579 32.008 40.7579 32.488C40.7579 32.968 40.8805 33.3413 41.1259 33.608C41.3712 33.8747 41.6859 34.008 42.0699 34.008C42.4539 34.008 42.7685 33.8747 43.0139 33.608C43.2592 33.3413 43.3819 32.968 43.3819 32.488ZM51.6489 25.16V37H48.0969V25.16H51.6489ZM57.5411 37.112C56.6345 37.112 55.8185 36.9253 55.0931 36.552C54.3678 36.1787 53.7971 35.6453 53.3811 34.952C52.9758 34.248 52.7731 33.4267 52.7731 32.488C52.7731 31.5493 52.9758 30.7333 53.3811 30.04C53.7971 29.336 54.3678 28.7973 55.0931 28.424C55.8185 28.0507 56.6345 27.864 57.5411 27.864C58.4478 27.864 59.2638 28.0507 59.9891 28.424C60.7145 28.7973 61.2798 29.336 61.6851 30.04C62.1011 30.7333 62.3091 31.5493 62.3091 32.488C62.3091 33.4267 62.1011 34.248 61.6851 34.952C61.2798 35.6453 60.7145 36.1787 59.9891 36.552C59.2638 36.9253 58.4478 37.112 57.5411 37.112ZM57.5411 34.04C57.8718 34.04 58.1491 33.912 58.3731 33.656C58.5971 33.3893 58.7091 33 58.7091 32.488C58.7091 31.976 58.5971 31.592 58.3731 31.336C58.1491 31.0693 57.8718 30.936 57.5411 30.936C57.2105 30.936 56.9331 31.0693 56.7091 31.336C56.4851 31.592 56.3731 31.976 56.3731 32.488C56.3731 33 56.4798 33.3893 56.6931 33.656C56.9171 33.912 57.1998 34.04 57.5411 34.04ZM62.945 32.488C62.945 31.5387 63.105 30.7173 63.425 30.024C63.7557 29.32 64.2037 28.7867 64.769 28.424C65.3343 28.0507 65.969 27.864 66.673 27.864C67.2597 27.864 67.7663 27.9867 68.193 28.232C68.6197 28.4667 68.945 28.792 69.169 29.208V27.976H72.705V37H69.169V35.768C68.945 36.184 68.6197 36.5147 68.193 36.76C67.7663 36.9947 67.2597 37.112 66.673 37.112C65.969 37.112 65.3343 36.9307 64.769 36.568C64.2037 36.1947 63.7557 35.6613 63.425 34.968C63.105 34.264 62.945 33.4373 62.945 32.488ZM69.169 32.488C69.169 32.008 69.0463 31.6347 68.801 31.368C68.5557 31.1013 68.241 30.968 67.857 30.968C67.473 30.968 67.1583 31.1013 66.913 31.368C66.6677 31.6347 66.545 32.008 66.545 32.488C66.545 32.968 66.6677 33.3413 66.913 33.608C67.1583 33.8747 67.473 34.008 67.857 34.008C68.241 34.008 68.5557 33.8747 68.801 33.608C69.0463 33.3413 69.169 32.968 69.169 32.488ZM73.82 32.488C73.82 31.5387 73.98 30.7173 74.3 30.024C74.6307 29.32 75.0787 28.7867 75.644 28.424C76.2093 28.0507 76.844 27.864 77.548 27.864C78.1347 27.864 78.636 27.9867 79.052 28.232C79.4787 28.4667 79.804 28.792 80.028 29.208V25.16H83.58V37H80.028V35.768C79.804 36.184 79.4787 36.5147 79.052 36.76C78.636 36.9947 78.1347 37.112 77.548 37.112C76.844 37.112 76.2093 36.9307 75.644 36.568C75.0787 36.1947 74.6307 35.6613 74.3 34.968C73.98 34.264 73.82 33.4373 73.82 32.488ZM80.044 32.488C80.044 32.008 79.9213 31.6347 79.676 31.368C79.4307 31.1013 79.116 30.968 78.732 30.968C78.348 30.968 78.0333 31.1013 77.788 31.368C77.5427 31.6347 77.42 32.008 77.42 32.488C77.42 32.968 77.5427 33.3413 77.788 33.608C78.0333 33.8747 78.348 34.008 78.732 34.008C79.116 34.008 79.4307 33.8747 79.676 33.608C79.9213 33.3413 80.044 32.968 80.044 32.488ZM91.4458 25.672V37H87.8938V25.672H91.4458ZM105.098 27.912C106.25 27.912 107.141 28.2587 107.77 28.952C108.41 29.6453 108.73 30.584 108.73 31.768V37H105.194V32.216C105.194 31.832 105.077 31.5333 104.842 31.32C104.618 31.096 104.314 30.984 103.93 30.984C103.535 30.984 103.226 31.096 103.002 31.32C102.778 31.5333 102.666 31.832 102.666 32.216V37H99.13V32.216C99.13 31.832 99.0127 31.5333 98.778 31.32C98.554 31.096 98.25 30.984 97.866 30.984C97.4713 30.984 97.162 31.096 96.938 31.32C96.714 31.5333 96.602 31.832 96.602 32.216V37H93.05V27.976H96.602V29.192C96.858 28.808 97.2047 28.4987 97.642 28.264C98.09 28.0293 98.6127 27.912 99.21 27.912C99.8607 27.912 100.437 28.056 100.938 28.344C101.439 28.6213 101.839 29.016 102.138 29.528C102.469 29.0587 102.89 28.6747 103.402 28.376C103.914 28.0667 104.479 27.912 105.098 27.912ZM109.789 32.488C109.789 31.5387 109.949 30.7173 110.269 30.024C110.599 29.32 111.047 28.7867 111.613 28.424C112.178 28.0507 112.813 27.864 113.517 27.864C114.103 27.864 114.61 27.9867 115.037 28.232C115.463 28.4667 115.789 28.792 116.013 29.208V27.976H119.549V37H116.013V35.768C115.789 36.184 115.463 36.5147 115.037 36.76C114.61 36.9947 114.103 37.112 113.517 37.112C112.813 37.112 112.178 36.9307 111.613 36.568C111.047 36.1947 110.599 35.6613 110.269 34.968C109.949 34.264 109.789 33.4373 109.789 32.488ZM116.013 32.488C116.013 32.008 115.89 31.6347 115.645 31.368C115.399 31.1013 115.085 30.968 114.701 30.968C114.317 30.968 114.002 31.1013 113.757 31.368C113.511 31.6347 113.389 32.008 113.389 32.488C113.389 32.968 113.511 33.3413 113.757 33.608C114.002 33.8747 114.317 34.008 114.701 34.008C115.085 34.008 115.399 33.8747 115.645 33.608C115.89 33.3413 116.013 32.968 116.013 32.488ZM124.392 27.864C124.978 27.864 125.485 27.9867 125.912 28.232C126.338 28.4667 126.664 28.792 126.888 29.208V27.976H130.424V36.84C130.424 37.6827 130.269 38.4507 129.96 39.144C129.65 39.8373 129.149 40.392 128.456 40.808C127.773 41.224 126.893 41.432 125.816 41.432C124.365 41.432 123.213 41.0907 122.36 40.408C121.517 39.736 121.037 38.8187 120.92 37.656H124.408C124.504 38.1253 124.888 38.36 125.56 38.36C125.976 38.36 126.301 38.2533 126.536 38.04C126.77 37.8267 126.888 37.4267 126.888 36.84V35.768C126.664 36.184 126.338 36.5147 125.912 36.76C125.485 36.9947 124.978 37.112 124.392 37.112C123.688 37.112 123.053 36.9307 122.488 36.568C121.922 36.1947 121.474 35.6613 121.144 34.968C120.824 34.264 120.664 33.4373 120.664 32.488C120.664 31.5387 120.824 30.7173 121.144 30.024C121.474 29.32 121.922 28.7867 122.488 28.424C123.053 28.0507 123.688 27.864 124.392 27.864ZM126.888 32.488C126.888 32.008 126.765 31.6347 126.52 31.368C126.274 31.1013 125.96 30.968 125.576 30.968C125.192 30.968 124.877 31.1013 124.632 31.368C124.386 31.6347 124.264 32.008 124.264 32.488C124.264 32.968 124.386 33.3413 124.632 33.608C124.877 33.8747 125.192 34.008 125.576 34.008C125.96 34.008 126.274 33.8747 126.52 33.608C126.765 33.3413 126.888 32.968 126.888 32.488ZM140.755 32.408C140.755 32.6533 140.739 32.888 140.707 33.112H134.995C135.048 33.8907 135.373 34.28 135.971 34.28C136.355 34.28 136.632 34.104 136.803 33.752H140.563C140.435 34.392 140.163 34.968 139.747 35.48C139.341 35.9813 138.824 36.3813 138.195 36.68C137.576 36.968 136.893 37.112 136.147 37.112C135.251 37.112 134.451 36.9253 133.747 36.552C133.053 36.1787 132.509 35.6453 132.115 34.952C131.731 34.248 131.539 33.4267 131.539 32.488C131.539 31.5493 131.731 30.7333 132.115 30.04C132.509 29.336 133.053 28.7973 133.747 28.424C134.451 28.0507 135.251 27.864 136.147 27.864C137.043 27.864 137.837 28.0507 138.531 28.424C139.235 28.7867 139.779 29.3093 140.163 29.992C140.557 30.6747 140.755 31.48 140.755 32.408ZM137.155 31.56C137.155 31.2613 137.059 31.0373 136.867 30.888C136.675 30.728 136.435 30.648 136.147 30.648C135.517 30.648 135.149 30.952 135.043 31.56H137.155Z" fill="#FB8C00"/>
</svg>
