<svg width="96" height="96" viewBox="0 0 96 96" fill="none" xmlns="http://www.w3.org/2000/svg">
<path d="M48 4C23.6988 4 4 23.6988 4 48C4 72.3012 23.6988 92 48 92C72.3012 92 92 72.3012 92 48C92 23.6988 72.3012 4 48 4Z" stroke="#FB8C00" stroke-width="6.51852" stroke-linecap="round" stroke-linejoin="round"/>
<path d="M13.9912 75.9225C13.9912 75.9225 23.7988 63.4001 47.9988 63.4001C72.1988 63.4001 82.0108 75.9225 82.0108 75.9225M47.9988 48.0001C51.4997 48.0001 54.8571 46.6094 57.3326 44.1339C59.8081 41.6584 61.1988 38.301 61.1988 34.8001C61.1988 31.2992 59.8081 27.9418 57.3326 25.4663C54.8571 22.9908 51.4997 21.6001 47.9988 21.6001C44.498 21.6001 41.1405 22.9908 38.665 25.4663C36.1895 27.9418 34.7988 31.2992 34.7988 34.8001C34.7988 38.301 36.1895 41.6584 38.665 44.1339C41.1405 46.6094 44.498 48.0001 47.9988 48.0001V48.0001Z" stroke="#FB8C00" stroke-width="6.51852" stroke-linecap="round" stroke-linejoin="round"/>
</svg>
