<svg width="17" height="17" viewBox="0 0 17 17" fill="none" xmlns="http://www.w3.org/2000/svg">
<path d="M13.8272 8.75375C14.0116 8.56536 14.1138 8.31145 14.1112 8.04779C14.1086 7.78413 14.0015 7.53227 13.8133 7.34755L10.0248 3.63079C9.83635 3.44597 9.58217 3.3436 9.3182 3.34619C9.05424 3.34879 8.80212 3.45613 8.6173 3.64461C8.43249 3.8331 8.33012 4.08728 8.33271 4.35124C8.3353 4.6152 8.44265 4.86732 8.63113 5.05214L10.7049 7.08621L3.05372 7.16138C2.78984 7.16397 2.5378 7.27128 2.35304 7.45971C2.16829 7.64813 2.06595 7.90223 2.06854 8.16611C2.07113 8.42998 2.17844 8.68202 2.36687 8.86678C2.55529 9.05154 2.80939 9.15388 3.07327 9.15128L10.7244 9.07611L8.69104 11.1499C8.59953 11.2432 8.5273 11.3536 8.47847 11.4749C8.42964 11.5961 8.40516 11.7258 8.40645 11.8565C8.40773 11.9872 8.43475 12.1164 8.48595 12.2366C8.53715 12.3569 8.61154 12.4659 8.70487 12.5574C8.7982 12.6489 8.90864 12.7211 9.02988 12.77C9.15112 12.8188 9.2808 12.8433 9.4115 12.842C9.5422 12.8407 9.67137 12.8137 9.79163 12.7625C9.91189 12.7113 10.0209 12.6369 10.1124 12.5436L13.8272 8.75375Z" fill="white"/>
</svg>
